<?xml version="1.0" encoding="UTF-8" standalone="no"?>
<!DOCTYPE svg PUBLIC "-//W3C//DTD SVG 1.1//EN"
 "http://www.w3.org/Graphics/SVG/1.1/DTD/svg11.dtd">
<!-- Generated by graphviz version 2.26.3 (20100126.1600)
 -->
<!-- Title: AlertWebApp.cpp Pages: 1 -->
<svg width="2348pt" height="378pt"
 viewBox="0.00 0.00 2348.06 378.00" xmlns="http://www.w3.org/2000/svg" xmlns:xlink="http://www.w3.org/1999/xlink">
<g id="graph1" class="graph" transform="scale(1 1) rotate(0) translate(4 374)">
<title>AlertWebApp.cpp</title>
<polygon fill="white" stroke="white" points="-4,5 -4,-374 2345.06,-374 2345.06,5 -4,5"/>
<!-- Node1 -->
<g id="node1" class="node"><title>Node1</title>
<polygon fill="#bfbfbf" stroke="black" points="1087.48,-348.5 1087.48,-369.5 1185.48,-369.5 1185.48,-348.5 1087.48,-348.5"/>
<text text-anchor="middle" x="1136.48" y="-356.5" font-family="Helvetica,sans-Serif" font-size="10.00">AlertWebApp.cpp</text>
</g>
<!-- Node2 -->
<g id="node3" class="node"><title>Node2</title>
<polygon fill="white" stroke="#bfbfbf" points="1156.98,-0.5 1156.98,-21.5 1223.98,-21.5 1223.98,-0.5 1156.98,-0.5"/>
<text text-anchor="middle" x="1190.48" y="-8.5" font-family="Helvetica,sans-Serif" font-size="10.00">Common.h</text>
</g>
<!-- Node1&#45;&gt;Node2 -->
<g id="edge2" class="edge"><title>Node1&#45;&gt;Node2</title>
<path fill="none" stroke="midnightblue" d="M1087.34,-356.597C869.492,-345.625 1.47742,-298.43 1.47742,-243 1.47742,-243 1.47742,-243 1.47742,-127 1.47742,-95.1919 -4.43227,-77.7803 20.4774,-58 65.3676,-22.3536 939.592,-13.0347 1146.74,-11.3233"/>
<polygon fill="midnightblue" stroke="midnightblue" points="1146.96,-14.8217 1156.93,-11.2408 1146.9,-7.82191 1146.96,-14.8217"/>
</g>
<!-- Node3 -->
<g id="node5" class="node"><title>Node3</title>
<a xlink:href="AlertWebApp_8h.htm" target="_top" xlink:title="AlertWebApp.h">
<polygon fill="white" stroke="black" points="847.477,-290.5 847.477,-311.5 933.477,-311.5 933.477,-290.5 847.477,-290.5"/>
<text text-anchor="middle" x="890.477" y="-298.5" font-family="Helvetica,sans-Serif" font-size="10.00">AlertWebApp.h</text>
</a>
</g>
<!-- Node1&#45;&gt;Node3 -->
<g id="edge4" class="edge"><title>Node1&#45;&gt;Node3</title>
<path fill="none" stroke="midnightblue" d="M1091.93,-348.497C1050.31,-338.684 988.125,-324.023 943.867,-313.588"/>
<polygon fill="midnightblue" stroke="midnightblue" points="944.405,-310.119 933.869,-311.231 942.799,-316.932 944.405,-310.119"/>
</g>
<!-- Node8 -->
<g id="node17" class="node"><title>Node8</title>
<a xlink:href="SysMgrWebBridge_8h.htm" target="_top" xlink:title="SysMgrWebBridge.h">
<polygon fill="white" stroke="black" points="301.977,-116.5 301.977,-137.5 414.977,-137.5 414.977,-116.5 301.977,-116.5"/>
<text text-anchor="middle" x="358.477" y="-124.5" font-family="Helvetica,sans-Serif" font-size="10.00">SysMgrWebBridge.h</text>
</a>
</g>
<!-- Node1&#45;&gt;Node8 -->
<g id="edge60" class="edge"><title>Node1&#45;&gt;Node8</title>
<path fill="none" stroke="midnightblue" d="M1087.06,-356.307C948.44,-348.002 559.091,-319.302 451.477,-254 409.446,-228.494 380.56,-176.116 367.102,-147.231"/>
<polygon fill="midnightblue" stroke="midnightblue" points="370.133,-145.437 362.846,-137.746 363.747,-148.302 370.133,-145.437"/>
</g>
<!-- Node22 -->
<g id="node47" class="node"><title>Node22</title>
<polygon fill="white" stroke="#bfbfbf" points="1155.48,-174.5 1155.48,-195.5 1247.48,-195.5 1247.48,-174.5 1155.48,-174.5"/>
<text text-anchor="middle" x="1201.48" y="-182.5" font-family="Helvetica,sans-Serif" font-size="10.00">WindowTypes.h</text>
</g>
<!-- Node1&#45;&gt;Node22 -->
<g id="edge120" class="edge"><title>Node1&#45;&gt;Node22</title>
<path fill="none" stroke="midnightblue" d="M1131.3,-348.276C1121.01,-325.272 1100.77,-270.179 1122.48,-232 1130.63,-217.661 1145.08,-207.239 1159.41,-199.909"/>
<polygon fill="midnightblue" stroke="midnightblue" points="1161.18,-202.946 1168.74,-195.528 1158.2,-196.609 1161.18,-202.946"/>
</g>
<!-- Node24 -->
<g id="node51" class="node"><title>Node24</title>
<polygon fill="white" stroke="#bfbfbf" points="1265.48,-174.5 1265.48,-195.5 1339.48,-195.5 1339.48,-174.5 1265.48,-174.5"/>
<text text-anchor="middle" x="1302.48" y="-182.5" font-family="Helvetica,sans-Serif" font-size="10.00">PIpcBuffer.h</text>
</g>
<!-- Node1&#45;&gt;Node24 -->
<g id="edge122" class="edge"><title>Node1&#45;&gt;Node24</title>
<path fill="none" stroke="midnightblue" d="M1137.22,-348.249C1138.67,-333.819 1142.96,-307.929 1155.48,-290 1184.69,-248.164 1236.15,-217.093 1269.78,-200.003"/>
<polygon fill="midnightblue" stroke="midnightblue" points="1271.35,-203.131 1278.76,-195.556 1268.24,-196.858 1271.35,-203.131"/>
</g>
<!-- Node26 -->
<g id="node55" class="node"><title>Node26</title>
<polygon fill="white" stroke="#bfbfbf" points="1163.98,-290.5 1163.98,-311.5 1226.98,-311.5 1226.98,-290.5 1163.98,-290.5"/>
<text text-anchor="middle" x="1195.48" y="-298.5" font-family="Helvetica,sans-Serif" font-size="10.00">Settings.h</text>
</g>
<!-- Node1&#45;&gt;Node26 -->
<g id="edge58" class="edge"><title>Node1&#45;&gt;Node26</title>
<path fill="none" stroke="midnightblue" d="M1147.3,-348.362C1155.7,-340.104 1167.53,-328.472 1177.37,-318.803"/>
<polygon fill="midnightblue" stroke="midnightblue" points="1180.05,-321.077 1184.72,-311.571 1175.14,-316.085 1180.05,-321.077"/>
</g>
<!-- Node27 -->
<g id="node58" class="node"><title>Node27</title>
<a xlink:href="WebAppManager_8h.htm" target="_top" xlink:title="WebAppManager.h">
<polygon fill="white" stroke="black" points="1566.98,-232.5 1566.98,-253.5 1673.98,-253.5 1673.98,-232.5 1566.98,-232.5"/>
<text text-anchor="middle" x="1620.48" y="-240.5" font-family="Helvetica,sans-Serif" font-size="10.00">WebAppManager.h</text>
</a>
</g>
<!-- Node1&#45;&gt;Node27 -->
<g id="edge62" class="edge"><title>Node1&#45;&gt;Node27</title>
<path fill="none" stroke="midnightblue" d="M1160.35,-348.33C1180.57,-339.134 1210.22,-325.28 1235.48,-312 1252.75,-302.919 1255.01,-296.318 1273.48,-290 1324.47,-272.552 1471.26,-256.729 1556.7,-248.648"/>
<polygon fill="midnightblue" stroke="midnightblue" points="1557.18,-252.119 1566.81,-247.702 1556.53,-245.15 1557.18,-252.119"/>
</g>
<!-- Node40 -->
<g id="node102" class="node"><title>Node40</title>
<polygon fill="white" stroke="#bfbfbf" points="1282.48,-290.5 1282.48,-311.5 1368.48,-311.5 1368.48,-290.5 1282.48,-290.5"/>
<text text-anchor="middle" x="1325.48" y="-298.5" font-family="Helvetica,sans-Serif" font-size="10.00">PIpcChannel.h</text>
</g>
<!-- Node1&#45;&gt;Node40 -->
<g id="edge124" class="edge"><title>Node1&#45;&gt;Node40</title>
<path fill="none" stroke="midnightblue" d="M1170.7,-348.497C1201.78,-338.959 1247.79,-324.841 1281.57,-314.475"/>
<polygon fill="midnightblue" stroke="midnightblue" points="1282.65,-317.803 1291.19,-311.523 1280.6,-311.111 1282.65,-317.803"/>
</g>
<!-- Node41 -->
<g id="node104" class="node"><title>Node41</title>
<polygon fill="white" stroke="#bfbfbf" points="1385.98,-290.5 1385.98,-311.5 1510.98,-311.5 1510.98,-290.5 1385.98,-290.5"/>
<text text-anchor="middle" x="1448.48" y="-298.5" font-family="Helvetica,sans-Serif" font-size="10.00">PIpcMessageMacros.h</text>
</g>
<!-- Node1&#45;&gt;Node41 -->
<g id="edge126" class="edge"><title>Node1&#45;&gt;Node41</title>
<path fill="none" stroke="midnightblue" d="M1185.57,-349.874C1238.46,-340.043 1322.92,-324.34 1381.8,-313.396"/>
<polygon fill="midnightblue" stroke="midnightblue" points="1382.55,-316.815 1391.75,-311.546 1381.27,-309.933 1382.55,-316.815"/>
</g>
<!-- Node3&#45;&gt;Node2 -->
<g id="edge6" class="edge"><title>Node3&#45;&gt;Node2</title>
<path fill="none" stroke="midnightblue" d="M847.449,-296.43C752.338,-285.351 529.106,-253.638 484.477,-196 460.44,-164.955 390.651,-160.331 498.477,-58 522.041,-35.6379 997.699,-17.5761 1146.43,-12.4573"/>
<polygon fill="midnightblue" stroke="midnightblue" points="1146.69,-15.9507 1156.56,-12.1113 1146.45,-8.95474 1146.69,-15.9507"/>
</g>
<!-- Node4 -->
<g id="node8" class="node"><title>Node4</title>
<a xlink:href="WindowedWebApp_8h.htm" target="_top" xlink:title="WindowedWebApp.h">
<polygon fill="white" stroke="black" points="833.477,-232.5 833.477,-253.5 947.477,-253.5 947.477,-232.5 833.477,-232.5"/>
<text text-anchor="middle" x="890.477" y="-240.5" font-family="Helvetica,sans-Serif" font-size="10.00">WindowedWebApp.h</text>
</a>
</g>
<!-- Node3&#45;&gt;Node4 -->
<g id="edge8" class="edge"><title>Node3&#45;&gt;Node4</title>
<path fill="none" stroke="midnightblue" d="M890.477,-290.362C890.477,-282.922 890.477,-272.743 890.477,-263.728"/>
<polygon fill="midnightblue" stroke="midnightblue" points="893.978,-263.571 890.477,-253.571 886.978,-263.571 893.978,-263.571"/>
</g>
<!-- Node4&#45;&gt;Node2 -->
<g id="edge10" class="edge"><title>Node4&#45;&gt;Node2</title>
<path fill="none" stroke="midnightblue" d="M833.202,-241.018C764.121,-237.283 654.052,-226.571 628.477,-196 622.204,-188.5 622.605,-181.818 628.477,-174 692.211,-89.1544 1026.19,-34.2366 1146.9,-16.904"/>
<polygon fill="midnightblue" stroke="midnightblue" points="1147.49,-20.3554 1156.9,-15.4845 1146.5,-13.4249 1147.49,-20.3554"/>
</g>
<!-- Node5 -->
<g id="node11" class="node"><title>Node5</title>
<polygon fill="white" stroke="#bfbfbf" points="896.977,-174.5 896.977,-195.5 925.977,-195.5 925.977,-174.5 896.977,-174.5"/>
<text text-anchor="middle" x="911.477" y="-182.5" font-family="Helvetica,sans-Serif" font-size="10.00">list</text>
</g>
<!-- Node4&#45;&gt;Node5 -->
<g id="edge12" class="edge"><title>Node4&#45;&gt;Node5</title>
<path fill="none" stroke="midnightblue" d="M894.329,-232.362C897.082,-224.758 900.871,-214.294 904.187,-205.135"/>
<polygon fill="midnightblue" stroke="midnightblue" points="907.537,-206.165 907.65,-195.571 900.955,-203.782 907.537,-206.165"/>
</g>
<!-- Node6 -->
<g id="node13" class="node"><title>Node6</title>
<polygon fill="white" stroke="#bfbfbf" points="700.977,-174.5 700.977,-195.5 781.977,-195.5 781.977,-174.5 700.977,-174.5"/>
<text text-anchor="middle" x="741.477" y="-182.5" font-family="Helvetica,sans-Serif" font-size="10.00">AsyncCaller.h</text>
</g>
<!-- Node4&#45;&gt;Node6 -->
<g id="edge14" class="edge"><title>Node4&#45;&gt;Node6</title>
<path fill="none" stroke="midnightblue" d="M863.495,-232.497C839.624,-223.205 804.584,-209.565 778.17,-199.283"/>
<polygon fill="midnightblue" stroke="midnightblue" points="779.099,-195.889 768.511,-195.523 776.56,-202.412 779.099,-195.889"/>
</g>
<!-- Node7 -->
<g id="node15" class="node"><title>Node7</title>
<a xlink:href="WebAppBase_8h.htm" target="_top" xlink:title="WebAppBase.h">
<polygon fill="white" stroke="black" points="492.977,-174.5 492.977,-195.5 581.977,-195.5 581.977,-174.5 492.977,-174.5"/>
<text text-anchor="middle" x="537.477" y="-182.5" font-family="Helvetica,sans-Serif" font-size="10.00">WebAppBase.h</text>
</a>
</g>
<!-- Node4&#45;&gt;Node7 -->
<g id="edge16" class="edge"><title>Node4&#45;&gt;Node7</title>
<path fill="none" stroke="midnightblue" d="M833.29,-234.399C773.798,-225.332 677.987,-210.394 595.477,-196 594.392,-195.811 593.296,-195.618 592.191,-195.422"/>
<polygon fill="midnightblue" stroke="midnightblue" points="592.564,-191.933 582.101,-193.6 591.32,-198.822 592.564,-191.933"/>
</g>
<!-- Node18 -->
<g id="node39" class="node"><title>Node18</title>
<polygon fill="white" stroke="#bfbfbf" points="798.977,-174.5 798.977,-195.5 841.977,-195.5 841.977,-174.5 798.977,-174.5"/>
<text text-anchor="middle" x="820.477" y="-182.5" font-family="Helvetica,sans-Serif" font-size="10.00">sptr.h</text>
</g>
<!-- Node4&#45;&gt;Node18 -->
<g id="edge42" class="edge"><title>Node4&#45;&gt;Node18</title>
<path fill="none" stroke="midnightblue" d="M877.638,-232.362C867.475,-223.941 853.076,-212.011 841.273,-202.231"/>
<polygon fill="midnightblue" stroke="midnightblue" points="843.168,-199.256 833.235,-195.571 838.702,-204.646 843.168,-199.256"/>
</g>
<!-- Node19 -->
<g id="node41" class="node"><title>Node19</title>
<polygon fill="white" stroke="#bfbfbf" points="1085.48,-174.5 1085.48,-195.5 1137.48,-195.5 1137.48,-174.5 1085.48,-174.5"/>
<text text-anchor="middle" x="1111.48" y="-182.5" font-family="Helvetica,sans-Serif" font-size="10.00">Event.h</text>
</g>
<!-- Node4&#45;&gt;Node19 -->
<g id="edge44" class="edge"><title>Node4&#45;&gt;Node19</title>
<path fill="none" stroke="midnightblue" d="M935.392,-232.411C970.968,-223.852 1022.14,-211.165 1075.22,-196.259"/>
<polygon fill="midnightblue" stroke="midnightblue" points="1076.48,-199.54 1085.15,-193.45 1074.58,-192.804 1076.48,-199.54"/>
</g>
<!-- Node20 -->
<g id="node43" class="node"><title>Node20</title>
<polygon fill="white" stroke="#bfbfbf" points="1561.48,-116.5 1561.48,-137.5 1613.48,-137.5 1613.48,-116.5 1561.48,-116.5"/>
<text text-anchor="middle" x="1587.48" y="-124.5" font-family="Helvetica,sans-Serif" font-size="10.00">Timer.h</text>
</g>
<!-- Node4&#45;&gt;Node20 -->
<g id="edge46" class="edge"><title>Node4&#45;&gt;Node20</title>
<path fill="none" stroke="midnightblue" d="M886.067,-232.281C880.642,-217.161 873.826,-189.669 888.477,-174 911.298,-149.593 1410.11,-132.453 1550.82,-128.091"/>
<polygon fill="midnightblue" stroke="midnightblue" points="1551.19,-131.581 1561.07,-127.776 1550.97,-124.585 1551.19,-131.581"/>
</g>
<!-- Node21 -->
<g id="node45" class="node"><title>Node21</title>
<polygon fill="white" stroke="#bfbfbf" points="1356.98,-174.5 1356.98,-195.5 1467.98,-195.5 1467.98,-174.5 1356.98,-174.5"/>
<text text-anchor="middle" x="1412.48" y="-182.5" font-family="Helvetica,sans-Serif" font-size="10.00">WindowProperties.h</text>
</g>
<!-- Node4&#45;&gt;Node21 -->
<g id="edge48" class="edge"><title>Node4&#45;&gt;Node21</title>
<path fill="none" stroke="midnightblue" d="M947.748,-238.382C1032.65,-231.257 1197.14,-216.391 1346.4,-196.221"/>
<polygon fill="midnightblue" stroke="midnightblue" points="1347.23,-199.641 1356.66,-194.823 1346.28,-192.705 1347.23,-199.641"/>
</g>
<!-- Node4&#45;&gt;Node22 -->
<g id="edge50" class="edge"><title>Node4&#45;&gt;Node22</title>
<path fill="none" stroke="midnightblue" d="M947.718,-232.758C997.401,-223.808 1071.54,-210.307 1145.34,-196.199"/>
<polygon fill="midnightblue" stroke="midnightblue" points="1146.11,-199.615 1155.27,-194.296 1144.79,-192.74 1146.11,-199.615"/>
</g>
<!-- Node23 -->
<g id="node49" class="node"><title>Node23</title>
<polygon fill="white" stroke="#bfbfbf" points="943.477,-174.5 943.477,-195.5 1067.48,-195.5 1067.48,-174.5 943.477,-174.5"/>
<text text-anchor="middle" x="1005.48" y="-182.5" font-family="Helvetica,sans-Serif" font-size="10.00">PIpcChannelListener.h</text>
</g>
<!-- Node4&#45;&gt;Node23 -->
<g id="edge52" class="edge"><title>Node4&#45;&gt;Node23</title>
<path fill="none" stroke="midnightblue" d="M911.303,-232.497C929.184,-223.479 955.185,-210.365 975.338,-200.201"/>
<polygon fill="midnightblue" stroke="midnightblue" points="977.066,-203.249 984.418,-195.621 973.913,-196.999 977.066,-203.249"/>
</g>
<!-- Node4&#45;&gt;Node24 -->
<g id="edge54" class="edge"><title>Node4&#45;&gt;Node24</title>
<path fill="none" stroke="midnightblue" d="M947.512,-237.586C1017.71,-230.498 1140.72,-216.698 1255.39,-196.051"/>
<polygon fill="midnightblue" stroke="midnightblue" points="1256.18,-199.464 1265.39,-194.228 1254.93,-192.578 1256.18,-199.464"/>
</g>
<!-- Node25 -->
<g id="node53" class="node"><title>Node25</title>
<polygon fill="white" stroke="#bfbfbf" points="636.977,-174.5 636.977,-195.5 683.977,-195.5 683.977,-174.5 636.977,-174.5"/>
<text text-anchor="middle" x="660.477" y="-182.5" font-family="Helvetica,sans-Serif" font-size="10.00">QRect</text>
</g>
<!-- Node4&#45;&gt;Node25 -->
<g id="edge56" class="edge"><title>Node4&#45;&gt;Node25</title>
<path fill="none" stroke="midnightblue" d="M840.077,-232.467C802.127,-224.212 748.666,-211.9 694.014,-196.28"/>
<polygon fill="midnightblue" stroke="midnightblue" points="694.739,-192.846 684.16,-193.43 692.795,-199.57 694.739,-192.846"/>
</g>
<!-- Node7&#45;&gt;Node8 -->
<g id="edge18" class="edge"><title>Node7&#45;&gt;Node8</title>
<path fill="none" stroke="midnightblue" d="M505.062,-174.497C475.754,-165 432.429,-150.962 400.477,-140.609"/>
<polygon fill="midnightblue" stroke="midnightblue" points="401.546,-137.276 390.954,-137.523 399.388,-143.935 401.546,-137.276"/>
</g>
<!-- Node13 -->
<g id="node28" class="node"><title>Node13</title>
<polygon fill="white" stroke="#bfbfbf" points="507.477,-58.5 507.477,-79.5 605.477,-79.5 605.477,-58.5 507.477,-58.5"/>
<text text-anchor="middle" x="556.477" y="-66.5" font-family="Helvetica,sans-Serif" font-size="10.00">palmimedefines.h</text>
</g>
<!-- Node7&#45;&gt;Node13 -->
<g id="edge40" class="edge"><title>Node7&#45;&gt;Node13</title>
<path fill="none" stroke="midnightblue" d="M537.539,-174.152C537.781,-160.483 538.76,-136.321 542.477,-116 544.097,-107.149 546.765,-97.5951 549.34,-89.4277"/>
<polygon fill="midnightblue" stroke="midnightblue" points="552.752,-90.2586 552.576,-79.6652 546.108,-88.0562 552.752,-90.2586"/>
</g>
<!-- Node16 -->
<g id="node34" class="node"><title>Node16</title>
<polygon fill="white" stroke="#bfbfbf" points="550.977,-116.5 550.977,-137.5 605.977,-137.5 605.977,-116.5 550.977,-116.5"/>
<text text-anchor="middle" x="578.477" y="-124.5" font-family="Helvetica,sans-Serif" font-size="10.00">QObject</text>
</g>
<!-- Node7&#45;&gt;Node16 -->
<g id="edge36" class="edge"><title>Node7&#45;&gt;Node16</title>
<path fill="none" stroke="midnightblue" d="M544.997,-174.362C550.604,-166.431 558.41,-155.389 565.074,-145.961"/>
<polygon fill="midnightblue" stroke="midnightblue" points="568.091,-147.757 571.005,-137.571 562.375,-143.716 568.091,-147.757"/>
</g>
<!-- Node17 -->
<g id="node36" class="node"><title>Node17</title>
<polygon fill="white" stroke="#bfbfbf" points="1044.48,-116.5 1044.48,-137.5 1122.48,-137.5 1122.48,-116.5 1044.48,-116.5"/>
<text text-anchor="middle" x="1083.48" y="-124.5" font-family="Helvetica,sans-Serif" font-size="10.00">lunaservice.h</text>
</g>
<!-- Node7&#45;&gt;Node17 -->
<g id="edge38" class="edge"><title>Node7&#45;&gt;Node17</title>
<path fill="none" stroke="midnightblue" d="M582.356,-179.418C597.049,-177.633 613.454,-175.684 628.477,-174 776.019,-157.464 950.724,-140.014 1034.23,-131.804"/>
<polygon fill="midnightblue" stroke="midnightblue" points="1034.59,-135.286 1044.2,-130.826 1033.9,-128.32 1034.59,-135.286"/>
</g>
<!-- Node9 -->
<g id="node19" class="node"><title>Node9</title>
<a xlink:href="ProcessBase_8h.htm" target="_top" xlink:title="ProcessBase.h">
<polygon fill="white" stroke="black" points="28.9774,-58.5 28.9774,-79.5 115.977,-79.5 115.977,-58.5 28.9774,-58.5"/>
<text text-anchor="middle" x="72.4774" y="-66.5" font-family="Helvetica,sans-Serif" font-size="10.00">ProcessBase.h</text>
</a>
</g>
<!-- Node8&#45;&gt;Node9 -->
<g id="edge20" class="edge"><title>Node8&#45;&gt;Node9</title>
<path fill="none" stroke="midnightblue" d="M305.007,-116.422C259.782,-107.439 192.988,-94.0849 126.04,-80.3101"/>
<polygon fill="midnightblue" stroke="midnightblue" points="126.664,-76.8653 116.163,-78.2752 125.251,-83.7213 126.664,-76.8653"/>
</g>
<!-- Node11 -->
<g id="node24" class="node"><title>Node11</title>
<polygon fill="white" stroke="#bfbfbf" points="390.977,-58.5 390.977,-79.5 451.977,-79.5 451.977,-58.5 390.977,-58.5"/>
<text text-anchor="middle" x="421.477" y="-66.5" font-family="Helvetica,sans-Serif" font-size="10.00">QtWebKit</text>
</g>
<!-- Node8&#45;&gt;Node11 -->
<g id="edge26" class="edge"><title>Node8&#45;&gt;Node11</title>
<path fill="none" stroke="midnightblue" d="M370.033,-116.362C379.091,-108.023 391.887,-96.2418 402.451,-86.5162"/>
<polygon fill="midnightblue" stroke="midnightblue" points="405.009,-88.9187 409.996,-79.5707 400.268,-83.7688 405.009,-88.9187"/>
</g>
<!-- Node12 -->
<g id="node26" class="node"><title>Node12</title>
<polygon fill="white" stroke="#bfbfbf" points="132.977,-58.5 132.977,-79.5 191.977,-79.5 191.977,-58.5 132.977,-58.5"/>
<text text-anchor="middle" x="162.477" y="-66.5" font-family="Helvetica,sans-Serif" font-size="10.00">QPointer</text>
</g>
<!-- Node8&#45;&gt;Node12 -->
<g id="edge28" class="edge"><title>Node8&#45;&gt;Node12</title>
<path fill="none" stroke="midnightblue" d="M322.983,-116.497C288.946,-106.424 237.644,-91.2431 202.246,-80.7681"/>
<polygon fill="midnightblue" stroke="midnightblue" points="202.842,-77.2946 192.26,-77.8131 200.856,-84.0069 202.842,-77.2946"/>
</g>
<!-- Node8&#45;&gt;Node13 -->
<g id="edge30" class="edge"><title>Node8&#45;&gt;Node13</title>
<path fill="none" stroke="midnightblue" d="M394.334,-116.497C427.032,-106.918 475.504,-92.7196 510.931,-82.3418"/>
<polygon fill="midnightblue" stroke="midnightblue" points="511.941,-85.6932 520.554,-79.5231 509.973,-78.9754 511.941,-85.6932"/>
</g>
<!-- Node14 -->
<g id="node30" class="node"><title>Node14</title>
<polygon fill="white" stroke="#bfbfbf" points="208.977,-58.5 208.977,-79.5 279.977,-79.5 279.977,-58.5 208.977,-58.5"/>
<text text-anchor="middle" x="244.477" y="-66.5" font-family="Helvetica,sans-Serif" font-size="10.00">QWebPage</text>
</g>
<!-- Node8&#45;&gt;Node14 -->
<g id="edge32" class="edge"><title>Node8&#45;&gt;Node14</title>
<path fill="none" stroke="midnightblue" d="M337.833,-116.497C320.108,-107.479 294.333,-94.3649 274.354,-84.2006"/>
<polygon fill="midnightblue" stroke="midnightblue" points="275.854,-81.0364 265.354,-79.6212 272.679,-87.2753 275.854,-81.0364"/>
</g>
<!-- Node15 -->
<g id="node32" class="node"><title>Node15</title>
<polygon fill="white" stroke="#bfbfbf" points="297.477,-58.5 297.477,-79.5 373.477,-79.5 373.477,-58.5 297.477,-58.5"/>
<text text-anchor="middle" x="335.477" y="-66.5" font-family="Helvetica,sans-Serif" font-size="10.00">QWebFrame</text>
</g>
<!-- Node8&#45;&gt;Node15 -->
<g id="edge34" class="edge"><title>Node8&#45;&gt;Node15</title>
<path fill="none" stroke="midnightblue" d="M354.259,-116.362C351.244,-108.758 347.094,-98.294 343.462,-89.1349"/>
<polygon fill="midnightblue" stroke="midnightblue" points="346.609,-87.5762 339.669,-79.5707 340.102,-90.1567 346.609,-87.5762"/>
</g>
<!-- Node9&#45;&gt;Node2 -->
<g id="edge22" class="edge"><title>Node9&#45;&gt;Node2</title>
<path fill="none" stroke="midnightblue" d="M116.082,-59.2328C118.914,-58.7666 121.731,-58.3486 124.477,-58 327.197,-32.267 972.212,-15.9808 1146.63,-11.9706"/>
<polygon fill="midnightblue" stroke="midnightblue" points="1146.81,-15.4676 1156.73,-11.7402 1146.65,-8.4694 1146.81,-15.4676"/>
</g>
<!-- Node10 -->
<g id="node22" class="node"><title>Node10</title>
<polygon fill="white" stroke="#bfbfbf" points="287.977,-0.5 287.977,-21.5 340.977,-21.5 340.977,-0.5 287.977,-0.5"/>
<text text-anchor="middle" x="314.477" y="-8.5" font-family="Helvetica,sans-Serif" font-size="10.00">QString</text>
</g>
<!-- Node9&#45;&gt;Node10 -->
<g id="edge24" class="edge"><title>Node9&#45;&gt;Node10</title>
<path fill="none" stroke="midnightblue" d="M116.022,-58.5638C162.257,-47.4827 234.521,-30.1631 277.909,-19.7644"/>
<polygon fill="midnightblue" stroke="midnightblue" points="278.85,-23.1381 287.759,-17.4037 277.218,-16.3308 278.85,-23.1381"/>
</g>
<!-- Node27&#45;&gt;Node2 -->
<g id="edge64" class="edge"><title>Node27&#45;&gt;Node2</title>
<path fill="none" stroke="midnightblue" d="M1674.04,-234.279C1715.55,-224.859 1763.12,-206.617 1744.48,-174 1694.05,-85.789 1643.55,-91.0724 1547.48,-58 1490.37,-38.3403 1316.07,-21.5811 1234.03,-14.545"/>
<polygon fill="midnightblue" stroke="midnightblue" points="1234.29,-11.0543 1224.03,-13.6961 1233.7,-18.0292 1234.29,-11.0543"/>
</g>
<!-- Node27&#45;&gt;Node5 -->
<g id="edge68" class="edge"><title>Node27&#45;&gt;Node5</title>
<path fill="none" stroke="midnightblue" d="M1566.82,-241.925C1430.35,-238.787 1071.76,-227.909 936.026,-195.536"/>
<polygon fill="midnightblue" stroke="midnightblue" points="936.814,-192.125 926.261,-193.065 935.096,-198.911 936.814,-192.125"/>
</g>
<!-- Node27&#45;&gt;Node10 -->
<g id="edge72" class="edge"><title>Node27&#45;&gt;Node10</title>
<path fill="none" stroke="midnightblue" d="M1607.67,-232.36C1588.21,-216.813 1549.45,-188.201 1511.48,-174 1289.61,-91.0191 527.333,-27.5705 351.062,-13.7912"/>
<polygon fill="midnightblue" stroke="midnightblue" points="351.244,-10.2949 341.002,-13.0092 350.701,-17.2738 351.244,-10.2949"/>
</g>
<!-- Node27&#45;&gt;Node17 -->
<g id="edge110" class="edge"><title>Node27&#45;&gt;Node17</title>
<path fill="none" stroke="midnightblue" d="M1597.09,-232.418C1576.55,-223.049 1545.89,-208.899 1519.48,-196 1500.19,-186.581 1497.01,-180.261 1476.48,-174 1413.27,-154.726 1223.2,-137.883 1132.57,-130.698"/>
<polygon fill="midnightblue" stroke="midnightblue" points="1132.8,-127.205 1122.55,-129.911 1132.25,-134.184 1132.8,-127.205"/>
</g>
<!-- Node27&#45;&gt;Node19 -->
<g id="edge82" class="edge"><title>Node27&#45;&gt;Node19</title>
<path fill="none" stroke="midnightblue" d="M1566.63,-241.261C1479.95,-237.677 1304.17,-227.17 1147.51,-195.871"/>
<polygon fill="midnightblue" stroke="midnightblue" points="1148.2,-192.438 1137.7,-193.877 1146.8,-199.298 1148.2,-192.438"/>
</g>
<!-- Node27&#45;&gt;Node20 -->
<g id="edge98" class="edge"><title>Node27&#45;&gt;Node20</title>
<path fill="none" stroke="midnightblue" d="M1611.27,-232.258C1604.14,-223.236 1594.79,-209.662 1590.48,-196 1585.52,-180.301 1585.02,-161.595 1585.62,-147.622"/>
<polygon fill="midnightblue" stroke="midnightblue" points="1589.11,-147.785 1586.27,-137.579 1582.13,-147.331 1589.11,-147.785"/>
</g>
<!-- Node27&#45;&gt;Node21 -->
<g id="edge102" class="edge"><title>Node27&#45;&gt;Node21</title>
<path fill="none" stroke="midnightblue" d="M1582.81,-232.497C1548.46,-222.918 1497.54,-208.72 1460.32,-198.342"/>
<polygon fill="midnightblue" stroke="midnightblue" points="1460.79,-194.838 1450.22,-195.523 1458.91,-201.581 1460.79,-194.838"/>
</g>
<!-- Node27&#45;&gt;Node22 -->
<g id="edge100" class="edge"><title>Node27&#45;&gt;Node22</title>
<path fill="none" stroke="midnightblue" d="M1566.96,-237.259C1497.85,-229.587 1373.64,-214.92 1257.76,-196.128"/>
<polygon fill="midnightblue" stroke="midnightblue" points="1258.08,-192.635 1247.65,-194.474 1256.95,-199.543 1258.08,-192.635"/>
</g>
<!-- Node27&#45;&gt;Node23 -->
<g id="edge116" class="edge"><title>Node27&#45;&gt;Node23</title>
<path fill="none" stroke="midnightblue" d="M1566.69,-239.562C1470.67,-233.161 1263.2,-218.136 1077.98,-196.119"/>
<polygon fill="midnightblue" stroke="midnightblue" points="1078.13,-192.611 1067.78,-194.896 1077.3,-199.562 1078.13,-192.611"/>
</g>
<!-- Node27&#45;&gt;Node24 -->
<g id="edge112" class="edge"><title>Node27&#45;&gt;Node24</title>
<path fill="none" stroke="midnightblue" d="M1566.87,-234.77C1514.02,-226.423 1430.75,-212.653 1349.49,-196.119"/>
<polygon fill="midnightblue" stroke="midnightblue" points="1350.09,-192.669 1339.59,-194.089 1348.68,-199.526 1350.09,-192.669"/>
</g>
<!-- Node28 -->
<g id="node61" class="node"><title>Node28</title>
<polygon fill="white" stroke="#bfbfbf" points="1903.98,-116.5 1903.98,-137.5 1940.98,-137.5 1940.98,-116.5 1903.98,-116.5"/>
<text text-anchor="middle" x="1922.48" y="-124.5" font-family="Helvetica,sans-Serif" font-size="10.00">map</text>
</g>
<!-- Node27&#45;&gt;Node28 -->
<g id="edge66" class="edge"><title>Node27&#45;&gt;Node28</title>
<path fill="none" stroke="midnightblue" d="M1674.25,-237.481C1737.63,-230.192 1838.39,-215.91 1870.48,-196 1889.58,-184.145 1904.14,-162.517 1912.93,-146.626"/>
<polygon fill="midnightblue" stroke="midnightblue" points="1916.11,-148.094 1917.64,-137.611 1909.91,-144.85 1916.11,-148.094"/>
</g>
<!-- Node29 -->
<g id="node64" class="node"><title>Node29</title>
<polygon fill="white" stroke="#bfbfbf" points="1598.98,-174.5 1598.98,-195.5 1641.98,-195.5 1641.98,-174.5 1598.98,-174.5"/>
<text text-anchor="middle" x="1620.48" y="-182.5" font-family="Helvetica,sans-Serif" font-size="10.00">string</text>
</g>
<!-- Node27&#45;&gt;Node29 -->
<g id="edge70" class="edge"><title>Node27&#45;&gt;Node29</title>
<path fill="none" stroke="midnightblue" d="M1620.48,-232.362C1620.48,-224.922 1620.48,-214.743 1620.48,-205.728"/>
<polygon fill="midnightblue" stroke="midnightblue" points="1623.98,-205.571 1620.48,-195.571 1616.98,-205.571 1623.98,-205.571"/>
</g>
<!-- Node30 -->
<g id="node67" class="node"><title>Node30</title>
<polygon fill="white" stroke="#bfbfbf" points="1658.98,-174.5 1658.98,-195.5 1735.98,-195.5 1735.98,-174.5 1658.98,-174.5"/>
<text text-anchor="middle" x="1697.48" y="-182.5" font-family="Helvetica,sans-Serif" font-size="10.00">QApplication</text>
</g>
<!-- Node27&#45;&gt;Node30 -->
<g id="edge74" class="edge"><title>Node27&#45;&gt;Node30</title>
<path fill="none" stroke="midnightblue" d="M1634.6,-232.362C1646,-223.777 1662.24,-211.546 1675.36,-201.664"/>
<polygon fill="midnightblue" stroke="midnightblue" points="1677.56,-204.383 1683.44,-195.571 1673.35,-198.792 1677.56,-204.383"/>
</g>
<!-- Node31 -->
<g id="node69" class="node"><title>Node31</title>
<a xlink:href="SyncTask_8h.htm" target="_top" xlink:title="SyncTask.h">
<polygon fill="white" stroke="black" points="1790.98,-174.5 1790.98,-195.5 1861.98,-195.5 1861.98,-174.5 1790.98,-174.5"/>
<text text-anchor="middle" x="1826.48" y="-182.5" font-family="Helvetica,sans-Serif" font-size="10.00">SyncTask.h</text>
</a>
</g>
<!-- Node27&#45;&gt;Node31 -->
<g id="edge76" class="edge"><title>Node27&#45;&gt;Node31</title>
<path fill="none" stroke="midnightblue" d="M1657.78,-232.497C1692.33,-222.769 1743.81,-208.276 1780.8,-197.86"/>
<polygon fill="midnightblue" stroke="midnightblue" points="1782.15,-201.116 1790.83,-195.037 1780.25,-194.378 1782.15,-201.116"/>
</g>
<!-- Node33 -->
<g id="node75" class="node"><title>Node33</title>
<a xlink:href="MemoryWatcher_8h.htm" target="_top" xlink:title="MemoryWatcher.h">
<polygon fill="white" stroke="black" points="1916.98,-174.5 1916.98,-195.5 2019.98,-195.5 2019.98,-174.5 1916.98,-174.5"/>
<text text-anchor="middle" x="1968.48" y="-182.5" font-family="Helvetica,sans-Serif" font-size="10.00">MemoryWatcher.h</text>
</a>
</g>
<!-- Node27&#45;&gt;Node33 -->
<g id="edge84" class="edge"><title>Node27&#45;&gt;Node33</title>
<path fill="none" stroke="midnightblue" d="M1674.21,-234.126C1731.14,-224.713 1823.66,-209.382 1903.48,-196 1904.55,-195.82 1905.63,-195.639 1906.72,-195.456"/>
<polygon fill="midnightblue" stroke="midnightblue" points="1907.4,-198.891 1916.68,-193.78 1906.24,-191.988 1907.4,-198.891"/>
</g>
<!-- Node35 -->
<g id="node81" class="node"><title>Node35</title>
<polygon fill="white" stroke="#bfbfbf" points="2166.48,-116.5 2166.48,-137.5 2238.48,-137.5 2238.48,-116.5 2166.48,-116.5"/>
<text text-anchor="middle" x="2202.48" y="-124.5" font-family="Helvetica,sans-Serif" font-size="10.00">SignalSlot.h</text>
</g>
<!-- Node27&#45;&gt;Node35 -->
<g id="edge96" class="edge"><title>Node27&#45;&gt;Node35</title>
<path fill="none" stroke="midnightblue" d="M1674.25,-241.333C1833.13,-236.147 2290.76,-219.247 2312.48,-196 2336.93,-169.827 2288.65,-149.561 2248.5,-137.954"/>
<polygon fill="midnightblue" stroke="midnightblue" points="2249.36,-134.558 2238.79,-135.261 2247.49,-141.304 2249.36,-134.558"/>
</g>
<!-- Node36 -->
<g id="node88" class="node"><title>Node36</title>
<a xlink:href="WebAppCache_8h.htm" target="_top" xlink:title="WebAppCache.h">
<polygon fill="white" stroke="black" points="2158.98,-58.5 2158.98,-79.5 2253.98,-79.5 2253.98,-58.5 2158.98,-58.5"/>
<text text-anchor="middle" x="2206.48" y="-66.5" font-family="Helvetica,sans-Serif" font-size="10.00">WebAppCache.h</text>
</a>
</g>
<!-- Node27&#45;&gt;Node36 -->
<g id="edge104" class="edge"><title>Node27&#45;&gt;Node36</title>
<path fill="none" stroke="midnightblue" d="M1674.13,-241.427C1835.57,-236.437 2307.14,-219.868 2329.48,-196 2367.92,-154.926 2288.27,-107.568 2239.92,-83.978"/>
<polygon fill="midnightblue" stroke="midnightblue" points="2241.24,-80.7318 2230.71,-79.5857 2238.23,-87.0499 2241.24,-80.7318"/>
</g>
<!-- Node37 -->
<g id="node91" class="node"><title>Node37</title>
<polygon fill="white" stroke="#bfbfbf" points="2036.98,-174.5 2036.98,-195.5 2107.98,-195.5 2107.98,-174.5 2036.98,-174.5"/>
<text text-anchor="middle" x="2072.48" y="-182.5" font-family="Helvetica,sans-Serif" font-size="10.00">HostBase.h</text>
</g>
<!-- Node27&#45;&gt;Node37 -->
<g id="edge108" class="edge"><title>Node27&#45;&gt;Node37</title>
<path fill="none" stroke="midnightblue" d="M1674.27,-239.05C1750.64,-232.948 1894.99,-219.593 2026.31,-196.235"/>
<polygon fill="midnightblue" stroke="midnightblue" points="2027.32,-199.609 2036.54,-194.389 2026.08,-192.72 2027.32,-199.609"/>
</g>
<!-- Node38 -->
<g id="node95" class="node"><title>Node38</title>
<polygon fill="white" stroke="#bfbfbf" points="2124.98,-174.5 2124.98,-195.5 2197.98,-195.5 2197.98,-174.5 2124.98,-174.5"/>
<text text-anchor="middle" x="2161.48" y="-182.5" font-family="Helvetica,sans-Serif" font-size="10.00">PIpcClient.h</text>
</g>
<!-- Node27&#45;&gt;Node38 -->
<g id="edge114" class="edge"><title>Node27&#45;&gt;Node38</title>
<path fill="none" stroke="midnightblue" d="M1674.03,-240.48C1763.55,-235.71 1949.33,-223.432 2114.86,-196.095"/>
<polygon fill="midnightblue" stroke="midnightblue" points="2115.45,-199.546 2124.73,-194.443 2114.29,-192.642 2115.45,-199.546"/>
</g>
<!-- Node39 -->
<g id="node98" class="node"><title>Node39</title>
<polygon fill="white" stroke="#bfbfbf" points="2214.98,-174.5 2214.98,-195.5 2303.98,-195.5 2303.98,-174.5 2214.98,-174.5"/>
<text text-anchor="middle" x="2259.48" y="-182.5" font-family="Helvetica,sans-Serif" font-size="10.00">PIpcMessage.h</text>
</g>
<!-- Node27&#45;&gt;Node39 -->
<g id="edge118" class="edge"><title>Node27&#45;&gt;Node39</title>
<path fill="none" stroke="midnightblue" d="M1674.05,-240.939C1775.72,-236.541 2003.75,-224.357 2204.58,-196.139"/>
<polygon fill="midnightblue" stroke="midnightblue" points="2205.32,-199.57 2214.73,-194.697 2204.33,-192.639 2205.32,-199.57"/>
</g>
<!-- Node31&#45;&gt;Node2 -->
<g id="edge78" class="edge"><title>Node31&#45;&gt;Node2</title>
<path fill="none" stroke="midnightblue" d="M1821.34,-174.094C1807.1,-143.972 1767.83,-61.6047 1762.48,-58 1719.03,-28.7192 1360.84,-15.8258 1234.43,-12.1578"/>
<polygon fill="midnightblue" stroke="midnightblue" points="1234.43,-8.65641 1224.34,-11.8702 1234.23,-15.6536 1234.43,-8.65641"/>
</g>
<!-- Node32 -->
<g id="node72" class="node"><title>Node32</title>
<polygon fill="white" stroke="#bfbfbf" points="1814.48,-116.5 1814.48,-137.5 1886.48,-137.5 1886.48,-116.5 1814.48,-116.5"/>
<text text-anchor="middle" x="1850.48" y="-124.5" font-family="Helvetica,sans-Serif" font-size="10.00">TaskBase.h</text>
</g>
<!-- Node31&#45;&gt;Node32 -->
<g id="edge80" class="edge"><title>Node31&#45;&gt;Node32</title>
<path fill="none" stroke="midnightblue" d="M1830.88,-174.362C1834.06,-166.677 1838.45,-156.069 1842.27,-146.84"/>
<polygon fill="midnightblue" stroke="midnightblue" points="1845.51,-148.149 1846.1,-137.571 1839.05,-145.473 1845.51,-148.149"/>
</g>
<!-- Node33&#45;&gt;Node2 -->
<g id="edge86" class="edge"><title>Node33&#45;&gt;Node2</title>
<path fill="none" stroke="midnightblue" d="M1968.48,-174.434C1967.91,-159.5 1964.68,-132.234 1949.48,-116 1895.77,-58.6505 1859.38,-74.129 1782.48,-58 1677.67,-36.0174 1353.15,-18.7633 1234.5,-13.0381"/>
<polygon fill="midnightblue" stroke="midnightblue" points="1234.49,-9.53361 1224.33,-12.5515 1234.16,-16.5256 1234.49,-9.53361"/>
</g>
<!-- Node33&#45;&gt;Node20 -->
<g id="edge94" class="edge"><title>Node33&#45;&gt;Node20</title>
<path fill="none" stroke="midnightblue" d="M1916.7,-177.118C1838.48,-165.21 1692.12,-142.929 1624.04,-132.566"/>
<polygon fill="midnightblue" stroke="midnightblue" points="1624.22,-129.053 1613.81,-131.008 1623.17,-135.973 1624.22,-129.053"/>
</g>
<!-- Node33&#45;&gt;Node28 -->
<g id="edge90" class="edge"><title>Node33&#45;&gt;Node28</title>
<path fill="none" stroke="midnightblue" d="M1960.04,-174.362C1953.69,-166.35 1944.81,-155.161 1937.28,-145.67"/>
<polygon fill="midnightblue" stroke="midnightblue" points="1939.82,-143.231 1930.86,-137.571 1934.33,-147.581 1939.82,-143.231"/>
</g>
<!-- Node34 -->
<g id="node78" class="node"><title>Node34</title>
<polygon fill="white" stroke="#bfbfbf" points="1996.48,-116.5 1996.48,-137.5 2046.48,-137.5 2046.48,-116.5 1996.48,-116.5"/>
<text text-anchor="middle" x="2021.48" y="-124.5" font-family="Helvetica,sans-Serif" font-size="10.00">stdint.h</text>
</g>
<!-- Node33&#45;&gt;Node34 -->
<g id="edge88" class="edge"><title>Node33&#45;&gt;Node34</title>
<path fill="none" stroke="midnightblue" d="M1978.2,-174.362C1985.67,-166.186 1996.16,-154.702 2004.95,-145.091"/>
<polygon fill="midnightblue" stroke="midnightblue" points="2007.66,-147.314 2011.82,-137.571 2002.49,-142.592 2007.66,-147.314"/>
</g>
<!-- Node33&#45;&gt;Node35 -->
<g id="edge92" class="edge"><title>Node33&#45;&gt;Node35</title>
<path fill="none" stroke="midnightblue" d="M2010.85,-174.497C2051.94,-164.312 2114.11,-148.903 2156.41,-138.419"/>
<polygon fill="midnightblue" stroke="midnightblue" points="2157.31,-141.801 2166.18,-135.998 2155.63,-135.006 2157.31,-141.801"/>
</g>
<!-- Node36&#45;&gt;Node2 -->
<g id="edge106" class="edge"><title>Node36&#45;&gt;Node2</title>
<path fill="none" stroke="midnightblue" d="M2158.84,-66.2803C1986.95,-56.4679 1400.14,-22.9692 1234.4,-13.5073"/>
<polygon fill="midnightblue" stroke="midnightblue" points="1234.28,-9.99505 1224.1,-12.9193 1233.88,-16.9837 1234.28,-9.99505"/>
</g>
</g>
</svg>
