<?xml version="1.0" encoding="UTF-8" standalone="no"?>
<!DOCTYPE svg PUBLIC "-//W3C//DTD SVG 1.1//EN"
 "http://www.w3.org/Graphics/SVG/1.1/DTD/svg11.dtd">
<!-- Generated by graphviz version 2.26.3 (20100126.1600)
 -->
<!-- Title: ApplicationDescription.h Pages: 1 -->
<svg width="728pt" height="88pt"
 viewBox="0.00 0.00 728.00 88.00" xmlns="http://www.w3.org/2000/svg" xmlns:xlink="http://www.w3.org/1999/xlink">
<g id="graph1" class="graph" transform="scale(1 1) rotate(0) translate(4 84)">
<title>ApplicationDescription.h</title>
<polygon fill="white" stroke="white" points="-4,5 -4,-84 725,-84 725,5 -4,5"/>
<!-- Node1 -->
<g id="node1" class="node"><title>Node1</title>
<polygon fill="#bfbfbf" stroke="black" points="290,-58.5 290,-79.5 420,-79.5 420,-58.5 290,-58.5"/>
<text text-anchor="middle" x="355" y="-66.5" font-family="Helvetica,sans-Serif" font-size="10.00">ApplicationDescription.h</text>
</g>
<!-- Node2 -->
<g id="node3" class="node"><title>Node2</title>
<a xlink:href="ApplicationDescription_8cpp.htm" target="_top" xlink:title="ApplicationDescription.cpp">
<polygon fill="white" stroke="black" points="-0.5,-0.5 -0.5,-21.5 140.5,-21.5 140.5,-0.5 -0.5,-0.5"/>
<text text-anchor="middle" x="70" y="-8.5" font-family="Helvetica,sans-Serif" font-size="10.00">ApplicationDescription.cpp</text>
</a>
</g>
<!-- Node1&#45;&gt;Node2 -->
<g id="edge2" class="edge"><title>Node1&#45;&gt;Node2</title>
<path fill="none" stroke="midnightblue" d="M293.429,-56.4697C242.17,-46.0382 170.013,-31.3535 121.708,-21.5231"/>
<polygon fill="midnightblue" stroke="midnightblue" points="292.892,-59.932 303.389,-58.4966 294.288,-53.0726 292.892,-59.932"/>
</g>
<!-- Node3 -->
<g id="node5" class="node"><title>Node3</title>
<a xlink:href="CardWebApp_8cpp.htm" target="_top" xlink:title="CardWebApp.cpp">
<polygon fill="white" stroke="black" points="157.5,-0.5 157.5,-21.5 256.5,-21.5 256.5,-0.5 157.5,-0.5"/>
<text text-anchor="middle" x="207" y="-8.5" font-family="Helvetica,sans-Serif" font-size="10.00">CardWebApp.cpp</text>
</a>
</g>
<!-- Node1&#45;&gt;Node3 -->
<g id="edge4" class="edge"><title>Node1&#45;&gt;Node3</title>
<path fill="none" stroke="midnightblue" d="M318.64,-54.7509C292.505,-44.5086 257.832,-30.9206 234.102,-21.6212"/>
<polygon fill="midnightblue" stroke="midnightblue" points="317.611,-58.1065 328.198,-58.4966 320.165,-51.5891 317.611,-58.1065"/>
</g>
<!-- Node4 -->
<g id="node7" class="node"><title>Node4</title>
<a xlink:href="Main_8cpp.htm" target="_top" xlink:title="Main.cpp">
<polygon fill="white" stroke="black" points="273.5,-0.5 273.5,-21.5 332.5,-21.5 332.5,-0.5 273.5,-0.5"/>
<text text-anchor="middle" x="303" y="-8.5" font-family="Helvetica,sans-Serif" font-size="10.00">Main.cpp</text>
</a>
</g>
<!-- Node1&#45;&gt;Node4 -->
<g id="edge6" class="edge"><title>Node1&#45;&gt;Node4</title>
<path fill="none" stroke="midnightblue" d="M338.71,-50.8299C330.083,-41.2078 319.791,-29.7282 312.477,-21.5707"/>
<polygon fill="midnightblue" stroke="midnightblue" points="336.181,-53.2526 345.462,-58.3619 341.393,-48.5798 336.181,-53.2526"/>
</g>
<!-- Node5 -->
<g id="node9" class="node"><title>Node5</title>
<a xlink:href="ProcessManager_8cpp.htm" target="_top" xlink:title="ProcessManager.cpp">
<polygon fill="white" stroke="black" points="349.5,-0.5 349.5,-21.5 466.5,-21.5 466.5,-0.5 349.5,-0.5"/>
<text text-anchor="middle" x="408" y="-8.5" font-family="Helvetica,sans-Serif" font-size="10.00">ProcessManager.cpp</text>
</a>
</g>
<!-- Node1&#45;&gt;Node5 -->
<g id="edge8" class="edge"><title>Node1&#45;&gt;Node5</title>
<path fill="none" stroke="midnightblue" d="M371.604,-50.8299C380.396,-41.2078 390.886,-29.7282 398.341,-21.5707"/>
<polygon fill="midnightblue" stroke="midnightblue" points="368.883,-48.6188 364.721,-58.3619 374.051,-53.3408 368.883,-48.6188"/>
</g>
<!-- Node6 -->
<g id="node11" class="node"><title>Node6</title>
<a xlink:href="WebAppBase_8cpp.htm" target="_top" xlink:title="WebAppBase.cpp">
<polygon fill="white" stroke="black" points="484,-0.5 484,-21.5 584,-21.5 584,-0.5 484,-0.5"/>
<text text-anchor="middle" x="534" y="-8.5" font-family="Helvetica,sans-Serif" font-size="10.00">WebAppBase.cpp</text>
</a>
</g>
<!-- Node1&#45;&gt;Node6 -->
<g id="edge10" class="edge"><title>Node1&#45;&gt;Node6</title>
<path fill="none" stroke="midnightblue" d="M396.933,-55.4127C428.87,-45.0646 472.196,-31.0258 501.524,-21.5231"/>
<polygon fill="midnightblue" stroke="midnightblue" points="395.85,-52.0845 387.416,-58.4966 398.008,-58.7437 395.85,-52.0845"/>
</g>
<!-- Node7 -->
<g id="node13" class="node"><title>Node7</title>
<a xlink:href="WebAppManager_8cpp.htm" target="_top" xlink:title="WebAppManager.cpp">
<polygon fill="white" stroke="black" points="601.5,-0.5 601.5,-21.5 720.5,-21.5 720.5,-0.5 601.5,-0.5"/>
<text text-anchor="middle" x="661" y="-8.5" font-family="Helvetica,sans-Serif" font-size="10.00">WebAppManager.cpp</text>
</a>
</g>
<!-- Node1&#45;&gt;Node7 -->
<g id="edge12" class="edge"><title>Node1&#45;&gt;Node7</title>
<path fill="none" stroke="midnightblue" d="M420.421,-56.5999C475.497,-46.1607 553.402,-31.3945 605.482,-21.5231"/>
<polygon fill="midnightblue" stroke="midnightblue" points="419.588,-53.1955 410.414,-58.4966 420.891,-60.0731 419.588,-53.1955"/>
</g>
</g>
</svg>
