<?xml version="1.0" encoding="UTF-8" standalone="no"?>
<!DOCTYPE svg PUBLIC "-//W3C//DTD SVG 1.1//EN"
 "http://www.w3.org/Graphics/SVG/1.1/DTD/svg11.dtd">
<!-- Generated by graphviz version 2.26.3 (20100126.1600)
 -->
<!-- Title: ApplicationDescription.cpp Pages: 1 -->
<svg width="388pt" height="146pt"
 viewBox="0.00 0.00 388.00 146.00" xmlns="http://www.w3.org/2000/svg" xmlns:xlink="http://www.w3.org/1999/xlink">
<g id="graph1" class="graph" transform="scale(1 1) rotate(0) translate(4 142)">
<title>ApplicationDescription.cpp</title>
<polygon fill="white" stroke="white" points="-4,5 -4,-142 385,-142 385,5 -4,5"/>
<!-- Node1 -->
<g id="node1" class="node"><title>Node1</title>
<polygon fill="#bfbfbf" stroke="black" points="74.5,-116.5 74.5,-137.5 215.5,-137.5 215.5,-116.5 74.5,-116.5"/>
<text text-anchor="middle" x="145" y="-124.5" font-family="Helvetica,sans-Serif" font-size="10.00">ApplicationDescription.cpp</text>
</g>
<!-- Node2 -->
<g id="node3" class="node"><title>Node2</title>
<polygon fill="white" stroke="#bfbfbf" points="-0.5,-58.5 -0.5,-79.5 66.5,-79.5 66.5,-58.5 -0.5,-58.5"/>
<text text-anchor="middle" x="33" y="-66.5" font-family="Helvetica,sans-Serif" font-size="10.00">Common.h</text>
</g>
<!-- Node1&#45;&gt;Node2 -->
<g id="edge2" class="edge"><title>Node1&#45;&gt;Node2</title>
<path fill="none" stroke="midnightblue" d="M124.718,-116.497C107.382,-107.519 82.2096,-94.4835 62.6196,-84.3387"/>
<polygon fill="midnightblue" stroke="midnightblue" points="63.9994,-81.1118 53.5099,-79.6212 60.7804,-87.3278 63.9994,-81.1118"/>
</g>
<!-- Node3 -->
<g id="node5" class="node"><title>Node3</title>
<polygon fill="white" stroke="#bfbfbf" points="83.5,-58.5 83.5,-79.5 130.5,-79.5 130.5,-58.5 83.5,-58.5"/>
<text text-anchor="middle" x="107" y="-66.5" font-family="Helvetica,sans-Serif" font-size="10.00">stdio.h</text>
</g>
<!-- Node1&#45;&gt;Node3 -->
<g id="edge4" class="edge"><title>Node1&#45;&gt;Node3</title>
<path fill="none" stroke="midnightblue" d="M138.03,-116.362C132.834,-108.431 125.599,-97.3885 119.422,-87.9606"/>
<polygon fill="midnightblue" stroke="midnightblue" points="122.334,-86.0172 113.926,-79.5707 116.478,-89.8534 122.334,-86.0172"/>
</g>
<!-- Node4 -->
<g id="node7" class="node"><title>Node4</title>
<polygon fill="white" stroke="#bfbfbf" points="148,-58.5 148,-79.5 220,-79.5 220,-58.5 148,-58.5"/>
<text text-anchor="middle" x="184" y="-66.5" font-family="Helvetica,sans-Serif" font-size="10.00">cjson/json.h</text>
</g>
<!-- Node1&#45;&gt;Node4 -->
<g id="edge6" class="edge"><title>Node1&#45;&gt;Node4</title>
<path fill="none" stroke="midnightblue" d="M152.153,-116.362C157.486,-108.431 164.911,-97.3885 171.251,-87.9606"/>
<polygon fill="midnightblue" stroke="midnightblue" points="174.217,-89.8221 176.892,-79.5707 168.408,-85.9161 174.217,-89.8221"/>
</g>
<!-- Node5 -->
<g id="node9" class="node"><title>Node5</title>
<a xlink:href="ApplicationDescription_8h.htm" target="_top" xlink:title="ApplicationDescription.h">
<polygon fill="white" stroke="black" points="238,-58.5 238,-79.5 368,-79.5 368,-58.5 238,-58.5"/>
<text text-anchor="middle" x="303" y="-66.5" font-family="Helvetica,sans-Serif" font-size="10.00">ApplicationDescription.h</text>
</a>
</g>
<!-- Node1&#45;&gt;Node5 -->
<g id="edge8" class="edge"><title>Node1&#45;&gt;Node5</title>
<path fill="none" stroke="midnightblue" d="M173.613,-116.497C199.148,-107.123 236.737,-93.3242 264.829,-83.0122"/>
<polygon fill="midnightblue" stroke="midnightblue" points="266.152,-86.2548 274.334,-79.5231 263.74,-79.6835 266.152,-86.2548"/>
</g>
<!-- Node6 -->
<g id="node11" class="node"><title>Node6</title>
<polygon fill="white" stroke="#bfbfbf" points="226,-0.5 226,-21.5 380,-21.5 380,-0.5 226,-0.5"/>
<text text-anchor="middle" x="303" y="-8.5" font-family="Helvetica,sans-Serif" font-size="10.00">ApplicationDescriptionBase.h</text>
</g>
<!-- Node5&#45;&gt;Node6 -->
<g id="edge10" class="edge"><title>Node5&#45;&gt;Node6</title>
<path fill="none" stroke="midnightblue" d="M303,-58.3619C303,-50.9219 303,-40.7427 303,-31.7276"/>
<polygon fill="midnightblue" stroke="midnightblue" points="306.5,-31.5706 303,-21.5707 299.5,-31.5707 306.5,-31.5706"/>
</g>
</g>
</svg>
