<?xml version="1.0" encoding="UTF-8" standalone="no"?>
<!DOCTYPE svg PUBLIC "-//W3C//DTD SVG 1.1//EN"
 "http://www.w3.org/Graphics/SVG/1.1/DTD/svg11.dtd">
<!-- Generated by graphviz version 2.26.3 (20100126.1600)
 -->
<!-- Title: BackupManager.h Pages: 1 -->
<svg width="376pt" height="146pt"
 viewBox="0.00 0.00 376.00 146.00" xmlns="http://www.w3.org/2000/svg" xmlns:xlink="http://www.w3.org/1999/xlink">
<g id="graph1" class="graph" transform="scale(1 1) rotate(0) translate(4 142)">
<title>BackupManager.h</title>
<polygon fill="white" stroke="white" points="-4,5 -4,-142 373,-142 373,5 -4,5"/>
<!-- Node1 -->
<g id="node1" class="node"><title>Node1</title>
<polygon fill="#bfbfbf" stroke="black" points="133,-116.5 133,-137.5 235,-137.5 235,-116.5 133,-116.5"/>
<text text-anchor="middle" x="184" y="-124.5" font-family="Helvetica,sans-Serif" font-size="10.00">BackupManager.h</text>
</g>
<!-- Node2 -->
<g id="node3" class="node"><title>Node2</title>
<a xlink:href="BackupManager_8cpp.htm" target="_top" xlink:title="BackupManager.cpp">
<polygon fill="white" stroke="black" points="-0.5,-58.5 -0.5,-79.5 112.5,-79.5 112.5,-58.5 -0.5,-58.5"/>
<text text-anchor="middle" x="56" y="-66.5" font-family="Helvetica,sans-Serif" font-size="10.00">BackupManager.cpp</text>
</a>
</g>
<!-- Node1&#45;&gt;Node2 -->
<g id="edge2" class="edge"><title>Node1&#45;&gt;Node2</title>
<path fill="none" stroke="midnightblue" d="M151.654,-112.343C129.159,-102.15 99.6914,-88.7977 79.4399,-79.6212"/>
<polygon fill="midnightblue" stroke="midnightblue" points="150.267,-115.557 160.82,-116.497 153.156,-109.181 150.267,-115.557"/>
</g>
<!-- Node3 -->
<g id="node5" class="node"><title>Node3</title>
<a xlink:href="WebKitEventListener_8h.htm" target="_top" xlink:title="WebKitEventListener.h">
<polygon fill="white" stroke="black" points="167.5,-58.5 167.5,-79.5 290.5,-79.5 290.5,-58.5 167.5,-58.5"/>
<text text-anchor="middle" x="229" y="-66.5" font-family="Helvetica,sans-Serif" font-size="10.00">WebKitEventListener.h</text>
</a>
</g>
<!-- Node1&#45;&gt;Node3 -->
<g id="edge4" class="edge"><title>Node1&#45;&gt;Node3</title>
<path fill="none" stroke="midnightblue" d="M198.547,-108.25C205.918,-98.75 214.596,-87.5651 220.799,-79.5707"/>
<polygon fill="midnightblue" stroke="midnightblue" points="195.618,-106.316 192.254,-116.362 201.149,-110.607 195.618,-106.316"/>
</g>
<!-- Node4 -->
<g id="node7" class="node"><title>Node4</title>
<a xlink:href="WebKitEventListener_8cpp.htm" target="_top" xlink:title="WebKitEventListener.cpp">
<polygon fill="white" stroke="black" points="81,-0.5 81,-21.5 215,-21.5 215,-0.5 81,-0.5"/>
<text text-anchor="middle" x="148" y="-8.5" font-family="Helvetica,sans-Serif" font-size="10.00">WebKitEventListener.cpp</text>
</a>
</g>
<!-- Node1&#45;&gt;Node4 -->
<g id="edge10" class="edge"><title>Node1&#45;&gt;Node4</title>
<path fill="none" stroke="midnightblue" d="M171.751,-107.484C167.101,-99.2735 162.167,-89.4475 159,-80 152.291,-59.9877 149.62,-35.3033 148.598,-21.5432"/>
<polygon fill="midnightblue" stroke="midnightblue" points="168.845,-109.445 176.957,-116.26 174.865,-105.873 168.845,-109.445"/>
</g>
<!-- Node5 -->
<g id="node9" class="node"><title>Node5</title>
<a xlink:href="WebAppManager_8cpp.htm" target="_top" xlink:title="WebAppManager.cpp">
<polygon fill="white" stroke="black" points="249.5,-0.5 249.5,-21.5 368.5,-21.5 368.5,-0.5 249.5,-0.5"/>
<text text-anchor="middle" x="309" y="-8.5" font-family="Helvetica,sans-Serif" font-size="10.00">WebAppManager.cpp</text>
</a>
</g>
<!-- Node1&#45;&gt;Node5 -->
<g id="edge12" class="edge"><title>Node1&#45;&gt;Node5</title>
<path fill="none" stroke="midnightblue" d="M244.943,-114.958C265.042,-108.002 285.646,-97.0871 299,-80 312.267,-63.0237 311.919,-36.2964 310.476,-21.5854"/>
<polygon fill="midnightblue" stroke="midnightblue" points="243.624,-111.704 235.15,-118.064 245.741,-118.376 243.624,-111.704"/>
</g>
<!-- Node3&#45;&gt;Node4 -->
<g id="edge6" class="edge"><title>Node3&#45;&gt;Node4</title>
<path fill="none" stroke="midnightblue" d="M205.62,-52.2587C191.802,-42.3641 174.725,-30.1361 162.762,-21.5707"/>
<polygon fill="midnightblue" stroke="midnightblue" points="203.975,-55.3857 214.143,-58.3619 208.05,-49.6943 203.975,-55.3857"/>
</g>
<!-- Node3&#45;&gt;Node5 -->
<g id="edge8" class="edge"><title>Node3&#45;&gt;Node5</title>
<path fill="none" stroke="midnightblue" d="M252.092,-52.2587C265.739,-42.3641 282.605,-30.1361 294.42,-21.5707"/>
<polygon fill="midnightblue" stroke="midnightblue" points="249.715,-49.6585 243.673,-58.3619 253.824,-55.3258 249.715,-49.6585"/>
</g>
</g>
</svg>
