<?xml version="1.0" encoding="UTF-8" standalone="no"?>
<!DOCTYPE svg PUBLIC "-//W3C//DTD SVG 1.1//EN"
 "http://www.w3.org/Graphics/SVG/1.1/DTD/svg11.dtd">
<!-- Generated by graphviz version 2.26.3 (20100126.1600)
 -->
<!-- Title: BackupManager.h Pages: 1 -->
<svg width="530pt" height="88pt"
 viewBox="0.00 0.00 530.00 88.00" xmlns="http://www.w3.org/2000/svg" xmlns:xlink="http://www.w3.org/1999/xlink">
<g id="graph1" class="graph" transform="scale(1 1) rotate(0) translate(4 84)">
<title>BackupManager.h</title>
<polygon fill="white" stroke="white" points="-4,5 -4,-84 527,-84 527,5 -4,5"/>
<!-- Node1 -->
<g id="node1" class="node"><title>Node1</title>
<polygon fill="#bfbfbf" stroke="black" points="194,-58.5 194,-79.5 296,-79.5 296,-58.5 194,-58.5"/>
<text text-anchor="middle" x="245" y="-66.5" font-family="Helvetica,sans-Serif" font-size="10.00">BackupManager.h</text>
</g>
<!-- Node2 -->
<g id="node3" class="node"><title>Node2</title>
<polygon fill="white" stroke="#bfbfbf" points="-0.5,-0.5 -0.5,-21.5 66.5,-21.5 66.5,-0.5 -0.5,-0.5"/>
<text text-anchor="middle" x="33" y="-8.5" font-family="Helvetica,sans-Serif" font-size="10.00">Common.h</text>
</g>
<!-- Node1&#45;&gt;Node2 -->
<g id="edge2" class="edge"><title>Node1&#45;&gt;Node2</title>
<path fill="none" stroke="midnightblue" d="M206.608,-58.4966C169.915,-48.4578 114.67,-33.3437 76.3961,-22.8725"/>
<polygon fill="midnightblue" stroke="midnightblue" points="77.1365,-19.4465 66.5673,-20.1835 75.2892,-26.1984 77.1365,-19.4465"/>
</g>
<!-- Node3 -->
<g id="node5" class="node"><title>Node3</title>
<polygon fill="white" stroke="#bfbfbf" points="83.5,-0.5 83.5,-21.5 126.5,-21.5 126.5,-0.5 83.5,-0.5"/>
<text text-anchor="middle" x="105" y="-8.5" font-family="Helvetica,sans-Serif" font-size="10.00">string</text>
</g>
<!-- Node1&#45;&gt;Node3 -->
<g id="edge4" class="edge"><title>Node1&#45;&gt;Node3</title>
<path fill="none" stroke="midnightblue" d="M219.647,-58.4966C196.274,-48.8134 161.503,-34.4082 136.385,-24.0025"/>
<polygon fill="midnightblue" stroke="midnightblue" points="137.521,-20.6844 126.942,-20.0904 134.841,-27.1514 137.521,-20.6844"/>
</g>
<!-- Node4 -->
<g id="node7" class="node"><title>Node4</title>
<polygon fill="white" stroke="#bfbfbf" points="143.5,-0.5 143.5,-21.5 172.5,-21.5 172.5,-0.5 143.5,-0.5"/>
<text text-anchor="middle" x="158" y="-8.5" font-family="Helvetica,sans-Serif" font-size="10.00">list</text>
</g>
<!-- Node1&#45;&gt;Node4 -->
<g id="edge6" class="edge"><title>Node1&#45;&gt;Node4</title>
<path fill="none" stroke="midnightblue" d="M229.043,-58.3619C215.593,-49.3951 196.174,-36.4495 181.037,-26.3581"/>
<polygon fill="midnightblue" stroke="midnightblue" points="182.959,-23.4328 172.697,-20.7979 179.076,-29.2571 182.959,-23.4328"/>
</g>
<!-- Node5 -->
<g id="node9" class="node"><title>Node5</title>
<polygon fill="white" stroke="#bfbfbf" points="189.5,-0.5 189.5,-21.5 226.5,-21.5 226.5,-0.5 189.5,-0.5"/>
<text text-anchor="middle" x="208" y="-8.5" font-family="Helvetica,sans-Serif" font-size="10.00">map</text>
</g>
<!-- Node1&#45;&gt;Node5 -->
<g id="edge8" class="edge"><title>Node1&#45;&gt;Node5</title>
<path fill="none" stroke="midnightblue" d="M238.214,-58.3619C233.207,-50.5131 226.255,-39.6159 220.282,-30.2527"/>
<polygon fill="midnightblue" stroke="midnightblue" points="223.072,-28.1189 214.743,-21.5707 217.171,-31.8837 223.072,-28.1189"/>
</g>
<!-- Node6 -->
<g id="node11" class="node"><title>Node6</title>
<polygon fill="white" stroke="#bfbfbf" points="244,-0.5 244,-21.5 322,-21.5 322,-0.5 244,-0.5"/>
<text text-anchor="middle" x="283" y="-8.5" font-family="Helvetica,sans-Serif" font-size="10.00">lunaservice.h</text>
</g>
<!-- Node1&#45;&gt;Node6 -->
<g id="edge10" class="edge"><title>Node1&#45;&gt;Node6</title>
<path fill="none" stroke="midnightblue" d="M251.97,-58.3619C257.166,-50.4313 264.401,-39.3885 270.578,-29.9606"/>
<polygon fill="midnightblue" stroke="midnightblue" points="273.522,-31.8534 276.074,-21.5707 267.666,-28.0172 273.522,-31.8534"/>
</g>
<!-- Node7 -->
<g id="node13" class="node"><title>Node7</title>
<polygon fill="white" stroke="#bfbfbf" points="339.5,-0.5 339.5,-21.5 394.5,-21.5 394.5,-0.5 339.5,-0.5"/>
<text text-anchor="middle" x="367" y="-8.5" font-family="Helvetica,sans-Serif" font-size="10.00">QObject</text>
</g>
<!-- Node1&#45;&gt;Node7 -->
<g id="edge12" class="edge"><title>Node1&#45;&gt;Node7</title>
<path fill="none" stroke="midnightblue" d="M267.093,-58.4966C286.234,-49.397 314.146,-36.1273 335.605,-25.9253"/>
<polygon fill="midnightblue" stroke="midnightblue" points="337.13,-29.0758 344.659,-21.6212 334.125,-22.7539 337.13,-29.0758"/>
</g>
<!-- Node8 -->
<g id="node15" class="node"><title>Node8</title>
<polygon fill="white" stroke="#bfbfbf" points="411.5,-0.5 411.5,-21.5 452.5,-21.5 452.5,-0.5 411.5,-0.5"/>
<text text-anchor="middle" x="432" y="-8.5" font-family="Helvetica,sans-Serif" font-size="10.00">QList</text>
</g>
<!-- Node1&#45;&gt;Node8 -->
<g id="edge14" class="edge"><title>Node1&#45;&gt;Node8</title>
<path fill="none" stroke="midnightblue" d="M283.238,-58.476C313.256,-50.025 356.28,-37.4982 401.739,-22.286"/>
<polygon fill="midnightblue" stroke="midnightblue" points="403.117,-25.5147 411.472,-18.9996 400.878,-18.8825 403.117,-25.5147"/>
</g>
<!-- Node9 -->
<g id="node17" class="node"><title>Node9</title>
<polygon fill="white" stroke="#bfbfbf" points="469.5,-0.5 469.5,-21.5 522.5,-21.5 522.5,-0.5 469.5,-0.5"/>
<text text-anchor="middle" x="496" y="-8.5" font-family="Helvetica,sans-Serif" font-size="10.00">QString</text>
</g>
<!-- Node1&#45;&gt;Node9 -->
<g id="edge16" class="edge"><title>Node1&#45;&gt;Node9</title>
<path fill="none" stroke="midnightblue" d="M296.373,-59.1802C338.102,-50.897 398.643,-38.1866 459.545,-22.2442"/>
<polygon fill="midnightblue" stroke="midnightblue" points="460.547,-25.5995 469.319,-19.658 458.757,-18.8323 460.547,-25.5995"/>
</g>
</g>
</svg>
