<?xml version="1.0" encoding="UTF-8" standalone="no"?>
<!DOCTYPE svg PUBLIC "-//W3C//DTD SVG 1.1//EN"
 "http://www.w3.org/Graphics/SVG/1.1/DTD/svg11.dtd">
<!-- Generated by graphviz version 2.26.3 (20100126.1600)
 -->
<!-- Title: BackupManager.cpp Pages: 1 -->
<svg width="793pt" height="146pt"
 viewBox="0.00 0.00 793.00 146.00" xmlns="http://www.w3.org/2000/svg" xmlns:xlink="http://www.w3.org/1999/xlink">
<g id="graph1" class="graph" transform="scale(1 1) rotate(0) translate(4 142)">
<title>BackupManager.cpp</title>
<polygon fill="white" stroke="white" points="-4,5 -4,-142 790,-142 790,5 -4,5"/>
<!-- Node1 -->
<g id="node1" class="node"><title>Node1</title>
<polygon fill="#bfbfbf" stroke="black" points="308.5,-116.5 308.5,-137.5 421.5,-137.5 421.5,-116.5 308.5,-116.5"/>
<text text-anchor="middle" x="365" y="-124.5" font-family="Helvetica,sans-Serif" font-size="10.00">BackupManager.cpp</text>
</g>
<!-- Node2 -->
<g id="node3" class="node"><title>Node2</title>
<polygon fill="white" stroke="#bfbfbf" points="-0.5,-0.5 -0.5,-21.5 66.5,-21.5 66.5,-0.5 -0.5,-0.5"/>
<text text-anchor="middle" x="33" y="-8.5" font-family="Helvetica,sans-Serif" font-size="10.00">Common.h</text>
</g>
<!-- Node1&#45;&gt;Node2 -->
<g id="edge2" class="edge"><title>Node1&#45;&gt;Node2</title>
<path fill="none" stroke="midnightblue" d="M308.314,-122.951C258.505,-117.762 184.982,-106.075 126,-80 97.3984,-67.3558 69.2197,-44.6033 51.5092,-28.6942"/>
<polygon fill="midnightblue" stroke="midnightblue" points="53.4285,-25.704 43.6998,-21.5083 48.6886,-30.8551 53.4285,-25.704"/>
</g>
<!-- Node3 -->
<g id="node5" class="node"><title>Node3</title>
<polygon fill="white" stroke="#bfbfbf" points="293,-58.5 293,-79.5 357,-79.5 357,-58.5 293,-58.5"/>
<text text-anchor="middle" x="325" y="-66.5" font-family="Helvetica,sans-Serif" font-size="10.00">sys/prctl.h</text>
</g>
<!-- Node1&#45;&gt;Node3 -->
<g id="edge4" class="edge"><title>Node1&#45;&gt;Node3</title>
<path fill="none" stroke="midnightblue" d="M357.663,-116.362C352.194,-108.431 344.578,-97.3885 338.076,-87.9606"/>
<polygon fill="midnightblue" stroke="midnightblue" points="340.849,-85.8157 332.29,-79.5707 335.086,-89.7899 340.849,-85.8157"/>
</g>
<!-- Node4 -->
<g id="node7" class="node"><title>Node4</title>
<polygon fill="white" stroke="#bfbfbf" points="83.5,-0.5 83.5,-21.5 126.5,-21.5 126.5,-0.5 83.5,-0.5"/>
<text text-anchor="middle" x="105" y="-8.5" font-family="Helvetica,sans-Serif" font-size="10.00">string</text>
</g>
<!-- Node1&#45;&gt;Node4 -->
<g id="edge6" class="edge"><title>Node1&#45;&gt;Node4</title>
<path fill="none" stroke="midnightblue" d="M308.398,-119.448C253.921,-111.325 176.203,-97.2234 151,-80 133.351,-67.9389 120.701,-46.6578 113.188,-30.9089"/>
<polygon fill="midnightblue" stroke="midnightblue" points="116.264,-29.215 108.991,-21.5109 109.873,-32.069 116.264,-29.215"/>
</g>
<!-- Node5 -->
<g id="node9" class="node"><title>Node5</title>
<polygon fill="white" stroke="#bfbfbf" points="143.5,-0.5 143.5,-21.5 180.5,-21.5 180.5,-0.5 143.5,-0.5"/>
<text text-anchor="middle" x="162" y="-8.5" font-family="Helvetica,sans-Serif" font-size="10.00">map</text>
</g>
<!-- Node1&#45;&gt;Node5 -->
<g id="edge8" class="edge"><title>Node1&#45;&gt;Node5</title>
<path fill="none" stroke="midnightblue" d="M308.06,-121.373C255.198,-114.85 182.026,-102.063 164,-80 153.139,-66.7071 153.806,-46.6887 156.5,-31.6321"/>
<polygon fill="midnightblue" stroke="midnightblue" points="159.952,-32.2314 158.685,-21.7126 153.116,-30.7258 159.952,-32.2314"/>
</g>
<!-- Node6 -->
<g id="node11" class="node"><title>Node6</title>
<a xlink:href="BackupManager_8h.htm" target="_top" xlink:title="BackupManager.h">
<polygon fill="white" stroke="black" points="173,-58.5 173,-79.5 275,-79.5 275,-58.5 173,-58.5"/>
<text text-anchor="middle" x="224" y="-66.5" font-family="Helvetica,sans-Serif" font-size="10.00">BackupManager.h</text>
</a>
</g>
<!-- Node1&#45;&gt;Node6 -->
<g id="edge10" class="edge"><title>Node1&#45;&gt;Node6</title>
<path fill="none" stroke="midnightblue" d="M339.466,-116.497C317.047,-107.275 284.215,-93.7695 259.287,-83.5153"/>
<polygon fill="midnightblue" stroke="midnightblue" points="260.4,-80.1886 249.821,-79.6212 257.737,-86.6623 260.4,-80.1886"/>
</g>
<!-- Node12 -->
<g id="node26" class="node"><title>Node12</title>
<polygon fill="white" stroke="#bfbfbf" points="374.5,-58.5 374.5,-79.5 437.5,-79.5 437.5,-58.5 374.5,-58.5"/>
<text text-anchor="middle" x="406" y="-66.5" font-family="Helvetica,sans-Serif" font-size="10.00">Settings.h</text>
</g>
<!-- Node1&#45;&gt;Node12 -->
<g id="edge28" class="edge"><title>Node1&#45;&gt;Node12</title>
<path fill="none" stroke="midnightblue" d="M372.52,-116.362C378.126,-108.431 385.932,-97.3885 392.597,-87.9606"/>
<polygon fill="midnightblue" stroke="midnightblue" points="395.613,-89.7568 398.528,-79.5707 389.897,-85.7161 395.613,-89.7568"/>
</g>
<!-- Node13 -->
<g id="node28" class="node"><title>Node13</title>
<polygon fill="white" stroke="#bfbfbf" points="454.5,-58.5 454.5,-79.5 525.5,-79.5 525.5,-58.5 454.5,-58.5"/>
<text text-anchor="middle" x="490" y="-66.5" font-family="Helvetica,sans-Serif" font-size="10.00">HostBase.h</text>
</g>
<!-- Node1&#45;&gt;Node13 -->
<g id="edge30" class="edge"><title>Node1&#45;&gt;Node13</title>
<path fill="none" stroke="midnightblue" d="M387.637,-116.497C407.248,-107.397 435.846,-94.1273 457.833,-83.9253"/>
<polygon fill="midnightblue" stroke="midnightblue" points="459.512,-87.0051 467.109,-79.6212 456.565,-80.6554 459.512,-87.0051"/>
</g>
<!-- Node14 -->
<g id="node30" class="node"><title>Node14</title>
<polygon fill="white" stroke="#bfbfbf" points="542.5,-58.5 542.5,-79.5 615.5,-79.5 615.5,-58.5 542.5,-58.5"/>
<text text-anchor="middle" x="579" y="-66.5" font-family="Helvetica,sans-Serif" font-size="10.00">JSONUtils.h</text>
</g>
<!-- Node1&#45;&gt;Node14 -->
<g id="edge32" class="edge"><title>Node1&#45;&gt;Node14</title>
<path fill="none" stroke="midnightblue" d="M403.754,-116.497C439.909,-106.698 493.907,-92.0627 532.398,-81.6305"/>
<polygon fill="midnightblue" stroke="midnightblue" points="533.585,-84.935 542.321,-78.9409 531.754,-78.1788 533.585,-84.935"/>
</g>
<!-- Node15 -->
<g id="node32" class="node"><title>Node15</title>
<polygon fill="white" stroke="#bfbfbf" points="632.5,-58.5 632.5,-79.5 695.5,-79.5 695.5,-58.5 632.5,-58.5"/>
<text text-anchor="middle" x="664" y="-66.5" font-family="Helvetica,sans-Serif" font-size="10.00">Logging.h</text>
</g>
<!-- Node1&#45;&gt;Node15 -->
<g id="edge34" class="edge"><title>Node1&#45;&gt;Node15</title>
<path fill="none" stroke="midnightblue" d="M421.627,-118.212C472.033,-110.053 547.954,-96.943 622.2,-80.2874"/>
<polygon fill="midnightblue" stroke="midnightblue" points="623.209,-83.6474 632.188,-78.0226 621.661,-76.8207 623.209,-83.6474"/>
</g>
<!-- Node16 -->
<g id="node34" class="node"><title>Node16</title>
<polygon fill="white" stroke="#bfbfbf" points="713,-58.5 713,-79.5 785,-79.5 785,-58.5 713,-58.5"/>
<text text-anchor="middle" x="749" y="-66.5" font-family="Helvetica,sans-Serif" font-size="10.00">cjson/json.h</text>
</g>
<!-- Node1&#45;&gt;Node16 -->
<g id="edge36" class="edge"><title>Node1&#45;&gt;Node16</title>
<path fill="none" stroke="midnightblue" d="M421.672,-120.933C487.112,-113.528 598.157,-99.7377 702.632,-80.1215"/>
<polygon fill="midnightblue" stroke="midnightblue" points="703.549,-83.5099 712.72,-78.205 702.243,-76.6329 703.549,-83.5099"/>
</g>
<!-- Node6&#45;&gt;Node2 -->
<g id="edge12" class="edge"><title>Node6&#45;&gt;Node2</title>
<path fill="none" stroke="midnightblue" d="M189.411,-58.4966C157.71,-48.8701 110.64,-34.5765 76.4209,-24.1854"/>
<polygon fill="midnightblue" stroke="midnightblue" points="77.2757,-20.7872 66.6902,-21.2305 75.2417,-27.4852 77.2757,-20.7872"/>
</g>
<!-- Node6&#45;&gt;Node4 -->
<g id="edge14" class="edge"><title>Node6&#45;&gt;Node4</title>
<path fill="none" stroke="midnightblue" d="M202.45,-58.4966C183.864,-49.4378 156.798,-36.2462 135.905,-26.0628"/>
<polygon fill="midnightblue" stroke="midnightblue" points="137.314,-22.8563 126.792,-21.6212 134.247,-29.1487 137.314,-22.8563"/>
</g>
<!-- Node6&#45;&gt;Node5 -->
<g id="edge18" class="edge"><title>Node6&#45;&gt;Node5</title>
<path fill="none" stroke="midnightblue" d="M212.628,-58.3619C203.714,-50.0226 191.121,-38.2418 180.724,-28.5162"/>
<polygon fill="midnightblue" stroke="midnightblue" points="182.993,-25.8463 173.3,-21.5707 178.211,-30.9582 182.993,-25.8463"/>
</g>
<!-- Node7 -->
<g id="node15" class="node"><title>Node7</title>
<polygon fill="white" stroke="#bfbfbf" points="267.5,-0.5 267.5,-21.5 296.5,-21.5 296.5,-0.5 267.5,-0.5"/>
<text text-anchor="middle" x="282" y="-8.5" font-family="Helvetica,sans-Serif" font-size="10.00">list</text>
</g>
<!-- Node6&#45;&gt;Node7 -->
<g id="edge16" class="edge"><title>Node6&#45;&gt;Node7</title>
<path fill="none" stroke="midnightblue" d="M234.638,-58.3619C242.896,-50.1043 254.528,-38.4725 264.197,-28.8029"/>
<polygon fill="midnightblue" stroke="midnightblue" points="266.833,-31.1166 271.429,-21.5707 261.883,-26.1669 266.833,-31.1166"/>
</g>
<!-- Node8 -->
<g id="node18" class="node"><title>Node8</title>
<polygon fill="white" stroke="#bfbfbf" points="314,-0.5 314,-21.5 392,-21.5 392,-0.5 314,-0.5"/>
<text text-anchor="middle" x="353" y="-8.5" font-family="Helvetica,sans-Serif" font-size="10.00">lunaservice.h</text>
</g>
<!-- Node6&#45;&gt;Node8 -->
<g id="edge20" class="edge"><title>Node6&#45;&gt;Node8</title>
<path fill="none" stroke="midnightblue" d="M247.361,-58.4966C267.691,-49.3562 297.378,-36.0082 320.109,-25.7883"/>
<polygon fill="midnightblue" stroke="midnightblue" points="321.692,-28.9142 329.377,-21.6212 318.821,-22.5298 321.692,-28.9142"/>
</g>
<!-- Node9 -->
<g id="node20" class="node"><title>Node9</title>
<polygon fill="white" stroke="#bfbfbf" points="409.5,-0.5 409.5,-21.5 464.5,-21.5 464.5,-0.5 409.5,-0.5"/>
<text text-anchor="middle" x="437" y="-8.5" font-family="Helvetica,sans-Serif" font-size="10.00">QObject</text>
</g>
<!-- Node6&#45;&gt;Node9 -->
<g id="edge22" class="edge"><title>Node6&#45;&gt;Node9</title>
<path fill="none" stroke="midnightblue" d="M265.604,-58.4162C299.373,-49.722 348.446,-36.8535 399.276,-22.4358"/>
<polygon fill="midnightblue" stroke="midnightblue" points="400.464,-25.7365 409.122,-19.6295 398.546,-19.0046 400.464,-25.7365"/>
</g>
<!-- Node10 -->
<g id="node22" class="node"><title>Node10</title>
<polygon fill="white" stroke="#bfbfbf" points="481.5,-0.5 481.5,-21.5 522.5,-21.5 522.5,-0.5 481.5,-0.5"/>
<text text-anchor="middle" x="502" y="-8.5" font-family="Helvetica,sans-Serif" font-size="10.00">QList</text>
</g>
<!-- Node6&#45;&gt;Node10 -->
<g id="edge24" class="edge"><title>Node6&#45;&gt;Node10</title>
<path fill="none" stroke="midnightblue" d="M275.164,-59.5802C337.022,-48.1611 436.452,-29.6982 471.103,-21.8841"/>
<polygon fill="midnightblue" stroke="midnightblue" points="472.371,-25.1759 481.238,-19.3766 470.69,-18.3808 472.371,-25.1759"/>
</g>
<!-- Node11 -->
<g id="node24" class="node"><title>Node11</title>
<polygon fill="white" stroke="#bfbfbf" points="197.5,-0.5 197.5,-21.5 250.5,-21.5 250.5,-0.5 197.5,-0.5"/>
<text text-anchor="middle" x="224" y="-8.5" font-family="Helvetica,sans-Serif" font-size="10.00">QString</text>
</g>
<!-- Node6&#45;&gt;Node11 -->
<g id="edge26" class="edge"><title>Node6&#45;&gt;Node11</title>
<path fill="none" stroke="midnightblue" d="M224,-58.3619C224,-50.9219 224,-40.7427 224,-31.7276"/>
<polygon fill="midnightblue" stroke="midnightblue" points="227.5,-31.5706 224,-21.5707 220.5,-31.5707 227.5,-31.5706"/>
</g>
</g>
</svg>
