<?xml version="1.0" encoding="UTF-8" standalone="no"?>
<!DOCTYPE svg PUBLIC "-//W3C//DTD SVG 1.1//EN"
 "http://www.w3.org/Graphics/SVG/1.1/DTD/svg11.dtd">
<!-- Generated by graphviz version 2.26.3 (20100126.1600)
 -->
<!-- Title: BannerMessageEventFactory.h Pages: 1 -->
<svg width="432pt" height="88pt"
 viewBox="0.00 0.00 432.00 88.00" xmlns="http://www.w3.org/2000/svg" xmlns:xlink="http://www.w3.org/1999/xlink">
<g id="graph1" class="graph" transform="scale(1 1) rotate(0) translate(4 84)">
<title>BannerMessageEventFactory.h</title>
<polygon fill="white" stroke="white" points="-4,5 -4,-84 429,-84 429,5 -4,5"/>
<!-- Node1 -->
<g id="node1" class="node"><title>Node1</title>
<polygon fill="#bfbfbf" stroke="black" points="158.5,-58.5 158.5,-79.5 323.5,-79.5 323.5,-58.5 158.5,-58.5"/>
<text text-anchor="middle" x="241" y="-66.5" font-family="Helvetica,sans-Serif" font-size="10.00">BannerMessageEventFactory.h</text>
</g>
<!-- Node2 -->
<g id="node3" class="node"><title>Node2</title>
<a xlink:href="BannerMessageEventFactory_8cpp.htm" target="_top" xlink:title="BannerMessageEventFactory.cpp">
<polygon fill="white" stroke="black" points="0,-0.5 0,-21.5 176,-21.5 176,-0.5 0,-0.5"/>
<text text-anchor="middle" x="88" y="-8.5" font-family="Helvetica,sans-Serif" font-size="10.00">BannerMessageEventFactory.cpp</text>
</a>
</g>
<!-- Node1&#45;&gt;Node2 -->
<g id="edge2" class="edge"><title>Node1&#45;&gt;Node2</title>
<path fill="none" stroke="midnightblue" d="M203.737,-54.8742C176.587,-44.5819 140.395,-30.862 115.759,-21.5231"/>
<polygon fill="midnightblue" stroke="midnightblue" points="202.702,-58.2246 213.293,-58.4966 205.183,-51.6791 202.702,-58.2246"/>
</g>
<!-- Node3 -->
<g id="node5" class="node"><title>Node3</title>
<a xlink:href="PalmSystem_8cpp.htm" target="_top" xlink:title="PalmSystem.cpp">
<polygon fill="white" stroke="black" points="194,-0.5 194,-21.5 288,-21.5 288,-0.5 194,-0.5"/>
<text text-anchor="middle" x="241" y="-8.5" font-family="Helvetica,sans-Serif" font-size="10.00">PalmSystem.cpp</text>
</a>
</g>
<!-- Node1&#45;&gt;Node3 -->
<g id="edge4" class="edge"><title>Node1&#45;&gt;Node3</title>
<path fill="none" stroke="midnightblue" d="M241,-48.1906C241,-39.1684 241,-28.9941 241,-21.5707"/>
<polygon fill="midnightblue" stroke="midnightblue" points="237.5,-48.3619 241,-58.3619 244.5,-48.3619 237.5,-48.3619"/>
</g>
<!-- Node4 -->
<g id="node7" class="node"><title>Node4</title>
<a xlink:href="WebAppManager_8cpp.htm" target="_top" xlink:title="WebAppManager.cpp">
<polygon fill="white" stroke="black" points="305.5,-0.5 305.5,-21.5 424.5,-21.5 424.5,-0.5 305.5,-0.5"/>
<text text-anchor="middle" x="365" y="-8.5" font-family="Helvetica,sans-Serif" font-size="10.00">WebAppManager.cpp</text>
</a>
</g>
<!-- Node1&#45;&gt;Node4 -->
<g id="edge6" class="edge"><title>Node1&#45;&gt;Node4</title>
<path fill="none" stroke="midnightblue" d="M272.628,-54.2064C294.382,-44.031 322.762,-30.7567 342.293,-21.6212"/>
<polygon fill="midnightblue" stroke="midnightblue" points="271.031,-51.0894 263.455,-58.4966 273.996,-57.4301 271.031,-51.0894"/>
</g>
</g>
</svg>
