<?xml version="1.0" encoding="UTF-8" standalone="no"?>
<!DOCTYPE svg PUBLIC "-//W3C//DTD SVG 1.1//EN"
 "http://www.w3.org/Graphics/SVG/1.1/DTD/svg11.dtd">
<!-- Generated by graphviz version 2.26.3 (20100126.1600)
 -->
<!-- Title: BannerMessageEventFactory.h Pages: 1 -->
<svg width="620pt" height="88pt"
 viewBox="0.00 0.00 620.00 88.00" xmlns="http://www.w3.org/2000/svg" xmlns:xlink="http://www.w3.org/1999/xlink">
<g id="graph1" class="graph" transform="scale(1 1) rotate(0) translate(4 84)">
<title>BannerMessageEventFactory.h</title>
<polygon fill="white" stroke="white" points="-4,5 -4,-84 617,-84 617,5 -4,5"/>
<!-- Node1 -->
<g id="node1" class="node"><title>Node1</title>
<polygon fill="#bfbfbf" stroke="black" points="321.5,-58.5 321.5,-79.5 486.5,-79.5 486.5,-58.5 321.5,-58.5"/>
<text text-anchor="middle" x="404" y="-66.5" font-family="Helvetica,sans-Serif" font-size="10.00">BannerMessageEventFactory.h</text>
</g>
<!-- Node2 -->
<g id="node3" class="node"><title>Node2</title>
<polygon fill="white" stroke="#bfbfbf" points="-0.5,-0.5 -0.5,-21.5 66.5,-21.5 66.5,-0.5 -0.5,-0.5"/>
<text text-anchor="middle" x="33" y="-8.5" font-family="Helvetica,sans-Serif" font-size="10.00">Common.h</text>
</g>
<!-- Node1&#45;&gt;Node2 -->
<g id="edge2" class="edge"><title>Node1&#45;&gt;Node2</title>
<path fill="none" stroke="midnightblue" d="M321.417,-59.8552C257.022,-52.1117 165.206,-39.7324 76.7774,-22.212"/>
<polygon fill="midnightblue" stroke="midnightblue" points="77.3417,-18.7555 66.8485,-20.2199 75.9646,-25.6188 77.3417,-18.7555"/>
</g>
<!-- Node3 -->
<g id="node5" class="node"><title>Node3</title>
<polygon fill="white" stroke="#bfbfbf" points="84,-0.5 84,-21.5 214,-21.5 214,-0.5 84,-0.5"/>
<text text-anchor="middle" x="149" y="-8.5" font-family="Helvetica,sans-Serif" font-size="10.00">BannerMessageEvent.h</text>
</g>
<!-- Node1&#45;&gt;Node3 -->
<g id="edge4" class="edge"><title>Node1&#45;&gt;Node3</title>
<path fill="none" stroke="midnightblue" d="M357.821,-58.4966C314.9,-48.7341 250.876,-34.1718 205.044,-23.7474"/>
<polygon fill="midnightblue" stroke="midnightblue" points="205.792,-20.3282 195.265,-21.5231 204.24,-27.1538 205.792,-20.3282"/>
</g>
<!-- Node4 -->
<g id="node7" class="node"><title>Node4</title>
<polygon fill="white" stroke="#bfbfbf" points="231.5,-0.5 231.5,-21.5 364.5,-21.5 364.5,-0.5 231.5,-0.5"/>
<text text-anchor="middle" x="298" y="-8.5" font-family="Helvetica,sans-Serif" font-size="10.00">ActiveCallBannerEvent.h</text>
</g>
<!-- Node1&#45;&gt;Node4 -->
<g id="edge6" class="edge"><title>Node1&#45;&gt;Node4</title>
<path fill="none" stroke="midnightblue" d="M384.558,-58.3619C368.196,-49.4094 344.587,-36.4908 326.157,-26.4064"/>
<polygon fill="midnightblue" stroke="midnightblue" points="327.771,-23.3004 317.319,-21.5707 324.411,-29.4412 327.771,-23.3004"/>
</g>
<!-- Node5 -->
<g id="node9" class="node"><title>Node5</title>
<polygon fill="white" stroke="#bfbfbf" points="382,-0.5 382,-21.5 426,-21.5 426,-0.5 382,-0.5"/>
<text text-anchor="middle" x="404" y="-8.5" font-family="Helvetica,sans-Serif" font-size="10.00">time.h</text>
</g>
<!-- Node1&#45;&gt;Node5 -->
<g id="edge8" class="edge"><title>Node1&#45;&gt;Node5</title>
<path fill="none" stroke="midnightblue" d="M404,-58.3619C404,-50.9219 404,-40.7427 404,-31.7276"/>
<polygon fill="midnightblue" stroke="midnightblue" points="407.5,-31.5706 404,-21.5707 400.5,-31.5707 407.5,-31.5706"/>
</g>
<!-- Node6 -->
<g id="node11" class="node"><title>Node6</title>
<polygon fill="white" stroke="#bfbfbf" points="443.5,-0.5 443.5,-21.5 484.5,-21.5 484.5,-0.5 443.5,-0.5"/>
<text text-anchor="middle" x="464" y="-8.5" font-family="Helvetica,sans-Serif" font-size="10.00">glib.h</text>
</g>
<!-- Node1&#45;&gt;Node6 -->
<g id="edge10" class="edge"><title>Node1&#45;&gt;Node6</title>
<path fill="none" stroke="midnightblue" d="M415.005,-58.3619C423.547,-50.1043 435.58,-38.4725 445.583,-28.8029"/>
<polygon fill="midnightblue" stroke="midnightblue" points="448.308,-31.0374 453.065,-21.5707 443.442,-26.0044 448.308,-31.0374"/>
</g>
<!-- Node7 -->
<g id="node13" class="node"><title>Node7</title>
<polygon fill="white" stroke="#bfbfbf" points="501.5,-0.5 501.5,-21.5 544.5,-21.5 544.5,-0.5 501.5,-0.5"/>
<text text-anchor="middle" x="523" y="-8.5" font-family="Helvetica,sans-Serif" font-size="10.00">string</text>
</g>
<!-- Node1&#45;&gt;Node7 -->
<g id="edge12" class="edge"><title>Node1&#45;&gt;Node7</title>
<path fill="none" stroke="midnightblue" d="M425.55,-58.4966C444.136,-49.4378 471.202,-36.2462 492.095,-26.0628"/>
<polygon fill="midnightblue" stroke="midnightblue" points="493.753,-29.1487 501.208,-21.6212 490.686,-22.8563 493.753,-29.1487"/>
</g>
<!-- Node8 -->
<g id="node15" class="node"><title>Node8</title>
<polygon fill="white" stroke="#bfbfbf" points="562,-0.5 562,-21.5 612,-21.5 612,-0.5 562,-0.5"/>
<text text-anchor="middle" x="587" y="-8.5" font-family="Helvetica,sans-Serif" font-size="10.00">stdint.h</text>
</g>
<!-- Node1&#45;&gt;Node8 -->
<g id="edge14" class="edge"><title>Node1&#45;&gt;Node8</title>
<path fill="none" stroke="midnightblue" d="M437.753,-58.4307C465.961,-49.5805 507.492,-36.5103 552.176,-22.25"/>
<polygon fill="midnightblue" stroke="midnightblue" points="553.295,-25.567 561.756,-19.19 551.165,-18.899 553.295,-25.567"/>
</g>
</g>
</svg>
