<?xml version="1.0" encoding="UTF-8" standalone="no"?>
<!DOCTYPE svg PUBLIC "-//W3C//DTD SVG 1.1//EN"
 "http://www.w3.org/Graphics/SVG/1.1/DTD/svg11.dtd">
<!-- Generated by graphviz version 2.26.3 (20100126.1600)
 -->
<!-- Title: BannerMessageEventFactory.cpp Pages: 1 -->
<svg width="620pt" height="146pt"
 viewBox="0.00 0.00 620.00 146.00" xmlns="http://www.w3.org/2000/svg" xmlns:xlink="http://www.w3.org/1999/xlink">
<g id="graph1" class="graph" transform="scale(1 1) rotate(0) translate(4 142)">
<title>BannerMessageEventFactory.cpp</title>
<polygon fill="white" stroke="white" points="-4,5 -4,-142 617,-142 617,5 -4,5"/>
<!-- Node1 -->
<g id="node1" class="node"><title>Node1</title>
<polygon fill="#bfbfbf" stroke="black" points="143,-116.5 143,-137.5 319,-137.5 319,-116.5 143,-116.5"/>
<text text-anchor="middle" x="231" y="-124.5" font-family="Helvetica,sans-Serif" font-size="10.00">BannerMessageEventFactory.cpp</text>
</g>
<!-- Node2 -->
<g id="node3" class="node"><title>Node2</title>
<polygon fill="white" stroke="#bfbfbf" points="-0.5,-0.5 -0.5,-21.5 66.5,-21.5 66.5,-0.5 -0.5,-0.5"/>
<text text-anchor="middle" x="33" y="-8.5" font-family="Helvetica,sans-Serif" font-size="10.00">Common.h</text>
</g>
<!-- Node1&#45;&gt;Node2 -->
<g id="edge2" class="edge"><title>Node1&#45;&gt;Node2</title>
<path fill="none" stroke="midnightblue" d="M212.728,-116.295C177.645,-95.7414 100.712,-50.6698 59.8083,-26.7059"/>
<polygon fill="midnightblue" stroke="midnightblue" points="61.3399,-23.5468 50.9423,-21.5117 57.8014,-29.5866 61.3399,-23.5468"/>
</g>
<!-- Node3 -->
<g id="node5" class="node"><title>Node3</title>
<a xlink:href="BannerMessageEventFactory_8h.htm" target="_top" xlink:title="BannerMessageEventFactory.h">
<polygon fill="white" stroke="black" points="268.5,-58.5 268.5,-79.5 433.5,-79.5 433.5,-58.5 268.5,-58.5"/>
<text text-anchor="middle" x="351" y="-66.5" font-family="Helvetica,sans-Serif" font-size="10.00">BannerMessageEventFactory.h</text>
</a>
</g>
<!-- Node1&#45;&gt;Node3 -->
<g id="edge4" class="edge"><title>Node1&#45;&gt;Node3</title>
<path fill="none" stroke="midnightblue" d="M252.731,-116.497C271.474,-107.438 298.767,-94.2462 319.836,-84.0628"/>
<polygon fill="midnightblue" stroke="midnightblue" points="321.545,-87.1242 329.025,-79.6212 318.498,-80.8217 321.545,-87.1242"/>
</g>
<!-- Node3&#45;&gt;Node2 -->
<g id="edge6" class="edge"><title>Node3&#45;&gt;Node2</title>
<path fill="none" stroke="midnightblue" d="M278.899,-58.49C225.418,-50.2864 150.543,-37.9489 76.7902,-22.2727"/>
<polygon fill="midnightblue" stroke="midnightblue" points="77.377,-18.819 66.865,-20.1411 75.9071,-25.663 77.377,-18.819"/>
</g>
<!-- Node4 -->
<g id="node8" class="node"><title>Node4</title>
<polygon fill="white" stroke="#bfbfbf" points="84,-0.5 84,-21.5 214,-21.5 214,-0.5 84,-0.5"/>
<text text-anchor="middle" x="149" y="-8.5" font-family="Helvetica,sans-Serif" font-size="10.00">BannerMessageEvent.h</text>
</g>
<!-- Node3&#45;&gt;Node4 -->
<g id="edge8" class="edge"><title>Node3&#45;&gt;Node4</title>
<path fill="none" stroke="midnightblue" d="M314.419,-58.4966C281.06,-48.9183 231.61,-34.7196 195.466,-24.3418"/>
<polygon fill="midnightblue" stroke="midnightblue" points="196.227,-20.9188 185.649,-21.5231 194.295,-27.647 196.227,-20.9188"/>
</g>
<!-- Node5 -->
<g id="node10" class="node"><title>Node5</title>
<polygon fill="white" stroke="#bfbfbf" points="231.5,-0.5 231.5,-21.5 364.5,-21.5 364.5,-0.5 231.5,-0.5"/>
<text text-anchor="middle" x="298" y="-8.5" font-family="Helvetica,sans-Serif" font-size="10.00">ActiveCallBannerEvent.h</text>
</g>
<!-- Node3&#45;&gt;Node5 -->
<g id="edge10" class="edge"><title>Node3&#45;&gt;Node5</title>
<path fill="none" stroke="midnightblue" d="M341.279,-58.3619C333.808,-50.1861 323.314,-38.7025 314.531,-29.0907"/>
<polygon fill="midnightblue" stroke="midnightblue" points="316.989,-26.5918 307.659,-21.5707 311.821,-31.3138 316.989,-26.5918"/>
</g>
<!-- Node6 -->
<g id="node12" class="node"><title>Node6</title>
<polygon fill="white" stroke="#bfbfbf" points="382,-0.5 382,-21.5 426,-21.5 426,-0.5 382,-0.5"/>
<text text-anchor="middle" x="404" y="-8.5" font-family="Helvetica,sans-Serif" font-size="10.00">time.h</text>
</g>
<!-- Node3&#45;&gt;Node6 -->
<g id="edge12" class="edge"><title>Node3&#45;&gt;Node6</title>
<path fill="none" stroke="midnightblue" d="M360.721,-58.3619C368.192,-50.1861 378.686,-38.7025 387.469,-29.0907"/>
<polygon fill="midnightblue" stroke="midnightblue" points="390.179,-31.3138 394.341,-21.5707 385.011,-26.5918 390.179,-31.3138"/>
</g>
<!-- Node7 -->
<g id="node14" class="node"><title>Node7</title>
<polygon fill="white" stroke="#bfbfbf" points="443.5,-0.5 443.5,-21.5 484.5,-21.5 484.5,-0.5 443.5,-0.5"/>
<text text-anchor="middle" x="464" y="-8.5" font-family="Helvetica,sans-Serif" font-size="10.00">glib.h</text>
</g>
<!-- Node3&#45;&gt;Node7 -->
<g id="edge14" class="edge"><title>Node3&#45;&gt;Node7</title>
<path fill="none" stroke="midnightblue" d="M371.463,-58.4966C389.033,-49.4786 414.582,-36.3649 434.385,-26.2006"/>
<polygon fill="midnightblue" stroke="midnightblue" points="436.009,-29.3014 443.307,-21.6212 432.812,-23.0738 436.009,-29.3014"/>
</g>
<!-- Node8 -->
<g id="node16" class="node"><title>Node8</title>
<polygon fill="white" stroke="#bfbfbf" points="501.5,-0.5 501.5,-21.5 544.5,-21.5 544.5,-0.5 501.5,-0.5"/>
<text text-anchor="middle" x="523" y="-8.5" font-family="Helvetica,sans-Serif" font-size="10.00">string</text>
</g>
<!-- Node3&#45;&gt;Node8 -->
<g id="edge16" class="edge"><title>Node3&#45;&gt;Node8</title>
<path fill="none" stroke="midnightblue" d="M383.812,-58.467C410.629,-49.7861 449.743,-36.9608 491.809,-22.3564"/>
<polygon fill="midnightblue" stroke="midnightblue" points="493.109,-25.6098 501.399,-19.0133 490.805,-18.9999 493.109,-25.6098"/>
</g>
<!-- Node9 -->
<g id="node18" class="node"><title>Node9</title>
<polygon fill="white" stroke="#bfbfbf" points="562,-0.5 562,-21.5 612,-21.5 612,-0.5 562,-0.5"/>
<text text-anchor="middle" x="587" y="-8.5" font-family="Helvetica,sans-Serif" font-size="10.00">stdint.h</text>
</g>
<!-- Node3&#45;&gt;Node9 -->
<g id="edge18" class="edge"><title>Node3&#45;&gt;Node9</title>
<path fill="none" stroke="midnightblue" d="M401.521,-58.4832C440.318,-50.1267 495.398,-37.6606 551.987,-22.1329"/>
<polygon fill="midnightblue" stroke="midnightblue" points="553.119,-25.4513 561.821,-19.4075 551.249,-18.7056 553.119,-25.4513"/>
</g>
</g>
</svg>
