<?xml version="1.0" encoding="UTF-8" standalone="no"?>
<!DOCTYPE svg PUBLIC "-//W3C//DTD SVG 1.1//EN"
 "http://www.w3.org/Graphics/SVG/1.1/DTD/svg11.dtd">
<!-- Generated by graphviz version 2.26.3 (20100126.1600)
 -->
<!-- Title: CardWebApp.cpp Pages: 1 -->
<svg width="3909pt" height="262pt"
 viewBox="0.00 0.00 3909.00 262.00" xmlns="http://www.w3.org/2000/svg" xmlns:xlink="http://www.w3.org/1999/xlink">
<g id="graph1" class="graph" transform="scale(1 1) rotate(0) translate(4 258)">
<title>CardWebApp.cpp</title>
<polygon fill="white" stroke="white" points="-4,5 -4,-258 3906,-258 3906,5 -4,5"/>
<!-- Node1 -->
<g id="node1" class="node"><title>Node1</title>
<polygon fill="#bfbfbf" stroke="black" points="2341.5,-232.5 2341.5,-253.5 2440.5,-253.5 2440.5,-232.5 2341.5,-232.5"/>
<text text-anchor="middle" x="2391" y="-240.5" font-family="Helvetica,sans-Serif" font-size="10.00">CardWebApp.cpp</text>
</g>
<!-- Node2 -->
<g id="node3" class="node"><title>Node2</title>
<polygon fill="white" stroke="#bfbfbf" points="639.5,-0.5 639.5,-21.5 706.5,-21.5 706.5,-0.5 639.5,-0.5"/>
<text text-anchor="middle" x="673" y="-8.5" font-family="Helvetica,sans-Serif" font-size="10.00">Common.h</text>
</g>
<!-- Node1&#45;&gt;Node2 -->
<g id="edge2" class="edge"><title>Node1&#45;&gt;Node2</title>
<path fill="none" stroke="midnightblue" d="M2341.15,-242.268C2079.11,-238.334 866.806,-219.016 701,-196 499.832,-168.075 382.311,-241.378 259,-80 253.063,-72.2307 252.488,-65.2935 259,-58 283.371,-30.7056 527.848,-17.196 629.268,-12.7317"/>
<polygon fill="midnightblue" stroke="midnightblue" points="629.642,-16.2189 639.482,-12.2915 629.341,-9.22543 629.642,-16.2189"/>
</g>
<!-- Node3 -->
<g id="node5" class="node"><title>Node3</title>
<a xlink:href="CardWebApp_8h.htm" target="_top" xlink:title="CardWebApp.h">
<polygon fill="white" stroke="black" points="1565,-116.5 1565,-137.5 1653,-137.5 1653,-116.5 1565,-116.5"/>
<text text-anchor="middle" x="1609" y="-124.5" font-family="Helvetica,sans-Serif" font-size="10.00">CardWebApp.h</text>
</a>
</g>
<!-- Node1&#45;&gt;Node3 -->
<g id="edge4" class="edge"><title>Node1&#45;&gt;Node3</title>
<path fill="none" stroke="midnightblue" d="M2341.26,-241.517C2176.25,-236.392 1655.73,-218.504 1628,-196 1613.95,-184.595 1609.74,-163.833 1608.72,-148.053"/>
<polygon fill="midnightblue" stroke="midnightblue" points="1612.2,-147.552 1608.44,-137.647 1605.21,-147.736 1612.2,-147.552"/>
</g>
<!-- Node10 -->
<g id="node22" class="node"><title>Node10</title>
<polygon fill="white" stroke="#bfbfbf" points="1458,-0.5 1458,-21.5 1550,-21.5 1550,-0.5 1458,-0.5"/>
<text text-anchor="middle" x="1504" y="-8.5" font-family="Helvetica,sans-Serif" font-size="10.00">WindowTypes.h</text>
</g>
<!-- Node1&#45;&gt;Node10 -->
<g id="edge114" class="edge"><title>Node1&#45;&gt;Node10</title>
<path fill="none" stroke="midnightblue" d="M2341.29,-242.474C2212.78,-240.601 1877.27,-232.253 1844,-196 1802.1,-150.34 1904.89,-104.573 1864,-58 1844.31,-35.5779 1656.8,-20.6119 1560.5,-14.339"/>
<polygon fill="midnightblue" stroke="midnightblue" points="1560.55,-10.8352 1550.34,-13.688 1560.1,-17.8209 1560.55,-10.8352"/>
</g>
<!-- Node11 -->
<g id="node24" class="node"><title>Node11</title>
<polygon fill="white" stroke="#bfbfbf" points="1242,-0.5 1242,-21.5 1316,-21.5 1316,-0.5 1242,-0.5"/>
<text text-anchor="middle" x="1279" y="-8.5" font-family="Helvetica,sans-Serif" font-size="10.00">PIpcBuffer.h</text>
</g>
<!-- Node1&#45;&gt;Node11 -->
<g id="edge144" class="edge"><title>Node1&#45;&gt;Node11</title>
<path fill="none" stroke="midnightblue" d="M2341.25,-241.305C2180.12,-235.634 1678.94,-216.528 1609,-196 1482.37,-158.832 1351.22,-66.0369 1300.66,-27.8367"/>
<polygon fill="midnightblue" stroke="midnightblue" points="1302.52,-24.8513 1292.44,-21.5703 1298.27,-30.4174 1302.52,-24.8513"/>
</g>
<!-- Node15 -->
<g id="node33" class="node"><title>Node15</title>
<polygon fill="white" stroke="#bfbfbf" points="1746,-58.5 1746,-79.5 1836,-79.5 1836,-58.5 1746,-58.5"/>
<text text-anchor="middle" x="1791" y="-66.5" font-family="Helvetica,sans-Serif" font-size="10.00">QGraphicsView</text>
</g>
<!-- Node1&#45;&gt;Node15 -->
<g id="edge154" class="edge"><title>Node1&#45;&gt;Node15</title>
<path fill="none" stroke="midnightblue" d="M2341.06,-242.423C2207.47,-240.402 1849.47,-231.678 1811,-196 1781.96,-169.069 1783.57,-118.455 1787.29,-89.9284"/>
<polygon fill="midnightblue" stroke="midnightblue" points="1790.78,-90.2543 1788.82,-79.843 1783.86,-89.2062 1790.78,-90.2543"/>
</g>
<!-- Node16 -->
<g id="node35" class="node"><title>Node16</title>
<polygon fill="white" stroke="#bfbfbf" points="1852.5,-174.5 1852.5,-195.5 1915.5,-195.5 1915.5,-174.5 1852.5,-174.5"/>
<text text-anchor="middle" x="1884" y="-182.5" font-family="Helvetica,sans-Serif" font-size="10.00">Logging.h</text>
</g>
<!-- Node1&#45;&gt;Node16 -->
<g id="edge38" class="edge"><title>Node1&#45;&gt;Node16</title>
<path fill="none" stroke="midnightblue" d="M2341.19,-240.739C2257.22,-236.329 2082.13,-224.562 1926.02,-196.149"/>
<polygon fill="midnightblue" stroke="midnightblue" points="1926.23,-192.63 1915.76,-194.254 1924.96,-199.513 1926.23,-192.63"/>
</g>
<!-- Node17 -->
<g id="node37" class="node"><title>Node17</title>
<a xlink:href="RemoteWindowData_8h.htm" target="_top" xlink:title="RemoteWindowData.h">
<polygon fill="white" stroke="black" points="1637,-174.5 1637,-195.5 1759,-195.5 1759,-174.5 1637,-174.5"/>
<text text-anchor="middle" x="1698" y="-182.5" font-family="Helvetica,sans-Serif" font-size="10.00">RemoteWindowData.h</text>
</a>
</g>
<!-- Node1&#45;&gt;Node17 -->
<g id="edge40" class="edge"><title>Node1&#45;&gt;Node17</title>
<path fill="none" stroke="midnightblue" d="M2341.22,-240.395C2236.07,-234.633 1983.68,-219.432 1773,-196 1771.89,-195.876 1770.77,-195.749 1769.64,-195.618"/>
<polygon fill="midnightblue" stroke="midnightblue" points="1769.7,-192.099 1759.35,-194.354 1768.85,-199.047 1769.7,-192.099"/>
</g>
<!-- Node18 -->
<g id="node42" class="node"><title>Node18</title>
<polygon fill="white" stroke="#bfbfbf" points="1932.5,-174.5 1932.5,-195.5 1995.5,-195.5 1995.5,-174.5 1932.5,-174.5"/>
<text text-anchor="middle" x="1964" y="-182.5" font-family="Helvetica,sans-Serif" font-size="10.00">Settings.h</text>
</g>
<!-- Node1&#45;&gt;Node18 -->
<g id="edge48" class="edge"><title>Node1&#45;&gt;Node18</title>
<path fill="none" stroke="midnightblue" d="M2341.45,-239.337C2269.44,-233.496 2131.54,-220.374 2005.95,-196.183"/>
<polygon fill="midnightblue" stroke="midnightblue" points="2006.26,-192.678 1995.78,-194.193 2004.92,-199.548 2006.26,-192.678"/>
</g>
<!-- Node19 -->
<g id="node44" class="node"><title>Node19</title>
<polygon fill="white" stroke="#bfbfbf" points="2012.5,-174.5 2012.5,-195.5 2057.5,-195.5 2057.5,-174.5 2012.5,-174.5"/>
<text text-anchor="middle" x="2035" y="-182.5" font-family="Helvetica,sans-Serif" font-size="10.00">Utils.h</text>
</g>
<!-- Node1&#45;&gt;Node19 -->
<g id="edge50" class="edge"><title>Node1&#45;&gt;Node19</title>
<path fill="none" stroke="midnightblue" d="M2341.41,-238.897C2279.18,-233.073 2169.17,-220.548 2067.36,-195.989"/>
<polygon fill="midnightblue" stroke="midnightblue" points="2068.08,-192.562 2057.53,-193.574 2066.41,-199.359 2068.08,-192.562"/>
</g>
<!-- Node20 -->
<g id="node46" class="node"><title>Node20</title>
<a xlink:href="WebAppCache_8h.htm" target="_top" xlink:title="WebAppCache.h">
<polygon fill="white" stroke="black" points="267.5,-58.5 267.5,-79.5 362.5,-79.5 362.5,-58.5 267.5,-58.5"/>
<text text-anchor="middle" x="315" y="-66.5" font-family="Helvetica,sans-Serif" font-size="10.00">WebAppCache.h</text>
</a>
</g>
<!-- Node1&#45;&gt;Node20 -->
<g id="edge52" class="edge"><title>Node1&#45;&gt;Node20</title>
<path fill="none" stroke="midnightblue" d="M2341.18,-242.137C2091.14,-237.721 978.819,-217.039 826,-196 648.512,-171.565 443.28,-110.107 356.815,-82.6361"/>
<polygon fill="midnightblue" stroke="midnightblue" points="357.703,-79.2456 347.112,-79.5373 355.573,-85.9138 357.703,-79.2456"/>
</g>
<!-- Node21 -->
<g id="node49" class="node"><title>Node21</title>
<a xlink:href="WebAppDeferredUpdateHandler_8h.htm" target="_top" xlink:title="WebAppDeferredUpdateHandler.h">
<polygon fill="white" stroke="black" points="2074.5,-174.5 2074.5,-195.5 2253.5,-195.5 2253.5,-174.5 2074.5,-174.5"/>
<text text-anchor="middle" x="2164" y="-182.5" font-family="Helvetica,sans-Serif" font-size="10.00">WebAppDeferredUpdateHandler.h</text>
</a>
</g>
<!-- Node1&#45;&gt;Node21 -->
<g id="edge56" class="edge"><title>Node1&#45;&gt;Node21</title>
<path fill="none" stroke="midnightblue" d="M2349.89,-232.497C2312,-222.816 2255.64,-208.416 2214.92,-198.01"/>
<polygon fill="midnightblue" stroke="midnightblue" points="2215.74,-194.608 2205.19,-195.523 2214.01,-201.39 2215.74,-194.608"/>
</g>
<!-- Node22 -->
<g id="node51" class="node"><title>Node22</title>
<a xlink:href="WebAppManager_8h.htm" target="_top" xlink:title="WebAppManager.h">
<polygon fill="white" stroke="red" points="613.5,-116.5 613.5,-137.5 720.5,-137.5 720.5,-116.5 613.5,-116.5"/>
<text text-anchor="middle" x="667" y="-124.5" font-family="Helvetica,sans-Serif" font-size="10.00">WebAppManager.h</text>
</a>
</g>
<!-- Node1&#45;&gt;Node22 -->
<g id="edge58" class="edge"><title>Node1&#45;&gt;Node22</title>
<path fill="none" stroke="midnightblue" d="M2341.14,-242.874C2118.46,-242.085 1213.59,-236.405 933,-196 851.985,-184.334 760.09,-157.315 708.284,-140.76"/>
<polygon fill="midnightblue" stroke="midnightblue" points="709.064,-137.334 698.473,-137.597 706.916,-143.997 709.064,-137.334"/>
</g>
<!-- Node24 -->
<g id="node57" class="node"><title>Node24</title>
<polygon fill="white" stroke="#bfbfbf" points="897.5,-58.5 897.5,-79.5 940.5,-79.5 940.5,-58.5 897.5,-58.5"/>
<text text-anchor="middle" x="919" y="-66.5" font-family="Helvetica,sans-Serif" font-size="10.00">string</text>
</g>
<!-- Node1&#45;&gt;Node24 -->
<g id="edge142" class="edge"><title>Node1&#45;&gt;Node24</title>
<path fill="none" stroke="midnightblue" d="M2341.28,-242.334C2148.41,-239.543 1449.54,-227.433 1230,-196 1124.36,-180.875 1091.45,-187.668 997,-138 972.472,-125.102 949.353,-102.912 934.749,-87.1821"/>
<polygon fill="midnightblue" stroke="midnightblue" points="937.226,-84.7032 927.926,-79.6283 932.032,-89.3953 937.226,-84.7032"/>
</g>
<!-- Node32 -->
<g id="node84" class="node"><title>Node32</title>
<a xlink:href="WebAppFactory_8h.htm" target="_top" xlink:title="WebAppFactory.h">
<polygon fill="white" stroke="black" points="1006,-116.5 1006,-137.5 1106,-137.5 1106,-116.5 1006,-116.5"/>
<text text-anchor="middle" x="1056" y="-124.5" font-family="Helvetica,sans-Serif" font-size="10.00">WebAppFactory.h</text>
</a>
</g>
<!-- Node1&#45;&gt;Node32 -->
<g id="edge104" class="edge"><title>Node1&#45;&gt;Node32</title>
<path fill="none" stroke="midnightblue" d="M2341.41,-242.011C2161.28,-238.223 1541.92,-223.463 1346,-196 1257.76,-183.632 1157.05,-156.692 1100.55,-140.374"/>
<polygon fill="midnightblue" stroke="midnightblue" points="1101.44,-136.989 1090.86,-137.555 1099.48,-143.71 1101.44,-136.989"/>
</g>
<!-- Node33 -->
<g id="node89" class="node"><title>Node33</title>
<a xlink:href="SysMgrWebBridge_8h.htm" target="_top" xlink:title="SysMgrWebBridge.h">
<polygon fill="white" stroke="red" points="2270.5,-174.5 2270.5,-195.5 2383.5,-195.5 2383.5,-174.5 2270.5,-174.5"/>
<text text-anchor="middle" x="2327" y="-182.5" font-family="Helvetica,sans-Serif" font-size="10.00">SysMgrWebBridge.h</text>
</a>
</g>
<!-- Node1&#45;&gt;Node33 -->
<g id="edge112" class="edge"><title>Node1&#45;&gt;Node33</title>
<path fill="none" stroke="midnightblue" d="M2379.26,-232.362C2370.06,-224.023 2357.06,-212.242 2346.33,-202.516"/>
<polygon fill="midnightblue" stroke="midnightblue" points="2348.42,-199.692 2338.66,-195.571 2343.72,-204.879 2348.42,-199.692"/>
</g>
<!-- Node34 -->
<g id="node92" class="node"><title>Node34</title>
<a xlink:href="WindowMetaData_8h.htm" target="_top" xlink:title="WindowMetaData.h">
<polygon fill="white" stroke="black" points="2400.5,-174.5 2400.5,-195.5 2509.5,-195.5 2509.5,-174.5 2400.5,-174.5"/>
<text text-anchor="middle" x="2455" y="-182.5" font-family="Helvetica,sans-Serif" font-size="10.00">WindowMetaData.h</text>
</a>
</g>
<!-- Node1&#45;&gt;Node34 -->
<g id="edge116" class="edge"><title>Node1&#45;&gt;Node34</title>
<path fill="none" stroke="midnightblue" d="M2402.74,-232.362C2411.94,-224.023 2424.94,-212.242 2435.67,-202.516"/>
<polygon fill="midnightblue" stroke="midnightblue" points="2438.28,-204.879 2443.34,-195.571 2433.58,-199.692 2438.28,-204.879"/>
</g>
<!-- Node35 -->
<g id="node94" class="node"><title>Node35</title>
<polygon fill="white" stroke="#bfbfbf" points="2527,-174.5 2527,-195.5 2575,-195.5 2575,-174.5 2527,-174.5"/>
<text text-anchor="middle" x="2551" y="-182.5" font-family="Helvetica,sans-Serif" font-size="10.00">Time.h</text>
</g>
<!-- Node1&#45;&gt;Node35 -->
<g id="edge118" class="edge"><title>Node1&#45;&gt;Node35</title>
<path fill="none" stroke="midnightblue" d="M2419.97,-232.497C2447.36,-222.568 2488.45,-207.675 2517.29,-197.219"/>
<polygon fill="midnightblue" stroke="midnightblue" points="2518.73,-200.42 2526.94,-193.721 2516.35,-193.839 2518.73,-200.42"/>
</g>
<!-- Node36 -->
<g id="node96" class="node"><title>Node36</title>
<a xlink:href="EventReporter_8h.htm" target="_top" xlink:title="EventReporter.h">
<polygon fill="white" stroke="red" points="856,-116.5 856,-137.5 950,-137.5 950,-116.5 856,-116.5"/>
<text text-anchor="middle" x="903" y="-124.5" font-family="Helvetica,sans-Serif" font-size="10.00">EventReporter.h</text>
</a>
</g>
<!-- Node1&#45;&gt;Node36 -->
<g id="edge120" class="edge"><title>Node1&#45;&gt;Node36</title>
<path fill="none" stroke="midnightblue" d="M2341.45,-242.467C2096.88,-239.695 1027.53,-225.902 964,-196 941.869,-185.584 924.405,-162.978 913.933,-146.469"/>
<polygon fill="midnightblue" stroke="midnightblue" points="916.747,-144.357 908.593,-137.593 910.749,-147.966 916.747,-144.357"/>
</g>
<!-- Node37 -->
<g id="node100" class="node"><title>Node37</title>
<a xlink:href="ApplicationDescription_8h.htm" target="_top" xlink:title="ApplicationDescription.h">
<polygon fill="white" stroke="red" points="2593,-174.5 2593,-195.5 2723,-195.5 2723,-174.5 2593,-174.5"/>
<text text-anchor="middle" x="2658" y="-182.5" font-family="Helvetica,sans-Serif" font-size="10.00">ApplicationDescription.h</text>
</a>
</g>
<!-- Node1&#45;&gt;Node37 -->
<g id="edge126" class="edge"><title>Node1&#45;&gt;Node37</title>
<path fill="none" stroke="midnightblue" d="M2439.35,-232.497C2484.39,-222.714 2551.61,-208.111 2599.62,-197.682"/>
<polygon fill="midnightblue" stroke="midnightblue" points="2600.53,-201.066 2609.56,-195.523 2599.04,-194.226 2600.53,-201.066"/>
</g>
<!-- Node38 -->
<g id="node102" class="node"><title>Node38</title>
<polygon fill="white" stroke="#bfbfbf" points="2740.5,-174.5 2740.5,-195.5 2787.5,-195.5 2787.5,-174.5 2740.5,-174.5"/>
<text text-anchor="middle" x="2764" y="-182.5" font-family="Helvetica,sans-Serif" font-size="10.00">stdio.h</text>
</g>
<!-- Node1&#45;&gt;Node38 -->
<g id="edge128" class="edge"><title>Node1&#45;&gt;Node38</title>
<path fill="none" stroke="midnightblue" d="M2440.69,-239.196C2505.62,-233.555 2622.85,-221.081 2730.65,-195.996"/>
<polygon fill="midnightblue" stroke="midnightblue" points="2731.46,-199.401 2740.39,-193.69 2729.85,-192.59 2731.46,-199.401"/>
</g>
<!-- Node39 -->
<g id="node104" class="node"><title>Node39</title>
<polygon fill="white" stroke="#bfbfbf" points="2804.5,-174.5 2804.5,-195.5 2855.5,-195.5 2855.5,-174.5 2804.5,-174.5"/>
<text text-anchor="middle" x="2830" y="-182.5" font-family="Helvetica,sans-Serif" font-size="10.00">string.h</text>
</g>
<!-- Node1&#45;&gt;Node39 -->
<g id="edge130" class="edge"><title>Node1&#45;&gt;Node39</title>
<path fill="none" stroke="midnightblue" d="M2440.77,-240.393C2515.81,-235.771 2662.39,-224.053 2794.28,-196.074"/>
<polygon fill="midnightblue" stroke="midnightblue" points="2795.12,-199.474 2804.16,-193.943 2793.64,-192.632 2795.12,-199.474"/>
</g>
<!-- Node40 -->
<g id="node106" class="node"><title>Node40</title>
<polygon fill="white" stroke="#bfbfbf" points="2872.5,-174.5 2872.5,-195.5 2921.5,-195.5 2921.5,-174.5 2872.5,-174.5"/>
<text text-anchor="middle" x="2897" y="-182.5" font-family="Helvetica,sans-Serif" font-size="10.00">stdlib.h</text>
</g>
<!-- Node1&#45;&gt;Node40 -->
<g id="edge132" class="edge"><title>Node1&#45;&gt;Node40</title>
<path fill="none" stroke="midnightblue" d="M2440.58,-241.696C2525.55,-238.678 2704.35,-228.9 2862.4,-195.989"/>
<polygon fill="midnightblue" stroke="midnightblue" points="2863.24,-199.388 2872.3,-193.891 2861.79,-192.54 2863.24,-199.388"/>
</g>
<!-- Node41 -->
<g id="node108" class="node"><title>Node41</title>
<polygon fill="white" stroke="#bfbfbf" points="2939,-174.5 2939,-195.5 2983,-195.5 2983,-174.5 2939,-174.5"/>
<text text-anchor="middle" x="2961" y="-182.5" font-family="Helvetica,sans-Serif" font-size="10.00">time.h</text>
</g>
<!-- Node1&#45;&gt;Node41 -->
<g id="edge134" class="edge"><title>Node1&#45;&gt;Node41</title>
<path fill="none" stroke="midnightblue" d="M2440.88,-240.273C2552.4,-233.923 2819.98,-217.21 2928.82,-195.716"/>
<polygon fill="midnightblue" stroke="midnightblue" points="2929.77,-199.093 2938.85,-193.622 2928.34,-192.241 2929.77,-199.093"/>
</g>
<!-- Node42 -->
<g id="node110" class="node"><title>Node42</title>
<polygon fill="white" stroke="#bfbfbf" points="3000.5,-174.5 3000.5,-195.5 3053.5,-195.5 3053.5,-174.5 3000.5,-174.5"/>
<text text-anchor="middle" x="3027" y="-182.5" font-family="Helvetica,sans-Serif" font-size="10.00">unistd.h</text>
</g>
<!-- Node1&#45;&gt;Node42 -->
<g id="edge136" class="edge"><title>Node1&#45;&gt;Node42</title>
<path fill="none" stroke="midnightblue" d="M2440.51,-240.575C2561.13,-234.443 2868.6,-217.397 2990.25,-195.929"/>
<polygon fill="midnightblue" stroke="midnightblue" points="2991.22,-199.31 3000.41,-194.041 2989.94,-192.428 2991.22,-199.31"/>
</g>
<!-- Node43 -->
<g id="node112" class="node"><title>Node43</title>
<polygon fill="white" stroke="#bfbfbf" points="3070.5,-174.5 3070.5,-195.5 3133.5,-195.5 3133.5,-174.5 3070.5,-174.5"/>
<text text-anchor="middle" x="3102" y="-182.5" font-family="Helvetica,sans-Serif" font-size="10.00">sys/time.h</text>
</g>
<!-- Node1&#45;&gt;Node43 -->
<g id="edge138" class="edge"><title>Node1&#45;&gt;Node43</title>
<path fill="none" stroke="midnightblue" d="M2440.78,-240.797C2571.62,-234.806 2923.92,-217.339 3060.06,-196.017"/>
<polygon fill="midnightblue" stroke="midnightblue" points="3060.95,-199.417 3070.25,-194.343 3059.82,-192.51 3060.95,-199.417"/>
</g>
<!-- Node44 -->
<g id="node114" class="node"><title>Node44</title>
<polygon fill="white" stroke="#bfbfbf" points="3150.5,-174.5 3150.5,-195.5 3191.5,-195.5 3191.5,-174.5 3150.5,-174.5"/>
<text text-anchor="middle" x="3171" y="-182.5" font-family="Helvetica,sans-Serif" font-size="10.00">glib.h</text>
</g>
<!-- Node1&#45;&gt;Node44 -->
<g id="edge140" class="edge"><title>Node1&#45;&gt;Node44</title>
<path fill="none" stroke="midnightblue" d="M2440.74,-241.829C2582.7,-238.186 2988.72,-225.602 3140.28,-195.781"/>
<polygon fill="midnightblue" stroke="midnightblue" points="3141.24,-199.157 3150.32,-193.698 3139.82,-192.303 3141.24,-199.157"/>
</g>
<!-- Node45 -->
<g id="node118" class="node"><title>Node45</title>
<polygon fill="white" stroke="#bfbfbf" points="3209,-174.5 3209,-195.5 3295,-195.5 3295,-174.5 3209,-174.5"/>
<text text-anchor="middle" x="3252" y="-182.5" font-family="Helvetica,sans-Serif" font-size="10.00">PIpcChannel.h</text>
</g>
<!-- Node1&#45;&gt;Node45 -->
<g id="edge146" class="edge"><title>Node1&#45;&gt;Node45</title>
<path fill="none" stroke="midnightblue" d="M2440.57,-241.1C2589.64,-235.234 3033.23,-216.632 3198.92,-195.929"/>
<polygon fill="midnightblue" stroke="midnightblue" points="3199.49,-199.385 3208.96,-194.626 3198.59,-192.443 3199.49,-199.385"/>
</g>
<!-- Node46 -->
<g id="node120" class="node"><title>Node46</title>
<polygon fill="white" stroke="#bfbfbf" points="3312.5,-174.5 3312.5,-195.5 3437.5,-195.5 3437.5,-174.5 3312.5,-174.5"/>
<text text-anchor="middle" x="3375" y="-182.5" font-family="Helvetica,sans-Serif" font-size="10.00">PIpcMessageMacros.h</text>
</g>
<!-- Node1&#45;&gt;Node46 -->
<g id="edge148" class="edge"><title>Node1&#45;&gt;Node46</title>
<path fill="none" stroke="midnightblue" d="M2440.62,-242.228C2576.72,-239.729 2967.48,-230.005 3301.95,-196.127"/>
<polygon fill="midnightblue" stroke="midnightblue" points="3302.73,-199.565 3312.33,-195.066 3302.02,-192.601 3302.73,-199.565"/>
</g>
<!-- Node47 -->
<g id="node122" class="node"><title>Node47</title>
<polygon fill="white" stroke="#bfbfbf" points="3454.5,-174.5 3454.5,-195.5 3509.5,-195.5 3509.5,-174.5 3454.5,-174.5"/>
<text text-anchor="middle" x="3482" y="-182.5" font-family="Helvetica,sans-Serif" font-size="10.00">QDebug</text>
</g>
<!-- Node1&#45;&gt;Node47 -->
<g id="edge150" class="edge"><title>Node1&#45;&gt;Node47</title>
<path fill="none" stroke="midnightblue" d="M2440.51,-242.446C2618.94,-240.198 3229.45,-230.252 3444.33,-195.887"/>
<polygon fill="midnightblue" stroke="midnightblue" points="3444.97,-199.329 3454.26,-194.232 3443.82,-192.424 3444.97,-199.329"/>
</g>
<!-- Node48 -->
<g id="node124" class="node"><title>Node48</title>
<polygon fill="white" stroke="#bfbfbf" points="3527,-174.5 3527,-195.5 3625,-195.5 3625,-174.5 3527,-174.5"/>
<text text-anchor="middle" x="3576" y="-182.5" font-family="Helvetica,sans-Serif" font-size="10.00">QGraphicsScene</text>
</g>
<!-- Node1&#45;&gt;Node48 -->
<g id="edge152" class="edge"><title>Node1&#45;&gt;Node48</title>
<path fill="none" stroke="midnightblue" d="M2440.82,-241.889C2627.34,-237.584 3285.07,-221.033 3516.67,-195.977"/>
<polygon fill="midnightblue" stroke="midnightblue" points="3517.16,-199.443 3526.71,-194.853 3516.39,-192.487 3517.16,-199.443"/>
</g>
<!-- Node49 -->
<g id="node127" class="node"><title>Node49</title>
<polygon fill="white" stroke="#bfbfbf" points="3642.5,-174.5 3642.5,-195.5 3753.5,-195.5 3753.5,-174.5 3642.5,-174.5"/>
<text text-anchor="middle" x="3698" y="-182.5" font-family="Helvetica,sans-Serif" font-size="10.00">QGraphicsWebView</text>
</g>
<!-- Node1&#45;&gt;Node49 -->
<g id="edge156" class="edge"><title>Node1&#45;&gt;Node49</title>
<path fill="none" stroke="midnightblue" d="M2440.7,-242.001C2639.25,-237.875 3376.73,-221.234 3632.23,-196.05"/>
<polygon fill="midnightblue" stroke="midnightblue" points="3632.62,-199.529 3642.21,-195.036 3631.91,-192.565 3632.62,-199.529"/>
</g>
<!-- Node50 -->
<g id="node129" class="node"><title>Node50</title>
<polygon fill="white" stroke="#bfbfbf" points="3770.5,-174.5 3770.5,-195.5 3901.5,-195.5 3901.5,-174.5 3770.5,-174.5"/>
<text text-anchor="middle" x="3836" y="-182.5" font-family="Helvetica,sans-Serif" font-size="10.00">SysMgrDeviceKeydefs.h</text>
</g>
<!-- Node1&#45;&gt;Node50 -->
<g id="edge158" class="edge"><title>Node1&#45;&gt;Node50</title>
<path fill="none" stroke="midnightblue" d="M2440.65,-242.053C2651.84,-237.911 3477.2,-220.528 3760.04,-196.074"/>
<polygon fill="midnightblue" stroke="midnightblue" points="3760.63,-199.536 3770.28,-195.164 3760.01,-192.563 3760.63,-199.536"/>
</g>
<!-- Node3&#45;&gt;Node2 -->
<g id="edge6" class="edge"><title>Node3&#45;&gt;Node2</title>
<path fill="none" stroke="midnightblue" d="M1564.73,-124.306C1468.7,-118.128 1244.01,-101.78 1171,-80 1150.43,-73.8634 1148.61,-64.0214 1128,-58 967.288,-11.0364 919.304,-41.4078 753,-22 741.261,-20.63 728.577,-18.9694 716.845,-17.3581"/>
<polygon fill="midnightblue" stroke="midnightblue" points="717.214,-13.8759 706.827,-15.9635 716.249,-20.809 717.214,-13.8759"/>
</g>
<!-- Node4 -->
<g id="node8" class="node"><title>Node4</title>
<polygon fill="white" stroke="#bfbfbf" points="1333.5,-0.5 1333.5,-21.5 1376.5,-21.5 1376.5,-0.5 1333.5,-0.5"/>
<text text-anchor="middle" x="1355" y="-8.5" font-family="Helvetica,sans-Serif" font-size="10.00">sptr.h</text>
</g>
<!-- Node3&#45;&gt;Node4 -->
<g id="edge8" class="edge"><title>Node3&#45;&gt;Node4</title>
<path fill="none" stroke="midnightblue" d="M1626.89,-116.334C1648.01,-102.441 1678.22,-77.6128 1661,-58 1622.02,-13.6089 1460.53,-34.6162 1386.61,-21.682"/>
<polygon fill="midnightblue" stroke="midnightblue" points="1387.29,-18.248 1376.78,-19.6213 1385.85,-25.099 1387.29,-18.248"/>
</g>
<!-- Node5 -->
<g id="node10" class="node"><title>Node5</title>
<a xlink:href="WindowedWebApp_8h.htm" target="_top" xlink:title="WindowedWebApp.h">
<polygon fill="white" stroke="red" points="1180,-58.5 1180,-79.5 1294,-79.5 1294,-58.5 1180,-58.5"/>
<text text-anchor="middle" x="1237" y="-66.5" font-family="Helvetica,sans-Serif" font-size="10.00">WindowedWebApp.h</text>
</a>
</g>
<!-- Node3&#45;&gt;Node5 -->
<g id="edge10" class="edge"><title>Node3&#45;&gt;Node5</title>
<path fill="none" stroke="midnightblue" d="M1564.87,-120.119C1500.31,-110.053 1379.61,-91.2351 1304.05,-79.4533"/>
<polygon fill="midnightblue" stroke="midnightblue" points="1304.57,-75.9928 1294.15,-77.9104 1303.49,-82.9092 1304.57,-75.9928"/>
</g>
<!-- Node3&#45;&gt;Node10 -->
<g id="edge30" class="edge"><title>Node3&#45;&gt;Node10</title>
<path fill="none" stroke="midnightblue" d="M1640.91,-116.404C1672.43,-104.221 1713.33,-82.6955 1694,-58 1677.59,-37.0349 1610.08,-24.1256 1560.17,-17.2653"/>
<polygon fill="midnightblue" stroke="midnightblue" points="1560.51,-13.7788 1550.13,-15.9329 1559.58,-20.718 1560.51,-13.7788"/>
</g>
<!-- Node13 -->
<g id="node29" class="node"><title>Node13</title>
<polygon fill="white" stroke="#bfbfbf" points="1463.5,-58.5 1463.5,-79.5 1546.5,-79.5 1546.5,-58.5 1463.5,-58.5"/>
<text text-anchor="middle" x="1505" y="-66.5" font-family="Helvetica,sans-Serif" font-size="10.00">SysMgrDefs.h</text>
</g>
<!-- Node3&#45;&gt;Node13 -->
<g id="edge32" class="edge"><title>Node3&#45;&gt;Node13</title>
<path fill="none" stroke="midnightblue" d="M1589.92,-116.362C1573.95,-107.45 1550.92,-94.6087 1532.87,-84.5447"/>
<polygon fill="midnightblue" stroke="midnightblue" points="1534.39,-81.3846 1523.95,-79.5707 1530.98,-87.4982 1534.39,-81.3846"/>
</g>
<!-- Node14 -->
<g id="node31" class="node"><title>Node14</title>
<polygon fill="white" stroke="#bfbfbf" points="1564,-58.5 1564,-79.5 1652,-79.5 1652,-58.5 1564,-58.5"/>
<text text-anchor="middle" x="1608" y="-66.5" font-family="Helvetica,sans-Serif" font-size="10.00">QGraphicsItem</text>
</g>
<!-- Node3&#45;&gt;Node14 -->
<g id="edge34" class="edge"><title>Node3&#45;&gt;Node14</title>
<path fill="none" stroke="midnightblue" d="M1608.82,-116.362C1608.69,-108.922 1608.51,-98.7427 1608.36,-89.7276"/>
<polygon fill="midnightblue" stroke="midnightblue" points="1611.85,-89.5088 1608.18,-79.5707 1604.86,-89.6295 1611.85,-89.5088"/>
</g>
<!-- Node3&#45;&gt;Node15 -->
<g id="edge36" class="edge"><title>Node3&#45;&gt;Node15</title>
<path fill="none" stroke="midnightblue" d="M1641.96,-116.497C1671.76,-107 1715.81,-92.9619 1748.3,-82.6087"/>
<polygon fill="midnightblue" stroke="midnightblue" points="1749.51,-85.8942 1757.98,-79.5231 1747.39,-79.2247 1749.51,-85.8942"/>
</g>
<!-- Node5&#45;&gt;Node2 -->
<g id="edge12" class="edge"><title>Node5&#45;&gt;Node2</title>
<path fill="none" stroke="midnightblue" d="M1179.69,-59.7856C1175.07,-59.144 1170.46,-58.539 1166,-58 983.081,-35.8829 936.101,-42.5556 753,-22 741.255,-20.6814 728.569,-19.0384 716.837,-17.4275"/>
<polygon fill="midnightblue" stroke="midnightblue" points="717.207,-13.9454 706.819,-16.0292 716.239,-20.8782 717.207,-13.9454"/>
</g>
<!-- Node5&#45;&gt;Node4 -->
<g id="edge16" class="edge"><title>Node5&#45;&gt;Node4</title>
<path fill="none" stroke="midnightblue" d="M1258.37,-58.4966C1276.8,-49.4378 1303.64,-36.2462 1324.36,-26.0628"/>
<polygon fill="midnightblue" stroke="midnightblue" points="1325.96,-29.1735 1333.39,-21.6212 1322.87,-22.8914 1325.96,-29.1735"/>
</g>
<!-- Node6 -->
<g id="node13" class="node"><title>Node6</title>
<polygon fill="white" stroke="#bfbfbf" points="1161.5,-0.5 1161.5,-21.5 1190.5,-21.5 1190.5,-0.5 1161.5,-0.5"/>
<text text-anchor="middle" x="1176" y="-8.5" font-family="Helvetica,sans-Serif" font-size="10.00">list</text>
</g>
<!-- Node5&#45;&gt;Node6 -->
<g id="edge14" class="edge"><title>Node5&#45;&gt;Node6</title>
<path fill="none" stroke="midnightblue" d="M1225.81,-58.3619C1217.04,-50.0226 1204.65,-38.2418 1194.42,-28.5162"/>
<polygon fill="midnightblue" stroke="midnightblue" points="1196.78,-25.9248 1187.12,-21.5707 1191.95,-30.9978 1196.78,-25.9248"/>
</g>
<!-- Node7 -->
<g id="node16" class="node"><title>Node7</title>
<polygon fill="white" stroke="#bfbfbf" points="762,-0.5 762,-21.5 814,-21.5 814,-0.5 762,-0.5"/>
<text text-anchor="middle" x="788" y="-8.5" font-family="Helvetica,sans-Serif" font-size="10.00">Event.h</text>
</g>
<!-- Node5&#45;&gt;Node7 -->
<g id="edge18" class="edge"><title>Node5&#45;&gt;Node7</title>
<path fill="none" stroke="midnightblue" d="M1179.67,-59.967C1175.05,-59.2846 1170.45,-58.6209 1166,-58 1040.73,-40.5119 891.642,-22.9197 824.255,-15.1411"/>
<polygon fill="midnightblue" stroke="midnightblue" points="824.492,-11.6454 814.157,-13.9785 823.691,-18.5994 824.492,-11.6454"/>
</g>
<!-- Node8 -->
<g id="node18" class="node"><title>Node8</title>
<polygon fill="white" stroke="#bfbfbf" points="214,-0.5 214,-21.5 266,-21.5 266,-0.5 214,-0.5"/>
<text text-anchor="middle" x="240" y="-8.5" font-family="Helvetica,sans-Serif" font-size="10.00">Timer.h</text>
</g>
<!-- Node5&#45;&gt;Node8 -->
<g id="edge20" class="edge"><title>Node5&#45;&gt;Node8</title>
<path fill="none" stroke="midnightblue" d="M1179.85,-65.4553C1144.47,-63.2737 1098.1,-60.4379 1057,-58 755.421,-40.1106 391.159,-19.5128 276.418,-13.0486"/>
<polygon fill="midnightblue" stroke="midnightblue" points="276.285,-9.53559 266.104,-12.4677 275.891,-16.5245 276.285,-9.53559"/>
</g>
<!-- Node9 -->
<g id="node20" class="node"><title>Node9</title>
<polygon fill="white" stroke="#bfbfbf" points="966.5,-0.5 966.5,-21.5 1077.5,-21.5 1077.5,-0.5 966.5,-0.5"/>
<text text-anchor="middle" x="1022" y="-8.5" font-family="Helvetica,sans-Serif" font-size="10.00">WindowProperties.h</text>
</g>
<!-- Node5&#45;&gt;Node9 -->
<g id="edge22" class="edge"><title>Node5&#45;&gt;Node9</title>
<path fill="none" stroke="midnightblue" d="M1198.07,-58.4966C1162.41,-48.8773 1109.48,-34.5981 1070.96,-24.209"/>
<polygon fill="midnightblue" stroke="midnightblue" points="1071.57,-20.7485 1061.01,-21.5231 1069.75,-27.5069 1071.57,-20.7485"/>
</g>
<!-- Node5&#45;&gt;Node10 -->
<g id="edge24" class="edge"><title>Node5&#45;&gt;Node10</title>
<path fill="none" stroke="midnightblue" d="M1285.35,-58.4966C1331.09,-48.5612 1399.71,-33.6546 1447.85,-23.1976"/>
<polygon fill="midnightblue" stroke="midnightblue" points="1448.77,-26.5802 1457.79,-21.0371 1447.28,-19.7398 1448.77,-26.5802"/>
</g>
<!-- Node5&#45;&gt;Node11 -->
<g id="edge26" class="edge"><title>Node5&#45;&gt;Node11</title>
<path fill="none" stroke="midnightblue" d="M1244.7,-58.3619C1250.45,-50.4313 1258.44,-39.3885 1265.27,-29.9606"/>
<polygon fill="midnightblue" stroke="midnightblue" points="1268.32,-31.7229 1271.35,-21.5707 1262.65,-27.6173 1268.32,-31.7229"/>
</g>
<!-- Node12 -->
<g id="node26" class="node"><title>Node12</title>
<polygon fill="white" stroke="#bfbfbf" points="1393.5,-0.5 1393.5,-21.5 1440.5,-21.5 1440.5,-0.5 1393.5,-0.5"/>
<text text-anchor="middle" x="1417" y="-8.5" font-family="Helvetica,sans-Serif" font-size="10.00">QRect</text>
</g>
<!-- Node5&#45;&gt;Node12 -->
<g id="edge28" class="edge"><title>Node5&#45;&gt;Node12</title>
<path fill="none" stroke="midnightblue" d="M1270.87,-58.4929C1298.86,-49.7547 1339.88,-36.8251 1383.59,-22.4245"/>
<polygon fill="midnightblue" stroke="midnightblue" points="1384.86,-25.6925 1393.26,-19.2319 1382.66,-19.0459 1384.86,-25.6925"/>
</g>
<!-- Node17&#45;&gt;Node2 -->
<g id="edge42" class="edge"><title>Node17&#45;&gt;Node2</title>
<path fill="none" stroke="midnightblue" d="M1636.65,-178.156C1531.08,-165.398 1308.97,-134.24 1128,-80 1103.96,-72.7952 1100.28,-64.345 1076,-58 936.249,-21.4781 896.339,-39.8395 753,-22 741.271,-20.5403 728.592,-18.8491 716.859,-17.2371"/>
<polygon fill="midnightblue" stroke="midnightblue" points="717.226,-13.7546 706.841,-15.8487 716.265,-20.6883 717.226,-13.7546"/>
</g>
<!-- Node17&#45;&gt;Node3 -->
<g id="edge46" class="edge"><title>Node17&#45;&gt;Node3</title>
<path fill="none" stroke="midnightblue" d="M1681.68,-174.362C1668.25,-165.614 1649.02,-153.079 1633.71,-143.101"/>
<polygon fill="midnightblue" stroke="midnightblue" points="1635.51,-140.098 1625.22,-137.571 1631.69,-145.963 1635.51,-140.098"/>
</g>
<!-- Node17&#45;&gt;Node12 -->
<g id="edge44" class="edge"><title>Node17&#45;&gt;Node12</title>
<path fill="none" stroke="midnightblue" d="M1728.3,-174.444C1783.05,-153.841 1888.89,-106.065 1845,-58 1787.39,5.08267 1551.8,-37.45 1450.53,-21.6562"/>
<polygon fill="midnightblue" stroke="midnightblue" points="1451.06,-18.1939 1440.59,-19.8159 1449.78,-25.077 1451.06,-18.1939"/>
</g>
<!-- Node20&#45;&gt;Node2 -->
<g id="edge54" class="edge"><title>Node20&#45;&gt;Node2</title>
<path fill="none" stroke="midnightblue" d="M362.635,-59.51C365.463,-58.988 368.268,-58.4808 371,-58 462.696,-41.8654 570.569,-25.7685 629.365,-17.2374"/>
<polygon fill="midnightblue" stroke="midnightblue" points="630.015,-20.6799 639.411,-15.7842 629.013,-13.752 630.015,-20.6799"/>
</g>
<!-- Node22&#45;&gt;Node2 -->
<g id="edge60" class="edge"><title>Node22&#45;&gt;Node2</title>
<path fill="none" stroke="midnightblue" d="M638.931,-116.469C611.659,-104.493 576.347,-83.2881 591,-58 599.652,-43.0682 615.035,-32.4726 630.158,-25.1704"/>
<polygon fill="midnightblue" stroke="midnightblue" points="631.754,-28.2916 639.478,-21.0401 628.918,-21.8919 631.754,-28.2916"/>
</g>
<!-- Node22&#45;&gt;Node6 -->
<g id="edge64" class="edge"><title>Node22&#45;&gt;Node6</title>
<path fill="none" stroke="midnightblue" d="M688.602,-116.487C707.214,-107.276 734.685,-93.3168 758,-80 773.954,-70.8873 775.688,-64.1556 793,-58 793.534,-57.8102 1067.12,-24.3234 1151.51,-13.9966"/>
<polygon fill="midnightblue" stroke="midnightblue" points="1151.98,-17.4656 1161.48,-12.7769 1151.13,-10.5175 1151.98,-17.4656"/>
</g>
<!-- Node22&#45;&gt;Node7 -->
<g id="edge76" class="edge"><title>Node22&#45;&gt;Node7</title>
<path fill="none" stroke="midnightblue" d="M674.022,-116.429C683.77,-102.202 702.426,-76.5416 722,-58 734.08,-46.557 749.088,-35.6541 761.739,-27.2353"/>
<polygon fill="midnightblue" stroke="midnightblue" points="763.978,-29.9541 770.458,-21.572 760.166,-24.0837 763.978,-29.9541"/>
</g>
<!-- Node22&#45;&gt;Node8 -->
<g id="edge90" class="edge"><title>Node22&#45;&gt;Node8</title>
<path fill="none" stroke="midnightblue" d="M613.442,-124.141C508.88,-118.087 285.431,-102.644 259,-80 245.257,-68.2259 241.002,-47.5146 239.887,-31.8467"/>
<polygon fill="midnightblue" stroke="midnightblue" points="243.374,-31.4057 239.539,-21.5293 236.378,-31.6415 243.374,-31.4057"/>
</g>
<!-- Node22&#45;&gt;Node9 -->
<g id="edge94" class="edge"><title>Node22&#45;&gt;Node9</title>
<path fill="none" stroke="midnightblue" d="M679.866,-116.289C701.075,-98.8371 742.745,-65.4569 760,-58 823.265,-30.66 901.737,-19.2237 956.227,-14.4399"/>
<polygon fill="midnightblue" stroke="midnightblue" points="956.775,-17.9067 966.453,-13.5954 956.199,-10.9304 956.775,-17.9067"/>
</g>
<!-- Node22&#45;&gt;Node10 -->
<g id="edge92" class="edge"><title>Node22&#45;&gt;Node10</title>
<path fill="none" stroke="midnightblue" d="M720.659,-123.558C871.615,-113.819 1290.9,-86.3631 1320,-80 1375.6,-67.8406 1436.87,-42.2294 1472.81,-25.8606"/>
<polygon fill="midnightblue" stroke="midnightblue" points="1474.63,-28.8735 1482.25,-21.5077 1471.7,-22.5168 1474.63,-28.8735"/>
</g>
<!-- Node22&#45;&gt;Node11 -->
<g id="edge102" class="edge"><title>Node22&#45;&gt;Node11</title>
<path fill="none" stroke="midnightblue" d="M720.746,-123.508C873.251,-113.54 1298.06,-85.3237 1303,-80 1315.84,-66.1724 1305.65,-45.1083 1294.86,-29.8914"/>
<polygon fill="midnightblue" stroke="midnightblue" points="1297.46,-27.5284 1288.61,-21.7065 1291.89,-31.7778 1297.46,-27.5284"/>
</g>
<!-- Node22&#45;&gt;Node20 -->
<g id="edge96" class="edge"><title>Node22&#45;&gt;Node20</title>
<path fill="none" stroke="midnightblue" d="M613.428,-119.095C556.206,-110.516 462.601,-96.0975 372.726,-80.2661"/>
<polygon fill="midnightblue" stroke="midnightblue" points="373.094,-76.7768 362.637,-78.48 371.873,-83.6696 373.094,-76.7768"/>
</g>
<!-- Node23 -->
<g id="node54" class="node"><title>Node23</title>
<polygon fill="white" stroke="#bfbfbf" points="-0.5,-0.5 -0.5,-21.5 36.5,-21.5 36.5,-0.5 -0.5,-0.5"/>
<text text-anchor="middle" x="18" y="-8.5" font-family="Helvetica,sans-Serif" font-size="10.00">map</text>
</g>
<!-- Node22&#45;&gt;Node23 -->
<g id="edge62" class="edge"><title>Node22&#45;&gt;Node23</title>
<path fill="none" stroke="midnightblue" d="M613.29,-125.837C472.444,-122.374 100.105,-110.419 54,-80 37.3226,-68.9967 27.9002,-47.6824 22.916,-31.6405"/>
<polygon fill="midnightblue" stroke="midnightblue" points="26.1713,-30.2789 20.1398,-21.5684 19.423,-32.139 26.1713,-30.2789"/>
</g>
<!-- Node22&#45;&gt;Node24 -->
<g id="edge66" class="edge"><title>Node22&#45;&gt;Node24</title>
<path fill="none" stroke="midnightblue" d="M720.908,-117.817C763.895,-109.992 825.728,-97.6158 887.569,-80.1508"/>
<polygon fill="midnightblue" stroke="midnightblue" points="888.845,-83.4261 897.492,-77.3039 886.914,-76.6975 888.845,-83.4261"/>
</g>
<!-- Node25 -->
<g id="node59" class="node"><title>Node25</title>
<polygon fill="white" stroke="#bfbfbf" points="995.5,-58.5 995.5,-79.5 1048.5,-79.5 1048.5,-58.5 995.5,-58.5"/>
<text text-anchor="middle" x="1022" y="-66.5" font-family="Helvetica,sans-Serif" font-size="10.00">QString</text>
</g>
<!-- Node22&#45;&gt;Node25 -->
<g id="edge68" class="edge"><title>Node22&#45;&gt;Node25</title>
<path fill="none" stroke="midnightblue" d="M720.531,-118.254C793.557,-106.323 922.498,-85.2567 985.412,-74.9778"/>
<polygon fill="midnightblue" stroke="midnightblue" points="985.98,-78.4315 995.284,-73.3648 984.851,-71.5231 985.98,-78.4315"/>
</g>
<!-- Node26 -->
<g id="node61" class="node"><title>Node26</title>
<polygon fill="white" stroke="#bfbfbf" points="379.5,-58.5 379.5,-79.5 456.5,-79.5 456.5,-58.5 379.5,-58.5"/>
<text text-anchor="middle" x="418" y="-66.5" font-family="Helvetica,sans-Serif" font-size="10.00">QApplication</text>
</g>
<!-- Node22&#45;&gt;Node26 -->
<g id="edge70" class="edge"><title>Node22&#45;&gt;Node26</title>
<path fill="none" stroke="midnightblue" d="M621.668,-116.47C582.885,-107.458 525.294,-94.0649 466.547,-80.3593"/>
<polygon fill="midnightblue" stroke="midnightblue" points="467.261,-76.9321 456.728,-78.0681 465.671,-83.749 467.261,-76.9321"/>
</g>
<!-- Node27 -->
<g id="node63" class="node"><title>Node27</title>
<a xlink:href="SyncTask_8h.htm" target="_top" xlink:title="SyncTask.h">
<polygon fill="white" stroke="red" points="599.5,-58.5 599.5,-79.5 670.5,-79.5 670.5,-58.5 599.5,-58.5"/>
<text text-anchor="middle" x="635" y="-66.5" font-family="Helvetica,sans-Serif" font-size="10.00">SyncTask.h</text>
</a>
</g>
<!-- Node22&#45;&gt;Node27 -->
<g id="edge72" class="edge"><title>Node22&#45;&gt;Node27</title>
<path fill="none" stroke="midnightblue" d="M661.131,-116.362C656.845,-108.595 650.913,-97.8426 645.784,-88.5458"/>
<polygon fill="midnightblue" stroke="midnightblue" points="648.727,-86.6357 640.832,-79.5707 642.598,-90.0172 648.727,-86.6357"/>
</g>
<!-- Node28 -->
<g id="node67" class="node"><title>Node28</title>
<a xlink:href="MemoryWatcher_8h.htm" target="_top" xlink:title="MemoryWatcher.h">
<polygon fill="white" stroke="red" points="71.5,-58.5 71.5,-79.5 174.5,-79.5 174.5,-58.5 71.5,-58.5"/>
<text text-anchor="middle" x="123" y="-66.5" font-family="Helvetica,sans-Serif" font-size="10.00">MemoryWatcher.h</text>
</a>
</g>
<!-- Node22&#45;&gt;Node28 -->
<g id="edge78" class="edge"><title>Node22&#45;&gt;Node28</title>
<path fill="none" stroke="midnightblue" d="M613.37,-121.288C530.355,-112.446 365.725,-94.9067 226,-80 212.676,-78.5786 198.383,-77.0527 184.814,-75.6037"/>
<polygon fill="midnightblue" stroke="midnightblue" points="184.922,-72.0954 174.606,-74.5136 184.178,-79.0558 184.922,-72.0954"/>
</g>
<!-- Node29 -->
<g id="node71" class="node"><title>Node29</title>
<polygon fill="white" stroke="#bfbfbf" points="65,-0.5 65,-21.5 137,-21.5 137,-0.5 65,-0.5"/>
<text text-anchor="middle" x="101" y="-8.5" font-family="Helvetica,sans-Serif" font-size="10.00">SignalSlot.h</text>
</g>
<!-- Node22&#45;&gt;Node29 -->
<g id="edge88" class="edge"><title>Node22&#45;&gt;Node29</title>
<path fill="none" stroke="midnightblue" d="M613.479,-124.791C469.164,-118.577 81.5827,-100.085 63,-80 49.0013,-64.8697 64.6597,-43.6368 79.9053,-28.7324"/>
<polygon fill="midnightblue" stroke="midnightblue" points="82.6898,-30.9267 87.6808,-21.5811 77.9511,-25.7745 82.6898,-30.9267"/>
</g>
<!-- Node30 -->
<g id="node79" class="node"><title>Node30</title>
<polygon fill="white" stroke="#bfbfbf" points="473.5,-58.5 473.5,-79.5 544.5,-79.5 544.5,-58.5 473.5,-58.5"/>
<text text-anchor="middle" x="509" y="-66.5" font-family="Helvetica,sans-Serif" font-size="10.00">HostBase.h</text>
</g>
<!-- Node22&#45;&gt;Node30 -->
<g id="edge98" class="edge"><title>Node22&#45;&gt;Node30</title>
<path fill="none" stroke="midnightblue" d="M638.387,-116.497C612.852,-107.123 575.263,-93.3242 547.171,-83.0122"/>
<polygon fill="midnightblue" stroke="midnightblue" points="548.26,-79.6835 537.666,-79.5231 545.848,-86.2548 548.26,-79.6835"/>
</g>
<!-- Node31 -->
<g id="node81" class="node"><title>Node31</title>
<polygon fill="white" stroke="#bfbfbf" points="802,-58.5 802,-79.5 880,-79.5 880,-58.5 802,-58.5"/>
<text text-anchor="middle" x="841" y="-66.5" font-family="Helvetica,sans-Serif" font-size="10.00">lunaservice.h</text>
</g>
<!-- Node22&#45;&gt;Node31 -->
<g id="edge100" class="edge"><title>Node22&#45;&gt;Node31</title>
<path fill="none" stroke="midnightblue" d="M698.51,-116.497C726.877,-107.041 768.751,-93.0829 799.772,-82.7428"/>
<polygon fill="midnightblue" stroke="midnightblue" points="801.051,-86.0058 809.431,-79.5231 798.837,-79.365 801.051,-86.0058"/>
</g>
<!-- Node27&#45;&gt;Node2 -->
<g id="edge74" class="edge"><title>Node27&#45;&gt;Node2</title>
<path fill="none" stroke="midnightblue" d="M641.97,-58.3619C647.166,-50.4313 654.401,-39.3885 660.578,-29.9606"/>
<polygon fill="midnightblue" stroke="midnightblue" points="663.522,-31.8534 666.074,-21.5707 657.666,-28.0172 663.522,-31.8534"/>
</g>
<!-- Node28&#45;&gt;Node2 -->
<g id="edge80" class="edge"><title>Node28&#45;&gt;Node2</title>
<path fill="none" stroke="midnightblue" d="M174.75,-59.9016C179.225,-59.2182 183.689,-58.573 188,-58 350.209,-36.4427 544.187,-20.6292 629.316,-14.187"/>
<polygon fill="midnightblue" stroke="midnightblue" points="629.681,-17.6697 639.39,-13.4301 629.156,-10.6893 629.681,-17.6697"/>
</g>
<!-- Node28&#45;&gt;Node8 -->
<g id="edge86" class="edge"><title>Node28&#45;&gt;Node8</title>
<path fill="none" stroke="midnightblue" d="M144.188,-58.4966C162.462,-49.4378 189.072,-36.2462 209.615,-26.0628"/>
<polygon fill="midnightblue" stroke="midnightblue" points="211.169,-29.1986 218.574,-21.6212 208.06,-22.9269 211.169,-29.1986"/>
</g>
<!-- Node28&#45;&gt;Node23 -->
<g id="edge82" class="edge"><title>Node28&#45;&gt;Node23</title>
<path fill="none" stroke="midnightblue" d="M103.741,-58.3619C87.4329,-49.3534 63.8544,-36.3291 45.5492,-26.2177"/>
<polygon fill="midnightblue" stroke="midnightblue" points="47.2289,-23.1471 36.7833,-21.3755 43.8443,-29.2744 47.2289,-23.1471"/>
</g>
<!-- Node28&#45;&gt;Node29 -->
<g id="edge84" class="edge"><title>Node28&#45;&gt;Node29</title>
<path fill="none" stroke="midnightblue" d="M118.965,-58.3619C116.081,-50.7584 112.112,-40.294 108.637,-31.1349"/>
<polygon fill="midnightblue" stroke="midnightblue" points="111.829,-29.6793 105.01,-21.5707 105.284,-32.1619 111.829,-29.6793"/>
</g>
<!-- Node32&#45;&gt;Node2 -->
<g id="edge106" class="edge"><title>Node32&#45;&gt;Node2</title>
<path fill="none" stroke="midnightblue" d="M1060.08,-116.379C1065.08,-101.378 1071.24,-74.0307 1057,-58 1011.81,-7.1474 820.477,-30.6337 753,-22 741.276,-20.5 728.598,-18.795 716.866,-17.1827"/>
<polygon fill="midnightblue" stroke="midnightblue" points="717.232,-13.7001 706.847,-15.7972 716.273,-20.6341 717.232,-13.7001"/>
</g>
<!-- Node32&#45;&gt;Node10 -->
<g id="edge110" class="edge"><title>Node32&#45;&gt;Node10</title>
<path fill="none" stroke="midnightblue" d="M1106.19,-123.525C1190.74,-117.148 1357.67,-102.167 1412,-80 1440.91,-68.2035 1468.84,-45.0655 1486.19,-28.8478"/>
<polygon fill="midnightblue" stroke="midnightblue" points="1489.03,-30.9737 1493.82,-21.5223 1484.18,-25.9253 1489.03,-30.9737"/>
</g>
<!-- Node32&#45;&gt;Node25 -->
<g id="edge108" class="edge"><title>Node32&#45;&gt;Node25</title>
<path fill="none" stroke="midnightblue" d="M1049.76,-116.362C1045.16,-108.513 1038.77,-97.6159 1033.29,-88.2527"/>
<polygon fill="midnightblue" stroke="midnightblue" points="1036.27,-86.4276 1028.2,-79.5707 1030.23,-89.9677 1036.27,-86.4276"/>
</g>
<!-- Node36&#45;&gt;Node2 -->
<g id="edge122" class="edge"><title>Node36&#45;&gt;Node2</title>
<path fill="none" stroke="midnightblue" d="M918.782,-116.43C937.788,-102.427 965.252,-77.253 949,-58 941.542,-49.1646 792.66,-27.4937 716.732,-16.9523"/>
<polygon fill="midnightblue" stroke="midnightblue" points="716.91,-13.4436 706.525,-15.5412 715.951,-20.3777 716.91,-13.4436"/>
</g>
<!-- Node36&#45;&gt;Node31 -->
<g id="edge124" class="edge"><title>Node36&#45;&gt;Node31</title>
<path fill="none" stroke="midnightblue" d="M891.628,-116.362C882.714,-108.023 870.121,-96.2418 859.724,-86.5162"/>
<polygon fill="midnightblue" stroke="midnightblue" points="861.993,-83.8463 852.3,-79.5707 857.211,-88.9582 861.993,-83.8463"/>
</g>
</g>
</svg>
