<?xml version="1.0" encoding="UTF-8" standalone="no"?>
<!DOCTYPE svg PUBLIC "-//W3C//DTD SVG 1.1//EN"
 "http://www.w3.org/Graphics/SVG/1.1/DTD/svg11.dtd">
<!-- Generated by graphviz version 2.26.3 (20100126.1600)
 -->
<!-- Title: CardWebApp.h Pages: 1 -->
<svg width="1042pt" height="320pt"
 viewBox="0.00 0.00 1042.00 320.00" xmlns="http://www.w3.org/2000/svg" xmlns:xlink="http://www.w3.org/1999/xlink">
<g id="graph1" class="graph" transform="scale(1 1) rotate(0) translate(4 316)">
<title>CardWebApp.h</title>
<polygon fill="white" stroke="white" points="-4,5 -4,-316 1039,-316 1039,5 -4,5"/>
<!-- Node1 -->
<g id="node1" class="node"><title>Node1</title>
<polygon fill="#bfbfbf" stroke="black" points="443,-290.5 443,-311.5 531,-311.5 531,-290.5 443,-290.5"/>
<text text-anchor="middle" x="487" y="-298.5" font-family="Helvetica,sans-Serif" font-size="10.00">CardWebApp.h</text>
</g>
<!-- Node2 -->
<g id="node3" class="node"><title>Node2</title>
<polygon fill="white" stroke="#bfbfbf" points="49.5,-0.5 49.5,-21.5 116.5,-21.5 116.5,-0.5 49.5,-0.5"/>
<text text-anchor="middle" x="83" y="-8.5" font-family="Helvetica,sans-Serif" font-size="10.00">Common.h</text>
</g>
<!-- Node1&#45;&gt;Node2 -->
<g id="edge2" class="edge"><title>Node1&#45;&gt;Node2</title>
<path fill="none" stroke="midnightblue" d="M442.923,-299.859C323.044,-295.571 0,-275.608 0,-185 0,-185 0,-185 0,-127 0,-85.3959 35.7484,-48.4381 60.3233,-27.947"/>
<polygon fill="midnightblue" stroke="midnightblue" points="62.5602,-30.6395 68.1613,-21.6462 58.1744,-25.1838 62.5602,-30.6395"/>
</g>
<!-- Node3 -->
<g id="node5" class="node"><title>Node3</title>
<polygon fill="white" stroke="#bfbfbf" points="27.5,-174.5 27.5,-195.5 70.5,-195.5 70.5,-174.5 27.5,-174.5"/>
<text text-anchor="middle" x="49" y="-182.5" font-family="Helvetica,sans-Serif" font-size="10.00">sptr.h</text>
</g>
<!-- Node1&#45;&gt;Node3 -->
<g id="edge4" class="edge"><title>Node1&#45;&gt;Node3</title>
<path fill="none" stroke="midnightblue" d="M443.57,-290.436C369.5,-272.25 214.123,-233.374 84,-196 82.9287,-195.692 81.8402,-195.375 80.7421,-195.052"/>
<polygon fill="midnightblue" stroke="midnightblue" points="81.3793,-191.587 70.7939,-192.033 79.3469,-198.286 81.3793,-191.587"/>
</g>
<!-- Node4 -->
<g id="node7" class="node"><title>Node4</title>
<a xlink:href="WindowedWebApp_8h.htm" target="_top" xlink:title="WindowedWebApp.h">
<polygon fill="white" stroke="black" points="345,-232.5 345,-253.5 459,-253.5 459,-232.5 345,-232.5"/>
<text text-anchor="middle" x="402" y="-240.5" font-family="Helvetica,sans-Serif" font-size="10.00">WindowedWebApp.h</text>
</a>
</g>
<!-- Node1&#45;&gt;Node4 -->
<g id="edge6" class="edge"><title>Node1&#45;&gt;Node4</title>
<path fill="none" stroke="midnightblue" d="M471.41,-290.362C458.709,-281.696 440.562,-269.313 426.008,-259.382"/>
<polygon fill="midnightblue" stroke="midnightblue" points="427.724,-256.316 417.491,-253.571 423.779,-262.098 427.724,-256.316"/>
</g>
<!-- Node21 -->
<g id="node45" class="node"><title>Node21</title>
<polygon fill="white" stroke="#bfbfbf" points="942,-174.5 942,-195.5 1034,-195.5 1034,-174.5 942,-174.5"/>
<text text-anchor="middle" x="988" y="-182.5" font-family="Helvetica,sans-Serif" font-size="10.00">WindowTypes.h</text>
</g>
<!-- Node1&#45;&gt;Node21 -->
<g id="edge56" class="edge"><title>Node1&#45;&gt;Node21</title>
<path fill="none" stroke="midnightblue" d="M486.482,-290.403C486.365,-274.912 488.7,-246.369 506,-232 576.965,-173.059 822.682,-207.068 931.735,-195.855"/>
<polygon fill="midnightblue" stroke="midnightblue" points="932.348,-199.306 941.852,-194.624 931.502,-192.358 932.348,-199.306"/>
</g>
<!-- Node25 -->
<g id="node54" class="node"><title>Node25</title>
<polygon fill="white" stroke="#bfbfbf" points="514.5,-232.5 514.5,-253.5 597.5,-253.5 597.5,-232.5 514.5,-232.5"/>
<text text-anchor="middle" x="556" y="-240.5" font-family="Helvetica,sans-Serif" font-size="10.00">SysMgrDefs.h</text>
</g>
<!-- Node1&#45;&gt;Node25 -->
<g id="edge58" class="edge"><title>Node1&#45;&gt;Node25</title>
<path fill="none" stroke="midnightblue" d="M499.656,-290.362C509.674,-281.941 523.867,-270.011 535.501,-260.231"/>
<polygon fill="midnightblue" stroke="midnightblue" points="538.022,-262.684 543.425,-253.571 533.518,-257.326 538.022,-262.684"/>
</g>
<!-- Node26 -->
<g id="node56" class="node"><title>Node26</title>
<polygon fill="white" stroke="#bfbfbf" points="615,-232.5 615,-253.5 703,-253.5 703,-232.5 615,-232.5"/>
<text text-anchor="middle" x="659" y="-240.5" font-family="Helvetica,sans-Serif" font-size="10.00">QGraphicsItem</text>
</g>
<!-- Node1&#45;&gt;Node26 -->
<g id="edge60" class="edge"><title>Node1&#45;&gt;Node26</title>
<path fill="none" stroke="midnightblue" d="M518.148,-290.497C546.189,-281.041 587.582,-267.083 618.245,-256.743"/>
<polygon fill="midnightblue" stroke="midnightblue" points="619.436,-260.035 627.794,-253.523 617.2,-253.402 619.436,-260.035"/>
</g>
<!-- Node27 -->
<g id="node58" class="node"><title>Node27</title>
<polygon fill="white" stroke="#bfbfbf" points="721,-232.5 721,-253.5 811,-253.5 811,-232.5 721,-232.5"/>
<text text-anchor="middle" x="766" y="-240.5" font-family="Helvetica,sans-Serif" font-size="10.00">QGraphicsView</text>
</g>
<!-- Node1&#45;&gt;Node27 -->
<g id="edge62" class="edge"><title>Node1&#45;&gt;Node27</title>
<path fill="none" stroke="midnightblue" d="M531.208,-291.81C579.854,-281.697 658.114,-265.428 710.764,-254.483"/>
<polygon fill="midnightblue" stroke="midnightblue" points="711.532,-257.898 720.61,-252.436 710.107,-251.045 711.532,-257.898"/>
</g>
<!-- Node4&#45;&gt;Node2 -->
<g id="edge8" class="edge"><title>Node4&#45;&gt;Node2</title>
<path fill="none" stroke="midnightblue" d="M344.834,-237.105C266.343,-228.483 133.035,-211.744 117,-196 72.2507,-152.063 75.5068,-69.9371 79.9268,-31.6442"/>
<polygon fill="midnightblue" stroke="midnightblue" points="83.4058,-32.0323 81.2248,-21.6644 76.4642,-31.1295 83.4058,-32.0323"/>
</g>
<!-- Node4&#45;&gt;Node3 -->
<g id="edge40" class="edge"><title>Node4&#45;&gt;Node3</title>
<path fill="none" stroke="midnightblue" d="M344.915,-237.31C280.875,-230.294 174.157,-216.694 84,-196 82.9136,-195.751 81.8122,-195.484 80.7029,-195.204"/>
<polygon fill="midnightblue" stroke="midnightblue" points="81.2718,-191.728 70.6984,-192.403 79.3846,-198.469 81.2718,-191.728"/>
</g>
<!-- Node5 -->
<g id="node10" class="node"><title>Node5</title>
<polygon fill="white" stroke="#bfbfbf" points="125.5,-174.5 125.5,-195.5 154.5,-195.5 154.5,-174.5 125.5,-174.5"/>
<text text-anchor="middle" x="140" y="-182.5" font-family="Helvetica,sans-Serif" font-size="10.00">list</text>
</g>
<!-- Node4&#45;&gt;Node5 -->
<g id="edge10" class="edge"><title>Node4&#45;&gt;Node5</title>
<path fill="none" stroke="midnightblue" d="M344.951,-235.907C298.172,-229.168 230.334,-217.277 164.556,-195.987"/>
<polygon fill="midnightblue" stroke="midnightblue" points="165.462,-192.6 154.869,-192.777 163.26,-199.245 165.462,-192.6"/>
</g>
<!-- Node6 -->
<g id="node12" class="node"><title>Node6</title>
<polygon fill="white" stroke="#bfbfbf" points="171.5,-174.5 171.5,-195.5 252.5,-195.5 252.5,-174.5 171.5,-174.5"/>
<text text-anchor="middle" x="212" y="-182.5" font-family="Helvetica,sans-Serif" font-size="10.00">AsyncCaller.h</text>
</g>
<!-- Node4&#45;&gt;Node6 -->
<g id="edge12" class="edge"><title>Node4&#45;&gt;Node6</title>
<path fill="none" stroke="midnightblue" d="M367.592,-232.497C336.349,-222.959 290.099,-208.841 256.142,-198.475"/>
<polygon fill="midnightblue" stroke="midnightblue" points="257.058,-195.095 246.472,-195.523 255.015,-201.79 257.058,-195.095"/>
</g>
<!-- Node7 -->
<g id="node14" class="node"><title>Node7</title>
<a xlink:href="WebAppBase_8h.htm" target="_top" xlink:title="WebAppBase.h">
<polygon fill="white" stroke="black" points="269.5,-174.5 269.5,-195.5 358.5,-195.5 358.5,-174.5 269.5,-174.5"/>
<text text-anchor="middle" x="314" y="-182.5" font-family="Helvetica,sans-Serif" font-size="10.00">WebAppBase.h</text>
</a>
</g>
<!-- Node4&#45;&gt;Node7 -->
<g id="edge14" class="edge"><title>Node4&#45;&gt;Node7</title>
<path fill="none" stroke="midnightblue" d="M385.859,-232.362C372.586,-223.614 353.568,-211.079 338.43,-201.101"/>
<polygon fill="midnightblue" stroke="midnightblue" points="340.314,-198.151 330.038,-195.571 336.462,-203.996 340.314,-198.151"/>
</g>
<!-- Node18 -->
<g id="node39" class="node"><title>Node18</title>
<polygon fill="white" stroke="#bfbfbf" points="376,-174.5 376,-195.5 428,-195.5 428,-174.5 376,-174.5"/>
<text text-anchor="middle" x="402" y="-182.5" font-family="Helvetica,sans-Serif" font-size="10.00">Event.h</text>
</g>
<!-- Node4&#45;&gt;Node18 -->
<g id="edge42" class="edge"><title>Node4&#45;&gt;Node18</title>
<path fill="none" stroke="midnightblue" d="M402,-232.362C402,-224.922 402,-214.743 402,-205.728"/>
<polygon fill="midnightblue" stroke="midnightblue" points="405.5,-205.571 402,-195.571 398.5,-205.571 405.5,-205.571"/>
</g>
<!-- Node19 -->
<g id="node41" class="node"><title>Node19</title>
<polygon fill="white" stroke="#bfbfbf" points="446,-174.5 446,-195.5 498,-195.5 498,-174.5 446,-174.5"/>
<text text-anchor="middle" x="472" y="-182.5" font-family="Helvetica,sans-Serif" font-size="10.00">Timer.h</text>
</g>
<!-- Node4&#45;&gt;Node19 -->
<g id="edge44" class="edge"><title>Node4&#45;&gt;Node19</title>
<path fill="none" stroke="midnightblue" d="M414.839,-232.362C425.002,-223.941 439.401,-212.011 451.204,-202.231"/>
<polygon fill="midnightblue" stroke="midnightblue" points="453.775,-204.646 459.242,-195.571 449.309,-199.256 453.775,-204.646"/>
</g>
<!-- Node20 -->
<g id="node43" class="node"><title>Node20</title>
<polygon fill="white" stroke="#bfbfbf" points="515.5,-174.5 515.5,-195.5 626.5,-195.5 626.5,-174.5 515.5,-174.5"/>
<text text-anchor="middle" x="571" y="-182.5" font-family="Helvetica,sans-Serif" font-size="10.00">WindowProperties.h</text>
</g>
<!-- Node4&#45;&gt;Node20 -->
<g id="edge46" class="edge"><title>Node4&#45;&gt;Node20</title>
<path fill="none" stroke="midnightblue" d="M432.605,-232.497C460.037,-223.082 500.476,-209.204 530.564,-198.877"/>
<polygon fill="midnightblue" stroke="midnightblue" points="532.016,-202.08 540.338,-195.523 529.743,-195.459 532.016,-202.08"/>
</g>
<!-- Node4&#45;&gt;Node21 -->
<g id="edge48" class="edge"><title>Node4&#45;&gt;Node21</title>
<path fill="none" stroke="midnightblue" d="M459.301,-233.742C463.93,-233.11 468.54,-232.519 473,-232 673.412,-208.667 728.12,-223.658 931.73,-196.036"/>
<polygon fill="midnightblue" stroke="midnightblue" points="932.424,-199.474 941.854,-194.644 931.471,-192.539 932.424,-199.474"/>
</g>
<!-- Node22 -->
<g id="node47" class="node"><title>Node22</title>
<polygon fill="white" stroke="#bfbfbf" points="644,-174.5 644,-195.5 768,-195.5 768,-174.5 644,-174.5"/>
<text text-anchor="middle" x="706" y="-182.5" font-family="Helvetica,sans-Serif" font-size="10.00">PIpcChannelListener.h</text>
</g>
<!-- Node4&#45;&gt;Node22 -->
<g id="edge50" class="edge"><title>Node4&#45;&gt;Node22</title>
<path fill="none" stroke="midnightblue" d="M457.052,-232.497C508.758,-222.632 586.151,-207.866 640.897,-197.421"/>
<polygon fill="midnightblue" stroke="midnightblue" points="641.678,-200.835 650.845,-195.523 640.366,-193.959 641.678,-200.835"/>
</g>
<!-- Node23 -->
<g id="node49" class="node"><title>Node23</title>
<polygon fill="white" stroke="#bfbfbf" points="786,-174.5 786,-195.5 860,-195.5 860,-174.5 786,-174.5"/>
<text text-anchor="middle" x="823" y="-182.5" font-family="Helvetica,sans-Serif" font-size="10.00">PIpcBuffer.h</text>
</g>
<!-- Node4&#45;&gt;Node23 -->
<g id="edge52" class="edge"><title>Node4&#45;&gt;Node23</title>
<path fill="none" stroke="midnightblue" d="M459.325,-233.938C463.949,-233.262 468.551,-232.608 473,-232 604.643,-214.013 641.347,-219.581 776.05,-196.008"/>
<polygon fill="midnightblue" stroke="midnightblue" points="776.685,-199.45 785.921,-194.26 775.464,-192.558 776.685,-199.45"/>
</g>
<!-- Node24 -->
<g id="node51" class="node"><title>Node24</title>
<polygon fill="white" stroke="#bfbfbf" points="877.5,-174.5 877.5,-195.5 924.5,-195.5 924.5,-174.5 877.5,-174.5"/>
<text text-anchor="middle" x="901" y="-182.5" font-family="Helvetica,sans-Serif" font-size="10.00">QRect</text>
</g>
<!-- Node4&#45;&gt;Node24 -->
<g id="edge54" class="edge"><title>Node4&#45;&gt;Node24</title>
<path fill="none" stroke="midnightblue" d="M459.308,-233.804C463.936,-233.158 468.543,-232.547 473,-232 645.154,-210.86 694.372,-232.171 867.462,-195.934"/>
<polygon fill="midnightblue" stroke="midnightblue" points="868.361,-199.321 877.414,-193.816 866.904,-192.474 868.361,-199.321"/>
</g>
<!-- Node8 -->
<g id="node16" class="node"><title>Node8</title>
<a xlink:href="SysMgrWebBridge_8h.htm" target="_top" xlink:title="SysMgrWebBridge.h">
<polygon fill="white" stroke="black" points="257.5,-116.5 257.5,-137.5 370.5,-137.5 370.5,-116.5 257.5,-116.5"/>
<text text-anchor="middle" x="314" y="-124.5" font-family="Helvetica,sans-Serif" font-size="10.00">SysMgrWebBridge.h</text>
</a>
</g>
<!-- Node7&#45;&gt;Node8 -->
<g id="edge16" class="edge"><title>Node7&#45;&gt;Node8</title>
<path fill="none" stroke="midnightblue" d="M314,-174.362C314,-166.922 314,-156.743 314,-147.728"/>
<polygon fill="midnightblue" stroke="midnightblue" points="317.5,-147.571 314,-137.571 310.5,-147.571 317.5,-147.571"/>
</g>
<!-- Node13 -->
<g id="node27" class="node"><title>Node13</title>
<polygon fill="white" stroke="#bfbfbf" points="554,-58.5 554,-79.5 652,-79.5 652,-58.5 554,-58.5"/>
<text text-anchor="middle" x="603" y="-66.5" font-family="Helvetica,sans-Serif" font-size="10.00">palmimedefines.h</text>
</g>
<!-- Node7&#45;&gt;Node13 -->
<g id="edge38" class="edge"><title>Node7&#45;&gt;Node13</title>
<path fill="none" stroke="midnightblue" d="M328.408,-174.448C352.13,-157.23 398.615,-124.185 417,-116 439.607,-105.935 498.638,-91.7188 544.191,-81.5619"/>
<polygon fill="midnightblue" stroke="midnightblue" points="544.974,-84.9735 553.981,-79.3949 543.461,-78.1389 544.974,-84.9735"/>
</g>
<!-- Node16 -->
<g id="node33" class="node"><title>Node16</title>
<polygon fill="white" stroke="#bfbfbf" points="425.5,-116.5 425.5,-137.5 480.5,-137.5 480.5,-116.5 425.5,-116.5"/>
<text text-anchor="middle" x="453" y="-124.5" font-family="Helvetica,sans-Serif" font-size="10.00">QObject</text>
</g>
<!-- Node7&#45;&gt;Node16 -->
<g id="edge34" class="edge"><title>Node7&#45;&gt;Node16</title>
<path fill="none" stroke="midnightblue" d="M339.172,-174.497C361.273,-165.275 393.639,-151.769 418.213,-141.515"/>
<polygon fill="midnightblue" stroke="midnightblue" points="419.665,-144.702 427.546,-137.621 416.969,-138.242 419.665,-144.702"/>
</g>
<!-- Node17 -->
<g id="node35" class="node"><title>Node17</title>
<polygon fill="white" stroke="#bfbfbf" points="498,-116.5 498,-137.5 576,-137.5 576,-116.5 498,-116.5"/>
<text text-anchor="middle" x="537" y="-124.5" font-family="Helvetica,sans-Serif" font-size="10.00">lunaservice.h</text>
</g>
<!-- Node7&#45;&gt;Node17 -->
<g id="edge36" class="edge"><title>Node7&#45;&gt;Node17</title>
<path fill="none" stroke="midnightblue" d="M354.384,-174.497C391.873,-164.746 447.77,-150.208 487.84,-139.786"/>
<polygon fill="midnightblue" stroke="midnightblue" points="488.868,-143.135 497.665,-137.231 487.106,-136.36 488.868,-143.135"/>
</g>
<!-- Node9 -->
<g id="node18" class="node"><title>Node9</title>
<a xlink:href="ProcessBase_8h.htm" target="_top" xlink:title="ProcessBase.h">
<polygon fill="white" stroke="black" points="113.5,-58.5 113.5,-79.5 200.5,-79.5 200.5,-58.5 113.5,-58.5"/>
<text text-anchor="middle" x="157" y="-66.5" font-family="Helvetica,sans-Serif" font-size="10.00">ProcessBase.h</text>
</a>
</g>
<!-- Node8&#45;&gt;Node9 -->
<g id="edge18" class="edge"><title>Node8&#45;&gt;Node9</title>
<path fill="none" stroke="midnightblue" d="M285.568,-116.497C260.195,-107.123 222.843,-93.3242 194.93,-83.0122"/>
<polygon fill="midnightblue" stroke="midnightblue" points="196.078,-79.7054 185.485,-79.5231 193.652,-86.2716 196.078,-79.7054"/>
</g>
<!-- Node11 -->
<g id="node23" class="node"><title>Node11</title>
<polygon fill="white" stroke="#bfbfbf" points="217.5,-58.5 217.5,-79.5 278.5,-79.5 278.5,-58.5 217.5,-58.5"/>
<text text-anchor="middle" x="248" y="-66.5" font-family="Helvetica,sans-Serif" font-size="10.00">QtWebKit</text>
</g>
<!-- Node8&#45;&gt;Node11 -->
<g id="edge24" class="edge"><title>Node8&#45;&gt;Node11</title>
<path fill="none" stroke="midnightblue" d="M301.895,-116.362C292.312,-107.941 278.736,-96.0105 267.607,-86.2308"/>
<polygon fill="midnightblue" stroke="midnightblue" points="269.851,-83.5427 260.029,-79.5707 265.23,-88.8009 269.851,-83.5427"/>
</g>
<!-- Node12 -->
<g id="node25" class="node"><title>Node12</title>
<polygon fill="white" stroke="#bfbfbf" points="295.5,-58.5 295.5,-79.5 354.5,-79.5 354.5,-58.5 295.5,-58.5"/>
<text text-anchor="middle" x="325" y="-66.5" font-family="Helvetica,sans-Serif" font-size="10.00">QPointer</text>
</g>
<!-- Node8&#45;&gt;Node12 -->
<g id="edge26" class="edge"><title>Node8&#45;&gt;Node12</title>
<path fill="none" stroke="midnightblue" d="M316.018,-116.362C317.444,-108.84 319.402,-98.5187 321.125,-89.4308"/>
<polygon fill="midnightblue" stroke="midnightblue" points="324.571,-90.0477 322.995,-79.5707 317.693,-88.7433 324.571,-90.0477"/>
</g>
<!-- Node8&#45;&gt;Node13 -->
<g id="edge28" class="edge"><title>Node8&#45;&gt;Node13</title>
<path fill="none" stroke="midnightblue" d="M366.336,-116.497C416.354,-106.458 491.657,-91.3456 543.832,-80.8745"/>
<polygon fill="midnightblue" stroke="midnightblue" points="544.829,-84.2444 553.944,-78.8451 543.451,-77.3813 544.829,-84.2444"/>
</g>
<!-- Node14 -->
<g id="node29" class="node"><title>Node14</title>
<polygon fill="white" stroke="#bfbfbf" points="371.5,-58.5 371.5,-79.5 442.5,-79.5 442.5,-58.5 371.5,-58.5"/>
<text text-anchor="middle" x="407" y="-66.5" font-family="Helvetica,sans-Serif" font-size="10.00">QWebPage</text>
</g>
<!-- Node8&#45;&gt;Node14 -->
<g id="edge30" class="edge"><title>Node8&#45;&gt;Node14</title>
<path fill="none" stroke="midnightblue" d="M331.058,-116.362C345.085,-107.614 365.184,-95.0786 381.182,-85.1015"/>
<polygon fill="midnightblue" stroke="midnightblue" points="383.418,-87.8323 390.051,-79.5707 379.713,-81.8927 383.418,-87.8323"/>
</g>
<!-- Node15 -->
<g id="node31" class="node"><title>Node15</title>
<polygon fill="white" stroke="#bfbfbf" points="460,-58.5 460,-79.5 536,-79.5 536,-58.5 460,-58.5"/>
<text text-anchor="middle" x="498" y="-66.5" font-family="Helvetica,sans-Serif" font-size="10.00">QWebFrame</text>
</g>
<!-- Node8&#45;&gt;Node15 -->
<g id="edge32" class="edge"><title>Node8&#45;&gt;Node15</title>
<path fill="none" stroke="midnightblue" d="M347.321,-116.497C377.448,-107 421.983,-92.9619 454.828,-82.6087"/>
<polygon fill="midnightblue" stroke="midnightblue" points="456.131,-85.8676 464.616,-79.5231 454.027,-79.1914 456.131,-85.8676"/>
</g>
<!-- Node9&#45;&gt;Node2 -->
<g id="edge20" class="edge"><title>Node9&#45;&gt;Node2</title>
<path fill="none" stroke="midnightblue" d="M143.427,-58.3619C132.579,-49.859 117.166,-37.7785 104.621,-27.9466"/>
<polygon fill="midnightblue" stroke="midnightblue" points="106.516,-24.9848 96.4867,-21.5707 102.198,-30.4942 106.516,-24.9848"/>
</g>
<!-- Node10 -->
<g id="node21" class="node"><title>Node10</title>
<polygon fill="white" stroke="#bfbfbf" points="133.5,-0.5 133.5,-21.5 186.5,-21.5 186.5,-0.5 133.5,-0.5"/>
<text text-anchor="middle" x="160" y="-8.5" font-family="Helvetica,sans-Serif" font-size="10.00">QString</text>
</g>
<!-- Node9&#45;&gt;Node10 -->
<g id="edge22" class="edge"><title>Node9&#45;&gt;Node10</title>
<path fill="none" stroke="midnightblue" d="M157.55,-58.3619C157.935,-50.9219 158.462,-40.7427 158.928,-31.7276"/>
<polygon fill="midnightblue" stroke="midnightblue" points="162.432,-31.7381 159.453,-21.5707 155.441,-31.3765 162.432,-31.7381"/>
</g>
</g>
</svg>
