<?xml version="1.0" encoding="UTF-8" standalone="no"?>
<!DOCTYPE svg PUBLIC "-//W3C//DTD SVG 1.1//EN"
 "http://www.w3.org/Graphics/SVG/1.1/DTD/svg11.dtd">
<!-- Generated by graphviz version 2.26.3 (20100126.1600)
 -->
<!-- Title: CardWebApp.h Pages: 1 -->
<svg width="1146pt" height="232pt"
 viewBox="0.00 0.00 1146.00 232.00" xmlns="http://www.w3.org/2000/svg" xmlns:xlink="http://www.w3.org/1999/xlink">
<g id="graph1" class="graph" transform="scale(1 1) rotate(0) translate(4 228)">
<title>CardWebApp.h</title>
<polygon fill="white" stroke="white" points="-4,5 -4,-228 1143,-228 1143,5 -4,5"/>
<!-- Node1 -->
<g id="node1" class="node"><title>Node1</title>
<polygon fill="#bfbfbf" stroke="black" points="394,-202.5 394,-223.5 482,-223.5 482,-202.5 394,-202.5"/>
<text text-anchor="middle" x="438" y="-210.5" font-family="Helvetica,sans-Serif" font-size="10.00">CardWebApp.h</text>
</g>
<!-- Node2 -->
<g id="node3" class="node"><title>Node2</title>
<a xlink:href="CardWebApp_8cpp.htm" target="_top" xlink:title="CardWebApp.cpp">
<polygon fill="white" stroke="black" points="269.5,-79.5 269.5,-100.5 368.5,-100.5 368.5,-79.5 269.5,-79.5"/>
<text text-anchor="middle" x="319" y="-87.5" font-family="Helvetica,sans-Serif" font-size="10.00">CardWebApp.cpp</text>
</a>
</g>
<!-- Node1&#45;&gt;Node2 -->
<g id="edge2" class="edge"><title>Node1&#45;&gt;Node2</title>
<path fill="none" stroke="midnightblue" d="M408.829,-197.117C395.432,-188.939 379.914,-178.138 368,-166 348.095,-145.721 331.842,-116.126 324.028,-100.526"/>
<polygon fill="midnightblue" stroke="midnightblue" points="407.303,-200.28 417.695,-202.344 410.858,-194.25 407.303,-200.28"/>
</g>
<!-- Node3 -->
<g id="node5" class="node"><title>Node3</title>
<a xlink:href="DockWebApp_8h.htm" target="_top" xlink:title="DockWebApp.h">
<polygon fill="white" stroke="black" points="157.5,-144.5 157.5,-165.5 246.5,-165.5 246.5,-144.5 157.5,-144.5"/>
<text text-anchor="middle" x="202" y="-152.5" font-family="Helvetica,sans-Serif" font-size="10.00">DockWebApp.h</text>
</a>
</g>
<!-- Node1&#45;&gt;Node3 -->
<g id="edge4" class="edge"><title>Node1&#45;&gt;Node3</title>
<path fill="none" stroke="midnightblue" d="M385.415,-200.077C343.079,-189.672 284.318,-175.231 244.818,-165.523"/>
<polygon fill="midnightblue" stroke="midnightblue" points="384.716,-203.509 395.262,-202.497 386.386,-196.711 384.716,-203.509"/>
</g>
<!-- Node5 -->
<g id="node9" class="node"><title>Node5</title>
<a xlink:href="WebAppFactoryLuna_8cpp.htm" target="_top" xlink:title="WebAppFactoryLuna.cpp">
<polygon fill="white" stroke="black" points="0,-79.5 0,-100.5 134,-100.5 134,-79.5 0,-79.5"/>
<text text-anchor="middle" x="67" y="-87.5" font-family="Helvetica,sans-Serif" font-size="10.00">WebAppFactoryLuna.cpp</text>
</a>
</g>
<!-- Node1&#45;&gt;Node5 -->
<g id="edge10" class="edge"><title>Node1&#45;&gt;Node5</title>
<path fill="none" stroke="midnightblue" d="M383.732,-207.951C311.832,-200.62 189.379,-185.721 149,-166 116.734,-150.241 88.2793,-117.569 74.9778,-100.658"/>
<polygon fill="midnightblue" stroke="midnightblue" points="383.658,-211.461 393.957,-208.977 384.357,-204.496 383.658,-211.461"/>
</g>
<!-- Node6 -->
<g id="node12" class="node"><title>Node6</title>
<a xlink:href="WebAppFactoryMinimal_8cpp.htm" target="_top" xlink:title="WebAppFactoryMinimal.cpp">
<polygon fill="white" stroke="black" points="516.5,-144.5 516.5,-165.5 663.5,-165.5 663.5,-144.5 516.5,-144.5"/>
<text text-anchor="middle" x="590" y="-152.5" font-family="Helvetica,sans-Serif" font-size="10.00">WebAppFactoryMinimal.cpp</text>
</a>
</g>
<!-- Node1&#45;&gt;Node6 -->
<g id="edge12" class="edge"><title>Node1&#45;&gt;Node6</title>
<path fill="none" stroke="midnightblue" d="M475.019,-198.874C501.992,-188.582 537.948,-174.862 562.422,-165.523"/>
<polygon fill="midnightblue" stroke="midnightblue" points="473.621,-195.661 465.526,-202.497 476.117,-202.202 473.621,-195.661"/>
</g>
<!-- Node7 -->
<g id="node14" class="node"><title>Node7</title>
<a xlink:href="PalmSystem_8cpp.htm" target="_top" xlink:title="PalmSystem.cpp">
<polygon fill="white" stroke="black" points="681,-144.5 681,-165.5 775,-165.5 775,-144.5 681,-144.5"/>
<text text-anchor="middle" x="728" y="-152.5" font-family="Helvetica,sans-Serif" font-size="10.00">PalmSystem.cpp</text>
</a>
</g>
<!-- Node1&#45;&gt;Node7 -->
<g id="edge14" class="edge"><title>Node1&#45;&gt;Node7</title>
<path fill="none" stroke="midnightblue" d="M492.158,-202.168C546.375,-191.325 628.966,-174.807 680.645,-164.471"/>
<polygon fill="midnightblue" stroke="midnightblue" points="491.164,-198.798 482.045,-204.191 492.537,-205.662 491.164,-198.798"/>
</g>
<!-- Node8 -->
<g id="node16" class="node"><title>Node8</title>
<a xlink:href="RemoteWindowData_8h.htm" target="_top" xlink:title="RemoteWindowData.h">
<polygon fill="white" stroke="black" points="377,-144.5 377,-165.5 499,-165.5 499,-144.5 377,-144.5"/>
<text text-anchor="middle" x="438" y="-152.5" font-family="Helvetica,sans-Serif" font-size="10.00">RemoteWindowData.h</text>
</a>
</g>
<!-- Node1&#45;&gt;Node8 -->
<g id="edge16" class="edge"><title>Node1&#45;&gt;Node8</title>
<path fill="none" stroke="midnightblue" d="M438,-192.191C438,-183.168 438,-172.994 438,-165.571"/>
<polygon fill="midnightblue" stroke="midnightblue" points="434.5,-192.362 438,-202.362 441.5,-192.362 434.5,-192.362"/>
</g>
<!-- Node16 -->
<g id="node35" class="node"><title>Node16</title>
<a xlink:href="WebAppManager_8cpp.htm" target="_top" xlink:title="WebAppManager.cpp">
<polygon fill="white" stroke="black" points="792.5,-144.5 792.5,-165.5 911.5,-165.5 911.5,-144.5 792.5,-144.5"/>
<text text-anchor="middle" x="852" y="-152.5" font-family="Helvetica,sans-Serif" font-size="10.00">WebAppManager.cpp</text>
</a>
</g>
<!-- Node1&#45;&gt;Node16 -->
<g id="edge38" class="edge"><title>Node1&#45;&gt;Node16</title>
<path fill="none" stroke="midnightblue" d="M492.089,-206.084C560.235,-197.272 680.912,-181.337 784,-166 786.721,-165.595 789.501,-165.174 792.309,-164.744"/>
<polygon fill="midnightblue" stroke="midnightblue" points="491.488,-202.633 482.018,-207.384 492.384,-209.575 491.488,-202.633"/>
</g>
<!-- Node4 -->
<g id="node7" class="node"><title>Node4</title>
<a xlink:href="DockWebApp_8cpp.htm" target="_top" xlink:title="DockWebApp.cpp">
<polygon fill="white" stroke="black" points="152,-79.5 152,-100.5 252,-100.5 252,-79.5 152,-79.5"/>
<text text-anchor="middle" x="202" y="-87.5" font-family="Helvetica,sans-Serif" font-size="10.00">DockWebApp.cpp</text>
</a>
</g>
<!-- Node3&#45;&gt;Node4 -->
<g id="edge6" class="edge"><title>Node3&#45;&gt;Node4</title>
<path fill="none" stroke="midnightblue" d="M202,-134.014C202,-122.831 202,-109.558 202,-100.534"/>
<polygon fill="midnightblue" stroke="midnightblue" points="198.5,-134.267 202,-144.267 205.5,-134.267 198.5,-134.267"/>
</g>
<!-- Node3&#45;&gt;Node5 -->
<g id="edge8" class="edge"><title>Node3&#45;&gt;Node5</title>
<path fill="none" stroke="midnightblue" d="M170.919,-140.035C145.858,-127.969 111.238,-111.3 88.9811,-100.584"/>
<polygon fill="midnightblue" stroke="midnightblue" points="169.481,-143.227 180.009,-144.412 172.518,-136.92 169.481,-143.227"/>
</g>
<!-- Node8&#45;&gt;Node2 -->
<g id="edge18" class="edge"><title>Node8&#45;&gt;Node2</title>
<path fill="none" stroke="midnightblue" d="M409.722,-139.554C387.707,-127.529 357.736,-111.158 338.376,-100.584"/>
<polygon fill="midnightblue" stroke="midnightblue" points="408.162,-142.69 418.616,-144.412 411.517,-136.547 408.162,-142.69"/>
</g>
<!-- Node8&#45;&gt;Node4 -->
<g id="edge20" class="edge"><title>Node8&#45;&gt;Node4</title>
<path fill="none" stroke="midnightblue" d="M386.307,-141.806C350.936,-132.647 303.02,-119.984 261,-108 252.864,-105.68 244.131,-103.077 235.944,-100.588"/>
<polygon fill="midnightblue" stroke="midnightblue" points="385.84,-145.3 396.397,-144.411 387.59,-138.522 385.84,-145.3"/>
</g>
<!-- Node9 -->
<g id="node20" class="node"><title>Node9</title>
<a xlink:href="RemoteWindowData_8cpp.htm" target="_top" xlink:title="RemoteWindowData.cpp">
<polygon fill="white" stroke="black" points="692.5,-7.5 692.5,-28.5 825.5,-28.5 825.5,-7.5 692.5,-7.5"/>
<text text-anchor="middle" x="759" y="-15.5" font-family="Helvetica,sans-Serif" font-size="10.00">RemoteWindowData.cpp</text>
</a>
</g>
<!-- Node8&#45;&gt;Node9 -->
<g id="edge22" class="edge"><title>Node8&#45;&gt;Node9</title>
<path fill="none" stroke="midnightblue" d="M509.169,-143.422C588.073,-130.473 704.888,-110.922 709,-108 736.831,-88.2271 750.966,-47.86 756.349,-28.6359"/>
<polygon fill="midnightblue" stroke="midnightblue" points="508.567,-139.974 499.265,-145.045 509.699,-146.882 508.567,-139.974"/>
</g>
<!-- Node10 -->
<g id="node22" class="node"><title>Node10</title>
<a xlink:href="RemoteWindowDataSoftwareQt_8h.htm" target="_top" xlink:title="RemoteWindowDataSoftwareQt.h">
<polygon fill="white" stroke="black" points="755.5,-79.5 755.5,-100.5 930.5,-100.5 930.5,-79.5 755.5,-79.5"/>
<text text-anchor="middle" x="843" y="-87.5" font-family="Helvetica,sans-Serif" font-size="10.00">RemoteWindowDataSoftwareQt.h</text>
</a>
</g>
<!-- Node8&#45;&gt;Node10 -->
<g id="edge24" class="edge"><title>Node8&#45;&gt;Node10</title>
<path fill="none" stroke="midnightblue" d="M509.101,-143.835C613.633,-127.662 641.34,-124.71 742,-108 756.056,-105.667 771.191,-103.034 785.357,-100.516"/>
<polygon fill="midnightblue" stroke="midnightblue" points="508.427,-140.398 499.082,-145.39 509.5,-147.315 508.427,-140.398"/>
</g>
<!-- Node12 -->
<g id="node27" class="node"><title>Node12</title>
<a xlink:href="RemoteWindowDataOpenGLQt_8h.htm" target="_top" xlink:title="RemoteWindowDataOpenGLQt.h">
<polygon fill="white" stroke="black" points="527.5,-79.5 527.5,-100.5 700.5,-100.5 700.5,-79.5 527.5,-79.5"/>
<text text-anchor="middle" x="614" y="-87.5" font-family="Helvetica,sans-Serif" font-size="10.00">RemoteWindowDataOpenGLQt.h</text>
</a>
</g>
<!-- Node8&#45;&gt;Node12 -->
<g id="edge30" class="edge"><title>Node8&#45;&gt;Node12</title>
<path fill="none" stroke="midnightblue" d="M476.381,-140.825C509.196,-128.706 555.688,-111.536 585.343,-100.584"/>
<polygon fill="midnightblue" stroke="midnightblue" points="474.837,-137.664 466.669,-144.412 477.262,-144.231 474.837,-137.664"/>
</g>
<!-- Node14 -->
<g id="node31" class="node"><title>Node14</title>
<a xlink:href="RemoteWindowDataOpenGLTextureShared_8h.htm" target="_top" xlink:title="RemoteWindowDataOpenGLTexture\lShared.h">
<polygon fill="white" stroke="black" points="948,-73 948,-107 1138,-107 1138,-73 948,-73"/>
<text text-anchor="start" x="956" y="-94" font-family="Helvetica,sans-Serif" font-size="10.00">RemoteWindowDataOpenGLTexture</text>
<text text-anchor="middle" x="1043" y="-81" font-family="Helvetica,sans-Serif" font-size="10.00">Shared.h</text>
</a>
</g>
<!-- Node8&#45;&gt;Node14 -->
<g id="edge34" class="edge"><title>Node8&#45;&gt;Node14</title>
<path fill="none" stroke="midnightblue" d="M509.161,-143.936C700.582,-121.442 751.593,-131.997 939,-108 941.908,-107.628 944.859,-107.231 947.836,-106.816"/>
<polygon fill="midnightblue" stroke="midnightblue" points="508.563,-140.483 499.047,-145.14 509.391,-147.433 508.563,-140.483"/>
</g>
<!-- Node15 -->
<g id="node33" class="node"><title>Node15</title>
<a xlink:href="WindowedWebApp_8cpp.htm" target="_top" xlink:title="WindowedWebApp.cpp">
<polygon fill="white" stroke="black" points="385.5,-79.5 385.5,-100.5 510.5,-100.5 510.5,-79.5 385.5,-79.5"/>
<text text-anchor="middle" x="448" y="-87.5" font-family="Helvetica,sans-Serif" font-size="10.00">WindowedWebApp.cpp</text>
</a>
</g>
<!-- Node8&#45;&gt;Node15 -->
<g id="edge36" class="edge"><title>Node8&#45;&gt;Node15</title>
<path fill="none" stroke="midnightblue" d="M441.175,-134.363C442.907,-123.108 444.977,-109.652 446.379,-100.534"/>
<polygon fill="midnightblue" stroke="midnightblue" points="437.713,-133.851 439.651,-144.267 444.631,-134.915 437.713,-133.851"/>
</g>
<!-- Node10&#45;&gt;Node9 -->
<g id="edge26" class="edge"><title>Node10&#45;&gt;Node9</title>
<path fill="none" stroke="midnightblue" d="M822.849,-72.7275C806.85,-59.0146 784.99,-40.2774 771.445,-28.6674"/>
<polygon fill="midnightblue" stroke="midnightblue" points="820.735,-75.5256 830.606,-79.3762 825.291,-70.2108 820.735,-75.5256"/>
</g>
<!-- Node11 -->
<g id="node25" class="node"><title>Node11</title>
<a xlink:href="RemoteWindowDataSoftwareQt_8cpp.htm" target="_top" xlink:title="RemoteWindowDataSoftware\lQt.cpp">
<polygon fill="white" stroke="black" points="842.5,-1 842.5,-35 997.5,-35 997.5,-1 842.5,-1"/>
<text text-anchor="start" x="850.5" y="-22" font-family="Helvetica,sans-Serif" font-size="10.00">RemoteWindowDataSoftware</text>
<text text-anchor="middle" x="920" y="-9" font-family="Helvetica,sans-Serif" font-size="10.00">Qt.cpp</text>
</a>
</g>
<!-- Node10&#45;&gt;Node11 -->
<g id="edge28" class="edge"><title>Node10&#45;&gt;Node11</title>
<path fill="none" stroke="midnightblue" d="M861.753,-72.4644C873.907,-61.1002 889.66,-46.37 901.719,-35.0944"/>
<polygon fill="midnightblue" stroke="midnightblue" points="859.275,-69.9897 854.362,-79.3762 864.056,-75.1027 859.275,-69.9897"/>
</g>
<!-- Node13 -->
<g id="node29" class="node"><title>Node13</title>
<a xlink:href="RemoteWindowDataOpenGLQt_8cpp.htm" target="_top" xlink:title="RemoteWindowDataOpenGLQt.cpp">
<polygon fill="white" stroke="black" points="490.5,-7.5 490.5,-28.5 675.5,-28.5 675.5,-7.5 490.5,-7.5"/>
<text text-anchor="middle" x="583" y="-15.5" font-family="Helvetica,sans-Serif" font-size="10.00">RemoteWindowDataOpenGLQt.cpp</text>
</a>
</g>
<!-- Node12&#45;&gt;Node13 -->
<g id="edge32" class="edge"><title>Node12&#45;&gt;Node13</title>
<path fill="none" stroke="midnightblue" d="M605.4,-70.0266C599.636,-56.6374 592.271,-39.5318 587.593,-28.6674"/>
<polygon fill="midnightblue" stroke="midnightblue" points="602.257,-71.5754 609.426,-79.3762 608.686,-68.8072 602.257,-71.5754"/>
</g>
</g>
</svg>
