<?xml version="1.0" encoding="UTF-8" standalone="no"?>
<!DOCTYPE svg PUBLIC "-//W3C//DTD SVG 1.1//EN"
 "http://www.w3.org/Graphics/SVG/1.1/DTD/svg11.dtd">
<!-- Generated by graphviz version 2.26.3 (20100126.1600)
 -->
<!-- Title: WebAppBase Pages: 1 -->
<svg width="310pt" height="262pt"
 viewBox="0.00 0.00 310.00 262.00" xmlns="http://www.w3.org/2000/svg" xmlns:xlink="http://www.w3.org/1999/xlink">
<g id="graph1" class="graph" transform="scale(1 1) rotate(0) translate(4 258)">
<title>WebAppBase</title>
<polygon fill="white" stroke="white" points="-4,5 -4,-258 307,-258 307,5 -4,5"/>
<!-- Node1 -->
<g id="node1" class="node"><title>Node1</title>
<polygon fill="#bfbfbf" stroke="black" points="96,-174.5 96,-195.5 176,-195.5 176,-174.5 96,-174.5"/>
<text text-anchor="middle" x="136" y="-182.5" font-family="Helvetica,sans-Serif" font-size="10.00">WebAppBase</text>
</g>
<!-- Node3 -->
<g id="node5" class="node"><title>Node3</title>
<a xlink:href="classWindowedWebApp.htm" target="_top" xlink:title="WindowedWebApp">
<polygon fill="white" stroke="black" points="83,-116.5 83,-137.5 189,-137.5 189,-116.5 83,-116.5"/>
<text text-anchor="middle" x="136" y="-124.5" font-family="Helvetica,sans-Serif" font-size="10.00">WindowedWebApp</text>
</a>
</g>
<!-- Node1&#45;&gt;Node3 -->
<g id="edge4" class="edge"><title>Node1&#45;&gt;Node3</title>
<path fill="none" stroke="midnightblue" d="M136,-164.191C136,-155.168 136,-144.994 136,-137.571"/>
<polygon fill="midnightblue" stroke="midnightblue" points="132.5,-164.362 136,-174.362 139.5,-164.362 132.5,-164.362"/>
</g>
<!-- Node2 -->
<g id="node2" class="node"><title>Node2</title>
<a xlink:href="classQObject.htm" target="_top" xlink:title="QObject">
<polygon fill="white" stroke="black" points="108.5,-232.5 108.5,-253.5 163.5,-253.5 163.5,-232.5 108.5,-232.5"/>
<text text-anchor="middle" x="136" y="-240.5" font-family="Helvetica,sans-Serif" font-size="10.00">QObject</text>
</a>
</g>
<!-- Node2&#45;&gt;Node1 -->
<g id="edge2" class="edge"><title>Node2&#45;&gt;Node1</title>
<path fill="none" stroke="midnightblue" d="M136,-222.191C136,-213.168 136,-202.994 136,-195.571"/>
<polygon fill="midnightblue" stroke="midnightblue" points="132.5,-222.362 136,-232.362 139.5,-222.362 132.5,-222.362"/>
</g>
<!-- Node4 -->
<g id="node7" class="node"><title>Node4</title>
<a xlink:href="classAlertWebApp.htm" target="_top" xlink:title="AlertWebApp">
<polygon fill="white" stroke="black" points="0,-58.5 0,-79.5 78,-79.5 78,-58.5 0,-58.5"/>
<text text-anchor="middle" x="39" y="-66.5" font-family="Helvetica,sans-Serif" font-size="10.00">AlertWebApp</text>
</a>
</g>
<!-- Node3&#45;&gt;Node4 -->
<g id="edge6" class="edge"><title>Node3&#45;&gt;Node4</title>
<path fill="none" stroke="midnightblue" d="M109.41,-111.101C92.6273,-101.066 71.4128,-88.3808 56.6785,-79.5707"/>
<polygon fill="midnightblue" stroke="midnightblue" points="107.83,-114.234 118.209,-116.362 111.422,-108.226 107.83,-114.234"/>
</g>
<!-- Node5 -->
<g id="node9" class="node"><title>Node5</title>
<a xlink:href="classCardWebApp.htm" target="_top" xlink:title="CardWebApp">
<polygon fill="white" stroke="black" points="96,-58.5 96,-79.5 176,-79.5 176,-58.5 96,-58.5"/>
<text text-anchor="middle" x="136" y="-66.5" font-family="Helvetica,sans-Serif" font-size="10.00">CardWebApp</text>
</a>
</g>
<!-- Node3&#45;&gt;Node5 -->
<g id="edge8" class="edge"><title>Node3&#45;&gt;Node5</title>
<path fill="none" stroke="midnightblue" d="M136,-106.191C136,-97.1684 136,-86.9941 136,-79.5707"/>
<polygon fill="midnightblue" stroke="midnightblue" points="132.5,-106.362 136,-116.362 139.5,-106.362 132.5,-106.362"/>
</g>
<!-- Node7 -->
<g id="node13" class="node"><title>Node7</title>
<a xlink:href="classDashboardWebApp.htm" target="_top" xlink:title="DashboardWebApp">
<polygon fill="white" stroke="black" points="194,-58.5 194,-79.5 302,-79.5 302,-58.5 194,-58.5"/>
<text text-anchor="middle" x="248" y="-66.5" font-family="Helvetica,sans-Serif" font-size="10.00">DashboardWebApp</text>
</a>
</g>
<!-- Node3&#45;&gt;Node7 -->
<g id="edge12" class="edge"><title>Node3&#45;&gt;Node7</title>
<path fill="none" stroke="midnightblue" d="M165.363,-111.794C184.904,-101.675 210.086,-88.6338 227.49,-79.6212"/>
<polygon fill="midnightblue" stroke="midnightblue" points="163.553,-108.79 156.282,-116.497 166.772,-115.006 163.553,-108.79"/>
</g>
<!-- Node6 -->
<g id="node11" class="node"><title>Node6</title>
<a xlink:href="classDockWebApp.htm" target="_top" xlink:title="DockWebApp">
<polygon fill="white" stroke="black" points="96,-0.5 96,-21.5 176,-21.5 176,-0.5 96,-0.5"/>
<text text-anchor="middle" x="136" y="-8.5" font-family="Helvetica,sans-Serif" font-size="10.00">DockWebApp</text>
</a>
</g>
<!-- Node5&#45;&gt;Node6 -->
<g id="edge10" class="edge"><title>Node5&#45;&gt;Node6</title>
<path fill="none" stroke="midnightblue" d="M136,-48.1906C136,-39.1684 136,-28.9941 136,-21.5707"/>
<polygon fill="midnightblue" stroke="midnightblue" points="132.5,-48.3619 136,-58.3619 139.5,-48.3619 132.5,-48.3619"/>
</g>
</g>
</svg>
