<?xml version="1.0" encoding="UTF-8" standalone="no"?>
<!DOCTYPE svg PUBLIC "-//W3C//DTD SVG 1.1//EN"
 "http://www.w3.org/Graphics/SVG/1.1/DTD/svg11.dtd">
<!-- Generated by graphviz version 2.26.3 (20100126.1600)
 -->
<!-- Title: CardWebApp Pages: 1 -->
<svg width="267pt" height="262pt"
 viewBox="0.00 0.00 267.00 262.00" xmlns="http://www.w3.org/2000/svg" xmlns:xlink="http://www.w3.org/1999/xlink">
<g id="graph1" class="graph" transform="scale(1 1) rotate(0) translate(4 258)">
<title>CardWebApp</title>
<polygon fill="white" stroke="white" points="-4,5 -4,-258 264,-258 264,5 -4,5"/>
<!-- Node1 -->
<g id="node1" class="node"><title>Node1</title>
<polygon fill="#bfbfbf" stroke="black" points="116,-58.5 116,-79.5 196,-79.5 196,-58.5 116,-58.5"/>
<text text-anchor="middle" x="156" y="-66.5" font-family="Helvetica,sans-Serif" font-size="10.00">CardWebApp</text>
</g>
<!-- Node7 -->
<g id="node13" class="node"><title>Node7</title>
<a xlink:href="classDockWebApp.htm" target="_top" xlink:title="DockWebApp">
<polygon fill="white" stroke="black" points="116,-0.5 116,-21.5 196,-21.5 196,-0.5 116,-0.5"/>
<text text-anchor="middle" x="156" y="-8.5" font-family="Helvetica,sans-Serif" font-size="10.00">DockWebApp</text>
</a>
</g>
<!-- Node1&#45;&gt;Node7 -->
<g id="edge12" class="edge"><title>Node1&#45;&gt;Node7</title>
<path fill="none" stroke="midnightblue" d="M156,-48.1906C156,-39.1684 156,-28.9941 156,-21.5707"/>
<polygon fill="midnightblue" stroke="midnightblue" points="152.5,-48.3619 156,-58.3619 159.5,-48.3619 152.5,-48.3619"/>
</g>
<!-- Node2 -->
<g id="node2" class="node"><title>Node2</title>
<a xlink:href="classWindowedWebApp.htm" target="_top" xlink:title="WindowedWebApp">
<polygon fill="white" stroke="black" points="45,-116.5 45,-137.5 151,-137.5 151,-116.5 45,-116.5"/>
<text text-anchor="middle" x="98" y="-124.5" font-family="Helvetica,sans-Serif" font-size="10.00">WindowedWebApp</text>
</a>
</g>
<!-- Node2&#45;&gt;Node1 -->
<g id="edge2" class="edge"><title>Node2&#45;&gt;Node1</title>
<path fill="none" stroke="midnightblue" d="M115.882,-109.118C125.562,-99.4377 137.19,-87.8098 145.429,-79.5707"/>
<polygon fill="midnightblue" stroke="midnightblue" points="113.234,-106.816 108.638,-116.362 118.184,-111.766 113.234,-106.816"/>
</g>
<!-- Node3 -->
<g id="node4" class="node"><title>Node3</title>
<a xlink:href="classWebAppBase.htm" target="_top" xlink:title="WebAppBase">
<polygon fill="white" stroke="black" points="0,-174.5 0,-195.5 80,-195.5 80,-174.5 0,-174.5"/>
<text text-anchor="middle" x="40" y="-182.5" font-family="Helvetica,sans-Serif" font-size="10.00">WebAppBase</text>
</a>
</g>
<!-- Node3&#45;&gt;Node2 -->
<g id="edge4" class="edge"><title>Node3&#45;&gt;Node2</title>
<path fill="none" stroke="midnightblue" d="M57.882,-167.118C67.5623,-157.438 79.1902,-145.81 87.4293,-137.571"/>
<polygon fill="midnightblue" stroke="midnightblue" points="55.2343,-164.816 50.6381,-174.362 60.1841,-169.766 55.2343,-164.816"/>
</g>
<!-- Node4 -->
<g id="node6" class="node"><title>Node4</title>
<a xlink:href="classQObject.htm" target="_top" xlink:title="QObject">
<polygon fill="white" stroke="black" points="12.5,-232.5 12.5,-253.5 67.5,-253.5 67.5,-232.5 12.5,-232.5"/>
<text text-anchor="middle" x="40" y="-240.5" font-family="Helvetica,sans-Serif" font-size="10.00">QObject</text>
</a>
</g>
<!-- Node4&#45;&gt;Node3 -->
<g id="edge6" class="edge"><title>Node4&#45;&gt;Node3</title>
<path fill="none" stroke="midnightblue" d="M40,-222.191C40,-213.168 40,-202.994 40,-195.571"/>
<polygon fill="midnightblue" stroke="midnightblue" points="36.5001,-222.362 40,-232.362 43.5001,-222.362 36.5001,-222.362"/>
</g>
<!-- Node5 -->
<g id="node8" class="node"><title>Node5</title>
<a xlink:href="classPIpcChannelListener.htm" target="_top" xlink:title="PIpcChannelListener">
<polygon fill="white" stroke="black" points="98,-174.5 98,-195.5 214,-195.5 214,-174.5 98,-174.5"/>
<text text-anchor="middle" x="156" y="-182.5" font-family="Helvetica,sans-Serif" font-size="10.00">PIpcChannelListener</text>
</a>
</g>
<!-- Node5&#45;&gt;Node2 -->
<g id="edge8" class="edge"><title>Node5&#45;&gt;Node2</title>
<path fill="none" stroke="midnightblue" d="M138.118,-167.118C128.438,-157.438 116.81,-145.81 108.571,-137.571"/>
<polygon fill="midnightblue" stroke="midnightblue" points="135.816,-169.766 145.362,-174.362 140.766,-164.816 135.816,-169.766"/>
</g>
<!-- Node6 -->
<g id="node10" class="node"><title>Node6</title>
<a xlink:href="classQGraphicsView.htm" target="_top" xlink:title="QGraphicsView">
<polygon fill="white" stroke="black" points="169,-116.5 169,-137.5 259,-137.5 259,-116.5 169,-116.5"/>
<text text-anchor="middle" x="214" y="-124.5" font-family="Helvetica,sans-Serif" font-size="10.00">QGraphicsView</text>
</a>
</g>
<!-- Node6&#45;&gt;Node1 -->
<g id="edge10" class="edge"><title>Node6&#45;&gt;Node1</title>
<path fill="none" stroke="midnightblue" d="M196.118,-109.118C186.438,-99.4377 174.81,-87.8098 166.571,-79.5707"/>
<polygon fill="midnightblue" stroke="midnightblue" points="193.816,-111.766 203.362,-116.362 198.766,-106.816 193.816,-111.766"/>
</g>
</g>
</svg>
