<?xml version="1.0" encoding="UTF-8" standalone="no"?>
<!DOCTYPE svg PUBLIC "-//W3C//DTD SVG 1.1//EN"
 "http://www.w3.org/Graphics/SVG/1.1/DTD/svg11.dtd">
<!-- Generated by graphviz version 2.26.3 (20100126.1600)
 -->
<!-- Title: PGLES2Context Pages: 1 -->
<svg width="686pt" height="248pt"
 viewBox="0.00 0.00 686.00 248.00" xmlns="http://www.w3.org/2000/svg" xmlns:xlink="http://www.w3.org/1999/xlink">
<g id="graph1" class="graph" transform="scale(1 1) rotate(0) translate(4 244)">
<title>PGLES2Context</title>
<polygon fill="white" stroke="white" points="-4,5 -4,-244 683,-244 683,5 -4,5"/>
<!-- Node1 -->
<g id="node1" class="node"><title>Node1</title>
<polygon fill="#bfbfbf" stroke="black" points="297,-98.5 297,-119.5 391,-119.5 391,-98.5 297,-98.5"/>
<text text-anchor="middle" x="344" y="-106.5" font-family="Helvetica,sans-Serif" font-size="10.00">PGLES2Context</text>
</g>
<!-- Node5 -->
<g id="node8" class="node"><title>Node5</title>
<a xlink:href="classRemoteWindowDataSoftwareOpenGLComposited.htm" target="_top" xlink:title="RemoteWindowDataSoftware\lOpenGLComposited">
<polygon fill="white" stroke="black" points="522.5,-116 522.5,-150 677.5,-150 677.5,-116 522.5,-116"/>
<text text-anchor="start" x="530.5" y="-137" font-family="Helvetica,sans-Serif" font-size="10.00">RemoteWindowDataSoftware</text>
<text text-anchor="middle" x="600" y="-124" font-family="Helvetica,sans-Serif" font-size="10.00">OpenGLComposited</text>
</a>
</g>
<!-- Node1&#45;&gt;Node5 -->
<g id="edge12" class="edge"><title>Node1&#45;&gt;Node5</title>
<path fill="none" stroke="#9a32cd" stroke-dasharray="5,2" d="M401.488,-114.39C437.16,-117.734 483.45,-122.073 522.357,-125.721"/>
<polygon fill="#9a32cd" stroke="#9a32cd" points="401.536,-110.879 391.253,-113.43 400.882,-117.848 401.536,-110.879"/>
<text text-anchor="middle" x="472" y="-127" font-family="Helvetica,sans-Serif" font-size="10.00"> m_glContext</text>
</g>
<!-- Node2 -->
<g id="node2" class="node"><title>Node2</title>
<polygon fill="white" stroke="#bfbfbf" points="0,-218.5 0,-239.5 136,-239.5 136,-218.5 0,-218.5"/>
<text text-anchor="middle" x="68" y="-226.5" font-family="Helvetica,sans-Serif" font-size="10.00">Palm::WebGLES2Context</text>
</g>
<!-- Node2&#45;&gt;Node1 -->
<g id="edge2" class="edge"><title>Node2&#45;&gt;Node1</title>
<path fill="none" stroke="midnightblue" d="M146.206,-238.427C181.108,-238.352 220.474,-231.767 248,-208 271.338,-187.849 245.623,-164.141 266,-141 274.609,-131.223 286.66,-124.377 298.718,-119.605"/>
<polygon fill="midnightblue" stroke="midnightblue" points="146.07,-234.924 136.016,-238.269 145.961,-241.924 146.07,-234.924"/>
</g>
<!-- Node3 -->
<g id="node4" class="node"><title>Node3</title>
<polygon fill="white" stroke="#bfbfbf" points="10,-178.5 10,-199.5 126,-199.5 126,-178.5 10,-178.5"/>
<text text-anchor="middle" x="68" y="-186.5" font-family="Helvetica,sans-Serif" font-size="10.00">WebGLES2Context *</text>
</g>
<!-- Node3&#45;&gt;Node1 -->
<g id="edge4" class="edge"><title>Node3&#45;&gt;Node1</title>
<path fill="none" stroke="#9a32cd" stroke-dasharray="5,2" d="M136.42,-192.873C171.939,-191.892 214.738,-185.8 248,-166 259.765,-158.997 255.252,-149.481 266,-141 277.835,-131.661 292.773,-124.657 306.402,-119.621"/>
<polygon fill="#9a32cd" stroke="#9a32cd" points="136.079,-189.378 126.131,-193.022 136.181,-196.377 136.079,-189.378"/>
<text text-anchor="middle" x="201" y="-195" font-family="Helvetica,sans-Serif" font-size="10.00"> m_parent</text>
</g>
<!-- Node4 -->
<g id="node6" class="node"><title>Node4</title>
<polygon fill="white" stroke="#bfbfbf" points="53.5,-120.5 53.5,-141.5 82.5,-141.5 82.5,-120.5 53.5,-120.5"/>
<text text-anchor="middle" x="68" y="-128.5" font-family="Helvetica,sans-Serif" font-size="10.00">int</text>
</g>
<!-- Node4&#45;&gt;Node1 -->
<g id="edge6" class="edge"><title>Node4&#45;&gt;Node1</title>
<path fill="none" stroke="#9a32cd" stroke-dasharray="5,2" d="M92.821,-129.022C138.78,-125.358 237.814,-117.464 296.872,-112.757"/>
<polygon fill="#9a32cd" stroke="#9a32cd" points="92.5292,-125.534 82.839,-129.817 93.0855,-132.511 92.5292,-125.534"/>
<text text-anchor="middle" x="201" y="-153" font-family="Helvetica,sans-Serif" font-size="10.00"> m_rotationDegrees</text>
<text text-anchor="middle" x="201" y="-140" font-family="Helvetica,sans-Serif" font-size="10.00">m_xOffset</text>
<text text-anchor="middle" x="201" y="-127" font-family="Helvetica,sans-Serif" font-size="10.00">m_yOffset</text>
</g>
<!-- Node5&#45;&gt;Node1 -->
<g id="edge8" class="edge"><title>Node5&#45;&gt;Node1</title>
<path fill="none" stroke="#9a32cd" stroke-dasharray="5,2" d="M552.816,-112.086C537.548,-106.333 520.337,-100.885 504,-98 466.436,-91.366 423.254,-94.9827 391.226,-99.7787"/>
<polygon fill="#9a32cd" stroke="#9a32cd" points="551.951,-115.506 562.539,-115.887 554.499,-108.986 551.951,-115.506"/>
<text text-anchor="middle" x="472" y="-102" font-family="Helvetica,sans-Serif" font-size="10.00"> m_data</text>
</g>
<!-- Node6 -->
<g id="node10" class="node"><title>Node6</title>
<a xlink:href="classRemoteWindowDataSoftware.htm" target="_top" xlink:title="RemoteWindowDataSoftware">
<polygon fill="white" stroke="black" points="266.5,-150.5 266.5,-171.5 421.5,-171.5 421.5,-150.5 266.5,-150.5"/>
<text text-anchor="middle" x="344" y="-158.5" font-family="Helvetica,sans-Serif" font-size="10.00">RemoteWindowDataSoftware</text>
</a>
</g>
<!-- Node6&#45;&gt;Node5 -->
<g id="edge10" class="edge"><title>Node6&#45;&gt;Node5</title>
<path fill="none" stroke="midnightblue" d="M431.762,-151.401C461.172,-148.184 493.736,-144.623 522.319,-141.496"/>
<polygon fill="midnightblue" stroke="midnightblue" points="431.063,-147.956 421.503,-152.523 431.824,-154.915 431.063,-147.956"/>
</g>
<!-- Node7 -->
<g id="node13" class="node"><title>Node7</title>
<polygon fill="white" stroke="#bfbfbf" points="23.5,-80.5 23.5,-101.5 112.5,-101.5 112.5,-80.5 23.5,-80.5"/>
<text text-anchor="middle" x="68" y="-88.5" font-family="Helvetica,sans-Serif" font-size="10.00">NAppWindow *</text>
</g>
<!-- Node7&#45;&gt;Node1 -->
<g id="edge14" class="edge"><title>Node7&#45;&gt;Node1</title>
<path fill="none" stroke="#9a32cd" stroke-dasharray="5,2" d="M123.064,-88.8931C158.757,-88.122 206.218,-88.2121 248,-92 264.014,-93.4518 281.363,-96.1672 296.85,-99.0084"/>
<polygon fill="#9a32cd" stroke="#9a32cd" points="122.765,-85.3993 112.854,-89.1439 122.937,-92.3972 122.765,-85.3993"/>
<text text-anchor="middle" x="201" y="-96" font-family="Helvetica,sans-Serif" font-size="10.00"> m_nappWindow</text>
</g>
<!-- Node8 -->
<g id="node15" class="node"><title>Node8</title>
<polygon fill="white" stroke="#bfbfbf" points="21,-40.5 21,-61.5 115,-61.5 115,-40.5 21,-40.5"/>
<text text-anchor="middle" x="68" y="-48.5" font-family="Helvetica,sans-Serif" font-size="10.00">PGLESPixmap *</text>
</g>
<!-- Node8&#45;&gt;Node1 -->
<g id="edge16" class="edge"><title>Node8&#45;&gt;Node1</title>
<path fill="none" stroke="#9a32cd" stroke-dasharray="5,2" d="M125.456,-53.4817C161.145,-55.9797 207.732,-60.9841 248,-71 274.266,-77.5332 302.946,-89.5801 322.054,-98.3632"/>
<polygon fill="#9a32cd" stroke="#9a32cd" points="125.429,-49.9726 115.222,-52.8128 124.972,-56.9577 125.429,-49.9726"/>
<text text-anchor="middle" x="201" y="-75" font-family="Helvetica,sans-Serif" font-size="10.00"> m_glPixmap</text>
</g>
<!-- Node9 -->
<g id="node17" class="node"><title>Node9</title>
<polygon fill="white" stroke="#bfbfbf" points="34,-0.5 34,-21.5 102,-21.5 102,-0.5 34,-0.5"/>
<text text-anchor="middle" x="68" y="-8.5" font-family="Helvetica,sans-Serif" font-size="10.00">WebView *</text>
</g>
<!-- Node9&#45;&gt;Node1 -->
<g id="edge18" class="edge"><title>Node9&#45;&gt;Node1</title>
<path fill="none" stroke="#9a32cd" stroke-dasharray="5,2" d="M112.206,-12.0841C149.636,-14.3407 204.057,-20.825 248,-39 282.691,-53.3481 316.577,-82.6753 333.269,-98.4311"/>
<polygon fill="#9a32cd" stroke="#9a32cd" points="112.293,-8.58392 102.123,-11.5535 111.925,-15.5742 112.293,-8.58392"/>
<text text-anchor="middle" x="201" y="-43" font-family="Helvetica,sans-Serif" font-size="10.00"> m_view</text>
</g>
</g>
</svg>
