<?xml version="1.0" encoding="UTF-8" standalone="no"?>
<!DOCTYPE svg PUBLIC "-//W3C//DTD SVG 1.1//EN"
 "http://www.w3.org/Graphics/SVG/1.1/DTD/svg11.dtd">
<!-- Generated by graphviz version 2.26.3 (20100126.1600)
 -->
<!-- Title: DashboardWebApp Pages: 1 -->
<svg width="818pt" height="663pt"
 viewBox="0.00 0.00 818.00 663.42" xmlns="http://www.w3.org/2000/svg" xmlns:xlink="http://www.w3.org/1999/xlink">
<g id="graph1" class="graph" transform="scale(1 1) rotate(0) translate(4 659.417)">
<title>DashboardWebApp</title>
<polygon fill="white" stroke="white" points="-4,5 -4,-659.417 815,-659.417 815,5 -4,5"/>
<!-- Node1 -->
<g id="node1" class="node"><title>Node1</title>
<polygon fill="#bfbfbf" stroke="black" points="702,-271.917 702,-292.917 810,-292.917 810,-271.917 702,-271.917"/>
<text text-anchor="middle" x="756" y="-279.917" font-family="Helvetica,sans-Serif" font-size="10.00">DashboardWebApp</text>
</g>
<!-- Node2 -->
<g id="node2" class="node"><title>Node2</title>
<a xlink:href="classWindowedWebApp.htm" target="_top" xlink:title="WindowedWebApp">
<polygon fill="white" stroke="black" points="558,-271.917 558,-292.917 664,-292.917 664,-271.917 558,-271.917"/>
<text text-anchor="middle" x="611" y="-279.917" font-family="Helvetica,sans-Serif" font-size="10.00">WindowedWebApp</text>
</a>
</g>
<!-- Node2&#45;&gt;Node1 -->
<g id="edge2" class="edge"><title>Node2&#45;&gt;Node1</title>
<path fill="none" stroke="midnightblue" d="M674.395,-282.417C683.554,-282.417 692.91,-282.417 701.866,-282.417"/>
<polygon fill="midnightblue" stroke="midnightblue" points="674.169,-278.917 664.169,-282.417 674.169,-285.917 674.169,-278.917"/>
</g>
<!-- Node3 -->
<g id="node4" class="node"><title>Node3</title>
<a xlink:href="classWebAppBase.htm" target="_top" xlink:title="WebAppBase">
<polygon fill="white" stroke="black" points="294,-633.917 294,-654.917 374,-654.917 374,-633.917 294,-633.917"/>
<text text-anchor="middle" x="334" y="-641.917" font-family="Helvetica,sans-Serif" font-size="10.00">WebAppBase</text>
</a>
</g>
<!-- Node3&#45;&gt;Node2 -->
<g id="edge4" class="edge"><title>Node3&#45;&gt;Node2</title>
<path fill="none" stroke="midnightblue" d="M384.424,-644.62C431.274,-641.983 499.702,-630.451 540,-588.417 582.365,-544.227 605.028,-342.214 609.964,-293.168"/>
<polygon fill="midnightblue" stroke="midnightblue" points="384.02,-641.134 374.186,-645.075 384.331,-648.128 384.02,-641.134"/>
</g>
<!-- Node4 -->
<g id="node6" class="node"><title>Node4</title>
<a xlink:href="classQObject.htm" target="_top" xlink:title="QObject">
<polygon fill="white" stroke="black" points="15.5,-633.917 15.5,-654.917 70.5,-654.917 70.5,-633.917 15.5,-633.917"/>
<text text-anchor="middle" x="43" y="-641.917" font-family="Helvetica,sans-Serif" font-size="10.00">QObject</text>
</a>
</g>
<!-- Node4&#45;&gt;Node3 -->
<g id="edge6" class="edge"><title>Node4&#45;&gt;Node3</title>
<path fill="none" stroke="midnightblue" d="M80.6509,-644.417C135.573,-644.417 237.241,-644.417 293.65,-644.417"/>
<polygon fill="midnightblue" stroke="midnightblue" points="80.639,-640.917 70.6389,-644.417 80.6389,-647.917 80.639,-640.917"/>
</g>
<!-- Node5 -->
<g id="node8" class="node"><title>Node5</title>
<a xlink:href="classPIpcChannelListener.htm" target="_top" xlink:title="PIpcChannelListener">
<polygon fill="white" stroke="black" points="276,-593.917 276,-614.917 392,-614.917 392,-593.917 276,-593.917"/>
<text text-anchor="middle" x="334" y="-601.917" font-family="Helvetica,sans-Serif" font-size="10.00">PIpcChannelListener</text>
</a>
</g>
<!-- Node5&#45;&gt;Node2 -->
<g id="edge8" class="edge"><title>Node5&#45;&gt;Node2</title>
<path fill="none" stroke="midnightblue" d="M402.608,-603.476C447.41,-599.194 504.057,-586.266 540,-550.417 577.913,-512.602 603.556,-338.071 609.618,-293.041"/>
<polygon fill="midnightblue" stroke="midnightblue" points="402.046,-600.01 392.37,-604.326 402.625,-606.986 402.046,-600.01"/>
</g>
<!-- Node6 -->
<g id="node10" class="node"><title>Node6</title>
<a xlink:href="structWindowMetaData.htm" target="_top" xlink:title="WindowMetaData">
<polygon fill="white" stroke="black" points="283.5,-478.917 283.5,-499.917 384.5,-499.917 384.5,-478.917 283.5,-478.917"/>
<text text-anchor="middle" x="334" y="-486.917" font-family="Helvetica,sans-Serif" font-size="10.00">WindowMetaData</text>
</a>
</g>
<!-- Node6&#45;&gt;Node2 -->
<g id="edge10" class="edge"><title>Node6&#45;&gt;Node2</title>
<path fill="none" stroke="#9a32cd" stroke-dasharray="5,2" d="M383.623,-475.551C392.602,-472.357 401.732,-468.637 410,-464.417 473.506,-432.004 488.269,-419.484 540,-370.417 566.491,-345.29 591.968,-310.221 603.92,-292.921"/>
<polygon fill="#9a32cd" stroke="#9a32cd" points="382.339,-472.29 373.987,-478.809 384.581,-478.921 382.339,-472.29"/>
<text text-anchor="middle" x="484" y="-457.417" font-family="Helvetica,sans-Serif" font-size="10.00"> m_metaData</text>
</g>
<!-- Node7 -->
<g id="node12" class="node"><title>Node7</title>
<polygon fill="white" stroke="#bfbfbf" points="28.5,-498.917 28.5,-519.917 57.5,-519.917 57.5,-498.917 28.5,-498.917"/>
<text text-anchor="middle" x="43" y="-506.917" font-family="Helvetica,sans-Serif" font-size="10.00">int</text>
</g>
<!-- Node7&#45;&gt;Node2 -->
<g id="edge22" class="edge"><title>Node7&#45;&gt;Node2</title>
<path fill="none" stroke="#9a32cd" stroke-dasharray="5,2" d="M67.6946,-515.912C78.7191,-518.491 91.9225,-521.144 104,-522.417 201.038,-532.642 468.643,-536.969 540,-470.417 593.835,-420.206 607.159,-325.049 610.18,-293.147"/>
<polygon fill="#9a32cd" stroke="#9a32cd" points="68.4462,-512.493 57.9002,-513.509 66.7782,-519.291 68.4462,-512.493"/>
<text text-anchor="middle" x="334" y="-557.417" font-family="Helvetica,sans-Serif" font-size="10.00"> m_width</text>
<text text-anchor="middle" x="334" y="-544.417" font-family="Helvetica,sans-Serif" font-size="10.00">m_height</text>
<text text-anchor="middle" x="334" y="-531.417" font-family="Helvetica,sans-Serif" font-size="10.00">m_blockCount</text>
</g>
<!-- Node7&#45;&gt;Node6 -->
<g id="edge12" class="edge"><title>Node7&#45;&gt;Node6</title>
<path fill="none" stroke="#9a32cd" stroke-dasharray="5,2" d="M67.2616,-496.411C78.1641,-491.275 91.3918,-485.992 104,-483.417 164.661,-471.028 236.182,-475.841 283.174,-481.567"/>
<polygon fill="#9a32cd" stroke="#9a32cd" points="65.3954,-493.429 57.9874,-501.004 68.502,-499.702 65.3954,-493.429"/>
<text text-anchor="middle" x="172" y="-513.417" font-family="Helvetica,sans-Serif" font-size="10.00"> directRenderingOrientation</text>
<text text-anchor="middle" x="172" y="-500.417" font-family="Helvetica,sans-Serif" font-size="10.00">directRenderingScreenX</text>
<text text-anchor="middle" x="172" y="-487.417" font-family="Helvetica,sans-Serif" font-size="10.00">directRenderingScreenY</text>
</g>
<!-- Node8 -->
<g id="node14" class="node"><title>Node8</title>
<polygon fill="white" stroke="#bfbfbf" points="25,-345.917 25,-366.917 61,-366.917 61,-345.917 25,-345.917"/>
<text text-anchor="middle" x="43" y="-353.917" font-family="Helvetica,sans-Serif" font-size="10.00">bool</text>
</g>
<!-- Node8&#45;&gt;Node2 -->
<g id="edge26" class="edge"><title>Node8&#45;&gt;Node2</title>
<path fill="none" stroke="#9a32cd" stroke-dasharray="5,2" d="M71.4347,-358.596C148.652,-363.633 367.984,-372.057 540,-321.417 560.911,-315.261 582.528,-302.262 596.331,-292.964"/>
<polygon fill="#9a32cd" stroke="#9a32cd" points="71.3124,-355.08 61.0958,-357.885 70.832,-362.063 71.3124,-355.08"/>
<text text-anchor="middle" x="334" y="-455.417" font-family="Helvetica,sans-Serif" font-size="10.00"> m_addedToWindowMgr</text>
<text text-anchor="middle" x="334" y="-442.417" font-family="Helvetica,sans-Serif" font-size="10.00">m_blockPenEvents</text>
<text text-anchor="middle" x="334" y="-429.417" font-family="Helvetica,sans-Serif" font-size="10.00">m_stagePreparing</text>
<text text-anchor="middle" x="334" y="-416.417" font-family="Helvetica,sans-Serif" font-size="10.00">m_beingDeleted</text>
<text text-anchor="middle" x="334" y="-403.417" font-family="Helvetica,sans-Serif" font-size="10.00">m_focused</text>
<text text-anchor="middle" x="334" y="-390.417" font-family="Helvetica,sans-Serif" font-size="10.00">m_stageReady</text>
<text text-anchor="middle" x="334" y="-377.417" font-family="Helvetica,sans-Serif" font-size="10.00">m_generateMouseClick</text>
<text text-anchor="middle" x="334" y="-364.417" font-family="Helvetica,sans-Serif" font-size="10.00">m_showPageStats</text>
</g>
<!-- Node8&#45;&gt;Node6 -->
<g id="edge14" class="edge"><title>Node8&#45;&gt;Node6</title>
<path fill="none" stroke="#9a32cd" stroke-dasharray="5,2" d="M70.1781,-371.708C110.389,-393.952 188.48,-435.706 258,-464.417 270.967,-469.772 285.532,-474.793 298.415,-478.91"/>
<polygon fill="#9a32cd" stroke="#9a32cd" points="71.7023,-368.551 61.2614,-366.751 68.3011,-374.669 71.7023,-368.551"/>
<text text-anchor="middle" x="172" y="-457.417" font-family="Helvetica,sans-Serif" font-size="10.00"> allowDirectRendering</text>
</g>
<!-- Node13 -->
<g id="node26" class="node"><title>Node13</title>
<a xlink:href="classRemoteWindowData.htm" target="_top" xlink:title="RemoteWindowData">
<polygon fill="white" stroke="black" points="277.5,-178.917 277.5,-199.917 390.5,-199.917 390.5,-178.917 277.5,-178.917"/>
<text text-anchor="middle" x="334" y="-186.917" font-family="Helvetica,sans-Serif" font-size="10.00">RemoteWindowData</text>
</a>
</g>
<!-- Node8&#45;&gt;Node13 -->
<g id="edge32" class="edge"><title>Node8&#45;&gt;Node13</title>
<path fill="none" stroke="#9a32cd" stroke-dasharray="5,2" d="M69.9409,-341.182C109.032,-318.554 183.027,-273.732 240,-227.417 248.779,-220.28 248.189,-215.052 258,-209.417 264.625,-205.611 271.989,-202.514 279.45,-199.996"/>
<polygon fill="#9a32cd" stroke="#9a32cd" points="68.1635,-338.167 61.239,-346.186 71.6528,-344.235 68.1635,-338.167"/>
<text text-anchor="middle" x="172" y="-323.417" font-family="Helvetica,sans-Serif" font-size="10.00"> m_supportsDirectRendering</text>
</g>
<!-- Node9 -->
<g id="node16" class="node"><title>Node9</title>
<polygon fill="white" stroke="#bfbfbf" points="313.5,-298.917 313.5,-319.917 354.5,-319.917 354.5,-298.917 313.5,-298.917"/>
<text text-anchor="middle" x="334" y="-306.917" font-family="Helvetica,sans-Serif" font-size="10.00">Type</text>
</g>
<!-- Node9&#45;&gt;Node2 -->
<g id="edge16" class="edge"><title>Node9&#45;&gt;Node2</title>
<path fill="none" stroke="#9a32cd" stroke-dasharray="5,2" d="M364.787,-308.412C405.149,-306.847 478.095,-303.162 540,-295.417 545.844,-294.686 551.936,-293.785 557.986,-292.801"/>
<polygon fill="#9a32cd" stroke="#9a32cd" points="364.405,-304.924 354.541,-308.791 364.663,-311.919 364.405,-304.924"/>
<text text-anchor="middle" x="484" y="-308.417" font-family="Helvetica,sans-Serif" font-size="10.00"> m_winType</text>
</g>
<!-- Node10 -->
<g id="node18" class="node"><title>Node10</title>
<polygon fill="white" stroke="#bfbfbf" points="258.5,-258.917 258.5,-279.917 409.5,-279.917 409.5,-258.917 258.5,-258.917"/>
<text text-anchor="middle" x="334" y="-266.917" font-family="Helvetica,sans-Serif" font-size="10.00">Timer&lt; WindowedWebApp &gt;</text>
</g>
<!-- Node10&#45;&gt;Node2 -->
<g id="edge18" class="edge"><title>Node10&#45;&gt;Node2</title>
<path fill="none" stroke="#9a32cd" stroke-dasharray="5,2" d="M419.763,-273.442C464.858,-275.558 518.722,-278.086 557.776,-279.919"/>
<polygon fill="#9a32cd" stroke="#9a32cd" points="419.845,-269.942 409.691,-272.969 419.516,-276.934 419.845,-269.942"/>
<text text-anchor="middle" x="484" y="-282.417" font-family="Helvetica,sans-Serif" font-size="10.00"> m_showWindowTimer</text>
</g>
<!-- Node11 -->
<g id="node20" class="node"><title>Node11</title>
<polygon fill="white" stroke="#bfbfbf" points="307,-218.917 307,-239.917 361,-239.917 361,-218.917 307,-218.917"/>
<text text-anchor="middle" x="334" y="-226.917" font-family="Helvetica,sans-Serif" font-size="10.00">uint32_t</text>
</g>
<!-- Node11&#45;&gt;Node2 -->
<g id="edge20" class="edge"><title>Node11&#45;&gt;Node2</title>
<path fill="none" stroke="#9a32cd" stroke-dasharray="5,2" d="M371.271,-222.85C413.403,-216.949 483.482,-211.781 540,-230.417 564.668,-238.55 587.883,-258.812 600.697,-271.508"/>
<polygon fill="#9a32cd" stroke="#9a32cd" points="370.562,-219.417 361.187,-224.352 371.593,-226.34 370.562,-219.417"/>
<text text-anchor="middle" x="484" y="-260.417" font-family="Helvetica,sans-Serif" font-size="10.00"> m_windowWidth</text>
<text text-anchor="middle" x="484" y="-247.417" font-family="Helvetica,sans-Serif" font-size="10.00">m_windowHeight</text>
<text text-anchor="middle" x="484" y="-234.417" font-family="Helvetica,sans-Serif" font-size="10.00">m_lastGestureEndTime</text>
</g>
<!-- Node12 -->
<g id="node23" class="node"><title>Node12</title>
<polygon fill="white" stroke="#bfbfbf" points="6,-151.917 6,-172.917 80,-172.917 80,-151.917 6,-151.917"/>
<text text-anchor="middle" x="43" y="-159.917" font-family="Helvetica,sans-Serif" font-size="10.00">PIpcBuffer *</text>
</g>
<!-- Node12&#45;&gt;Node2 -->
<g id="edge24" class="edge"><title>Node12&#45;&gt;Node2</title>
<path fill="none" stroke="#9a32cd" stroke-dasharray="5,2" d="M90.1999,-157.576C199.507,-147.301 466.306,-127.864 540,-174.417 577.372,-198.025 599.271,-249.254 607.38,-271.613"/>
<polygon fill="#9a32cd" stroke="#9a32cd" points="89.7466,-154.104 80.1252,-158.54 90.4129,-161.072 89.7466,-154.104"/>
<text text-anchor="middle" x="334" y="-150.417" font-family="Helvetica,sans-Serif" font-size="10.00"> m_metaDataBuffer</text>
</g>
<!-- Node12&#45;&gt;Node13 -->
<g id="edge30" class="edge"><title>Node12&#45;&gt;Node13</title>
<path fill="none" stroke="#9a32cd" stroke-dasharray="5,2" d="M90.2641,-166.802C141.377,-171.545 222.838,-179.103 277.345,-184.16"/>
<polygon fill="#9a32cd" stroke="#9a32cd" points="90.4315,-163.303 80.1509,-165.864 89.7848,-170.273 90.4315,-163.303"/>
<text text-anchor="middle" x="172" y="-184.417" font-family="Helvetica,sans-Serif" font-size="10.00"> m_metaDataBuffer</text>
</g>
<!-- Node13&#45;&gt;Node2 -->
<g id="edge28" class="edge"><title>Node13&#45;&gt;Node2</title>
<path fill="none" stroke="#9a32cd" stroke-dasharray="5,2" d="M400.889,-179.639C442.909,-176.559 497.082,-178.375 540,-199.417 572.35,-215.277 595.79,-253.315 605.726,-271.874"/>
<polygon fill="#9a32cd" stroke="#9a32cd" points="400.426,-176.166 390.756,-180.493 401.014,-183.141 400.426,-176.166"/>
<text text-anchor="middle" x="484" y="-203.417" font-family="Helvetica,sans-Serif" font-size="10.00"> m_data</text>
</g>
<!-- Node14 -->
<g id="node30" class="node"><title>Node14</title>
<polygon fill="white" stroke="#bfbfbf" points="0,-205.917 0,-226.917 86,-226.917 86,-205.917 0,-205.917"/>
<text text-anchor="middle" x="43" y="-213.917" font-family="Helvetica,sans-Serif" font-size="10.00">PIpcChannel *</text>
</g>
<!-- Node14&#45;&gt;Node13 -->
<g id="edge34" class="edge"><title>Node14&#45;&gt;Node13</title>
<path fill="none" stroke="#9a32cd" stroke-dasharray="5,2" d="M96.4648,-211.456C147.744,-206.698 224.896,-199.54 277.247,-194.682"/>
<polygon fill="#9a32cd" stroke="#9a32cd" points="95.8853,-207.995 86.2514,-212.404 96.532,-214.965 95.8853,-207.995"/>
<text text-anchor="middle" x="172" y="-214.417" font-family="Helvetica,sans-Serif" font-size="10.00"> m_channel</text>
</g>
<!-- Node15 -->
<g id="node32" class="node"><title>Node15</title>
<polygon fill="white" stroke="#bfbfbf" points="282.5,-89.9168 282.5,-110.917 385.5,-110.917 385.5,-89.9168 282.5,-89.9168"/>
<text text-anchor="middle" x="334" y="-97.9168" font-family="Helvetica,sans-Serif" font-size="10.00">WindowProperties</text>
</g>
<!-- Node15&#45;&gt;Node2 -->
<g id="edge36" class="edge"><title>Node15&#45;&gt;Node2</title>
<path fill="none" stroke="#9a32cd" stroke-dasharray="5,2" d="M395.646,-90.9628C439.873,-87.5938 498.706,-90.4815 540,-120.417 591.962,-158.085 606.403,-242.224 609.954,-271.849"/>
<polygon fill="#9a32cd" stroke="#9a32cd" points="395.244,-87.4846 385.592,-91.8541 395.862,-94.4573 395.244,-87.4846"/>
<text text-anchor="middle" x="484" y="-124.417" font-family="Helvetica,sans-Serif" font-size="10.00"> m_winProps</text>
</g>
<!-- Node16 -->
<g id="node34" class="node"><title>Node16</title>
<polygon fill="white" stroke="#bfbfbf" points="292.5,-49.9168 292.5,-70.9168 375.5,-70.9168 375.5,-49.9168 292.5,-49.9168"/>
<text text-anchor="middle" x="334" y="-57.9168" font-family="Helvetica,sans-Serif" font-size="10.00">PendingFocus</text>
</g>
<!-- Node16&#45;&gt;Node2 -->
<g id="edge38" class="edge"><title>Node16&#45;&gt;Node2</title>
<path fill="none" stroke="#9a32cd" stroke-dasharray="5,2" d="M385.687,-48.5967C431.006,-41.3979 496.301,-39.0946 540,-72.4168 573.434,-97.9116 601.518,-232.869 609.028,-271.86"/>
<polygon fill="#9a32cd" stroke="#9a32cd" points="385.029,-45.1585 375.766,-50.3008 386.214,-52.0575 385.029,-45.1585"/>
<text text-anchor="middle" x="484" y="-76.4168" font-family="Helvetica,sans-Serif" font-size="10.00"> m_pendingFocus</text>
</g>
<!-- Node17 -->
<g id="node36" class="node"><title>Node17</title>
<polygon fill="white" stroke="#bfbfbf" points="310.5,-9.91675 310.5,-30.9168 357.5,-30.9168 357.5,-9.91675 310.5,-9.91675"/>
<text text-anchor="middle" x="334" y="-17.9168" font-family="Helvetica,sans-Serif" font-size="10.00">QRect</text>
</g>
<!-- Node17&#45;&gt;Node2 -->
<g id="edge40" class="edge"><title>Node17&#45;&gt;Node2</title>
<path fill="none" stroke="#9a32cd" stroke-dasharray="5,2" d="M367.424,-10.5954C411.87,0.255701 490.556,11.4826 540,-27.4168 580.09,-58.9572 604.042,-227.558 609.697,-271.787"/>
<polygon fill="#9a32cd" stroke="#9a32cd" points="366.503,-7.21834 357.691,-13.1004 368.248,-13.9974 366.503,-7.21834"/>
<text text-anchor="middle" x="484" y="-31.4168" font-family="Helvetica,sans-Serif" font-size="10.00"> m_paintRect</text>
</g>
</g>
</svg>
