<?xml version="1.0" encoding="UTF-8" standalone="no"?>
<!DOCTYPE svg PUBLIC "-//W3C//DTD SVG 1.1//EN"
 "http://www.w3.org/Graphics/SVG/1.1/DTD/svg11.dtd">
<!-- Generated by graphviz version 2.26.3 (20100126.1600)
 -->
<!-- Title: WebAppManager Pages: 1 -->
<svg width="367pt" height="146pt"
 viewBox="0.00 0.00 367.00 146.00" xmlns="http://www.w3.org/2000/svg" xmlns:xlink="http://www.w3.org/1999/xlink">
<g id="graph1" class="graph" transform="scale(1 1) rotate(0) translate(4 142)">
<title>WebAppManager</title>
<polygon fill="white" stroke="white" points="-4,5 -4,-142 364,-142 364,5 -4,5"/>
<!-- Node1 -->
<g id="node1" class="node"><title>Node1</title>
<polygon fill="#bfbfbf" stroke="black" points="102.5,-0.5 102.5,-21.5 201.5,-21.5 201.5,-0.5 102.5,-0.5"/>
<text text-anchor="middle" x="152" y="-8.5" font-family="Helvetica,sans-Serif" font-size="10.00">WebAppManager</text>
</g>
<!-- Node2 -->
<g id="node2" class="node"><title>Node2</title>
<a xlink:href="classSyncTask.htm" target="_top" xlink:title="SyncTask">
<polygon fill="white" stroke="black" points="0.5,-58.5 0.5,-79.5 63.5,-79.5 63.5,-58.5 0.5,-58.5"/>
<text text-anchor="middle" x="32" y="-66.5" font-family="Helvetica,sans-Serif" font-size="10.00">SyncTask</text>
</a>
</g>
<!-- Node2&#45;&gt;Node1 -->
<g id="edge2" class="edge"><title>Node2&#45;&gt;Node1</title>
<path fill="none" stroke="midnightblue" d="M62.8911,-54.0693C83.9061,-43.9121 111.209,-30.7157 130.025,-21.6212"/>
<polygon fill="midnightblue" stroke="midnightblue" points="61.2115,-50.9937 53.7311,-58.4966 64.2577,-57.2961 61.2115,-50.9937"/>
</g>
<!-- Node3 -->
<g id="node4" class="node"><title>Node3</title>
<a xlink:href="classTaskBase.htm" target="_top" xlink:title="TaskBase">
<polygon fill="white" stroke="black" points="0,-116.5 0,-137.5 64,-137.5 64,-116.5 0,-116.5"/>
<text text-anchor="middle" x="32" y="-124.5" font-family="Helvetica,sans-Serif" font-size="10.00">TaskBase</text>
</a>
</g>
<!-- Node3&#45;&gt;Node2 -->
<g id="edge4" class="edge"><title>Node3&#45;&gt;Node2</title>
<path fill="none" stroke="midnightblue" d="M32,-106.191C32,-97.1684 32,-86.9941 32,-79.5707"/>
<polygon fill="midnightblue" stroke="midnightblue" points="28.5001,-106.362 32,-116.362 35.5001,-106.362 28.5001,-106.362"/>
</g>
<!-- Node4 -->
<g id="node6" class="node"><title>Node4</title>
<a xlink:href="classTrackable.htm" target="_top" xlink:title="Trackable">
<polygon fill="white" stroke="black" points="80.5,-58.5 80.5,-79.5 143.5,-79.5 143.5,-58.5 80.5,-58.5"/>
<text text-anchor="middle" x="112" y="-66.5" font-family="Helvetica,sans-Serif" font-size="10.00">Trackable</text>
</a>
</g>
<!-- Node4&#45;&gt;Node1 -->
<g id="edge6" class="edge"><title>Node4&#45;&gt;Node1</title>
<path fill="none" stroke="midnightblue" d="M125.132,-49.9591C131.64,-40.522 139.253,-29.4835 144.71,-21.5707"/>
<polygon fill="midnightblue" stroke="midnightblue" points="122.133,-48.1427 119.337,-58.3619 127.895,-52.1168 122.133,-48.1427"/>
</g>
<!-- Node5 -->
<g id="node8" class="node"><title>Node5</title>
<a xlink:href="classPIpcClient.htm" target="_top" xlink:title="PIpcClient">
<polygon fill="white" stroke="black" points="160.5,-58.5 160.5,-79.5 225.5,-79.5 225.5,-58.5 160.5,-58.5"/>
<text text-anchor="middle" x="193" y="-66.5" font-family="Helvetica,sans-Serif" font-size="10.00">PIpcClient</text>
</a>
</g>
<!-- Node5&#45;&gt;Node1 -->
<g id="edge8" class="edge"><title>Node5&#45;&gt;Node1</title>
<path fill="none" stroke="midnightblue" d="M179.54,-49.9591C172.869,-40.522 165.066,-29.4835 159.472,-21.5707"/>
<polygon fill="midnightblue" stroke="midnightblue" points="176.85,-52.2165 185.48,-58.3619 182.566,-48.1758 176.85,-52.2165"/>
</g>
<!-- Node6 -->
<g id="node10" class="node"><title>Node6</title>
<a xlink:href="classPIpcChannelListener.htm" target="_top" xlink:title="PIpcChannelListener">
<polygon fill="white" stroke="black" points="243,-58.5 243,-79.5 359,-79.5 359,-58.5 243,-58.5"/>
<text text-anchor="middle" x="301" y="-66.5" font-family="Helvetica,sans-Serif" font-size="10.00">PIpcChannelListener</text>
</a>
</g>
<!-- Node6&#45;&gt;Node1 -->
<g id="edge10" class="edge"><title>Node6&#45;&gt;Node1</title>
<path fill="none" stroke="midnightblue" d="M264.363,-54.7386C237.962,-44.4616 202.92,-30.821 179.033,-21.5231"/>
<polygon fill="midnightblue" stroke="midnightblue" points="263.429,-58.1307 274.017,-58.4966 265.968,-51.6075 263.429,-58.1307"/>
</g>
</g>
</svg>
