<?xml version="1.0" encoding="UTF-8" standalone="no"?>
<!DOCTYPE svg PUBLIC "-//W3C//DTD SVG 1.1//EN"
 "http://www.w3.org/Graphics/SVG/1.1/DTD/svg11.dtd">
<!-- Generated by graphviz version 2.26.3 (20100126.1600)
 -->
<!-- Title: Event Pages: 1 -->
<svg width="385pt" height="146pt"
 viewBox="0.00 0.00 385.00 146.00" xmlns="http://www.w3.org/2000/svg" xmlns:xlink="http://www.w3.org/1999/xlink">
<g id="graph1" class="graph" transform="scale(1 1) rotate(0) translate(4 142)">
<title>Event</title>
<polygon fill="white" stroke="white" points="-4,5 -4,-142 382,-142 382,5 -4,5"/>
<!-- Node1 -->
<g id="node1" class="node"><title>Node1</title>
<polygon fill="#bfbfbf" stroke="black" points="129,-116.5 129,-137.5 173,-137.5 173,-116.5 129,-116.5"/>
<text text-anchor="middle" x="151" y="-124.5" font-family="Helvetica,sans-Serif" font-size="10.00">Event</text>
</g>
<!-- Node2 -->
<g id="node3" class="node"><title>Node2</title>
<a xlink:href="classInputEvent.htm" target="_top" xlink:title="InputEvent">
<polygon fill="white" stroke="black" points="-0.5,-58.5 -0.5,-79.5 66.5,-79.5 66.5,-58.5 -0.5,-58.5"/>
<text text-anchor="middle" x="33" y="-66.5" font-family="Helvetica,sans-Serif" font-size="10.00">InputEvent</text>
</a>
</g>
<!-- Node1&#45;&gt;Node2 -->
<g id="edge2" class="edge"><title>Node1&#45;&gt;Node2</title>
<path fill="none" stroke="midnightblue" d="M120.624,-112.069C99.959,-101.912 73.1113,-88.7157 54.6087,-79.6212"/>
<polygon fill="midnightblue" stroke="midnightblue" points="119.113,-115.226 129.631,-116.497 122.201,-108.944 119.113,-115.226"/>
</g>
<!-- Node3 -->
<g id="node5" class="node"><title>Node3</title>
<a xlink:href="classPageCloseRequestEvent.htm" target="_top" xlink:title="PageCloseRequestEvent">
<polygon fill="white" stroke="black" points="84,-58.5 84,-79.5 218,-79.5 218,-58.5 84,-58.5"/>
<text text-anchor="middle" x="151" y="-66.5" font-family="Helvetica,sans-Serif" font-size="10.00">PageCloseRequestEvent</text>
</a>
</g>
<!-- Node1&#45;&gt;Node3 -->
<g id="edge4" class="edge"><title>Node1&#45;&gt;Node3</title>
<path fill="none" stroke="midnightblue" d="M151,-106.191C151,-97.1684 151,-86.9941 151,-79.5707"/>
<polygon fill="midnightblue" stroke="midnightblue" points="147.5,-106.362 151,-116.362 154.5,-106.362 147.5,-106.362"/>
</g>
<!-- Node4 -->
<g id="node7" class="node"><title>Node4</title>
<a xlink:href="classProcessManagerEvent.htm" target="_top" xlink:title="ProcessManagerEvent">
<polygon fill="white" stroke="black" points="235.5,-58.5 235.5,-79.5 360.5,-79.5 360.5,-58.5 235.5,-58.5"/>
<text text-anchor="middle" x="298" y="-66.5" font-family="Helvetica,sans-Serif" font-size="10.00">ProcessManagerEvent</text>
</a>
</g>
<!-- Node1&#45;&gt;Node4 -->
<g id="edge6" class="edge"><title>Node1&#45;&gt;Node4</title>
<path fill="none" stroke="midnightblue" d="M182.566,-114.545C209.024,-104.106 246.377,-89.3682 271.353,-79.5139"/>
<polygon fill="midnightblue" stroke="midnightblue" points="181.025,-111.391 173.007,-118.317 183.594,-117.902 181.025,-111.391"/>
</g>
<!-- Node5 -->
<g id="node9" class="node"><title>Node5</title>
<a xlink:href="classProcessManagerLaunchEvent.htm" target="_top" xlink:title="ProcessManagerLaunchEvent">
<polygon fill="white" stroke="black" points="218.5,-0.5 218.5,-21.5 377.5,-21.5 377.5,-0.5 218.5,-0.5"/>
<text text-anchor="middle" x="298" y="-8.5" font-family="Helvetica,sans-Serif" font-size="10.00">ProcessManagerLaunchEvent</text>
</a>
</g>
<!-- Node4&#45;&gt;Node5 -->
<g id="edge8" class="edge"><title>Node4&#45;&gt;Node5</title>
<path fill="none" stroke="midnightblue" d="M298,-48.1906C298,-39.1684 298,-28.9941 298,-21.5707"/>
<polygon fill="midnightblue" stroke="midnightblue" points="294.5,-48.3619 298,-58.3619 301.5,-48.3619 294.5,-48.3619"/>
</g>
</g>
</svg>
