<?xml version="1.0" encoding="UTF-8" standalone="no"?>
<!DOCTYPE svg PUBLIC "-//W3C//DTD SVG 1.1//EN"
 "http://www.w3.org/Graphics/SVG/1.1/DTD/svg11.dtd">
<!-- Generated by graphviz version 2.26.3 (20100126.1600)
 -->
<!-- Title: RemoteWindowDataSoftwareQt Pages: 1 -->
<svg width="725pt" height="218pt"
 viewBox="0.00 0.00 725.00 218.00" xmlns="http://www.w3.org/2000/svg" xmlns:xlink="http://www.w3.org/1999/xlink">
<g id="graph1" class="graph" transform="scale(1 1) rotate(0) translate(4 214)">
<title>RemoteWindowDataSoftwareQt</title>
<polygon fill="white" stroke="white" points="-4,5 -4,-214 722,-214 722,5 -4,5"/>
<!-- Node1 -->
<g id="node1" class="node"><title>Node1</title>
<polygon fill="#bfbfbf" stroke="black" points="379.5,-0.5 379.5,-21.5 546.5,-21.5 546.5,-0.5 379.5,-0.5"/>
<text text-anchor="middle" x="463" y="-8.5" font-family="Helvetica,sans-Serif" font-size="10.00">RemoteWindowDataSoftwareQt</text>
</g>
<!-- Node2 -->
<g id="node2" class="node"><title>Node2</title>
<a xlink:href="classRemoteWindowData.htm" target="_top" xlink:title="RemoteWindowData">
<polygon fill="white" stroke="black" points="149.5,-107.5 149.5,-128.5 262.5,-128.5 262.5,-107.5 149.5,-107.5"/>
<text text-anchor="middle" x="206" y="-115.5" font-family="Helvetica,sans-Serif" font-size="10.00">RemoteWindowData</text>
</a>
</g>
<!-- Node2&#45;&gt;Node1 -->
<g id="edge2" class="edge"><title>Node2&#45;&gt;Node1</title>
<path fill="none" stroke="midnightblue" d="M237.505,-103.199C272.493,-86.9589 330.801,-60.4783 382,-40 398.226,-33.5099 416.54,-26.8948 431.643,-21.6244"/>
<polygon fill="midnightblue" stroke="midnightblue" points="235.868,-100.1 228.28,-107.495 238.823,-106.446 235.868,-100.1"/>
</g>
<!-- Node3 -->
<g id="node4" class="node"><title>Node3</title>
<polygon fill="white" stroke="#bfbfbf" points="0,-188.5 0,-209.5 74,-209.5 74,-188.5 0,-188.5"/>
<text text-anchor="middle" x="37" y="-196.5" font-family="Helvetica,sans-Serif" font-size="10.00">PIpcBuffer *</text>
</g>
<!-- Node3&#45;&gt;Node1 -->
<g id="edge14" class="edge"><title>Node3&#45;&gt;Node1</title>
<path fill="none" stroke="#9a32cd" stroke-dasharray="5,2" d="M40.487,-178.414C45.5163,-155.286 57.0944,-118.33 82,-98 126.874,-61.3706 281.385,-34.8998 379.316,-21.3319"/>
<polygon fill="#9a32cd" stroke="#9a32cd" points="37.0497,-177.755 38.5634,-188.241 43.9193,-179.1 37.0497,-177.755"/>
<text text-anchor="middle" x="111.5" y="-115.5" font-family="Helvetica,sans-Serif" font-size="10.00"> m_ipcBuffer</text>
</g>
<!-- Node3&#45;&gt;Node2 -->
<g id="edge4" class="edge"><title>Node3&#45;&gt;Node2</title>
<path fill="none" stroke="#9a32cd" stroke-dasharray="5,2" d="M47.9094,-179.655C53.5216,-171.282 61.068,-162.037 70,-156 93.4597,-140.144 123.434,-130.861 149.27,-125.447"/>
<polygon fill="#9a32cd" stroke="#9a32cd" points="44.9026,-177.862 42.6047,-188.205 50.8508,-181.553 44.9026,-177.862"/>
<text text-anchor="middle" x="115.5" y="-160.5" font-family="Helvetica,sans-Serif" font-size="10.00"> m_metaDataBuffer</text>
</g>
<!-- Node4 -->
<g id="node6" class="node"><title>Node4</title>
<polygon fill="white" stroke="#bfbfbf" points="303,-188.5 303,-209.5 339,-209.5 339,-188.5 303,-188.5"/>
<text text-anchor="middle" x="321" y="-196.5" font-family="Helvetica,sans-Serif" font-size="10.00">bool</text>
</g>
<!-- Node4&#45;&gt;Node1 -->
<g id="edge16" class="edge"><title>Node4&#45;&gt;Node1</title>
<path fill="none" stroke="#9a32cd" stroke-dasharray="5,2" d="M348.94,-191.201C360.569,-186.695 373.347,-179.903 382,-170 404.103,-144.703 390.431,-128.269 405,-98 419.171,-68.5578 442.089,-37.5072 454.447,-21.6658"/>
<polygon fill="#9a32cd" stroke="#9a32cd" points="347.453,-188.012 339.15,-194.593 349.745,-194.627 347.453,-188.012"/>
<text text-anchor="middle" x="452" y="-128.5" font-family="Helvetica,sans-Serif" font-size="10.00"> m_directRendering</text>
<text text-anchor="middle" x="452" y="-115.5" font-family="Helvetica,sans-Serif" font-size="10.00">m_displayOpened</text>
<text text-anchor="middle" x="452" y="-102.5" font-family="Helvetica,sans-Serif" font-size="10.00">m_hasAlpha</text>
</g>
<!-- Node4&#45;&gt;Node2 -->
<g id="edge6" class="edge"><title>Node4&#45;&gt;Node2</title>
<path fill="none" stroke="#9a32cd" stroke-dasharray="5,2" d="M293.206,-192.213C278.221,-187.623 259.99,-180.46 246,-170 230.858,-158.678 218.534,-140.175 211.741,-128.564"/>
<polygon fill="#9a32cd" stroke="#9a32cd" points="292.393,-195.621 302.969,-194.989 294.307,-188.887 292.393,-195.621"/>
<text text-anchor="middle" x="314" y="-160.5" font-family="Helvetica,sans-Serif" font-size="10.00"> m_supportsDirectRendering</text>
</g>
<!-- Node5 -->
<g id="node8" class="node"><title>Node5</title>
<polygon fill="white" stroke="#bfbfbf" points="124,-188.5 124,-209.5 210,-209.5 210,-188.5 124,-188.5"/>
<text text-anchor="middle" x="167" y="-196.5" font-family="Helvetica,sans-Serif" font-size="10.00">PIpcChannel *</text>
</g>
<!-- Node5&#45;&gt;Node2 -->
<g id="edge8" class="edge"><title>Node5&#45;&gt;Node2</title>
<path fill="none" stroke="#9a32cd" stroke-dasharray="5,2" d="M164.388,-178.12C164.273,-170.865 165.074,-162.838 168,-156 172.698,-145.021 182.198,-135.521 190.524,-128.766"/>
<polygon fill="#9a32cd" stroke="#9a32cd" points="160.91,-178.557 165.106,-188.285 167.892,-178.063 160.91,-178.557"/>
<text text-anchor="middle" x="195.5" y="-160.5" font-family="Helvetica,sans-Serif" font-size="10.00"> m_channel</text>
</g>
<!-- Node6 -->
<g id="node10" class="node"><title>Node6</title>
<polygon fill="white" stroke="#bfbfbf" points="507.5,-107.5 507.5,-128.5 574.5,-128.5 574.5,-107.5 507.5,-107.5"/>
<text text-anchor="middle" x="541" y="-115.5" font-family="Helvetica,sans-Serif" font-size="10.00">QPainter *</text>
</g>
<!-- Node6&#45;&gt;Node1 -->
<g id="edge10" class="edge"><title>Node6&#45;&gt;Node1</title>
<path fill="none" stroke="#9a32cd" stroke-dasharray="5,2" d="M527.308,-99.218C510.881,-76.6832 483.91,-39.6839 470.733,-21.6077"/>
<polygon fill="#9a32cd" stroke="#9a32cd" points="524.517,-101.33 533.236,-107.349 530.173,-97.2066 524.517,-101.33"/>
<text text-anchor="middle" x="537" y="-57.5" font-family="Helvetica,sans-Serif" font-size="10.00"> m_context</text>
</g>
<!-- Node7 -->
<g id="node12" class="node"><title>Node7</title>
<polygon fill="white" stroke="#bfbfbf" points="591.5,-107.5 591.5,-128.5 620.5,-128.5 620.5,-107.5 591.5,-107.5"/>
<text text-anchor="middle" x="606" y="-115.5" font-family="Helvetica,sans-Serif" font-size="10.00">int</text>
</g>
<!-- Node7&#45;&gt;Node1 -->
<g id="edge12" class="edge"><title>Node7&#45;&gt;Node1</title>
<path fill="none" stroke="#9a32cd" stroke-dasharray="5,2" d="M600.842,-97.5078C595.34,-79.7859 584.896,-54.7563 567,-40 558.721,-33.173 537.042,-26.6516 515.608,-21.5282"/>
<polygon fill="#9a32cd" stroke="#9a32cd" points="597.561,-98.7708 603.651,-107.441 604.297,-96.8656 597.561,-98.7708"/>
<text text-anchor="middle" x="615" y="-70.5" font-family="Helvetica,sans-Serif" font-size="10.00"> m_width</text>
<text text-anchor="middle" x="615" y="-57.5" font-family="Helvetica,sans-Serif" font-size="10.00">m_height</text>
<text text-anchor="middle" x="615" y="-44.5" font-family="Helvetica,sans-Serif" font-size="10.00">m_pitch</text>
</g>
<!-- Node8 -->
<g id="node16" class="node"><title>Node8</title>
<polygon fill="white" stroke="#bfbfbf" points="642,-107.5 642,-128.5 704,-128.5 704,-107.5 642,-107.5"/>
<text text-anchor="middle" x="673" y="-115.5" font-family="Helvetica,sans-Serif" font-size="10.00">QImage *</text>
</g>
<!-- Node8&#45;&gt;Node1 -->
<g id="edge18" class="edge"><title>Node8&#45;&gt;Node1</title>
<path fill="none" stroke="#9a32cd" stroke-dasharray="5,2" d="M670.215,-97.4093C666.646,-79.4121 658.651,-54.0268 641,-40 626.17,-28.2147 585.593,-21.0915 546.921,-16.8561"/>
<polygon fill="#9a32cd" stroke="#9a32cd" points="666.801,-98.2123 671.912,-107.493 673.704,-97.0507 666.801,-98.2123"/>
<text text-anchor="middle" x="691" y="-57.5" font-family="Helvetica,sans-Serif" font-size="10.00"> m_surface</text>
</g>
</g>
</svg>
