<?xml version="1.0" encoding="UTF-8" standalone="no"?>
<!DOCTYPE svg PUBLIC "-//W3C//DTD SVG 1.1//EN"
 "http://www.w3.org/Graphics/SVG/1.1/DTD/svg11.dtd">
<!-- Generated by graphviz version 2.26.3 (20100126.1600)
 -->
<!-- Title: PIpcChannelListener Pages: 1 -->
<svg width="343pt" height="204pt"
 viewBox="0.00 0.00 343.00 204.00" xmlns="http://www.w3.org/2000/svg" xmlns:xlink="http://www.w3.org/1999/xlink">
<g id="graph1" class="graph" transform="scale(1 1) rotate(0) translate(4 200)">
<title>PIpcChannelListener</title>
<polygon fill="white" stroke="white" points="-4,5 -4,-200 340,-200 340,5 -4,5"/>
<!-- Node1 -->
<g id="node1" class="node"><title>Node1</title>
<polygon fill="#bfbfbf" stroke="black" points="51,-174.5 51,-195.5 167,-195.5 167,-174.5 51,-174.5"/>
<text text-anchor="middle" x="109" y="-182.5" font-family="Helvetica,sans-Serif" font-size="10.00">PIpcChannelListener</text>
</g>
<!-- Node2 -->
<g id="node3" class="node"><title>Node2</title>
<a xlink:href="classWebAppManager.htm" target="_top" xlink:title="WebAppManager">
<polygon fill="white" stroke="black" points="-0.5,-116.5 -0.5,-137.5 98.5,-137.5 98.5,-116.5 -0.5,-116.5"/>
<text text-anchor="middle" x="49" y="-124.5" font-family="Helvetica,sans-Serif" font-size="10.00">WebAppManager</text>
</a>
</g>
<!-- Node1&#45;&gt;Node2 -->
<g id="edge2" class="edge"><title>Node1&#45;&gt;Node2</title>
<path fill="none" stroke="midnightblue" d="M90.7983,-167.405C80.7259,-157.668 68.5428,-145.891 59.9352,-137.571"/>
<polygon fill="midnightblue" stroke="midnightblue" points="88.3726,-169.928 97.9951,-174.362 93.2378,-164.895 88.3726,-169.928"/>
</g>
<!-- Node3 -->
<g id="node5" class="node"><title>Node3</title>
<a xlink:href="classWindowedWebApp.htm" target="_top" xlink:title="WindowedWebApp">
<polygon fill="white" stroke="black" points="116,-116.5 116,-137.5 222,-137.5 222,-116.5 116,-116.5"/>
<text text-anchor="middle" x="169" y="-124.5" font-family="Helvetica,sans-Serif" font-size="10.00">WindowedWebApp</text>
</a>
</g>
<!-- Node1&#45;&gt;Node3 -->
<g id="edge4" class="edge"><title>Node1&#45;&gt;Node3</title>
<path fill="none" stroke="midnightblue" d="M127.202,-167.405C137.274,-157.668 149.457,-145.891 158.065,-137.571"/>
<polygon fill="midnightblue" stroke="midnightblue" points="124.762,-164.895 120.005,-174.362 129.627,-169.928 124.762,-164.895"/>
</g>
<!-- Node4 -->
<g id="node7" class="node"><title>Node4</title>
<a xlink:href="classAlertWebApp.htm" target="_top" xlink:title="AlertWebApp">
<polygon fill="white" stroke="black" points="33,-58.5 33,-79.5 111,-79.5 111,-58.5 33,-58.5"/>
<text text-anchor="middle" x="72" y="-66.5" font-family="Helvetica,sans-Serif" font-size="10.00">AlertWebApp</text>
</a>
</g>
<!-- Node3&#45;&gt;Node4 -->
<g id="edge6" class="edge"><title>Node3&#45;&gt;Node4</title>
<path fill="none" stroke="midnightblue" d="M142.41,-111.101C125.627,-101.066 104.413,-88.3808 89.6785,-79.5707"/>
<polygon fill="midnightblue" stroke="midnightblue" points="140.83,-114.234 151.209,-116.362 144.422,-108.226 140.83,-114.234"/>
</g>
<!-- Node5 -->
<g id="node9" class="node"><title>Node5</title>
<a xlink:href="classCardWebApp.htm" target="_top" xlink:title="CardWebApp">
<polygon fill="white" stroke="black" points="129,-58.5 129,-79.5 209,-79.5 209,-58.5 129,-58.5"/>
<text text-anchor="middle" x="169" y="-66.5" font-family="Helvetica,sans-Serif" font-size="10.00">CardWebApp</text>
</a>
</g>
<!-- Node3&#45;&gt;Node5 -->
<g id="edge8" class="edge"><title>Node3&#45;&gt;Node5</title>
<path fill="none" stroke="midnightblue" d="M169,-106.191C169,-97.1684 169,-86.9941 169,-79.5707"/>
<polygon fill="midnightblue" stroke="midnightblue" points="165.5,-106.362 169,-116.362 172.5,-106.362 165.5,-106.362"/>
</g>
<!-- Node7 -->
<g id="node13" class="node"><title>Node7</title>
<a xlink:href="classDashboardWebApp.htm" target="_top" xlink:title="DashboardWebApp">
<polygon fill="white" stroke="black" points="227,-58.5 227,-79.5 335,-79.5 335,-58.5 227,-58.5"/>
<text text-anchor="middle" x="281" y="-66.5" font-family="Helvetica,sans-Serif" font-size="10.00">DashboardWebApp</text>
</a>
</g>
<!-- Node3&#45;&gt;Node7 -->
<g id="edge12" class="edge"><title>Node3&#45;&gt;Node7</title>
<path fill="none" stroke="midnightblue" d="M198.363,-111.794C217.904,-101.675 243.086,-88.6338 260.49,-79.6212"/>
<polygon fill="midnightblue" stroke="midnightblue" points="196.553,-108.79 189.282,-116.497 199.772,-115.006 196.553,-108.79"/>
</g>
<!-- Node6 -->
<g id="node11" class="node"><title>Node6</title>
<a xlink:href="classDockWebApp.htm" target="_top" xlink:title="DockWebApp">
<polygon fill="white" stroke="black" points="129,-0.5 129,-21.5 209,-21.5 209,-0.5 129,-0.5"/>
<text text-anchor="middle" x="169" y="-8.5" font-family="Helvetica,sans-Serif" font-size="10.00">DockWebApp</text>
</a>
</g>
<!-- Node5&#45;&gt;Node6 -->
<g id="edge10" class="edge"><title>Node5&#45;&gt;Node6</title>
<path fill="none" stroke="midnightblue" d="M169,-48.1906C169,-39.1684 169,-28.9941 169,-21.5707"/>
<polygon fill="midnightblue" stroke="midnightblue" points="165.5,-48.3619 169,-58.3619 172.5,-48.3619 165.5,-48.3619"/>
</g>
</g>
</svg>
