<?xml version="1.0" encoding="UTF-8" standalone="no"?>
<!DOCTYPE svg PUBLIC "-//W3C//DTD SVG 1.1//EN"
 "http://www.w3.org/Graphics/SVG/1.1/DTD/svg11.dtd">
<!-- Generated by graphviz version 2.26.3 (20100126.1600)
 -->
<!-- Title: PGLES2ContextTextureShared Pages: 1 -->
<svg width="694pt" height="248pt"
 viewBox="0.00 0.00 694.00 248.00" xmlns="http://www.w3.org/2000/svg" xmlns:xlink="http://www.w3.org/1999/xlink">
<g id="graph1" class="graph" transform="scale(1 1) rotate(0) translate(4 244)">
<title>PGLES2ContextTextureShared</title>
<polygon fill="white" stroke="white" points="-4,5 -4,-244 691,-244 691,5 -4,5"/>
<!-- Node1 -->
<g id="node1" class="node"><title>Node1</title>
<polygon fill="#bfbfbf" stroke="black" points="522,-65.5 522,-86.5 686,-86.5 686,-65.5 522,-65.5"/>
<text text-anchor="middle" x="604" y="-73.5" font-family="Helvetica,sans-Serif" font-size="10.00">PGLES2ContextTextureShared</text>
</g>
<!-- Node2 -->
<g id="node2" class="node"><title>Node2</title>
<a xlink:href="classPGLES2Context.htm" target="_top" xlink:title="PGLES2Context">
<polygon fill="white" stroke="black" points="297,-98.5 297,-119.5 391,-119.5 391,-98.5 297,-98.5"/>
<text text-anchor="middle" x="344" y="-106.5" font-family="Helvetica,sans-Serif" font-size="10.00">PGLES2Context</text>
</a>
</g>
<!-- Node2&#45;&gt;Node1 -->
<g id="edge2" class="edge"><title>Node2&#45;&gt;Node1</title>
<path fill="none" stroke="midnightblue" d="M401.207,-96.6048C413.933,-94.1476 427.389,-91.7807 440,-90 466.456,-86.2643 495.464,-83.3899 521.63,-81.246"/>
<polygon fill="midnightblue" stroke="midnightblue" points="400.319,-93.2125 391.188,-98.5853 401.677,-100.08 400.319,-93.2125"/>
</g>
<!-- Node6 -->
<g id="node10" class="node"><title>Node6</title>
<a xlink:href="classRemoteWindowDataSoftwareOpenGLComposited.htm" target="_top" xlink:title="RemoteWindowDataSoftware\lOpenGLComposited">
<polygon fill="white" stroke="black" points="526.5,-128 526.5,-162 681.5,-162 681.5,-128 526.5,-128"/>
<text text-anchor="start" x="534.5" y="-149" font-family="Helvetica,sans-Serif" font-size="10.00">RemoteWindowDataSoftware</text>
<text text-anchor="middle" x="604" y="-136" font-family="Helvetica,sans-Serif" font-size="10.00">OpenGLComposited</text>
</a>
</g>
<!-- Node2&#45;&gt;Node6 -->
<g id="edge14" class="edge"><title>Node2&#45;&gt;Node6</title>
<path fill="none" stroke="#9a32cd" stroke-dasharray="5,2" d="M401.367,-117.476C414.084,-119.324 427.496,-121.25 440,-123 468.165,-126.943 499.073,-131.126 526.39,-134.774"/>
<polygon fill="#9a32cd" stroke="#9a32cd" points="401.749,-113.994 391.348,-116.015 400.739,-120.921 401.749,-113.994"/>
<text text-anchor="middle" x="472" y="-135" font-family="Helvetica,sans-Serif" font-size="10.00"> m_glContext</text>
</g>
<!-- Node3 -->
<g id="node4" class="node"><title>Node3</title>
<polygon fill="white" stroke="#bfbfbf" points="0,-218.5 0,-239.5 136,-239.5 136,-218.5 0,-218.5"/>
<text text-anchor="middle" x="68" y="-226.5" font-family="Helvetica,sans-Serif" font-size="10.00">Palm::WebGLES2Context</text>
</g>
<!-- Node3&#45;&gt;Node2 -->
<g id="edge4" class="edge"><title>Node3&#45;&gt;Node2</title>
<path fill="none" stroke="midnightblue" d="M146.349,-234.905C180.903,-233.49 219.944,-225.89 248,-203 266.3,-188.069 250.76,-171.043 266,-153 278.841,-137.797 298.341,-126.797 314.631,-119.597"/>
<polygon fill="midnightblue" stroke="midnightblue" points="146.173,-231.408 136.262,-235.152 146.345,-238.406 146.173,-231.408"/>
</g>
<!-- Node4 -->
<g id="node6" class="node"><title>Node4</title>
<polygon fill="white" stroke="#bfbfbf" points="10,-178.5 10,-199.5 126,-199.5 126,-178.5 10,-178.5"/>
<text text-anchor="middle" x="68" y="-186.5" font-family="Helvetica,sans-Serif" font-size="10.00">WebGLES2Context *</text>
</g>
<!-- Node4&#45;&gt;Node2 -->
<g id="edge6" class="edge"><title>Node4&#45;&gt;Node2</title>
<path fill="none" stroke="#9a32cd" stroke-dasharray="5,2" d="M136.145,-188.221C170.677,-185.873 212.666,-179.961 248,-166 257.178,-162.374 257.689,-158.321 266,-153 285.116,-140.759 307.798,-128.169 323.761,-119.61"/>
<polygon fill="#9a32cd" stroke="#9a32cd" points="135.924,-184.727 126.15,-188.816 136.341,-191.715 135.924,-184.727"/>
<text text-anchor="middle" x="201" y="-190" font-family="Helvetica,sans-Serif" font-size="10.00"> m_parent</text>
</g>
<!-- Node5 -->
<g id="node8" class="node"><title>Node5</title>
<polygon fill="white" stroke="#bfbfbf" points="53.5,-120.5 53.5,-141.5 82.5,-141.5 82.5,-120.5 53.5,-120.5"/>
<text text-anchor="middle" x="68" y="-128.5" font-family="Helvetica,sans-Serif" font-size="10.00">int</text>
</g>
<!-- Node5&#45;&gt;Node2 -->
<g id="edge8" class="edge"><title>Node5&#45;&gt;Node2</title>
<path fill="none" stroke="#9a32cd" stroke-dasharray="5,2" d="M92.821,-129.022C138.78,-125.358 237.814,-117.464 296.872,-112.757"/>
<polygon fill="#9a32cd" stroke="#9a32cd" points="92.5292,-125.534 82.839,-129.817 93.0855,-132.511 92.5292,-125.534"/>
<text text-anchor="middle" x="201" y="-153" font-family="Helvetica,sans-Serif" font-size="10.00"> m_rotationDegrees</text>
<text text-anchor="middle" x="201" y="-140" font-family="Helvetica,sans-Serif" font-size="10.00">m_xOffset</text>
<text text-anchor="middle" x="201" y="-127" font-family="Helvetica,sans-Serif" font-size="10.00">m_yOffset</text>
</g>
<!-- Node6&#45;&gt;Node2 -->
<g id="edge10" class="edge"><title>Node6&#45;&gt;Node2</title>
<path fill="none" stroke="#9a32cd" stroke-dasharray="5,2" d="M555.221,-124.31C539.2,-118.5 521.11,-112.963 504,-110 466.502,-103.507 423.316,-103.677 391.269,-105.238"/>
<polygon fill="#9a32cd" stroke="#9a32cd" points="554.309,-127.706 564.901,-127.943 556.768,-121.153 554.309,-127.706"/>
<text text-anchor="middle" x="472" y="-114" font-family="Helvetica,sans-Serif" font-size="10.00"> m_data</text>
</g>
<!-- Node7 -->
<g id="node12" class="node"><title>Node7</title>
<a xlink:href="classRemoteWindowDataSoftware.htm" target="_top" xlink:title="RemoteWindowDataSoftware">
<polygon fill="white" stroke="black" points="266.5,-162.5 266.5,-183.5 421.5,-183.5 421.5,-162.5 266.5,-162.5"/>
<text text-anchor="middle" x="344" y="-170.5" font-family="Helvetica,sans-Serif" font-size="10.00">RemoteWindowDataSoftware</text>
</a>
</g>
<!-- Node7&#45;&gt;Node6 -->
<g id="edge12" class="edge"><title>Node7&#45;&gt;Node6</title>
<path fill="none" stroke="midnightblue" d="M432.058,-166.12C455.465,-164.066 480.711,-161.647 504,-159 511.229,-158.178 518.741,-157.255 526.256,-156.285"/>
<polygon fill="midnightblue" stroke="midnightblue" points="431.461,-162.658 421.8,-167.007 432.064,-169.632 431.461,-162.658"/>
</g>
<!-- Node8 -->
<g id="node15" class="node"><title>Node8</title>
<polygon fill="white" stroke="#bfbfbf" points="23.5,-80.5 23.5,-101.5 112.5,-101.5 112.5,-80.5 23.5,-80.5"/>
<text text-anchor="middle" x="68" y="-88.5" font-family="Helvetica,sans-Serif" font-size="10.00">NAppWindow *</text>
</g>
<!-- Node8&#45;&gt;Node2 -->
<g id="edge16" class="edge"><title>Node8&#45;&gt;Node2</title>
<path fill="none" stroke="#9a32cd" stroke-dasharray="5,2" d="M123.064,-88.8931C158.757,-88.122 206.218,-88.2121 248,-92 264.014,-93.4518 281.363,-96.1672 296.85,-99.0084"/>
<polygon fill="#9a32cd" stroke="#9a32cd" points="122.765,-85.3993 112.854,-89.1439 122.937,-92.3972 122.765,-85.3993"/>
<text text-anchor="middle" x="201" y="-96" font-family="Helvetica,sans-Serif" font-size="10.00"> m_nappWindow</text>
</g>
<!-- Node9 -->
<g id="node17" class="node"><title>Node9</title>
<polygon fill="white" stroke="#bfbfbf" points="21,-40.5 21,-61.5 115,-61.5 115,-40.5 21,-40.5"/>
<text text-anchor="middle" x="68" y="-48.5" font-family="Helvetica,sans-Serif" font-size="10.00">PGLESPixmap *</text>
</g>
<!-- Node9&#45;&gt;Node2 -->
<g id="edge18" class="edge"><title>Node9&#45;&gt;Node2</title>
<path fill="none" stroke="#9a32cd" stroke-dasharray="5,2" d="M125.456,-53.4817C161.145,-55.9797 207.732,-60.9841 248,-71 274.266,-77.5332 302.946,-89.5801 322.054,-98.3632"/>
<polygon fill="#9a32cd" stroke="#9a32cd" points="125.429,-49.9726 115.222,-52.8128 124.972,-56.9577 125.429,-49.9726"/>
<text text-anchor="middle" x="201" y="-75" font-family="Helvetica,sans-Serif" font-size="10.00"> m_glPixmap</text>
</g>
<!-- Node10 -->
<g id="node19" class="node"><title>Node10</title>
<polygon fill="white" stroke="#bfbfbf" points="34,-0.5 34,-21.5 102,-21.5 102,-0.5 34,-0.5"/>
<text text-anchor="middle" x="68" y="-8.5" font-family="Helvetica,sans-Serif" font-size="10.00">WebView *</text>
</g>
<!-- Node10&#45;&gt;Node2 -->
<g id="edge20" class="edge"><title>Node10&#45;&gt;Node2</title>
<path fill="none" stroke="#9a32cd" stroke-dasharray="5,2" d="M112.206,-12.0841C149.636,-14.3407 204.057,-20.825 248,-39 282.691,-53.3481 316.577,-82.6753 333.269,-98.4311"/>
<polygon fill="#9a32cd" stroke="#9a32cd" points="112.293,-8.58392 102.123,-11.5535 111.925,-15.5742 112.293,-8.58392"/>
<text text-anchor="middle" x="201" y="-43" font-family="Helvetica,sans-Serif" font-size="10.00"> m_view</text>
</g>
</g>
</svg>
