<?xml version="1.0" encoding="UTF-8" standalone="no"?>
<!DOCTYPE svg PUBLIC "-//W3C//DTD SVG 1.1//EN"
 "http://www.w3.org/Graphics/SVG/1.1/DTD/svg11.dtd">
<!-- Generated by graphviz version 2.26.3 (20100126.1600)
 -->
<!-- Title: RemoteWindowDataSoftwareTextureShared Pages: 1 -->
<svg width="1098pt" height="216pt"
 viewBox="0.00 0.00 1098.00 216.00" xmlns="http://www.w3.org/2000/svg" xmlns:xlink="http://www.w3.org/1999/xlink">
<g id="graph1" class="graph" transform="scale(1 1) rotate(0) translate(4 212)">
<title>RemoteWindowDataSoftwareTextureShared</title>
<polygon fill="white" stroke="white" points="-4,5 -4,-212 1095,-212 1095,5 -4,5"/>
<!-- Node1 -->
<g id="node1" class="node"><title>Node1</title>
<polygon fill="#bfbfbf" stroke="black" points="823.5,-1 823.5,-35 978.5,-35 978.5,-1 823.5,-1"/>
<text text-anchor="start" x="831.5" y="-22" font-family="Helvetica,sans-Serif" font-size="10.00">RemoteWindowDataSoftware</text>
<text text-anchor="middle" x="901" y="-9" font-family="Helvetica,sans-Serif" font-size="10.00">TextureShared</text>
</g>
<!-- Node2 -->
<g id="node2" class="node"><title>Node2</title>
<a xlink:href="classRemoteWindowDataSoftwareOpenGLComposited.htm" target="_top" xlink:title="RemoteWindowDataSoftware\lOpenGLComposited">
<polygon fill="white" stroke="black" points="662.5,-113 662.5,-147 817.5,-147 817.5,-113 662.5,-113"/>
<text text-anchor="start" x="670.5" y="-134" font-family="Helvetica,sans-Serif" font-size="10.00">RemoteWindowDataSoftware</text>
<text text-anchor="middle" x="740" y="-121" font-family="Helvetica,sans-Serif" font-size="10.00">OpenGLComposited</text>
</a>
</g>
<!-- Node2&#45;&gt;Node1 -->
<g id="edge2" class="edge"><title>Node2&#45;&gt;Node1</title>
<path fill="none" stroke="midnightblue" d="M782.266,-107.912C789.964,-103.52 797.824,-98.781 805,-94 832.774,-75.4955 862.588,-51.1033 881.494,-35.0048"/>
<polygon fill="midnightblue" stroke="midnightblue" points="780.378,-104.958 773.355,-112.891 783.792,-111.069 780.378,-104.958"/>
</g>
<!-- Node4 -->
<g id="node6" class="node"><title>Node4</title>
<a xlink:href="classPGLES2Context.htm" target="_top" xlink:title="PGLES2Context">
<polygon fill="white" stroke="black" points="414,-7.5 414,-28.5 508,-28.5 508,-7.5 414,-7.5"/>
<text text-anchor="middle" x="461" y="-15.5" font-family="Helvetica,sans-Serif" font-size="10.00">PGLES2Context</text>
</a>
</g>
<!-- Node2&#45;&gt;Node4 -->
<g id="edge14" class="edge"><title>Node2&#45;&gt;Node4</title>
<path fill="none" stroke="#9a32cd" stroke-dasharray="5,2" d="M692.87,-107.956C685.888,-103.777 679.024,-99.0978 673,-94 655.83,-79.4715 661.129,-65.831 642,-54 620.065,-40.4333 554.13,-29.6921 508.215,-23.5884"/>
<polygon fill="#9a32cd" stroke="#9a32cd" points="691.298,-111.088 701.723,-112.976 694.75,-104.999 691.298,-111.088"/>
<text text-anchor="middle" x="692.5" y="-71.5" font-family="Helvetica,sans-Serif" font-size="10.00"> m_data</text>
</g>
<!-- Node3 -->
<g id="node4" class="node"><title>Node3</title>
<a xlink:href="classRemoteWindowDataSoftware.htm" target="_top" xlink:title="RemoteWindowDataSoftware">
<polygon fill="white" stroke="black" points="662.5,-186.5 662.5,-207.5 817.5,-207.5 817.5,-186.5 662.5,-186.5"/>
<text text-anchor="middle" x="740" y="-194.5" font-family="Helvetica,sans-Serif" font-size="10.00">RemoteWindowDataSoftware</text>
</a>
</g>
<!-- Node3&#45;&gt;Node2 -->
<g id="edge4" class="edge"><title>Node3&#45;&gt;Node2</title>
<path fill="none" stroke="midnightblue" d="M740,-176.165C740,-166.797 740,-155.88 740,-147.014"/>
<polygon fill="midnightblue" stroke="midnightblue" points="736.5,-176.235 740,-186.235 743.5,-176.235 736.5,-176.235"/>
</g>
<!-- Node4&#45;&gt;Node2 -->
<g id="edge6" class="edge"><title>Node4&#45;&gt;Node2</title>
<path fill="none" stroke="#9a32cd" stroke-dasharray="5,2" d="M518.226,-22.8524C588.758,-29.3254 701.162,-41.4363 716,-54 733.213,-68.5741 738.236,-95.4002 739.614,-112.968"/>
<polygon fill="#9a32cd" stroke="#9a32cd" points="518.415,-19.3553 508.14,-21.9389 517.784,-26.3267 518.415,-19.3553"/>
<text text-anchor="middle" x="768.5" y="-71.5" font-family="Helvetica,sans-Serif" font-size="10.00"> m_glContext</text>
</g>
<!-- Node5 -->
<g id="node8" class="node"><title>Node5</title>
<polygon fill="white" stroke="#bfbfbf" points="0,-119.5 0,-140.5 136,-140.5 136,-119.5 0,-119.5"/>
<text text-anchor="middle" x="68" y="-127.5" font-family="Helvetica,sans-Serif" font-size="10.00">Palm::WebGLES2Context</text>
</g>
<!-- Node5&#45;&gt;Node4 -->
<g id="edge8" class="edge"><title>Node5&#45;&gt;Node4</title>
<path fill="none" stroke="midnightblue" d="M92.6023,-113.897C120.75,-96.2751 168.802,-68.5949 214,-54 281.425,-32.2279 363.477,-23.5818 413.969,-20.1762"/>
<polygon fill="midnightblue" stroke="midnightblue" points="90.4176,-111.138 83.8526,-119.454 94.1705,-117.047 90.4176,-111.138"/>
</g>
<!-- Node6 -->
<g id="node10" class="node"><title>Node6</title>
<polygon fill="white" stroke="#bfbfbf" points="154,-119.5 154,-140.5 270,-140.5 270,-119.5 154,-119.5"/>
<text text-anchor="middle" x="212" y="-127.5" font-family="Helvetica,sans-Serif" font-size="10.00">WebGLES2Context *</text>
</g>
<!-- Node6&#45;&gt;Node4 -->
<g id="edge10" class="edge"><title>Node6&#45;&gt;Node4</title>
<path fill="none" stroke="#9a32cd" stroke-dasharray="5,2" d="M213.709,-108.945C216.291,-91.5301 222.769,-67.5361 239,-54 264.863,-32.4315 356.669,-23.5843 413.807,-20.1076"/>
<polygon fill="#9a32cd" stroke="#9a32cd" points="210.187,-108.925 212.51,-119.262 217.141,-109.733 210.187,-108.925"/>
<text text-anchor="middle" x="263.5" y="-71.5" font-family="Helvetica,sans-Serif" font-size="10.00"> m_parent</text>
</g>
<!-- Node7 -->
<g id="node12" class="node"><title>Node7</title>
<polygon fill="white" stroke="#bfbfbf" points="287.5,-119.5 287.5,-140.5 316.5,-140.5 316.5,-119.5 287.5,-119.5"/>
<text text-anchor="middle" x="302" y="-127.5" font-family="Helvetica,sans-Serif" font-size="10.00">int</text>
</g>
<!-- Node7&#45;&gt;Node4 -->
<g id="edge12" class="edge"><title>Node7&#45;&gt;Node4</title>
<path fill="none" stroke="#9a32cd" stroke-dasharray="5,2" d="M295.209,-109.414C291.081,-92.6725 288.693,-69.3836 301,-54 314.962,-36.547 371.977,-26.9611 413.987,-22.1571"/>
<polygon fill="#9a32cd" stroke="#9a32cd" points="291.927,-110.666 298.037,-119.321 298.658,-108.745 291.927,-110.666"/>
<text text-anchor="middle" x="348" y="-84.5" font-family="Helvetica,sans-Serif" font-size="10.00"> m_rotationDegrees</text>
<text text-anchor="middle" x="348" y="-71.5" font-family="Helvetica,sans-Serif" font-size="10.00">m_xOffset</text>
<text text-anchor="middle" x="348" y="-58.5" font-family="Helvetica,sans-Serif" font-size="10.00">m_yOffset</text>
</g>
<!-- Node8 -->
<g id="node15" class="node"><title>Node8</title>
<polygon fill="white" stroke="#bfbfbf" points="358.5,-119.5 358.5,-140.5 447.5,-140.5 447.5,-119.5 358.5,-119.5"/>
<text text-anchor="middle" x="403" y="-127.5" font-family="Helvetica,sans-Serif" font-size="10.00">NAppWindow *</text>
</g>
<!-- Node8&#45;&gt;Node4 -->
<g id="edge16" class="edge"><title>Node8&#45;&gt;Node4</title>
<path fill="none" stroke="#9a32cd" stroke-dasharray="5,2" d="M399.302,-109.33C397.495,-93.2016 397.437,-70.7915 407,-54 413.357,-42.8383 424.76,-34.4786 435.455,-28.6387"/>
<polygon fill="#9a32cd" stroke="#9a32cd" points="395.854,-109.944 400.736,-119.347 402.784,-108.952 395.854,-109.944"/>
<text text-anchor="middle" x="446.5" y="-71.5" font-family="Helvetica,sans-Serif" font-size="10.00"> m_nappWindow</text>
</g>
<!-- Node9 -->
<g id="node17" class="node"><title>Node9</title>
<polygon fill="white" stroke="#bfbfbf" points="465,-119.5 465,-140.5 559,-140.5 559,-119.5 465,-119.5"/>
<text text-anchor="middle" x="512" y="-127.5" font-family="Helvetica,sans-Serif" font-size="10.00">PGLESPixmap *</text>
</g>
<!-- Node9&#45;&gt;Node4 -->
<g id="edge18" class="edge"><title>Node9&#45;&gt;Node4</title>
<path fill="none" stroke="#9a32cd" stroke-dasharray="5,2" d="M508.299,-109.176C504.956,-93.4109 499.136,-71.5501 490,-54 485.108,-44.603 477.551,-35.3254 471.378,-28.5424"/>
<polygon fill="#9a32cd" stroke="#9a32cd" points="504.95,-110.288 510.308,-119.428 511.82,-108.942 504.95,-110.288"/>
<text text-anchor="middle" x="535.5" y="-71.5" font-family="Helvetica,sans-Serif" font-size="10.00"> m_glPixmap</text>
</g>
<!-- Node10 -->
<g id="node19" class="node"><title>Node10</title>
<polygon fill="white" stroke="#bfbfbf" points="577,-119.5 577,-140.5 645,-140.5 645,-119.5 577,-119.5"/>
<text text-anchor="middle" x="611" y="-127.5" font-family="Helvetica,sans-Serif" font-size="10.00">WebView *</text>
</g>
<!-- Node10&#45;&gt;Node4 -->
<g id="edge20" class="edge"><title>Node10&#45;&gt;Node4</title>
<path fill="none" stroke="#9a32cd" stroke-dasharray="5,2" d="M604.79,-109.656C598.578,-92.5425 587.413,-68.5937 570,-54 552.511,-39.3429 528.861,-30.5953 508.061,-25.4032"/>
<polygon fill="#9a32cd" stroke="#9a32cd" points="601.523,-110.922 608.029,-119.284 608.157,-108.69 601.523,-110.922"/>
<text text-anchor="middle" x="618.5" y="-71.5" font-family="Helvetica,sans-Serif" font-size="10.00"> m_view</text>
</g>
<!-- Node11 -->
<g id="node21" class="node"><title>Node11</title>
<polygon fill="white" stroke="#bfbfbf" points="835,-119.5 835,-140.5 967,-140.5 967,-119.5 835,-119.5"/>
<text text-anchor="middle" x="901" y="-127.5" font-family="Helvetica,sans-Serif" font-size="10.00">NSharedWindowBuffer *</text>
</g>
<!-- Node11&#45;&gt;Node1 -->
<g id="edge22" class="edge"><title>Node11&#45;&gt;Node1</title>
<path fill="none" stroke="#9a32cd" stroke-dasharray="5,2" d="M901,-108.972C901,-87.59 901,-54.8655 901,-35.0446"/>
<polygon fill="#9a32cd" stroke="#9a32cd" points="897.5,-109.261 901,-119.261 904.5,-109.261 897.5,-109.261"/>
<text text-anchor="middle" x="949.5" y="-71.5" font-family="Helvetica,sans-Serif" font-size="10.00"> m_sharedWinBuffer</text>
</g>
<!-- Node12 -->
<g id="node23" class="node"><title>Node12</title>
<polygon fill="white" stroke="#bfbfbf" points="1003,-119.5 1003,-140.5 1039,-140.5 1039,-119.5 1003,-119.5"/>
<text text-anchor="middle" x="1021" y="-127.5" font-family="Helvetica,sans-Serif" font-size="10.00">bool</text>
</g>
<!-- Node12&#45;&gt;Node1 -->
<g id="edge24" class="edge"><title>Node12&#45;&gt;Node1</title>
<path fill="none" stroke="#9a32cd" stroke-dasharray="5,2" d="M1020.04,-109.492C1018.2,-92.6109 1013.06,-69.084 999,-54 991.585,-46.0446 982.262,-39.8407 972.334,-35.0044"/>
<polygon fill="#9a32cd" stroke="#9a32cd" points="1016.55,-109.781 1020.83,-119.47 1023.53,-109.224 1016.55,-109.781"/>
<text text-anchor="middle" x="1053.5" y="-78" font-family="Helvetica,sans-Serif" font-size="10.00"> m_mustPost</text>
<text text-anchor="middle" x="1053.5" y="-65" font-family="Helvetica,sans-Serif" font-size="10.00">m_lockedBuffer</text>
</g>
</g>
</svg>
