<?xml version="1.0" encoding="UTF-8" standalone="no"?>
<!DOCTYPE svg PUBLIC "-//W3C//DTD SVG 1.1//EN"
 "http://www.w3.org/Graphics/SVG/1.1/DTD/svg11.dtd">
<!-- Generated by graphviz version 2.26.3 (20100126.1600)
 -->
<!-- Title: RemoteWindowData Pages: 1 -->
<svg width="362pt" height="102pt"
 viewBox="0.00 0.00 362.00 102.00" xmlns="http://www.w3.org/2000/svg" xmlns:xlink="http://www.w3.org/1999/xlink">
<g id="graph1" class="graph" transform="scale(1 1) rotate(0) translate(4 98)">
<title>RemoteWindowData</title>
<polygon fill="white" stroke="white" points="-4,5 -4,-98 359,-98 359,5 -4,5"/>
<!-- Node1 -->
<g id="node1" class="node"><title>Node1</title>
<polygon fill="#bfbfbf" stroke="black" points="94.5,-0.5 94.5,-21.5 207.5,-21.5 207.5,-0.5 94.5,-0.5"/>
<text text-anchor="middle" x="151" y="-8.5" font-family="Helvetica,sans-Serif" font-size="10.00">RemoteWindowData</text>
</g>
<!-- Node2 -->
<g id="node2" class="node"><title>Node2</title>
<polygon fill="white" stroke="#bfbfbf" points="0,-72.5 0,-93.5 74,-93.5 74,-72.5 0,-72.5"/>
<text text-anchor="middle" x="37" y="-80.5" font-family="Helvetica,sans-Serif" font-size="10.00">PIpcBuffer *</text>
</g>
<!-- Node2&#45;&gt;Node1 -->
<g id="edge2" class="edge"><title>Node2&#45;&gt;Node1</title>
<path fill="none" stroke="#9a32cd" stroke-dasharray="5,2" d="M42.0584,-62.4697C44.955,-54.4899 49.3767,-45.8739 56,-40 63.5152,-33.3351 83.8645,-26.7305 103.811,-21.5116"/>
<polygon fill="#9a32cd" stroke="#9a32cd" points="38.6272,-61.7238 39.072,-72.3093 45.3255,-63.7568 38.6272,-61.7238"/>
<text text-anchor="middle" x="101.5" y="-44.5" font-family="Helvetica,sans-Serif" font-size="10.00"> m_metaDataBuffer</text>
</g>
<!-- Node3 -->
<g id="node4" class="node"><title>Node3</title>
<polygon fill="white" stroke="#bfbfbf" points="133,-72.5 133,-93.5 169,-93.5 169,-72.5 133,-72.5"/>
<text text-anchor="middle" x="151" y="-80.5" font-family="Helvetica,sans-Serif" font-size="10.00">bool</text>
</g>
<!-- Node3&#45;&gt;Node1 -->
<g id="edge4" class="edge"><title>Node3&#45;&gt;Node1</title>
<path fill="none" stroke="#9a32cd" stroke-dasharray="5,2" d="M151,-62.2348C151,-48.969 151,-32.3188 151,-21.6674"/>
<polygon fill="#9a32cd" stroke="#9a32cd" points="147.5,-62.3761 151,-72.3762 154.5,-62.3762 147.5,-62.3761"/>
<text text-anchor="middle" x="219" y="-44.5" font-family="Helvetica,sans-Serif" font-size="10.00"> m_supportsDirectRendering</text>
</g>
<!-- Node4 -->
<g id="node6" class="node"><title>Node4</title>
<polygon fill="white" stroke="#bfbfbf" points="267,-72.5 267,-93.5 353,-93.5 353,-72.5 267,-72.5"/>
<text text-anchor="middle" x="310" y="-80.5" font-family="Helvetica,sans-Serif" font-size="10.00">PIpcChannel *</text>
</g>
<!-- Node4&#45;&gt;Node1 -->
<g id="edge6" class="edge"><title>Node4&#45;&gt;Node1</title>
<path fill="none" stroke="#9a32cd" stroke-dasharray="5,2" d="M304.058,-62.9805C300.632,-54.7045 295.48,-45.7248 288,-40 275.306,-30.2849 239.505,-22.8986 207.684,-18.0121"/>
<polygon fill="#9a32cd" stroke="#9a32cd" points="300.779,-64.2067 307.422,-72.4603 307.376,-61.8656 300.779,-64.2067"/>
<text text-anchor="middle" x="326.5" y="-44.5" font-family="Helvetica,sans-Serif" font-size="10.00"> m_channel</text>
</g>
</g>
</svg>
