<?xml version="1.0" encoding="UTF-8" standalone="no"?>
<!DOCTYPE svg PUBLIC "-//W3C//DTD SVG 1.1//EN"
 "http://www.w3.org/Graphics/SVG/1.1/DTD/svg11.dtd">
<!-- Generated by graphviz version 2.26.3 (20100126.1600)
 -->
<!-- Title: RemoteWindowDataOpenGLQt Pages: 1 -->
<svg width="362pt" height="162pt"
 viewBox="0.00 0.00 362.00 162.00" xmlns="http://www.w3.org/2000/svg" xmlns:xlink="http://www.w3.org/1999/xlink">
<g id="graph1" class="graph" transform="scale(1 1) rotate(0) translate(4 158)">
<title>RemoteWindowDataOpenGLQt</title>
<polygon fill="white" stroke="white" points="-4,5 -4,-158 359,-158 359,5 -4,5"/>
<!-- Node1 -->
<g id="node1" class="node"><title>Node1</title>
<polygon fill="#bfbfbf" stroke="black" points="68.5,-0.5 68.5,-21.5 233.5,-21.5 233.5,-0.5 68.5,-0.5"/>
<text text-anchor="middle" x="151" y="-8.5" font-family="Helvetica,sans-Serif" font-size="10.00">RemoteWindowDataOpenGLQt</text>
</g>
<!-- Node2 -->
<g id="node2" class="node"><title>Node2</title>
<a xlink:href="classRemoteWindowData.htm" target="_top" xlink:title="RemoteWindowData">
<polygon fill="white" stroke="black" points="94.5,-60.5 94.5,-81.5 207.5,-81.5 207.5,-60.5 94.5,-60.5"/>
<text text-anchor="middle" x="151" y="-68.5" font-family="Helvetica,sans-Serif" font-size="10.00">RemoteWindowData</text>
</a>
</g>
<!-- Node2&#45;&gt;Node1 -->
<g id="edge2" class="edge"><title>Node2&#45;&gt;Node1</title>
<path fill="none" stroke="midnightblue" d="M151,-50.2312C151,-40.5922 151,-29.5444 151,-21.6339"/>
<polygon fill="midnightblue" stroke="midnightblue" points="147.5,-50.2732 151,-60.2732 154.5,-50.2732 147.5,-50.2732"/>
</g>
<!-- Node3 -->
<g id="node4" class="node"><title>Node3</title>
<polygon fill="white" stroke="#bfbfbf" points="0,-132.5 0,-153.5 74,-153.5 74,-132.5 0,-132.5"/>
<text text-anchor="middle" x="37" y="-140.5" font-family="Helvetica,sans-Serif" font-size="10.00">PIpcBuffer *</text>
</g>
<!-- Node3&#45;&gt;Node2 -->
<g id="edge4" class="edge"><title>Node3&#45;&gt;Node2</title>
<path fill="none" stroke="#9a32cd" stroke-dasharray="5,2" d="M42.0584,-122.47C44.955,-114.49 49.3767,-105.874 56,-100 63.5152,-93.3351 83.8645,-86.7305 103.811,-81.5116"/>
<polygon fill="#9a32cd" stroke="#9a32cd" points="38.6272,-121.724 39.072,-132.309 45.3255,-123.757 38.6272,-121.724"/>
<text text-anchor="middle" x="101.5" y="-104.5" font-family="Helvetica,sans-Serif" font-size="10.00"> m_metaDataBuffer</text>
</g>
<!-- Node4 -->
<g id="node6" class="node"><title>Node4</title>
<polygon fill="white" stroke="#bfbfbf" points="133,-132.5 133,-153.5 169,-153.5 169,-132.5 133,-132.5"/>
<text text-anchor="middle" x="151" y="-140.5" font-family="Helvetica,sans-Serif" font-size="10.00">bool</text>
</g>
<!-- Node4&#45;&gt;Node2 -->
<g id="edge6" class="edge"><title>Node4&#45;&gt;Node2</title>
<path fill="none" stroke="#9a32cd" stroke-dasharray="5,2" d="M151,-122.235C151,-108.969 151,-92.3188 151,-81.6674"/>
<polygon fill="#9a32cd" stroke="#9a32cd" points="147.5,-122.376 151,-132.376 154.5,-122.376 147.5,-122.376"/>
<text text-anchor="middle" x="219" y="-104.5" font-family="Helvetica,sans-Serif" font-size="10.00"> m_supportsDirectRendering</text>
</g>
<!-- Node5 -->
<g id="node8" class="node"><title>Node5</title>
<polygon fill="white" stroke="#bfbfbf" points="267,-132.5 267,-153.5 353,-153.5 353,-132.5 267,-132.5"/>
<text text-anchor="middle" x="310" y="-140.5" font-family="Helvetica,sans-Serif" font-size="10.00">PIpcChannel *</text>
</g>
<!-- Node5&#45;&gt;Node2 -->
<g id="edge8" class="edge"><title>Node5&#45;&gt;Node2</title>
<path fill="none" stroke="#9a32cd" stroke-dasharray="5,2" d="M304.058,-122.98C300.632,-114.704 295.48,-105.725 288,-100 275.306,-90.2849 239.505,-82.8986 207.684,-78.0121"/>
<polygon fill="#9a32cd" stroke="#9a32cd" points="300.779,-124.207 307.422,-132.46 307.376,-121.866 300.779,-124.207"/>
<text text-anchor="middle" x="326.5" y="-104.5" font-family="Helvetica,sans-Serif" font-size="10.00"> m_channel</text>
</g>
</g>
</svg>
