<?xml version="1.0" encoding="UTF-8" standalone="no"?>
<!DOCTYPE svg PUBLIC "-//W3C//DTD SVG 1.1//EN"
 "http://www.w3.org/Graphics/SVG/1.1/DTD/svg11.dtd">
<!-- Generated by graphviz version 2.26.3 (20100126.1600)
 -->
<!-- Title: WebAppFactory Pages: 1 -->
<svg width="268pt" height="88pt"
 viewBox="0.00 0.00 268.00 88.00" xmlns="http://www.w3.org/2000/svg" xmlns:xlink="http://www.w3.org/1999/xlink">
<g id="graph1" class="graph" transform="scale(1 1) rotate(0) translate(4 84)">
<title>WebAppFactory</title>
<polygon fill="white" stroke="white" points="-4,5 -4,-84 265,-84 265,5 -4,5"/>
<!-- Node1 -->
<g id="node1" class="node"><title>Node1</title>
<polygon fill="#bfbfbf" stroke="black" points="80,-58.5 80,-79.5 172,-79.5 172,-58.5 80,-58.5"/>
<text text-anchor="middle" x="126" y="-66.5" font-family="Helvetica,sans-Serif" font-size="10.00">WebAppFactory</text>
</g>
<!-- Node2 -->
<g id="node3" class="node"><title>Node2</title>
<a xlink:href="classWebAppFactoryLuna.htm" target="_top" xlink:title="WebAppFactoryLuna">
<polygon fill="white" stroke="black" points="-0.5,-0.5 -0.5,-21.5 114.5,-21.5 114.5,-0.5 -0.5,-0.5"/>
<text text-anchor="middle" x="57" y="-8.5" font-family="Helvetica,sans-Serif" font-size="10.00">WebAppFactoryLuna</text>
</a>
</g>
<!-- Node1&#45;&gt;Node2 -->
<g id="edge2" class="edge"><title>Node1&#45;&gt;Node2</title>
<path fill="none" stroke="midnightblue" d="M105.408,-51.6908C93.7599,-41.8996 79.5713,-29.973 69.5754,-21.5707"/>
<polygon fill="midnightblue" stroke="midnightblue" points="103.437,-54.6066 113.344,-58.3619 107.942,-49.2481 103.437,-54.6066"/>
</g>
<!-- Node3 -->
<g id="node5" class="node"><title>Node3</title>
<a xlink:href="classWebAppFactoryMinimal.htm" target="_top" xlink:title="WebAppFactoryMinimal">
<polygon fill="white" stroke="black" points="132,-0.5 132,-21.5 260,-21.5 260,-0.5 132,-0.5"/>
<text text-anchor="middle" x="196" y="-8.5" font-family="Helvetica,sans-Serif" font-size="10.00">WebAppFactoryMinimal</text>
</a>
</g>
<!-- Node1&#45;&gt;Node3 -->
<g id="edge4" class="edge"><title>Node1&#45;&gt;Node3</title>
<path fill="none" stroke="midnightblue" d="M146.547,-51.9753C158.427,-42.1315 173.003,-30.0545 183.242,-21.5707"/>
<polygon fill="midnightblue" stroke="midnightblue" points="144.306,-49.2866 138.839,-58.3619 148.772,-54.6768 144.306,-49.2866"/>
</g>
</g>
</svg>
