<?xml version="1.0" encoding="UTF-8" standalone="no"?>
<!DOCTYPE svg PUBLIC "-//W3C//DTD SVG 1.1//EN"
 "http://www.w3.org/Graphics/SVG/1.1/DTD/svg11.dtd">
<!-- Generated by graphviz version 2.26.3 (20100126.1600)
 -->
<!-- Title: RemoteWindowDataSoftwareOpenGLComposited Pages: 1 -->
<svg width="825pt" height="202pt"
 viewBox="0.00 0.00 825.00 202.00" xmlns="http://www.w3.org/2000/svg" xmlns:xlink="http://www.w3.org/1999/xlink">
<g id="graph1" class="graph" transform="scale(1 1) rotate(0) translate(4 198)">
<title>RemoteWindowDataSoftwareOpenGLComposited</title>
<polygon fill="white" stroke="white" points="-4,5 -4,-198 822,-198 822,5 -4,5"/>
<!-- Node1 -->
<g id="node1" class="node"><title>Node1</title>
<polygon fill="#bfbfbf" stroke="black" points="662.5,-99 662.5,-133 817.5,-133 817.5,-99 662.5,-99"/>
<text text-anchor="start" x="670.5" y="-120" font-family="Helvetica,sans-Serif" font-size="10.00">RemoteWindowDataSoftware</text>
<text text-anchor="middle" x="740" y="-107" font-family="Helvetica,sans-Serif" font-size="10.00">OpenGLComposited</text>
</g>
<!-- Node3 -->
<g id="node4" class="node"><title>Node3</title>
<a xlink:href="classPGLES2Context.htm" target="_top" xlink:title="PGLES2Context">
<polygon fill="white" stroke="black" points="414,-0.5 414,-21.5 508,-21.5 508,-0.5 414,-0.5"/>
<text text-anchor="middle" x="461" y="-8.5" font-family="Helvetica,sans-Serif" font-size="10.00">PGLES2Context</text>
</a>
</g>
<!-- Node1&#45;&gt;Node3 -->
<g id="edge12" class="edge"><title>Node1&#45;&gt;Node3</title>
<path fill="none" stroke="#9a32cd" stroke-dasharray="5,2" d="M692.939,-93.8741C685.948,-89.7059 679.064,-85.0511 673,-80 655.507,-65.4284 660.667,-51.468 641,-40 619.056,-27.2048 553.875,-19.0546 508.298,-14.7543"/>
<polygon fill="#9a32cd" stroke="#9a32cd" points="691.371,-97.0082 701.798,-98.8868 694.818,-90.9159 691.371,-97.0082"/>
<text text-anchor="middle" x="692.5" y="-57.5" font-family="Helvetica,sans-Serif" font-size="10.00"> m_data</text>
</g>
<!-- Node2 -->
<g id="node2" class="node"><title>Node2</title>
<a xlink:href="classRemoteWindowDataSoftware.htm" target="_top" xlink:title="RemoteWindowDataSoftware">
<polygon fill="white" stroke="black" points="662.5,-172.5 662.5,-193.5 817.5,-193.5 817.5,-172.5 662.5,-172.5"/>
<text text-anchor="middle" x="740" y="-180.5" font-family="Helvetica,sans-Serif" font-size="10.00">RemoteWindowDataSoftware</text>
</a>
</g>
<!-- Node2&#45;&gt;Node1 -->
<g id="edge2" class="edge"><title>Node2&#45;&gt;Node1</title>
<path fill="none" stroke="midnightblue" d="M740,-162.165C740,-152.797 740,-141.88 740,-133.014"/>
<polygon fill="midnightblue" stroke="midnightblue" points="736.5,-162.235 740,-172.235 743.5,-162.235 736.5,-162.235"/>
</g>
<!-- Node3&#45;&gt;Node1 -->
<g id="edge4" class="edge"><title>Node3&#45;&gt;Node1</title>
<path fill="none" stroke="#9a32cd" stroke-dasharray="5,2" d="M518.19,-14.2311C588.684,-18.7136 701.045,-27.6803 716,-40 733.408,-54.3403 738.378,-81.2304 739.691,-98.8751"/>
<polygon fill="#9a32cd" stroke="#9a32cd" points="518.309,-10.7318 508.11,-13.6025 517.873,-17.7182 518.309,-10.7318"/>
<text text-anchor="middle" x="767.5" y="-57.5" font-family="Helvetica,sans-Serif" font-size="10.00"> m_glContext</text>
</g>
<!-- Node4 -->
<g id="node6" class="node"><title>Node4</title>
<polygon fill="white" stroke="#bfbfbf" points="0,-105.5 0,-126.5 136,-126.5 136,-105.5 0,-105.5"/>
<text text-anchor="middle" x="68" y="-113.5" font-family="Helvetica,sans-Serif" font-size="10.00">Palm::WebGLES2Context</text>
</g>
<!-- Node4&#45;&gt;Node3 -->
<g id="edge6" class="edge"><title>Node4&#45;&gt;Node3</title>
<path fill="none" stroke="midnightblue" d="M91.9691,-99.6397C119.423,-81.7866 166.385,-53.8986 211,-40 247.71,-28.5639 352.108,-19.1454 413.772,-14.3756"/>
<polygon fill="midnightblue" stroke="midnightblue" points="89.8531,-96.8428 83.4381,-105.275 93.7112,-102.684 89.8531,-96.8428"/>
</g>
<!-- Node5 -->
<g id="node8" class="node"><title>Node5</title>
<polygon fill="white" stroke="#bfbfbf" points="154,-105.5 154,-126.5 270,-126.5 270,-105.5 154,-105.5"/>
<text text-anchor="middle" x="212" y="-113.5" font-family="Helvetica,sans-Serif" font-size="10.00">WebGLES2Context *</text>
</g>
<!-- Node5&#45;&gt;Node3 -->
<g id="edge8" class="edge"><title>Node5&#45;&gt;Node3</title>
<path fill="none" stroke="#9a32cd" stroke-dasharray="5,2" d="M212.979,-95.1395C214.984,-77.6464 220.755,-53.4318 237,-40 250.373,-28.9432 352.335,-19.3126 413.991,-14.4217"/>
<polygon fill="#9a32cd" stroke="#9a32cd" points="209.46,-95.2312 212.132,-105.483 216.436,-95.8023 209.46,-95.2312"/>
<text text-anchor="middle" x="261.5" y="-57.5" font-family="Helvetica,sans-Serif" font-size="10.00"> m_parent</text>
</g>
<!-- Node6 -->
<g id="node10" class="node"><title>Node6</title>
<polygon fill="white" stroke="#bfbfbf" points="287.5,-105.5 287.5,-126.5 316.5,-126.5 316.5,-105.5 287.5,-105.5"/>
<text text-anchor="middle" x="302" y="-113.5" font-family="Helvetica,sans-Serif" font-size="10.00">int</text>
</g>
<!-- Node6&#45;&gt;Node3 -->
<g id="edge10" class="edge"><title>Node6&#45;&gt;Node3</title>
<path fill="none" stroke="#9a32cd" stroke-dasharray="5,2" d="M294.277,-95.2758C289.473,-78.4515 286.348,-55.1185 299,-40 313.441,-22.7448 371.432,-15.7447 413.92,-12.9124"/>
<polygon fill="#9a32cd" stroke="#9a32cd" points="291.098,-96.8184 297.527,-105.24 297.753,-94.6478 291.098,-96.8184"/>
<text text-anchor="middle" x="346" y="-70.5" font-family="Helvetica,sans-Serif" font-size="10.00"> m_rotationDegrees</text>
<text text-anchor="middle" x="346" y="-57.5" font-family="Helvetica,sans-Serif" font-size="10.00">m_xOffset</text>
<text text-anchor="middle" x="346" y="-44.5" font-family="Helvetica,sans-Serif" font-size="10.00">m_yOffset</text>
</g>
<!-- Node7 -->
<g id="node13" class="node"><title>Node7</title>
<polygon fill="white" stroke="#bfbfbf" points="358.5,-105.5 358.5,-126.5 447.5,-126.5 447.5,-105.5 358.5,-105.5"/>
<text text-anchor="middle" x="403" y="-113.5" font-family="Helvetica,sans-Serif" font-size="10.00">NAppWindow *</text>
</g>
<!-- Node7&#45;&gt;Node3 -->
<g id="edge14" class="edge"><title>Node7&#45;&gt;Node3</title>
<path fill="none" stroke="#9a32cd" stroke-dasharray="5,2" d="M398.902,-95.3398C396.822,-79.0453 396.592,-56.4083 407,-40 412.13,-31.9126 420.327,-25.9273 428.801,-21.5657"/>
<polygon fill="#9a32cd" stroke="#9a32cd" points="395.485,-96.1362 400.53,-105.453 402.396,-95.0236 395.485,-96.1362"/>
<text text-anchor="middle" x="446.5" y="-57.5" font-family="Helvetica,sans-Serif" font-size="10.00"> m_nappWindow</text>
</g>
<!-- Node8 -->
<g id="node15" class="node"><title>Node8</title>
<polygon fill="white" stroke="#bfbfbf" points="465,-105.5 465,-126.5 559,-126.5 559,-105.5 465,-105.5"/>
<text text-anchor="middle" x="512" y="-113.5" font-family="Helvetica,sans-Serif" font-size="10.00">PGLESPixmap *</text>
</g>
<!-- Node8&#45;&gt;Node3 -->
<g id="edge16" class="edge"><title>Node8&#45;&gt;Node3</title>
<path fill="none" stroke="#9a32cd" stroke-dasharray="5,2" d="M508.92,-95.342C505.877,-79.3866 500.161,-57.2004 490,-40 485.944,-33.134 479.886,-26.7249 474.354,-21.6872"/>
<polygon fill="#9a32cd" stroke="#9a32cd" points="505.48,-95.9907 510.621,-105.255 512.379,-94.8069 505.48,-95.9907"/>
<text text-anchor="middle" x="535.5" y="-57.5" font-family="Helvetica,sans-Serif" font-size="10.00"> m_glPixmap</text>
</g>
<!-- Node9 -->
<g id="node17" class="node"><title>Node9</title>
<polygon fill="white" stroke="#bfbfbf" points="577,-105.5 577,-126.5 645,-126.5 645,-105.5 577,-105.5"/>
<text text-anchor="middle" x="611" y="-113.5" font-family="Helvetica,sans-Serif" font-size="10.00">WebView *</text>
</g>
<!-- Node9&#45;&gt;Node3 -->
<g id="edge18" class="edge"><title>Node9&#45;&gt;Node3</title>
<path fill="none" stroke="#9a32cd" stroke-dasharray="5,2" d="M605.1,-95.6792C599.044,-78.3815 587.933,-54.1509 570,-40 560.162,-32.2367 532.912,-24.9867 508.121,-19.6775"/>
<polygon fill="#9a32cd" stroke="#9a32cd" points="601.835,-96.9574 608.234,-105.401 608.497,-94.8099 601.835,-96.9574"/>
<text text-anchor="middle" x="617.5" y="-57.5" font-family="Helvetica,sans-Serif" font-size="10.00"> m_view</text>
</g>
</g>
</svg>
