<?xml version="1.0" encoding="UTF-8" standalone="no"?>
<!DOCTYPE svg PUBLIC "-//W3C//DTD SVG 1.1//EN"
 "http://www.w3.org/Graphics/SVG/1.1/DTD/svg11.dtd">
<!-- Generated by graphviz version 2.26.3 (20100126.1600)
 -->
<!-- Title: QObject Pages: 1 -->
<svg width="428pt" height="262pt"
 viewBox="0.00 0.00 428.00 262.00" xmlns="http://www.w3.org/2000/svg" xmlns:xlink="http://www.w3.org/1999/xlink">
<g id="graph1" class="graph" transform="scale(1 1) rotate(0) translate(4 258)">
<title>QObject</title>
<polygon fill="white" stroke="white" points="-4,5 -4,-258 425,-258 425,5 -4,5"/>
<!-- Node1 -->
<g id="node1" class="node"><title>Node1</title>
<polygon fill="#bfbfbf" stroke="black" points="116.5,-232.5 116.5,-253.5 171.5,-253.5 171.5,-232.5 116.5,-232.5"/>
<text text-anchor="middle" x="144" y="-240.5" font-family="Helvetica,sans-Serif" font-size="10.00">QObject</text>
</g>
<!-- Node2 -->
<g id="node3" class="node"><title>Node2</title>
<a xlink:href="classPalmSystem.htm" target="_top" xlink:title="PalmSystem">
<polygon fill="white" stroke="black" points="0,-174.5 0,-195.5 74,-195.5 74,-174.5 0,-174.5"/>
<text text-anchor="middle" x="37" y="-182.5" font-family="Helvetica,sans-Serif" font-size="10.00">PalmSystem</text>
</a>
</g>
<!-- Node1&#45;&gt;Node2 -->
<g id="edge2" class="edge"><title>Node1&#45;&gt;Node2</title>
<path fill="none" stroke="midnightblue" d="M115.437,-227.517C96.8073,-217.419 72.9801,-204.503 56.501,-195.571"/>
<polygon fill="midnightblue" stroke="midnightblue" points="113.915,-230.673 124.375,-232.362 117.251,-224.519 113.915,-230.673"/>
</g>
<!-- Node3 -->
<g id="node5" class="node"><title>Node3</title>
<a xlink:href="classSysMgrWebBridge.htm" target="_top" xlink:title="SysMgrWebBridge">
<polygon fill="white" stroke="black" points="92,-174.5 92,-195.5 196,-195.5 196,-174.5 92,-174.5"/>
<text text-anchor="middle" x="144" y="-182.5" font-family="Helvetica,sans-Serif" font-size="10.00">SysMgrWebBridge</text>
</a>
</g>
<!-- Node1&#45;&gt;Node3 -->
<g id="edge4" class="edge"><title>Node1&#45;&gt;Node3</title>
<path fill="none" stroke="midnightblue" d="M144,-222.191C144,-213.168 144,-202.994 144,-195.571"/>
<polygon fill="midnightblue" stroke="midnightblue" points="140.5,-222.362 144,-232.362 147.5,-222.362 140.5,-222.362"/>
</g>
<!-- Node4 -->
<g id="node7" class="node"><title>Node4</title>
<a xlink:href="classWebAppBase.htm" target="_top" xlink:title="WebAppBase">
<polygon fill="white" stroke="black" points="214,-174.5 214,-195.5 294,-195.5 294,-174.5 214,-174.5"/>
<text text-anchor="middle" x="254" y="-182.5" font-family="Helvetica,sans-Serif" font-size="10.00">WebAppBase</text>
</a>
</g>
<!-- Node1&#45;&gt;Node4 -->
<g id="edge6" class="edge"><title>Node1&#45;&gt;Node4</title>
<path fill="none" stroke="midnightblue" d="M172.839,-227.794C192.031,-217.675 216.764,-204.634 233.856,-195.621"/>
<polygon fill="midnightblue" stroke="midnightblue" points="171.133,-224.736 163.92,-232.497 174.398,-230.928 171.133,-224.736"/>
</g>
<!-- Node5 -->
<g id="node9" class="node"><title>Node5</title>
<a xlink:href="classWindowedWebApp.htm" target="_top" xlink:title="WindowedWebApp">
<polygon fill="white" stroke="black" points="201,-116.5 201,-137.5 307,-137.5 307,-116.5 201,-116.5"/>
<text text-anchor="middle" x="254" y="-124.5" font-family="Helvetica,sans-Serif" font-size="10.00">WindowedWebApp</text>
</a>
</g>
<!-- Node4&#45;&gt;Node5 -->
<g id="edge8" class="edge"><title>Node4&#45;&gt;Node5</title>
<path fill="none" stroke="midnightblue" d="M254,-164.191C254,-155.168 254,-144.994 254,-137.571"/>
<polygon fill="midnightblue" stroke="midnightblue" points="250.5,-164.362 254,-174.362 257.5,-164.362 250.5,-164.362"/>
</g>
<!-- Node6 -->
<g id="node11" class="node"><title>Node6</title>
<a xlink:href="classAlertWebApp.htm" target="_top" xlink:title="AlertWebApp">
<polygon fill="white" stroke="black" points="118,-58.5 118,-79.5 196,-79.5 196,-58.5 118,-58.5"/>
<text text-anchor="middle" x="157" y="-66.5" font-family="Helvetica,sans-Serif" font-size="10.00">AlertWebApp</text>
</a>
</g>
<!-- Node5&#45;&gt;Node6 -->
<g id="edge10" class="edge"><title>Node5&#45;&gt;Node6</title>
<path fill="none" stroke="midnightblue" d="M227.41,-111.101C210.627,-101.066 189.413,-88.3808 174.679,-79.5707"/>
<polygon fill="midnightblue" stroke="midnightblue" points="225.83,-114.234 236.209,-116.362 229.422,-108.226 225.83,-114.234"/>
</g>
<!-- Node7 -->
<g id="node13" class="node"><title>Node7</title>
<a xlink:href="classCardWebApp.htm" target="_top" xlink:title="CardWebApp">
<polygon fill="white" stroke="black" points="214,-58.5 214,-79.5 294,-79.5 294,-58.5 214,-58.5"/>
<text text-anchor="middle" x="254" y="-66.5" font-family="Helvetica,sans-Serif" font-size="10.00">CardWebApp</text>
</a>
</g>
<!-- Node5&#45;&gt;Node7 -->
<g id="edge12" class="edge"><title>Node5&#45;&gt;Node7</title>
<path fill="none" stroke="midnightblue" d="M254,-106.191C254,-97.1684 254,-86.9941 254,-79.5707"/>
<polygon fill="midnightblue" stroke="midnightblue" points="250.5,-106.362 254,-116.362 257.5,-106.362 250.5,-106.362"/>
</g>
<!-- Node9 -->
<g id="node17" class="node"><title>Node9</title>
<a xlink:href="classDashboardWebApp.htm" target="_top" xlink:title="DashboardWebApp">
<polygon fill="white" stroke="black" points="312,-58.5 312,-79.5 420,-79.5 420,-58.5 312,-58.5"/>
<text text-anchor="middle" x="366" y="-66.5" font-family="Helvetica,sans-Serif" font-size="10.00">DashboardWebApp</text>
</a>
</g>
<!-- Node5&#45;&gt;Node9 -->
<g id="edge16" class="edge"><title>Node5&#45;&gt;Node9</title>
<path fill="none" stroke="midnightblue" d="M283.363,-111.794C302.904,-101.675 328.086,-88.6338 345.49,-79.6212"/>
<polygon fill="midnightblue" stroke="midnightblue" points="281.553,-108.79 274.282,-116.497 284.772,-115.006 281.553,-108.79"/>
</g>
<!-- Node8 -->
<g id="node15" class="node"><title>Node8</title>
<a xlink:href="classDockWebApp.htm" target="_top" xlink:title="DockWebApp">
<polygon fill="white" stroke="black" points="214,-0.5 214,-21.5 294,-21.5 294,-0.5 214,-0.5"/>
<text text-anchor="middle" x="254" y="-8.5" font-family="Helvetica,sans-Serif" font-size="10.00">DockWebApp</text>
</a>
</g>
<!-- Node7&#45;&gt;Node8 -->
<g id="edge14" class="edge"><title>Node7&#45;&gt;Node8</title>
<path fill="none" stroke="midnightblue" d="M254,-48.1906C254,-39.1684 254,-28.9941 254,-21.5707"/>
<polygon fill="midnightblue" stroke="midnightblue" points="250.5,-48.3619 254,-58.3619 257.5,-48.3619 250.5,-48.3619"/>
</g>
</g>
</svg>
