<?xml version="1.0" encoding="UTF-8" standalone="no"?>
<!DOCTYPE svg PUBLIC "-//W3C//DTD SVG 1.1//EN"
 "http://www.w3.org/Graphics/SVG/1.1/DTD/svg11.dtd">
<!-- Generated by graphviz version 2.26.3 (20100126.1600)
 -->
<!-- Title: SysMgrWebBridge Pages: 1 -->
<svg width="158pt" height="88pt"
 viewBox="0.00 0.00 158.00 88.00" xmlns="http://www.w3.org/2000/svg" xmlns:xlink="http://www.w3.org/1999/xlink">
<g id="graph1" class="graph" transform="scale(1 1) rotate(0) translate(4 84)">
<title>SysMgrWebBridge</title>
<polygon fill="white" stroke="white" points="-4,5 -4,-84 155,-84 155,5 -4,5"/>
<!-- Node1 -->
<g id="node1" class="node"><title>Node1</title>
<polygon fill="#bfbfbf" stroke="black" points="17,-0.5 17,-21.5 121,-21.5 121,-0.5 17,-0.5"/>
<text text-anchor="middle" x="69" y="-8.5" font-family="Helvetica,sans-Serif" font-size="10.00">SysMgrWebBridge</text>
</g>
<!-- Node2 -->
<g id="node2" class="node"><title>Node2</title>
<a xlink:href="classQObject.htm" target="_top" xlink:title="QObject">
<polygon fill="white" stroke="black" points="-0.5,-58.5 -0.5,-79.5 54.5,-79.5 54.5,-58.5 -0.5,-58.5"/>
<text text-anchor="middle" x="27" y="-66.5" font-family="Helvetica,sans-Serif" font-size="10.00">QObject</text>
</a>
</g>
<!-- Node2&#45;&gt;Node1 -->
<g id="edge2" class="edge"><title>Node2&#45;&gt;Node1</title>
<path fill="none" stroke="midnightblue" d="M40.5773,-50.2504C47.4569,-40.75 55.5563,-29.5651 61.3454,-21.5707"/>
<polygon fill="midnightblue" stroke="midnightblue" points="37.7338,-48.2097 34.7034,-58.3619 43.4034,-52.3153 37.7338,-48.2097"/>
</g>
<!-- Node3 -->
<g id="node4" class="node"><title>Node3</title>
<a xlink:href="classProcessBase.htm" target="_top" xlink:title="ProcessBase">
<polygon fill="white" stroke="black" points="71.5,-58.5 71.5,-79.5 150.5,-79.5 150.5,-58.5 71.5,-58.5"/>
<text text-anchor="middle" x="111" y="-66.5" font-family="Helvetica,sans-Serif" font-size="10.00">ProcessBase</text>
</a>
</g>
<!-- Node3&#45;&gt;Node1 -->
<g id="edge4" class="edge"><title>Node3&#45;&gt;Node1</title>
<path fill="none" stroke="midnightblue" d="M97.4227,-50.2504C90.5431,-40.75 82.4437,-29.5651 76.6546,-21.5707"/>
<polygon fill="midnightblue" stroke="midnightblue" points="94.5966,-52.3153 103.297,-58.3619 100.266,-48.2097 94.5966,-52.3153"/>
</g>
</g>
</svg>
