<?xml version="1.0" encoding="UTF-8" standalone="no"?>
<!DOCTYPE svg PUBLIC "-//W3C//DTD SVG 1.1//EN"
 "http://www.w3.org/Graphics/SVG/1.1/DTD/svg11.dtd">
<!-- Generated by graphviz version 2.26.3 (20100126.1600)
 -->
<!-- Title: SyncTask Pages: 1 -->
<svg width="222pt" height="146pt"
 viewBox="0.00 0.00 222.00 146.00" xmlns="http://www.w3.org/2000/svg" xmlns:xlink="http://www.w3.org/1999/xlink">
<g id="graph1" class="graph" transform="scale(1 1) rotate(0) translate(4 142)">
<title>SyncTask</title>
<polygon fill="white" stroke="white" points="-4,5 -4,-142 219,-142 219,5 -4,5"/>
<!-- Node1 -->
<g id="node1" class="node"><title>Node1</title>
<polygon fill="#bfbfbf" stroke="black" points="75.5,-58.5 75.5,-79.5 138.5,-79.5 138.5,-58.5 75.5,-58.5"/>
<text text-anchor="middle" x="107" y="-66.5" font-family="Helvetica,sans-Serif" font-size="10.00">SyncTask</text>
</g>
<!-- Node3 -->
<g id="node5" class="node"><title>Node3</title>
<a xlink:href="classProcessManager.htm" target="_top" xlink:title="ProcessManager">
<polygon fill="white" stroke="black" points="0,-0.5 0,-21.5 98,-21.5 98,-0.5 0,-0.5"/>
<text text-anchor="middle" x="49" y="-8.5" font-family="Helvetica,sans-Serif" font-size="10.00">ProcessManager</text>
</a>
</g>
<!-- Node1&#45;&gt;Node3 -->
<g id="edge4" class="edge"><title>Node1&#45;&gt;Node3</title>
<path fill="none" stroke="midnightblue" d="M89.118,-51.118C79.4377,-41.4377 67.8098,-29.8098 59.5707,-21.5707"/>
<polygon fill="midnightblue" stroke="midnightblue" points="86.8159,-53.7657 96.3619,-58.3619 91.7657,-48.8159 86.8159,-53.7657"/>
</g>
<!-- Node4 -->
<g id="node7" class="node"><title>Node4</title>
<a xlink:href="classWebAppManager.htm" target="_top" xlink:title="WebAppManager">
<polygon fill="white" stroke="black" points="115.5,-0.5 115.5,-21.5 214.5,-21.5 214.5,-0.5 115.5,-0.5"/>
<text text-anchor="middle" x="165" y="-8.5" font-family="Helvetica,sans-Serif" font-size="10.00">WebAppManager</text>
</a>
</g>
<!-- Node1&#45;&gt;Node4 -->
<g id="edge6" class="edge"><title>Node1&#45;&gt;Node4</title>
<path fill="none" stroke="midnightblue" d="M124.882,-51.118C134.562,-41.4377 146.19,-29.8098 154.429,-21.5707"/>
<polygon fill="midnightblue" stroke="midnightblue" points="122.234,-48.8159 117.638,-58.3619 127.184,-53.7657 122.234,-48.8159"/>
</g>
<!-- Node2 -->
<g id="node2" class="node"><title>Node2</title>
<a xlink:href="classTaskBase.htm" target="_top" xlink:title="TaskBase">
<polygon fill="white" stroke="black" points="75,-116.5 75,-137.5 139,-137.5 139,-116.5 75,-116.5"/>
<text text-anchor="middle" x="107" y="-124.5" font-family="Helvetica,sans-Serif" font-size="10.00">TaskBase</text>
</a>
</g>
<!-- Node2&#45;&gt;Node1 -->
<g id="edge2" class="edge"><title>Node2&#45;&gt;Node1</title>
<path fill="none" stroke="midnightblue" d="M107,-106.191C107,-97.1684 107,-86.9941 107,-79.5707"/>
<polygon fill="midnightblue" stroke="midnightblue" points="103.5,-106.362 107,-116.362 110.5,-106.362 103.5,-106.362"/>
</g>
</g>
</svg>
