<?xml version="1.0" encoding="UTF-8" standalone="no"?>
<!DOCTYPE svg PUBLIC "-//W3C//DTD SVG 1.1//EN"
 "http://www.w3.org/Graphics/SVG/1.1/DTD/svg11.dtd">
<!-- Generated by graphviz version 2.26.3 (20100126.1600)
 -->
<!-- Title: RemoteWindowDataOpenGLTextureShared Pages: 1 -->
<svg width="362pt" height="176pt"
 viewBox="0.00 0.00 362.00 176.00" xmlns="http://www.w3.org/2000/svg" xmlns:xlink="http://www.w3.org/1999/xlink">
<g id="graph1" class="graph" transform="scale(1 1) rotate(0) translate(4 172)">
<title>RemoteWindowDataOpenGLTextureShared</title>
<polygon fill="white" stroke="white" points="-4,5 -4,-172 359,-172 359,5 -4,5"/>
<!-- Node1 -->
<g id="node1" class="node"><title>Node1</title>
<polygon fill="#bfbfbf" stroke="black" points="56,-1 56,-35 246,-35 246,-1 56,-1"/>
<text text-anchor="start" x="64" y="-22" font-family="Helvetica,sans-Serif" font-size="10.00">RemoteWindowDataOpenGLTexture</text>
<text text-anchor="middle" x="151" y="-9" font-family="Helvetica,sans-Serif" font-size="10.00">Shared</text>
</g>
<!-- Node2 -->
<g id="node2" class="node"><title>Node2</title>
<a xlink:href="classRemoteWindowData.htm" target="_top" xlink:title="RemoteWindowData">
<polygon fill="white" stroke="black" points="94.5,-74.5 94.5,-95.5 207.5,-95.5 207.5,-74.5 94.5,-74.5"/>
<text text-anchor="middle" x="151" y="-82.5" font-family="Helvetica,sans-Serif" font-size="10.00">RemoteWindowData</text>
</a>
</g>
<!-- Node2&#45;&gt;Node1 -->
<g id="edge2" class="edge"><title>Node2&#45;&gt;Node1</title>
<path fill="none" stroke="midnightblue" d="M151,-64.1655C151,-54.7973 151,-43.8796 151,-35.0139"/>
<polygon fill="midnightblue" stroke="midnightblue" points="147.5,-64.2353 151,-74.2353 154.5,-64.2353 147.5,-64.2353"/>
</g>
<!-- Node3 -->
<g id="node4" class="node"><title>Node3</title>
<polygon fill="white" stroke="#bfbfbf" points="0,-146.5 0,-167.5 74,-167.5 74,-146.5 0,-146.5"/>
<text text-anchor="middle" x="37" y="-154.5" font-family="Helvetica,sans-Serif" font-size="10.00">PIpcBuffer *</text>
</g>
<!-- Node3&#45;&gt;Node2 -->
<g id="edge4" class="edge"><title>Node3&#45;&gt;Node2</title>
<path fill="none" stroke="#9a32cd" stroke-dasharray="5,2" d="M42.0584,-136.47C44.955,-128.49 49.3767,-119.874 56,-114 63.5152,-107.335 83.8645,-100.731 103.811,-95.5116"/>
<polygon fill="#9a32cd" stroke="#9a32cd" points="38.6272,-135.724 39.072,-146.309 45.3255,-137.757 38.6272,-135.724"/>
<text text-anchor="middle" x="101.5" y="-118.5" font-family="Helvetica,sans-Serif" font-size="10.00"> m_metaDataBuffer</text>
</g>
<!-- Node4 -->
<g id="node6" class="node"><title>Node4</title>
<polygon fill="white" stroke="#bfbfbf" points="133,-146.5 133,-167.5 169,-167.5 169,-146.5 133,-146.5"/>
<text text-anchor="middle" x="151" y="-154.5" font-family="Helvetica,sans-Serif" font-size="10.00">bool</text>
</g>
<!-- Node4&#45;&gt;Node2 -->
<g id="edge6" class="edge"><title>Node4&#45;&gt;Node2</title>
<path fill="none" stroke="#9a32cd" stroke-dasharray="5,2" d="M151,-136.235C151,-122.969 151,-106.319 151,-95.6674"/>
<polygon fill="#9a32cd" stroke="#9a32cd" points="147.5,-136.376 151,-146.376 154.5,-136.376 147.5,-136.376"/>
<text text-anchor="middle" x="219" y="-118.5" font-family="Helvetica,sans-Serif" font-size="10.00"> m_supportsDirectRendering</text>
</g>
<!-- Node5 -->
<g id="node8" class="node"><title>Node5</title>
<polygon fill="white" stroke="#bfbfbf" points="267,-146.5 267,-167.5 353,-167.5 353,-146.5 267,-146.5"/>
<text text-anchor="middle" x="310" y="-154.5" font-family="Helvetica,sans-Serif" font-size="10.00">PIpcChannel *</text>
</g>
<!-- Node5&#45;&gt;Node2 -->
<g id="edge8" class="edge"><title>Node5&#45;&gt;Node2</title>
<path fill="none" stroke="#9a32cd" stroke-dasharray="5,2" d="M304.058,-136.98C300.632,-128.704 295.48,-119.725 288,-114 275.306,-104.285 239.505,-96.8986 207.684,-92.0121"/>
<polygon fill="#9a32cd" stroke="#9a32cd" points="300.779,-138.207 307.422,-146.46 307.376,-135.866 300.779,-138.207"/>
<text text-anchor="middle" x="326.5" y="-118.5" font-family="Helvetica,sans-Serif" font-size="10.00"> m_channel</text>
</g>
</g>
</svg>
