<?xml version="1.0" encoding="UTF-8" standalone="no"?>
<!DOCTYPE svg PUBLIC "-//W3C//DTD SVG 1.1//EN"
 "http://www.w3.org/Graphics/SVG/1.1/DTD/svg11.dtd">
<!-- Generated by graphviz version 2.26.3 (20100126.1600)
 -->
<!-- Title: DockWebApp Pages: 1 -->
<svg width="1068pt" height="977pt"
 viewBox="0.00 0.00 1068.00 976.80" xmlns="http://www.w3.org/2000/svg" xmlns:xlink="http://www.w3.org/1999/xlink">
<g id="graph1" class="graph" transform="scale(1 1) rotate(0) translate(4 972.803)">
<title>DockWebApp</title>
<polygon fill="white" stroke="white" points="-4,5 -4,-972.803 1065,-972.803 1065,5 -4,5"/>
<!-- Node1 -->
<g id="node1" class="node"><title>Node1</title>
<polygon fill="#bfbfbf" stroke="black" points="980,-379.792 980,-400.792 1060,-400.792 1060,-379.792 980,-379.792"/>
<text text-anchor="middle" x="1020" y="-387.792" font-family="Helvetica,sans-Serif" font-size="10.00">DockWebApp</text>
</g>
<!-- Node2 -->
<g id="node2" class="node"><title>Node2</title>
<a xlink:href="classCardWebApp.htm" target="_top" xlink:title="CardWebApp">
<polygon fill="white" stroke="black" points="862,-379.792 862,-400.792 942,-400.792 942,-379.792 862,-379.792"/>
<text text-anchor="middle" x="902" y="-387.792" font-family="Helvetica,sans-Serif" font-size="10.00">CardWebApp</text>
</a>
</g>
<!-- Node2&#45;&gt;Node1 -->
<g id="edge2" class="edge"><title>Node2&#45;&gt;Node1</title>
<path fill="none" stroke="midnightblue" d="M952.463,-390.292C961.632,-390.292 971.083,-390.292 979.903,-390.292"/>
<polygon fill="midnightblue" stroke="midnightblue" points="952.279,-386.792 942.279,-390.292 952.279,-393.792 952.279,-386.792"/>
</g>
<!-- Node2&#45;&gt;Node2 -->
<g id="edge58" class="edge"><title>Node2&#45;&gt;Node2</title>
<path fill="none" stroke="#9a32cd" stroke-dasharray="5,2" d="M891.378,-411.086C892.316,-415.821 895.856,-419.292 902,-419.292 912.082,-419.292 915.154,-409.945 911.216,-401"/>
<polygon fill="#9a32cd" stroke="#9a32cd" points="894.87,-411.388 892.784,-401 887.937,-410.421 894.87,-411.388"/>
<text text-anchor="middle" x="902" y="-436.292" font-family="Helvetica,sans-Serif" font-size="10.00"> m_childWebApp</text>
<text text-anchor="middle" x="902" y="-423.292" font-family="Helvetica,sans-Serif" font-size="10.00">m_parentWebApp</text>
</g>
<!-- Node3 -->
<g id="node4" class="node"><title>Node3</title>
<a xlink:href="classWindowedWebApp.htm" target="_top" xlink:title="WindowedWebApp">
<polygon fill="white" stroke="black" points="607,-438.792 607,-459.792 713,-459.792 713,-438.792 607,-438.792"/>
<text text-anchor="middle" x="660" y="-446.792" font-family="Helvetica,sans-Serif" font-size="10.00">WindowedWebApp</text>
</a>
</g>
<!-- Node3&#45;&gt;Node2 -->
<g id="edge4" class="edge"><title>Node3&#45;&gt;Node2</title>
<path fill="none" stroke="midnightblue" d="M723.744,-448.04C759.893,-445.688 805.464,-439.92 844,-426.292 860.536,-420.444 877.338,-409.326 888.571,-400.985"/>
<polygon fill="midnightblue" stroke="midnightblue" points="723.112,-444.57 713.33,-448.641 723.515,-451.559 723.112,-444.57"/>
</g>
<!-- Node4 -->
<g id="node6" class="node"><title>Node4</title>
<a xlink:href="classWebAppBase.htm" target="_top" xlink:title="WebAppBase">
<polygon fill="white" stroke="black" points="294,-934.792 294,-955.792 374,-955.792 374,-934.792 294,-934.792"/>
<text text-anchor="middle" x="334" y="-942.792" font-family="Helvetica,sans-Serif" font-size="10.00">WebAppBase</text>
</a>
</g>
<!-- Node4&#45;&gt;Node3 -->
<g id="edge6" class="edge"><title>Node4&#45;&gt;Node3</title>
<path fill="none" stroke="midnightblue" d="M380.335,-958.143C435.619,-970.391 527.41,-980.479 582,-931.292 618.605,-898.31 653.057,-527.668 659.074,-459.898"/>
<polygon fill="midnightblue" stroke="midnightblue" points="380.987,-954.702 370.454,-955.845 379.401,-961.52 380.987,-954.702"/>
</g>
<!-- Node5 -->
<g id="node8" class="node"><title>Node5</title>
<a xlink:href="classQObject.htm" target="_top" xlink:title="QObject">
<polygon fill="white" stroke="black" points="15.5,-934.792 15.5,-955.792 70.5,-955.792 70.5,-934.792 15.5,-934.792"/>
<text text-anchor="middle" x="43" y="-942.792" font-family="Helvetica,sans-Serif" font-size="10.00">QObject</text>
</a>
</g>
<!-- Node5&#45;&gt;Node4 -->
<g id="edge8" class="edge"><title>Node5&#45;&gt;Node4</title>
<path fill="none" stroke="midnightblue" d="M80.6509,-945.292C135.573,-945.292 237.241,-945.292 293.65,-945.292"/>
<polygon fill="midnightblue" stroke="midnightblue" points="80.639,-941.792 70.6389,-945.292 80.6389,-948.792 80.639,-941.792"/>
</g>
<!-- Node6 -->
<g id="node10" class="node"><title>Node6</title>
<a xlink:href="classPIpcChannelListener.htm" target="_top" xlink:title="PIpcChannelListener">
<polygon fill="white" stroke="black" points="276,-405.792 276,-426.792 392,-426.792 392,-405.792 276,-405.792"/>
<text text-anchor="middle" x="334" y="-413.792" font-family="Helvetica,sans-Serif" font-size="10.00">PIpcChannelListener</text>
</a>
</g>
<!-- Node6&#45;&gt;Node3 -->
<g id="edge10" class="edge"><title>Node6&#45;&gt;Node3</title>
<path fill="none" stroke="midnightblue" d="M402.565,-423.233C463.429,-429.394 551.109,-438.27 606.81,-443.908"/>
<polygon fill="midnightblue" stroke="midnightblue" points="402.584,-419.717 392.282,-422.192 401.879,-426.681 402.584,-419.717"/>
</g>
<!-- Node7 -->
<g id="node12" class="node"><title>Node7</title>
<a xlink:href="structWindowMetaData.htm" target="_top" xlink:title="WindowMetaData">
<polygon fill="white" stroke="black" points="283.5,-525.792 283.5,-546.792 384.5,-546.792 384.5,-525.792 283.5,-525.792"/>
<text text-anchor="middle" x="334" y="-533.792" font-family="Helvetica,sans-Serif" font-size="10.00">WindowMetaData</text>
</a>
</g>
<!-- Node7&#45;&gt;Node3 -->
<g id="edge12" class="edge"><title>Node7&#45;&gt;Node3</title>
<path fill="none" stroke="#9a32cd" stroke-dasharray="5,2" d="M394.859,-545.308C446.785,-550.32 522.298,-551.125 582,-525.292 614.449,-511.252 641.111,-477.171 653.127,-459.82"/>
<polygon fill="#9a32cd" stroke="#9a32cd" points="395.11,-541.815 384.8,-544.256 394.382,-548.777 395.11,-541.815"/>
<text text-anchor="middle" x="505" y="-551.292" font-family="Helvetica,sans-Serif" font-size="10.00"> m_metaData</text>
</g>
<!-- Node8 -->
<g id="node14" class="node"><title>Node8</title>
<polygon fill="white" stroke="#bfbfbf" points="28.5,-612.792 28.5,-633.792 57.5,-633.792 57.5,-612.792 28.5,-612.792"/>
<text text-anchor="middle" x="43" y="-620.792" font-family="Helvetica,sans-Serif" font-size="10.00">int</text>
</g>
<!-- Node8&#45;&gt;Node2 -->
<g id="edge50" class="edge"><title>Node8&#45;&gt;Node2</title>
<path fill="none" stroke="#9a32cd" stroke-dasharray="5,2" d="M65.9699,-639.605C141.755,-691.293 389.962,-843.537 582,-765.292 732.768,-703.863 748.712,-641.296 844,-509.292 870.366,-472.768 890.357,-422.416 898.28,-400.82"/>
<polygon fill="#9a32cd" stroke="#9a32cd" points="67.8152,-636.625 57.598,-633.822 63.8368,-642.385 67.8152,-636.625"/>
<text text-anchor="middle" x="505" y="-920.292" font-family="Helvetica,sans-Serif" font-size="10.00"> m_renderOffsetX</text>
<text text-anchor="middle" x="505" y="-907.292" font-family="Helvetica,sans-Serif" font-size="10.00">m_renderOffsetY</text>
<text text-anchor="middle" x="505" y="-894.292" font-family="Helvetica,sans-Serif" font-size="10.00">m_pendingResizeWidth</text>
<text text-anchor="middle" x="505" y="-881.292" font-family="Helvetica,sans-Serif" font-size="10.00">m_currAngleForAnim</text>
<text text-anchor="middle" x="505" y="-868.292" font-family="Helvetica,sans-Serif" font-size="10.00">m_appBufHeight</text>
<text text-anchor="middle" x="505" y="-855.292" font-family="Helvetica,sans-Serif" font-size="10.00">m_appBufWidth</text>
<text text-anchor="middle" x="505" y="-842.292" font-family="Helvetica,sans-Serif" font-size="10.00">m_pendingFullScreenMode</text>
<text text-anchor="middle" x="505" y="-829.292" font-family="Helvetica,sans-Serif" font-size="10.00">m_setWindowWidth</text>
<text text-anchor="middle" x="505" y="-816.292" font-family="Helvetica,sans-Serif" font-size="10.00">m_pendingResizeHeight</text>
<text text-anchor="middle" x="505" y="-803.292" font-family="Helvetica,sans-Serif" font-size="10.00">m_setWindowHeight</text>
<text text-anchor="middle" x="505" y="-790.292" font-family="Helvetica,sans-Serif" font-size="10.00">...</text>
</g>
<!-- Node8&#45;&gt;Node3 -->
<g id="edge24" class="edge"><title>Node8&#45;&gt;Node3</title>
<path fill="none" stroke="#9a32cd" stroke-dasharray="5,2" d="M67.7086,-625.761C161.643,-634.662 495.6,-661.747 582,-606.292 635.276,-572.098 653.471,-489.825 658.421,-460.175"/>
<polygon fill="#9a32cd" stroke="#9a32cd" points="68.0001,-622.273 57.7099,-624.796 67.3272,-629.241 68.0001,-622.273"/>
<text text-anchor="middle" x="334" y="-669.292" font-family="Helvetica,sans-Serif" font-size="10.00"> m_width</text>
<text text-anchor="middle" x="334" y="-656.292" font-family="Helvetica,sans-Serif" font-size="10.00">m_height</text>
<text text-anchor="middle" x="334" y="-643.292" font-family="Helvetica,sans-Serif" font-size="10.00">m_blockCount</text>
</g>
<!-- Node8&#45;&gt;Node7 -->
<g id="edge14" class="edge"><title>Node8&#45;&gt;Node7</title>
<path fill="none" stroke="#9a32cd" stroke-dasharray="5,2" d="M58.6909,-605.08C70.0293,-593.178 86.3947,-578.389 104,-570.292 161.575,-543.814 235.037,-537.025 283.245,-535.734"/>
<polygon fill="#9a32cd" stroke="#9a32cd" points="55.8525,-602.998 51.691,-612.741 61.0202,-607.719 55.8525,-602.998"/>
<text text-anchor="middle" x="172" y="-600.292" font-family="Helvetica,sans-Serif" font-size="10.00"> directRenderingOrientation</text>
<text text-anchor="middle" x="172" y="-587.292" font-family="Helvetica,sans-Serif" font-size="10.00">directRenderingScreenX</text>
<text text-anchor="middle" x="172" y="-574.292" font-family="Helvetica,sans-Serif" font-size="10.00">directRenderingScreenY</text>
</g>
<!-- Node9 -->
<g id="node16" class="node"><title>Node9</title>
<polygon fill="white" stroke="#bfbfbf" points="25,-248.792 25,-269.792 61,-269.792 61,-248.792 25,-248.792"/>
<text text-anchor="middle" x="43" y="-256.792" font-family="Helvetica,sans-Serif" font-size="10.00">bool</text>
</g>
<!-- Node9&#45;&gt;Node2 -->
<g id="edge54" class="edge"><title>Node9&#45;&gt;Node2</title>
<path fill="none" stroke="#9a32cd" stroke-dasharray="5,2" d="M44.0074,-280.441C47.6492,-348.622 62.1976,-561.234 104,-613.292 150.301,-670.954 185.439,-662.024 258,-676.292 324.286,-689.327 342.906,-684.178 410,-676.292 488.049,-667.118 510.386,-667.653 582,-635.292 711.901,-576.594 735.765,-543.056 844,-450.292 862.481,-434.453 881.684,-413.563 892.703,-401.073"/>
<polygon fill="#9a32cd" stroke="#9a32cd" points="47.4859,-279.926 43.4817,-270.117 40.4949,-280.282 47.4859,-279.926"/>
<text text-anchor="middle" x="505" y="-755.292" font-family="Helvetica,sans-Serif" font-size="10.00"> m_directRendering</text>
<text text-anchor="middle" x="505" y="-742.292" font-family="Helvetica,sans-Serif" font-size="10.00">m_renderingSuspended</text>
<text text-anchor="middle" x="505" y="-729.292" font-family="Helvetica,sans-Serif" font-size="10.00">m_lastPaintIPCBuffer</text>
<text text-anchor="middle" x="505" y="-716.292" font-family="Helvetica,sans-Serif" font-size="10.00">m_paintingDisabled</text>
<text text-anchor="middle" x="505" y="-703.292" font-family="Helvetica,sans-Serif" font-size="10.00">m_doPageUpDownInLandscape</text>
<text text-anchor="middle" x="505" y="-690.292" font-family="Helvetica,sans-Serif" font-size="10.00">m_enableFullScreen</text>
<text text-anchor="middle" x="505" y="-677.292" font-family="Helvetica,sans-Serif" font-size="10.00">m_allowsOrientationChange</text>
</g>
<!-- Node9&#45;&gt;Node3 -->
<g id="edge28" class="edge"><title>Node9&#45;&gt;Node3</title>
<path fill="none" stroke="#9a32cd" stroke-dasharray="5,2" d="M70.0491,-244.364C109.808,-223.361 187.013,-186.111 258,-172.292 324.311,-159.384 344.397,-156.166 410,-172.292 493.783,-192.888 533.424,-190.99 582,-262.292 624.031,-323.988 553.163,-371.161 600,-429.292 603.1,-433.14 606.964,-436.253 611.228,-438.77"/>
<polygon fill="#9a32cd" stroke="#9a32cd" points="68.3977,-241.278 61.2314,-249.082 71.6999,-247.45 68.3977,-241.278"/>
<text text-anchor="middle" x="334" y="-267.292" font-family="Helvetica,sans-Serif" font-size="10.00"> m_addedToWindowMgr</text>
<text text-anchor="middle" x="334" y="-254.292" font-family="Helvetica,sans-Serif" font-size="10.00">m_blockPenEvents</text>
<text text-anchor="middle" x="334" y="-241.292" font-family="Helvetica,sans-Serif" font-size="10.00">m_stagePreparing</text>
<text text-anchor="middle" x="334" y="-228.292" font-family="Helvetica,sans-Serif" font-size="10.00">m_beingDeleted</text>
<text text-anchor="middle" x="334" y="-215.292" font-family="Helvetica,sans-Serif" font-size="10.00">m_focused</text>
<text text-anchor="middle" x="334" y="-202.292" font-family="Helvetica,sans-Serif" font-size="10.00">m_stageReady</text>
<text text-anchor="middle" x="334" y="-189.292" font-family="Helvetica,sans-Serif" font-size="10.00">m_generateMouseClick</text>
<text text-anchor="middle" x="334" y="-176.292" font-family="Helvetica,sans-Serif" font-size="10.00">m_showPageStats</text>
</g>
<!-- Node9&#45;&gt;Node7 -->
<g id="edge16" class="edge"><title>Node9&#45;&gt;Node7</title>
<path fill="none" stroke="#9a32cd" stroke-dasharray="5,2" d="M53.4423,-278.626C80.4591,-326.739 157.613,-452.55 258,-516.292 265.602,-521.119 274.335,-524.787 283.112,-527.572"/>
<polygon fill="#9a32cd" stroke="#9a32cd" points="56.483,-276.892 48.5812,-269.835 50.357,-280.28 56.483,-276.892"/>
<text text-anchor="middle" x="172" y="-504.292" font-family="Helvetica,sans-Serif" font-size="10.00"> allowDirectRendering</text>
</g>
<!-- Node14 -->
<g id="node28" class="node"><title>Node14</title>
<a xlink:href="classRemoteWindowData.htm" target="_top" xlink:title="RemoteWindowData">
<polygon fill="white" stroke="black" points="277.5,-97.7923 277.5,-118.792 390.5,-118.792 390.5,-97.7923 277.5,-97.7923"/>
<text text-anchor="middle" x="334" y="-105.792" font-family="Helvetica,sans-Serif" font-size="10.00">RemoteWindowData</text>
</a>
</g>
<!-- Node9&#45;&gt;Node14 -->
<g id="edge34" class="edge"><title>Node9&#45;&gt;Node14</title>
<path fill="none" stroke="#9a32cd" stroke-dasharray="5,2" d="M47.4832,-238.714C54.5345,-211.649 70.9623,-164.783 104,-141.292 111.038,-136.288 211.582,-123.212 277.382,-115.103"/>
<polygon fill="#9a32cd" stroke="#9a32cd" points="44.0266,-238.118 45.0836,-248.66 50.8313,-239.76 44.0266,-238.118"/>
<text text-anchor="middle" x="172" y="-145.292" font-family="Helvetica,sans-Serif" font-size="10.00"> m_supportsDirectRendering</text>
</g>
<!-- Node10 -->
<g id="node18" class="node"><title>Node10</title>
<polygon fill="white" stroke="#bfbfbf" points="313.5,-565.792 313.5,-586.792 354.5,-586.792 354.5,-565.792 313.5,-565.792"/>
<text text-anchor="middle" x="334" y="-573.792" font-family="Helvetica,sans-Serif" font-size="10.00">Type</text>
</g>
<!-- Node10&#45;&gt;Node3 -->
<g id="edge18" class="edge"><title>Node10&#45;&gt;Node3</title>
<path fill="none" stroke="#9a32cd" stroke-dasharray="5,2" d="M364.644,-582.493C413.961,-590.797 512.439,-600.334 582,-561.292 623.12,-538.214 647.444,-483.338 656.237,-460.045"/>
<polygon fill="#9a32cd" stroke="#9a32cd" points="365.073,-579.014 354.613,-580.704 363.844,-585.905 365.073,-579.014"/>
<text text-anchor="middle" x="505" y="-593.292" font-family="Helvetica,sans-Serif" font-size="10.00"> m_winType</text>
</g>
<!-- Node11 -->
<g id="node20" class="node"><title>Node11</title>
<polygon fill="white" stroke="#bfbfbf" points="258.5,-445.792 258.5,-466.792 409.5,-466.792 409.5,-445.792 258.5,-445.792"/>
<text text-anchor="middle" x="334" y="-453.792" font-family="Helvetica,sans-Serif" font-size="10.00">Timer&lt; WindowedWebApp &gt;</text>
</g>
<!-- Node11&#45;&gt;Node3 -->
<g id="edge20" class="edge"><title>Node11&#45;&gt;Node3</title>
<path fill="none" stroke="#9a32cd" stroke-dasharray="5,2" d="M419.779,-450.606C422.551,-450.489 425.297,-450.384 428,-450.292 489.187,-448.209 559.504,-448.247 606.538,-448.622"/>
<polygon fill="#9a32cd" stroke="#9a32cd" points="419.484,-447.115 409.656,-451.071 419.806,-454.108 419.484,-447.115"/>
<text text-anchor="middle" x="505" y="-454.292" font-family="Helvetica,sans-Serif" font-size="10.00"> m_showWindowTimer</text>
</g>
<!-- Node12 -->
<g id="node22" class="node"><title>Node12</title>
<polygon fill="white" stroke="#bfbfbf" points="307,-485.792 307,-506.792 361,-506.792 361,-485.792 307,-485.792"/>
<text text-anchor="middle" x="334" y="-493.792" font-family="Helvetica,sans-Serif" font-size="10.00">uint32_t</text>
</g>
<!-- Node12&#45;&gt;Node3 -->
<g id="edge22" class="edge"><title>Node12&#45;&gt;Node3</title>
<path fill="none" stroke="#9a32cd" stroke-dasharray="5,2" d="M371.259,-491.869C419.845,-485.978 507.435,-474.939 582,-463.292 590.02,-462.04 598.486,-460.621 606.767,-459.179"/>
<polygon fill="#9a32cd" stroke="#9a32cd" points="370.723,-488.408 361.214,-493.08 371.561,-495.357 370.723,-488.408"/>
<text text-anchor="middle" x="505" y="-514.292" font-family="Helvetica,sans-Serif" font-size="10.00"> m_windowWidth</text>
<text text-anchor="middle" x="505" y="-501.292" font-family="Helvetica,sans-Serif" font-size="10.00">m_windowHeight</text>
<text text-anchor="middle" x="505" y="-488.292" font-family="Helvetica,sans-Serif" font-size="10.00">m_lastGestureEndTime</text>
</g>
<!-- Node13 -->
<g id="node25" class="node"><title>Node13</title>
<polygon fill="white" stroke="#bfbfbf" points="6,-39.7923 6,-60.7923 80,-60.7923 80,-39.7923 6,-39.7923"/>
<text text-anchor="middle" x="43" y="-47.7923" font-family="Helvetica,sans-Serif" font-size="10.00">PIpcBuffer *</text>
</g>
<!-- Node13&#45;&gt;Node3 -->
<g id="edge26" class="edge"><title>Node13&#45;&gt;Node3</title>
<path fill="none" stroke="#9a32cd" stroke-dasharray="5,2" d="M85.4043,-36.9668C187.782,-7.73181 449.753,49.0317 582,-88.2923 608.319,-115.621 577.011,-399.108 600,-429.292 602.927,-433.136 606.621,-436.249 610.731,-438.769"/>
<polygon fill="#9a32cd" stroke="#9a32cd" points="84.3409,-33.631 75.7184,-39.7876 86.2982,-40.3518 84.3409,-33.631"/>
<text text-anchor="middle" x="334" y="-10.2923" font-family="Helvetica,sans-Serif" font-size="10.00"> m_metaDataBuffer</text>
</g>
<!-- Node13&#45;&gt;Node14 -->
<g id="edge32" class="edge"><title>Node13&#45;&gt;Node14</title>
<path fill="none" stroke="#9a32cd" stroke-dasharray="5,2" d="M90.0992,-58.6718C130.065,-65.8937 188.888,-76.7863 240,-87.2923 255.724,-90.5244 272.874,-94.2855 288.169,-97.7244"/>
<polygon fill="#9a32cd" stroke="#9a32cd" points="90.5708,-55.2004 80.1086,-56.8719 89.3296,-62.0895 90.5708,-55.2004"/>
<text text-anchor="middle" x="172" y="-91.2923" font-family="Helvetica,sans-Serif" font-size="10.00"> m_metaDataBuffer</text>
</g>
<!-- Node14&#45;&gt;Node3 -->
<g id="edge30" class="edge"><title>Node14&#45;&gt;Node3</title>
<path fill="none" stroke="#9a32cd" stroke-dasharray="5,2" d="M390.924,-96.1551C447.912,-87.6923 533.854,-85.6225 582,-136.292 626.935,-183.582 560.252,-377.567 600,-429.292 602.944,-433.123 606.648,-436.228 610.765,-438.743"/>
<polygon fill="#9a32cd" stroke="#9a32cd" points="390.311,-92.7085 380.987,-97.7386 391.413,-99.6213 390.311,-92.7085"/>
<text text-anchor="middle" x="505" y="-140.292" font-family="Helvetica,sans-Serif" font-size="10.00"> m_data</text>
</g>
<!-- Node15 -->
<g id="node32" class="node"><title>Node15</title>
<polygon fill="white" stroke="#bfbfbf" points="0,-93.7923 0,-114.792 86,-114.792 86,-93.7923 0,-93.7923"/>
<text text-anchor="middle" x="43" y="-101.792" font-family="Helvetica,sans-Serif" font-size="10.00">PIpcChannel *</text>
</g>
<!-- Node15&#45;&gt;Node14 -->
<g id="edge36" class="edge"><title>Node15&#45;&gt;Node14</title>
<path fill="none" stroke="#9a32cd" stroke-dasharray="5,2" d="M96.278,-104.176C135.918,-104.184 191.344,-104.393 240,-105.292 252.08,-105.516 265.031,-105.861 277.34,-106.238"/>
<polygon fill="#9a32cd" stroke="#9a32cd" points="96.0445,-100.676 86.0453,-104.179 96.0462,-107.676 96.0445,-100.676"/>
<text text-anchor="middle" x="172" y="-109.292" font-family="Helvetica,sans-Serif" font-size="10.00"> m_channel</text>
</g>
<!-- Node16 -->
<g id="node34" class="node"><title>Node16</title>
<polygon fill="white" stroke="#bfbfbf" points="282.5,-285.792 282.5,-306.792 385.5,-306.792 385.5,-285.792 282.5,-285.792"/>
<text text-anchor="middle" x="334" y="-293.792" font-family="Helvetica,sans-Serif" font-size="10.00">WindowProperties</text>
</g>
<!-- Node16&#45;&gt;Node3 -->
<g id="edge38" class="edge"><title>Node16&#45;&gt;Node3</title>
<path fill="none" stroke="#9a32cd" stroke-dasharray="5,2" d="M373.547,-282.894C427.711,-267.306 524.761,-249.668 582,-300.292 625.363,-338.643 562.98,-384.788 600,-429.292 603.16,-433.091 607.063,-436.172 611.35,-438.671"/>
<polygon fill="#9a32cd" stroke="#9a32cd" points="372.529,-279.545 363.951,-285.764 374.535,-286.252 372.529,-279.545"/>
<text text-anchor="middle" x="505" y="-304.292" font-family="Helvetica,sans-Serif" font-size="10.00"> m_winProps</text>
</g>
<!-- Node17 -->
<g id="node36" class="node"><title>Node17</title>
<polygon fill="white" stroke="#bfbfbf" points="292.5,-365.792 292.5,-386.792 375.5,-386.792 375.5,-365.792 292.5,-365.792"/>
<text text-anchor="middle" x="334" y="-373.792" font-family="Helvetica,sans-Serif" font-size="10.00">PendingFocus</text>
</g>
<!-- Node17&#45;&gt;Node3 -->
<g id="edge40" class="edge"><title>Node17&#45;&gt;Node3</title>
<path fill="none" stroke="#9a32cd" stroke-dasharray="5,2" d="M385.918,-372.513C438.492,-370.993 520.587,-375.12 582,-408.292 592.816,-414.134 589.799,-422.433 600,-429.292 605.649,-433.091 612.082,-436.223 618.586,-438.788"/>
<polygon fill="#9a32cd" stroke="#9a32cd" points="385.676,-369.019 375.811,-372.885 385.933,-376.014 385.676,-369.019"/>
<text text-anchor="middle" x="505" y="-412.292" font-family="Helvetica,sans-Serif" font-size="10.00"> m_pendingFocus</text>
</g>
<!-- Node18 -->
<g id="node38" class="node"><title>Node18</title>
<polygon fill="white" stroke="#bfbfbf" points="310.5,-325.792 310.5,-346.792 357.5,-346.792 357.5,-325.792 310.5,-325.792"/>
<text text-anchor="middle" x="334" y="-333.792" font-family="Helvetica,sans-Serif" font-size="10.00">QRect</text>
</g>
<!-- Node18&#45;&gt;Node3 -->
<g id="edge42" class="edge"><title>Node18&#45;&gt;Node3</title>
<path fill="none" stroke="#9a32cd" stroke-dasharray="5,2" d="M367.662,-327.701C420.101,-316.503 521.534,-303.914 582,-355.292 607.794,-377.209 577.081,-404.384 600,-429.292 603.494,-433.09 607.728,-436.167 612.312,-438.661"/>
<polygon fill="#9a32cd" stroke="#9a32cd" points="366.845,-324.297 357.855,-329.903 368.378,-331.127 366.845,-324.297"/>
<text text-anchor="middle" x="505" y="-359.292" font-family="Helvetica,sans-Serif" font-size="10.00"> m_paintRect</text>
</g>
<!-- Node19 -->
<g id="node40" class="node"><title>Node19</title>
<a xlink:href="classQGraphicsView.htm" target="_top" xlink:title="QGraphicsView">
<polygon fill="white" stroke="black" points="615,-398.792 615,-419.792 705,-419.792 705,-398.792 615,-398.792"/>
<text text-anchor="middle" x="660" y="-406.792" font-family="Helvetica,sans-Serif" font-size="10.00">QGraphicsView</text>
</a>
</g>
<!-- Node19&#45;&gt;Node2 -->
<g id="edge44" class="edge"><title>Node19&#45;&gt;Node2</title>
<path fill="none" stroke="midnightblue" d="M715.354,-414.492C752.09,-416.744 801.235,-417.459 844,-410.292 855.24,-408.409 867.217,-404.606 877.35,-400.817"/>
<polygon fill="midnightblue" stroke="midnightblue" points="715.549,-410.997 705.338,-413.821 715.081,-417.981 715.549,-410.997"/>
</g>
<!-- Node20 -->
<g id="node42" class="node"><title>Node20</title>
<polygon fill="white" stroke="#bfbfbf" points="625.5,-330.792 625.5,-351.792 694.5,-351.792 694.5,-330.792 625.5,-330.792"/>
<text text-anchor="middle" x="660" y="-338.792" font-family="Helvetica,sans-Serif" font-size="10.00">Orientation</text>
</g>
<!-- Node20&#45;&gt;Node2 -->
<g id="edge46" class="edge"><title>Node20&#45;&gt;Node2</title>
<path fill="none" stroke="#9a32cd" stroke-dasharray="5,2" d="M704.733,-338.532C742.714,-337.571 798.187,-339.465 844,-354.292 860.913,-359.766 877.919,-371.185 889.102,-379.703"/>
<polygon fill="#9a32cd" stroke="#9a32cd" points="704.385,-335.041 694.507,-338.87 704.617,-342.038 704.385,-335.041"/>
<text text-anchor="middle" x="791" y="-397.292" font-family="Helvetica,sans-Serif" font-size="10.00"> m_CardOrientation</text>
<text text-anchor="middle" x="791" y="-384.292" font-family="Helvetica,sans-Serif" font-size="10.00">m_pendingOrientation</text>
<text text-anchor="middle" x="791" y="-371.292" font-family="Helvetica,sans-Serif" font-size="10.00">m_fixedOrientation</text>
<text text-anchor="middle" x="791" y="-358.292" font-family="Helvetica,sans-Serif" font-size="10.00">m_orientation</text>
</g>
<!-- Node20&#45;&gt;Node2 -->
<g id="edge48" class="edge"><title>Node20&#45;&gt;Node2</title>
<path fill="none" stroke="#9a32cd" stroke-dasharray="5,2" d="M694.519,-327.19C732.868,-313.811 795.737,-298.812 844,-321.292 869.96,-333.384 888.443,-363.447 896.874,-379.61"/>
<polygon fill="#9a32cd" stroke="#9a32cd" points="693.052,-323.999 684.853,-330.71 695.447,-330.576 693.052,-323.999"/>
<text text-anchor="middle" x="791" y="-325.292" font-family="Helvetica,sans-Serif" font-size="10.00"> m_renderOrientation</text>
</g>
<!-- Node21 -->
<g id="node46" class="node"><title>Node21</title>
<polygon fill="white" stroke="#bfbfbf" points="620,-274.792 620,-295.792 700,-295.792 700,-274.792 620,-274.792"/>
<text text-anchor="middle" x="660" y="-282.792" font-family="Helvetica,sans-Serif" font-size="10.00">QGLWidget *</text>
</g>
<!-- Node21&#45;&gt;Node2 -->
<g id="edge52" class="edge"><title>Node21&#45;&gt;Node2</title>
<path fill="none" stroke="#9a32cd" stroke-dasharray="5,2" d="M710.177,-274.875C749.384,-269.496 803.788,-268.34 844,-292.292 877.122,-312.021 893.437,-358.555 899.332,-379.612"/>
<polygon fill="#9a32cd" stroke="#9a32cd" points="709.417,-271.45 700.051,-276.403 710.461,-278.372 709.417,-271.45"/>
<text text-anchor="middle" x="791" y="-296.292" font-family="Helvetica,sans-Serif" font-size="10.00"> m_glw</text>
</g>
<!-- Node22 -->
<g id="node49" class="node"><title>Node22</title>
<polygon fill="white" stroke="#bfbfbf" points="600.5,-234.792 600.5,-255.792 719.5,-255.792 719.5,-234.792 600.5,-234.792"/>
<text text-anchor="middle" x="660" y="-242.792" font-family="Helvetica,sans-Serif" font-size="10.00">QGraphicsWebView *</text>
</g>
<!-- Node22&#45;&gt;Node2 -->
<g id="edge56" class="edge"><title>Node22&#45;&gt;Node2</title>
<path fill="none" stroke="#9a32cd" stroke-dasharray="5,2" d="M716.611,-233.382C755.798,-228.413 807.301,-228.736 844,-254.292 886.972,-284.216 898.288,-352.81 901.112,-379.442"/>
<polygon fill="#9a32cd" stroke="#9a32cd" points="716.088,-229.921 706.676,-234.787 717.068,-236.852 716.088,-229.921"/>
<text text-anchor="middle" x="791" y="-258.292" font-family="Helvetica,sans-Serif" font-size="10.00"> m_webview</text>
</g>
</g>
</svg>
