<?xml version="1.0" encoding="UTF-8" standalone="no"?>
<!DOCTYPE svg PUBLIC "-//W3C//DTD SVG 1.1//EN"
 "http://www.w3.org/Graphics/SVG/1.1/DTD/svg11.dtd">
<!-- Generated by graphviz version 2.26.3 (20100126.1600)
 -->
<!-- Title: PageCloseRequestEvent Pages: 1 -->
<svg width="217pt" height="162pt"
 viewBox="0.00 0.00 217.00 162.00" xmlns="http://www.w3.org/2000/svg" xmlns:xlink="http://www.w3.org/1999/xlink">
<g id="graph1" class="graph" transform="scale(1 1) rotate(0) translate(4 158)">
<title>PageCloseRequestEvent</title>
<polygon fill="white" stroke="white" points="-4,5 -4,-158 214,-158 214,5 -4,5"/>
<!-- Node1 -->
<g id="node1" class="node"><title>Node1</title>
<polygon fill="#bfbfbf" stroke="black" points="0,-0.5 0,-21.5 134,-21.5 134,-0.5 0,-0.5"/>
<text text-anchor="middle" x="67" y="-8.5" font-family="Helvetica,sans-Serif" font-size="10.00">PageCloseRequestEvent</text>
</g>
<!-- Node2 -->
<g id="node2" class="node"><title>Node2</title>
<a xlink:href="classEvent.htm" target="_top" xlink:title="Event">
<polygon fill="white" stroke="black" points="14,-72.5 14,-93.5 58,-93.5 58,-72.5 14,-72.5"/>
<text text-anchor="middle" x="36" y="-80.5" font-family="Helvetica,sans-Serif" font-size="10.00">Event</text>
</a>
</g>
<!-- Node2&#45;&gt;Node1 -->
<g id="edge2" class="edge"><title>Node2&#45;&gt;Node1</title>
<path fill="none" stroke="midnightblue" d="M44.5996,-63.0266C50.3645,-49.6374 57.7293,-32.5318 62.4071,-21.6674"/>
<polygon fill="midnightblue" stroke="midnightblue" points="41.3141,-61.8072 40.5742,-72.3762 47.7435,-64.5754 41.3141,-61.8072"/>
</g>
<!-- Node3 -->
<g id="node4" class="node"><title>Node3</title>
<a xlink:href="classSysMgrWebBridge.htm" target="_top" xlink:title="SysMgrWebBridge">
<polygon fill="white" stroke="black" points="76,-72.5 76,-93.5 180,-93.5 180,-72.5 76,-72.5"/>
<text text-anchor="middle" x="128" y="-80.5" font-family="Helvetica,sans-Serif" font-size="10.00">SysMgrWebBridge</text>
</a>
</g>
<!-- Node3&#45;&gt;Node1 -->
<g id="edge4" class="edge"><title>Node3&#45;&gt;Node1</title>
<path fill="none" stroke="#9a32cd" stroke-dasharray="5,2" d="M112.398,-64.5841C100.879,-50.9886 85.6032,-32.9579 76.0377,-21.6674"/>
<polygon fill="#9a32cd" stroke="#9a32cd" points="109.865,-67.0088 118.999,-72.3762 115.205,-62.4838 109.865,-67.0088"/>
<text text-anchor="middle" x="123" y="-44.5" font-family="Helvetica,sans-Serif" font-size="10.00"> m_page</text>
</g>
<!-- Node4 -->
<g id="node6" class="node"><title>Node4</title>
<a xlink:href="classQObject.htm" target="_top" xlink:title="QObject">
<polygon fill="white" stroke="black" points="58.5,-132.5 58.5,-153.5 113.5,-153.5 113.5,-132.5 58.5,-132.5"/>
<text text-anchor="middle" x="86" y="-140.5" font-family="Helvetica,sans-Serif" font-size="10.00">QObject</text>
</a>
</g>
<!-- Node4&#45;&gt;Node3 -->
<g id="edge6" class="edge"><title>Node4&#45;&gt;Node3</title>
<path fill="none" stroke="midnightblue" d="M99.2454,-124.078C106.278,-114.031 114.662,-102.055 120.556,-93.6339"/>
<polygon fill="midnightblue" stroke="midnightblue" points="96.3761,-122.074 93.5088,-132.273 102.111,-126.088 96.3761,-122.074"/>
</g>
<!-- Node5 -->
<g id="node8" class="node"><title>Node5</title>
<a xlink:href="classProcessBase.htm" target="_top" xlink:title="ProcessBase">
<polygon fill="white" stroke="black" points="130.5,-132.5 130.5,-153.5 209.5,-153.5 209.5,-132.5 130.5,-132.5"/>
<text text-anchor="middle" x="170" y="-140.5" font-family="Helvetica,sans-Serif" font-size="10.00">ProcessBase</text>
</a>
</g>
<!-- Node5&#45;&gt;Node3 -->
<g id="edge8" class="edge"><title>Node5&#45;&gt;Node3</title>
<path fill="none" stroke="midnightblue" d="M156.755,-124.078C149.722,-114.031 141.338,-102.055 135.444,-93.6339"/>
<polygon fill="midnightblue" stroke="midnightblue" points="153.889,-126.088 162.491,-132.273 159.624,-122.074 153.889,-126.088"/>
</g>
</g>
</svg>
