<?xml version="1.0" encoding="UTF-8" standalone="no"?>
<!DOCTYPE svg PUBLIC "-//W3C//DTD SVG 1.1//EN"
 "http://www.w3.org/Graphics/SVG/1.1/DTD/svg11.dtd">
<!-- Generated by graphviz version 2.26.3 (20100126.1600)
 -->
<!-- Title: InputEvent Pages: 1 -->
<svg width="217pt" height="102pt"
 viewBox="0.00 0.00 217.00 102.00" xmlns="http://www.w3.org/2000/svg" xmlns:xlink="http://www.w3.org/1999/xlink">
<g id="graph1" class="graph" transform="scale(1 1) rotate(0) translate(4 98)">
<title>InputEvent</title>
<polygon fill="white" stroke="white" points="-4,5 -4,-98 214,-98 214,5 -4,5"/>
<!-- Node1 -->
<g id="node1" class="node"><title>Node1</title>
<polygon fill="#bfbfbf" stroke="black" points="68.5,-0.5 68.5,-21.5 135.5,-21.5 135.5,-0.5 68.5,-0.5"/>
<text text-anchor="middle" x="102" y="-8.5" font-family="Helvetica,sans-Serif" font-size="10.00">InputEvent</text>
</g>
<!-- Node2 -->
<g id="node2" class="node"><title>Node2</title>
<a xlink:href="classEvent.htm" target="_top" xlink:title="Event">
<polygon fill="white" stroke="black" points="0,-72.5 0,-93.5 44,-93.5 44,-72.5 0,-72.5"/>
<text text-anchor="middle" x="22" y="-80.5" font-family="Helvetica,sans-Serif" font-size="10.00">Event</text>
</a>
</g>
<!-- Node2&#45;&gt;Node1 -->
<g id="edge2" class="edge"><title>Node2&#45;&gt;Node1</title>
<path fill="none" stroke="midnightblue" d="M41.6124,-65.3488C56.8096,-51.6714 77.3656,-33.1709 90.1473,-21.6674"/>
<polygon fill="midnightblue" stroke="midnightblue" points="38.8959,-63.0849 33.8043,-72.3762 43.5786,-68.288 38.8959,-63.0849"/>
</g>
<!-- Node3 -->
<g id="node4" class="node"><title>Node3</title>
<polygon fill="white" stroke="#bfbfbf" points="62,-72.5 62,-93.5 142,-93.5 142,-72.5 62,-72.5"/>
<text text-anchor="middle" x="102" y="-80.5" font-family="Helvetica,sans-Serif" font-size="10.00">sptr&lt; Event &gt;</text>
</g>
<!-- Node3&#45;&gt;Node1 -->
<g id="edge4" class="edge"><title>Node3&#45;&gt;Node1</title>
<path fill="none" stroke="#9a32cd" stroke-dasharray="5,2" d="M102,-62.2348C102,-48.969 102,-32.3188 102,-21.6674"/>
<polygon fill="#9a32cd" stroke="#9a32cd" points="98.5001,-62.3761 102,-72.3762 105.5,-62.3762 98.5001,-62.3761"/>
<text text-anchor="middle" x="124" y="-44.5" font-family="Helvetica,sans-Serif" font-size="10.00"> m_event</text>
</g>
<!-- Node4 -->
<g id="node6" class="node"><title>Node4</title>
<polygon fill="white" stroke="#bfbfbf" points="159.5,-72.5 159.5,-93.5 188.5,-93.5 188.5,-72.5 159.5,-72.5"/>
<text text-anchor="middle" x="174" y="-80.5" font-family="Helvetica,sans-Serif" font-size="10.00">int</text>
</g>
<!-- Node4&#45;&gt;Node1 -->
<g id="edge6" class="edge"><title>Node4&#45;&gt;Node1</title>
<path fill="none" stroke="#9a32cd" stroke-dasharray="5,2" d="M165.674,-63.2212C161.717,-55.3762 156.432,-46.6576 150,-40 142.829,-32.578 133.367,-26.3303 124.741,-21.557"/>
<polygon fill="#9a32cd" stroke="#9a32cd" points="162.581,-64.8704 169.963,-72.4702 168.931,-61.9256 162.581,-64.8704"/>
<text text-anchor="middle" x="184.5" y="-44.5" font-family="Helvetica,sans-Serif" font-size="10.00"> m_ipcKey</text>
</g>
</g>
</svg>
