<?xml version="1.0" encoding="UTF-8" standalone="no"?>
<!DOCTYPE svg PUBLIC "-//W3C//DTD SVG 1.1//EN"
 "http://www.w3.org/Graphics/SVG/1.1/DTD/svg11.dtd">
<!-- Generated by graphviz version 2.26.3 (20100126.1600)
 -->
<!-- Title: DashboardWebApp.h Pages: 1 -->
<svg width="288pt" height="88pt"
 viewBox="0.00 0.00 288.00 88.00" xmlns="http://www.w3.org/2000/svg" xmlns:xlink="http://www.w3.org/1999/xlink">
<g id="graph1" class="graph" transform="scale(1 1) rotate(0) translate(4 84)">
<title>DashboardWebApp.h</title>
<polygon fill="white" stroke="white" points="-4,5 -4,-84 285,-84 285,5 -4,5"/>
<!-- Node1 -->
<g id="node1" class="node"><title>Node1</title>
<polygon fill="#bfbfbf" stroke="black" points="80,-58.5 80,-79.5 196,-79.5 196,-58.5 80,-58.5"/>
<text text-anchor="middle" x="138" y="-66.5" font-family="Helvetica,sans-Serif" font-size="10.00">DashboardWebApp.h</text>
</g>
<!-- Node2 -->
<g id="node3" class="node"><title>Node2</title>
<a xlink:href="DashboardWebApp_8cpp.htm" target="_top" xlink:title="DashboardWebApp.cpp">
<polygon fill="white" stroke="black" points="0,-0.5 0,-21.5 128,-21.5 128,-0.5 0,-0.5"/>
<text text-anchor="middle" x="64" y="-8.5" font-family="Helvetica,sans-Serif" font-size="10.00">DashboardWebApp.cpp</text>
</a>
</g>
<!-- Node1&#45;&gt;Node2 -->
<g id="edge2" class="edge"><title>Node1&#45;&gt;Node2</title>
<path fill="none" stroke="midnightblue" d="M116.279,-51.9753C103.72,-42.1315 88.311,-30.0545 77.4867,-21.5707"/>
<polygon fill="midnightblue" stroke="midnightblue" points="114.398,-54.9478 124.427,-58.3619 118.716,-49.4383 114.398,-54.9478"/>
</g>
<!-- Node3 -->
<g id="node5" class="node"><title>Node3</title>
<a xlink:href="WebAppFactoryLuna_8cpp.htm" target="_top" xlink:title="WebAppFactoryLuna.cpp">
<polygon fill="white" stroke="black" points="146,-0.5 146,-21.5 280,-21.5 280,-0.5 146,-0.5"/>
<text text-anchor="middle" x="213" y="-8.5" font-family="Helvetica,sans-Serif" font-size="10.00">WebAppFactoryLuna.cpp</text>
</a>
</g>
<!-- Node1&#45;&gt;Node3 -->
<g id="edge4" class="edge"><title>Node1&#45;&gt;Node3</title>
<path fill="none" stroke="midnightblue" d="M160.015,-51.9753C172.744,-42.1315 188.361,-30.0545 199.331,-21.5707"/>
<polygon fill="midnightblue" stroke="midnightblue" points="157.526,-49.4757 151.756,-58.3619 161.808,-55.0131 157.526,-49.4757"/>
</g>
</g>
</svg>
