<?xml version="1.0" encoding="UTF-8" standalone="no"?>
<!DOCTYPE svg PUBLIC "-//W3C//DTD SVG 1.1//EN"
 "http://www.w3.org/Graphics/SVG/1.1/DTD/svg11.dtd">
<!-- Generated by graphviz version 2.26.3 (20100126.1600)
 -->
<!-- Title: DashboardWebApp.h Pages: 1 -->
<svg width="1107pt" height="320pt"
 viewBox="0.00 0.00 1107.00 320.00" xmlns="http://www.w3.org/2000/svg" xmlns:xlink="http://www.w3.org/1999/xlink">
<g id="graph1" class="graph" transform="scale(1 1) rotate(0) translate(4 316)">
<title>DashboardWebApp.h</title>
<polygon fill="white" stroke="white" points="-4,5 -4,-316 1104,-316 1104,5 -4,5"/>
<!-- Node1 -->
<g id="node1" class="node"><title>Node1</title>
<polygon fill="#bfbfbf" stroke="black" points="196,-290.5 196,-311.5 312,-311.5 312,-290.5 196,-290.5"/>
<text text-anchor="middle" x="254" y="-298.5" font-family="Helvetica,sans-Serif" font-size="10.00">DashboardWebApp.h</text>
</g>
<!-- Node2 -->
<g id="node3" class="node"><title>Node2</title>
<polygon fill="white" stroke="#bfbfbf" points="1.5,-0.5 1.5,-21.5 68.5,-21.5 68.5,-0.5 1.5,-0.5"/>
<text text-anchor="middle" x="35" y="-8.5" font-family="Helvetica,sans-Serif" font-size="10.00">Common.h</text>
</g>
<!-- Node1&#45;&gt;Node2 -->
<g id="edge2" class="edge"><title>Node1&#45;&gt;Node2</title>
<path fill="none" stroke="midnightblue" d="M209.757,-290.44C136.984,-271.768 0,-230.57 0,-185 0,-185 0,-185 0,-127 0,-91.9757 14.8053,-53.4414 25.1574,-30.7784"/>
<polygon fill="midnightblue" stroke="midnightblue" points="28.4101,-32.0875 29.5312,-21.5522 22.0849,-29.0889 28.4101,-32.0875"/>
</g>
<!-- Node3 -->
<g id="node5" class="node"><title>Node3</title>
<a xlink:href="WindowedWebApp_8h.htm" target="_top" xlink:title="WindowedWebApp.h">
<polygon fill="white" stroke="black" points="410,-232.5 410,-253.5 524,-253.5 524,-232.5 410,-232.5"/>
<text text-anchor="middle" x="467" y="-240.5" font-family="Helvetica,sans-Serif" font-size="10.00">WindowedWebApp.h</text>
</a>
</g>
<!-- Node1&#45;&gt;Node3 -->
<g id="edge4" class="edge"><title>Node1&#45;&gt;Node3</title>
<path fill="none" stroke="midnightblue" d="M292.573,-290.497C327.899,-280.877 380.338,-266.598 418.491,-256.209"/>
<polygon fill="midnightblue" stroke="midnightblue" points="419.626,-259.528 428.355,-253.523 417.787,-252.773 419.626,-259.528"/>
</g>
<!-- Node3&#45;&gt;Node2 -->
<g id="edge6" class="edge"><title>Node3&#45;&gt;Node2</title>
<path fill="none" stroke="midnightblue" d="M409.992,-241.307C324.371,-237.769 167.721,-227.127 122,-196 65.2687,-157.377 44.6034,-71.5515 37.8873,-31.8671"/>
<polygon fill="midnightblue" stroke="midnightblue" points="41.3111,-31.1066 36.3146,-21.764 34.3944,-32.1833 41.3111,-31.1066"/>
</g>
<!-- Node4 -->
<g id="node8" class="node"><title>Node4</title>
<polygon fill="white" stroke="#bfbfbf" points="130.5,-174.5 130.5,-195.5 159.5,-195.5 159.5,-174.5 130.5,-174.5"/>
<text text-anchor="middle" x="145" y="-182.5" font-family="Helvetica,sans-Serif" font-size="10.00">list</text>
</g>
<!-- Node3&#45;&gt;Node4 -->
<g id="edge8" class="edge"><title>Node3&#45;&gt;Node4</title>
<path fill="none" stroke="midnightblue" d="M409.957,-238.978C351.159,-233.739 257.033,-222.3 169.639,-195.897"/>
<polygon fill="midnightblue" stroke="midnightblue" points="170.429,-192.478 159.841,-192.864 168.359,-199.165 170.429,-192.478"/>
</g>
<!-- Node5 -->
<g id="node10" class="node"><title>Node5</title>
<polygon fill="white" stroke="#bfbfbf" points="176.5,-174.5 176.5,-195.5 257.5,-195.5 257.5,-174.5 176.5,-174.5"/>
<text text-anchor="middle" x="217" y="-182.5" font-family="Helvetica,sans-Serif" font-size="10.00">AsyncCaller.h</text>
</g>
<!-- Node3&#45;&gt;Node5 -->
<g id="edge10" class="edge"><title>Node3&#45;&gt;Node5</title>
<path fill="none" stroke="midnightblue" d="M421.727,-232.497C378.296,-222.421 312.827,-207.232 267.675,-196.757"/>
<polygon fill="midnightblue" stroke="midnightblue" points="268.33,-193.316 257.797,-194.465 266.748,-200.134 268.33,-193.316"/>
</g>
<!-- Node6 -->
<g id="node12" class="node"><title>Node6</title>
<a xlink:href="WebAppBase_8h.htm" target="_top" xlink:title="WebAppBase.h">
<polygon fill="white" stroke="black" points="274.5,-174.5 274.5,-195.5 363.5,-195.5 363.5,-174.5 274.5,-174.5"/>
<text text-anchor="middle" x="319" y="-182.5" font-family="Helvetica,sans-Serif" font-size="10.00">WebAppBase.h</text>
</a>
</g>
<!-- Node3&#45;&gt;Node6 -->
<g id="edge12" class="edge"><title>Node3&#45;&gt;Node6</title>
<path fill="none" stroke="midnightblue" d="M440.198,-232.497C416.562,-223.234 381.9,-209.65 355.692,-199.379"/>
<polygon fill="midnightblue" stroke="midnightblue" points="356.69,-196.011 346.102,-195.621 354.136,-202.529 356.69,-196.011"/>
</g>
<!-- Node17 -->
<g id="node36" class="node"><title>Node17</title>
<polygon fill="white" stroke="#bfbfbf" points="380.5,-174.5 380.5,-195.5 423.5,-195.5 423.5,-174.5 380.5,-174.5"/>
<text text-anchor="middle" x="402" y="-182.5" font-family="Helvetica,sans-Serif" font-size="10.00">sptr.h</text>
</g>
<!-- Node3&#45;&gt;Node17 -->
<g id="edge38" class="edge"><title>Node3&#45;&gt;Node17</title>
<path fill="none" stroke="midnightblue" d="M455.078,-232.362C445.641,-223.941 432.27,-212.011 421.31,-202.231"/>
<polygon fill="midnightblue" stroke="midnightblue" points="423.638,-199.617 413.846,-195.571 418.978,-204.84 423.638,-199.617"/>
</g>
<!-- Node18 -->
<g id="node38" class="node"><title>Node18</title>
<polygon fill="white" stroke="#bfbfbf" points="441,-174.5 441,-195.5 493,-195.5 493,-174.5 441,-174.5"/>
<text text-anchor="middle" x="467" y="-182.5" font-family="Helvetica,sans-Serif" font-size="10.00">Event.h</text>
</g>
<!-- Node3&#45;&gt;Node18 -->
<g id="edge40" class="edge"><title>Node3&#45;&gt;Node18</title>
<path fill="none" stroke="midnightblue" d="M467,-232.362C467,-224.922 467,-214.743 467,-205.728"/>
<polygon fill="midnightblue" stroke="midnightblue" points="470.5,-205.571 467,-195.571 463.5,-205.571 470.5,-205.571"/>
</g>
<!-- Node19 -->
<g id="node40" class="node"><title>Node19</title>
<polygon fill="white" stroke="#bfbfbf" points="511,-174.5 511,-195.5 563,-195.5 563,-174.5 511,-174.5"/>
<text text-anchor="middle" x="537" y="-182.5" font-family="Helvetica,sans-Serif" font-size="10.00">Timer.h</text>
</g>
<!-- Node3&#45;&gt;Node19 -->
<g id="edge42" class="edge"><title>Node3&#45;&gt;Node19</title>
<path fill="none" stroke="midnightblue" d="M479.839,-232.362C490.002,-223.941 504.401,-212.011 516.204,-202.231"/>
<polygon fill="midnightblue" stroke="midnightblue" points="518.775,-204.646 524.242,-195.571 514.309,-199.256 518.775,-204.646"/>
</g>
<!-- Node20 -->
<g id="node42" class="node"><title>Node20</title>
<polygon fill="white" stroke="#bfbfbf" points="580.5,-174.5 580.5,-195.5 691.5,-195.5 691.5,-174.5 580.5,-174.5"/>
<text text-anchor="middle" x="636" y="-182.5" font-family="Helvetica,sans-Serif" font-size="10.00">WindowProperties.h</text>
</g>
<!-- Node3&#45;&gt;Node20 -->
<g id="edge44" class="edge"><title>Node3&#45;&gt;Node20</title>
<path fill="none" stroke="midnightblue" d="M497.605,-232.497C525.037,-223.082 565.476,-209.204 595.564,-198.877"/>
<polygon fill="midnightblue" stroke="midnightblue" points="597.016,-202.08 605.338,-195.523 594.743,-195.459 597.016,-202.08"/>
</g>
<!-- Node21 -->
<g id="node44" class="node"><title>Node21</title>
<polygon fill="white" stroke="#bfbfbf" points="709,-174.5 709,-195.5 801,-195.5 801,-174.5 709,-174.5"/>
<text text-anchor="middle" x="755" y="-182.5" font-family="Helvetica,sans-Serif" font-size="10.00">WindowTypes.h</text>
</g>
<!-- Node3&#45;&gt;Node21 -->
<g id="edge46" class="edge"><title>Node3&#45;&gt;Node21</title>
<path fill="none" stroke="midnightblue" d="M519.155,-232.497C569.911,-222.275 646.796,-206.791 698.867,-196.305"/>
<polygon fill="midnightblue" stroke="midnightblue" points="699.823,-199.682 708.935,-194.277 698.441,-192.82 699.823,-199.682"/>
</g>
<!-- Node22 -->
<g id="node46" class="node"><title>Node22</title>
<polygon fill="white" stroke="#bfbfbf" points="819,-174.5 819,-195.5 943,-195.5 943,-174.5 819,-174.5"/>
<text text-anchor="middle" x="881" y="-182.5" font-family="Helvetica,sans-Serif" font-size="10.00">PIpcChannelListener.h</text>
</g>
<!-- Node3&#45;&gt;Node22 -->
<g id="edge48" class="edge"><title>Node3&#45;&gt;Node22</title>
<path fill="none" stroke="midnightblue" d="M524.092,-235.488C590.14,-226.728 702.431,-211.621 808.734,-196.168"/>
<polygon fill="midnightblue" stroke="midnightblue" points="809.28,-199.625 818.671,-194.72 808.271,-192.699 809.28,-199.625"/>
</g>
<!-- Node23 -->
<g id="node48" class="node"><title>Node23</title>
<polygon fill="white" stroke="#bfbfbf" points="961,-174.5 961,-195.5 1035,-195.5 1035,-174.5 961,-174.5"/>
<text text-anchor="middle" x="998" y="-182.5" font-family="Helvetica,sans-Serif" font-size="10.00">PIpcBuffer.h</text>
</g>
<!-- Node3&#45;&gt;Node23 -->
<g id="edge50" class="edge"><title>Node3&#45;&gt;Node23</title>
<path fill="none" stroke="midnightblue" d="M524.081,-240.029C613.224,-234.828 790.992,-222.201 950.912,-195.993"/>
<polygon fill="midnightblue" stroke="midnightblue" points="951.641,-199.42 960.933,-194.329 950.495,-192.514 951.641,-199.42"/>
</g>
<!-- Node24 -->
<g id="node50" class="node"><title>Node24</title>
<polygon fill="white" stroke="#bfbfbf" points="1052.5,-174.5 1052.5,-195.5 1099.5,-195.5 1099.5,-174.5 1052.5,-174.5"/>
<text text-anchor="middle" x="1076" y="-182.5" font-family="Helvetica,sans-Serif" font-size="10.00">QRect</text>
</g>
<!-- Node3&#45;&gt;Node24 -->
<g id="edge52" class="edge"><title>Node3&#45;&gt;Node24</title>
<path fill="none" stroke="midnightblue" d="M524.099,-240.166C645.854,-233.837 928.537,-217.543 1042.56,-195.823"/>
<polygon fill="midnightblue" stroke="midnightblue" points="1043.31,-199.244 1052.42,-193.842 1041.93,-192.381 1043.31,-199.244"/>
</g>
<!-- Node7 -->
<g id="node14" class="node"><title>Node7</title>
<a xlink:href="SysMgrWebBridge_8h.htm" target="_top" xlink:title="SysMgrWebBridge.h">
<polygon fill="white" stroke="black" points="220.5,-116.5 220.5,-137.5 333.5,-137.5 333.5,-116.5 220.5,-116.5"/>
<text text-anchor="middle" x="277" y="-124.5" font-family="Helvetica,sans-Serif" font-size="10.00">SysMgrWebBridge.h</text>
</a>
</g>
<!-- Node6&#45;&gt;Node7 -->
<g id="edge14" class="edge"><title>Node6&#45;&gt;Node7</title>
<path fill="none" stroke="midnightblue" d="M311.297,-174.362C305.554,-166.431 297.557,-155.389 290.73,-145.961"/>
<polygon fill="midnightblue" stroke="midnightblue" points="293.355,-143.617 284.655,-137.571 287.685,-147.723 293.355,-143.617"/>
</g>
<!-- Node12 -->
<g id="node25" class="node"><title>Node12</title>
<polygon fill="white" stroke="#bfbfbf" points="506,-58.5 506,-79.5 604,-79.5 604,-58.5 506,-58.5"/>
<text text-anchor="middle" x="555" y="-66.5" font-family="Helvetica,sans-Serif" font-size="10.00">palmimedefines.h</text>
</g>
<!-- Node6&#45;&gt;Node12 -->
<g id="edge36" class="edge"><title>Node6&#45;&gt;Node12</title>
<path fill="none" stroke="midnightblue" d="M325.468,-174.374C335.316,-159.112 355.534,-131.156 380,-116 399.414,-103.973 453.097,-90.4705 495.933,-81.0345"/>
<polygon fill="midnightblue" stroke="midnightblue" points="496.696,-84.4504 505.724,-78.9061 495.209,-77.6102 496.696,-84.4504"/>
</g>
<!-- Node15 -->
<g id="node31" class="node"><title>Node15</title>
<polygon fill="white" stroke="#bfbfbf" points="388.5,-116.5 388.5,-137.5 443.5,-137.5 443.5,-116.5 388.5,-116.5"/>
<text text-anchor="middle" x="416" y="-124.5" font-family="Helvetica,sans-Serif" font-size="10.00">QObject</text>
</g>
<!-- Node6&#45;&gt;Node15 -->
<g id="edge32" class="edge"><title>Node6&#45;&gt;Node15</title>
<path fill="none" stroke="midnightblue" d="M336.791,-174.362C351.559,-165.532 372.778,-152.844 389.538,-142.822"/>
<polygon fill="midnightblue" stroke="midnightblue" points="391.535,-145.707 398.321,-137.571 387.943,-139.699 391.535,-145.707"/>
</g>
<!-- Node16 -->
<g id="node33" class="node"><title>Node16</title>
<polygon fill="white" stroke="#bfbfbf" points="461,-116.5 461,-137.5 539,-137.5 539,-116.5 461,-116.5"/>
<text text-anchor="middle" x="500" y="-124.5" font-family="Helvetica,sans-Serif" font-size="10.00">lunaservice.h</text>
</g>
<!-- Node6&#45;&gt;Node16 -->
<g id="edge34" class="edge"><title>Node6&#45;&gt;Node16</title>
<path fill="none" stroke="midnightblue" d="M351.778,-174.497C381.413,-165 425.222,-150.962 457.531,-140.609"/>
<polygon fill="midnightblue" stroke="midnightblue" points="458.706,-143.908 467.161,-137.523 456.57,-137.242 458.706,-143.908"/>
</g>
<!-- Node8 -->
<g id="node16" class="node"><title>Node8</title>
<a xlink:href="ProcessBase_8h.htm" target="_top" xlink:title="ProcessBase.h">
<polygon fill="white" stroke="black" points="65.5,-58.5 65.5,-79.5 152.5,-79.5 152.5,-58.5 65.5,-58.5"/>
<text text-anchor="middle" x="109" y="-66.5" font-family="Helvetica,sans-Serif" font-size="10.00">ProcessBase.h</text>
</a>
</g>
<!-- Node7&#45;&gt;Node8 -->
<g id="edge16" class="edge"><title>Node7&#45;&gt;Node8</title>
<path fill="none" stroke="midnightblue" d="M246.576,-116.497C219.306,-107.082 179.107,-93.2036 149.196,-82.8773"/>
<polygon fill="midnightblue" stroke="midnightblue" points="150.075,-79.4781 139.481,-79.5231 147.791,-86.0949 150.075,-79.4781"/>
</g>
<!-- Node10 -->
<g id="node21" class="node"><title>Node10</title>
<polygon fill="white" stroke="#bfbfbf" points="169.5,-58.5 169.5,-79.5 230.5,-79.5 230.5,-58.5 169.5,-58.5"/>
<text text-anchor="middle" x="200" y="-66.5" font-family="Helvetica,sans-Serif" font-size="10.00">QtWebKit</text>
</g>
<!-- Node7&#45;&gt;Node10 -->
<g id="edge22" class="edge"><title>Node7&#45;&gt;Node10</title>
<path fill="none" stroke="midnightblue" d="M262.877,-116.362C251.48,-107.777 235.242,-95.5459 222.122,-85.6636"/>
<polygon fill="midnightblue" stroke="midnightblue" points="224.127,-82.7916 214.033,-79.5707 219.915,-88.3829 224.127,-82.7916"/>
</g>
<!-- Node11 -->
<g id="node23" class="node"><title>Node11</title>
<polygon fill="white" stroke="#bfbfbf" points="247.5,-58.5 247.5,-79.5 306.5,-79.5 306.5,-58.5 247.5,-58.5"/>
<text text-anchor="middle" x="277" y="-66.5" font-family="Helvetica,sans-Serif" font-size="10.00">QPointer</text>
</g>
<!-- Node7&#45;&gt;Node11 -->
<g id="edge24" class="edge"><title>Node7&#45;&gt;Node11</title>
<path fill="none" stroke="midnightblue" d="M277,-116.362C277,-108.922 277,-98.7427 277,-89.7276"/>
<polygon fill="midnightblue" stroke="midnightblue" points="280.5,-89.5706 277,-79.5707 273.5,-89.5707 280.5,-89.5706"/>
</g>
<!-- Node7&#45;&gt;Node12 -->
<g id="edge26" class="edge"><title>Node7&#45;&gt;Node12</title>
<path fill="none" stroke="midnightblue" d="M327.344,-116.497C374.772,-106.602 445.835,-91.7754 495.925,-81.3251"/>
<polygon fill="midnightblue" stroke="midnightblue" points="496.89,-84.6992 505.964,-79.2305 495.46,-77.8467 496.89,-84.6992"/>
</g>
<!-- Node13 -->
<g id="node27" class="node"><title>Node13</title>
<polygon fill="white" stroke="#bfbfbf" points="323.5,-58.5 323.5,-79.5 394.5,-79.5 394.5,-58.5 323.5,-58.5"/>
<text text-anchor="middle" x="359" y="-66.5" font-family="Helvetica,sans-Serif" font-size="10.00">QWebPage</text>
</g>
<!-- Node7&#45;&gt;Node13 -->
<g id="edge28" class="edge"><title>Node7&#45;&gt;Node13</title>
<path fill="none" stroke="midnightblue" d="M292.04,-116.362C304.293,-107.696 321.799,-95.3126 335.839,-85.3819"/>
<polygon fill="midnightblue" stroke="midnightblue" points="337.912,-88.2028 344.055,-79.5707 333.87,-82.4879 337.912,-88.2028"/>
</g>
<!-- Node14 -->
<g id="node29" class="node"><title>Node14</title>
<polygon fill="white" stroke="#bfbfbf" points="412,-58.5 412,-79.5 488,-79.5 488,-58.5 412,-58.5"/>
<text text-anchor="middle" x="450" y="-66.5" font-family="Helvetica,sans-Serif" font-size="10.00">QWebFrame</text>
</g>
<!-- Node7&#45;&gt;Node14 -->
<g id="edge30" class="edge"><title>Node7&#45;&gt;Node14</title>
<path fill="none" stroke="midnightblue" d="M308.329,-116.497C336.533,-107.041 378.167,-93.0829 409.009,-82.7428"/>
<polygon fill="midnightblue" stroke="midnightblue" points="410.243,-86.0203 418.612,-79.5231 408.018,-79.3834 410.243,-86.0203"/>
</g>
<!-- Node8&#45;&gt;Node2 -->
<g id="edge18" class="edge"><title>Node8&#45;&gt;Node2</title>
<path fill="none" stroke="midnightblue" d="M95.4273,-58.3619C84.5788,-49.859 69.1657,-37.7785 56.6215,-27.9466"/>
<polygon fill="midnightblue" stroke="midnightblue" points="58.5164,-24.9848 48.4867,-21.5707 54.1982,-30.4942 58.5164,-24.9848"/>
</g>
<!-- Node9 -->
<g id="node19" class="node"><title>Node9</title>
<polygon fill="white" stroke="#bfbfbf" points="85.5,-0.5 85.5,-21.5 138.5,-21.5 138.5,-0.5 85.5,-0.5"/>
<text text-anchor="middle" x="112" y="-8.5" font-family="Helvetica,sans-Serif" font-size="10.00">QString</text>
</g>
<!-- Node8&#45;&gt;Node9 -->
<g id="edge20" class="edge"><title>Node8&#45;&gt;Node9</title>
<path fill="none" stroke="midnightblue" d="M109.55,-58.3619C109.935,-50.9219 110.462,-40.7427 110.928,-31.7276"/>
<polygon fill="midnightblue" stroke="midnightblue" points="114.432,-31.7381 111.453,-21.5707 107.441,-31.3765 114.432,-31.7381"/>
</g>
</g>
</svg>
