<?xml version="1.0" encoding="UTF-8" standalone="no"?>
<!DOCTYPE svg PUBLIC "-//W3C//DTD SVG 1.1//EN"
 "http://www.w3.org/Graphics/SVG/1.1/DTD/svg11.dtd">
<!-- Generated by graphviz version 2.26.3 (20100126.1600)
 -->
<!-- Title: DashboardWebApp.cpp Pages: 1 -->
<svg width="1960pt" height="378pt"
 viewBox="0.00 0.00 1960.00 378.00" xmlns="http://www.w3.org/2000/svg" xmlns:xlink="http://www.w3.org/1999/xlink">
<g id="graph1" class="graph" transform="scale(1 1) rotate(0) translate(4 374)">
<title>DashboardWebApp.cpp</title>
<polygon fill="white" stroke="white" points="-4,5 -4,-374 1957,-374 1957,5 -4,5"/>
<!-- Node1 -->
<g id="node1" class="node"><title>Node1</title>
<polygon fill="#bfbfbf" stroke="black" points="784,-348.5 784,-369.5 912,-369.5 912,-348.5 784,-348.5"/>
<text text-anchor="middle" x="848" y="-356.5" font-family="Helvetica,sans-Serif" font-size="10.00">DashboardWebApp.cpp</text>
</g>
<!-- Node2 -->
<g id="node3" class="node"><title>Node2</title>
<polygon fill="white" stroke="#bfbfbf" points="681.5,-0.5 681.5,-21.5 748.5,-21.5 748.5,-0.5 681.5,-0.5"/>
<text text-anchor="middle" x="715" y="-8.5" font-family="Helvetica,sans-Serif" font-size="10.00">Common.h</text>
</g>
<!-- Node1&#45;&gt;Node2 -->
<g id="edge2" class="edge"><title>Node1&#45;&gt;Node2</title>
<path fill="none" stroke="midnightblue" d="M783.915,-356.966C586.361,-349.853 0,-322.079 0,-243 0,-243 0,-243 0,-127 0,-60.4074 68.9931,-76.3761 133,-58 234.082,-28.9796 553.631,-16.1265 671.111,-12.2973"/>
<polygon fill="midnightblue" stroke="midnightblue" points="671.301,-15.7931 681.184,-11.9751 671.077,-8.79668 671.301,-15.7931"/>
</g>
<!-- Node3 -->
<g id="node5" class="node"><title>Node3</title>
<a xlink:href="DashboardWebApp_8h.htm" target="_top" xlink:title="DashboardWebApp.h">
<polygon fill="white" stroke="black" points="429,-290.5 429,-311.5 545,-311.5 545,-290.5 429,-290.5"/>
<text text-anchor="middle" x="487" y="-298.5" font-family="Helvetica,sans-Serif" font-size="10.00">DashboardWebApp.h</text>
</a>
</g>
<!-- Node1&#45;&gt;Node3 -->
<g id="edge4" class="edge"><title>Node1&#45;&gt;Node3</title>
<path fill="none" stroke="midnightblue" d="M783.876,-348.698C719.641,-338.377 621.125,-322.549 555.414,-311.992"/>
<polygon fill="midnightblue" stroke="midnightblue" points="555.588,-308.475 545.159,-310.344 554.477,-315.386 555.588,-308.475"/>
</g>
<!-- Node24 -->
<g id="node51" class="node"><title>Node24</title>
<polygon fill="white" stroke="#bfbfbf" points="966,-174.5 966,-195.5 1040,-195.5 1040,-174.5 966,-174.5"/>
<text text-anchor="middle" x="1003" y="-182.5" font-family="Helvetica,sans-Serif" font-size="10.00">PIpcBuffer.h</text>
</g>
<!-- Node1&#45;&gt;Node24 -->
<g id="edge60" class="edge"><title>Node1&#45;&gt;Node24</title>
<path fill="none" stroke="midnightblue" d="M845.306,-348.437C842.285,-334.22 839.013,-308.57 849,-290 873.27,-244.872 926.437,-215.398 963.467,-199.479"/>
<polygon fill="midnightblue" stroke="midnightblue" points="965.079,-202.599 972.975,-195.535 962.397,-196.134 965.079,-202.599"/>
</g>
<!-- Node26 -->
<g id="node55" class="node"><title>Node26</title>
<polygon fill="white" stroke="#bfbfbf" points="876,-290.5 876,-311.5 936,-311.5 936,-290.5 876,-290.5"/>
<text text-anchor="middle" x="906" y="-298.5" font-family="Helvetica,sans-Serif" font-size="10.00">algorithm</text>
</g>
<!-- Node1&#45;&gt;Node26 -->
<g id="edge58" class="edge"><title>Node1&#45;&gt;Node26</title>
<path fill="none" stroke="midnightblue" d="M858.638,-348.362C866.896,-340.104 878.528,-328.472 888.197,-318.803"/>
<polygon fill="midnightblue" stroke="midnightblue" points="890.833,-321.117 895.429,-311.571 885.883,-316.167 890.833,-321.117"/>
</g>
<!-- Node27 -->
<g id="node58" class="node"><title>Node27</title>
<polygon fill="white" stroke="#bfbfbf" points="954,-290.5 954,-311.5 1040,-311.5 1040,-290.5 954,-290.5"/>
<text text-anchor="middle" x="997" y="-298.5" font-family="Helvetica,sans-Serif" font-size="10.00">PIpcChannel.h</text>
</g>
<!-- Node1&#45;&gt;Node27 -->
<g id="edge62" class="edge"><title>Node1&#45;&gt;Node27</title>
<path fill="none" stroke="midnightblue" d="M874.983,-348.497C898.853,-339.205 933.894,-325.565 960.307,-315.283"/>
<polygon fill="midnightblue" stroke="midnightblue" points="961.917,-318.412 969.967,-311.523 959.378,-311.889 961.917,-318.412"/>
</g>
<!-- Node28 -->
<g id="node60" class="node"><title>Node28</title>
<a xlink:href="WebAppManager_8h.htm" target="_top" xlink:title="WebAppManager.h">
<polygon fill="white" stroke="black" points="1221.5,-232.5 1221.5,-253.5 1328.5,-253.5 1328.5,-232.5 1221.5,-232.5"/>
<text text-anchor="middle" x="1275" y="-240.5" font-family="Helvetica,sans-Serif" font-size="10.00">WebAppManager.h</text>
</a>
</g>
<!-- Node1&#45;&gt;Node28 -->
<g id="edge64" class="edge"><title>Node1&#45;&gt;Node28</title>
<path fill="none" stroke="midnightblue" d="M847.539,-348.471C847.495,-333.066 849.921,-304.632 867,-290 892.605,-268.064 1103.11,-252.885 1211.3,-246.454"/>
<polygon fill="midnightblue" stroke="midnightblue" points="1211.66,-249.938 1221.44,-245.859 1211.25,-242.95 1211.66,-249.938"/>
</g>
<!-- Node41 -->
<g id="node102" class="node"><title>Node41</title>
<polygon fill="white" stroke="#bfbfbf" points="1057.5,-290.5 1057.5,-311.5 1182.5,-311.5 1182.5,-290.5 1057.5,-290.5"/>
<text text-anchor="middle" x="1120" y="-298.5" font-family="Helvetica,sans-Serif" font-size="10.00">PIpcMessageMacros.h</text>
</g>
<!-- Node1&#45;&gt;Node41 -->
<g id="edge122" class="edge"><title>Node1&#45;&gt;Node41</title>
<path fill="none" stroke="midnightblue" d="M897.257,-348.497C943.232,-338.693 1011.91,-324.05 1060.83,-313.616"/>
<polygon fill="midnightblue" stroke="midnightblue" points="1061.6,-317.032 1070.65,-311.523 1060.14,-310.186 1061.6,-317.032"/>
</g>
<!-- Node3&#45;&gt;Node2 -->
<g id="edge6" class="edge"><title>Node3&#45;&gt;Node2</title>
<path fill="none" stroke="midnightblue" d="M428.761,-298.138C307.273,-290.574 38,-264.806 38,-185 38,-185 38,-185 38,-127 38,-62.5143 521.344,-24.1855 671.224,-13.8503"/>
<polygon fill="midnightblue" stroke="midnightblue" points="671.689,-17.3269 681.427,-13.1546 671.213,-10.3431 671.689,-17.3269"/>
</g>
<!-- Node4 -->
<g id="node8" class="node"><title>Node4</title>
<a xlink:href="WindowedWebApp_8h.htm" target="_top" xlink:title="WindowedWebApp.h">
<polygon fill="white" stroke="black" points="430,-232.5 430,-253.5 544,-253.5 544,-232.5 430,-232.5"/>
<text text-anchor="middle" x="487" y="-240.5" font-family="Helvetica,sans-Serif" font-size="10.00">WindowedWebApp.h</text>
</a>
</g>
<!-- Node3&#45;&gt;Node4 -->
<g id="edge8" class="edge"><title>Node3&#45;&gt;Node4</title>
<path fill="none" stroke="midnightblue" d="M487,-290.362C487,-282.922 487,-272.743 487,-263.728"/>
<polygon fill="midnightblue" stroke="midnightblue" points="490.5,-263.571 487,-253.571 483.5,-263.571 490.5,-263.571"/>
</g>
<!-- Node4&#45;&gt;Node2 -->
<g id="edge10" class="edge"><title>Node4&#45;&gt;Node2</title>
<path fill="none" stroke="midnightblue" d="M429.844,-240.271C326.418,-234.743 116.836,-220.61 95,-196 88.5106,-188.686 89.5732,-182.134 95,-174 169.534,-62.2919 244.415,-93.2364 374,-58 478.277,-29.6453 605.378,-17.8975 671.032,-13.4431"/>
<polygon fill="midnightblue" stroke="midnightblue" points="671.278,-16.9346 681.028,-12.7894 670.821,-9.94951 671.278,-16.9346"/>
</g>
<!-- Node5 -->
<g id="node11" class="node"><title>Node5</title>
<polygon fill="white" stroke="#bfbfbf" points="681.5,-174.5 681.5,-195.5 710.5,-195.5 710.5,-174.5 681.5,-174.5"/>
<text text-anchor="middle" x="696" y="-182.5" font-family="Helvetica,sans-Serif" font-size="10.00">list</text>
</g>
<!-- Node4&#45;&gt;Node5 -->
<g id="edge12" class="edge"><title>Node4&#45;&gt;Node5</title>
<path fill="none" stroke="midnightblue" d="M540.352,-232.47C575.646,-224.839 622.944,-213.343 671.388,-196.168"/>
<polygon fill="midnightblue" stroke="midnightblue" points="672.878,-199.351 681.089,-192.656 670.495,-192.769 672.878,-199.351"/>
</g>
<!-- Node6 -->
<g id="node13" class="node"><title>Node6</title>
<polygon fill="white" stroke="#bfbfbf" points="103.5,-174.5 103.5,-195.5 184.5,-195.5 184.5,-174.5 103.5,-174.5"/>
<text text-anchor="middle" x="144" y="-182.5" font-family="Helvetica,sans-Serif" font-size="10.00">AsyncCaller.h</text>
</g>
<!-- Node4&#45;&gt;Node6 -->
<g id="edge14" class="edge"><title>Node4&#45;&gt;Node6</title>
<path fill="none" stroke="midnightblue" d="M429.905,-234.949C372.736,-226.645 282.024,-212.814 194.682,-196.247"/>
<polygon fill="midnightblue" stroke="midnightblue" points="195.081,-192.759 184.601,-194.319 193.766,-199.635 195.081,-192.759"/>
</g>
<!-- Node7 -->
<g id="node15" class="node"><title>Node7</title>
<a xlink:href="WebAppBase_8h.htm" target="_top" xlink:title="WebAppBase.h">
<polygon fill="white" stroke="black" points="325.5,-174.5 325.5,-195.5 414.5,-195.5 414.5,-174.5 325.5,-174.5"/>
<text text-anchor="middle" x="370" y="-182.5" font-family="Helvetica,sans-Serif" font-size="10.00">WebAppBase.h</text>
</a>
</g>
<!-- Node4&#45;&gt;Node7 -->
<g id="edge16" class="edge"><title>Node4&#45;&gt;Node7</title>
<path fill="none" stroke="midnightblue" d="M465.812,-232.497C447.538,-223.438 420.928,-210.246 400.385,-200.063"/>
<polygon fill="midnightblue" stroke="midnightblue" points="401.94,-196.927 391.426,-195.621 398.831,-203.199 401.94,-196.927"/>
</g>
<!-- Node18 -->
<g id="node39" class="node"><title>Node18</title>
<polygon fill="white" stroke="#bfbfbf" points="201.5,-174.5 201.5,-195.5 244.5,-195.5 244.5,-174.5 201.5,-174.5"/>
<text text-anchor="middle" x="223" y="-182.5" font-family="Helvetica,sans-Serif" font-size="10.00">sptr.h</text>
</g>
<!-- Node4&#45;&gt;Node18 -->
<g id="edge42" class="edge"><title>Node4&#45;&gt;Node18</title>
<path fill="none" stroke="midnightblue" d="M429.678,-234.013C384.275,-226.323 319.16,-214.03 254.459,-196.132"/>
<polygon fill="midnightblue" stroke="midnightblue" points="255.075,-192.67 244.5,-193.331 253.179,-199.408 255.075,-192.67"/>
</g>
<!-- Node19 -->
<g id="node41" class="node"><title>Node19</title>
<polygon fill="white" stroke="#bfbfbf" points="612,-174.5 612,-195.5 664,-195.5 664,-174.5 612,-174.5"/>
<text text-anchor="middle" x="638" y="-182.5" font-family="Helvetica,sans-Serif" font-size="10.00">Event.h</text>
</g>
<!-- Node4&#45;&gt;Node19 -->
<g id="edge44" class="edge"><title>Node4&#45;&gt;Node19</title>
<path fill="none" stroke="midnightblue" d="M514.345,-232.497C539.021,-223.018 575.475,-209.016 602.414,-198.669"/>
<polygon fill="midnightblue" stroke="midnightblue" points="603.789,-201.89 611.869,-195.037 601.279,-195.356 603.789,-201.89"/>
</g>
<!-- Node20 -->
<g id="node43" class="node"><title>Node20</title>
<polygon fill="white" stroke="#bfbfbf" points="1404,-116.5 1404,-137.5 1456,-137.5 1456,-116.5 1404,-116.5"/>
<text text-anchor="middle" x="1430" y="-124.5" font-family="Helvetica,sans-Serif" font-size="10.00">Timer.h</text>
</g>
<!-- Node4&#45;&gt;Node20 -->
<g id="edge46" class="edge"><title>Node4&#45;&gt;Node20</title>
<path fill="none" stroke="midnightblue" d="M476.845,-232.274C463.976,-217.397 445.256,-190.473 461,-174 491.547,-142.038 1211.85,-140.395 1256,-138 1303.52,-135.422 1358.31,-131.861 1393.51,-129.497"/>
<polygon fill="midnightblue" stroke="midnightblue" points="1394.03,-132.97 1403.77,-128.805 1393.56,-125.986 1394.03,-132.97"/>
</g>
<!-- Node21 -->
<g id="node45" class="node"><title>Node21</title>
<polygon fill="white" stroke="#bfbfbf" points="727.5,-174.5 727.5,-195.5 838.5,-195.5 838.5,-174.5 727.5,-174.5"/>
<text text-anchor="middle" x="783" y="-182.5" font-family="Helvetica,sans-Serif" font-size="10.00">WindowProperties.h</text>
</g>
<!-- Node4&#45;&gt;Node21 -->
<g id="edge48" class="edge"><title>Node4&#45;&gt;Node21</title>
<path fill="none" stroke="midnightblue" d="M540.603,-232.497C590.844,-222.652 665.992,-207.927 719.278,-197.486"/>
<polygon fill="midnightblue" stroke="midnightblue" points="720.156,-200.881 729.296,-195.523 718.81,-194.011 720.156,-200.881"/>
</g>
<!-- Node22 -->
<g id="node47" class="node"><title>Node22</title>
<polygon fill="white" stroke="#bfbfbf" points="856,-174.5 856,-195.5 948,-195.5 948,-174.5 856,-174.5"/>
<text text-anchor="middle" x="902" y="-182.5" font-family="Helvetica,sans-Serif" font-size="10.00">WindowTypes.h</text>
</g>
<!-- Node4&#45;&gt;Node22 -->
<g id="edge50" class="edge"><title>Node4&#45;&gt;Node22</title>
<path fill="none" stroke="midnightblue" d="M544.226,-236.738C613.306,-228.909 733.217,-214.459 845.668,-196.139"/>
<polygon fill="midnightblue" stroke="midnightblue" points="846.528,-199.545 855.828,-194.47 845.393,-192.637 846.528,-199.545"/>
</g>
<!-- Node23 -->
<g id="node49" class="node"><title>Node23</title>
<polygon fill="white" stroke="#bfbfbf" points="470,-174.5 470,-195.5 594,-195.5 594,-174.5 470,-174.5"/>
<text text-anchor="middle" x="532" y="-182.5" font-family="Helvetica,sans-Serif" font-size="10.00">PIpcChannelListener.h</text>
</g>
<!-- Node4&#45;&gt;Node23 -->
<g id="edge52" class="edge"><title>Node4&#45;&gt;Node23</title>
<path fill="none" stroke="midnightblue" d="M495.254,-232.362C501.47,-224.35 510.151,-213.161 517.515,-203.67"/>
<polygon fill="midnightblue" stroke="midnightblue" points="520.434,-205.617 523.799,-195.571 514.903,-201.326 520.434,-205.617"/>
</g>
<!-- Node4&#45;&gt;Node24 -->
<g id="edge54" class="edge"><title>Node4&#45;&gt;Node24</title>
<path fill="none" stroke="midnightblue" d="M544.123,-239.784C631.012,-234.343 801.692,-221.507 955.805,-196.016"/>
<polygon fill="midnightblue" stroke="midnightblue" points="956.647,-199.424 965.931,-194.319 955.49,-192.52 956.647,-199.424"/>
</g>
<!-- Node25 -->
<g id="node53" class="node"><title>Node25</title>
<polygon fill="white" stroke="#bfbfbf" points="261.5,-174.5 261.5,-195.5 308.5,-195.5 308.5,-174.5 261.5,-174.5"/>
<text text-anchor="middle" x="285" y="-182.5" font-family="Helvetica,sans-Serif" font-size="10.00">QRect</text>
</g>
<!-- Node4&#45;&gt;Node25 -->
<g id="edge56" class="edge"><title>Node4&#45;&gt;Node25</title>
<path fill="none" stroke="midnightblue" d="M446.265,-232.49C413.859,-223.961 367.164,-211.299 318.473,-196.352"/>
<polygon fill="midnightblue" stroke="midnightblue" points="319.3,-192.944 308.712,-193.332 317.232,-199.631 319.3,-192.944"/>
</g>
<!-- Node8 -->
<g id="node17" class="node"><title>Node8</title>
<a xlink:href="SysMgrWebBridge_8h.htm" target="_top" xlink:title="SysMgrWebBridge.h">
<polygon fill="white" stroke="black" points="554.5,-116.5 554.5,-137.5 667.5,-137.5 667.5,-116.5 554.5,-116.5"/>
<text text-anchor="middle" x="611" y="-124.5" font-family="Helvetica,sans-Serif" font-size="10.00">SysMgrWebBridge.h</text>
</a>
</g>
<!-- Node7&#45;&gt;Node8 -->
<g id="edge18" class="edge"><title>Node7&#45;&gt;Node8</title>
<path fill="none" stroke="midnightblue" d="M413.643,-174.497C454.038,-164.775 514.21,-150.294 557.487,-139.879"/>
<polygon fill="midnightblue" stroke="midnightblue" points="558.371,-143.266 567.275,-137.523 556.733,-136.46 558.371,-143.266"/>
</g>
<!-- Node13 -->
<g id="node28" class="node"><title>Node13</title>
<polygon fill="white" stroke="#bfbfbf" points="823,-58.5 823,-79.5 921,-79.5 921,-58.5 823,-58.5"/>
<text text-anchor="middle" x="872" y="-66.5" font-family="Helvetica,sans-Serif" font-size="10.00">palmimedefines.h</text>
</g>
<!-- Node7&#45;&gt;Node13 -->
<g id="edge40" class="edge"><title>Node7&#45;&gt;Node13</title>
<path fill="none" stroke="midnightblue" d="M414.613,-176.337C419.131,-175.521 423.653,-174.727 428,-174 537.85,-155.619 567.85,-164.618 676,-138 733.881,-123.754 798.697,-99.1529 837.383,-83.4985"/>
<polygon fill="midnightblue" stroke="midnightblue" points="839.169,-86.5499 847.105,-79.5299 836.524,-80.0691 839.169,-86.5499"/>
</g>
<!-- Node16 -->
<g id="node34" class="node"><title>Node16</title>
<polygon fill="white" stroke="#bfbfbf" points="342.5,-116.5 342.5,-137.5 397.5,-137.5 397.5,-116.5 342.5,-116.5"/>
<text text-anchor="middle" x="370" y="-124.5" font-family="Helvetica,sans-Serif" font-size="10.00">QObject</text>
</g>
<!-- Node7&#45;&gt;Node16 -->
<g id="edge36" class="edge"><title>Node7&#45;&gt;Node16</title>
<path fill="none" stroke="midnightblue" d="M370,-174.362C370,-166.922 370,-156.743 370,-147.728"/>
<polygon fill="midnightblue" stroke="midnightblue" points="373.5,-147.571 370,-137.571 366.5,-147.571 373.5,-147.571"/>
</g>
<!-- Node17 -->
<g id="node36" class="node"><title>Node17</title>
<polygon fill="white" stroke="#bfbfbf" points="971,-116.5 971,-137.5 1049,-137.5 1049,-116.5 971,-116.5"/>
<text text-anchor="middle" x="1010" y="-124.5" font-family="Helvetica,sans-Serif" font-size="10.00">lunaservice.h</text>
</g>
<!-- Node7&#45;&gt;Node17 -->
<g id="edge38" class="edge"><title>Node7&#45;&gt;Node17</title>
<path fill="none" stroke="midnightblue" d="M414.57,-176.05C419.096,-175.29 423.632,-174.589 428,-174 624.239,-147.544 859.857,-134.097 960.504,-129.21"/>
<polygon fill="midnightblue" stroke="midnightblue" points="960.854,-132.697 970.675,-128.723 960.519,-125.705 960.854,-132.697"/>
</g>
<!-- Node9 -->
<g id="node19" class="node"><title>Node9</title>
<a xlink:href="ProcessBase_8h.htm" target="_top" xlink:title="ProcessBase.h">
<polygon fill="white" stroke="black" points="476.5,-58.5 476.5,-79.5 563.5,-79.5 563.5,-58.5 476.5,-58.5"/>
<text text-anchor="middle" x="520" y="-66.5" font-family="Helvetica,sans-Serif" font-size="10.00">ProcessBase.h</text>
</a>
</g>
<!-- Node8&#45;&gt;Node9 -->
<g id="edge20" class="edge"><title>Node8&#45;&gt;Node9</title>
<path fill="none" stroke="midnightblue" d="M594.309,-116.362C580.584,-107.614 560.916,-95.0786 545.263,-85.1015"/>
<polygon fill="midnightblue" stroke="midnightblue" points="546.899,-81.994 536.585,-79.5707 543.137,-87.8969 546.899,-81.994"/>
</g>
<!-- Node11 -->
<g id="node24" class="node"><title>Node11</title>
<polygon fill="white" stroke="#bfbfbf" points="580.5,-58.5 580.5,-79.5 641.5,-79.5 641.5,-58.5 580.5,-58.5"/>
<text text-anchor="middle" x="611" y="-66.5" font-family="Helvetica,sans-Serif" font-size="10.00">QtWebKit</text>
</g>
<!-- Node8&#45;&gt;Node11 -->
<g id="edge26" class="edge"><title>Node8&#45;&gt;Node11</title>
<path fill="none" stroke="midnightblue" d="M611,-116.362C611,-108.922 611,-98.7427 611,-89.7276"/>
<polygon fill="midnightblue" stroke="midnightblue" points="614.5,-89.5706 611,-79.5707 607.5,-89.5707 614.5,-89.5706"/>
</g>
<!-- Node12 -->
<g id="node26" class="node"><title>Node12</title>
<polygon fill="white" stroke="#bfbfbf" points="658.5,-58.5 658.5,-79.5 717.5,-79.5 717.5,-58.5 658.5,-58.5"/>
<text text-anchor="middle" x="688" y="-66.5" font-family="Helvetica,sans-Serif" font-size="10.00">QPointer</text>
</g>
<!-- Node8&#45;&gt;Node12 -->
<g id="edge28" class="edge"><title>Node8&#45;&gt;Node12</title>
<path fill="none" stroke="midnightblue" d="M625.123,-116.362C636.52,-107.777 652.758,-95.5459 665.878,-85.6636"/>
<polygon fill="midnightblue" stroke="midnightblue" points="668.085,-88.3829 673.967,-79.5707 663.873,-82.7916 668.085,-88.3829"/>
</g>
<!-- Node8&#45;&gt;Node13 -->
<g id="edge30" class="edge"><title>Node8&#45;&gt;Node13</title>
<path fill="none" stroke="midnightblue" d="M658.265,-116.497C702.197,-106.734 767.727,-92.1718 814.637,-81.7474"/>
<polygon fill="midnightblue" stroke="midnightblue" points="815.644,-85.1091 824.646,-79.5231 814.125,-78.2758 815.644,-85.1091"/>
</g>
<!-- Node14 -->
<g id="node30" class="node"><title>Node14</title>
<polygon fill="white" stroke="#bfbfbf" points="734.5,-58.5 734.5,-79.5 805.5,-79.5 805.5,-58.5 734.5,-58.5"/>
<text text-anchor="middle" x="770" y="-66.5" font-family="Helvetica,sans-Serif" font-size="10.00">QWebPage</text>
</g>
<!-- Node8&#45;&gt;Node14 -->
<g id="edge32" class="edge"><title>Node8&#45;&gt;Node14</title>
<path fill="none" stroke="midnightblue" d="M639.794,-116.497C665.491,-107.123 703.318,-93.3242 731.587,-83.0122"/>
<polygon fill="midnightblue" stroke="midnightblue" points="732.957,-86.2381 741.152,-79.5231 730.558,-79.662 732.957,-86.2381"/>
</g>
<!-- Node15 -->
<g id="node32" class="node"><title>Node15</title>
<polygon fill="white" stroke="#bfbfbf" points="383,-58.5 383,-79.5 459,-79.5 459,-58.5 383,-58.5"/>
<text text-anchor="middle" x="421" y="-66.5" font-family="Helvetica,sans-Serif" font-size="10.00">QWebFrame</text>
</g>
<!-- Node8&#45;&gt;Node15 -->
<g id="edge34" class="edge"><title>Node8&#45;&gt;Node15</title>
<path fill="none" stroke="midnightblue" d="M576.592,-116.497C545.349,-106.959 499.099,-92.8408 465.142,-82.475"/>
<polygon fill="midnightblue" stroke="midnightblue" points="466.058,-79.0953 455.472,-79.5231 464.015,-85.7903 466.058,-79.0953"/>
</g>
<!-- Node9&#45;&gt;Node2 -->
<g id="edge22" class="edge"><title>Node9&#45;&gt;Node2</title>
<path fill="none" stroke="midnightblue" d="M555.313,-58.4966C587.878,-48.8106 636.328,-34.3999 671.315,-23.9934"/>
<polygon fill="midnightblue" stroke="midnightblue" points="672.667,-27.2429 681.254,-21.0371 670.672,-20.5334 672.667,-27.2429"/>
</g>
<!-- Node10 -->
<g id="node22" class="node"><title>Node10</title>
<polygon fill="white" stroke="#bfbfbf" points="1154.5,-0.5 1154.5,-21.5 1207.5,-21.5 1207.5,-0.5 1154.5,-0.5"/>
<text text-anchor="middle" x="1181" y="-8.5" font-family="Helvetica,sans-Serif" font-size="10.00">QString</text>
</g>
<!-- Node9&#45;&gt;Node10 -->
<g id="edge24" class="edge"><title>Node9&#45;&gt;Node10</title>
<path fill="none" stroke="midnightblue" d="M563.618,-59.3385C566.448,-58.8464 569.26,-58.3938 572,-58 787.531,-27.0235 1049.11,-15.5014 1144.21,-12.1541"/>
<polygon fill="midnightblue" stroke="midnightblue" points="1144.58,-15.6437 1154.45,-11.8029 1144.34,-8.64782 1144.58,-15.6437"/>
</g>
<!-- Node28&#45;&gt;Node2 -->
<g id="edge66" class="edge"><title>Node28&#45;&gt;Node2</title>
<path fill="none" stroke="midnightblue" d="M1263.59,-232.409C1247.58,-217.93 1217.15,-191.734 1188,-174 1080.59,-108.659 1049.39,-97.4142 930,-58 872.059,-38.8713 802.74,-25.3183 758.787,-17.8284"/>
<polygon fill="midnightblue" stroke="midnightblue" points="759.164,-14.343 748.724,-16.1442 758.009,-21.2469 759.164,-14.343"/>
</g>
<!-- Node28&#45;&gt;Node5 -->
<g id="edge70" class="edge"><title>Node28&#45;&gt;Node5</title>
<path fill="none" stroke="midnightblue" d="M1221.15,-240.92C1104.34,-236.02 830.001,-222.32 720.552,-195.572"/>
<polygon fill="midnightblue" stroke="midnightblue" points="721.353,-192.163 710.793,-193.028 719.587,-198.937 721.353,-192.163"/>
</g>
<!-- Node28&#45;&gt;Node10 -->
<g id="edge74" class="edge"><title>Node28&#45;&gt;Node10</title>
<path fill="none" stroke="midnightblue" d="M1295.15,-232.366C1308.57,-224.216 1325.44,-211.71 1335,-196 1367.3,-142.95 1394.83,-107.258 1357,-58 1340.17,-36.0801 1264.28,-22.1831 1217.82,-15.5715"/>
<polygon fill="midnightblue" stroke="midnightblue" points="1218.21,-12.0917 1207.82,-14.1961 1217.25,-19.0264 1218.21,-12.0917"/>
</g>
<!-- Node28&#45;&gt;Node17 -->
<g id="edge112" class="edge"><title>Node28&#45;&gt;Node17</title>
<path fill="none" stroke="midnightblue" d="M1257.57,-232.378C1229.52,-215.382 1175.43,-183.065 1155,-174 1123.95,-160.222 1087.58,-148.444 1059.04,-140.125"/>
<polygon fill="midnightblue" stroke="midnightblue" points="1059.86,-136.721 1049.29,-137.329 1057.93,-143.45 1059.86,-136.721"/>
</g>
<!-- Node28&#45;&gt;Node19 -->
<g id="edge84" class="edge"><title>Node28&#45;&gt;Node19</title>
<path fill="none" stroke="midnightblue" d="M1221.24,-240.367C1097.61,-234.067 795.121,-217.19 674.301,-195.818"/>
<polygon fill="midnightblue" stroke="midnightblue" points="674.681,-192.329 664.209,-193.938 673.399,-199.21 674.681,-192.329"/>
</g>
<!-- Node28&#45;&gt;Node20 -->
<g id="edge100" class="edge"><title>Node28&#45;&gt;Node20</title>
<path fill="none" stroke="midnightblue" d="M1318.83,-232.499C1342,-225.238 1369.75,-213.64 1390,-196 1405.18,-182.771 1416.03,-162.303 1422.56,-147.091"/>
<polygon fill="midnightblue" stroke="midnightblue" points="1425.91,-148.137 1426.39,-137.553 1419.41,-145.526 1425.91,-148.137"/>
</g>
<!-- Node28&#45;&gt;Node21 -->
<g id="edge104" class="edge"><title>Node28&#45;&gt;Node21</title>
<path fill="none" stroke="midnightblue" d="M1221.49,-238.179C1142.24,-230.805 988.761,-215.637 848.864,-196.206"/>
<polygon fill="midnightblue" stroke="midnightblue" points="849.205,-192.719 838.816,-194.799 848.235,-199.652 849.205,-192.719"/>
</g>
<!-- Node28&#45;&gt;Node22 -->
<g id="edge102" class="edge"><title>Node28&#45;&gt;Node22</title>
<path fill="none" stroke="midnightblue" d="M1221.42,-235.924C1160.2,-227.652 1056.8,-213.107 958.31,-196.166"/>
<polygon fill="midnightblue" stroke="midnightblue" points="958.632,-192.67 948.182,-194.413 957.438,-199.568 958.632,-192.67"/>
</g>
<!-- Node28&#45;&gt;Node23 -->
<g id="edge118" class="edge"><title>Node28&#45;&gt;Node23</title>
<path fill="none" stroke="midnightblue" d="M1221.29,-240.775C1108.79,-235.784 840.002,-222.124 604.428,-196.084"/>
<polygon fill="midnightblue" stroke="midnightblue" points="604.625,-192.584 594.299,-194.954 603.849,-199.541 604.625,-192.584"/>
</g>
<!-- Node28&#45;&gt;Node24 -->
<g id="edge114" class="edge"><title>Node28&#45;&gt;Node24</title>
<path fill="none" stroke="midnightblue" d="M1221.93,-232.427C1178.31,-223.631 1114.65,-210.553 1050.08,-196.2"/>
<polygon fill="midnightblue" stroke="midnightblue" points="1050.66,-192.742 1040.14,-193.98 1049.13,-199.574 1050.66,-192.742"/>
</g>
<!-- Node29 -->
<g id="node63" class="node"><title>Node29</title>
<polygon fill="white" stroke="#bfbfbf" points="1579.5,-116.5 1579.5,-137.5 1616.5,-137.5 1616.5,-116.5 1579.5,-116.5"/>
<text text-anchor="middle" x="1598" y="-124.5" font-family="Helvetica,sans-Serif" font-size="10.00">map</text>
</g>
<!-- Node28&#45;&gt;Node29 -->
<g id="edge68" class="edge"><title>Node28&#45;&gt;Node29</title>
<path fill="none" stroke="midnightblue" d="M1328.62,-239.043C1398.75,-233.011 1516.92,-219.646 1553,-196 1570.76,-184.36 1583.06,-163.011 1590.25,-147.132"/>
<polygon fill="midnightblue" stroke="midnightblue" points="1593.59,-148.217 1594.25,-137.643 1587.14,-145.499 1593.59,-148.217"/>
</g>
<!-- Node30 -->
<g id="node66" class="node"><title>Node30</title>
<polygon fill="white" stroke="#bfbfbf" points="1637.5,-174.5 1637.5,-195.5 1680.5,-195.5 1680.5,-174.5 1637.5,-174.5"/>
<text text-anchor="middle" x="1659" y="-182.5" font-family="Helvetica,sans-Serif" font-size="10.00">string</text>
</g>
<!-- Node28&#45;&gt;Node30 -->
<g id="edge72" class="edge"><title>Node28&#45;&gt;Node30</title>
<path fill="none" stroke="midnightblue" d="M1328.71,-238.634C1397.68,-232.377 1520.76,-218.998 1624,-196 1625.09,-195.758 1626.19,-195.497 1627.3,-195.222"/>
<polygon fill="midnightblue" stroke="midnightblue" points="1628.61,-198.491 1637.31,-192.447 1626.74,-191.745 1628.61,-198.491"/>
</g>
<!-- Node31 -->
<g id="node69" class="node"><title>Node31</title>
<polygon fill="white" stroke="#bfbfbf" points="1697.5,-174.5 1697.5,-195.5 1774.5,-195.5 1774.5,-174.5 1697.5,-174.5"/>
<text text-anchor="middle" x="1736" y="-182.5" font-family="Helvetica,sans-Serif" font-size="10.00">QApplication</text>
</g>
<!-- Node28&#45;&gt;Node31 -->
<g id="edge76" class="edge"><title>Node28&#45;&gt;Node31</title>
<path fill="none" stroke="midnightblue" d="M1328.55,-238.934C1405.79,-232.625 1553.11,-218.938 1687.3,-196.152"/>
<polygon fill="midnightblue" stroke="midnightblue" points="1688.08,-199.569 1697.34,-194.425 1686.9,-192.67 1688.08,-199.569"/>
</g>
<!-- Node32 -->
<g id="node71" class="node"><title>Node32</title>
<a xlink:href="SyncTask_8h.htm" target="_top" xlink:title="SyncTask.h">
<polygon fill="white" stroke="black" points="1239.5,-174.5 1239.5,-195.5 1310.5,-195.5 1310.5,-174.5 1239.5,-174.5"/>
<text text-anchor="middle" x="1275" y="-182.5" font-family="Helvetica,sans-Serif" font-size="10.00">SyncTask.h</text>
</a>
</g>
<!-- Node28&#45;&gt;Node32 -->
<g id="edge78" class="edge"><title>Node28&#45;&gt;Node32</title>
<path fill="none" stroke="midnightblue" d="M1275,-232.362C1275,-224.922 1275,-214.743 1275,-205.728"/>
<polygon fill="midnightblue" stroke="midnightblue" points="1278.5,-205.571 1275,-195.571 1271.5,-205.571 1278.5,-205.571"/>
</g>
<!-- Node34 -->
<g id="node77" class="node"><title>Node34</title>
<a xlink:href="MemoryWatcher_8h.htm" target="_top" xlink:title="MemoryWatcher.h">
<polygon fill="white" stroke="black" points="1441.5,-174.5 1441.5,-195.5 1544.5,-195.5 1544.5,-174.5 1441.5,-174.5"/>
<text text-anchor="middle" x="1493" y="-182.5" font-family="Helvetica,sans-Serif" font-size="10.00">MemoryWatcher.h</text>
</a>
</g>
<!-- Node28&#45;&gt;Node34 -->
<g id="edge86" class="edge"><title>Node28&#45;&gt;Node34</title>
<path fill="none" stroke="midnightblue" d="M1314.48,-232.497C1350.63,-222.877 1404.3,-208.598 1443.35,-198.209"/>
<polygon fill="midnightblue" stroke="midnightblue" points="1444.68,-201.477 1453.45,-195.523 1442.88,-194.712 1444.68,-201.477"/>
</g>
<!-- Node36 -->
<g id="node83" class="node"><title>Node36</title>
<polygon fill="white" stroke="#bfbfbf" points="1634,-116.5 1634,-137.5 1706,-137.5 1706,-116.5 1634,-116.5"/>
<text text-anchor="middle" x="1670" y="-124.5" font-family="Helvetica,sans-Serif" font-size="10.00">SignalSlot.h</text>
</g>
<!-- Node28&#45;&gt;Node36 -->
<g id="edge98" class="edge"><title>Node28&#45;&gt;Node36</title>
<path fill="none" stroke="midnightblue" d="M1328.64,-237.778C1403,-230.008 1533.19,-214.334 1577,-196 1605.85,-183.927 1633.97,-161.052 1651.6,-144.958"/>
<polygon fill="midnightblue" stroke="midnightblue" points="1654.47,-147.071 1659.37,-137.68 1649.68,-141.962 1654.47,-147.071"/>
</g>
<!-- Node37 -->
<g id="node90" class="node"><title>Node37</title>
<a xlink:href="WebAppCache_8h.htm" target="_top" xlink:title="WebAppCache.h">
<polygon fill="white" stroke="black" points="1253.5,-58.5 1253.5,-79.5 1348.5,-79.5 1348.5,-58.5 1253.5,-58.5"/>
<text text-anchor="middle" x="1301" y="-66.5" font-family="Helvetica,sans-Serif" font-size="10.00">WebAppCache.h</text>
</a>
</g>
<!-- Node28&#45;&gt;Node37 -->
<g id="edge106" class="edge"><title>Node28&#45;&gt;Node37</title>
<path fill="none" stroke="midnightblue" d="M1289.5,-232.479C1299.9,-223.97 1313.09,-210.97 1319,-196 1333.17,-160.139 1319.94,-114.692 1309.89,-89.0296"/>
<polygon fill="midnightblue" stroke="midnightblue" points="1313.05,-87.5275 1306,-79.6262 1306.59,-90.2045 1313.05,-87.5275"/>
</g>
<!-- Node38 -->
<g id="node93" class="node"><title>Node38</title>
<polygon fill="white" stroke="#bfbfbf" points="1791.5,-174.5 1791.5,-195.5 1862.5,-195.5 1862.5,-174.5 1791.5,-174.5"/>
<text text-anchor="middle" x="1827" y="-182.5" font-family="Helvetica,sans-Serif" font-size="10.00">HostBase.h</text>
</g>
<!-- Node28&#45;&gt;Node38 -->
<g id="edge110" class="edge"><title>Node28&#45;&gt;Node38</title>
<path fill="none" stroke="midnightblue" d="M1328.74,-240.728C1420.05,-236.279 1611.38,-224.408 1781.21,-196.122"/>
<polygon fill="midnightblue" stroke="midnightblue" points="1781.8,-199.572 1791.08,-194.456 1780.63,-192.67 1781.8,-199.572"/>
</g>
<!-- Node39 -->
<g id="node97" class="node"><title>Node39</title>
<polygon fill="white" stroke="#bfbfbf" points="1879.5,-174.5 1879.5,-195.5 1952.5,-195.5 1952.5,-174.5 1879.5,-174.5"/>
<text text-anchor="middle" x="1916" y="-182.5" font-family="Helvetica,sans-Serif" font-size="10.00">PIpcClient.h</text>
</g>
<!-- Node28&#45;&gt;Node39 -->
<g id="edge116" class="edge"><title>Node28&#45;&gt;Node39</title>
<path fill="none" stroke="midnightblue" d="M1328.77,-241.658C1431.97,-238.453 1665.03,-228.181 1869.25,-196.086"/>
<polygon fill="midnightblue" stroke="midnightblue" points="1869.94,-199.521 1879.26,-194.491 1868.84,-192.608 1869.94,-199.521"/>
</g>
<!-- Node40 -->
<g id="node100" class="node"><title>Node40</title>
<polygon fill="white" stroke="#bfbfbf" points="1057.5,-174.5 1057.5,-195.5 1146.5,-195.5 1146.5,-174.5 1057.5,-174.5"/>
<text text-anchor="middle" x="1102" y="-182.5" font-family="Helvetica,sans-Serif" font-size="10.00">PIpcMessage.h</text>
</g>
<!-- Node28&#45;&gt;Node40 -->
<g id="edge120" class="edge"><title>Node28&#45;&gt;Node40</title>
<path fill="none" stroke="midnightblue" d="M1243.67,-232.497C1215.47,-223.041 1173.83,-209.083 1142.99,-198.743"/>
<polygon fill="midnightblue" stroke="midnightblue" points="1143.98,-195.383 1133.39,-195.523 1141.76,-202.02 1143.98,-195.383"/>
</g>
<!-- Node32&#45;&gt;Node2 -->
<g id="edge80" class="edge"><title>Node32&#45;&gt;Node2</title>
<path fill="none" stroke="midnightblue" d="M1274.45,-174.113C1273.2,-159.529 1269.16,-133.466 1256,-116 1226.23,-76.4896 1207.85,-73.869 1161,-58 1087.18,-32.9983 856.047,-18.3564 758.803,-13.1617"/>
<polygon fill="midnightblue" stroke="midnightblue" points="758.89,-9.66155 748.72,-12.6314 758.523,-16.6519 758.89,-9.66155"/>
</g>
<!-- Node33 -->
<g id="node74" class="node"><title>Node33</title>
<polygon fill="white" stroke="#bfbfbf" points="1175,-116.5 1175,-137.5 1247,-137.5 1247,-116.5 1175,-116.5"/>
<text text-anchor="middle" x="1211" y="-124.5" font-family="Helvetica,sans-Serif" font-size="10.00">TaskBase.h</text>
</g>
<!-- Node32&#45;&gt;Node33 -->
<g id="edge82" class="edge"><title>Node32&#45;&gt;Node33</title>
<path fill="none" stroke="midnightblue" d="M1263.26,-174.362C1254.06,-166.023 1241.06,-154.242 1230.33,-144.516"/>
<polygon fill="midnightblue" stroke="midnightblue" points="1232.42,-141.692 1222.66,-137.571 1227.72,-146.879 1232.42,-141.692"/>
</g>
<!-- Node34&#45;&gt;Node2 -->
<g id="edge88" class="edge"><title>Node34&#45;&gt;Node2</title>
<path fill="none" stroke="midnightblue" d="M1491.07,-174.455C1487.91,-159.792 1480.38,-133.121 1465,-116 1428.6,-75.4628 1409.32,-73.2117 1357,-58 1244.27,-25.2232 884.175,-14.5897 758.654,-11.8301"/>
<polygon fill="midnightblue" stroke="midnightblue" points="758.707,-8.3305 748.635,-11.6157 758.558,-15.3289 758.707,-8.3305"/>
</g>
<!-- Node34&#45;&gt;Node20 -->
<g id="edge96" class="edge"><title>Node34&#45;&gt;Node20</title>
<path fill="none" stroke="midnightblue" d="M1481.44,-174.362C1472.39,-166.023 1459.59,-154.242 1449.03,-144.516"/>
<polygon fill="midnightblue" stroke="midnightblue" points="1451.21,-141.769 1441.48,-137.571 1446.47,-146.919 1451.21,-141.769"/>
</g>
<!-- Node34&#45;&gt;Node29 -->
<g id="edge92" class="edge"><title>Node34&#45;&gt;Node29</title>
<path fill="none" stroke="midnightblue" d="M1512.26,-174.362C1528.57,-165.353 1552.15,-152.329 1570.45,-142.218"/>
<polygon fill="midnightblue" stroke="midnightblue" points="1572.16,-145.274 1579.22,-137.376 1568.77,-139.147 1572.16,-145.274"/>
</g>
<!-- Node35 -->
<g id="node80" class="node"><title>Node35</title>
<polygon fill="white" stroke="#bfbfbf" points="1512,-116.5 1512,-137.5 1562,-137.5 1562,-116.5 1512,-116.5"/>
<text text-anchor="middle" x="1537" y="-124.5" font-family="Helvetica,sans-Serif" font-size="10.00">stdint.h</text>
</g>
<!-- Node34&#45;&gt;Node35 -->
<g id="edge90" class="edge"><title>Node34&#45;&gt;Node35</title>
<path fill="none" stroke="midnightblue" d="M1501.07,-174.362C1507.15,-166.35 1515.64,-155.161 1522.84,-145.67"/>
<polygon fill="midnightblue" stroke="midnightblue" points="1525.73,-147.653 1528.98,-137.571 1520.15,-143.422 1525.73,-147.653"/>
</g>
<!-- Node34&#45;&gt;Node36 -->
<g id="edge94" class="edge"><title>Node34&#45;&gt;Node36</title>
<path fill="none" stroke="midnightblue" d="M1525.05,-174.497C1553.91,-165.041 1596.51,-151.083 1628.06,-140.743"/>
<polygon fill="midnightblue" stroke="midnightblue" points="1629.47,-143.963 1637.89,-137.523 1627.29,-137.311 1629.47,-143.963"/>
</g>
<!-- Node37&#45;&gt;Node2 -->
<g id="edge108" class="edge"><title>Node37&#45;&gt;Node2</title>
<path fill="none" stroke="midnightblue" d="M1253.45,-60.0019C1248.91,-59.2711 1244.37,-58.5888 1240,-58 1062.25,-34.0658 848.953,-19.2312 758.72,-13.5916"/>
<polygon fill="midnightblue" stroke="midnightblue" points="758.787,-10.0892 748.59,-12.9649 758.355,-17.0758 758.787,-10.0892"/>
</g>
</g>
</svg>
