<?xml version="1.0" encoding="UTF-8" standalone="no"?>
<!DOCTYPE svg PUBLIC "-//W3C//DTD SVG 1.1//EN"
 "http://www.w3.org/Graphics/SVG/1.1/DTD/svg11.dtd">
<!-- Generated by graphviz version 2.26.3 (20100126.1600)
 -->
<!-- Title: DeviceInfo.cpp Pages: 1 -->
<svg width="499pt" height="146pt"
 viewBox="0.00 0.00 499.00 146.00" xmlns="http://www.w3.org/2000/svg" xmlns:xlink="http://www.w3.org/1999/xlink">
<g id="graph1" class="graph" transform="scale(1 1) rotate(0) translate(4 142)">
<title>DeviceInfo.cpp</title>
<polygon fill="white" stroke="white" points="-4,5 -4,-142 496,-142 496,5 -4,5"/>
<!-- Node1 -->
<g id="node1" class="node"><title>Node1</title>
<polygon fill="#bfbfbf" stroke="black" points="191,-116.5 191,-137.5 277,-137.5 277,-116.5 191,-116.5"/>
<text text-anchor="middle" x="234" y="-124.5" font-family="Helvetica,sans-Serif" font-size="10.00">DeviceInfo.cpp</text>
</g>
<!-- Node2 -->
<g id="node3" class="node"><title>Node2</title>
<polygon fill="white" stroke="#bfbfbf" points="-0.5,-0.5 -0.5,-21.5 66.5,-21.5 66.5,-0.5 -0.5,-0.5"/>
<text text-anchor="middle" x="33" y="-8.5" font-family="Helvetica,sans-Serif" font-size="10.00">Common.h</text>
</g>
<!-- Node1&#45;&gt;Node2 -->
<g id="edge2" class="edge"><title>Node1&#45;&gt;Node2</title>
<path fill="none" stroke="midnightblue" d="M190.77,-120.906C143.383,-113.376 71.4796,-99.1708 52,-80 39.2443,-67.4465 34.8276,-47.1757 33.4043,-31.846"/>
<polygon fill="midnightblue" stroke="midnightblue" points="36.8913,-31.5194 32.8204,-21.7379 29.903,-31.9231 36.8913,-31.5194"/>
</g>
<!-- Node3 -->
<g id="node5" class="node"><title>Node3</title>
<a xlink:href="DeviceInfo_8h.htm" target="_top" xlink:title="DeviceInfo.h">
<polygon fill="white" stroke="black" points="60.5,-58.5 60.5,-79.5 135.5,-79.5 135.5,-58.5 60.5,-58.5"/>
<text text-anchor="middle" x="98" y="-66.5" font-family="Helvetica,sans-Serif" font-size="10.00">DeviceInfo.h</text>
</a>
</g>
<!-- Node1&#45;&gt;Node3 -->
<g id="edge4" class="edge"><title>Node1&#45;&gt;Node3</title>
<path fill="none" stroke="midnightblue" d="M209.371,-116.497C187.843,-107.315 156.36,-93.8889 132.355,-83.6516"/>
<polygon fill="midnightblue" stroke="midnightblue" points="133.476,-80.3247 122.905,-79.6212 130.73,-86.7636 133.476,-80.3247"/>
</g>
<!-- Node5 -->
<g id="node10" class="node"><title>Node5</title>
<polygon fill="white" stroke="#bfbfbf" points="152.5,-58.5 152.5,-79.5 223.5,-79.5 223.5,-58.5 152.5,-58.5"/>
<text text-anchor="middle" x="188" y="-66.5" font-family="Helvetica,sans-Serif" font-size="10.00">HostBase.h</text>
</g>
<!-- Node1&#45;&gt;Node5 -->
<g id="edge10" class="edge"><title>Node1&#45;&gt;Node5</title>
<path fill="none" stroke="midnightblue" d="M225.563,-116.362C219.208,-108.35 210.334,-97.1605 202.807,-87.6696"/>
<polygon fill="midnightblue" stroke="midnightblue" points="205.34,-85.2308 196.384,-79.5707 199.855,-89.5805 205.34,-85.2308"/>
</g>
<!-- Node6 -->
<g id="node12" class="node"><title>Node6</title>
<polygon fill="white" stroke="#bfbfbf" points="240.5,-58.5 240.5,-79.5 321.5,-79.5 321.5,-58.5 240.5,-58.5"/>
<text text-anchor="middle" x="281" y="-66.5" font-family="Helvetica,sans-Serif" font-size="10.00">Localization.h</text>
</g>
<!-- Node1&#45;&gt;Node6 -->
<g id="edge12" class="edge"><title>Node1&#45;&gt;Node6</title>
<path fill="none" stroke="midnightblue" d="M242.621,-116.362C249.18,-108.268 258.366,-96.9318 266.106,-87.3796"/>
<polygon fill="midnightblue" stroke="midnightblue" points="268.858,-89.5436 272.434,-79.5707 263.419,-85.1364 268.858,-89.5436"/>
</g>
<!-- Node7 -->
<g id="node14" class="node"><title>Node7</title>
<polygon fill="white" stroke="#bfbfbf" points="338.5,-58.5 338.5,-79.5 401.5,-79.5 401.5,-58.5 338.5,-58.5"/>
<text text-anchor="middle" x="370" y="-66.5" font-family="Helvetica,sans-Serif" font-size="10.00">Settings.h</text>
</g>
<!-- Node1&#45;&gt;Node7 -->
<g id="edge14" class="edge"><title>Node1&#45;&gt;Node7</title>
<path fill="none" stroke="midnightblue" d="M258.629,-116.497C280.157,-107.315 311.64,-93.8889 335.645,-83.6516"/>
<polygon fill="midnightblue" stroke="midnightblue" points="337.27,-86.7636 345.095,-79.6212 334.524,-80.3247 337.27,-86.7636"/>
</g>
<!-- Node8 -->
<g id="node16" class="node"><title>Node8</title>
<polygon fill="white" stroke="#bfbfbf" points="419,-58.5 419,-79.5 491,-79.5 491,-58.5 419,-58.5"/>
<text text-anchor="middle" x="455" y="-66.5" font-family="Helvetica,sans-Serif" font-size="10.00">cjson/json.h</text>
</g>
<!-- Node1&#45;&gt;Node8 -->
<g id="edge16" class="edge"><title>Node1&#45;&gt;Node8</title>
<path fill="none" stroke="midnightblue" d="M274.021,-116.497C312.092,-106.505 369.317,-91.4868 409.193,-81.0217"/>
<polygon fill="midnightblue" stroke="midnightblue" points="410.151,-84.3889 418.935,-78.465 408.374,-77.6182 410.151,-84.3889"/>
</g>
<!-- Node3&#45;&gt;Node2 -->
<g id="edge6" class="edge"><title>Node3&#45;&gt;Node2</title>
<path fill="none" stroke="midnightblue" d="M86.078,-58.3619C76.6405,-49.9408 63.2704,-38.0105 52.3104,-28.2308"/>
<polygon fill="midnightblue" stroke="midnightblue" points="54.6381,-25.6171 44.8464,-21.5707 49.9776,-30.8401 54.6381,-25.6171"/>
</g>
<!-- Node4 -->
<g id="node8" class="node"><title>Node4</title>
<polygon fill="white" stroke="#bfbfbf" points="83.5,-0.5 83.5,-21.5 126.5,-21.5 126.5,-0.5 83.5,-0.5"/>
<text text-anchor="middle" x="105" y="-8.5" font-family="Helvetica,sans-Serif" font-size="10.00">string</text>
</g>
<!-- Node3&#45;&gt;Node4 -->
<g id="edge8" class="edge"><title>Node3&#45;&gt;Node4</title>
<path fill="none" stroke="midnightblue" d="M99.2839,-58.3619C100.182,-50.9219 101.41,-40.7427 102.498,-31.7276"/>
<polygon fill="midnightblue" stroke="midnightblue" points="106.001,-31.918 103.724,-21.5707 99.0512,-31.0792 106.001,-31.918"/>
</g>
</g>
</svg>
