<?xml version="1.0" encoding="UTF-8" standalone="no"?>
<!DOCTYPE svg PUBLIC "-//W3C//DTD SVG 1.1//EN"
 "http://www.w3.org/Graphics/SVG/1.1/DTD/svg11.dtd">
<!-- Generated by graphviz version 2.26.3 (20100126.1600)
 -->
<!-- Title: Src Pages: 1 -->
<svg width="258pt" height="257pt"
 viewBox="0.00 0.00 258.00 257.00" xmlns="http://www.w3.org/2000/svg" xmlns:xlink="http://www.w3.org/1999/xlink">
<g id="graph1" class="graph" transform="scale(1 1) rotate(0) translate(4 253)">
<title>Src</title>
<polygon fill="white" stroke="white" points="-4,5 -4,-253 255,-253 255,5 -4,5"/>
<g id="graph2" class="cluster"><title>clusterdir_7037e1479d8e8cb9cadd40ef945b7729</title>
<a xlink:href="dir_7037e1479d8e8cb9cadd40ef945b7729.htm" target="_top" xlink:title="webappmanager">
<polygon fill="#ddddee" stroke="black" points="8,-8 8,-241 242,-241 242,-8 8,-8"/>
<text text-anchor="middle" x="125" y="-228" font-family="Helvetica,sans-Serif" font-size="10.00">webappmanager</text>
</a>
</g>
<g id="graph3" class="cluster"><title>clusterdir_8c35b23f27c5b32e00b08d284a24f153</title>
<a xlink:href="dir_8c35b23f27c5b32e00b08d284a24f153.htm" target="_top">
<polygon fill="#eeeeff" stroke="black" points="16,-16 16,-212 234,-212 234,-16 16,-16"/>
</a>
</g>
<!-- dir_8c35b23f27c5b32e00b08d284a24f153 -->
<g id="node3" class="node"><title>dir_8c35b23f27c5b32e00b08d284a24f153</title>
<text text-anchor="middle" x="198" y="-183.5" font-family="Helvetica,sans-Serif" font-size="10.00">Src</text>
</g>
<!-- dir_cc0f5faceb28dcbf7d2bc90940295b5f -->
<g id="node4" class="node"><title>dir_cc0f5faceb28dcbf7d2bc90940295b5f</title>
<a xlink:href="dir_cc0f5faceb28dcbf7d2bc90940295b5f.htm" target="_top" xlink:title="base">
<polygon fill="white" stroke="red" points="78,-60 24,-60 24,-24 78,-24 78,-60"/>
<text text-anchor="middle" x="51" y="-39.5" font-family="Helvetica,sans-Serif" font-size="10.00">base</text>
</a>
</g>
<!-- dir_f9417e0c5e52545bcaea0f5937e153dd -->
<g id="node5" class="node"><title>dir_f9417e0c5e52545bcaea0f5937e153dd</title>
<a xlink:href="dir_f9417e0c5e52545bcaea0f5937e153dd.htm" target="_top" xlink:title="core">
<polygon fill="white" stroke="black" points="150,-60 96,-60 96,-24 150,-24 150,-60"/>
<text text-anchor="middle" x="123" y="-39.5" font-family="Helvetica,sans-Serif" font-size="10.00">core</text>
</a>
</g>
<!-- dir_201ff09837a767d417a8f680169bbb63 -->
<g id="node6" class="node"><title>dir_201ff09837a767d417a8f680169bbb63</title>
<a xlink:href="dir_201ff09837a767d417a8f680169bbb63.htm" target="_top" xlink:title="lunaui">
<polygon fill="white" stroke="red" points="151,-204 97,-204 97,-168 151,-168 151,-204"/>
<text text-anchor="middle" x="124" y="-183.5" font-family="Helvetica,sans-Serif" font-size="10.00">lunaui</text>
</a>
</g>
<!-- dir_201ff09837a767d417a8f680169bbb63&#45;&gt;dir_cc0f5faceb28dcbf7d2bc90940295b5f -->
<g id="edge6" class="edge"><title>dir_201ff09837a767d417a8f680169bbb63&#45;&gt;dir_cc0f5faceb28dcbf7d2bc90940295b5f</title>
<path fill="none" stroke="black" d="M109.466,-167.728C101.841,-157.589 92.7156,-144.528 86,-132 75.2906,-112.021 66.13,-88.0388 59.8698,-69.8564"/>
<polygon fill="black" stroke="black" points="63.1139,-68.5219 56.6142,-60.155 56.4776,-70.749 63.1139,-68.5219"/>
<a xlink:href="dir_000002_000004.htm" target="_top" xlink:title="3">
<text text-anchor="middle" x="66.9492" y="-68.5265" font-family="Helvetica,sans-Serif" font-size="10.00">3</text>
</a>
</g>
<!-- dir_94db8d906c8d63228137f8972185b761 -->
<g id="node8" class="node"><title>dir_94db8d906c8d63228137f8972185b761</title>
<a xlink:href="dir_94db8d906c8d63228137f8972185b761.htm" target="_top" xlink:title="webbase">
<polygon fill="white" stroke="black" points="153,-132 95,-132 95,-96 153,-96 153,-132"/>
<text text-anchor="middle" x="124" y="-111.5" font-family="Helvetica,sans-Serif" font-size="10.00">webbase</text>
</a>
</g>
<!-- dir_201ff09837a767d417a8f680169bbb63&#45;&gt;dir_94db8d906c8d63228137f8972185b761 -->
<g id="edge4" class="edge"><title>dir_201ff09837a767d417a8f680169bbb63&#45;&gt;dir_94db8d906c8d63228137f8972185b761</title>
<path fill="none" stroke="black" d="M118.048,-167.831C117.297,-160.131 117.076,-150.974 117.385,-142.417"/>
<polygon fill="black" stroke="black" points="120.879,-142.616 118.024,-132.413 113.893,-142.17 120.879,-142.616"/>
<a xlink:href="dir_000002_000011.htm" target="_top" xlink:title="21">
<text text-anchor="middle" x="123.484" y="-143.884" font-family="Helvetica,sans-Serif" font-size="10.00">21</text>
</a>
</g>
<!-- dir_47856c770a5a0edbbc9acaf91dcf554c -->
<g id="node7" class="node"><title>dir_47856c770a5a0edbbc9acaf91dcf554c</title>
<a xlink:href="dir_47856c770a5a0edbbc9acaf91dcf554c.htm" target="_top" xlink:title="minimalui">
<polygon fill="white" stroke="black" points="226,-60 168,-60 168,-24 226,-24 226,-60"/>
<text text-anchor="middle" x="197" y="-39.5" font-family="Helvetica,sans-Serif" font-size="10.00">minimalui</text>
</a>
</g>
<!-- dir_47856c770a5a0edbbc9acaf91dcf554c&#45;&gt;dir_201ff09837a767d417a8f680169bbb63 -->
<g id="edge16" class="edge"><title>dir_47856c770a5a0edbbc9acaf91dcf554c&#45;&gt;dir_201ff09837a767d417a8f680169bbb63</title>
<path fill="none" stroke="black" d="M191.386,-60.155C185.307,-78.7467 174.752,-108.211 162,-132 156.963,-141.396 150.571,-151.092 144.473,-159.63"/>
<polygon fill="black" stroke="black" points="141.626,-157.594 138.534,-167.728 147.27,-161.734 141.626,-157.594"/>
<a xlink:href="dir_000012_000002.htm" target="_top" xlink:title="1">
<text text-anchor="middle" x="141.462" y="-150.516" font-family="Helvetica,sans-Serif" font-size="10.00">1</text>
</a>
</g>
<!-- dir_47856c770a5a0edbbc9acaf91dcf554c&#45;&gt;dir_94db8d906c8d63228137f8972185b761 -->
<g id="edge18" class="edge"><title>dir_47856c770a5a0edbbc9acaf91dcf554c&#45;&gt;dir_94db8d906c8d63228137f8972185b761</title>
<path fill="none" stroke="black" d="M184.307,-60.4133C176.35,-69.0787 165.9,-79.5464 155.892,-88.9223"/>
<polygon fill="black" stroke="black" points="153.368,-86.4879 148.373,-95.8314 158.105,-91.6422 153.368,-86.4879"/>
<a xlink:href="dir_000012_000011.htm" target="_top" xlink:title="5">
<text text-anchor="middle" x="154.094" y="-79.4651" font-family="Helvetica,sans-Serif" font-size="10.00">5</text>
</a>
</g>
<!-- dir_94db8d906c8d63228137f8972185b761&#45;&gt;dir_cc0f5faceb28dcbf7d2bc90940295b5f -->
<g id="edge10" class="edge"><title>dir_94db8d906c8d63228137f8972185b761&#45;&gt;dir_cc0f5faceb28dcbf7d2bc90940295b5f</title>
<path fill="none" stroke="black" d="M105.579,-95.8314C96.8471,-87.219 86.2683,-76.7851 76.7577,-67.4048"/>
<polygon fill="black" stroke="black" points="78.9925,-64.6931 69.4151,-60.1628 74.077,-69.6769 78.9925,-64.6931"/>
<a xlink:href="dir_000011_000004.htm" target="_top" xlink:title="17">
<text text-anchor="middle" x="83.5455" y="-62.6958" font-family="Helvetica,sans-Serif" font-size="10.00">17</text>
</a>
</g>
<!-- dir_94db8d906c8d63228137f8972185b761&#45;&gt;dir_f9417e0c5e52545bcaea0f5937e153dd -->
<g id="edge12" class="edge"><title>dir_94db8d906c8d63228137f8972185b761&#45;&gt;dir_f9417e0c5e52545bcaea0f5937e153dd</title>
<path fill="none" stroke="black" d="M123.748,-95.8314C123.641,-88.131 123.514,-78.9743 123.395,-70.4166"/>
<polygon fill="black" stroke="black" points="126.894,-70.3637 123.256,-60.4133 119.895,-70.4609 126.894,-70.3637"/>
<a xlink:href="dir_000011_000010.htm" target="_top" xlink:title="2">
<text text-anchor="middle" x="129.783" y="-71.4185" font-family="Helvetica,sans-Serif" font-size="10.00">2</text>
</a>
</g>
<!-- dir_94db8d906c8d63228137f8972185b761&#45;&gt;dir_201ff09837a767d417a8f680169bbb63 -->
<g id="edge8" class="edge"><title>dir_94db8d906c8d63228137f8972185b761&#45;&gt;dir_201ff09837a767d417a8f680169bbb63</title>
<path fill="none" stroke="black" d="M129.976,-132.413C130.707,-140.059 130.92,-149.108 130.615,-157.573"/>
<polygon fill="black" stroke="black" points="127.105,-157.626 129.952,-167.831 134.09,-158.078 127.105,-157.626"/>
<a xlink:href="dir_000011_000002.htm" target="_top" xlink:title="8">
<text text-anchor="middle" x="124.503" y="-151.356" font-family="Helvetica,sans-Serif" font-size="10.00">8</text>
</a>
</g>
<!-- dir_94db8d906c8d63228137f8972185b761&#45;&gt;dir_47856c770a5a0edbbc9acaf91dcf554c -->
<g id="edge14" class="edge"><title>dir_94db8d906c8d63228137f8972185b761&#45;&gt;dir_47856c770a5a0edbbc9acaf91dcf554c</title>
<path fill="none" stroke="black" d="M136.469,-95.8314C144.439,-87.1337 154.969,-76.5783 165.056,-67.1265"/>
<polygon fill="black" stroke="black" points="167.639,-69.5066 172.633,-60.1628 162.902,-64.3526 167.639,-69.5066"/>
<a xlink:href="dir_000011_000012.htm" target="_top" xlink:title="1">
<text text-anchor="middle" x="166.913" y="-71.5294" font-family="Helvetica,sans-Serif" font-size="10.00">1</text>
</a>
</g>
</g>
</svg>
