<?xml version="1.0" encoding="UTF-8" standalone="no"?>
<!DOCTYPE svg PUBLIC "-//W3C//DTD SVG 1.1//EN"
 "http://www.w3.org/Graphics/SVG/1.1/DTD/svg11.dtd">
<!-- Generated by graphviz version 2.26.3 (20100126.1600)
 -->
<!-- Title: base Pages: 1 -->
<svg width="358pt" height="113pt"
 viewBox="0.00 0.00 358.00 113.00" xmlns="http://www.w3.org/2000/svg" xmlns:xlink="http://www.w3.org/1999/xlink">
<g id="graph1" class="graph" transform="scale(1 1) rotate(0) translate(4 109)">
<title>base</title>
<polygon fill="white" stroke="white" points="-4,5 -4,-109 355,-109 355,5 -4,5"/>
<g id="graph2" class="cluster"><title>clusterdir_8c35b23f27c5b32e00b08d284a24f153</title>
<a xlink:href="dir_8c35b23f27c5b32e00b08d284a24f153.htm" target="_top" xlink:title="Src">
<polygon fill="#ddddee" stroke="black" points="8,-8 8,-97 342,-97 342,-8 8,-8"/>
<text text-anchor="middle" x="175" y="-84" font-family="Helvetica,sans-Serif" font-size="10.00">Src</text>
</a>
</g>
<g id="graph3" class="cluster"><title>clusterdir_cc0f5faceb28dcbf7d2bc90940295b5f</title>
<a xlink:href="dir_cc0f5faceb28dcbf7d2bc90940295b5f.htm" target="_top">
<polygon fill="#eeeeff" stroke="black" points="16,-16 16,-68 334,-68 334,-16 16,-16"/>
</a>
</g>
<!-- dir_cc0f5faceb28dcbf7d2bc90940295b5f -->
<g id="node3" class="node"><title>dir_cc0f5faceb28dcbf7d2bc90940295b5f</title>
<text text-anchor="middle" x="299" y="-39.5" font-family="Helvetica,sans-Serif" font-size="10.00">base</text>
</g>
<!-- dir_ff360b1b00605ac5f6d8650b8d1eb5b7 -->
<g id="node4" class="node"><title>dir_ff360b1b00605ac5f6d8650b8d1eb5b7</title>
<a xlink:href="dir_ff360b1b00605ac5f6d8650b8d1eb5b7.htm" target="_top" xlink:title="application">
<polygon fill="white" stroke="black" points="254,-60 186,-60 186,-24 254,-24 254,-60"/>
<text text-anchor="middle" x="220" y="-39.5" font-family="Helvetica,sans-Serif" font-size="10.00">application</text>
</a>
</g>
<!-- dir_7c361cf67abd8f7a9fb9dda52ddca6c2 -->
<g id="node5" class="node"><title>dir_7c361cf67abd8f7a9fb9dda52ddca6c2</title>
<a xlink:href="dir_7c361cf67abd8f7a9fb9dda52ddca6c2.htm" target="_top" xlink:title="settings">
<polygon fill="white" stroke="black" points="168,-60 114,-60 114,-24 168,-24 168,-60"/>
<text text-anchor="middle" x="141" y="-39.5" font-family="Helvetica,sans-Serif" font-size="10.00">settings</text>
</a>
</g>
<!-- dir_115ba44d6b4872aae2a6541ccf5938ae -->
<g id="node6" class="node"><title>dir_115ba44d6b4872aae2a6541ccf5938ae</title>
<a xlink:href="dir_115ba44d6b4872aae2a6541ccf5938ae.htm" target="_top" xlink:title="windowdata">
<polygon fill="white" stroke="black" points="96,-60 24,-60 24,-24 96,-24 96,-60"/>
<text text-anchor="middle" x="60" y="-39.5" font-family="Helvetica,sans-Serif" font-size="10.00">windowdata</text>
</a>
</g>
</g>
</svg>
