<?xml version="1.0" encoding="UTF-8" standalone="no"?>
<!DOCTYPE svg PUBLIC "-//W3C//DTD SVG 1.1//EN"
 "http://www.w3.org/Graphics/SVG/1.1/DTD/svg11.dtd">
<!-- Generated by graphviz version 2.26.3 (20100126.1600)
 -->
<!-- Title: cards Pages: 1 -->
<svg width="154pt" height="153pt"
 viewBox="0.00 0.00 154.00 153.00" xmlns="http://www.w3.org/2000/svg" xmlns:xlink="http://www.w3.org/1999/xlink">
<g id="graph1" class="graph" transform="scale(1 1) rotate(0) translate(4 149)">
<title>cards</title>
<polygon fill="white" stroke="white" points="-4,5 -4,-149 151,-149 151,5 -4,5"/>
<g id="graph2" class="cluster"><title>clusterdir_201ff09837a767d417a8f680169bbb63</title>
<a xlink:href="dir_201ff09837a767d417a8f680169bbb63.htm" target="_top" xlink:title="lunaui">
<polygon fill="#ddddee" stroke="black" points="8,-64 8,-137 78,-137 78,-64 8,-64"/>
<text text-anchor="middle" x="43" y="-124" font-family="Helvetica,sans-Serif" font-size="10.00">lunaui</text>
</a>
</g>
<!-- dir_9e186e2e96cdfad7b2475bf41148810b -->
<g id="node2" class="node"><title>dir_9e186e2e96cdfad7b2475bf41148810b</title>
<a xlink:href="dir_9e186e2e96cdfad7b2475bf41148810b.htm" target="_top" xlink:title="cards">
<polygon fill="#eeeeff" stroke="black" points="70,-108 16,-108 16,-72 70,-72 70,-108"/>
<text text-anchor="middle" x="43" y="-87.5" font-family="Helvetica,sans-Serif" font-size="10.00">cards</text>
</a>
</g>
<!-- dir_94db8d906c8d63228137f8972185b761 -->
<g id="node3" class="node"><title>dir_94db8d906c8d63228137f8972185b761</title>
<a xlink:href="dir_94db8d906c8d63228137f8972185b761.htm" target="_top" xlink:title="webbase">
<polygon fill="none" stroke="black" points="146,-108 88,-108 88,-72 146,-72 146,-108"/>
<text text-anchor="middle" x="117" y="-87.5" font-family="Helvetica,sans-Serif" font-size="10.00">webbase</text>
</a>
</g>
<!-- dir_9e186e2e96cdfad7b2475bf41148810b&#45;&gt;dir_94db8d906c8d63228137f8972185b761 -->
<g id="edge7" class="edge"><title>dir_9e186e2e96cdfad7b2475bf41148810b&#45;&gt;dir_94db8d906c8d63228137f8972185b761</title>
<path fill="none" stroke="black" d="M70.1719,-90C72.6413,-90 75.1108,-90 77.5802,-90"/>
<polygon fill="black" stroke="black" points="77.7325,-93.5001 87.7324,-90 77.7324,-86.5001 77.7325,-93.5001"/>
<a xlink:href="dir_000006_000011.htm" target="_top" xlink:title="7">
<text text-anchor="middle" x="74.1378" y="-93.8393" font-family="Helvetica,sans-Serif" font-size="10.00">7</text>
</a>
</g>
<!-- dir_cc0f5faceb28dcbf7d2bc90940295b5f -->
<g id="node4" class="node"><title>dir_cc0f5faceb28dcbf7d2bc90940295b5f</title>
<a xlink:href="dir_cc0f5faceb28dcbf7d2bc90940295b5f.htm" target="_top" xlink:title="base">
<polygon fill="white" stroke="red" points="107,-36 53,-36 53,-1.77636e-14 107,-3.55271e-15 107,-36"/>
<text text-anchor="middle" x="80" y="-15.5" font-family="Helvetica,sans-Serif" font-size="10.00">base</text>
</a>
</g>
<!-- dir_9e186e2e96cdfad7b2475bf41148810b&#45;&gt;dir_cc0f5faceb28dcbf7d2bc90940295b5f -->
<g id="edge9" class="edge"><title>dir_9e186e2e96cdfad7b2475bf41148810b&#45;&gt;dir_cc0f5faceb28dcbf7d2bc90940295b5f</title>
<path fill="none" stroke="black" d="M52.3367,-71.8314C56.4243,-63.8771 61.3104,-54.369 65.8309,-45.5723"/>
<polygon fill="black" stroke="black" points="69.0799,-46.9074 70.5376,-36.4133 62.8539,-43.7078 69.0799,-46.9074"/>
<a xlink:href="dir_000006_000004.htm" target="_top" xlink:title="3">
<text text-anchor="middle" x="69.9623" y="-48.9022" font-family="Helvetica,sans-Serif" font-size="10.00">3</text>
</a>
</g>
<!-- dir_94db8d906c8d63228137f8972185b761&#45;&gt;dir_9e186e2e96cdfad7b2475bf41148810b -->
<g id="edge5" class="edge"><title>dir_94db8d906c8d63228137f8972185b761&#45;&gt;dir_9e186e2e96cdfad7b2475bf41148810b</title>
<path fill="none" stroke="black" d="M87.7324,-90C85.263,-90 82.7935,-90 80.3241,-90"/>
<polygon fill="black" stroke="black" points="80.1719,-86.5001 70.1719,-90 80.1718,-93.5001 80.1719,-86.5001"/>
<a xlink:href="dir_000011_000006.htm" target="_top" xlink:title="3">
<text text-anchor="middle" x="83.7665" y="-81.1607" font-family="Helvetica,sans-Serif" font-size="10.00">3</text>
</a>
</g>
<!-- dir_94db8d906c8d63228137f8972185b761&#45;&gt;dir_cc0f5faceb28dcbf7d2bc90940295b5f -->
<g id="edge3" class="edge"><title>dir_94db8d906c8d63228137f8972185b761&#45;&gt;dir_cc0f5faceb28dcbf7d2bc90940295b5f</title>
<path fill="none" stroke="black" d="M107.663,-71.8314C103.576,-63.8771 98.6896,-54.369 94.1691,-45.5723"/>
<polygon fill="black" stroke="black" points="97.1461,-43.7078 89.4624,-36.4133 90.9201,-46.9074 97.1461,-43.7078"/>
<a xlink:href="dir_000011_000004.htm" target="_top" xlink:title="17">
<text text-anchor="middle" x="101.314" y="-43.1073" font-family="Helvetica,sans-Serif" font-size="10.00">17</text>
</a>
</g>
</g>
</svg>
