<?xml version="1.0" encoding="UTF-8" standalone="no"?>
<!DOCTYPE svg PUBLIC "-//W3C//DTD SVG 1.1//EN"
 "http://www.w3.org/Graphics/SVG/1.1/DTD/svg11.dtd">
<!-- Generated by graphviz version 2.26.3 (20100126.1600)
 -->
<!-- Title: notifications Pages: 1 -->
<svg width="112pt" height="153pt"
 viewBox="0.00 0.00 112.00 153.00" xmlns="http://www.w3.org/2000/svg" xmlns:xlink="http://www.w3.org/1999/xlink">
<g id="graph1" class="graph" transform="scale(1 1) rotate(0) translate(4 149)">
<title>notifications</title>
<polygon fill="white" stroke="white" points="-4,5 -4,-149 109,-149 109,5 -4,5"/>
<g id="graph2" class="cluster"><title>clusterdir_201ff09837a767d417a8f680169bbb63</title>
<a xlink:href="dir_201ff09837a767d417a8f680169bbb63.htm" target="_top" xlink:title="lunaui">
<polygon fill="#ddddee" stroke="black" points="8,-64 8,-137 96,-137 96,-64 8,-64"/>
<text text-anchor="middle" x="52" y="-124" font-family="Helvetica,sans-Serif" font-size="10.00">lunaui</text>
</a>
</g>
<!-- dir_b7871c85296ca4b89198ec592b32a5eb -->
<g id="node2" class="node"><title>dir_b7871c85296ca4b89198ec592b32a5eb</title>
<a xlink:href="dir_b7871c85296ca4b89198ec592b32a5eb.htm" target="_top" xlink:title="notifications">
<polygon fill="#eeeeff" stroke="black" points="88,-108 16,-108 16,-72 88,-72 88,-108"/>
<text text-anchor="middle" x="52" y="-87.5" font-family="Helvetica,sans-Serif" font-size="10.00">notifications</text>
</a>
</g>
<!-- dir_94db8d906c8d63228137f8972185b761 -->
<g id="node3" class="node"><title>dir_94db8d906c8d63228137f8972185b761</title>
<a xlink:href="dir_94db8d906c8d63228137f8972185b761.htm" target="_top" xlink:title="webbase">
<polygon fill="none" stroke="black" points="81,-36 23,-36 23,-1.77636e-14 81,-3.55271e-15 81,-36"/>
<text text-anchor="middle" x="52" y="-15.5" font-family="Helvetica,sans-Serif" font-size="10.00">webbase</text>
</a>
</g>
<!-- dir_b7871c85296ca4b89198ec592b32a5eb&#45;&gt;dir_94db8d906c8d63228137f8972185b761 -->
<g id="edge5" class="edge"><title>dir_b7871c85296ca4b89198ec592b32a5eb&#45;&gt;dir_94db8d906c8d63228137f8972185b761</title>
<path fill="none" stroke="black" d="M46.0476,-71.8314C45.2972,-64.131 45.0763,-54.9743 45.3849,-46.4166"/>
<polygon fill="black" stroke="black" points="48.8792,-46.6161 46.024,-36.4133 41.8935,-46.1697 48.8792,-46.6161"/>
<a xlink:href="dir_000003_000011.htm" target="_top" xlink:title="5">
<text text-anchor="middle" x="51.4836" y="-47.8844" font-family="Helvetica,sans-Serif" font-size="10.00">5</text>
</a>
</g>
<!-- dir_94db8d906c8d63228137f8972185b761&#45;&gt;dir_b7871c85296ca4b89198ec592b32a5eb -->
<g id="edge3" class="edge"><title>dir_94db8d906c8d63228137f8972185b761&#45;&gt;dir_b7871c85296ca4b89198ec592b32a5eb</title>
<path fill="none" stroke="black" d="M57.976,-36.4133C58.7071,-44.0593 58.9203,-53.1084 58.6155,-61.5726"/>
<polygon fill="black" stroke="black" points="55.1048,-61.6264 57.9524,-71.8314 62.0902,-62.078 55.1048,-61.6264"/>
<a xlink:href="dir_000011_000003.htm" target="_top" xlink:title="4">
<text text-anchor="middle" x="52.5032" y="-55.3562" font-family="Helvetica,sans-Serif" font-size="10.00">4</text>
</a>
</g>
</g>
</svg>
