<?xml version="1.0" encoding="UTF-8" standalone="no"?>
<!DOCTYPE svg PUBLIC "-//W3C//DTD SVG 1.1//EN"
 "http://www.w3.org/Graphics/SVG/1.1/DTD/svg11.dtd">
<!-- Generated by graphviz version 2.26.3 (20100126.1600)
 -->
<!-- Title: lunaui Pages: 1 -->
<svg width="258pt" height="305pt"
 viewBox="0.00 0.00 258.00 305.00" xmlns="http://www.w3.org/2000/svg" xmlns:xlink="http://www.w3.org/1999/xlink">
<g id="graph1" class="graph" transform="scale(1 1) rotate(0) translate(4 301)">
<title>lunaui</title>
<polygon fill="white" stroke="white" points="-4,5 -4,-301 255,-301 255,5 -4,5"/>
<g id="graph2" class="cluster"><title>clusterdir_8c35b23f27c5b32e00b08d284a24f153</title>
<a xlink:href="dir_8c35b23f27c5b32e00b08d284a24f153.htm" target="_top" xlink:title="Src">
<polygon fill="#ddddee" stroke="black" points="8,-56 8,-289 184,-289 184,-56 8,-56"/>
<text text-anchor="middle" x="96" y="-276" font-family="Helvetica,sans-Serif" font-size="10.00">Src</text>
</a>
</g>
<g id="graph3" class="cluster"><title>clusterdir_201ff09837a767d417a8f680169bbb63</title>
<a xlink:href="dir_201ff09837a767d417a8f680169bbb63.htm" target="_top">
<polygon fill="#eeeeff" stroke="black" points="16,-64 16,-260 176,-260 176,-64 16,-64"/>
</a>
</g>
<!-- dir_201ff09837a767d417a8f680169bbb63 -->
<g id="node3" class="node"><title>dir_201ff09837a767d417a8f680169bbb63</title>
<text text-anchor="middle" x="132" y="-231.5" font-family="Helvetica,sans-Serif" font-size="10.00">lunaui</text>
</g>
<!-- dir_0b7a32970f5d297de934ee3283dc0106 -->
<g id="node5" class="node"><title>dir_0b7a32970f5d297de934ee3283dc0106</title>
<a xlink:href="dir_0b7a32970f5d297de934ee3283dc0106.htm" target="_top" xlink:title="dock">
<polygon fill="white" stroke="black" points="78,-180 24,-180 24,-144 78,-144 78,-180"/>
<text text-anchor="middle" x="51" y="-159.5" font-family="Helvetica,sans-Serif" font-size="10.00">dock</text>
</a>
</g>
<!-- dir_201ff09837a767d417a8f680169bbb63&#45;&gt;dir_0b7a32970f5d297de934ee3283dc0106 -->
<g id="edge4" class="edge"><title>dir_201ff09837a767d417a8f680169bbb63&#45;&gt;dir_0b7a32970f5d297de934ee3283dc0106</title>
<path fill="none" stroke="black" d="M111.56,-215.831C101.68,-207.048 89.6676,-196.371 78.955,-186.849"/>
<polygon fill="black" stroke="black" points="81.2326,-184.191 71.4332,-180.163 76.582,-189.422 81.2326,-184.191"/>
<a xlink:href="dir_000002_000008.htm" target="_top" xlink:title="1">
<text text-anchor="middle" x="85.8055" y="-181.957" font-family="Helvetica,sans-Serif" font-size="10.00">1</text>
</a>
</g>
<!-- dir_b7871c85296ca4b89198ec592b32a5eb -->
<g id="node6" class="node"><title>dir_b7871c85296ca4b89198ec592b32a5eb</title>
<a xlink:href="dir_b7871c85296ca4b89198ec592b32a5eb.htm" target="_top" xlink:title="notifications">
<polygon fill="white" stroke="black" points="168,-180 96,-180 96,-144 168,-144 168,-180"/>
<text text-anchor="middle" x="132" y="-159.5" font-family="Helvetica,sans-Serif" font-size="10.00">notifications</text>
</a>
</g>
<!-- dir_201ff09837a767d417a8f680169bbb63&#45;&gt;dir_b7871c85296ca4b89198ec592b32a5eb -->
<g id="edge6" class="edge"><title>dir_201ff09837a767d417a8f680169bbb63&#45;&gt;dir_b7871c85296ca4b89198ec592b32a5eb</title>
<path fill="none" stroke="black" d="M132,-215.831C132,-208.131 132,-198.974 132,-190.417"/>
<polygon fill="black" stroke="black" points="135.5,-190.413 132,-180.413 128.5,-190.413 135.5,-190.413"/>
<a xlink:href="dir_000002_000003.htm" target="_top" xlink:title="2">
<text text-anchor="middle" x="138.339" y="-191.508" font-family="Helvetica,sans-Serif" font-size="10.00">2</text>
</a>
</g>
<!-- dir_9e186e2e96cdfad7b2475bf41148810b -->
<g id="node4" class="node"><title>dir_9e186e2e96cdfad7b2475bf41148810b</title>
<a xlink:href="dir_9e186e2e96cdfad7b2475bf41148810b.htm" target="_top" xlink:title="cards">
<polygon fill="white" stroke="black" points="120,-108 66,-108 66,-72 120,-72 120,-108"/>
<text text-anchor="middle" x="93" y="-87.5" font-family="Helvetica,sans-Serif" font-size="10.00">cards</text>
</a>
</g>
<!-- dir_94db8d906c8d63228137f8972185b761 -->
<g id="node7" class="node"><title>dir_94db8d906c8d63228137f8972185b761</title>
<a xlink:href="dir_94db8d906c8d63228137f8972185b761.htm" target="_top" xlink:title="webbase">
<polygon fill="none" stroke="black" points="250,-108 192,-108 192,-72 250,-72 250,-108"/>
<text text-anchor="middle" x="221" y="-87.5" font-family="Helvetica,sans-Serif" font-size="10.00">webbase</text>
</a>
</g>
<!-- dir_9e186e2e96cdfad7b2475bf41148810b&#45;&gt;dir_94db8d906c8d63228137f8972185b761 -->
<g id="edge20" class="edge"><title>dir_9e186e2e96cdfad7b2475bf41148810b&#45;&gt;dir_94db8d906c8d63228137f8972185b761</title>
<path fill="none" stroke="black" d="M120,-90C140.569,-90 161.138,-90 181.707,-90"/>
<polygon fill="black" stroke="black" points="181.805,-93.5001 191.805,-90 181.805,-86.5001 181.805,-93.5001"/>
<a xlink:href="dir_000006_000011.htm" target="_top" xlink:title="7">
<text text-anchor="middle" x="178.21" y="-93.8393" font-family="Helvetica,sans-Serif" font-size="10.00">7</text>
</a>
</g>
<!-- dir_cc0f5faceb28dcbf7d2bc90940295b5f -->
<g id="node8" class="node"><title>dir_cc0f5faceb28dcbf7d2bc90940295b5f</title>
<a xlink:href="dir_cc0f5faceb28dcbf7d2bc90940295b5f.htm" target="_top" xlink:title="base">
<polygon fill="white" stroke="red" points="205,-36 151,-36 151,-1.77636e-14 205,-3.55271e-15 205,-36"/>
<text text-anchor="middle" x="178" y="-15.5" font-family="Helvetica,sans-Serif" font-size="10.00">base</text>
</a>
</g>
<!-- dir_9e186e2e96cdfad7b2475bf41148810b&#45;&gt;dir_cc0f5faceb28dcbf7d2bc90940295b5f -->
<g id="edge22" class="edge"><title>dir_9e186e2e96cdfad7b2475bf41148810b&#45;&gt;dir_cc0f5faceb28dcbf7d2bc90940295b5f</title>
<path fill="none" stroke="black" d="M108.078,-71.9994C112.932,-66.6165 118.486,-60.8588 124,-56 129.676,-50.9977 136.015,-46.0489 142.297,-41.4586"/>
<polygon fill="black" stroke="black" points="144.633,-44.0926 150.762,-35.4499 140.581,-38.3846 144.633,-44.0926"/>
<a xlink:href="dir_000006_000004.htm" target="_top" xlink:title="3">
<text text-anchor="middle" x="143.346" y="-45.9885" font-family="Helvetica,sans-Serif" font-size="10.00">3</text>
</a>
</g>
<!-- dir_0b7a32970f5d297de934ee3283dc0106&#45;&gt;dir_9e186e2e96cdfad7b2475bf41148810b -->
<g id="edge18" class="edge"><title>dir_0b7a32970f5d297de934ee3283dc0106&#45;&gt;dir_9e186e2e96cdfad7b2475bf41148810b</title>
<path fill="none" stroke="black" d="M61.5984,-143.831C66.2877,-135.792 71.9028,-126.167 77.0798,-117.292"/>
<polygon fill="black" stroke="black" points="80.2434,-118.815 82.2589,-108.413 74.1969,-115.288 80.2434,-118.815"/>
<a xlink:href="dir_000008_000006.htm" target="_top" xlink:title="1">
<text text-anchor="middle" x="80.8847" y="-120.85" font-family="Helvetica,sans-Serif" font-size="10.00">1</text>
</a>
</g>
<!-- dir_0b7a32970f5d297de934ee3283dc0106&#45;&gt;dir_94db8d906c8d63228137f8972185b761 -->
<g id="edge16" class="edge"><title>dir_0b7a32970f5d297de934ee3283dc0106&#45;&gt;dir_94db8d906c8d63228137f8972185b761</title>
<path fill="none" stroke="black" d="M78.3903,-147.971C81.2795,-146.592 84.1882,-145.244 87,-144 127.533,-126.069 139.032,-124.913 180,-108 180.849,-107.65 181.707,-107.293 182.571,-106.932"/>
<polygon fill="black" stroke="black" points="184.118,-110.077 191.951,-102.943 181.379,-103.636 184.118,-110.077"/>
<a xlink:href="dir_000008_000011.htm" target="_top" xlink:title="5">
<text text-anchor="middle" x="181.921" y="-111.597" font-family="Helvetica,sans-Serif" font-size="10.00">5</text>
</a>
</g>
<!-- dir_b7871c85296ca4b89198ec592b32a5eb&#45;&gt;dir_94db8d906c8d63228137f8972185b761 -->
<g id="edge24" class="edge"><title>dir_b7871c85296ca4b89198ec592b32a5eb&#45;&gt;dir_94db8d906c8d63228137f8972185b761</title>
<path fill="none" stroke="black" d="M148.506,-143.831C158.701,-134.878 172.045,-123.956 184.546,-114.295"/>
<polygon fill="black" stroke="black" points="186.763,-117.007 192.597,-108.163 182.521,-111.438 186.763,-117.007"/>
<a xlink:href="dir_000003_000011.htm" target="_top" xlink:title="5">
<text text-anchor="middle" x="185.624" y="-118.943" font-family="Helvetica,sans-Serif" font-size="10.00">5</text>
</a>
</g>
<!-- dir_94db8d906c8d63228137f8972185b761&#45;&gt;dir_201ff09837a767d417a8f680169bbb63 -->
<g id="edge8" class="edge"><title>dir_94db8d906c8d63228137f8972185b761&#45;&gt;dir_201ff09837a767d417a8f680169bbb63</title>
<path fill="none" stroke="black" d="M213.608,-108.273C205.701,-126.959 192.222,-156.497 177,-180 170.766,-189.625 163.046,-199.46 155.77,-208.054"/>
<polygon fill="black" stroke="black" points="152.902,-206.018 148.993,-215.865 158.19,-210.605 152.902,-206.018"/>
<a xlink:href="dir_000011_000002.htm" target="_top" xlink:title="8">
<text text-anchor="middle" x="153.113" y="-198.942" font-family="Helvetica,sans-Serif" font-size="10.00">8</text>
</a>
</g>
<!-- dir_94db8d906c8d63228137f8972185b761&#45;&gt;dir_9e186e2e96cdfad7b2475bf41148810b -->
<g id="edge12" class="edge"><title>dir_94db8d906c8d63228137f8972185b761&#45;&gt;dir_9e186e2e96cdfad7b2475bf41148810b</title>
<path fill="none" stroke="black" d="M191.805,-90C171.236,-90 150.667,-90 130.098,-90"/>
<polygon fill="black" stroke="black" points="130,-86.5001 120,-90 130,-93.5001 130,-86.5001"/>
<a xlink:href="dir_000011_000006.htm" target="_top" xlink:title="3">
<text text-anchor="middle" x="133.595" y="-81.1607" font-family="Helvetica,sans-Serif" font-size="10.00">3</text>
</a>
</g>
<!-- dir_94db8d906c8d63228137f8972185b761&#45;&gt;dir_b7871c85296ca4b89198ec592b32a5eb -->
<g id="edge14" class="edge"><title>dir_94db8d906c8d63228137f8972185b761&#45;&gt;dir_b7871c85296ca4b89198ec592b32a5eb</title>
<path fill="none" stroke="black" d="M204.501,-108.163C194.307,-117.115 180.963,-128.037 168.462,-137.698"/>
<polygon fill="black" stroke="black" points="166.245,-134.988 160.411,-143.831 170.487,-140.556 166.245,-134.988"/>
<a xlink:href="dir_000011_000003.htm" target="_top" xlink:title="4">
<text text-anchor="middle" x="167.384" y="-128.051" font-family="Helvetica,sans-Serif" font-size="10.00">4</text>
</a>
</g>
<!-- dir_94db8d906c8d63228137f8972185b761&#45;&gt;dir_cc0f5faceb28dcbf7d2bc90940295b5f -->
<g id="edge10" class="edge"><title>dir_94db8d906c8d63228137f8972185b761&#45;&gt;dir_cc0f5faceb28dcbf7d2bc90940295b5f</title>
<path fill="none" stroke="black" d="M210.149,-71.8314C205.298,-63.7079 199.478,-53.9637 194.132,-45.0118"/>
<polygon fill="black" stroke="black" points="197.129,-43.2041 188.997,-36.4133 191.119,-46.7933 197.129,-43.2041"/>
<a xlink:href="dir_000011_000004.htm" target="_top" xlink:title="17">
<text text-anchor="middle" x="201.41" y="-42.3344" font-family="Helvetica,sans-Serif" font-size="10.00">17</text>
</a>
</g>
</g>
</svg>
