<?xml version="1.0" encoding="UTF-8" standalone="no"?>
<!DOCTYPE svg PUBLIC "-//W3C//DTD SVG 1.1//EN"
 "http://www.w3.org/Graphics/SVG/1.1/DTD/svg11.dtd">
<!-- Generated by graphviz version 2.26.3 (20100126.1600)
 -->
<!-- Title: dock Pages: 1 -->
<svg width="108pt" height="225pt"
 viewBox="0.00 0.00 108.00 225.00" xmlns="http://www.w3.org/2000/svg" xmlns:xlink="http://www.w3.org/1999/xlink">
<g id="graph1" class="graph" transform="scale(1 1) rotate(0) translate(4 221)">
<title>dock</title>
<polygon fill="white" stroke="white" points="-4,5 -4,-221 105,-221 105,5 -4,5"/>
<g id="graph2" class="cluster"><title>clusterdir_201ff09837a767d417a8f680169bbb63</title>
<a xlink:href="dir_201ff09837a767d417a8f680169bbb63.htm" target="_top" xlink:title="lunaui">
<polygon fill="#ddddee" stroke="black" points="22,-136 22,-209 92,-209 92,-136 22,-136"/>
<text text-anchor="middle" x="57" y="-196" font-family="Helvetica,sans-Serif" font-size="10.00">lunaui</text>
</a>
</g>
<!-- dir_0b7a32970f5d297de934ee3283dc0106 -->
<g id="node2" class="node"><title>dir_0b7a32970f5d297de934ee3283dc0106</title>
<a xlink:href="dir_0b7a32970f5d297de934ee3283dc0106.htm" target="_top" xlink:title="dock">
<polygon fill="#eeeeff" stroke="black" points="84,-180 30,-180 30,-144 84,-144 84,-180"/>
<text text-anchor="middle" x="57" y="-159.5" font-family="Helvetica,sans-Serif" font-size="10.00">dock</text>
</a>
</g>
<!-- dir_94db8d906c8d63228137f8972185b761 -->
<g id="node3" class="node"><title>dir_94db8d906c8d63228137f8972185b761</title>
<a xlink:href="dir_94db8d906c8d63228137f8972185b761.htm" target="_top" xlink:title="webbase">
<polygon fill="none" stroke="black" points="58,-108 2.4869e-14,-108 0,-72 58,-72 58,-108"/>
<text text-anchor="middle" x="29" y="-87.5" font-family="Helvetica,sans-Serif" font-size="10.00">webbase</text>
</a>
</g>
<!-- dir_0b7a32970f5d297de934ee3283dc0106&#45;&gt;dir_94db8d906c8d63228137f8972185b761 -->
<g id="edge5" class="edge"><title>dir_0b7a32970f5d297de934ee3283dc0106&#45;&gt;dir_94db8d906c8d63228137f8972185b761</title>
<path fill="none" stroke="black" d="M49.9344,-143.831C46.874,-135.962 43.2221,-126.571 39.8318,-117.853"/>
<polygon fill="black" stroke="black" points="43.0473,-116.465 36.1607,-108.413 36.5232,-119.002 43.0473,-116.465"/>
<a xlink:href="dir_000008_000011.htm" target="_top" xlink:title="5">
<text text-anchor="middle" x="46.9963" y="-116.286" font-family="Helvetica,sans-Serif" font-size="10.00">5</text>
</a>
</g>
<!-- dir_9e186e2e96cdfad7b2475bf41148810b -->
<g id="node4" class="node"><title>dir_9e186e2e96cdfad7b2475bf41148810b</title>
<a xlink:href="dir_9e186e2e96cdfad7b2475bf41148810b.htm" target="_top" xlink:title="cards">
<polygon fill="none" stroke="black" points="56,-36 2,-36 2,-1.77636e-14 56,-3.55271e-15 56,-36"/>
<text text-anchor="middle" x="29" y="-15.5" font-family="Helvetica,sans-Serif" font-size="10.00">cards</text>
</a>
</g>
<!-- dir_0b7a32970f5d297de934ee3283dc0106&#45;&gt;dir_9e186e2e96cdfad7b2475bf41148810b -->
<g id="edge7" class="edge"><title>dir_0b7a32970f5d297de934ee3283dc0106&#45;&gt;dir_9e186e2e96cdfad7b2475bf41148810b</title>
<path fill="none" stroke="black" d="M63.2653,-143.986C68.7147,-125.507 74.6394,-96.1307 67,-72 63.9185,-62.2664 58.3817,-52.7695 52.4711,-44.5228"/>
<polygon fill="black" stroke="black" points="55.1248,-42.2316 46.2635,-36.4239 49.569,-46.49 55.1248,-42.2316"/>
<a xlink:href="dir_000008_000006.htm" target="_top" xlink:title="1">
<text text-anchor="middle" x="59.565" y="-40.8573" font-family="Helvetica,sans-Serif" font-size="10.00">1</text>
</a>
</g>
<!-- dir_94db8d906c8d63228137f8972185b761&#45;&gt;dir_9e186e2e96cdfad7b2475bf41148810b -->
<g id="edge3" class="edge"><title>dir_94db8d906c8d63228137f8972185b761&#45;&gt;dir_9e186e2e96cdfad7b2475bf41148810b</title>
<path fill="none" stroke="black" d="M23.0476,-71.8314C22.2972,-64.131 22.0763,-54.9743 22.3849,-46.4166"/>
<polygon fill="black" stroke="black" points="25.8792,-46.6161 23.024,-36.4133 18.8935,-46.1697 25.8792,-46.6161"/>
<a xlink:href="dir_000011_000006.htm" target="_top" xlink:title="3">
<text text-anchor="middle" x="28.4836" y="-47.8844" font-family="Helvetica,sans-Serif" font-size="10.00">3</text>
</a>
</g>
<!-- dir_9e186e2e96cdfad7b2475bf41148810b&#45;&gt;dir_94db8d906c8d63228137f8972185b761 -->
<g id="edge9" class="edge"><title>dir_9e186e2e96cdfad7b2475bf41148810b&#45;&gt;dir_94db8d906c8d63228137f8972185b761</title>
<path fill="none" stroke="black" d="M34.976,-36.4133C35.7071,-44.0593 35.9203,-53.1084 35.6155,-61.5726"/>
<polygon fill="black" stroke="black" points="32.1048,-61.6264 34.9524,-71.8314 39.0902,-62.078 32.1048,-61.6264"/>
<a xlink:href="dir_000006_000011.htm" target="_top" xlink:title="7">
<text text-anchor="middle" x="29.5032" y="-55.3562" font-family="Helvetica,sans-Serif" font-size="10.00">7</text>
</a>
</g>
</g>
</svg>
