<?xml version="1.0" encoding="UTF-8" standalone="no"?>
<!DOCTYPE svg PUBLIC "-//W3C//DTD SVG 1.1//EN"
 "http://www.w3.org/Graphics/SVG/1.1/DTD/svg11.dtd">
<!-- Generated by graphviz version 2.26.3 (20100126.1600)
 -->
<!-- Title: webbase Pages: 1 -->
<svg width="184pt" height="225pt"
 viewBox="0.00 0.00 184.00 225.00" xmlns="http://www.w3.org/2000/svg" xmlns:xlink="http://www.w3.org/1999/xlink">
<g id="graph1" class="graph" transform="scale(1 1) rotate(0) translate(4 221)">
<title>webbase</title>
<polygon fill="white" stroke="white" points="-4,5 -4,-221 181,-221 181,5 -4,5"/>
<g id="graph2" class="cluster"><title>clusterdir_8c35b23f27c5b32e00b08d284a24f153</title>
<a xlink:href="dir_8c35b23f27c5b32e00b08d284a24f153.htm" target="_top" xlink:title="Src">
<polygon fill="#ddddee" stroke="black" points="68,-136 68,-209 142,-209 142,-136 68,-136"/>
<text text-anchor="middle" x="105" y="-196" font-family="Helvetica,sans-Serif" font-size="10.00">Src</text>
</a>
</g>
<!-- dir_94db8d906c8d63228137f8972185b761 -->
<g id="node2" class="node"><title>dir_94db8d906c8d63228137f8972185b761</title>
<a xlink:href="dir_94db8d906c8d63228137f8972185b761.htm" target="_top" xlink:title="webbase">
<polygon fill="#eeeeff" stroke="black" points="134,-180 76,-180 76,-144 134,-144 134,-180"/>
<text text-anchor="middle" x="105" y="-159.5" font-family="Helvetica,sans-Serif" font-size="10.00">webbase</text>
</a>
</g>
<!-- dir_201ff09837a767d417a8f680169bbb63 -->
<g id="node3" class="node"><title>dir_201ff09837a767d417a8f680169bbb63</title>
<a xlink:href="dir_201ff09837a767d417a8f680169bbb63.htm" target="_top" xlink:title="lunaui">
<polygon fill="white" stroke="red" points="66,-108 12,-108 12,-72 66,-72 66,-108"/>
<text text-anchor="middle" x="39" y="-87.5" font-family="Helvetica,sans-Serif" font-size="10.00">lunaui</text>
</a>
</g>
<!-- dir_94db8d906c8d63228137f8972185b761&#45;&gt;dir_201ff09837a767d417a8f680169bbb63 -->
<g id="edge5" class="edge"><title>dir_94db8d906c8d63228137f8972185b761&#45;&gt;dir_201ff09837a767d417a8f680169bbb63</title>
<path fill="none" stroke="black" d="M88.3454,-143.831C80.5886,-135.369 71.2198,-125.149 62.739,-115.897"/>
<polygon fill="black" stroke="black" points="65.2162,-113.42 55.8788,-108.413 60.0561,-118.15 65.2162,-113.42"/>
<a xlink:href="dir_000011_000002.htm" target="_top" xlink:title="8">
<text text-anchor="middle" x="69.7381" y="-111.651" font-family="Helvetica,sans-Serif" font-size="10.00">8</text>
</a>
</g>
<!-- dir_cc0f5faceb28dcbf7d2bc90940295b5f -->
<g id="node4" class="node"><title>dir_cc0f5faceb28dcbf7d2bc90940295b5f</title>
<a xlink:href="dir_cc0f5faceb28dcbf7d2bc90940295b5f.htm" target="_top" xlink:title="base">
<polygon fill="white" stroke="red" points="93,-36 39,-36 39,-1.77636e-14 93,-3.55271e-15 93,-36"/>
<text text-anchor="middle" x="66" y="-15.5" font-family="Helvetica,sans-Serif" font-size="10.00">base</text>
</a>
</g>
<!-- dir_94db8d906c8d63228137f8972185b761&#45;&gt;dir_cc0f5faceb28dcbf7d2bc90940295b5f -->
<g id="edge7" class="edge"><title>dir_94db8d906c8d63228137f8972185b761&#45;&gt;dir_cc0f5faceb28dcbf7d2bc90940295b5f</title>
<path fill="none" stroke="black" d="M100.061,-143.762C93.3793,-119.093 81.3995,-74.8598 73.576,-45.9731"/>
<polygon fill="black" stroke="black" points="76.8918,-44.8269 70.8993,-36.0896 70.1352,-46.6569 76.8918,-44.8269"/>
<a xlink:href="dir_000011_000004.htm" target="_top" xlink:title="17">
<text text-anchor="middle" x="80.5719" y="-45.0543" font-family="Helvetica,sans-Serif" font-size="10.00">17</text>
</a>
</g>
<!-- dir_f9417e0c5e52545bcaea0f5937e153dd -->
<g id="node5" class="node"><title>dir_f9417e0c5e52545bcaea0f5937e153dd</title>
<a xlink:href="dir_f9417e0c5e52545bcaea0f5937e153dd.htm" target="_top" xlink:title="core">
<polygon fill="none" stroke="black" points="176,-108 122,-108 122,-72 176,-72 176,-108"/>
<text text-anchor="middle" x="149" y="-87.5" font-family="Helvetica,sans-Serif" font-size="10.00">core</text>
</a>
</g>
<!-- dir_94db8d906c8d63228137f8972185b761&#45;&gt;dir_f9417e0c5e52545bcaea0f5937e153dd -->
<g id="edge9" class="edge"><title>dir_94db8d906c8d63228137f8972185b761&#45;&gt;dir_f9417e0c5e52545bcaea0f5937e153dd</title>
<path fill="none" stroke="black" d="M116.103,-143.831C121.067,-135.708 127.022,-125.964 132.493,-117.012"/>
<polygon fill="black" stroke="black" points="135.519,-118.771 137.747,-108.413 129.546,-115.121 135.519,-118.771"/>
<a xlink:href="dir_000011_000010.htm" target="_top" xlink:title="2">
<text text-anchor="middle" x="136.068" y="-120.819" font-family="Helvetica,sans-Serif" font-size="10.00">2</text>
</a>
</g>
<!-- dir_47856c770a5a0edbbc9acaf91dcf554c -->
<g id="node6" class="node"><title>dir_47856c770a5a0edbbc9acaf91dcf554c</title>
<a xlink:href="dir_47856c770a5a0edbbc9acaf91dcf554c.htm" target="_top" xlink:title="minimalui">
<polygon fill="none" stroke="black" points="58,-180 2.13163e-14,-180 0,-144 58,-144 58,-180"/>
<text text-anchor="middle" x="29" y="-159.5" font-family="Helvetica,sans-Serif" font-size="10.00">minimalui</text>
</a>
</g>
<!-- dir_94db8d906c8d63228137f8972185b761&#45;&gt;dir_47856c770a5a0edbbc9acaf91dcf554c -->
<g id="edge11" class="edge"><title>dir_94db8d906c8d63228137f8972185b761&#45;&gt;dir_47856c770a5a0edbbc9acaf91dcf554c</title>
<path fill="none" stroke="black" d="M75.6836,-162C73.21,-162 70.7365,-162 68.2629,-162"/>
<polygon fill="black" stroke="black" points="68.0938,-158.5 58.0938,-162 68.0937,-165.5 68.0938,-158.5"/>
<a xlink:href="dir_000011_000012.htm" target="_top" xlink:title="1">
<text text-anchor="middle" x="71.6884" y="-153.161" font-family="Helvetica,sans-Serif" font-size="10.00">1</text>
</a>
</g>
<!-- dir_201ff09837a767d417a8f680169bbb63&#45;&gt;dir_cc0f5faceb28dcbf7d2bc90940295b5f -->
<g id="edge3" class="edge"><title>dir_201ff09837a767d417a8f680169bbb63&#45;&gt;dir_cc0f5faceb28dcbf7d2bc90940295b5f</title>
<path fill="none" stroke="black" d="M45.8132,-71.8314C48.7644,-63.9617 52.2858,-54.5712 55.555,-45.8533"/>
<polygon fill="black" stroke="black" points="58.8609,-47.0055 59.095,-36.4133 52.3066,-44.5476 58.8609,-47.0055"/>
<a xlink:href="dir_000002_000004.htm" target="_top" xlink:title="3">
<text text-anchor="middle" x="60.2573" y="-48.8682" font-family="Helvetica,sans-Serif" font-size="10.00">3</text>
</a>
</g>
<!-- dir_47856c770a5a0edbbc9acaf91dcf554c&#45;&gt;dir_94db8d906c8d63228137f8972185b761 -->
<g id="edge15" class="edge"><title>dir_47856c770a5a0edbbc9acaf91dcf554c&#45;&gt;dir_94db8d906c8d63228137f8972185b761</title>
<path fill="none" stroke="black" d="M58.0938,-162C60.5673,-162 63.0409,-162 65.5145,-162"/>
<polygon fill="black" stroke="black" points="65.6836,-165.5 75.6836,-162 65.6836,-158.5 65.6836,-165.5"/>
<a xlink:href="dir_000012_000011.htm" target="_top" xlink:title="5">
<text text-anchor="middle" x="62.089" y="-165.839" font-family="Helvetica,sans-Serif" font-size="10.00">5</text>
</a>
</g>
<!-- dir_47856c770a5a0edbbc9acaf91dcf554c&#45;&gt;dir_201ff09837a767d417a8f680169bbb63 -->
<g id="edge13" class="edge"><title>dir_47856c770a5a0edbbc9acaf91dcf554c&#45;&gt;dir_201ff09837a767d417a8f680169bbb63</title>
<path fill="none" stroke="black" d="M31.5234,-143.831C32.5929,-136.131 33.8647,-126.974 35.0532,-118.417"/>
<polygon fill="black" stroke="black" points="38.5336,-118.8 36.4426,-108.413 31.6001,-117.837 38.5336,-118.8"/>
<a xlink:href="dir_000012_000002.htm" target="_top" xlink:title="1">
<text text-anchor="middle" x="40.8514" y="-120.251" font-family="Helvetica,sans-Serif" font-size="10.00">1</text>
</a>
</g>
</g>
</svg>
