<?xml version="1.0" encoding="UTF-8" standalone="no"?>
<!DOCTYPE svg PUBLIC "-//W3C//DTD SVG 1.1//EN"
 "http://www.w3.org/Graphics/SVG/1.1/DTD/svg11.dtd">
<!-- Generated by graphviz version 2.26.3 (20100126.1600)
 -->
<!-- Title: minimalui Pages: 1 -->
<svg width="156pt" height="153pt"
 viewBox="0.00 0.00 156.00 153.00" xmlns="http://www.w3.org/2000/svg" xmlns:xlink="http://www.w3.org/1999/xlink">
<g id="graph1" class="graph" transform="scale(1 1) rotate(0) translate(4 149)">
<title>minimalui</title>
<polygon fill="white" stroke="white" points="-4,5 -4,-149 153,-149 153,5 -4,5"/>
<g id="graph2" class="cluster"><title>clusterdir_8c35b23f27c5b32e00b08d284a24f153</title>
<a xlink:href="dir_8c35b23f27c5b32e00b08d284a24f153.htm" target="_top" xlink:title="Src">
<polygon fill="#ddddee" stroke="black" points="8,-64 8,-137 82,-137 82,-64 8,-64"/>
<text text-anchor="middle" x="45" y="-124" font-family="Helvetica,sans-Serif" font-size="10.00">Src</text>
</a>
</g>
<!-- dir_47856c770a5a0edbbc9acaf91dcf554c -->
<g id="node2" class="node"><title>dir_47856c770a5a0edbbc9acaf91dcf554c</title>
<a xlink:href="dir_47856c770a5a0edbbc9acaf91dcf554c.htm" target="_top" xlink:title="minimalui">
<polygon fill="#eeeeff" stroke="black" points="74,-108 16,-108 16,-72 74,-72 74,-108"/>
<text text-anchor="middle" x="45" y="-87.5" font-family="Helvetica,sans-Serif" font-size="10.00">minimalui</text>
</a>
</g>
<!-- dir_201ff09837a767d417a8f680169bbb63 -->
<g id="node3" class="node"><title>dir_201ff09837a767d417a8f680169bbb63</title>
<a xlink:href="dir_201ff09837a767d417a8f680169bbb63.htm" target="_top" xlink:title="lunaui">
<polygon fill="white" stroke="red" points="146,-108 92,-108 92,-72 146,-72 146,-108"/>
<text text-anchor="middle" x="119" y="-87.5" font-family="Helvetica,sans-Serif" font-size="10.00">lunaui</text>
</a>
</g>
<!-- dir_47856c770a5a0edbbc9acaf91dcf554c&#45;&gt;dir_201ff09837a767d417a8f680169bbb63 -->
<g id="edge9" class="edge"><title>dir_47856c770a5a0edbbc9acaf91dcf554c&#45;&gt;dir_201ff09837a767d417a8f680169bbb63</title>
<path fill="none" stroke="black" d="M74.1953,-90C76.6565,-90 79.1177,-90 81.5789,-90"/>
<polygon fill="black" stroke="black" points="81.6972,-93.5001 91.6971,-90 81.6971,-86.5001 81.6972,-93.5001"/>
<a xlink:href="dir_000012_000002.htm" target="_top" xlink:title="1">
<text text-anchor="middle" x="78.1025" y="-93.8393" font-family="Helvetica,sans-Serif" font-size="10.00">1</text>
</a>
</g>
<!-- dir_94db8d906c8d63228137f8972185b761 -->
<g id="node4" class="node"><title>dir_94db8d906c8d63228137f8972185b761</title>
<a xlink:href="dir_94db8d906c8d63228137f8972185b761.htm" target="_top" xlink:title="webbase">
<polygon fill="none" stroke="black" points="148,-36 90,-36 90,-1.77636e-14 148,-3.55271e-15 148,-36"/>
<text text-anchor="middle" x="119" y="-15.5" font-family="Helvetica,sans-Serif" font-size="10.00">webbase</text>
</a>
</g>
<!-- dir_47856c770a5a0edbbc9acaf91dcf554c&#45;&gt;dir_94db8d906c8d63228137f8972185b761 -->
<g id="edge11" class="edge"><title>dir_47856c770a5a0edbbc9acaf91dcf554c&#45;&gt;dir_94db8d906c8d63228137f8972185b761</title>
<path fill="none" stroke="black" d="M57.7209,-71.8314C65.8125,-63.1337 76.4891,-52.5783 86.707,-43.1265"/>
<polygon fill="black" stroke="black" points="89.3274,-45.4749 94.3808,-36.1628 84.6233,-40.2911 89.3274,-45.4749"/>
<a xlink:href="dir_000012_000011.htm" target="_top" xlink:title="5">
<text text-anchor="middle" x="88.5735" y="-47.493" font-family="Helvetica,sans-Serif" font-size="10.00">5</text>
</a>
</g>
<!-- dir_201ff09837a767d417a8f680169bbb63&#45;&gt;dir_94db8d906c8d63228137f8972185b761 -->
<g id="edge3" class="edge"><title>dir_201ff09837a767d417a8f680169bbb63&#45;&gt;dir_94db8d906c8d63228137f8972185b761</title>
<path fill="none" stroke="black" d="M113.048,-71.8314C112.297,-64.131 112.076,-54.9743 112.385,-46.4166"/>
<polygon fill="black" stroke="black" points="115.879,-46.6161 113.024,-36.4133 108.893,-46.1697 115.879,-46.6161"/>
<a xlink:href="dir_000002_000011.htm" target="_top" xlink:title="21">
<text text-anchor="middle" x="118.484" y="-47.8844" font-family="Helvetica,sans-Serif" font-size="10.00">21</text>
</a>
</g>
<!-- dir_94db8d906c8d63228137f8972185b761&#45;&gt;dir_47856c770a5a0edbbc9acaf91dcf554c -->
<g id="edge7" class="edge"><title>dir_94db8d906c8d63228137f8972185b761&#45;&gt;dir_47856c770a5a0edbbc9acaf91dcf554c</title>
<path fill="none" stroke="black" d="M106.051,-36.4133C97.9737,-45.0787 87.3785,-55.5464 77.2402,-64.9223"/>
<polygon fill="black" stroke="black" points="74.6796,-62.5196 69.6257,-71.8314 79.3834,-67.7037 74.6796,-62.5196"/>
<a xlink:href="dir_000011_000012.htm" target="_top" xlink:title="1">
<text text-anchor="middle" x="75.4338" y="-55.5015" font-family="Helvetica,sans-Serif" font-size="10.00">1</text>
</a>
</g>
<!-- dir_94db8d906c8d63228137f8972185b761&#45;&gt;dir_201ff09837a767d417a8f680169bbb63 -->
<g id="edge5" class="edge"><title>dir_94db8d906c8d63228137f8972185b761&#45;&gt;dir_201ff09837a767d417a8f680169bbb63</title>
<path fill="none" stroke="black" d="M124.976,-36.4133C125.707,-44.0593 125.92,-53.1084 125.615,-61.5726"/>
<polygon fill="black" stroke="black" points="122.105,-61.6264 124.952,-71.8314 129.09,-62.078 122.105,-61.6264"/>
<a xlink:href="dir_000011_000002.htm" target="_top" xlink:title="8">
<text text-anchor="middle" x="119.503" y="-55.3562" font-family="Helvetica,sans-Serif" font-size="10.00">8</text>
</a>
</g>
</g>
</svg>
