<?xml version="1.0" encoding="UTF-8" standalone="no"?>
<!DOCTYPE svg PUBLIC "-//W3C//DTD SVG 1.1//EN"
 "http://www.w3.org/Graphics/SVG/1.1/DTD/svg11.dtd">
<!-- Generated by graphviz version 2.26.3 (20100126.1600)
 -->
<!-- Title: DockWebApp.h Pages: 1 -->
<svg width="1646pt" height="378pt"
 viewBox="0.00 0.00 1646.00 378.00" xmlns="http://www.w3.org/2000/svg" xmlns:xlink="http://www.w3.org/1999/xlink">
<g id="graph1" class="graph" transform="scale(1 1) rotate(0) translate(4 374)">
<title>DockWebApp.h</title>
<polygon fill="white" stroke="white" points="-4,5 -4,-374 1643,-374 1643,5 -4,5"/>
<!-- Node1 -->
<g id="node1" class="node"><title>Node1</title>
<polygon fill="#bfbfbf" stroke="black" points="98.5,-348.5 98.5,-369.5 187.5,-369.5 187.5,-348.5 98.5,-348.5"/>
<text text-anchor="middle" x="143" y="-356.5" font-family="Helvetica,sans-Serif" font-size="10.00">DockWebApp.h</text>
</g>
<!-- Node2 -->
<g id="node3" class="node"><title>Node2</title>
<polygon fill="white" stroke="#bfbfbf" points="432.5,-0.5 432.5,-21.5 499.5,-21.5 499.5,-0.5 432.5,-0.5"/>
<text text-anchor="middle" x="466" y="-8.5" font-family="Helvetica,sans-Serif" font-size="10.00">Common.h</text>
</g>
<!-- Node1&#45;&gt;Node2 -->
<g id="edge2" class="edge"><title>Node1&#45;&gt;Node2</title>
<path fill="none" stroke="midnightblue" d="M109.473,-348.446C67.2064,-332.801 0,-299.103 0,-243 0,-243 0,-243 0,-127 0,-40.4929 306.219,-18.0103 422.196,-12.5974"/>
<polygon fill="midnightblue" stroke="midnightblue" points="422.652,-16.0807 432.486,-12.139 422.341,-9.0876 422.652,-16.0807"/>
</g>
<!-- Node3 -->
<g id="node5" class="node"><title>Node3</title>
<a xlink:href="WindowedWebApp_8h.htm" target="_top" xlink:title="WindowedWebApp.h">
<polygon fill="white" stroke="black" points="614,-232.5 614,-253.5 728,-253.5 728,-232.5 614,-232.5"/>
<text text-anchor="middle" x="671" y="-240.5" font-family="Helvetica,sans-Serif" font-size="10.00">WindowedWebApp.h</text>
</a>
</g>
<!-- Node1&#45;&gt;Node3 -->
<g id="edge4" class="edge"><title>Node1&#45;&gt;Node3</title>
<path fill="none" stroke="midnightblue" d="M187.562,-349.21C282.939,-328.256 506.793,-279.076 613.052,-255.731"/>
<polygon fill="midnightblue" stroke="midnightblue" points="613.944,-259.119 622.96,-253.554 612.442,-252.282 613.944,-259.119"/>
</g>
<!-- Node21 -->
<g id="node44" class="node"><title>Node21</title>
<polygon fill="white" stroke="#bfbfbf" points="30,-174.5 30,-195.5 122,-195.5 122,-174.5 30,-174.5"/>
<text text-anchor="middle" x="76" y="-182.5" font-family="Helvetica,sans-Serif" font-size="10.00">WindowTypes.h</text>
</g>
<!-- Node1&#45;&gt;Node21 -->
<g id="edge54" class="edge"><title>Node1&#45;&gt;Node21</title>
<path fill="none" stroke="midnightblue" d="M133.65,-348.308C118.583,-330.316 89.4657,-292.193 78,-254 73.2691,-238.241 73.0374,-219.539 73.8398,-205.583"/>
<polygon fill="midnightblue" stroke="midnightblue" points="77.3333,-205.802 74.6387,-195.556 70.3554,-205.246 77.3333,-205.802"/>
</g>
<!-- Node25 -->
<g id="node53" class="node"><title>Node25</title>
<a xlink:href="CardWebApp_8h.htm" target="_top" xlink:title="CardWebApp.h">
<polygon fill="white" stroke="black" points="257,-290.5 257,-311.5 345,-311.5 345,-290.5 257,-290.5"/>
<text text-anchor="middle" x="301" y="-298.5" font-family="Helvetica,sans-Serif" font-size="10.00">CardWebApp.h</text>
</a>
</g>
<!-- Node1&#45;&gt;Node25 -->
<g id="edge56" class="edge"><title>Node1&#45;&gt;Node25</title>
<path fill="none" stroke="midnightblue" d="M171.613,-348.497C197.148,-339.123 234.737,-325.324 262.829,-315.012"/>
<polygon fill="midnightblue" stroke="midnightblue" points="264.152,-318.255 272.334,-311.523 261.74,-311.684 264.152,-318.255"/>
</g>
<!-- Node3&#45;&gt;Node2 -->
<g id="edge6" class="edge"><title>Node3&#45;&gt;Node2</title>
<path fill="none" stroke="midnightblue" d="M613.663,-235.006C586.494,-228.555 555.388,-216.927 534,-196 487.453,-150.455 472.532,-70.3856 467.94,-32.2941"/>
<polygon fill="midnightblue" stroke="midnightblue" points="471.372,-31.4734 466.823,-21.905 464.412,-32.2219 471.372,-31.4734"/>
</g>
<!-- Node4 -->
<g id="node8" class="node"><title>Node4</title>
<polygon fill="white" stroke="#bfbfbf" points="542.5,-174.5 542.5,-195.5 571.5,-195.5 571.5,-174.5 542.5,-174.5"/>
<text text-anchor="middle" x="557" y="-182.5" font-family="Helvetica,sans-Serif" font-size="10.00">list</text>
</g>
<!-- Node3&#45;&gt;Node4 -->
<g id="edge8" class="edge"><title>Node3&#45;&gt;Node4</title>
<path fill="none" stroke="midnightblue" d="M650.355,-232.497C630.747,-222.52 601.287,-207.532 580.722,-197.069"/>
<polygon fill="midnightblue" stroke="midnightblue" points="582.195,-193.891 571.695,-192.476 579.02,-200.13 582.195,-193.891"/>
</g>
<!-- Node5 -->
<g id="node10" class="node"><title>Node5</title>
<polygon fill="white" stroke="#bfbfbf" points="588.5,-174.5 588.5,-195.5 669.5,-195.5 669.5,-174.5 588.5,-174.5"/>
<text text-anchor="middle" x="629" y="-182.5" font-family="Helvetica,sans-Serif" font-size="10.00">AsyncCaller.h</text>
</g>
<!-- Node3&#45;&gt;Node5 -->
<g id="edge10" class="edge"><title>Node3&#45;&gt;Node5</title>
<path fill="none" stroke="midnightblue" d="M663.297,-232.362C657.554,-224.431 649.557,-213.389 642.73,-203.961"/>
<polygon fill="midnightblue" stroke="midnightblue" points="645.355,-201.617 636.655,-195.571 639.685,-205.723 645.355,-201.617"/>
</g>
<!-- Node6 -->
<g id="node12" class="node"><title>Node6</title>
<a xlink:href="WebAppBase_8h.htm" target="_top" xlink:title="WebAppBase.h">
<polygon fill="white" stroke="black" points="1252.5,-174.5 1252.5,-195.5 1341.5,-195.5 1341.5,-174.5 1252.5,-174.5"/>
<text text-anchor="middle" x="1297" y="-182.5" font-family="Helvetica,sans-Serif" font-size="10.00">WebAppBase.h</text>
</a>
</g>
<!-- Node3&#45;&gt;Node6 -->
<g id="edge12" class="edge"><title>Node3&#45;&gt;Node6</title>
<path fill="none" stroke="midnightblue" d="M728.191,-240.637C829.816,-235.931 1048.65,-223.507 1242.18,-196.132"/>
<polygon fill="midnightblue" stroke="midnightblue" points="1242.85,-199.573 1252.25,-194.691 1241.85,-192.643 1242.85,-199.573"/>
</g>
<!-- Node17 -->
<g id="node36" class="node"><title>Node17</title>
<polygon fill="white" stroke="#bfbfbf" points="444.5,-174.5 444.5,-195.5 487.5,-195.5 487.5,-174.5 444.5,-174.5"/>
<text text-anchor="middle" x="466" y="-182.5" font-family="Helvetica,sans-Serif" font-size="10.00">sptr.h</text>
</g>
<!-- Node3&#45;&gt;Node17 -->
<g id="edge38" class="edge"><title>Node3&#45;&gt;Node17</title>
<path fill="none" stroke="midnightblue" d="M631.386,-232.466C596.861,-223.186 545.492,-209.138 501,-196 499.931,-195.684 498.845,-195.36 497.748,-195.031"/>
<polygon fill="midnightblue" stroke="midnightblue" points="498.395,-191.569 487.809,-191.983 496.343,-198.261 498.395,-191.569"/>
</g>
<!-- Node18 -->
<g id="node38" class="node"><title>Node18</title>
<polygon fill="white" stroke="#bfbfbf" points="687,-174.5 687,-195.5 739,-195.5 739,-174.5 687,-174.5"/>
<text text-anchor="middle" x="713" y="-182.5" font-family="Helvetica,sans-Serif" font-size="10.00">Event.h</text>
</g>
<!-- Node3&#45;&gt;Node18 -->
<g id="edge40" class="edge"><title>Node3&#45;&gt;Node18</title>
<path fill="none" stroke="midnightblue" d="M678.703,-232.362C684.446,-224.431 692.443,-213.389 699.27,-203.961"/>
<polygon fill="midnightblue" stroke="midnightblue" points="702.315,-205.723 705.345,-195.571 696.645,-201.617 702.315,-205.723"/>
</g>
<!-- Node19 -->
<g id="node40" class="node"><title>Node19</title>
<polygon fill="white" stroke="#bfbfbf" points="757,-174.5 757,-195.5 809,-195.5 809,-174.5 757,-174.5"/>
<text text-anchor="middle" x="783" y="-182.5" font-family="Helvetica,sans-Serif" font-size="10.00">Timer.h</text>
</g>
<!-- Node3&#45;&gt;Node19 -->
<g id="edge42" class="edge"><title>Node3&#45;&gt;Node19</title>
<path fill="none" stroke="midnightblue" d="M691.282,-232.497C708.618,-223.519 733.79,-210.484 753.38,-200.339"/>
<polygon fill="midnightblue" stroke="midnightblue" points="755.22,-203.328 762.49,-195.621 752.001,-197.112 755.22,-203.328"/>
</g>
<!-- Node20 -->
<g id="node42" class="node"><title>Node20</title>
<polygon fill="white" stroke="#bfbfbf" points="826.5,-174.5 826.5,-195.5 937.5,-195.5 937.5,-174.5 826.5,-174.5"/>
<text text-anchor="middle" x="882" y="-182.5" font-family="Helvetica,sans-Serif" font-size="10.00">WindowProperties.h</text>
</g>
<!-- Node3&#45;&gt;Node20 -->
<g id="edge44" class="edge"><title>Node3&#45;&gt;Node20</title>
<path fill="none" stroke="midnightblue" d="M709.211,-232.497C744.205,-222.877 796.152,-208.598 833.947,-198.209"/>
<polygon fill="midnightblue" stroke="midnightblue" points="835.003,-201.548 843.718,-195.523 833.148,-194.799 835.003,-201.548"/>
</g>
<!-- Node3&#45;&gt;Node21 -->
<g id="edge46" class="edge"><title>Node3&#45;&gt;Node21</title>
<path fill="none" stroke="midnightblue" d="M613.949,-237.439C499.996,-226.331 245.466,-201.519 132.209,-190.479"/>
<polygon fill="midnightblue" stroke="midnightblue" points="132.316,-186.973 122.024,-189.486 131.637,-193.94 132.316,-186.973"/>
</g>
<!-- Node22 -->
<g id="node46" class="node"><title>Node22</title>
<polygon fill="white" stroke="#bfbfbf" points="955,-174.5 955,-195.5 1079,-195.5 1079,-174.5 955,-174.5"/>
<text text-anchor="middle" x="1017" y="-182.5" font-family="Helvetica,sans-Serif" font-size="10.00">PIpcChannelListener.h</text>
</g>
<!-- Node3&#45;&gt;Node22 -->
<g id="edge48" class="edge"><title>Node3&#45;&gt;Node22</title>
<path fill="none" stroke="midnightblue" d="M728.135,-233.422C787.439,-223.481 880.362,-207.905 944.732,-197.114"/>
<polygon fill="midnightblue" stroke="midnightblue" points="945.524,-200.53 954.808,-195.425 944.367,-193.627 945.524,-200.53"/>
</g>
<!-- Node23 -->
<g id="node48" class="node"><title>Node23</title>
<polygon fill="white" stroke="#bfbfbf" points="1097,-174.5 1097,-195.5 1171,-195.5 1171,-174.5 1097,-174.5"/>
<text text-anchor="middle" x="1134" y="-182.5" font-family="Helvetica,sans-Serif" font-size="10.00">PIpcBuffer.h</text>
</g>
<!-- Node3&#45;&gt;Node23 -->
<g id="edge50" class="edge"><title>Node3&#45;&gt;Node23</title>
<path fill="none" stroke="midnightblue" d="M728.311,-238.776C807.016,-232.481 953.092,-219.03 1086.9,-196.023"/>
<polygon fill="midnightblue" stroke="midnightblue" points="1087.67,-199.442 1096.92,-194.278 1086.47,-192.546 1087.67,-199.442"/>
</g>
<!-- Node24 -->
<g id="node50" class="node"><title>Node24</title>
<polygon fill="white" stroke="#bfbfbf" points="1188.5,-174.5 1188.5,-195.5 1235.5,-195.5 1235.5,-174.5 1188.5,-174.5"/>
<text text-anchor="middle" x="1212" y="-182.5" font-family="Helvetica,sans-Serif" font-size="10.00">QRect</text>
</g>
<!-- Node3&#45;&gt;Node24 -->
<g id="edge52" class="edge"><title>Node3&#45;&gt;Node24</title>
<path fill="none" stroke="midnightblue" d="M728.199,-239.447C838.629,-232.312 1078.45,-215.413 1178.6,-195.838"/>
<polygon fill="midnightblue" stroke="midnightblue" points="1179.33,-199.262 1188.41,-193.812 1177.91,-192.406 1179.33,-199.262"/>
</g>
<!-- Node7 -->
<g id="node14" class="node"><title>Node7</title>
<a xlink:href="SysMgrWebBridge_8h.htm" target="_top" xlink:title="SysMgrWebBridge.h">
<polygon fill="white" stroke="black" points="1353.5,-116.5 1353.5,-137.5 1466.5,-137.5 1466.5,-116.5 1353.5,-116.5"/>
<text text-anchor="middle" x="1410" y="-124.5" font-family="Helvetica,sans-Serif" font-size="10.00">SysMgrWebBridge.h</text>
</a>
</g>
<!-- Node6&#45;&gt;Node7 -->
<g id="edge14" class="edge"><title>Node6&#45;&gt;Node7</title>
<path fill="none" stroke="midnightblue" d="M1317.46,-174.497C1335.03,-165.479 1360.58,-152.365 1380.39,-142.201"/>
<polygon fill="midnightblue" stroke="midnightblue" points="1382.01,-145.301 1389.31,-137.621 1378.81,-139.074 1382.01,-145.301"/>
</g>
<!-- Node12 -->
<g id="node25" class="node"><title>Node12</title>
<polygon fill="white" stroke="#bfbfbf" points="1100,-58.5 1100,-79.5 1198,-79.5 1198,-58.5 1100,-58.5"/>
<text text-anchor="middle" x="1149" y="-66.5" font-family="Helvetica,sans-Serif" font-size="10.00">palmimedefines.h</text>
</g>
<!-- Node6&#45;&gt;Node12 -->
<g id="edge36" class="edge"><title>Node6&#45;&gt;Node12</title>
<path fill="none" stroke="midnightblue" d="M1261.17,-174.422C1230.46,-164.751 1189.3,-150.147 1177,-138 1163.75,-124.913 1156.55,-104.709 1152.78,-89.54"/>
<polygon fill="midnightblue" stroke="midnightblue" points="1156.15,-88.5845 1150.61,-79.558 1149.32,-90.0738 1156.15,-88.5845"/>
</g>
<!-- Node15 -->
<g id="node31" class="node"><title>Node15</title>
<polygon fill="white" stroke="#bfbfbf" points="1185.5,-116.5 1185.5,-137.5 1240.5,-137.5 1240.5,-116.5 1185.5,-116.5"/>
<text text-anchor="middle" x="1213" y="-124.5" font-family="Helvetica,sans-Serif" font-size="10.00">QObject</text>
</g>
<!-- Node6&#45;&gt;Node15 -->
<g id="edge32" class="edge"><title>Node6&#45;&gt;Node15</title>
<path fill="none" stroke="midnightblue" d="M1281.59,-174.362C1269.04,-165.696 1251.11,-153.313 1236.73,-143.382"/>
<polygon fill="midnightblue" stroke="midnightblue" points="1238.53,-140.372 1228.31,-137.571 1234.55,-146.133 1238.53,-140.372"/>
</g>
<!-- Node16 -->
<g id="node33" class="node"><title>Node16</title>
<polygon fill="white" stroke="#bfbfbf" points="1258,-116.5 1258,-137.5 1336,-137.5 1336,-116.5 1258,-116.5"/>
<text text-anchor="middle" x="1297" y="-124.5" font-family="Helvetica,sans-Serif" font-size="10.00">lunaservice.h</text>
</g>
<!-- Node6&#45;&gt;Node16 -->
<g id="edge34" class="edge"><title>Node6&#45;&gt;Node16</title>
<path fill="none" stroke="midnightblue" d="M1297,-174.362C1297,-166.922 1297,-156.743 1297,-147.728"/>
<polygon fill="midnightblue" stroke="midnightblue" points="1300.5,-147.571 1297,-137.571 1293.5,-147.571 1300.5,-147.571"/>
</g>
<!-- Node8 -->
<g id="node16" class="node"><title>Node8</title>
<a xlink:href="ProcessBase_8h.htm" target="_top" xlink:title="ProcessBase.h">
<polygon fill="white" stroke="black" points="1551.5,-58.5 1551.5,-79.5 1638.5,-79.5 1638.5,-58.5 1551.5,-58.5"/>
<text text-anchor="middle" x="1595" y="-66.5" font-family="Helvetica,sans-Serif" font-size="10.00">ProcessBase.h</text>
</a>
</g>
<!-- Node7&#45;&gt;Node8 -->
<g id="edge16" class="edge"><title>Node7&#45;&gt;Node8</title>
<path fill="none" stroke="midnightblue" d="M1443.5,-116.497C1473.79,-107 1518.57,-92.9619 1551.59,-82.6087"/>
<polygon fill="midnightblue" stroke="midnightblue" points="1552.94,-85.8544 1561.44,-79.5231 1550.85,-79.175 1552.94,-85.8544"/>
</g>
<!-- Node10 -->
<g id="node21" class="node"><title>Node10</title>
<polygon fill="white" stroke="#bfbfbf" points="1473.5,-58.5 1473.5,-79.5 1534.5,-79.5 1534.5,-58.5 1473.5,-58.5"/>
<text text-anchor="middle" x="1504" y="-66.5" font-family="Helvetica,sans-Serif" font-size="10.00">QtWebKit</text>
</g>
<!-- Node7&#45;&gt;Node10 -->
<g id="edge22" class="edge"><title>Node7&#45;&gt;Node10</title>
<path fill="none" stroke="midnightblue" d="M1427.24,-116.362C1441.55,-107.532 1462.11,-94.844 1478.36,-84.8224"/>
<polygon fill="midnightblue" stroke="midnightblue" points="1480.2,-87.8004 1486.87,-79.5707 1476.52,-81.8431 1480.2,-87.8004"/>
</g>
<!-- Node11 -->
<g id="node23" class="node"><title>Node11</title>
<polygon fill="white" stroke="#bfbfbf" points="1215.5,-58.5 1215.5,-79.5 1274.5,-79.5 1274.5,-58.5 1215.5,-58.5"/>
<text text-anchor="middle" x="1245" y="-66.5" font-family="Helvetica,sans-Serif" font-size="10.00">QPointer</text>
</g>
<!-- Node7&#45;&gt;Node11 -->
<g id="edge24" class="edge"><title>Node7&#45;&gt;Node11</title>
<path fill="none" stroke="midnightblue" d="M1380.12,-116.497C1353.25,-107.053 1313.61,-93.1171 1284.2,-82.7809"/>
<polygon fill="midnightblue" stroke="midnightblue" points="1285.25,-79.4396 1274.66,-79.4252 1282.93,-86.0435 1285.25,-79.4396"/>
</g>
<!-- Node7&#45;&gt;Node12 -->
<g id="edge26" class="edge"><title>Node7&#45;&gt;Node12</title>
<path fill="none" stroke="midnightblue" d="M1362.73,-116.497C1318.8,-106.734 1253.27,-92.1718 1206.36,-81.7474"/>
<polygon fill="midnightblue" stroke="midnightblue" points="1206.87,-78.2758 1196.35,-79.5231 1205.36,-85.1091 1206.87,-78.2758"/>
</g>
<!-- Node13 -->
<g id="node27" class="node"><title>Node13</title>
<polygon fill="white" stroke="#bfbfbf" points="1291.5,-58.5 1291.5,-79.5 1362.5,-79.5 1362.5,-58.5 1291.5,-58.5"/>
<text text-anchor="middle" x="1327" y="-66.5" font-family="Helvetica,sans-Serif" font-size="10.00">QWebPage</text>
</g>
<!-- Node7&#45;&gt;Node13 -->
<g id="edge28" class="edge"><title>Node7&#45;&gt;Node13</title>
<path fill="none" stroke="midnightblue" d="M1394.78,-116.362C1382.37,-107.696 1364.65,-95.3126 1350.44,-85.3819"/>
<polygon fill="midnightblue" stroke="midnightblue" points="1352.33,-82.4297 1342.13,-79.5707 1348.32,-88.1676 1352.33,-82.4297"/>
</g>
<!-- Node14 -->
<g id="node29" class="node"><title>Node14</title>
<polygon fill="white" stroke="#bfbfbf" points="1380,-58.5 1380,-79.5 1456,-79.5 1456,-58.5 1380,-58.5"/>
<text text-anchor="middle" x="1418" y="-66.5" font-family="Helvetica,sans-Serif" font-size="10.00">QWebFrame</text>
</g>
<!-- Node7&#45;&gt;Node14 -->
<g id="edge30" class="edge"><title>Node7&#45;&gt;Node14</title>
<path fill="none" stroke="midnightblue" d="M1411.47,-116.362C1412.49,-108.922 1413.9,-98.7427 1415.14,-89.7276"/>
<polygon fill="midnightblue" stroke="midnightblue" points="1418.64,-89.9551 1416.54,-79.5707 1411.71,-88.9986 1418.64,-89.9551"/>
</g>
<!-- Node8&#45;&gt;Node2 -->
<g id="edge18" class="edge"><title>Node8&#45;&gt;Node2</title>
<path fill="none" stroke="midnightblue" d="M1551.4,-59.2314C1548.56,-58.7655 1545.75,-58.348 1543,-58 1337.96,-32.0192 685.07,-15.8845 509.71,-11.9449"/>
<polygon fill="midnightblue" stroke="midnightblue" points="509.644,-8.44262 499.568,-11.7187 509.488,-15.4409 509.644,-8.44262"/>
</g>
<!-- Node9 -->
<g id="node19" class="node"><title>Node9</title>
<polygon fill="white" stroke="#bfbfbf" points="1568.5,-0.5 1568.5,-21.5 1621.5,-21.5 1621.5,-0.5 1568.5,-0.5"/>
<text text-anchor="middle" x="1595" y="-8.5" font-family="Helvetica,sans-Serif" font-size="10.00">QString</text>
</g>
<!-- Node8&#45;&gt;Node9 -->
<g id="edge20" class="edge"><title>Node8&#45;&gt;Node9</title>
<path fill="none" stroke="midnightblue" d="M1595,-58.3619C1595,-50.9219 1595,-40.7427 1595,-31.7276"/>
<polygon fill="midnightblue" stroke="midnightblue" points="1598.5,-31.5706 1595,-21.5707 1591.5,-31.5707 1598.5,-31.5706"/>
</g>
<!-- Node25&#45;&gt;Node2 -->
<g id="edge58" class="edge"><title>Node25&#45;&gt;Node2</title>
<path fill="none" stroke="midnightblue" d="M345.114,-291.761C367.325,-284.916 392.886,-273.312 409,-254 423.415,-236.724 451.958,-87.5377 462.217,-31.8482"/>
<polygon fill="midnightblue" stroke="midnightblue" points="465.709,-32.21 464.066,-21.7432 458.823,-30.9497 465.709,-32.21"/>
</g>
<!-- Node25&#45;&gt;Node3 -->
<g id="edge62" class="edge"><title>Node25&#45;&gt;Node3</title>
<path fill="none" stroke="midnightblue" d="M345.263,-294.061C409.383,-284.01 528.625,-265.318 603.681,-253.553"/>
<polygon fill="midnightblue" stroke="midnightblue" points="604.631,-256.947 613.968,-251.94 603.547,-250.031 604.631,-256.947"/>
</g>
<!-- Node25&#45;&gt;Node17 -->
<g id="edge60" class="edge"><title>Node25&#45;&gt;Node17</title>
<path fill="none" stroke="midnightblue" d="M345.121,-296.541C375.963,-291.221 416.107,-279.559 442,-254 455.001,-241.166 460.97,-220.931 463.704,-205.685"/>
<polygon fill="midnightblue" stroke="midnightblue" points="467.189,-206.046 465.178,-195.643 460.263,-205.029 467.189,-206.046"/>
</g>
<!-- Node25&#45;&gt;Node21 -->
<g id="edge64" class="edge"><title>Node25&#45;&gt;Node21</title>
<path fill="none" stroke="midnightblue" d="M256.846,-296.241C203.448,-289.607 117.863,-275.87 95,-254 81.995,-241.56 77.624,-221.108 76.28,-205.693"/>
<polygon fill="midnightblue" stroke="midnightblue" points="79.7672,-205.352 75.7562,-195.546 72.7765,-205.713 79.7672,-205.352"/>
</g>
<!-- Node26 -->
<g id="node59" class="node"><title>Node26</title>
<polygon fill="white" stroke="#bfbfbf" points="103.5,-232.5 103.5,-253.5 186.5,-253.5 186.5,-232.5 103.5,-232.5"/>
<text text-anchor="middle" x="145" y="-240.5" font-family="Helvetica,sans-Serif" font-size="10.00">SysMgrDefs.h</text>
</g>
<!-- Node25&#45;&gt;Node26 -->
<g id="edge66" class="edge"><title>Node25&#45;&gt;Node26</title>
<path fill="none" stroke="midnightblue" d="M272.75,-290.497C247.538,-281.123 210.424,-267.324 182.688,-257.012"/>
<polygon fill="midnightblue" stroke="midnightblue" points="183.896,-253.727 173.303,-253.523 181.457,-260.289 183.896,-253.727"/>
</g>
<!-- Node27 -->
<g id="node61" class="node"><title>Node27</title>
<polygon fill="white" stroke="#bfbfbf" points="204,-232.5 204,-253.5 292,-253.5 292,-232.5 204,-232.5"/>
<text text-anchor="middle" x="248" y="-240.5" font-family="Helvetica,sans-Serif" font-size="10.00">QGraphicsItem</text>
</g>
<!-- Node25&#45;&gt;Node27 -->
<g id="edge68" class="edge"><title>Node25&#45;&gt;Node27</title>
<path fill="none" stroke="midnightblue" d="M291.279,-290.362C283.808,-282.186 273.314,-270.702 264.531,-261.091"/>
<polygon fill="midnightblue" stroke="midnightblue" points="266.989,-258.592 257.659,-253.571 261.821,-263.314 266.989,-258.592"/>
</g>
<!-- Node28 -->
<g id="node63" class="node"><title>Node28</title>
<polygon fill="white" stroke="#bfbfbf" points="310,-232.5 310,-253.5 400,-253.5 400,-232.5 310,-232.5"/>
<text text-anchor="middle" x="355" y="-240.5" font-family="Helvetica,sans-Serif" font-size="10.00">QGraphicsView</text>
</g>
<!-- Node25&#45;&gt;Node28 -->
<g id="edge70" class="edge"><title>Node25&#45;&gt;Node28</title>
<path fill="none" stroke="midnightblue" d="M310.904,-290.362C318.516,-282.186 329.208,-270.702 338.157,-261.091"/>
<polygon fill="midnightblue" stroke="midnightblue" points="340.906,-263.275 345.158,-253.571 335.783,-258.505 340.906,-263.275"/>
</g>
</g>
</svg>
