<?xml version="1.0" encoding="UTF-8" standalone="no"?>
<!DOCTYPE svg PUBLIC "-//W3C//DTD SVG 1.1//EN"
 "http://www.w3.org/Graphics/SVG/1.1/DTD/svg11.dtd">
<!-- Generated by graphviz version 2.26.3 (20100126.1600)
 -->
<!-- Title: DockWebApp.cpp Pages: 1 -->
<svg width="2004pt" height="436pt"
 viewBox="0.00 0.00 2004.32 436.00" xmlns="http://www.w3.org/2000/svg" xmlns:xlink="http://www.w3.org/1999/xlink">
<g id="graph1" class="graph" transform="scale(1 1) rotate(0) translate(4 432)">
<title>DockWebApp.cpp</title>
<polygon fill="white" stroke="white" points="-4,5 -4,-432 2001.32,-432 2001.32,5 -4,5"/>
<!-- Node1 -->
<g id="node1" class="node"><title>Node1</title>
<polygon fill="#bfbfbf" stroke="black" points="1102.32,-406.5 1102.32,-427.5 1202.32,-427.5 1202.32,-406.5 1102.32,-406.5"/>
<text text-anchor="middle" x="1152.32" y="-414.5" font-family="Helvetica,sans-Serif" font-size="10.00">DockWebApp.cpp</text>
</g>
<!-- Node2 -->
<g id="node3" class="node"><title>Node2</title>
<polygon fill="white" stroke="#bfbfbf" points="886.82,-0.5 886.82,-21.5 953.82,-21.5 953.82,-0.5 886.82,-0.5"/>
<text text-anchor="middle" x="920.32" y="-8.5" font-family="Helvetica,sans-Serif" font-size="10.00">Common.h</text>
</g>
<!-- Node1&#45;&gt;Node2 -->
<g id="edge2" class="edge"><title>Node1&#45;&gt;Node2</title>
<path fill="none" stroke="midnightblue" d="M1147.22,-406.487C1140.94,-391.861 1132.58,-365.235 1145.32,-348 1172.01,-311.888 1570.13,-235.424 1590.32,-232 1660.22,-220.149 1860.1,-248.885 1907.32,-196 1913.83,-188.706 1913.37,-181.682 1907.32,-174 1771.27,-1.2338 1643.25,-94.0405 1426.32,-58 1256.75,-29.829 1052.21,-17.3148 964.14,-12.9427"/>
<polygon fill="midnightblue" stroke="midnightblue" points="964.145,-9.43895 953.987,-12.4494 963.805,-16.4307 964.145,-9.43895"/>
</g>
<!-- Node3 -->
<g id="node5" class="node"><title>Node3</title>
<polygon fill="white" stroke="#bfbfbf" points="258.82,-348.5 258.82,-369.5 317.82,-369.5 317.82,-348.5 258.82,-348.5"/>
<text text-anchor="middle" x="288.32" y="-356.5" font-family="Helvetica,sans-Serif" font-size="10.00">QPainter</text>
</g>
<!-- Node1&#45;&gt;Node3 -->
<g id="edge4" class="edge"><title>Node1&#45;&gt;Node3</title>
<path fill="none" stroke="midnightblue" d="M1102.25,-415.403C947.956,-410.282 481.22,-393.24 331.32,-370 330.254,-369.835 329.176,-369.655 328.09,-369.462"/>
<polygon fill="midnightblue" stroke="midnightblue" points="328.739,-366.022 318.239,-367.441 327.332,-372.879 328.739,-366.022"/>
</g>
<!-- Node4 -->
<g id="node7" class="node"><title>Node4</title>
<a xlink:href="DockWebApp_8h.htm" target="_top" xlink:title="DockWebApp.h">
<polygon fill="white" stroke="black" points="628.82,-348.5 628.82,-369.5 717.82,-369.5 717.82,-348.5 628.82,-348.5"/>
<text text-anchor="middle" x="673.32" y="-356.5" font-family="Helvetica,sans-Serif" font-size="10.00">DockWebApp.h</text>
</a>
</g>
<!-- Node1&#45;&gt;Node4 -->
<g id="edge6" class="edge"><title>Node1&#45;&gt;Node4</title>
<path fill="none" stroke="midnightblue" d="M1102.15,-411.314C1026.8,-402.715 879.953,-385.736 755.32,-370 746.519,-368.889 737.192,-367.674 728.106,-366.469"/>
<polygon fill="midnightblue" stroke="midnightblue" points="728.364,-362.973 717.989,-365.12 727.439,-369.911 728.364,-362.973"/>
</g>
<!-- Node9 -->
<g id="node19" class="node"><title>Node9</title>
<a xlink:href="SysMgrWebBridge_8h.htm" target="_top" xlink:title="SysMgrWebBridge.h">
<polygon fill="white" stroke="black" points="237.82,-116.5 237.82,-137.5 350.82,-137.5 350.82,-116.5 237.82,-116.5"/>
<text text-anchor="middle" x="294.32" y="-124.5" font-family="Helvetica,sans-Serif" font-size="10.00">SysMgrWebBridge.h</text>
</a>
</g>
<!-- Node1&#45;&gt;Node9 -->
<g id="edge132" class="edge"><title>Node1&#45;&gt;Node9</title>
<path fill="none" stroke="midnightblue" d="M1102.27,-415.837C938.001,-411.793 416.401,-397.094 250.32,-370 137.404,-351.579 2.31987,-415.409 2.31987,-301 2.31987,-301 2.31987,-301 2.31987,-243 2.31987,-203.223 25.1796,-194.412 59.3199,-174 87.212,-157.323 168.567,-143.499 227.752,-135.255"/>
<polygon fill="midnightblue" stroke="midnightblue" points="228.354,-138.705 237.787,-133.881 227.404,-131.77 228.354,-138.705"/>
</g>
<!-- Node21 -->
<g id="node45" class="node"><title>Node21</title>
<polygon fill="white" stroke="#bfbfbf" points="68.3199,-174.5 68.3199,-195.5 160.32,-195.5 160.32,-174.5 68.3199,-174.5"/>
<text text-anchor="middle" x="114.32" y="-182.5" font-family="Helvetica,sans-Serif" font-size="10.00">WindowTypes.h</text>
</g>
<!-- Node1&#45;&gt;Node21 -->
<g id="edge134" class="edge"><title>Node1&#45;&gt;Node21</title>
<path fill="none" stroke="midnightblue" d="M1102.21,-414.758C982.115,-409.081 680.585,-392.942 582.32,-370 409.294,-329.604 215.826,-236.639 143.589,-200.121"/>
<polygon fill="midnightblue" stroke="midnightblue" points="145.106,-196.965 134.605,-195.553 141.933,-203.205 145.106,-196.965"/>
</g>
<!-- Node23 -->
<g id="node49" class="node"><title>Node23</title>
<polygon fill="white" stroke="#bfbfbf" points="420.32,-174.5 420.32,-195.5 494.32,-195.5 494.32,-174.5 420.32,-174.5"/>
<text text-anchor="middle" x="457.32" y="-182.5" font-family="Helvetica,sans-Serif" font-size="10.00">PIpcBuffer.h</text>
</g>
<!-- Node1&#45;&gt;Node23 -->
<g id="edge162" class="edge"><title>Node1&#45;&gt;Node23</title>
<path fill="none" stroke="midnightblue" d="M1102,-414.657C977.628,-408.57 662.763,-391.241 620.32,-370 545.506,-332.56 489.922,-244.463 467.81,-204.876"/>
<polygon fill="midnightblue" stroke="midnightblue" points="470.782,-203.017 462.918,-195.917 464.639,-206.372 470.782,-203.017"/>
</g>
<!-- Node26 -->
<g id="node59" class="node"><title>Node26</title>
<polygon fill="white" stroke="#bfbfbf" points="763.82,-348.5 763.82,-369.5 826.82,-369.5 826.82,-348.5 763.82,-348.5"/>
<text text-anchor="middle" x="795.32" y="-356.5" font-family="Helvetica,sans-Serif" font-size="10.00">Logging.h</text>
</g>
<!-- Node1&#45;&gt;Node26 -->
<g id="edge66" class="edge"><title>Node1&#45;&gt;Node26</title>
<path fill="none" stroke="midnightblue" d="M1102.3,-411.484C1041.57,-404.366 935.907,-390.634 836.971,-370.182"/>
<polygon fill="midnightblue" stroke="midnightblue" points="837.617,-366.741 827.112,-368.117 836.181,-373.593 837.617,-366.741"/>
</g>
<!-- Node27 -->
<g id="node61" class="node"><title>Node27</title>
<polygon fill="white" stroke="#bfbfbf" points="843.82,-348.5 843.82,-369.5 906.82,-369.5 906.82,-348.5 843.82,-348.5"/>
<text text-anchor="middle" x="875.32" y="-356.5" font-family="Helvetica,sans-Serif" font-size="10.00">Settings.h</text>
</g>
<!-- Node1&#45;&gt;Node27 -->
<g id="edge68" class="edge"><title>Node1&#45;&gt;Node27</title>
<path fill="none" stroke="midnightblue" d="M1102.16,-408.145C1056.19,-399.785 986.062,-386.415 916.894,-370.272"/>
<polygon fill="midnightblue" stroke="midnightblue" points="917.679,-366.861 907.143,-367.975 916.075,-373.674 917.679,-366.861"/>
</g>
<!-- Node28 -->
<g id="node63" class="node"><title>Node28</title>
<a xlink:href="WebAppManager_8h.htm" target="_top" xlink:title="WebAppManager.h">
<polygon fill="white" stroke="black" points="1127.82,-232.5 1127.82,-253.5 1234.82,-253.5 1234.82,-232.5 1127.82,-232.5"/>
<text text-anchor="middle" x="1181.32" y="-240.5" font-family="Helvetica,sans-Serif" font-size="10.00">WebAppManager.h</text>
</a>
</g>
<!-- Node1&#45;&gt;Node28 -->
<g id="edge70" class="edge"><title>Node1&#45;&gt;Node28</title>
<path fill="none" stroke="midnightblue" d="M1139.11,-406.198C1129.64,-397.541 1117.65,-384.48 1112.32,-370 1108.94,-360.824 1109.52,-357.368 1112.32,-348 1122.49,-313.989 1147.62,-280.785 1164.57,-261.108"/>
<polygon fill="midnightblue" stroke="midnightblue" points="1167.27,-263.348 1171.27,-253.54 1162.02,-258.708 1167.27,-263.348"/>
</g>
<!-- Node30 -->
<g id="node69" class="node"><title>Node30</title>
<polygon fill="white" stroke="#bfbfbf" points="1953.82,-174.5 1953.82,-195.5 1996.82,-195.5 1996.82,-174.5 1953.82,-174.5"/>
<text text-anchor="middle" x="1975.32" y="-182.5" font-family="Helvetica,sans-Serif" font-size="10.00">string</text>
</g>
<!-- Node1&#45;&gt;Node30 -->
<g id="edge160" class="edge"><title>Node1&#45;&gt;Node30</title>
<path fill="none" stroke="midnightblue" d="M1165.81,-406.371C1188.04,-389.04 1231.66,-355.833 1249.32,-348 1536.78,-220.523 1636.48,-276.997 1940.32,-196 1941.4,-195.713 1942.49,-195.414 1943.59,-195.105"/>
<polygon fill="midnightblue" stroke="midnightblue" points="1944.96,-198.351 1953.56,-192.164 1942.98,-191.637 1944.96,-198.351"/>
</g>
<!-- Node39 -->
<g id="node101" class="node"><title>Node39</title>
<a xlink:href="WebAppFactory_8h.htm" target="_top" xlink:title="WebAppFactory.h">
<polygon fill="white" stroke="black" points="47.3199,-232.5 47.3199,-253.5 147.32,-253.5 147.32,-232.5 47.3199,-232.5"/>
<text text-anchor="middle" x="97.3199" y="-240.5" font-family="Helvetica,sans-Serif" font-size="10.00">WebAppFactory.h</text>
</a>
</g>
<!-- Node1&#45;&gt;Node39 -->
<g id="edge124" class="edge"><title>Node1&#45;&gt;Node39</title>
<path fill="none" stroke="midnightblue" d="M1102.16,-416.67C952.065,-415.262 508.251,-407.917 369.32,-370 348.61,-364.348 345.637,-357.365 326.32,-348 257.205,-314.494 175.151,-277.546 130.434,-257.646"/>
<polygon fill="midnightblue" stroke="midnightblue" points="131.773,-254.411 121.214,-253.549 128.931,-260.808 131.773,-254.411"/>
</g>
<!-- Node40 -->
<g id="node108" class="node"><title>Node40</title>
<polygon fill="white" stroke="#bfbfbf" points="1154.32,-348.5 1154.32,-369.5 1202.32,-369.5 1202.32,-348.5 1154.32,-348.5"/>
<text text-anchor="middle" x="1178.32" y="-356.5" font-family="Helvetica,sans-Serif" font-size="10.00">Time.h</text>
</g>
<!-- Node1&#45;&gt;Node40 -->
<g id="edge136" class="edge"><title>Node1&#45;&gt;Node40</title>
<path fill="none" stroke="midnightblue" d="M1157.09,-406.362C1160.53,-398.677 1165.29,-388.069 1169.43,-378.84"/>
<polygon fill="midnightblue" stroke="midnightblue" points="1172.68,-380.127 1173.58,-369.571 1166.3,-377.264 1172.68,-380.127"/>
</g>
<!-- Node41 -->
<g id="node110" class="node"><title>Node41</title>
<a xlink:href="RemoteWindowData_8h.htm" target="_top" xlink:title="RemoteWindowData.h">
<polygon fill="white" stroke="black" points="924.32,-348.5 924.32,-369.5 1046.32,-369.5 1046.32,-348.5 924.32,-348.5"/>
<text text-anchor="middle" x="985.32" y="-356.5" font-family="Helvetica,sans-Serif" font-size="10.00">RemoteWindowData.h</text>
</a>
</g>
<!-- Node1&#45;&gt;Node41 -->
<g id="edge138" class="edge"><title>Node1&#45;&gt;Node41</title>
<path fill="none" stroke="midnightblue" d="M1122.08,-406.497C1094.97,-397.082 1055.01,-383.204 1025.28,-372.877"/>
<polygon fill="midnightblue" stroke="midnightblue" points="1026.21,-369.498 1015.62,-369.523 1023.92,-376.11 1026.21,-369.498"/>
</g>
<!-- Node42 -->
<g id="node115" class="node"><title>Node42</title>
<polygon fill="white" stroke="#bfbfbf" points="1257.82,-348.5 1257.82,-369.5 1304.82,-369.5 1304.82,-348.5 1257.82,-348.5"/>
<text text-anchor="middle" x="1281.32" y="-356.5" font-family="Helvetica,sans-Serif" font-size="10.00">stdio.h</text>
</g>
<!-- Node1&#45;&gt;Node42 -->
<g id="edge146" class="edge"><title>Node1&#45;&gt;Node42</title>
<path fill="none" stroke="midnightblue" d="M1175.68,-406.497C1196.01,-397.356 1225.7,-384.008 1248.43,-373.788"/>
<polygon fill="midnightblue" stroke="midnightblue" points="1250.01,-376.914 1257.7,-369.621 1247.14,-370.53 1250.01,-376.914"/>
</g>
<!-- Node43 -->
<g id="node117" class="node"><title>Node43</title>
<polygon fill="white" stroke="#bfbfbf" points="1321.82,-348.5 1321.82,-369.5 1372.82,-369.5 1372.82,-348.5 1321.82,-348.5"/>
<text text-anchor="middle" x="1347.32" y="-356.5" font-family="Helvetica,sans-Serif" font-size="10.00">string.h</text>
</g>
<!-- Node1&#45;&gt;Node43 -->
<g id="edge148" class="edge"><title>Node1&#45;&gt;Node43</title>
<path fill="none" stroke="midnightblue" d="M1189.5,-406.476C1220.08,-397.745 1264.79,-384.816 1311.95,-370.374"/>
<polygon fill="midnightblue" stroke="midnightblue" points="1313.2,-373.652 1321.73,-367.368 1311.14,-366.961 1313.2,-373.652"/>
</g>
<!-- Node44 -->
<g id="node119" class="node"><title>Node44</title>
<polygon fill="white" stroke="#bfbfbf" points="1389.82,-348.5 1389.82,-369.5 1438.82,-369.5 1438.82,-348.5 1389.82,-348.5"/>
<text text-anchor="middle" x="1414.32" y="-356.5" font-family="Helvetica,sans-Serif" font-size="10.00">stdlib.h</text>
</g>
<!-- Node1&#45;&gt;Node44 -->
<g id="edge150" class="edge"><title>Node1&#45;&gt;Node44</title>
<path fill="none" stroke="midnightblue" d="M1202.76,-408.436C1247.24,-400.482 1313.95,-387.58 1379.84,-370.205"/>
<polygon fill="midnightblue" stroke="midnightblue" points="1380.79,-373.573 1389.55,-367.609 1378.99,-366.81 1380.79,-373.573"/>
</g>
<!-- Node45 -->
<g id="node121" class="node"><title>Node45</title>
<polygon fill="white" stroke="#bfbfbf" points="1456.32,-348.5 1456.32,-369.5 1500.32,-369.5 1500.32,-348.5 1456.32,-348.5"/>
<text text-anchor="middle" x="1478.32" y="-356.5" font-family="Helvetica,sans-Serif" font-size="10.00">time.h</text>
</g>
<!-- Node1&#45;&gt;Node45 -->
<g id="edge152" class="edge"><title>Node1&#45;&gt;Node45</title>
<path fill="none" stroke="midnightblue" d="M1202.47,-411.843C1259.55,-405.348 1355.59,-392.519 1446.23,-369.934"/>
<polygon fill="midnightblue" stroke="midnightblue" points="1447.29,-373.278 1456.12,-367.426 1445.57,-366.493 1447.29,-373.278"/>
</g>
<!-- Node46 -->
<g id="node123" class="node"><title>Node46</title>
<polygon fill="white" stroke="#bfbfbf" points="1517.82,-348.5 1517.82,-369.5 1570.82,-369.5 1570.82,-348.5 1517.82,-348.5"/>
<text text-anchor="middle" x="1544.32" y="-356.5" font-family="Helvetica,sans-Serif" font-size="10.00">unistd.h</text>
</g>
<!-- Node1&#45;&gt;Node46 -->
<g id="edge154" class="edge"><title>Node1&#45;&gt;Node46</title>
<path fill="none" stroke="midnightblue" d="M1202.46,-413.163C1270.01,-407.387 1394.01,-394.648 1507.78,-370.071"/>
<polygon fill="midnightblue" stroke="midnightblue" points="1508.68,-373.456 1517.7,-367.891 1507.18,-366.619 1508.68,-373.456"/>
</g>
<!-- Node47 -->
<g id="node125" class="node"><title>Node47</title>
<polygon fill="white" stroke="#bfbfbf" points="1587.82,-348.5 1587.82,-369.5 1650.82,-369.5 1650.82,-348.5 1587.82,-348.5"/>
<text text-anchor="middle" x="1619.32" y="-356.5" font-family="Helvetica,sans-Serif" font-size="10.00">sys/time.h</text>
</g>
<!-- Node1&#45;&gt;Node47 -->
<g id="edge156" class="edge"><title>Node1&#45;&gt;Node47</title>
<path fill="none" stroke="midnightblue" d="M1202.34,-414.077C1280.6,-408.941 1436.81,-396.422 1577.45,-370.142"/>
<polygon fill="midnightblue" stroke="midnightblue" points="1578.38,-373.529 1587.55,-368.226 1577.07,-366.652 1578.38,-373.529"/>
</g>
<!-- Node48 -->
<g id="node127" class="node"><title>Node48</title>
<polygon fill="white" stroke="#bfbfbf" points="1667.82,-348.5 1667.82,-369.5 1708.82,-369.5 1708.82,-348.5 1667.82,-348.5"/>
<text text-anchor="middle" x="1688.32" y="-356.5" font-family="Helvetica,sans-Serif" font-size="10.00">glib.h</text>
</g>
<!-- Node1&#45;&gt;Node48 -->
<g id="edge158" class="edge"><title>Node1&#45;&gt;Node48</title>
<path fill="none" stroke="midnightblue" d="M1202.54,-414.074C1309.18,-407.588 1556.18,-391.059 1657.69,-369.824"/>
<polygon fill="midnightblue" stroke="midnightblue" points="1658.62,-373.203 1667.62,-367.62 1657.1,-366.37 1658.62,-373.203"/>
</g>
<!-- Node49 -->
<g id="node131" class="node"><title>Node49</title>
<polygon fill="white" stroke="#bfbfbf" points="1726.32,-348.5 1726.32,-369.5 1812.32,-369.5 1812.32,-348.5 1726.32,-348.5"/>
<text text-anchor="middle" x="1769.32" y="-356.5" font-family="Helvetica,sans-Serif" font-size="10.00">PIpcChannel.h</text>
</g>
<!-- Node1&#45;&gt;Node49 -->
<g id="edge164" class="edge"><title>Node1&#45;&gt;Node49</title>
<path fill="none" stroke="midnightblue" d="M1202.44,-414.944C1299.65,-410.5 1520.67,-398.161 1716.09,-370.024"/>
<polygon fill="midnightblue" stroke="midnightblue" points="1716.87,-373.448 1726.26,-368.542 1715.86,-366.521 1716.87,-373.448"/>
</g>
<!-- Node50 -->
<g id="node133" class="node"><title>Node50</title>
<polygon fill="white" stroke="#bfbfbf" points="1829.82,-348.5 1829.82,-369.5 1954.82,-369.5 1954.82,-348.5 1829.82,-348.5"/>
<text text-anchor="middle" x="1892.32" y="-356.5" font-family="Helvetica,sans-Serif" font-size="10.00">PIpcMessageMacros.h</text>
</g>
<!-- Node1&#45;&gt;Node50 -->
<g id="edge166" class="edge"><title>Node1&#45;&gt;Node50</title>
<path fill="none" stroke="midnightblue" d="M1202.38,-414.915C1312.26,-410.03 1582.97,-396.307 1819.47,-370.137"/>
<polygon fill="midnightblue" stroke="midnightblue" points="1820.09,-373.59 1829.64,-369.002 1819.31,-366.633 1820.09,-373.59"/>
</g>
<!-- Node4&#45;&gt;Node2 -->
<g id="edge8" class="edge"><title>Node4&#45;&gt;Node2</title>
<path fill="none" stroke="midnightblue" d="M691.465,-348.332C703.643,-340.087 718.787,-327.482 726.32,-312 753.187,-256.777 736.716,-235.318 733.32,-174 731.891,-148.201 716.167,-138.241 729.32,-116 761.084,-62.2913 831.176,-34.2082 877.04,-21.0223"/>
<polygon fill="midnightblue" stroke="midnightblue" points="878.008,-24.3861 886.719,-18.3562 876.149,-17.6374 878.008,-24.3861"/>
</g>
<!-- Node5 -->
<g id="node10" class="node"><title>Node5</title>
<a xlink:href="WindowedWebApp_8h.htm" target="_top" xlink:title="WindowedWebApp.h">
<polygon fill="white" stroke="red" points="525.32,-232.5 525.32,-253.5 639.32,-253.5 639.32,-232.5 525.32,-232.5"/>
<text text-anchor="middle" x="582.32" y="-240.5" font-family="Helvetica,sans-Serif" font-size="10.00">WindowedWebApp.h</text>
</a>
</g>
<!-- Node4&#45;&gt;Node5 -->
<g id="edge10" class="edge"><title>Node4&#45;&gt;Node5</title>
<path fill="none" stroke="midnightblue" d="M658.583,-348.193C647.193,-339.34 631.531,-326.025 620.32,-312 608.364,-297.043 598.119,-277.807 591.29,-263.446"/>
<polygon fill="midnightblue" stroke="midnightblue" points="594.298,-261.61 586.945,-253.982 587.936,-264.53 594.298,-261.61"/>
</g>
<!-- Node4&#45;&gt;Node21 -->
<g id="edge56" class="edge"><title>Node4&#45;&gt;Node21</title>
<path fill="none" stroke="midnightblue" d="M646.823,-348.422C602.406,-330.445 510.408,-292.156 435.32,-254 417.922,-245.159 415.713,-238.521 397.32,-232 303.649,-198.792 272.266,-213.091 170.573,-196.122"/>
<polygon fill="midnightblue" stroke="midnightblue" points="170.958,-192.637 160.507,-194.38 169.764,-199.534 170.958,-192.637"/>
</g>
<!-- Node25 -->
<g id="node54" class="node"><title>Node25</title>
<a xlink:href="CardWebApp_8h.htm" target="_top" xlink:title="CardWebApp.h">
<polygon fill="white" stroke="red" points="629.32,-290.5 629.32,-311.5 717.32,-311.5 717.32,-290.5 629.32,-290.5"/>
<text text-anchor="middle" x="673.32" y="-298.5" font-family="Helvetica,sans-Serif" font-size="10.00">CardWebApp.h</text>
</a>
</g>
<!-- Node4&#45;&gt;Node25 -->
<g id="edge58" class="edge"><title>Node4&#45;&gt;Node25</title>
<path fill="none" stroke="midnightblue" d="M673.32,-348.362C673.32,-340.922 673.32,-330.743 673.32,-321.728"/>
<polygon fill="midnightblue" stroke="midnightblue" points="676.82,-321.571 673.32,-311.571 669.82,-321.571 676.82,-321.571"/>
</g>
<!-- Node5&#45;&gt;Node2 -->
<g id="edge12" class="edge"><title>Node5&#45;&gt;Node2</title>
<path fill="none" stroke="midnightblue" d="M524.96,-234.792C480.871,-227.171 425.225,-214.242 411.32,-196 405.393,-188.224 405.863,-182.113 411.32,-174 449.484,-117.263 630.929,-77.9903 696.32,-58 757.661,-39.2477 830.709,-25.4566 876.309,-17.8262"/>
<polygon fill="midnightblue" stroke="midnightblue" points="877.149,-21.2351 886.447,-16.1558 876.011,-14.3282 877.149,-21.2351"/>
</g>
<!-- Node6 -->
<g id="node13" class="node"><title>Node6</title>
<polygon fill="white" stroke="#bfbfbf" points="817.82,-174.5 817.82,-195.5 846.82,-195.5 846.82,-174.5 817.82,-174.5"/>
<text text-anchor="middle" x="832.32" y="-182.5" font-family="Helvetica,sans-Serif" font-size="10.00">list</text>
</g>
<!-- Node5&#45;&gt;Node6 -->
<g id="edge14" class="edge"><title>Node5&#45;&gt;Node6</title>
<path fill="none" stroke="midnightblue" d="M627.593,-232.497C680.535,-220.214 766.223,-200.334 807.94,-190.656"/>
<polygon fill="midnightblue" stroke="midnightblue" points="808.834,-194.042 817.785,-188.372 807.252,-187.223 808.834,-194.042"/>
</g>
<!-- Node7 -->
<g id="node15" class="node"><title>Node7</title>
<polygon fill="white" stroke="#bfbfbf" points="177.82,-174.5 177.82,-195.5 258.82,-195.5 258.82,-174.5 177.82,-174.5"/>
<text text-anchor="middle" x="218.32" y="-182.5" font-family="Helvetica,sans-Serif" font-size="10.00">AsyncCaller.h</text>
</g>
<!-- Node5&#45;&gt;Node7 -->
<g id="edge16" class="edge"><title>Node5&#45;&gt;Node7</title>
<path fill="none" stroke="midnightblue" d="M525.206,-235.749C464.101,-227.707 364.13,-213.731 268.995,-196.224"/>
<polygon fill="midnightblue" stroke="midnightblue" points="269.386,-192.737 258.915,-194.352 268.108,-199.619 269.386,-192.737"/>
</g>
<!-- Node8 -->
<g id="node17" class="node"><title>Node8</title>
<a xlink:href="WebAppBase_8h.htm" target="_top" xlink:title="WebAppBase.h">
<polygon fill="white" stroke="red" points="275.82,-174.5 275.82,-195.5 364.82,-195.5 364.82,-174.5 275.82,-174.5"/>
<text text-anchor="middle" x="320.32" y="-182.5" font-family="Helvetica,sans-Serif" font-size="10.00">WebAppBase.h</text>
</a>
</g>
<!-- Node5&#45;&gt;Node8 -->
<g id="edge18" class="edge"><title>Node5&#45;&gt;Node8</title>
<path fill="none" stroke="midnightblue" d="M534.874,-232.497C489.949,-222.552 422.526,-207.626 375.282,-197.167"/>
<polygon fill="midnightblue" stroke="midnightblue" points="375.746,-193.685 365.225,-194.941 374.233,-200.52 375.746,-193.685"/>
</g>
<!-- Node18 -->
<g id="node39" class="node"><title>Node18</title>
<polygon fill="white" stroke="#bfbfbf" points="1044.32,-174.5 1044.32,-195.5 1096.32,-195.5 1096.32,-174.5 1044.32,-174.5"/>
<text text-anchor="middle" x="1070.32" y="-182.5" font-family="Helvetica,sans-Serif" font-size="10.00">Event.h</text>
</g>
<!-- Node5&#45;&gt;Node18 -->
<g id="edge42" class="edge"><title>Node5&#45;&gt;Node18</title>
<path fill="none" stroke="midnightblue" d="M639.379,-240.76C723.879,-236.637 887.237,-225.577 1034.01,-195.937"/>
<polygon fill="midnightblue" stroke="midnightblue" points="1035.01,-199.305 1044.1,-193.864 1033.6,-192.448 1035.01,-199.305"/>
</g>
<!-- Node19 -->
<g id="node41" class="node"><title>Node19</title>
<polygon fill="white" stroke="#bfbfbf" points="1250.32,-116.5 1250.32,-137.5 1302.32,-137.5 1302.32,-116.5 1250.32,-116.5"/>
<text text-anchor="middle" x="1276.32" y="-124.5" font-family="Helvetica,sans-Serif" font-size="10.00">Timer.h</text>
</g>
<!-- Node5&#45;&gt;Node19 -->
<g id="edge44" class="edge"><title>Node5&#45;&gt;Node19</title>
<path fill="none" stroke="midnightblue" d="M568.168,-232.456C550.446,-218.032 524.351,-191.898 541.32,-174 592.995,-119.496 1141.73,-146.79 1216.32,-138 1224.07,-137.087 1232.33,-135.787 1240.17,-134.4"/>
<polygon fill="midnightblue" stroke="midnightblue" points="1240.95,-137.815 1250.14,-132.551 1239.67,-130.932 1240.95,-137.815"/>
</g>
<!-- Node20 -->
<g id="node43" class="node"><title>Node20</title>
<polygon fill="white" stroke="#bfbfbf" points="613.82,-174.5 613.82,-195.5 724.82,-195.5 724.82,-174.5 613.82,-174.5"/>
<text text-anchor="middle" x="669.32" y="-182.5" font-family="Helvetica,sans-Serif" font-size="10.00">WindowProperties.h</text>
</g>
<!-- Node5&#45;&gt;Node20 -->
<g id="edge46" class="edge"><title>Node5&#45;&gt;Node20</title>
<path fill="none" stroke="midnightblue" d="M598.277,-232.362C611.277,-223.696 629.851,-211.313 644.747,-201.382"/>
<polygon fill="midnightblue" stroke="midnightblue" points="647.085,-204.03 653.464,-195.571 643.202,-198.206 647.085,-204.03"/>
</g>
<!-- Node5&#45;&gt;Node21 -->
<g id="edge48" class="edge"><title>Node5&#45;&gt;Node21</title>
<path fill="none" stroke="midnightblue" d="M524.952,-237.075C432.135,-227.392 251.995,-208.172 170.397,-196.042"/>
<polygon fill="midnightblue" stroke="midnightblue" points="170.897,-192.577 160.483,-194.525 169.839,-199.497 170.897,-192.577"/>
</g>
<!-- Node22 -->
<g id="node47" class="node"><title>Node22</title>
<polygon fill="white" stroke="#bfbfbf" points="902.32,-174.5 902.32,-195.5 1026.32,-195.5 1026.32,-174.5 902.32,-174.5"/>
<text text-anchor="middle" x="964.32" y="-182.5" font-family="Helvetica,sans-Serif" font-size="10.00">PIpcChannelListener.h</text>
</g>
<!-- Node5&#45;&gt;Node22 -->
<g id="edge50" class="edge"><title>Node5&#45;&gt;Node22</title>
<path fill="none" stroke="midnightblue" d="M639.509,-234.317C706.897,-224.085 818.945,-207.073 892.222,-195.947"/>
<polygon fill="midnightblue" stroke="midnightblue" points="892.935,-199.379 902.296,-194.417 891.884,-192.458 892.935,-199.379"/>
</g>
<!-- Node5&#45;&gt;Node23 -->
<g id="edge52" class="edge"><title>Node5&#45;&gt;Node23</title>
<path fill="none" stroke="midnightblue" d="M559.683,-232.497C540.072,-223.397 511.473,-210.127 489.487,-199.925"/>
<polygon fill="midnightblue" stroke="midnightblue" points="490.755,-196.655 480.21,-195.621 487.808,-203.005 490.755,-196.655"/>
</g>
<!-- Node24 -->
<g id="node51" class="node"><title>Node24</title>
<polygon fill="white" stroke="#bfbfbf" points="549.82,-174.5 549.82,-195.5 596.82,-195.5 596.82,-174.5 549.82,-174.5"/>
<text text-anchor="middle" x="573.32" y="-182.5" font-family="Helvetica,sans-Serif" font-size="10.00">QRect</text>
</g>
<!-- Node5&#45;&gt;Node24 -->
<g id="edge54" class="edge"><title>Node5&#45;&gt;Node24</title>
<path fill="none" stroke="midnightblue" d="M580.669,-232.362C579.515,-224.922 577.935,-214.743 576.536,-205.728"/>
<polygon fill="midnightblue" stroke="midnightblue" points="579.952,-204.916 574.96,-195.571 573.035,-205.989 579.952,-204.916"/>
</g>
<!-- Node8&#45;&gt;Node9 -->
<g id="edge20" class="edge"><title>Node8&#45;&gt;Node9</title>
<path fill="none" stroke="midnightblue" d="M315.551,-174.362C312.106,-166.677 307.351,-156.069 303.214,-146.84"/>
<polygon fill="midnightblue" stroke="midnightblue" points="306.343,-145.264 299.058,-137.571 299.955,-148.127 306.343,-145.264"/>
</g>
<!-- Node14 -->
<g id="node30" class="node"><title>Node14</title>
<polygon fill="white" stroke="#bfbfbf" points="508.32,-58.5 508.32,-79.5 606.32,-79.5 606.32,-58.5 508.32,-58.5"/>
<text text-anchor="middle" x="557.32" y="-66.5" font-family="Helvetica,sans-Serif" font-size="10.00">palmimedefines.h</text>
</g>
<!-- Node8&#45;&gt;Node14 -->
<g id="edge40" class="edge"><title>Node8&#45;&gt;Node14</title>
<path fill="none" stroke="midnightblue" d="M342.191,-174.295C384.627,-153.525 478.215,-107.718 526.763,-83.9562"/>
<polygon fill="midnightblue" stroke="midnightblue" points="528.4,-87.0515 535.843,-79.5117 525.323,-80.7642 528.4,-87.0515"/>
</g>
<!-- Node17 -->
<g id="node36" class="node"><title>Node17</title>
<polygon fill="white" stroke="#bfbfbf" points="738.32,-116.5 738.32,-137.5 816.32,-137.5 816.32,-116.5 738.32,-116.5"/>
<text text-anchor="middle" x="777.32" y="-124.5" font-family="Helvetica,sans-Serif" font-size="10.00">lunaservice.h</text>
</g>
<!-- Node8&#45;&gt;Node17 -->
<g id="edge38" class="edge"><title>Node8&#45;&gt;Node17</title>
<path fill="none" stroke="midnightblue" d="M364.971,-179.333C450.848,-168.434 638.429,-144.627 727.916,-133.27"/>
<polygon fill="midnightblue" stroke="midnightblue" points="728.592,-136.712 738.071,-131.981 727.71,-129.768 728.592,-136.712"/>
</g>
<!-- Node10 -->
<g id="node21" class="node"><title>Node10</title>
<a xlink:href="ProcessBase_8h.htm" target="_top" xlink:title="ProcessBase.h">
<polygon fill="white" stroke="black" points="315.82,-58.5 315.82,-79.5 402.82,-79.5 402.82,-58.5 315.82,-58.5"/>
<text text-anchor="middle" x="359.32" y="-66.5" font-family="Helvetica,sans-Serif" font-size="10.00">ProcessBase.h</text>
</a>
</g>
<!-- Node9&#45;&gt;Node10 -->
<g id="edge22" class="edge"><title>Node9&#45;&gt;Node10</title>
<path fill="none" stroke="midnightblue" d="M306.242,-116.362C315.679,-107.941 329.049,-96.0105 340.01,-86.2308"/>
<polygon fill="midnightblue" stroke="midnightblue" points="342.342,-88.8401 347.473,-79.5707 337.682,-83.6171 342.342,-88.8401"/>
</g>
<!-- Node12 -->
<g id="node26" class="node"><title>Node12</title>
<polygon fill="white" stroke="#bfbfbf" points="161.82,-58.5 161.82,-79.5 222.82,-79.5 222.82,-58.5 161.82,-58.5"/>
<text text-anchor="middle" x="192.32" y="-66.5" font-family="Helvetica,sans-Serif" font-size="10.00">QtWebKit</text>
</g>
<!-- Node9&#45;&gt;Node12 -->
<g id="edge28" class="edge"><title>Node9&#45;&gt;Node12</title>
<path fill="none" stroke="midnightblue" d="M275.611,-116.362C259.939,-107.45 237.356,-94.6087 219.657,-84.5447"/>
<polygon fill="midnightblue" stroke="midnightblue" points="221.333,-81.4712 210.91,-79.5707 217.872,-87.5562 221.333,-81.4712"/>
</g>
<!-- Node13 -->
<g id="node28" class="node"><title>Node13</title>
<polygon fill="white" stroke="#bfbfbf" points="239.82,-58.5 239.82,-79.5 298.82,-79.5 298.82,-58.5 239.82,-58.5"/>
<text text-anchor="middle" x="269.32" y="-66.5" font-family="Helvetica,sans-Serif" font-size="10.00">QPointer</text>
</g>
<!-- Node9&#45;&gt;Node13 -->
<g id="edge30" class="edge"><title>Node9&#45;&gt;Node13</title>
<path fill="none" stroke="midnightblue" d="M289.734,-116.362C286.422,-108.677 281.849,-98.0686 277.872,-88.8399"/>
<polygon fill="midnightblue" stroke="midnightblue" points="281.049,-87.3685 273.876,-79.5707 274.62,-90.1393 281.049,-87.3685"/>
</g>
<!-- Node9&#45;&gt;Node14 -->
<g id="edge32" class="edge"><title>Node9&#45;&gt;Node14</title>
<path fill="none" stroke="midnightblue" d="M341.947,-116.497C386.308,-106.714 452.525,-92.1107 499.814,-81.6819"/>
<polygon fill="midnightblue" stroke="midnightblue" points="500.592,-85.0946 509.603,-79.5231 499.084,-78.2588 500.592,-85.0946"/>
</g>
<!-- Node15 -->
<g id="node32" class="node"><title>Node15</title>
<polygon fill="white" stroke="#bfbfbf" points="419.82,-58.5 419.82,-79.5 490.82,-79.5 490.82,-58.5 419.82,-58.5"/>
<text text-anchor="middle" x="455.32" y="-66.5" font-family="Helvetica,sans-Serif" font-size="10.00">QWebPage</text>
</g>
<!-- Node9&#45;&gt;Node15 -->
<g id="edge34" class="edge"><title>Node9&#45;&gt;Node15</title>
<path fill="none" stroke="midnightblue" d="M323.476,-116.497C349.496,-107.123 387.799,-93.3242 416.424,-83.0122"/>
<polygon fill="midnightblue" stroke="midnightblue" points="417.887,-86.2052 426.109,-79.5231 415.515,-79.6195 417.887,-86.2052"/>
</g>
<!-- Node16 -->
<g id="node34" class="node"><title>Node16</title>
<polygon fill="white" stroke="#bfbfbf" points="68.3199,-58.5 68.3199,-79.5 144.32,-79.5 144.32,-58.5 68.3199,-58.5"/>
<text text-anchor="middle" x="106.32" y="-66.5" font-family="Helvetica,sans-Serif" font-size="10.00">QWebFrame</text>
</g>
<!-- Node9&#45;&gt;Node16 -->
<g id="edge36" class="edge"><title>Node9&#45;&gt;Node16</title>
<path fill="none" stroke="midnightblue" d="M260.274,-116.497C229.36,-106.959 183.597,-92.8408 149.998,-82.475"/>
<polygon fill="midnightblue" stroke="midnightblue" points="151.017,-79.1267 140.429,-79.5231 148.953,-85.8156 151.017,-79.1267"/>
</g>
<!-- Node10&#45;&gt;Node2 -->
<g id="edge24" class="edge"><title>Node10&#45;&gt;Node2</title>
<path fill="none" stroke="midnightblue" d="M402.945,-59.3867C405.773,-58.8828 408.583,-58.4144 411.32,-58 582.482,-32.0839 788.338,-18.3738 876.632,-13.3157"/>
<polygon fill="midnightblue" stroke="midnightblue" points="877.02,-16.7995 886.807,-12.7415 876.626,-9.81059 877.02,-16.7995"/>
</g>
<!-- Node11 -->
<g id="node24" class="node"><title>Node11</title>
<polygon fill="white" stroke="#bfbfbf" points="332.82,-0.5 332.82,-21.5 385.82,-21.5 385.82,-0.5 332.82,-0.5"/>
<text text-anchor="middle" x="359.32" y="-8.5" font-family="Helvetica,sans-Serif" font-size="10.00">QString</text>
</g>
<!-- Node10&#45;&gt;Node11 -->
<g id="edge26" class="edge"><title>Node10&#45;&gt;Node11</title>
<path fill="none" stroke="midnightblue" d="M359.32,-58.3619C359.32,-50.9219 359.32,-40.7427 359.32,-31.7276"/>
<polygon fill="midnightblue" stroke="midnightblue" points="362.82,-31.5706 359.32,-21.5707 355.82,-31.5707 362.82,-31.5706"/>
</g>
<!-- Node25&#45;&gt;Node2 -->
<g id="edge60" class="edge"><title>Node25&#45;&gt;Node2</title>
<path fill="none" stroke="midnightblue" d="M684.064,-290.306C709.531,-264.784 775.185,-197.963 825.32,-138 856.151,-101.125 889.107,-55.4884 906.955,-30.1844"/>
<polygon fill="midnightblue" stroke="midnightblue" points="909.935,-32.0316 912.815,-21.8358 904.205,-28.0099 909.935,-32.0316"/>
</g>
<!-- Node25&#45;&gt;Node5 -->
<g id="edge62" class="edge"><title>Node25&#45;&gt;Node5</title>
<path fill="none" stroke="midnightblue" d="M656.629,-290.362C642.904,-281.614 623.236,-269.079 607.583,-259.101"/>
<polygon fill="midnightblue" stroke="midnightblue" points="609.219,-255.994 598.905,-253.571 605.456,-261.897 609.219,-255.994"/>
</g>
<!-- Node25&#45;&gt;Node21 -->
<g id="edge64" class="edge"><title>Node25&#45;&gt;Node21</title>
<path fill="none" stroke="midnightblue" d="M638.006,-290.449C576.729,-272.188 455.313,-236.227 435.32,-232 321.791,-207.998 288.774,-215.274 170.661,-196.132"/>
<polygon fill="midnightblue" stroke="midnightblue" points="170.931,-192.629 160.495,-194.454 169.791,-199.536 170.931,-192.629"/>
</g>
<!-- Node28&#45;&gt;Node2 -->
<g id="edge72" class="edge"><title>Node28&#45;&gt;Node2</title>
<path fill="none" stroke="midnightblue" d="M1235.04,-233.939C1239.53,-233.256 1244,-232.6 1248.32,-232 1318.54,-222.254 1514.59,-245.527 1565.32,-196 1590.89,-171.038 1596.05,-143.568 1573.32,-116 1534.25,-68.6221 1104.48,-27.1041 964.27,-14.737"/>
<polygon fill="midnightblue" stroke="midnightblue" points="964.181,-11.2158 953.913,-13.8302 963.57,-18.1892 964.181,-11.2158"/>
</g>
<!-- Node28&#45;&gt;Node6 -->
<g id="edge76" class="edge"><title>Node28&#45;&gt;Node6</title>
<path fill="none" stroke="midnightblue" d="M1127.66,-234.517C1069.79,-225.304 974.956,-210.021 893.32,-196 881.264,-193.929 867.888,-191.529 856.74,-189.5"/>
<polygon fill="midnightblue" stroke="midnightblue" points="857.318,-186.047 846.851,-187.691 856.058,-192.933 857.318,-186.047"/>
</g>
<!-- Node28&#45;&gt;Node11 -->
<g id="edge80" class="edge"><title>Node28&#45;&gt;Node11</title>
<path fill="none" stroke="midnightblue" d="M1177.34,-232.468C1170.95,-217.06 1156.89,-188.622 1135.32,-174 1071.39,-130.664 1040.74,-154.605 965.32,-138 809.484,-103.692 771.606,-90.1923 615.32,-58 537.433,-41.9567 445.654,-25.7603 395.889,-17.2028"/>
<polygon fill="midnightblue" stroke="midnightblue" points="396.375,-13.7351 385.928,-15.4955 395.193,-20.6345 396.375,-13.7351"/>
</g>
<!-- Node28&#45;&gt;Node17 -->
<g id="edge114" class="edge"><title>Node28&#45;&gt;Node17</title>
<path fill="none" stroke="midnightblue" d="M1173.3,-232.498C1160.7,-216.857 1134.67,-187.808 1105.32,-174 1092.85,-168.133 915.202,-144.707 826.696,-133.302"/>
<polygon fill="midnightblue" stroke="midnightblue" points="826.983,-129.81 816.618,-132.006 826.09,-136.753 826.983,-129.81"/>
</g>
<!-- Node28&#45;&gt;Node18 -->
<g id="edge88" class="edge"><title>Node28&#45;&gt;Node18</title>
<path fill="none" stroke="midnightblue" d="M1161.22,-232.497C1144.04,-223.519 1119.09,-210.484 1099.67,-200.339"/>
<polygon fill="midnightblue" stroke="midnightblue" points="1101.13,-197.15 1090.65,-195.621 1097.89,-203.354 1101.13,-197.15"/>
</g>
<!-- Node28&#45;&gt;Node19 -->
<g id="edge102" class="edge"><title>Node28&#45;&gt;Node19</title>
<path fill="none" stroke="midnightblue" d="M1193.42,-232.399C1203.54,-223.245 1218.09,-209.415 1229.32,-196 1242.6,-180.136 1255.68,-160.512 1264.66,-146.253"/>
<polygon fill="midnightblue" stroke="midnightblue" points="1267.63,-148.095 1269.93,-137.751 1261.68,-144.408 1267.63,-148.095"/>
</g>
<!-- Node28&#45;&gt;Node20 -->
<g id="edge106" class="edge"><title>Node28&#45;&gt;Node20</title>
<path fill="none" stroke="midnightblue" d="M1127.49,-236.903C1033.05,-226.203 837.796,-204.085 735.351,-192.48"/>
<polygon fill="midnightblue" stroke="midnightblue" points="735.463,-188.97 725.132,-191.323 734.675,-195.926 735.463,-188.97"/>
</g>
<!-- Node28&#45;&gt;Node21 -->
<g id="edge104" class="edge"><title>Node28&#45;&gt;Node21</title>
<path fill="none" stroke="midnightblue" d="M1127.79,-241.582C949.654,-236.7 376.985,-219.638 170.588,-195.957"/>
<polygon fill="midnightblue" stroke="midnightblue" points="170.795,-192.457 160.451,-194.752 169.968,-199.408 170.795,-192.457"/>
</g>
<!-- Node28&#45;&gt;Node22 -->
<g id="edge120" class="edge"><title>Node28&#45;&gt;Node22</title>
<path fill="none" stroke="midnightblue" d="M1142.02,-232.497C1106.03,-222.877 1052.61,-208.598 1013.74,-198.209"/>
<polygon fill="midnightblue" stroke="midnightblue" points="1014.26,-194.724 1003.69,-195.523 1012.45,-201.487 1014.26,-194.724"/>
</g>
<!-- Node28&#45;&gt;Node23 -->
<g id="edge116" class="edge"><title>Node28&#45;&gt;Node23</title>
<path fill="none" stroke="midnightblue" d="M1127.71,-240.097C1017.64,-233.908 758.277,-218.154 541.32,-196 529.437,-194.787 516.64,-193.236 504.705,-191.684"/>
<polygon fill="midnightblue" stroke="midnightblue" points="504.856,-188.174 494.483,-190.329 503.936,-195.113 504.856,-188.174"/>
</g>
<!-- Node29 -->
<g id="node66" class="node"><title>Node29</title>
<polygon fill="white" stroke="#bfbfbf" points="1527.82,-116.5 1527.82,-137.5 1564.82,-137.5 1564.82,-116.5 1527.82,-116.5"/>
<text text-anchor="middle" x="1546.32" y="-124.5" font-family="Helvetica,sans-Serif" font-size="10.00">map</text>
</g>
<!-- Node28&#45;&gt;Node29 -->
<g id="edge74" class="edge"><title>Node28&#45;&gt;Node29</title>
<path fill="none" stroke="midnightblue" d="M1235.05,-233.971C1239.53,-233.281 1244,-232.614 1248.32,-232 1314.58,-222.577 1502.92,-246.071 1547.32,-196 1558.77,-183.089 1557.02,-162.863 1553.3,-147.641"/>
<polygon fill="midnightblue" stroke="midnightblue" points="1556.54,-146.252 1550.4,-137.617 1549.81,-148.196 1556.54,-146.252"/>
</g>
<!-- Node28&#45;&gt;Node30 -->
<g id="edge78" class="edge"><title>Node28&#45;&gt;Node30</title>
<path fill="none" stroke="midnightblue" d="M1234.96,-236.895C1251.42,-235.152 1269.6,-233.359 1286.32,-232 1561.87,-209.591 1632.5,-226.114 1907.32,-196 1919.24,-194.694 1932.26,-192.722 1943.69,-190.808"/>
<polygon fill="midnightblue" stroke="midnightblue" points="1944.4,-194.237 1953.65,-189.086 1943.2,-187.339 1944.4,-194.237"/>
</g>
<!-- Node31 -->
<g id="node72" class="node"><title>Node31</title>
<polygon fill="white" stroke="#bfbfbf" points="1341.82,-174.5 1341.82,-195.5 1418.82,-195.5 1418.82,-174.5 1341.82,-174.5"/>
<text text-anchor="middle" x="1380.32" y="-182.5" font-family="Helvetica,sans-Serif" font-size="10.00">QApplication</text>
</g>
<!-- Node28&#45;&gt;Node31 -->
<g id="edge82" class="edge"><title>Node28&#45;&gt;Node31</title>
<path fill="none" stroke="midnightblue" d="M1217.36,-232.497C1250.22,-222.918 1298.94,-208.72 1334.54,-198.342"/>
<polygon fill="midnightblue" stroke="midnightblue" points="1335.59,-201.681 1344.21,-195.523 1333.63,-194.961 1335.59,-201.681"/>
</g>
<!-- Node32 -->
<g id="node74" class="node"><title>Node32</title>
<a xlink:href="SyncTask_8h.htm" target="_top" xlink:title="SyncTask.h">
<polygon fill="white" stroke="red" points="973.82,-116.5 973.82,-137.5 1044.82,-137.5 1044.82,-116.5 973.82,-116.5"/>
<text text-anchor="middle" x="1009.32" y="-124.5" font-family="Helvetica,sans-Serif" font-size="10.00">SyncTask.h</text>
</a>
</g>
<!-- Node28&#45;&gt;Node32 -->
<g id="edge84" class="edge"><title>Node28&#45;&gt;Node32</title>
<path fill="none" stroke="midnightblue" d="M1183.97,-232.3C1186.97,-217.453 1189.84,-190.564 1176.32,-174 1160.99,-155.219 1098.92,-141.474 1054.94,-133.858"/>
<polygon fill="midnightblue" stroke="midnightblue" points="1055.47,-130.397 1045.03,-132.19 1054.31,-137.3 1055.47,-130.397"/>
</g>
<!-- Node33 -->
<g id="node78" class="node"><title>Node33</title>
<a xlink:href="MemoryWatcher_8h.htm" target="_top" xlink:title="MemoryWatcher.h">
<polygon fill="white" stroke="red" points="1435.82,-174.5 1435.82,-195.5 1538.82,-195.5 1538.82,-174.5 1435.82,-174.5"/>
<text text-anchor="middle" x="1487.32" y="-182.5" font-family="Helvetica,sans-Serif" font-size="10.00">MemoryWatcher.h</text>
</a>
</g>
<!-- Node28&#45;&gt;Node33 -->
<g id="edge90" class="edge"><title>Node28&#45;&gt;Node33</title>
<path fill="none" stroke="midnightblue" d="M1234.97,-232.831C1288.22,-222.738 1369.76,-207.283 1425.65,-196.69"/>
<polygon fill="midnightblue" stroke="midnightblue" points="1426.6,-200.072 1435.77,-194.771 1425.3,-193.194 1426.6,-200.072"/>
</g>
<!-- Node34 -->
<g id="node82" class="node"><title>Node34</title>
<polygon fill="white" stroke="#bfbfbf" points="1337.32,-116.5 1337.32,-137.5 1409.32,-137.5 1409.32,-116.5 1337.32,-116.5"/>
<text text-anchor="middle" x="1373.32" y="-124.5" font-family="Helvetica,sans-Serif" font-size="10.00">SignalSlot.h</text>
</g>
<!-- Node28&#45;&gt;Node34 -->
<g id="edge100" class="edge"><title>Node28&#45;&gt;Node34</title>
<path fill="none" stroke="midnightblue" d="M1199.04,-232.295C1233.06,-211.741 1307.66,-166.67 1347.32,-142.706"/>
<polygon fill="midnightblue" stroke="midnightblue" points="1349.17,-145.679 1355.92,-137.512 1345.55,-139.687 1349.17,-145.679"/>
</g>
<!-- Node35 -->
<g id="node89" class="node"><title>Node35</title>
<a xlink:href="WebAppCache_8h.htm" target="_top" xlink:title="WebAppCache.h">
<polygon fill="white" stroke="black" points="1112.82,-116.5 1112.82,-137.5 1207.82,-137.5 1207.82,-116.5 1112.82,-116.5"/>
<text text-anchor="middle" x="1160.32" y="-124.5" font-family="Helvetica,sans-Serif" font-size="10.00">WebAppCache.h</text>
</a>
</g>
<!-- Node28&#45;&gt;Node35 -->
<g id="edge108" class="edge"><title>Node28&#45;&gt;Node35</title>
<path fill="none" stroke="midnightblue" d="M1192.7,-232.302C1205.63,-218.788 1223.78,-194.786 1214.32,-174 1208.73,-161.717 1198.16,-151.397 1187.85,-143.586"/>
<polygon fill="midnightblue" stroke="midnightblue" points="1189.56,-140.508 1179.36,-137.626 1185.53,-146.237 1189.56,-140.508"/>
</g>
<!-- Node36 -->
<g id="node92" class="node"><title>Node36</title>
<polygon fill="white" stroke="#bfbfbf" points="1631.82,-174.5 1631.82,-195.5 1702.82,-195.5 1702.82,-174.5 1631.82,-174.5"/>
<text text-anchor="middle" x="1667.32" y="-182.5" font-family="Helvetica,sans-Serif" font-size="10.00">HostBase.h</text>
</g>
<!-- Node28&#45;&gt;Node36 -->
<g id="edge112" class="edge"><title>Node28&#45;&gt;Node36</title>
<path fill="none" stroke="midnightblue" d="M1235.03,-233.863C1239.52,-233.196 1244,-232.565 1248.32,-232 1412.15,-210.605 1455.18,-222.145 1618.32,-196 1619.4,-195.828 1620.48,-195.646 1621.58,-195.456"/>
<polygon fill="midnightblue" stroke="midnightblue" points="1622.39,-198.866 1631.56,-193.565 1621.08,-191.988 1622.39,-198.866"/>
</g>
<!-- Node37 -->
<g id="node96" class="node"><title>Node37</title>
<polygon fill="white" stroke="#bfbfbf" points="1719.82,-174.5 1719.82,-195.5 1792.82,-195.5 1792.82,-174.5 1719.82,-174.5"/>
<text text-anchor="middle" x="1756.32" y="-182.5" font-family="Helvetica,sans-Serif" font-size="10.00">PIpcClient.h</text>
</g>
<!-- Node28&#45;&gt;Node37 -->
<g id="edge118" class="edge"><title>Node28&#45;&gt;Node37</title>
<path fill="none" stroke="midnightblue" d="M1235.02,-233.771C1239.51,-233.124 1243.99,-232.523 1248.32,-232 1449.93,-207.657 1505.73,-227.936 1709.45,-196.101"/>
<polygon fill="midnightblue" stroke="midnightblue" points="1710.25,-199.518 1719.58,-194.495 1709.16,-192.604 1710.25,-199.518"/>
</g>
<!-- Node38 -->
<g id="node99" class="node"><title>Node38</title>
<polygon fill="white" stroke="#bfbfbf" points="1809.82,-174.5 1809.82,-195.5 1898.82,-195.5 1898.82,-174.5 1809.82,-174.5"/>
<text text-anchor="middle" x="1854.32" y="-182.5" font-family="Helvetica,sans-Serif" font-size="10.00">PIpcMessage.h</text>
</g>
<!-- Node28&#45;&gt;Node38 -->
<g id="edge122" class="edge"><title>Node28&#45;&gt;Node38</title>
<path fill="none" stroke="midnightblue" d="M1235.01,-233.711C1239.51,-233.078 1243.99,-232.496 1248.32,-232 1489.68,-204.398 1555.47,-228.43 1799.33,-196.121"/>
<polygon fill="midnightblue" stroke="midnightblue" points="1800.13,-199.545 1809.58,-194.744 1799.2,-192.607 1800.13,-199.545"/>
</g>
<!-- Node32&#45;&gt;Node2 -->
<g id="edge86" class="edge"><title>Node32&#45;&gt;Node2</title>
<path fill="none" stroke="midnightblue" d="M1001.11,-116.295C986.006,-96.6135 953.657,-54.4504 934.795,-29.8668"/>
<polygon fill="midnightblue" stroke="midnightblue" points="937.377,-27.4826 928.513,-21.6792 931.824,-31.7436 937.377,-27.4826"/>
</g>
<!-- Node33&#45;&gt;Node2 -->
<g id="edge92" class="edge"><title>Node33&#45;&gt;Node2</title>
<path fill="none" stroke="midnightblue" d="M1479.96,-174.465C1468.61,-159.053 1445.28,-130.609 1418.32,-116 1339.1,-73.0692 1070,-31.8966 963.871,-16.931"/>
<polygon fill="midnightblue" stroke="midnightblue" points="964.213,-13.4447 953.824,-15.524 963.242,-20.3771 964.213,-13.4447"/>
</g>
<!-- Node33&#45;&gt;Node19 -->
<g id="edge98" class="edge"><title>Node33&#45;&gt;Node19</title>
<path fill="none" stroke="midnightblue" d="M1449.11,-174.497C1410.19,-163.799 1350.3,-147.337 1312.23,-136.872"/>
<polygon fill="midnightblue" stroke="midnightblue" points="1313.15,-133.495 1302.58,-134.219 1311.3,-140.245 1313.15,-133.495"/>
</g>
<!-- Node33&#45;&gt;Node29 -->
<g id="edge94" class="edge"><title>Node33&#45;&gt;Node29</title>
<path fill="none" stroke="midnightblue" d="M1498.14,-174.362C1506.54,-166.104 1518.37,-154.472 1528.21,-144.803"/>
<polygon fill="midnightblue" stroke="midnightblue" points="1530.89,-147.077 1535.57,-137.571 1525.98,-142.085 1530.89,-147.077"/>
</g>
<!-- Node33&#45;&gt;Node34 -->
<g id="edge96" class="edge"><title>Node33&#45;&gt;Node34</title>
<path fill="none" stroke="midnightblue" d="M1466.68,-174.497C1448.95,-165.479 1423.18,-152.365 1403.2,-142.201"/>
<polygon fill="midnightblue" stroke="midnightblue" points="1404.7,-139.036 1394.2,-137.621 1401.52,-145.275 1404.7,-139.036"/>
</g>
<!-- Node35&#45;&gt;Node2 -->
<g id="edge110" class="edge"><title>Node35&#45;&gt;Node2</title>
<path fill="none" stroke="midnightblue" d="M1138.17,-116.295C1095.2,-95.525 1000.43,-49.7182 951.264,-25.9562"/>
<polygon fill="midnightblue" stroke="midnightblue" points="952.595,-22.7122 942.068,-21.5117 949.549,-29.0146 952.595,-22.7122"/>
</g>
<!-- Node39&#45;&gt;Node2 -->
<g id="edge126" class="edge"><title>Node39&#45;&gt;Node2</title>
<path fill="none" stroke="midnightblue" d="M85.1307,-232.424C76.0696,-223.699 64.4282,-210.443 59.3199,-196 38.8686,-138.177 17.1492,-102.535 59.3199,-58 87.6752,-28.0546 705.312,-14.8356 876.612,-11.7371"/>
<polygon fill="midnightblue" stroke="midnightblue" points="876.839,-15.2337 886.775,-11.5558 876.714,-8.23484 876.839,-15.2337"/>
</g>
<!-- Node39&#45;&gt;Node11 -->
<g id="edge128" class="edge"><title>Node39&#45;&gt;Node11</title>
<path fill="none" stroke="midnightblue" d="M69.2618,-232.353C53.5821,-224.784 35.4152,-212.929 26.3199,-196 -2.70878,-141.971 -13.9048,-104.301 26.3199,-58 45.5557,-35.8585 239.76,-19.5186 322.406,-13.5144"/>
<polygon fill="midnightblue" stroke="midnightblue" points="322.882,-16.9894 332.606,-12.7848 322.382,-10.0072 322.882,-16.9894"/>
</g>
<!-- Node39&#45;&gt;Node21 -->
<g id="edge130" class="edge"><title>Node39&#45;&gt;Node21</title>
<path fill="none" stroke="midnightblue" d="M100.438,-232.362C102.643,-224.84 105.668,-214.519 108.332,-205.431"/>
<polygon fill="midnightblue" stroke="midnightblue" points="111.768,-206.151 111.222,-195.571 105.05,-204.182 111.768,-206.151"/>
</g>
<!-- Node41&#45;&gt;Node2 -->
<g id="edge140" class="edge"><title>Node41&#45;&gt;Node2</title>
<path fill="none" stroke="midnightblue" d="M976.703,-348.409C957.167,-323.628 909.917,-259.171 893.32,-196 877.847,-137.109 899.549,-65.1862 912.252,-30.9539"/>
<polygon fill="midnightblue" stroke="midnightblue" points="915.528,-32.1861 915.855,-21.5963 908.996,-29.6713 915.528,-32.1861"/>
</g>
<!-- Node41&#45;&gt;Node24 -->
<g id="edge142" class="edge"><title>Node41&#45;&gt;Node24</title>
<path fill="none" stroke="midnightblue" d="M955.839,-348.453C930.392,-339.221 892.725,-325.249 860.32,-312 766.786,-273.757 658.15,-224.272 605.381,-199.904"/>
<polygon fill="midnightblue" stroke="midnightblue" points="606.739,-196.676 596.194,-195.655 603.801,-203.029 606.739,-196.676"/>
</g>
<!-- Node41&#45;&gt;Node25 -->
<g id="edge144" class="edge"><title>Node41&#45;&gt;Node25</title>
<path fill="none" stroke="midnightblue" d="M928.819,-348.497C871.785,-337.894 784.298,-321.631 727.944,-311.154"/>
<polygon fill="midnightblue" stroke="midnightblue" points="728.269,-307.655 717.798,-309.268 726.99,-314.537 728.269,-307.655"/>
</g>
</g>
</svg>
