<?xml version="1.0" encoding="UTF-8" standalone="no"?>
<!DOCTYPE svg PUBLIC "-//W3C//DTD SVG 1.1//EN"
 "http://www.w3.org/Graphics/SVG/1.1/DTD/svg11.dtd">
<!-- Generated by graphviz version 2.26.3 (20100126.1600)
 -->
<!-- Title: DockWebApp.h Pages: 1 -->
<svg width="260pt" height="88pt"
 viewBox="0.00 0.00 260.00 88.00" xmlns="http://www.w3.org/2000/svg" xmlns:xlink="http://www.w3.org/1999/xlink">
<g id="graph1" class="graph" transform="scale(1 1) rotate(0) translate(4 84)">
<title>DockWebApp.h</title>
<polygon fill="white" stroke="white" points="-4,5 -4,-84 257,-84 257,5 -4,5"/>
<!-- Node1 -->
<g id="node1" class="node"><title>Node1</title>
<polygon fill="#bfbfbf" stroke="black" points="72.5,-58.5 72.5,-79.5 161.5,-79.5 161.5,-58.5 72.5,-58.5"/>
<text text-anchor="middle" x="117" y="-66.5" font-family="Helvetica,sans-Serif" font-size="10.00">DockWebApp.h</text>
</g>
<!-- Node2 -->
<g id="node3" class="node"><title>Node2</title>
<a xlink:href="DockWebApp_8cpp.htm" target="_top" xlink:title="DockWebApp.cpp">
<polygon fill="white" stroke="black" points="0,-0.5 0,-21.5 100,-21.5 100,-0.5 0,-0.5"/>
<text text-anchor="middle" x="50" y="-8.5" font-family="Helvetica,sans-Serif" font-size="10.00">DockWebApp.cpp</text>
</a>
</g>
<!-- Node1&#45;&gt;Node2 -->
<g id="edge2" class="edge"><title>Node1&#45;&gt;Node2</title>
<path fill="none" stroke="midnightblue" d="M97.0048,-51.6908C85.6944,-41.8996 71.917,-29.973 62.2109,-21.5707"/>
<polygon fill="midnightblue" stroke="midnightblue" points="94.8598,-54.4631 104.711,-58.3619 99.4413,-49.1706 94.8598,-54.4631"/>
</g>
<!-- Node3 -->
<g id="node5" class="node"><title>Node3</title>
<a xlink:href="WebAppFactoryLuna_8cpp.htm" target="_top" xlink:title="WebAppFactoryLuna.cpp">
<polygon fill="white" stroke="black" points="118,-0.5 118,-21.5 252,-21.5 252,-0.5 118,-0.5"/>
<text text-anchor="middle" x="185" y="-8.5" font-family="Helvetica,sans-Serif" font-size="10.00">WebAppFactoryLuna.cpp</text>
</a>
</g>
<!-- Node1&#45;&gt;Node3 -->
<g id="edge4" class="edge"><title>Node1&#45;&gt;Node3</title>
<path fill="none" stroke="midnightblue" d="M137.294,-51.6908C148.773,-41.8996 162.756,-29.973 172.607,-21.5707"/>
<polygon fill="midnightblue" stroke="midnightblue" points="134.809,-49.2095 129.472,-58.3619 139.352,-54.5353 134.809,-49.2095"/>
</g>
</g>
</svg>
