<?xml version="1.0" encoding="UTF-8" standalone="no"?>
<!DOCTYPE svg PUBLIC "-//W3C//DTD SVG 1.1//EN"
 "http://www.w3.org/Graphics/SVG/1.1/DTD/svg11.dtd">
<!-- Generated by graphviz version 2.26.3 (20100126.1600)
 -->
<!-- Title: EventReporter.h Pages: 1 -->
<svg width="506pt" height="88pt"
 viewBox="0.00 0.00 506.00 88.00" xmlns="http://www.w3.org/2000/svg" xmlns:xlink="http://www.w3.org/1999/xlink">
<g id="graph1" class="graph" transform="scale(1 1) rotate(0) translate(4 84)">
<title>EventReporter.h</title>
<polygon fill="white" stroke="white" points="-4,5 -4,-84 503,-84 503,5 -4,5"/>
<!-- Node1 -->
<g id="node1" class="node"><title>Node1</title>
<polygon fill="#bfbfbf" stroke="black" points="187,-58.5 187,-79.5 281,-79.5 281,-58.5 187,-58.5"/>
<text text-anchor="middle" x="234" y="-66.5" font-family="Helvetica,sans-Serif" font-size="10.00">EventReporter.h</text>
</g>
<!-- Node2 -->
<g id="node3" class="node"><title>Node2</title>
<a xlink:href="EventReporter_8cpp.htm" target="_top" xlink:title="EventReporter.cpp">
<polygon fill="white" stroke="black" points="-0.5,-0.5 -0.5,-21.5 104.5,-21.5 104.5,-0.5 -0.5,-0.5"/>
<text text-anchor="middle" x="52" y="-8.5" font-family="Helvetica,sans-Serif" font-size="10.00">EventReporter.cpp</text>
</a>
</g>
<!-- Node1&#45;&gt;Node2 -->
<g id="edge2" class="edge"><title>Node1&#45;&gt;Node2</title>
<path fill="none" stroke="midnightblue" d="M191.364,-55.4127C158.892,-45.0646 114.84,-31.0258 85.0206,-21.5231"/>
<polygon fill="midnightblue" stroke="midnightblue" points="190.451,-58.795 201.041,-58.4966 192.576,-52.1255 190.451,-58.795"/>
</g>
<!-- Node3 -->
<g id="node5" class="node"><title>Node3</title>
<a xlink:href="CardWebApp_8cpp.htm" target="_top" xlink:title="CardWebApp.cpp">
<polygon fill="white" stroke="black" points="121.5,-0.5 121.5,-21.5 220.5,-21.5 220.5,-0.5 121.5,-0.5"/>
<text text-anchor="middle" x="171" y="-8.5" font-family="Helvetica,sans-Serif" font-size="10.00">CardWebApp.cpp</text>
</a>
</g>
<!-- Node1&#45;&gt;Node3 -->
<g id="edge4" class="edge"><title>Node1&#45;&gt;Node3</title>
<path fill="none" stroke="midnightblue" d="M214.888,-51.405C204.312,-41.6683 191.52,-29.8914 182.482,-21.5707"/>
<polygon fill="midnightblue" stroke="midnightblue" points="212.717,-54.1637 222.445,-58.3619 217.458,-49.0138 212.717,-54.1637"/>
</g>
<!-- Node4 -->
<g id="node7" class="node"><title>Node4</title>
<a xlink:href="WebAppManager_8cpp.htm" target="_top" xlink:title="WebAppManager.cpp">
<polygon fill="white" stroke="black" points="237.5,-0.5 237.5,-21.5 356.5,-21.5 356.5,-0.5 237.5,-0.5"/>
<text text-anchor="middle" x="297" y="-8.5" font-family="Helvetica,sans-Serif" font-size="10.00">WebAppManager.cpp</text>
</a>
</g>
<!-- Node1&#45;&gt;Node4 -->
<g id="edge6" class="edge"><title>Node1&#45;&gt;Node4</title>
<path fill="none" stroke="midnightblue" d="M253.112,-51.405C263.688,-41.6683 276.48,-29.8914 285.518,-21.5707"/>
<polygon fill="midnightblue" stroke="midnightblue" points="250.542,-49.0138 245.555,-58.3619 255.283,-54.1637 250.542,-49.0138"/>
</g>
<!-- Node5 -->
<g id="node9" class="node"><title>Node5</title>
<a xlink:href="WindowedWebApp_8cpp.htm" target="_top" xlink:title="WindowedWebApp.cpp">
<polygon fill="white" stroke="black" points="373.5,-0.5 373.5,-21.5 498.5,-21.5 498.5,-0.5 373.5,-0.5"/>
<text text-anchor="middle" x="436" y="-8.5" font-family="Helvetica,sans-Serif" font-size="10.00">WindowedWebApp.cpp</text>
</a>
</g>
<!-- Node1&#45;&gt;Node5 -->
<g id="edge8" class="edge"><title>Node1&#45;&gt;Node5</title>
<path fill="none" stroke="midnightblue" d="M280.392,-55.6795C316.517,-45.307 365.97,-31.1078 399.351,-21.5231"/>
<polygon fill="midnightblue" stroke="midnightblue" points="279.226,-52.3727 270.581,-58.4966 281.158,-59.1009 279.226,-52.3727"/>
</g>
</g>
</svg>
