<?xml version="1.0" encoding="UTF-8" standalone="no"?>
<!DOCTYPE svg PUBLIC "-//W3C//DTD SVG 1.1//EN"
 "http://www.w3.org/Graphics/SVG/1.1/DTD/svg11.dtd">
<!-- Generated by graphviz version 2.26.3 (20100126.1600)
 -->
<!-- Title: EventReporter.cpp Pages: 1 -->
<svg width="657pt" height="146pt"
 viewBox="0.00 0.00 656.75 146.00" xmlns="http://www.w3.org/2000/svg" xmlns:xlink="http://www.w3.org/1999/xlink">
<g id="graph1" class="graph" transform="scale(1 1) rotate(0) translate(4 142)">
<title>EventReporter.cpp</title>
<polygon fill="white" stroke="white" points="-4,5 -4,-142 653.746,-142 653.746,5 -4,5"/>
<!-- Node1 -->
<g id="node1" class="node"><title>Node1</title>
<polygon fill="#bfbfbf" stroke="black" points="239.246,-116.5 239.246,-137.5 344.246,-137.5 344.246,-116.5 239.246,-116.5"/>
<text text-anchor="middle" x="291.746" y="-124.5" font-family="Helvetica,sans-Serif" font-size="10.00">EventReporter.cpp</text>
</g>
<!-- Node2 -->
<g id="node3" class="node"><title>Node2</title>
<polygon fill="white" stroke="#bfbfbf" points="63.2462,-0.5 63.2462,-21.5 130.246,-21.5 130.246,-0.5 63.2462,-0.5"/>
<text text-anchor="middle" x="96.7462" y="-8.5" font-family="Helvetica,sans-Serif" font-size="10.00">Common.h</text>
</g>
<!-- Node1&#45;&gt;Node2 -->
<g id="edge2" class="edge"><title>Node1&#45;&gt;Node2</title>
<path fill="none" stroke="midnightblue" d="M239.198,-122.028C160.772,-114.07 20.6666,-97.5724 5.7462,-80 -13.5589,-57.2635 21.2501,-37.4214 53.2398,-24.9235"/>
<polygon fill="midnightblue" stroke="midnightblue" points="54.8631,-28.0539 63.0141,-21.2855 52.4213,-21.4936 54.8631,-28.0539"/>
</g>
<!-- Node3 -->
<g id="node5" class="node"><title>Node3</title>
<polygon fill="white" stroke="#bfbfbf" points="14.2462,-58.5 14.2462,-79.5 55.2462,-79.5 55.2462,-58.5 14.2462,-58.5"/>
<text text-anchor="middle" x="34.7462" y="-66.5" font-family="Helvetica,sans-Serif" font-size="10.00">glib.h</text>
</g>
<!-- Node1&#45;&gt;Node3 -->
<g id="edge4" class="edge"><title>Node1&#45;&gt;Node3</title>
<path fill="none" stroke="midnightblue" d="M239.099,-118.602C194.785,-110.982 129.67,-98.5 65.4075,-80.1984"/>
<polygon fill="midnightblue" stroke="midnightblue" points="66.0996,-76.755 55.5205,-77.3337 64.1515,-83.4785 66.0996,-76.755"/>
</g>
<!-- Node4 -->
<g id="node7" class="node"><title>Node4</title>
<polygon fill="white" stroke="#bfbfbf" points="72.7462,-58.5 72.7462,-79.5 144.746,-79.5 144.746,-58.5 72.7462,-58.5"/>
<text text-anchor="middle" x="108.746" y="-66.5" font-family="Helvetica,sans-Serif" font-size="10.00">cjson/json.h</text>
</g>
<!-- Node1&#45;&gt;Node4 -->
<g id="edge6" class="edge"><title>Node1&#45;&gt;Node4</title>
<path fill="none" stroke="midnightblue" d="M258.606,-116.497C228.643,-107 184.35,-92.9619 151.684,-82.6087"/>
<polygon fill="midnightblue" stroke="midnightblue" points="152.538,-79.208 141.948,-79.5231 150.423,-85.8809 152.538,-79.208"/>
</g>
<!-- Node5 -->
<g id="node9" class="node"><title>Node5</title>
<polygon fill="white" stroke="#bfbfbf" points="162.746,-58.5 162.746,-79.5 226.746,-79.5 226.746,-58.5 162.746,-58.5"/>
<text text-anchor="middle" x="194.746" y="-66.5" font-family="Helvetica,sans-Serif" font-size="10.00">sys/prctl.h</text>
</g>
<!-- Node1&#45;&gt;Node5 -->
<g id="edge8" class="edge"><title>Node1&#45;&gt;Node5</title>
<path fill="none" stroke="midnightblue" d="M273.955,-116.362C259.188,-107.532 237.968,-94.844 221.208,-84.8224"/>
<polygon fill="midnightblue" stroke="midnightblue" points="222.804,-81.6987 212.425,-79.5707 219.211,-87.7066 222.804,-81.6987"/>
</g>
<!-- Node6 -->
<g id="node11" class="node"><title>Node6</title>
<a xlink:href="EventReporter_8h.htm" target="_top" xlink:title="EventReporter.h">
<polygon fill="white" stroke="black" points="244.746,-58.5 244.746,-79.5 338.746,-79.5 338.746,-58.5 244.746,-58.5"/>
<text text-anchor="middle" x="291.746" y="-66.5" font-family="Helvetica,sans-Serif" font-size="10.00">EventReporter.h</text>
</a>
</g>
<!-- Node1&#45;&gt;Node6 -->
<g id="edge10" class="edge"><title>Node1&#45;&gt;Node6</title>
<path fill="none" stroke="midnightblue" d="M291.746,-116.362C291.746,-108.922 291.746,-98.7427 291.746,-89.7276"/>
<polygon fill="midnightblue" stroke="midnightblue" points="295.246,-89.5706 291.746,-79.5707 288.246,-89.5707 295.246,-89.5706"/>
</g>
<!-- Node7 -->
<g id="node14" class="node"><title>Node7</title>
<polygon fill="white" stroke="#bfbfbf" points="327.746,-0.5 327.746,-21.5 405.746,-21.5 405.746,-0.5 327.746,-0.5"/>
<text text-anchor="middle" x="366.746" y="-8.5" font-family="Helvetica,sans-Serif" font-size="10.00">lunaservice.h</text>
</g>
<!-- Node1&#45;&gt;Node7 -->
<g id="edge24" class="edge"><title>Node1&#45;&gt;Node7</title>
<path fill="none" stroke="midnightblue" d="M309.379,-116.364C321.845,-107.97 338.011,-95.1679 347.746,-80 357.159,-65.3349 361.961,-46.0286 364.379,-31.5681"/>
<polygon fill="midnightblue" stroke="midnightblue" points="367.852,-32.0061 365.8,-21.6118 360.922,-31.0169 367.852,-32.0061"/>
</g>
<!-- Node9 -->
<g id="node18" class="node"><title>Node9</title>
<polygon fill="white" stroke="#bfbfbf" points="394.246,-58.5 394.246,-79.5 457.246,-79.5 457.246,-58.5 394.246,-58.5"/>
<text text-anchor="middle" x="425.746" y="-66.5" font-family="Helvetica,sans-Serif" font-size="10.00">Settings.h</text>
</g>
<!-- Node1&#45;&gt;Node9 -->
<g id="edge18" class="edge"><title>Node1&#45;&gt;Node9</title>
<path fill="none" stroke="midnightblue" d="M316.013,-116.497C337.225,-107.315 368.244,-93.8889 391.896,-83.6516"/>
<polygon fill="midnightblue" stroke="midnightblue" points="393.421,-86.8055 401.208,-79.6212 390.64,-80.3815 393.421,-86.8055"/>
</g>
<!-- Node10 -->
<g id="node20" class="node"><title>Node10</title>
<polygon fill="white" stroke="#bfbfbf" points="474.246,-58.5 474.246,-79.5 545.246,-79.5 545.246,-58.5 474.246,-58.5"/>
<text text-anchor="middle" x="509.746" y="-66.5" font-family="Helvetica,sans-Serif" font-size="10.00">HostBase.h</text>
</g>
<!-- Node1&#45;&gt;Node10 -->
<g id="edge20" class="edge"><title>Node1&#45;&gt;Node10</title>
<path fill="none" stroke="midnightblue" d="M331.224,-116.497C368.698,-106.527 424.988,-91.5504 464.311,-81.0883"/>
<polygon fill="midnightblue" stroke="midnightblue" points="465.407,-84.4185 474.171,-78.465 463.607,-77.6538 465.407,-84.4185"/>
</g>
<!-- Node11 -->
<g id="node22" class="node"><title>Node11</title>
<polygon fill="white" stroke="#bfbfbf" points="562.746,-58.5 562.746,-79.5 648.746,-79.5 648.746,-58.5 562.746,-58.5"/>
<text text-anchor="middle" x="605.746" y="-66.5" font-family="Helvetica,sans-Serif" font-size="10.00">MutexLocker.h</text>
</g>
<!-- Node1&#45;&gt;Node11 -->
<g id="edge22" class="edge"><title>Node1&#45;&gt;Node11</title>
<path fill="none" stroke="midnightblue" d="M344.528,-118.026C395.331,-109.277 474.575,-95.3381 552.631,-80.1782"/>
<polygon fill="midnightblue" stroke="midnightblue" points="553.492,-83.5762 562.637,-78.2266 552.152,-76.7057 553.492,-83.5762"/>
</g>
<!-- Node6&#45;&gt;Node2 -->
<g id="edge12" class="edge"><title>Node6&#45;&gt;Node2</title>
<path fill="none" stroke="midnightblue" d="M256.433,-58.4966C223.868,-48.8106 175.418,-34.3999 140.431,-23.9934"/>
<polygon fill="midnightblue" stroke="midnightblue" points="141.075,-20.5334 130.492,-21.0371 139.079,-27.2429 141.075,-20.5334"/>
</g>
<!-- Node6&#45;&gt;Node7 -->
<g id="edge14" class="edge"><title>Node6&#45;&gt;Node7</title>
<path fill="none" stroke="midnightblue" d="M305.502,-58.3619C316.497,-49.859 332.119,-37.7785 344.833,-27.9466"/>
<polygon fill="midnightblue" stroke="midnightblue" points="347.308,-30.4569 353.077,-21.5707 343.026,-24.9195 347.308,-30.4569"/>
</g>
<!-- Node8 -->
<g id="node16" class="node"><title>Node8</title>
<polygon fill="white" stroke="#bfbfbf" points="257.246,-0.5 257.246,-21.5 310.246,-21.5 310.246,-0.5 257.246,-0.5"/>
<text text-anchor="middle" x="283.746" y="-8.5" font-family="Helvetica,sans-Serif" font-size="10.00">Mutex.h</text>
</g>
<!-- Node6&#45;&gt;Node8 -->
<g id="edge16" class="edge"><title>Node6&#45;&gt;Node8</title>
<path fill="none" stroke="midnightblue" d="M290.279,-58.3619C289.253,-50.9219 287.849,-40.7427 286.605,-31.7276"/>
<polygon fill="midnightblue" stroke="midnightblue" points="290.038,-30.9986 285.204,-21.5707 283.104,-31.9551 290.038,-30.9986"/>
</g>
</g>
</svg>
