<?xml version="1.0" encoding="UTF-8" standalone="no"?>
<!DOCTYPE svg PUBLIC "-//W3C//DTD SVG 1.1//EN"
 "http://www.w3.org/Graphics/SVG/1.1/DTD/svg11.dtd">
<!-- Generated by graphviz version 2.26.3 (20100126.1600)
 -->
<!-- Title: Graphical Class Hierarchy Pages: 1 -->
<svg width="348pt" height="122pt"
 viewBox="0.00 0.00 348.00 122.00" xmlns="http://www.w3.org/2000/svg" xmlns:xlink="http://www.w3.org/1999/xlink">
<g id="graph1" class="graph" transform="scale(1 1) rotate(0) translate(4 118)">
<title>Graphical Class Hierarchy</title>
<polygon fill="white" stroke="white" points="-4,5 -4,-118 345,-118 345,5 -4,5"/>
<!-- Node1 -->
<g id="node1" class="node"><title>Node1</title>
<a xlink:href="classRemoteWindowData.htm" target="_top" xlink:title="RemoteWindowData">
<polygon fill="white" stroke="black" points="0.5,-46.5 0.5,-67.5 113.5,-67.5 113.5,-46.5 0.5,-46.5"/>
<text text-anchor="middle" x="57" y="-54.5" font-family="Helvetica,sans-Serif" font-size="10.00">RemoteWindowData</text>
</a>
</g>
<!-- Node2 -->
<g id="node3" class="node"><title>Node2</title>
<a xlink:href="classRemoteWindowDataOpenGLQt.htm" target="_top" xlink:title="RemoteWindowDataOpenGLQt">
<polygon fill="white" stroke="black" points="162.5,-92.5 162.5,-113.5 327.5,-113.5 327.5,-92.5 162.5,-92.5"/>
<text text-anchor="middle" x="245" y="-100.5" font-family="Helvetica,sans-Serif" font-size="10.00">RemoteWindowDataOpenGLQt</text>
</a>
</g>
<!-- Node1&#45;&gt;Node2 -->
<g id="edge2" class="edge"><title>Node1&#45;&gt;Node2</title>
<path fill="none" stroke="midnightblue" d="M102.266,-70.2924C117.389,-74.5629 134.371,-79.1744 150,-83 163.424,-86.2859 177.996,-89.5188 191.602,-92.3955"/>
<polygon fill="midnightblue" stroke="midnightblue" points="103.205,-66.9208 92.6285,-67.547 101.287,-73.6529 103.205,-66.9208"/>
</g>
<!-- Node3 -->
<g id="node5" class="node"><title>Node3</title>
<a xlink:href="classRemoteWindowDataOpenGLTextureShared.htm" target="_top" xlink:title="RemoteWindowDataOpenGLTexture\lShared">
<polygon fill="white" stroke="black" points="150,-40 150,-74 340,-74 340,-40 150,-40"/>
<text text-anchor="start" x="158" y="-61" font-family="Helvetica,sans-Serif" font-size="10.00">RemoteWindowDataOpenGLTexture</text>
<text text-anchor="middle" x="245" y="-48" font-family="Helvetica,sans-Serif" font-size="10.00">Shared</text>
</a>
</g>
<!-- Node1&#45;&gt;Node3 -->
<g id="edge4" class="edge"><title>Node1&#45;&gt;Node3</title>
<path fill="none" stroke="midnightblue" d="M123.8,-57C132.26,-57 141.042,-57 149.837,-57"/>
<polygon fill="midnightblue" stroke="midnightblue" points="123.661,-53.5001 113.661,-57 123.661,-60.5001 123.661,-53.5001"/>
</g>
<!-- Node4 -->
<g id="node7" class="node"><title>Node4</title>
<a xlink:href="classRemoteWindowDataSoftwareQt.htm" target="_top" xlink:title="RemoteWindowDataSoftwareQt">
<polygon fill="white" stroke="black" points="161.5,-0.5 161.5,-21.5 328.5,-21.5 328.5,-0.5 161.5,-0.5"/>
<text text-anchor="middle" x="245" y="-8.5" font-family="Helvetica,sans-Serif" font-size="10.00">RemoteWindowDataSoftwareQt</text>
</a>
</g>
<!-- Node1&#45;&gt;Node4 -->
<g id="edge6" class="edge"><title>Node1&#45;&gt;Node4</title>
<path fill="none" stroke="midnightblue" d="M102.266,-43.7076C117.389,-39.4371 134.371,-34.8256 150,-31 163.424,-27.7141 177.996,-24.4812 191.602,-21.6045"/>
<polygon fill="midnightblue" stroke="midnightblue" points="101.287,-40.3471 92.6285,-46.453 103.205,-47.0792 101.287,-40.3471"/>
</g>
</g>
</svg>
