<?xml version="1.0" encoding="UTF-8" standalone="no"?>
<!DOCTYPE svg PUBLIC "-//W3C//DTD SVG 1.1//EN"
 "http://www.w3.org/Graphics/SVG/1.1/DTD/svg11.dtd">
<!-- Generated by graphviz version 2.26.3 (20100126.1600)
 -->
<!-- Title: Graphical Class Hierarchy Pages: 1 -->
<svg width="642pt" height="270pt"
 viewBox="0.00 0.00 642.00 270.00" xmlns="http://www.w3.org/2000/svg" xmlns:xlink="http://www.w3.org/1999/xlink">
<g id="graph1" class="graph" transform="scale(1 1) rotate(0) translate(4 266)">
<title>Graphical Class Hierarchy</title>
<polygon fill="white" stroke="white" points="-4,5 -4,-266 639,-266 639,5 -4,5"/>
<!-- Node1 -->
<g id="node1" class="node"><title>Node1</title>
<a xlink:href="classPIpcChannelListener.htm" target="_top" xlink:title="PIpcChannelListener">
<polygon fill="white" stroke="black" points="116,-120.5 116,-141.5 232,-141.5 232,-120.5 116,-120.5"/>
<text text-anchor="middle" x="174" y="-128.5" font-family="Helvetica,sans-Serif" font-size="10.00">PIpcChannelListener</text>
</a>
</g>
<!-- Node2 -->
<g id="node3" class="node"><title>Node2</title>
<a xlink:href="classWebAppManager.htm" target="_top" xlink:title="WebAppManager">
<polygon fill="white" stroke="black" points="271.5,-200.5 271.5,-221.5 370.5,-221.5 370.5,-200.5 271.5,-200.5"/>
<text text-anchor="middle" x="321" y="-208.5" font-family="Helvetica,sans-Serif" font-size="10.00">WebAppManager</text>
</a>
</g>
<!-- Node1&#45;&gt;Node2 -->
<g id="edge2" class="edge"><title>Node1&#45;&gt;Node2</title>
<path fill="none" stroke="midnightblue" d="M222.686,-145.67C225.931,-147.286 229.07,-149.059 232,-151 251.94,-164.208 248.252,-177.507 268,-191 273.441,-194.717 279.664,-197.859 285.887,-200.471"/>
<polygon fill="midnightblue" stroke="midnightblue" points="223.907,-142.383 213.347,-141.523 221.066,-148.78 223.907,-142.383"/>
</g>
<!-- Node3 -->
<g id="node5" class="node"><title>Node3</title>
<a xlink:href="classWindowedWebApp.htm" target="_top" xlink:title="WindowedWebApp">
<polygon fill="white" stroke="black" points="268,-80.5 268,-101.5 374,-101.5 374,-80.5 268,-80.5"/>
<text text-anchor="middle" x="321" y="-88.5" font-family="Helvetica,sans-Serif" font-size="10.00">WindowedWebApp</text>
</a>
</g>
<!-- Node1&#45;&gt;Node3 -->
<g id="edge4" class="edge"><title>Node1&#45;&gt;Node3</title>
<path fill="none" stroke="midnightblue" d="M222.516,-117.798C241.961,-112.507 264.054,-106.496 282.38,-101.509"/>
<polygon fill="midnightblue" stroke="midnightblue" points="221.353,-114.488 212.623,-120.49 223.191,-121.242 221.353,-114.488"/>
</g>
<!-- Node4 -->
<g id="node7" class="node"><title>Node4</title>
<a xlink:href="classAlertWebApp.htm" target="_top" xlink:title="AlertWebApp">
<polygon fill="white" stroke="black" points="425,-80.5 425,-101.5 503,-101.5 503,-80.5 425,-80.5"/>
<text text-anchor="middle" x="464" y="-88.5" font-family="Helvetica,sans-Serif" font-size="10.00">AlertWebApp</text>
</a>
</g>
<!-- Node3&#45;&gt;Node4 -->
<g id="edge6" class="edge"><title>Node3&#45;&gt;Node4</title>
<path fill="none" stroke="midnightblue" d="M384.552,-91C398.17,-91 412.176,-91 424.564,-91"/>
<polygon fill="midnightblue" stroke="midnightblue" points="384.248,-87.5001 374.248,-91 384.248,-94.5001 384.248,-87.5001"/>
</g>
<!-- Node5 -->
<g id="node9" class="node"><title>Node5</title>
<a xlink:href="classCardWebApp.htm" target="_top" xlink:title="CardWebApp">
<polygon fill="white" stroke="black" points="424,-40.5 424,-61.5 504,-61.5 504,-40.5 424,-40.5"/>
<text text-anchor="middle" x="464" y="-48.5" font-family="Helvetica,sans-Serif" font-size="10.00">CardWebApp</text>
</a>
</g>
<!-- Node3&#45;&gt;Node5 -->
<g id="edge8" class="edge"><title>Node3&#45;&gt;Node5</title>
<path fill="none" stroke="midnightblue" d="M368.416,-77.7368C387.19,-72.4852 408.473,-66.5319 426.183,-61.5782"/>
<polygon fill="midnightblue" stroke="midnightblue" points="367.259,-74.426 358.572,-80.4905 369.145,-81.1672 367.259,-74.426"/>
</g>
<!-- Node7 -->
<g id="node13" class="node"><title>Node7</title>
<a xlink:href="classDashboardWebApp.htm" target="_top" xlink:title="DashboardWebApp">
<polygon fill="white" stroke="black" points="410,-120.5 410,-141.5 518,-141.5 518,-120.5 410,-120.5"/>
<text text-anchor="middle" x="464" y="-128.5" font-family="Helvetica,sans-Serif" font-size="10.00">DashboardWebApp</text>
</a>
</g>
<!-- Node3&#45;&gt;Node7 -->
<g id="edge12" class="edge"><title>Node3&#45;&gt;Node7</title>
<path fill="none" stroke="midnightblue" d="M368.416,-104.263C387.19,-109.515 408.473,-115.468 426.183,-120.422"/>
<polygon fill="midnightblue" stroke="midnightblue" points="369.145,-100.833 358.572,-101.51 367.259,-107.574 369.145,-100.833"/>
</g>
<!-- Node6 -->
<g id="node11" class="node"><title>Node6</title>
<a xlink:href="classDockWebApp.htm" target="_top" xlink:title="DockWebApp">
<polygon fill="white" stroke="black" points="554,-40.5 554,-61.5 634,-61.5 634,-40.5 554,-40.5"/>
<text text-anchor="middle" x="594" y="-48.5" font-family="Helvetica,sans-Serif" font-size="10.00">DockWebApp</text>
</a>
</g>
<!-- Node5&#45;&gt;Node6 -->
<g id="edge10" class="edge"><title>Node5&#45;&gt;Node6</title>
<path fill="none" stroke="midnightblue" d="M514.34,-51C527.43,-51 541.357,-51 553.843,-51"/>
<polygon fill="midnightblue" stroke="midnightblue" points="514.065,-47.5001 504.065,-51 514.065,-54.5001 514.065,-47.5001"/>
</g>
<!-- Node8 -->
<g id="node14" class="node"><title>Node8</title>
<a xlink:href="classPIpcClient.htm" target="_top" xlink:title="PIpcClient">
<polygon fill="white" stroke="black" points="141.5,-200.5 141.5,-221.5 206.5,-221.5 206.5,-200.5 141.5,-200.5"/>
<text text-anchor="middle" x="174" y="-208.5" font-family="Helvetica,sans-Serif" font-size="10.00">PIpcClient</text>
</a>
</g>
<!-- Node8&#45;&gt;Node2 -->
<g id="edge14" class="edge"><title>Node8&#45;&gt;Node2</title>
<path fill="none" stroke="midnightblue" d="M216.87,-211C233.951,-211 253.721,-211 271.415,-211"/>
<polygon fill="midnightblue" stroke="midnightblue" points="216.624,-207.5 206.624,-211 216.624,-214.5 216.624,-207.5"/>
</g>
<!-- Node9 -->
<g id="node16" class="node"><title>Node9</title>
<a xlink:href="classProcessBase.htm" target="_top" xlink:title="ProcessBase">
<polygon fill="white" stroke="black" points="0.5,-0.5 0.5,-21.5 79.5,-21.5 79.5,-0.5 0.5,-0.5"/>
<text text-anchor="middle" x="40" y="-8.5" font-family="Helvetica,sans-Serif" font-size="10.00">ProcessBase</text>
</a>
</g>
<!-- Node10 -->
<g id="node18" class="node"><title>Node10</title>
<a xlink:href="classSysMgrWebBridge.htm" target="_top" xlink:title="SysMgrWebBridge">
<polygon fill="white" stroke="black" points="122,-0.5 122,-21.5 226,-21.5 226,-0.5 122,-0.5"/>
<text text-anchor="middle" x="174" y="-8.5" font-family="Helvetica,sans-Serif" font-size="10.00">SysMgrWebBridge</text>
</a>
</g>
<!-- Node9&#45;&gt;Node10 -->
<g id="edge16" class="edge"><title>Node9&#45;&gt;Node10</title>
<path fill="none" stroke="midnightblue" d="M89.9514,-11C100.295,-11 111.218,-11 121.645,-11"/>
<polygon fill="midnightblue" stroke="midnightblue" points="89.8416,-7.5001 79.8416,-11 89.8416,-14.5001 89.8416,-7.5001"/>
</g>
<!-- Node11 -->
<g id="node19" class="node"><title>Node11</title>
<a xlink:href="classQGraphicsView.htm" target="_top" xlink:title="QGraphicsView">
<polygon fill="white" stroke="black" points="276,-40.5 276,-61.5 366,-61.5 366,-40.5 276,-40.5"/>
<text text-anchor="middle" x="321" y="-48.5" font-family="Helvetica,sans-Serif" font-size="10.00">QGraphicsView</text>
</a>
</g>
<!-- Node11&#45;&gt;Node5 -->
<g id="edge18" class="edge"><title>Node11&#45;&gt;Node5</title>
<path fill="none" stroke="midnightblue" d="M376.443,-51C392.256,-51 409.174,-51 423.881,-51"/>
<polygon fill="midnightblue" stroke="midnightblue" points="376.246,-47.5001 366.246,-51 376.246,-54.5001 376.246,-47.5001"/>
</g>
<!-- Node12 -->
<g id="node21" class="node"><title>Node12</title>
<a xlink:href="classQObject.htm" target="_top" xlink:title="QObject">
<polygon fill="white" stroke="black" points="12.5,-40.5 12.5,-61.5 67.5,-61.5 67.5,-40.5 12.5,-40.5"/>
<text text-anchor="middle" x="40" y="-48.5" font-family="Helvetica,sans-Serif" font-size="10.00">QObject</text>
</a>
</g>
<!-- Node12&#45;&gt;Node10 -->
<g id="edge22" class="edge"><title>Node12&#45;&gt;Node10</title>
<path fill="none" stroke="midnightblue" d="M77.3716,-39.8443C96.5329,-34.1245 119.743,-27.1962 138.612,-21.5635"/>
<polygon fill="midnightblue" stroke="midnightblue" points="76.3459,-36.4978 67.7649,-42.712 78.3482,-43.2053 76.3459,-36.4978"/>
</g>
<!-- Node13 -->
<g id="node23" class="node"><title>Node13</title>
<a xlink:href="classPalmSystem.htm" target="_top" xlink:title="PalmSystem">
<polygon fill="white" stroke="black" points="137,-80.5 137,-101.5 211,-101.5 211,-80.5 137,-80.5"/>
<text text-anchor="middle" x="174" y="-88.5" font-family="Helvetica,sans-Serif" font-size="10.00">PalmSystem</text>
</a>
</g>
<!-- Node12&#45;&gt;Node13 -->
<g id="edge20" class="edge"><title>Node12&#45;&gt;Node13</title>
<path fill="none" stroke="midnightblue" d="M77.3716,-62.1557C96.5329,-67.8755 119.743,-74.8038 138.612,-80.4365"/>
<polygon fill="midnightblue" stroke="midnightblue" points="78.3482,-58.7947 67.7649,-59.288 76.3459,-65.5022 78.3482,-58.7947"/>
</g>
<!-- Node14 -->
<g id="node26" class="node"><title>Node14</title>
<a xlink:href="classWebAppBase.htm" target="_top" xlink:title="WebAppBase">
<polygon fill="white" stroke="black" points="134,-40.5 134,-61.5 214,-61.5 214,-40.5 134,-40.5"/>
<text text-anchor="middle" x="174" y="-48.5" font-family="Helvetica,sans-Serif" font-size="10.00">WebAppBase</text>
</a>
</g>
<!-- Node12&#45;&gt;Node14 -->
<g id="edge24" class="edge"><title>Node12&#45;&gt;Node14</title>
<path fill="none" stroke="midnightblue" d="M78.1332,-51C95.5415,-51 116.164,-51 133.814,-51"/>
<polygon fill="midnightblue" stroke="midnightblue" points="77.7649,-47.5001 67.7649,-51 77.7649,-54.5001 77.7649,-47.5001"/>
</g>
<!-- Node14&#45;&gt;Node3 -->
<g id="edge26" class="edge"><title>Node14&#45;&gt;Node3</title>
<path fill="none" stroke="midnightblue" d="M222.516,-64.2015C241.961,-69.4927 264.054,-75.5045 282.38,-80.4913"/>
<polygon fill="midnightblue" stroke="midnightblue" points="223.191,-60.758 212.623,-61.5095 221.353,-67.5124 223.191,-60.758"/>
</g>
<!-- Node15 -->
<g id="node28" class="node"><title>Node15</title>
<a xlink:href="classTaskBase.htm" target="_top" xlink:title="TaskBase">
<polygon fill="white" stroke="black" points="8,-160.5 8,-181.5 72,-181.5 72,-160.5 8,-160.5"/>
<text text-anchor="middle" x="40" y="-168.5" font-family="Helvetica,sans-Serif" font-size="10.00">TaskBase</text>
</a>
</g>
<!-- Node16 -->
<g id="node30" class="node"><title>Node16</title>
<a xlink:href="classSyncTask.htm" target="_top" xlink:title="SyncTask">
<polygon fill="white" stroke="black" points="142.5,-160.5 142.5,-181.5 205.5,-181.5 205.5,-160.5 142.5,-160.5"/>
<text text-anchor="middle" x="174" y="-168.5" font-family="Helvetica,sans-Serif" font-size="10.00">SyncTask</text>
</a>
</g>
<!-- Node15&#45;&gt;Node16 -->
<g id="edge28" class="edge"><title>Node15&#45;&gt;Node16</title>
<path fill="none" stroke="midnightblue" d="M82.1973,-171C101.597,-171 124.228,-171 142.166,-171"/>
<polygon fill="midnightblue" stroke="midnightblue" points="82.0964,-167.5 72.0963,-171 82.0963,-174.5 82.0964,-167.5"/>
</g>
<!-- Node16&#45;&gt;Node2 -->
<g id="edge32" class="edge"><title>Node16&#45;&gt;Node2</title>
<path fill="none" stroke="midnightblue" d="M215.428,-182.273C236.368,-187.971 261.629,-194.845 282.19,-200.439"/>
<polygon fill="midnightblue" stroke="midnightblue" points="216.103,-178.829 205.535,-179.581 214.265,-185.584 216.103,-178.829"/>
</g>
<!-- Node17 -->
<g id="node32" class="node"><title>Node17</title>
<a xlink:href="classProcessManager.htm" target="_top" xlink:title="ProcessManager">
<polygon fill="white" stroke="black" points="272,-160.5 272,-181.5 370,-181.5 370,-160.5 272,-160.5"/>
<text text-anchor="middle" x="321" y="-168.5" font-family="Helvetica,sans-Serif" font-size="10.00">ProcessManager</text>
</a>
</g>
<!-- Node16&#45;&gt;Node17 -->
<g id="edge30" class="edge"><title>Node16&#45;&gt;Node17</title>
<path fill="none" stroke="midnightblue" d="M215.966,-171C233.399,-171 253.751,-171 271.875,-171"/>
<polygon fill="midnightblue" stroke="midnightblue" points="215.535,-167.5 205.535,-171 215.535,-174.5 215.535,-167.5"/>
</g>
<!-- Node18 -->
<g id="node34" class="node"><title>Node18</title>
<a xlink:href="classTrackable.htm" target="_top" xlink:title="Trackable">
<polygon fill="white" stroke="black" points="142.5,-240.5 142.5,-261.5 205.5,-261.5 205.5,-240.5 142.5,-240.5"/>
<text text-anchor="middle" x="174" y="-248.5" font-family="Helvetica,sans-Serif" font-size="10.00">Trackable</text>
</a>
</g>
<!-- Node18&#45;&gt;Node2 -->
<g id="edge34" class="edge"><title>Node18&#45;&gt;Node2</title>
<path fill="none" stroke="midnightblue" d="M215.428,-239.727C236.368,-234.029 261.629,-227.155 282.19,-221.561"/>
<polygon fill="midnightblue" stroke="midnightblue" points="214.265,-236.416 205.535,-242.419 216.103,-243.171 214.265,-236.416"/>
</g>
</g>
</svg>
