<?xml version="1.0" encoding="UTF-8" standalone="no"?>
<!DOCTYPE svg PUBLIC "-//W3C//DTD SVG 1.1//EN"
 "http://www.w3.org/Graphics/SVG/1.1/DTD/svg11.dtd">
<!-- Generated by graphviz version 2.26.3 (20100126.1600)
 -->
<!-- Title: Graphical Class Hierarchy Pages: 1 -->
<svg width="418pt" height="110pt"
 viewBox="0.00 0.00 418.00 110.00" xmlns="http://www.w3.org/2000/svg" xmlns:xlink="http://www.w3.org/1999/xlink">
<g id="graph1" class="graph" transform="scale(1 1) rotate(0) translate(4 106)">
<title>Graphical Class Hierarchy</title>
<polygon fill="white" stroke="white" points="-4,5 -4,-106 415,-106 415,5 -4,5"/>
<!-- Node1 -->
<g id="node1" class="node"><title>Node1</title>
<a xlink:href="classEvent.htm" target="_top" xlink:title="Event">
<polygon fill="white" stroke="black" points="0,-40.5 0,-61.5 44,-61.5 44,-40.5 0,-40.5"/>
<text text-anchor="middle" x="22" y="-48.5" font-family="Helvetica,sans-Serif" font-size="10.00">Event</text>
</a>
</g>
<!-- Node2 -->
<g id="node3" class="node"><title>Node2</title>
<a xlink:href="classInputEvent.htm" target="_top" xlink:title="InputEvent">
<polygon fill="white" stroke="black" points="113.5,-80.5 113.5,-101.5 180.5,-101.5 180.5,-80.5 113.5,-80.5"/>
<text text-anchor="middle" x="147" y="-88.5" font-family="Helvetica,sans-Serif" font-size="10.00">InputEvent</text>
</a>
</g>
<!-- Node1&#45;&gt;Node2 -->
<g id="edge2" class="edge"><title>Node1&#45;&gt;Node2</title>
<path fill="none" stroke="midnightblue" d="M53.8007,-62.2347C62.2893,-65.1599 71.4728,-68.2584 80,-71 90.7476,-74.4555 102.529,-78.0398 113.174,-81.2033"/>
<polygon fill="midnightblue" stroke="midnightblue" points="54.8309,-58.8875 44.2361,-58.9123 52.5339,-65.4999 54.8309,-58.8875"/>
</g>
<!-- Node3 -->
<g id="node5" class="node"><title>Node3</title>
<a xlink:href="classPageCloseRequestEvent.htm" target="_top" xlink:title="PageCloseRequestEvent">
<polygon fill="white" stroke="black" points="80,-40.5 80,-61.5 214,-61.5 214,-40.5 80,-40.5"/>
<text text-anchor="middle" x="147" y="-48.5" font-family="Helvetica,sans-Serif" font-size="10.00">PageCloseRequestEvent</text>
</a>
</g>
<!-- Node1&#45;&gt;Node3 -->
<g id="edge4" class="edge"><title>Node1&#45;&gt;Node3</title>
<path fill="none" stroke="midnightblue" d="M54.2517,-51C62.163,-51 70.9264,-51 79.8168,-51"/>
<polygon fill="midnightblue" stroke="midnightblue" points="54.0598,-47.5001 44.0598,-51 54.0597,-54.5001 54.0598,-47.5001"/>
</g>
<!-- Node4 -->
<g id="node7" class="node"><title>Node4</title>
<a xlink:href="classProcessManagerEvent.htm" target="_top" xlink:title="ProcessManagerEvent">
<polygon fill="white" stroke="black" points="84.5,-0.5 84.5,-21.5 209.5,-21.5 209.5,-0.5 84.5,-0.5"/>
<text text-anchor="middle" x="147" y="-8.5" font-family="Helvetica,sans-Serif" font-size="10.00">ProcessManagerEvent</text>
</a>
</g>
<!-- Node1&#45;&gt;Node4 -->
<g id="edge6" class="edge"><title>Node1&#45;&gt;Node4</title>
<path fill="none" stroke="midnightblue" d="M53.8007,-39.7653C62.2893,-36.8401 71.4728,-33.7416 80,-31 89.9386,-27.8046 100.761,-24.4991 110.752,-21.518"/>
<polygon fill="midnightblue" stroke="midnightblue" points="52.5339,-36.5001 44.2361,-43.0877 54.8309,-43.1125 52.5339,-36.5001"/>
</g>
<!-- Node5 -->
<g id="node9" class="node"><title>Node5</title>
<a xlink:href="classProcessManagerLaunchEvent.htm" target="_top" xlink:title="ProcessManagerLaunchEvent">
<polygon fill="white" stroke="black" points="250.5,-0.5 250.5,-21.5 409.5,-21.5 409.5,-0.5 250.5,-0.5"/>
<text text-anchor="middle" x="330" y="-8.5" font-family="Helvetica,sans-Serif" font-size="10.00">ProcessManagerLaunchEvent</text>
</a>
</g>
<!-- Node4&#45;&gt;Node5 -->
<g id="edge8" class="edge"><title>Node4&#45;&gt;Node5</title>
<path fill="none" stroke="midnightblue" d="M219.958,-11C229.905,-11 240.158,-11 250.219,-11"/>
<polygon fill="midnightblue" stroke="midnightblue" points="219.722,-7.5001 209.722,-11 219.722,-14.5001 219.722,-7.5001"/>
</g>
</g>
</svg>
