<?xml version="1.0" encoding="UTF-8" standalone="no"?>
<!DOCTYPE svg PUBLIC "-//W3C//DTD SVG 1.1//EN"
 "http://www.w3.org/Graphics/SVG/1.1/DTD/svg11.dtd">
<!-- Generated by graphviz version 2.26.3 (20100126.1600)
 -->
<!-- Title: Graphical Class Hierarchy Pages: 1 -->
<svg width="548pt" height="42pt"
 viewBox="0.00 0.00 548.00 42.00" xmlns="http://www.w3.org/2000/svg" xmlns:xlink="http://www.w3.org/1999/xlink">
<g id="graph1" class="graph" transform="scale(1 1) rotate(0) translate(4 38)">
<title>Graphical Class Hierarchy</title>
<polygon fill="white" stroke="white" points="-4,5 -4,-38 545,-38 545,5 -4,5"/>
<!-- Node1 -->
<g id="node1" class="node"><title>Node1</title>
<a xlink:href="classRemoteWindowDataSoftware.htm" target="_top" xlink:title="RemoteWindowDataSoftware">
<polygon fill="white" stroke="black" points="0.5,-6.5 0.5,-27.5 155.5,-27.5 155.5,-6.5 0.5,-6.5"/>
<text text-anchor="middle" x="78" y="-14.5" font-family="Helvetica,sans-Serif" font-size="10.00">RemoteWindowDataSoftware</text>
</a>
</g>
<!-- Node2 -->
<g id="node3" class="node"><title>Node2</title>
<a xlink:href="classRemoteWindowDataSoftwareOpenGLComposited.htm" target="_top" xlink:title="RemoteWindowDataSoftware\lOpenGLComposited">
<polygon fill="white" stroke="black" points="192.5,-0 192.5,-34 347.5,-34 347.5,-0 192.5,-0"/>
<text text-anchor="start" x="200.5" y="-21" font-family="Helvetica,sans-Serif" font-size="10.00">RemoteWindowDataSoftware</text>
<text text-anchor="middle" x="270" y="-8" font-family="Helvetica,sans-Serif" font-size="10.00">OpenGLComposited</text>
</a>
</g>
<!-- Node1&#45;&gt;Node2 -->
<g id="edge2" class="edge"><title>Node1&#45;&gt;Node2</title>
<path fill="none" stroke="midnightblue" d="M165.605,-17C174.571,-17 183.635,-17 192.482,-17"/>
<polygon fill="midnightblue" stroke="midnightblue" points="165.54,-13.5001 155.54,-17 165.54,-20.5001 165.54,-13.5001"/>
</g>
<!-- Node3 -->
<g id="node5" class="node"><title>Node3</title>
<a xlink:href="classRemoteWindowDataSoftwareTextureShared.htm" target="_top" xlink:title="RemoteWindowDataSoftware\lTextureShared">
<polygon fill="white" stroke="black" points="384.5,-0 384.5,-34 539.5,-34 539.5,-0 384.5,-0"/>
<text text-anchor="start" x="392.5" y="-21" font-family="Helvetica,sans-Serif" font-size="10.00">RemoteWindowDataSoftware</text>
<text text-anchor="middle" x="462" y="-8" font-family="Helvetica,sans-Serif" font-size="10.00">TextureShared</text>
</a>
</g>
<!-- Node2&#45;&gt;Node3 -->
<g id="edge4" class="edge"><title>Node2&#45;&gt;Node3</title>
<path fill="none" stroke="midnightblue" d="M357.605,-17C366.571,-17 375.635,-17 384.482,-17"/>
<polygon fill="midnightblue" stroke="midnightblue" points="357.54,-13.5001 347.54,-17 357.54,-20.5001 357.54,-13.5001"/>
</g>
</g>
</svg>
