<?xml version="1.0" encoding="UTF-8" standalone="no"?>
<!DOCTYPE svg PUBLIC "-//W3C//DTD SVG 1.1//EN"
 "http://www.w3.org/Graphics/SVG/1.1/DTD/svg11.dtd">
<!-- Generated by graphviz version 2.26.3 (20100126.1600)
 -->
<!-- Title: Graphical Class Hierarchy Pages: 1 -->
<svg width="446pt" height="30pt"
 viewBox="0.00 0.00 446.00 30.00" xmlns="http://www.w3.org/2000/svg" xmlns:xlink="http://www.w3.org/1999/xlink">
<g id="graph1" class="graph" transform="scale(1 1) rotate(0) translate(4 26)">
<title>Graphical Class Hierarchy</title>
<polygon fill="white" stroke="white" points="-4,5 -4,-26 443,-26 443,5 -4,5"/>
<!-- Node1 -->
<g id="node1" class="node"><title>Node1</title>
<polygon fill="white" stroke="#bfbfbf" points="0,-0.5 0,-21.5 108,-21.5 108,-0.5 0,-0.5"/>
<text text-anchor="middle" x="54" y="-8.5" font-family="Helvetica,sans-Serif" font-size="10.00">WebGLES2Context</text>
</g>
<!-- Node2 -->
<g id="node3" class="node"><title>Node2</title>
<a xlink:href="classPGLES2Context.htm" target="_top" xlink:title="PGLES2Context">
<polygon fill="white" stroke="black" points="144,-0.5 144,-21.5 238,-21.5 238,-0.5 144,-0.5"/>
<text text-anchor="middle" x="191" y="-8.5" font-family="Helvetica,sans-Serif" font-size="10.00">PGLES2Context</text>
</a>
</g>
<!-- Node1&#45;&gt;Node2 -->
<g id="edge2" class="edge"><title>Node1&#45;&gt;Node2</title>
<path fill="none" stroke="midnightblue" d="M118.225,-11C126.875,-11 135.616,-11 143.894,-11"/>
<polygon fill="midnightblue" stroke="midnightblue" points="118.146,-7.5001 108.146,-11 118.146,-14.5001 118.146,-7.5001"/>
</g>
<!-- Node3 -->
<g id="node5" class="node"><title>Node3</title>
<a xlink:href="classPGLES2ContextTextureShared.htm" target="_top" xlink:title="PGLES2ContextTextureShared">
<polygon fill="white" stroke="black" points="274,-0.5 274,-21.5 438,-21.5 438,-0.5 274,-0.5"/>
<text text-anchor="middle" x="356" y="-8.5" font-family="Helvetica,sans-Serif" font-size="10.00">PGLES2ContextTextureShared</text>
</a>
</g>
<!-- Node2&#45;&gt;Node3 -->
<g id="edge4" class="edge"><title>Node2&#45;&gt;Node3</title>
<path fill="none" stroke="midnightblue" d="M248.457,-11C256.665,-11 265.239,-11 273.809,-11"/>
<polygon fill="midnightblue" stroke="midnightblue" points="248.282,-7.5001 238.282,-11 248.282,-14.5001 248.282,-7.5001"/>
</g>
</g>
</svg>
