<?xml version="1.0" encoding="UTF-8" standalone="no"?>
<!DOCTYPE svg PUBLIC "-//W3C//DTD SVG 1.1//EN"
 "http://www.w3.org/Graphics/SVG/1.1/DTD/svg11.dtd">
<!-- Generated by graphviz version 2.26.3 (20100126.1600)
 -->
<!-- Title: Graphical Class Hierarchy Pages: 1 -->
<svg width="264pt" height="70pt"
 viewBox="0.00 0.00 264.00 70.00" xmlns="http://www.w3.org/2000/svg" xmlns:xlink="http://www.w3.org/1999/xlink">
<g id="graph1" class="graph" transform="scale(1 1) rotate(0) translate(4 66)">
<title>Graphical Class Hierarchy</title>
<polygon fill="white" stroke="white" points="-4,5 -4,-66 261,-66 261,5 -4,5"/>
<!-- Node1 -->
<g id="node1" class="node"><title>Node1</title>
<a xlink:href="classWebAppFactory.htm" target="_top" xlink:title="WebAppFactory">
<polygon fill="white" stroke="black" points="0,-20.5 0,-41.5 92,-41.5 92,-20.5 0,-20.5"/>
<text text-anchor="middle" x="46" y="-28.5" font-family="Helvetica,sans-Serif" font-size="10.00">WebAppFactory</text>
</a>
</g>
<!-- Node2 -->
<g id="node3" class="node"><title>Node2</title>
<a xlink:href="classWebAppFactoryLuna.htm" target="_top" xlink:title="WebAppFactoryLuna">
<polygon fill="white" stroke="black" points="134.5,-40.5 134.5,-61.5 249.5,-61.5 249.5,-40.5 134.5,-40.5"/>
<text text-anchor="middle" x="192" y="-48.5" font-family="Helvetica,sans-Serif" font-size="10.00">WebAppFactoryLuna</text>
</a>
</g>
<!-- Node1&#45;&gt;Node2 -->
<g id="edge2" class="edge"><title>Node1&#45;&gt;Node2</title>
<path fill="none" stroke="midnightblue" d="M102.121,-38.6878C112.665,-40.1322 123.706,-41.6446 134.297,-43.0955"/>
<polygon fill="midnightblue" stroke="midnightblue" points="102.578,-35.2178 92.1953,-37.3281 101.628,-42.153 102.578,-35.2178"/>
</g>
<!-- Node3 -->
<g id="node5" class="node"><title>Node3</title>
<a xlink:href="classWebAppFactoryMinimal.htm" target="_top" xlink:title="WebAppFactoryMinimal">
<polygon fill="white" stroke="black" points="128,-0.5 128,-21.5 256,-21.5 256,-0.5 128,-0.5"/>
<text text-anchor="middle" x="192" y="-8.5" font-family="Helvetica,sans-Serif" font-size="10.00">WebAppFactoryMinimal</text>
</a>
</g>
<!-- Node1&#45;&gt;Node3 -->
<g id="edge4" class="edge"><title>Node1&#45;&gt;Node3</title>
<path fill="none" stroke="midnightblue" d="M102.268,-23.2921C110.679,-22.1398 119.404,-20.9446 127.962,-19.7723"/>
<polygon fill="midnightblue" stroke="midnightblue" points="101.628,-19.847 92.1953,-24.6719 102.578,-26.7822 101.628,-19.847"/>
</g>
</g>
</svg>
