<?xml version="1.0" encoding="UTF-8" standalone="no"?>
<!DOCTYPE svg PUBLIC "-//W3C//DTD SVG 1.1//EN"
 "http://www.w3.org/Graphics/SVG/1.1/DTD/svg11.dtd">
<!-- Generated by graphviz version 2.26.3 (20100126.1600)
 -->
<!-- Title: KeyboardMapping.h Pages: 1 -->
<svg width="370pt" height="146pt"
 viewBox="0.00 0.00 370.00 146.00" xmlns="http://www.w3.org/2000/svg" xmlns:xlink="http://www.w3.org/1999/xlink">
<g id="graph1" class="graph" transform="scale(1 1) rotate(0) translate(4 142)">
<title>KeyboardMapping.h</title>
<polygon fill="white" stroke="white" points="-4,5 -4,-142 367,-142 367,5 -4,5"/>
<!-- Node1 -->
<g id="node1" class="node"><title>Node1</title>
<polygon fill="#bfbfbf" stroke="black" points="131.5,-116.5 131.5,-137.5 242.5,-137.5 242.5,-116.5 131.5,-116.5"/>
<text text-anchor="middle" x="187" y="-124.5" font-family="Helvetica,sans-Serif" font-size="10.00">KeyboardMapping.h</text>
</g>
<!-- Node2 -->
<g id="node3" class="node"><title>Node2</title>
<a xlink:href="KeyboardMapping_8cpp.htm" target="_top" xlink:title="KeyboardMapping.cpp">
<polygon fill="white" stroke="black" points="0,-58.5 0,-79.5 122,-79.5 122,-58.5 0,-58.5"/>
<text text-anchor="middle" x="61" y="-66.5" font-family="Helvetica,sans-Serif" font-size="10.00">KeyboardMapping.cpp</text>
</a>
</g>
<!-- Node1&#45;&gt;Node2 -->
<g id="edge2" class="edge"><title>Node1&#45;&gt;Node2</title>
<path fill="none" stroke="midnightblue" d="M154.862,-112.206C132.757,-102.031 103.92,-88.7567 84.0737,-79.6212"/>
<polygon fill="midnightblue" stroke="midnightblue" points="153.635,-115.494 164.182,-116.497 156.562,-109.136 153.635,-115.494"/>
</g>
<!-- Node3 -->
<g id="node5" class="node"><title>Node3</title>
<a xlink:href="PalmSystem_8cpp.htm" target="_top" xlink:title="PalmSystem.cpp">
<polygon fill="white" stroke="black" points="140,-58.5 140,-79.5 234,-79.5 234,-58.5 140,-58.5"/>
<text text-anchor="middle" x="187" y="-66.5" font-family="Helvetica,sans-Serif" font-size="10.00">PalmSystem.cpp</text>
</a>
</g>
<!-- Node1&#45;&gt;Node3 -->
<g id="edge4" class="edge"><title>Node1&#45;&gt;Node3</title>
<path fill="none" stroke="midnightblue" d="M187,-106.191C187,-97.1684 187,-86.9941 187,-79.5707"/>
<polygon fill="midnightblue" stroke="midnightblue" points="183.5,-106.362 187,-116.362 190.5,-106.362 183.5,-106.362"/>
</g>
<!-- Node4 -->
<g id="node7" class="node"><title>Node4</title>
<a xlink:href="WebKitKeyMap_8h.htm" target="_top" xlink:title="WebKitKeyMap.h">
<polygon fill="white" stroke="black" points="251.5,-58.5 251.5,-79.5 348.5,-79.5 348.5,-58.5 251.5,-58.5"/>
<text text-anchor="middle" x="300" y="-66.5" font-family="Helvetica,sans-Serif" font-size="10.00">WebKitKeyMap.h</text>
</a>
</g>
<!-- Node1&#45;&gt;Node4 -->
<g id="edge6" class="edge"><title>Node1&#45;&gt;Node4</title>
<path fill="none" stroke="midnightblue" d="M216.625,-111.794C236.341,-101.675 261.748,-88.6338 279.307,-79.6212"/>
<polygon fill="midnightblue" stroke="midnightblue" points="214.762,-108.816 207.463,-116.497 217.958,-115.044 214.762,-108.816"/>
</g>
<!-- Node5 -->
<g id="node9" class="node"><title>Node5</title>
<a xlink:href="WindowedWebApp_8cpp.htm" target="_top" xlink:title="WindowedWebApp.cpp">
<polygon fill="white" stroke="black" points="237.5,-0.5 237.5,-21.5 362.5,-21.5 362.5,-0.5 237.5,-0.5"/>
<text text-anchor="middle" x="300" y="-8.5" font-family="Helvetica,sans-Serif" font-size="10.00">WindowedWebApp.cpp</text>
</a>
</g>
<!-- Node4&#45;&gt;Node5 -->
<g id="edge8" class="edge"><title>Node4&#45;&gt;Node5</title>
<path fill="none" stroke="midnightblue" d="M300,-48.1906C300,-39.1684 300,-28.9941 300,-21.5707"/>
<polygon fill="midnightblue" stroke="midnightblue" points="296.5,-48.3619 300,-58.3619 303.5,-48.3619 296.5,-48.3619"/>
</g>
</g>
</svg>
