<?xml version="1.0" encoding="UTF-8" standalone="no"?>
<!DOCTYPE svg PUBLIC "-//W3C//DTD SVG 1.1//EN"
 "http://www.w3.org/Graphics/SVG/1.1/DTD/svg11.dtd">
<!-- Generated by graphviz version 2.26.3 (20100126.1600)
 -->
<!-- Title: KeyboardMapping.cpp Pages: 1 -->
<svg width="352pt" height="146pt"
 viewBox="0.00 0.00 352.00 146.00" xmlns="http://www.w3.org/2000/svg" xmlns:xlink="http://www.w3.org/1999/xlink">
<g id="graph1" class="graph" transform="scale(1 1) rotate(0) translate(4 142)">
<title>KeyboardMapping.cpp</title>
<polygon fill="white" stroke="white" points="-4,5 -4,-142 349,-142 349,5 -4,5"/>
<!-- Node1 -->
<g id="node1" class="node"><title>Node1</title>
<polygon fill="#bfbfbf" stroke="black" points="139,-116.5 139,-137.5 261,-137.5 261,-116.5 139,-116.5"/>
<text text-anchor="middle" x="200" y="-124.5" font-family="Helvetica,sans-Serif" font-size="10.00">KeyboardMapping.cpp</text>
</g>
<!-- Node2 -->
<g id="node3" class="node"><title>Node2</title>
<polygon fill="white" stroke="#bfbfbf" points="-0.5,-0.5 -0.5,-21.5 66.5,-21.5 66.5,-0.5 -0.5,-0.5"/>
<text text-anchor="middle" x="33" y="-8.5" font-family="Helvetica,sans-Serif" font-size="10.00">Common.h</text>
</g>
<!-- Node1&#45;&gt;Node2 -->
<g id="edge2" class="edge"><title>Node1&#45;&gt;Node2</title>
<path fill="none" stroke="midnightblue" d="M142.179,-116.439C103.059,-108.082 56.1972,-95.2943 43,-80 31.7835,-67.0011 29.9266,-47.2239 30.5009,-32.1704"/>
<polygon fill="midnightblue" stroke="midnightblue" points="34.0235,-32.0089 31.2992,-21.7703 27.044,-31.473 34.0235,-32.0089"/>
</g>
<!-- Node3 -->
<g id="node5" class="node"><title>Node3</title>
<a xlink:href="KeyboardMapping_8h.htm" target="_top" xlink:title="KeyboardMapping.h">
<polygon fill="white" stroke="black" points="51.5,-58.5 51.5,-79.5 162.5,-79.5 162.5,-58.5 51.5,-58.5"/>
<text text-anchor="middle" x="107" y="-66.5" font-family="Helvetica,sans-Serif" font-size="10.00">KeyboardMapping.h</text>
</a>
</g>
<!-- Node1&#45;&gt;Node3 -->
<g id="edge4" class="edge"><title>Node1&#45;&gt;Node3</title>
<path fill="none" stroke="midnightblue" d="M182.942,-116.362C168.915,-107.614 148.816,-95.0786 132.818,-85.1015"/>
<polygon fill="midnightblue" stroke="midnightblue" points="134.287,-81.8927 123.949,-79.5707 130.582,-87.8323 134.287,-81.8927"/>
</g>
<!-- Node6 -->
<g id="node12" class="node"><title>Node6</title>
<polygon fill="white" stroke="#bfbfbf" points="179.5,-58.5 179.5,-79.5 220.5,-79.5 220.5,-58.5 179.5,-58.5"/>
<text text-anchor="middle" x="200" y="-66.5" font-family="Helvetica,sans-Serif" font-size="10.00">glib.h</text>
</g>
<!-- Node1&#45;&gt;Node6 -->
<g id="edge12" class="edge"><title>Node1&#45;&gt;Node6</title>
<path fill="none" stroke="midnightblue" d="M200,-116.362C200,-108.922 200,-98.7427 200,-89.7276"/>
<polygon fill="midnightblue" stroke="midnightblue" points="203.5,-89.5706 200,-79.5707 196.5,-89.5707 203.5,-89.5706"/>
</g>
<!-- Node7 -->
<g id="node14" class="node"><title>Node7</title>
<polygon fill="white" stroke="#bfbfbf" points="237.5,-58.5 237.5,-79.5 274.5,-79.5 274.5,-58.5 237.5,-58.5"/>
<text text-anchor="middle" x="256" y="-66.5" font-family="Helvetica,sans-Serif" font-size="10.00">map</text>
</g>
<!-- Node1&#45;&gt;Node7 -->
<g id="edge14" class="edge"><title>Node1&#45;&gt;Node7</title>
<path fill="none" stroke="midnightblue" d="M210.271,-116.362C218.244,-108.104 229.475,-96.4725 238.811,-86.8029"/>
<polygon fill="midnightblue" stroke="midnightblue" points="241.366,-89.1958 245.794,-79.5707 236.33,-84.3336 241.366,-89.1958"/>
</g>
<!-- Node8 -->
<g id="node16" class="node"><title>Node8</title>
<polygon fill="white" stroke="#bfbfbf" points="292,-58.5 292,-79.5 344,-79.5 344,-58.5 292,-58.5"/>
<text text-anchor="middle" x="318" y="-66.5" font-family="Helvetica,sans-Serif" font-size="10.00">Event.h</text>
</g>
<!-- Node1&#45;&gt;Node8 -->
<g id="edge16" class="edge"><title>Node1&#45;&gt;Node8</title>
<path fill="none" stroke="midnightblue" d="M221.369,-116.497C239.799,-107.438 266.637,-94.2462 287.355,-84.0628"/>
<polygon fill="midnightblue" stroke="midnightblue" points="288.961,-87.1735 296.391,-79.6212 285.873,-80.8914 288.961,-87.1735"/>
</g>
<!-- Node3&#45;&gt;Node2 -->
<g id="edge6" class="edge"><title>Node3&#45;&gt;Node2</title>
<path fill="none" stroke="midnightblue" d="M93.4273,-58.3619C82.5788,-49.859 67.1657,-37.7785 54.6215,-27.9466"/>
<polygon fill="midnightblue" stroke="midnightblue" points="56.5164,-24.9848 46.4867,-21.5707 52.1982,-30.4942 56.5164,-24.9848"/>
</g>
<!-- Node4 -->
<g id="node8" class="node"><title>Node4</title>
<polygon fill="white" stroke="#bfbfbf" points="87.5,-0.5 87.5,-21.5 116.5,-21.5 116.5,-0.5 87.5,-0.5"/>
<text text-anchor="middle" x="102" y="-8.5" font-family="Helvetica,sans-Serif" font-size="10.00">Qt</text>
</g>
<!-- Node3&#45;&gt;Node4 -->
<g id="edge8" class="edge"><title>Node3&#45;&gt;Node4</title>
<path fill="none" stroke="midnightblue" d="M106.083,-58.3619C105.442,-50.9219 104.564,-40.7427 103.787,-31.7276"/>
<polygon fill="midnightblue" stroke="midnightblue" points="107.257,-31.2331 102.911,-21.5707 100.283,-31.8343 107.257,-31.2331"/>
</g>
<!-- Node5 -->
<g id="node10" class="node"><title>Node5</title>
<polygon fill="white" stroke="#bfbfbf" points="133.5,-0.5 133.5,-21.5 264.5,-21.5 264.5,-0.5 133.5,-0.5"/>
<text text-anchor="middle" x="199" y="-8.5" font-family="Helvetica,sans-Serif" font-size="10.00">SysMgrDeviceKeydefs.h</text>
</g>
<!-- Node3&#45;&gt;Node5 -->
<g id="edge10" class="edge"><title>Node3&#45;&gt;Node5</title>
<path fill="none" stroke="midnightblue" d="M123.874,-58.3619C137.751,-49.6138 157.634,-37.0786 173.46,-27.1015"/>
<polygon fill="midnightblue" stroke="midnightblue" points="175.64,-29.8645 182.233,-21.5707 171.907,-23.943 175.64,-29.8645"/>
</g>
</g>
</svg>
