<?xml version="1.0" encoding="UTF-8" standalone="no"?>
<!DOCTYPE svg PUBLIC "-//W3C//DTD SVG 1.1//EN"
 "http://www.w3.org/Graphics/SVG/1.1/DTD/svg11.dtd">
<!-- Generated by graphviz version 2.26.3 (20100126.1600)
 -->
<!-- Title: KeywordMap.h Pages: 1 -->
<svg width="238pt" height="88pt"
 viewBox="0.00 0.00 238.00 88.00" xmlns="http://www.w3.org/2000/svg" xmlns:xlink="http://www.w3.org/1999/xlink">
<g id="graph1" class="graph" transform="scale(1 1) rotate(0) translate(4 84)">
<title>KeywordMap.h</title>
<polygon fill="white" stroke="white" points="-4,5 -4,-84 235,-84 235,5 -4,5"/>
<!-- Node1 -->
<g id="node1" class="node"><title>Node1</title>
<polygon fill="#bfbfbf" stroke="black" points="87.5,-58.5 87.5,-79.5 174.5,-79.5 174.5,-58.5 87.5,-58.5"/>
<text text-anchor="middle" x="131" y="-66.5" font-family="Helvetica,sans-Serif" font-size="10.00">KeywordMap.h</text>
</g>
<!-- Node2 -->
<g id="node3" class="node"><title>Node2</title>
<polygon fill="white" stroke="#bfbfbf" points="-0.5,-0.5 -0.5,-21.5 66.5,-21.5 66.5,-0.5 -0.5,-0.5"/>
<text text-anchor="middle" x="33" y="-8.5" font-family="Helvetica,sans-Serif" font-size="10.00">Common.h</text>
</g>
<!-- Node1&#45;&gt;Node2 -->
<g id="edge2" class="edge"><title>Node1&#45;&gt;Node2</title>
<path fill="none" stroke="midnightblue" d="M113.025,-58.3619C98.1058,-49.532 76.6674,-36.844 59.7344,-26.8224"/>
<polygon fill="midnightblue" stroke="midnightblue" points="61.2492,-23.6519 50.8608,-21.5707 57.6839,-29.6759 61.2492,-23.6519"/>
</g>
<!-- Node3 -->
<g id="node5" class="node"><title>Node3</title>
<polygon fill="white" stroke="#bfbfbf" points="83.5,-0.5 83.5,-21.5 126.5,-21.5 126.5,-0.5 83.5,-0.5"/>
<text text-anchor="middle" x="105" y="-8.5" font-family="Helvetica,sans-Serif" font-size="10.00">string</text>
</g>
<!-- Node1&#45;&gt;Node3 -->
<g id="edge4" class="edge"><title>Node1&#45;&gt;Node3</title>
<path fill="none" stroke="midnightblue" d="M126.231,-58.3619C122.786,-50.6766 118.031,-40.0686 113.894,-30.8399"/>
<polygon fill="midnightblue" stroke="midnightblue" points="117.023,-29.264 109.739,-21.5707 110.635,-32.1275 117.023,-29.264"/>
</g>
<!-- Node4 -->
<g id="node7" class="node"><title>Node4</title>
<polygon fill="white" stroke="#bfbfbf" points="143.5,-0.5 143.5,-21.5 172.5,-21.5 172.5,-0.5 143.5,-0.5"/>
<text text-anchor="middle" x="158" y="-8.5" font-family="Helvetica,sans-Serif" font-size="10.00">list</text>
</g>
<!-- Node1&#45;&gt;Node4 -->
<g id="edge6" class="edge"><title>Node1&#45;&gt;Node4</title>
<path fill="none" stroke="midnightblue" d="M135.952,-58.3619C139.53,-50.6766 144.468,-40.0686 148.764,-30.8399"/>
<polygon fill="midnightblue" stroke="midnightblue" points="152.032,-32.1136 153.079,-21.5707 145.686,-29.1594 152.032,-32.1136"/>
</g>
<!-- Node5 -->
<g id="node9" class="node"><title>Node5</title>
<polygon fill="white" stroke="#bfbfbf" points="189.5,-0.5 189.5,-21.5 230.5,-21.5 230.5,-0.5 189.5,-0.5"/>
<text text-anchor="middle" x="210" y="-8.5" font-family="Helvetica,sans-Serif" font-size="10.00">glib.h</text>
</g>
<!-- Node1&#45;&gt;Node5 -->
<g id="edge8" class="edge"><title>Node1&#45;&gt;Node5</title>
<path fill="none" stroke="midnightblue" d="M145.49,-58.3619C157.183,-49.7773 173.843,-37.5459 187.303,-27.6636"/>
<polygon fill="midnightblue" stroke="midnightblue" points="189.613,-30.31 195.602,-21.5707 185.47,-24.6675 189.613,-30.31"/>
</g>
</g>
</svg>
