<?xml version="1.0" encoding="UTF-8" standalone="no"?>
<!DOCTYPE svg PUBLIC "-//W3C//DTD SVG 1.1//EN"
 "http://www.w3.org/Graphics/SVG/1.1/DTD/svg11.dtd">
<!-- Generated by graphviz version 2.26.3 (20100126.1600)
 -->
<!-- Title: KeywordMap.cpp Pages: 1 -->
<svg width="306pt" height="146pt"
 viewBox="0.00 0.00 306.00 146.00" xmlns="http://www.w3.org/2000/svg" xmlns:xlink="http://www.w3.org/1999/xlink">
<g id="graph1" class="graph" transform="scale(1 1) rotate(0) translate(4 142)">
<title>KeywordMap.cpp</title>
<polygon fill="white" stroke="white" points="-4,5 -4,-142 303,-142 303,5 -4,5"/>
<!-- Node1 -->
<g id="node1" class="node"><title>Node1</title>
<polygon fill="#bfbfbf" stroke="black" points="73,-116.5 73,-137.5 171,-137.5 171,-116.5 73,-116.5"/>
<text text-anchor="middle" x="122" y="-124.5" font-family="Helvetica,sans-Serif" font-size="10.00">KeywordMap.cpp</text>
</g>
<!-- Node2 -->
<g id="node3" class="node"><title>Node2</title>
<polygon fill="white" stroke="#bfbfbf" points="-0.5,-0.5 -0.5,-21.5 66.5,-21.5 66.5,-0.5 -0.5,-0.5"/>
<text text-anchor="middle" x="33" y="-8.5" font-family="Helvetica,sans-Serif" font-size="10.00">Common.h</text>
</g>
<!-- Node1&#45;&gt;Node2 -->
<g id="edge2" class="edge"><title>Node1&#45;&gt;Node2</title>
<path fill="none" stroke="midnightblue" d="M93.1087,-116.458C76.4343,-108.872 56.5419,-96.9623 45,-80 35.4066,-65.9014 32.7231,-46.5409 32.2576,-31.9156"/>
<polygon fill="midnightblue" stroke="midnightblue" points="35.7576,-31.8196 32.2562,-21.8201 28.7576,-31.8206 35.7576,-31.8196"/>
</g>
<!-- Node3 -->
<g id="node5" class="node"><title>Node3</title>
<polygon fill="white" stroke="#bfbfbf" points="53.5,-58.5 53.5,-79.5 104.5,-79.5 104.5,-58.5 53.5,-58.5"/>
<text text-anchor="middle" x="79" y="-66.5" font-family="Helvetica,sans-Serif" font-size="10.00">string.h</text>
</g>
<!-- Node1&#45;&gt;Node3 -->
<g id="edge4" class="edge"><title>Node1&#45;&gt;Node3</title>
<path fill="none" stroke="midnightblue" d="M114.113,-116.362C108.173,-108.35 99.8776,-97.1605 92.8412,-87.6696"/>
<polygon fill="midnightblue" stroke="midnightblue" points="95.6041,-85.5193 86.8369,-79.5707 89.9809,-89.6883 95.6041,-85.5193"/>
</g>
<!-- Node4 -->
<g id="node7" class="node"><title>Node4</title>
<a xlink:href="KeywordMap_8h.htm" target="_top" xlink:title="KeywordMap.h">
<polygon fill="white" stroke="black" points="121.5,-58.5 121.5,-79.5 208.5,-79.5 208.5,-58.5 121.5,-58.5"/>
<text text-anchor="middle" x="165" y="-66.5" font-family="Helvetica,sans-Serif" font-size="10.00">KeywordMap.h</text>
</a>
</g>
<!-- Node1&#45;&gt;Node4 -->
<g id="edge6" class="edge"><title>Node1&#45;&gt;Node4</title>
<path fill="none" stroke="midnightblue" d="M129.887,-116.362C135.827,-108.35 144.122,-97.1605 151.159,-87.6696"/>
<polygon fill="midnightblue" stroke="midnightblue" points="154.019,-89.6883 157.163,-79.5707 148.396,-85.5193 154.019,-89.6883"/>
</g>
<!-- Node8 -->
<g id="node16" class="node"><title>Node8</title>
<polygon fill="white" stroke="#bfbfbf" points="226,-58.5 226,-79.5 298,-79.5 298,-58.5 226,-58.5"/>
<text text-anchor="middle" x="262" y="-66.5" font-family="Helvetica,sans-Serif" font-size="10.00">cjson/json.h</text>
</g>
<!-- Node1&#45;&gt;Node8 -->
<g id="edge16" class="edge"><title>Node1&#45;&gt;Node8</title>
<path fill="none" stroke="midnightblue" d="M147.353,-116.497C169.613,-107.275 202.212,-93.7695 226.963,-83.5153"/>
<polygon fill="midnightblue" stroke="midnightblue" points="228.464,-86.6822 236.363,-79.6212 225.784,-80.2152 228.464,-86.6822"/>
</g>
<!-- Node4&#45;&gt;Node2 -->
<g id="edge8" class="edge"><title>Node4&#45;&gt;Node2</title>
<path fill="none" stroke="midnightblue" d="M141.096,-58.4966C120.2,-49.3154 89.6437,-35.8889 66.345,-25.6516"/>
<polygon fill="midnightblue" stroke="midnightblue" points="67.7356,-22.4397 57.1724,-21.6212 64.9197,-28.8483 67.7356,-22.4397"/>
</g>
<!-- Node5 -->
<g id="node10" class="node"><title>Node5</title>
<polygon fill="white" stroke="#bfbfbf" points="90.5,-0.5 90.5,-21.5 133.5,-21.5 133.5,-0.5 90.5,-0.5"/>
<text text-anchor="middle" x="112" y="-8.5" font-family="Helvetica,sans-Serif" font-size="10.00">string</text>
</g>
<!-- Node4&#45;&gt;Node5 -->
<g id="edge10" class="edge"><title>Node4&#45;&gt;Node5</title>
<path fill="none" stroke="midnightblue" d="M155.279,-58.3619C147.808,-50.1861 137.314,-38.7025 128.531,-29.0907"/>
<polygon fill="midnightblue" stroke="midnightblue" points="130.989,-26.5918 121.659,-21.5707 125.821,-31.3138 130.989,-26.5918"/>
</g>
<!-- Node6 -->
<g id="node12" class="node"><title>Node6</title>
<polygon fill="white" stroke="#bfbfbf" points="150.5,-0.5 150.5,-21.5 179.5,-21.5 179.5,-0.5 150.5,-0.5"/>
<text text-anchor="middle" x="165" y="-8.5" font-family="Helvetica,sans-Serif" font-size="10.00">list</text>
</g>
<!-- Node4&#45;&gt;Node6 -->
<g id="edge12" class="edge"><title>Node4&#45;&gt;Node6</title>
<path fill="none" stroke="midnightblue" d="M165,-58.3619C165,-50.9219 165,-40.7427 165,-31.7276"/>
<polygon fill="midnightblue" stroke="midnightblue" points="168.5,-31.5706 165,-21.5707 161.5,-31.5707 168.5,-31.5706"/>
</g>
<!-- Node7 -->
<g id="node14" class="node"><title>Node7</title>
<polygon fill="white" stroke="#bfbfbf" points="196.5,-0.5 196.5,-21.5 237.5,-21.5 237.5,-0.5 196.5,-0.5"/>
<text text-anchor="middle" x="217" y="-8.5" font-family="Helvetica,sans-Serif" font-size="10.00">glib.h</text>
</g>
<!-- Node4&#45;&gt;Node7 -->
<g id="edge14" class="edge"><title>Node4&#45;&gt;Node7</title>
<path fill="none" stroke="midnightblue" d="M174.538,-58.3619C181.868,-50.1861 192.163,-38.7025 200.781,-29.0907"/>
<polygon fill="midnightblue" stroke="midnightblue" points="203.453,-31.3528 207.523,-21.5707 198.241,-26.68 203.453,-31.3528"/>
</g>
</g>
</svg>
