<?xml version="1.0" encoding="UTF-8" standalone="no"?>
<!DOCTYPE svg PUBLIC "-//W3C//DTD SVG 1.1//EN"
 "http://www.w3.org/Graphics/SVG/1.1/DTD/svg11.dtd">
<!-- Generated by graphviz version 2.26.3 (20100126.1600)
 -->
<!-- Title: Main.cpp Pages: 1 -->
<svg width="3432pt" height="204pt"
 viewBox="0.00 0.00 3432.00 204.00" xmlns="http://www.w3.org/2000/svg" xmlns:xlink="http://www.w3.org/1999/xlink">
<g id="graph1" class="graph" transform="scale(1 1) rotate(0) translate(4 200)">
<title>Main.cpp</title>
<polygon fill="white" stroke="white" points="-4,5 -4,-200 3429,-200 3429,5 -4,5"/>
<!-- Node1 -->
<g id="node1" class="node"><title>Node1</title>
<polygon fill="#bfbfbf" stroke="black" points="2472.5,-174.5 2472.5,-195.5 2531.5,-195.5 2531.5,-174.5 2472.5,-174.5"/>
<text text-anchor="middle" x="2502" y="-182.5" font-family="Helvetica,sans-Serif" font-size="10.00">Main.cpp</text>
</g>
<!-- Node2 -->
<g id="node3" class="node"><title>Node2</title>
<polygon fill="white" stroke="#bfbfbf" points="1383.5,-0.5 1383.5,-21.5 1450.5,-21.5 1450.5,-0.5 1383.5,-0.5"/>
<text text-anchor="middle" x="1417" y="-8.5" font-family="Helvetica,sans-Serif" font-size="10.00">Common.h</text>
</g>
<!-- Node1&#45;&gt;Node2 -->
<g id="edge2" class="edge"><title>Node1&#45;&gt;Node2</title>
<path fill="none" stroke="midnightblue" d="M2472.16,-184.115C2329.89,-179.79 1725.93,-160.176 1693,-138 1660.35,-116.012 1686.08,-82.1587 1655,-58 1589.56,-7.12541 1553.31,-38.1283 1472,-22 1468.35,-21.2753 1464.56,-20.5216 1460.75,-19.7637"/>
<polygon fill="midnightblue" stroke="midnightblue" points="1461.23,-16.2896 1450.74,-17.7649 1459.86,-23.1543 1461.23,-16.2896"/>
</g>
<!-- Node3 -->
<g id="node5" class="node"><title>Node3</title>
<polygon fill="white" stroke="#bfbfbf" points="-0.5,-58.5 -0.5,-79.5 70.5,-79.5 70.5,-58.5 -0.5,-58.5"/>
<text text-anchor="middle" x="35" y="-66.5" font-family="Helvetica,sans-Serif" font-size="10.00">HostBase.h</text>
</g>
<!-- Node1&#45;&gt;Node3 -->
<g id="edge4" class="edge"><title>Node1&#45;&gt;Node3</title>
<path fill="none" stroke="midnightblue" d="M2472.31,-184.551C2265.94,-181.384 1042.48,-161.833 671,-138 419.528,-121.866 356.958,-111.927 107,-80 98.5255,-78.9176 89.5093,-77.6403 80.8274,-76.3465"/>
<polygon fill="midnightblue" stroke="midnightblue" points="81.2538,-72.8712 70.8418,-74.8306 80.2032,-79.7919 81.2538,-72.8712"/>
</g>
<!-- Node4 -->
<g id="node7" class="node"><title>Node4</title>
<a xlink:href="ApplicationDescription_8h.htm" target="_top" xlink:title="ApplicationDescription.h">
<polygon fill="white" stroke="black" points="1702,-116.5 1702,-137.5 1832,-137.5 1832,-116.5 1702,-116.5"/>
<text text-anchor="middle" x="1767" y="-124.5" font-family="Helvetica,sans-Serif" font-size="10.00">ApplicationDescription.h</text>
</a>
</g>
<!-- Node1&#45;&gt;Node4 -->
<g id="edge6" class="edge"><title>Node1&#45;&gt;Node4</title>
<path fill="none" stroke="midnightblue" d="M2472.28,-183.7C2380.27,-179.501 2091.76,-165.05 1842.31,-138.077"/>
<polygon fill="midnightblue" stroke="midnightblue" points="1842.66,-134.594 1832.33,-136.989 1841.9,-141.553 1842.66,-134.594"/>
</g>
<!-- Node6 -->
<g id="node11" class="node"><title>Node6</title>
<polygon fill="white" stroke="#bfbfbf" points="1849.5,-116.5 1849.5,-137.5 1930.5,-137.5 1930.5,-116.5 1849.5,-116.5"/>
<text text-anchor="middle" x="1890" y="-124.5" font-family="Helvetica,sans-Serif" font-size="10.00">Localization.h</text>
</g>
<!-- Node1&#45;&gt;Node6 -->
<g id="edge10" class="edge"><title>Node1&#45;&gt;Node6</title>
<path fill="none" stroke="midnightblue" d="M2472.23,-183.957C2389.38,-180.751 2149.05,-169.377 1940.47,-138.063"/>
<polygon fill="midnightblue" stroke="midnightblue" points="1940.97,-134.6 1930.56,-136.557 1939.92,-141.52 1940.97,-134.6"/>
</g>
<!-- Node7 -->
<g id="node13" class="node"><title>Node7</title>
<a xlink:href="WebAppManager_8h.htm" target="_top" xlink:title="WebAppManager.h">
<polygon fill="white" stroke="black" points="679.5,-116.5 679.5,-137.5 786.5,-137.5 786.5,-116.5 679.5,-116.5"/>
<text text-anchor="middle" x="733" y="-124.5" font-family="Helvetica,sans-Serif" font-size="10.00">WebAppManager.h</text>
</a>
</g>
<!-- Node1&#45;&gt;Node7 -->
<g id="edge12" class="edge"><title>Node1&#45;&gt;Node7</title>
<path fill="none" stroke="midnightblue" d="M2472.41,-184.03C2269.76,-177.386 1086.37,-138.586 796.885,-129.095"/>
<polygon fill="midnightblue" stroke="midnightblue" points="796.675,-125.586 786.565,-128.756 796.445,-132.582 796.675,-125.586"/>
</g>
<!-- Node12 -->
<g id="node24" class="node"><title>Node12</title>
<polygon fill="white" stroke="#bfbfbf" points="1569.5,-58.5 1569.5,-79.5 1646.5,-79.5 1646.5,-58.5 1569.5,-58.5"/>
<text text-anchor="middle" x="1608" y="-66.5" font-family="Helvetica,sans-Serif" font-size="10.00">QApplication</text>
</g>
<!-- Node1&#45;&gt;Node12 -->
<g id="edge106" class="edge"><title>Node1&#45;&gt;Node12</title>
<path fill="none" stroke="midnightblue" d="M2472.09,-184.813C2330.67,-183.73 1732.81,-176.871 1660,-138 1640.06,-127.353 1625.57,-105.326 1617.03,-89.009"/>
<polygon fill="midnightblue" stroke="midnightblue" points="1620.03,-87.1778 1612.49,-79.7403 1613.75,-90.2599 1620.03,-87.1778"/>
</g>
<!-- Node28 -->
<g id="node63" class="node"><title>Node28</title>
<polygon fill="white" stroke="#bfbfbf" points="1947.5,-116.5 1947.5,-137.5 2010.5,-137.5 2010.5,-116.5 1947.5,-116.5"/>
<text text-anchor="middle" x="1979" y="-124.5" font-family="Helvetica,sans-Serif" font-size="10.00">Settings.h</text>
</g>
<!-- Node1&#45;&gt;Node28 -->
<g id="edge70" class="edge"><title>Node1&#45;&gt;Node28</title>
<path fill="none" stroke="midnightblue" d="M2472.35,-183.883C2397.8,-180.701 2196.5,-169.792 2020.7,-138.084"/>
<polygon fill="midnightblue" stroke="midnightblue" points="2021.23,-134.622 2010.76,-136.263 2019.97,-141.507 2021.23,-134.622"/>
</g>
<!-- Node29 -->
<g id="node65" class="node"><title>Node29</title>
<polygon fill="white" stroke="#bfbfbf" points="2027.5,-116.5 2027.5,-137.5 2090.5,-137.5 2090.5,-116.5 2027.5,-116.5"/>
<text text-anchor="middle" x="2059" y="-124.5" font-family="Helvetica,sans-Serif" font-size="10.00">Logging.h</text>
</g>
<!-- Node1&#45;&gt;Node29 -->
<g id="edge72" class="edge"><title>Node1&#45;&gt;Node29</title>
<path fill="none" stroke="midnightblue" d="M2472.44,-183.101C2406.98,-178.566 2244.79,-165.519 2100.68,-138.119"/>
<polygon fill="midnightblue" stroke="midnightblue" points="2101.26,-134.666 2090.77,-136.207 2099.93,-141.539 2101.26,-134.666"/>
</g>
<!-- Node30 -->
<g id="node67" class="node"><title>Node30</title>
<polygon fill="white" stroke="#bfbfbf" points="2107.5,-116.5 2107.5,-137.5 2170.5,-137.5 2170.5,-116.5 2107.5,-116.5"/>
<text text-anchor="middle" x="2139" y="-124.5" font-family="Helvetica,sans-Serif" font-size="10.00">sys/time.h</text>
</g>
<!-- Node1&#45;&gt;Node30 -->
<g id="edge74" class="edge"><title>Node1&#45;&gt;Node30</title>
<path fill="none" stroke="midnightblue" d="M2472.39,-181.935C2416.89,-175.922 2293.31,-161.278 2180.61,-138.167"/>
<polygon fill="midnightblue" stroke="midnightblue" points="2181.29,-134.733 2170.79,-136.124 2179.87,-141.587 2181.29,-134.733"/>
</g>
<!-- Node31 -->
<g id="node69" class="node"><title>Node31</title>
<polygon fill="white" stroke="#bfbfbf" points="2187.5,-116.5 2187.5,-137.5 2272.5,-137.5 2272.5,-116.5 2187.5,-116.5"/>
<text text-anchor="middle" x="2230" y="-124.5" font-family="Helvetica,sans-Serif" font-size="10.00">sys/resource.h</text>
</g>
<!-- Node1&#45;&gt;Node31 -->
<g id="edge76" class="edge"><title>Node1&#45;&gt;Node31</title>
<path fill="none" stroke="midnightblue" d="M2472.32,-178.717C2431.72,-170.115 2356.31,-154.115 2282.5,-138.318"/>
<polygon fill="midnightblue" stroke="midnightblue" points="2283.09,-134.864 2272.57,-136.192 2281.62,-141.709 2283.09,-134.864"/>
</g>
<!-- Node32 -->
<g id="node71" class="node"><title>Node32</title>
<polygon fill="white" stroke="#bfbfbf" points="2289.5,-116.5 2289.5,-137.5 2330.5,-137.5 2330.5,-116.5 2289.5,-116.5"/>
<text text-anchor="middle" x="2310" y="-124.5" font-family="Helvetica,sans-Serif" font-size="10.00">glib.h</text>
</g>
<!-- Node1&#45;&gt;Node32 -->
<g id="edge78" class="edge"><title>Node1&#45;&gt;Node32</title>
<path fill="none" stroke="midnightblue" d="M2472.33,-177.229C2441.41,-168.961 2391.4,-155.108 2340.11,-138.211"/>
<polygon fill="midnightblue" stroke="midnightblue" points="2341.11,-134.857 2330.52,-135.021 2338.9,-141.499 2341.11,-134.857"/>
</g>
<!-- Node33 -->
<g id="node73" class="node"><title>Node33</title>
<polygon fill="white" stroke="#bfbfbf" points="2347.5,-116.5 2347.5,-137.5 2408.5,-137.5 2408.5,-116.5 2347.5,-116.5"/>
<text text-anchor="middle" x="2378" y="-124.5" font-family="Helvetica,sans-Serif" font-size="10.00">sys/stat.h</text>
</g>
<!-- Node1&#45;&gt;Node33 -->
<g id="edge80" class="edge"><title>Node1&#45;&gt;Node33</title>
<path fill="none" stroke="midnightblue" d="M2479.54,-174.497C2460.09,-165.397 2431.72,-152.127 2409.91,-141.925"/>
<polygon fill="midnightblue" stroke="midnightblue" points="2411.25,-138.688 2400.71,-137.621 2408.28,-145.028 2411.25,-138.688"/>
</g>
<!-- Node34 -->
<g id="node75" class="node"><title>Node34</title>
<polygon fill="white" stroke="#bfbfbf" points="2425.5,-116.5 2425.5,-137.5 2494.5,-137.5 2494.5,-116.5 2425.5,-116.5"/>
<text text-anchor="middle" x="2460" y="-124.5" font-family="Helvetica,sans-Serif" font-size="10.00">sys/types.h</text>
</g>
<!-- Node1&#45;&gt;Node34 -->
<g id="edge82" class="edge"><title>Node1&#45;&gt;Node34</title>
<path fill="none" stroke="midnightblue" d="M2494.3,-174.362C2488.55,-166.431 2480.56,-155.389 2473.73,-145.961"/>
<polygon fill="midnightblue" stroke="midnightblue" points="2476.35,-143.617 2467.65,-137.571 2470.68,-147.723 2476.35,-143.617"/>
</g>
<!-- Node35 -->
<g id="node77" class="node"><title>Node35</title>
<polygon fill="white" stroke="#bfbfbf" points="2512,-116.5 2512,-137.5 2576,-137.5 2576,-116.5 2512,-116.5"/>
<text text-anchor="middle" x="2544" y="-124.5" font-family="Helvetica,sans-Serif" font-size="10.00">sys/prctl.h</text>
</g>
<!-- Node1&#45;&gt;Node35 -->
<g id="edge84" class="edge"><title>Node1&#45;&gt;Node35</title>
<path fill="none" stroke="midnightblue" d="M2509.7,-174.362C2515.45,-166.431 2523.44,-155.389 2530.27,-145.961"/>
<polygon fill="midnightblue" stroke="midnightblue" points="2533.32,-147.723 2536.35,-137.571 2527.65,-143.617 2533.32,-147.723"/>
</g>
<!-- Node36 -->
<g id="node79" class="node"><title>Node36</title>
<polygon fill="white" stroke="#bfbfbf" points="2593.5,-116.5 2593.5,-137.5 2646.5,-137.5 2646.5,-116.5 2593.5,-116.5"/>
<text text-anchor="middle" x="2620" y="-124.5" font-family="Helvetica,sans-Serif" font-size="10.00">unistd.h</text>
</g>
<!-- Node1&#45;&gt;Node36 -->
<g id="edge86" class="edge"><title>Node1&#45;&gt;Node36</title>
<path fill="none" stroke="midnightblue" d="M2523.37,-174.497C2541.8,-165.438 2568.64,-152.246 2589.36,-142.063"/>
<polygon fill="midnightblue" stroke="midnightblue" points="2590.96,-145.174 2598.39,-137.621 2587.87,-138.891 2590.96,-145.174"/>
</g>
<!-- Node37 -->
<g id="node81" class="node"><title>Node37</title>
<polygon fill="white" stroke="#bfbfbf" points="2663.5,-116.5 2663.5,-137.5 2712.5,-137.5 2712.5,-116.5 2663.5,-116.5"/>
<text text-anchor="middle" x="2688" y="-124.5" font-family="Helvetica,sans-Serif" font-size="10.00">stdlib.h</text>
</g>
<!-- Node1&#45;&gt;Node37 -->
<g id="edge88" class="edge"><title>Node1&#45;&gt;Node37</title>
<path fill="none" stroke="midnightblue" d="M2531.68,-176.11C2560.57,-167.408 2605.93,-153.611 2653.33,-138.494"/>
<polygon fill="midnightblue" stroke="midnightblue" points="2654.7,-141.733 2663.15,-135.352 2652.56,-135.065 2654.7,-141.733"/>
</g>
<!-- Node38 -->
<g id="node83" class="node"><title>Node38</title>
<polygon fill="white" stroke="#bfbfbf" points="2730,-116.5 2730,-137.5 2774,-137.5 2774,-116.5 2730,-116.5"/>
<text text-anchor="middle" x="2752" y="-124.5" font-family="Helvetica,sans-Serif" font-size="10.00">fcntl.h</text>
</g>
<!-- Node1&#45;&gt;Node38 -->
<g id="edge90" class="edge"><title>Node1&#45;&gt;Node38</title>
<path fill="none" stroke="midnightblue" d="M2531.7,-179.89C2572.27,-172.637 2647.4,-158.236 2720,-138.036"/>
<polygon fill="midnightblue" stroke="midnightblue" points="2721.09,-141.366 2729.76,-135.28 2719.19,-134.629 2721.09,-141.366"/>
</g>
<!-- Node39 -->
<g id="node85" class="node"><title>Node39</title>
<polygon fill="white" stroke="#bfbfbf" points="2792,-116.5 2792,-137.5 2836,-137.5 2836,-116.5 2792,-116.5"/>
<text text-anchor="middle" x="2814" y="-124.5" font-family="Helvetica,sans-Serif" font-size="10.00">time.h</text>
</g>
<!-- Node1&#45;&gt;Node39 -->
<g id="edge92" class="edge"><title>Node1&#45;&gt;Node39</title>
<path fill="none" stroke="midnightblue" d="M2531.89,-181.747C2581.91,-175.929 2685.78,-162.256 2781.92,-137.947"/>
<polygon fill="midnightblue" stroke="midnightblue" points="2782.98,-141.288 2791.79,-135.405 2781.24,-134.509 2782.98,-141.288"/>
</g>
<!-- Node40 -->
<g id="node87" class="node"><title>Node40</title>
<polygon fill="white" stroke="#bfbfbf" points="2854,-116.5 2854,-137.5 2916,-137.5 2916,-116.5 2854,-116.5"/>
<text text-anchor="middle" x="2885" y="-124.5" font-family="Helvetica,sans-Serif" font-size="10.00">pthread.h</text>
</g>
<!-- Node1&#45;&gt;Node40 -->
<g id="edge94" class="edge"><title>Node1&#45;&gt;Node40</title>
<path fill="none" stroke="midnightblue" d="M2531.59,-182.277C2589.64,-176.649 2722.65,-162.356 2843.49,-138.111"/>
<polygon fill="midnightblue" stroke="midnightblue" points="2844.55,-141.467 2853.65,-136.042 2843.15,-134.607 2844.55,-141.467"/>
</g>
<!-- Node41 -->
<g id="node89" class="node"><title>Node41</title>
<polygon fill="white" stroke="#bfbfbf" points="2933.5,-116.5 2933.5,-137.5 2986.5,-137.5 2986.5,-116.5 2933.5,-116.5"/>
<text text-anchor="middle" x="2960" y="-124.5" font-family="Helvetica,sans-Serif" font-size="10.00">signal.h</text>
</g>
<!-- Node1&#45;&gt;Node41 -->
<g id="edge96" class="edge"><title>Node1&#45;&gt;Node41</title>
<path fill="none" stroke="midnightblue" d="M2531.54,-183.689C2599.41,-180.259 2771.69,-169.176 2923.43,-138.029"/>
<polygon fill="midnightblue" stroke="midnightblue" points="2924.32,-141.419 2933.39,-135.949 2922.88,-134.567 2924.32,-141.419"/>
</g>
<!-- Node42 -->
<g id="node91" class="node"><title>Node42</title>
<polygon fill="white" stroke="#bfbfbf" points="3003.5,-116.5 3003.5,-137.5 3058.5,-137.5 3058.5,-116.5 3003.5,-116.5"/>
<text text-anchor="middle" x="3031" y="-124.5" font-family="Helvetica,sans-Serif" font-size="10.00">stdarg.h</text>
</g>
<!-- Node1&#45;&gt;Node42 -->
<g id="edge98" class="edge"><title>Node1&#45;&gt;Node42</title>
<path fill="none" stroke="midnightblue" d="M2531.75,-184.248C2607.55,-181.891 2814.05,-172.714 2993.36,-138.03"/>
<polygon fill="midnightblue" stroke="midnightblue" points="2994.1,-141.453 3003.23,-136.089 2992.75,-134.585 2994.1,-141.453"/>
</g>
<!-- Node43 -->
<g id="node93" class="node"><title>Node43</title>
<polygon fill="white" stroke="#bfbfbf" points="3075.5,-116.5 3075.5,-137.5 3130.5,-137.5 3130.5,-116.5 3075.5,-116.5"/>
<text text-anchor="middle" x="3103" y="-124.5" font-family="Helvetica,sans-Serif" font-size="10.00">syslog.h</text>
</g>
<!-- Node1&#45;&gt;Node43 -->
<g id="edge100" class="edge"><title>Node1&#45;&gt;Node43</title>
<path fill="none" stroke="midnightblue" d="M2531.78,-183.365C2630.05,-177.842 2944.23,-159.131 3065.17,-137.979"/>
<polygon fill="midnightblue" stroke="midnightblue" points="3066.04,-141.377 3075.24,-136.123 3064.77,-134.493 3066.04,-141.377"/>
</g>
<!-- Node44 -->
<g id="node95" class="node"><title>Node44</title>
<polygon fill="white" stroke="#bfbfbf" points="3147.5,-116.5 3147.5,-137.5 3212.5,-137.5 3212.5,-116.5 3147.5,-116.5"/>
<text text-anchor="middle" x="3180" y="-124.5" font-family="Helvetica,sans-Serif" font-size="10.00">ucontext.h</text>
</g>
<!-- Node1&#45;&gt;Node44 -->
<g id="edge102" class="edge"><title>Node1&#45;&gt;Node44</title>
<path fill="none" stroke="midnightblue" d="M2531.69,-183.554C2638.06,-178.262 3000.63,-159.222 3137.24,-137.99"/>
<polygon fill="midnightblue" stroke="midnightblue" points="3138.14,-141.39 3147.45,-136.327 3137.02,-134.481 3138.14,-141.39"/>
</g>
<!-- Node45 -->
<g id="node97" class="node"><title>Node45</title>
<polygon fill="white" stroke="#bfbfbf" points="3229.5,-116.5 3229.5,-137.5 3286.5,-137.5 3286.5,-116.5 3229.5,-116.5"/>
<text text-anchor="middle" x="3258" y="-124.5" font-family="Helvetica,sans-Serif" font-size="10.00">sys/file.h</text>
</g>
<!-- Node1&#45;&gt;Node45 -->
<g id="edge104" class="edge"><title>Node1&#45;&gt;Node45</title>
<path fill="none" stroke="midnightblue" d="M2531.81,-183.941C2647.28,-179.706 3065.85,-163.072 3219.32,-137.917"/>
<polygon fill="midnightblue" stroke="midnightblue" points="3220.21,-141.315 3229.47,-136.169 3219.02,-134.416 3220.21,-141.315"/>
</g>
<!-- Node46 -->
<g id="node100" class="node"><title>Node46</title>
<polygon fill="white" stroke="#bfbfbf" points="3304,-116.5 3304,-137.5 3348,-137.5 3348,-116.5 3304,-116.5"/>
<text text-anchor="middle" x="3326" y="-124.5" font-family="Helvetica,sans-Serif" font-size="10.00">QtGui</text>
</g>
<!-- Node1&#45;&gt;Node46 -->
<g id="edge108" class="edge"><title>Node1&#45;&gt;Node46</title>
<path fill="none" stroke="midnightblue" d="M2531.88,-184.353C2655.19,-181.514 3125.44,-168.977 3293.92,-137.642"/>
<polygon fill="midnightblue" stroke="midnightblue" points="3294.72,-141.052 3303.86,-135.698 3293.38,-134.183 3294.72,-141.052"/>
</g>
<!-- Node47 -->
<g id="node102" class="node"><title>Node47</title>
<polygon fill="white" stroke="#bfbfbf" points="3366,-116.5 3366,-137.5 3424,-137.5 3424,-116.5 3366,-116.5"/>
<text text-anchor="middle" x="3395" y="-124.5" font-family="Helvetica,sans-Serif" font-size="10.00">QtGlobal</text>
</g>
<!-- Node1&#45;&gt;Node47 -->
<g id="edge110" class="edge"><title>Node1&#45;&gt;Node47</title>
<path fill="none" stroke="midnightblue" d="M2531.92,-184.266C2661.28,-180.954 3173.71,-166.39 3355.73,-137.831"/>
<polygon fill="midnightblue" stroke="midnightblue" points="3356.39,-141.269 3365.69,-136.196 3355.26,-134.361 3356.39,-141.269"/>
</g>
<!-- Node5 -->
<g id="node9" class="node"><title>Node5</title>
<polygon fill="white" stroke="#bfbfbf" points="1702,-58.5 1702,-79.5 1856,-79.5 1856,-58.5 1702,-58.5"/>
<text text-anchor="middle" x="1779" y="-66.5" font-family="Helvetica,sans-Serif" font-size="10.00">ApplicationDescriptionBase.h</text>
</g>
<!-- Node4&#45;&gt;Node5 -->
<g id="edge8" class="edge"><title>Node4&#45;&gt;Node5</title>
<path fill="none" stroke="midnightblue" d="M1769.2,-116.362C1770.76,-108.84 1772.89,-98.5187 1774.77,-89.4308"/>
<polygon fill="midnightblue" stroke="midnightblue" points="1778.21,-90.0724 1776.81,-79.5707 1771.36,-88.6541 1778.21,-90.0724"/>
</g>
<!-- Node7&#45;&gt;Node2 -->
<g id="edge14" class="edge"><title>Node7&#45;&gt;Node2</title>
<path fill="none" stroke="midnightblue" d="M786.758,-126.455C913.08,-124.578 1225.5,-116.295 1323,-80 1338.81,-74.1135 1373.89,-46.6345 1396.44,-28.1806"/>
<polygon fill="midnightblue" stroke="midnightblue" points="1398.91,-30.6767 1404.4,-21.6137 1394.46,-25.2766 1398.91,-30.6767"/>
</g>
<!-- Node7&#45;&gt;Node3 -->
<g id="edge58" class="edge"><title>Node7&#45;&gt;Node3</title>
<path fill="none" stroke="midnightblue" d="M679.284,-125.805C567.783,-122.734 303.324,-112.376 84,-80 82.9219,-79.8408 81.8322,-79.671 80.7346,-79.4919"/>
<polygon fill="midnightblue" stroke="midnightblue" points="81.211,-76.0211 70.745,-77.6684 79.954,-82.9073 81.211,-76.0211"/>
</g>
<!-- Node8 -->
<g id="node16" class="node"><title>Node8</title>
<polygon fill="white" stroke="#bfbfbf" points="55.5,-0.5 55.5,-21.5 92.5,-21.5 92.5,-0.5 55.5,-0.5"/>
<text text-anchor="middle" x="74" y="-8.5" font-family="Helvetica,sans-Serif" font-size="10.00">map</text>
</g>
<!-- Node7&#45;&gt;Node8 -->
<g id="edge16" class="edge"><title>Node7&#45;&gt;Node8</title>
<path fill="none" stroke="midnightblue" d="M679.471,-124.933C542.748,-119.346 188.044,-102.815 140,-80 117.005,-69.0801 97.849,-46.433 86.2003,-30.0572"/>
<polygon fill="midnightblue" stroke="midnightblue" points="89.0449,-28.0161 80.5245,-21.719 83.2583,-31.955 89.0449,-28.0161"/>
</g>
<!-- Node9 -->
<g id="node18" class="node"><title>Node9</title>
<polygon fill="white" stroke="#bfbfbf" points="321.5,-58.5 321.5,-79.5 350.5,-79.5 350.5,-58.5 321.5,-58.5"/>
<text text-anchor="middle" x="336" y="-66.5" font-family="Helvetica,sans-Serif" font-size="10.00">list</text>
</g>
<!-- Node7&#45;&gt;Node9 -->
<g id="edge18" class="edge"><title>Node7&#45;&gt;Node9</title>
<path fill="none" stroke="midnightblue" d="M679.287,-122.386C594.651,-114.774 433.151,-98.7821 360.469,-79.654"/>
<polygon fill="midnightblue" stroke="midnightblue" points="361.394,-76.2785 350.82,-76.9347 359.495,-83.0161 361.394,-76.2785"/>
</g>
<!-- Node10 -->
<g id="node20" class="node"><title>Node10</title>
<polygon fill="white" stroke="#bfbfbf" points="367.5,-58.5 367.5,-79.5 410.5,-79.5 410.5,-58.5 367.5,-58.5"/>
<text text-anchor="middle" x="389" y="-66.5" font-family="Helvetica,sans-Serif" font-size="10.00">string</text>
</g>
<!-- Node7&#45;&gt;Node10 -->
<g id="edge20" class="edge"><title>Node7&#45;&gt;Node10</title>
<path fill="none" stroke="midnightblue" d="M679.286,-122.307C618.327,-116.24 515.94,-103.807 420.59,-80.059"/>
<polygon fill="midnightblue" stroke="midnightblue" points="421.347,-76.6401 410.793,-77.572 419.625,-83.4249 421.347,-76.6401"/>
</g>
<!-- Node11 -->
<g id="node22" class="node"><title>Node11</title>
<polygon fill="white" stroke="#bfbfbf" points="427.5,-58.5 427.5,-79.5 480.5,-79.5 480.5,-58.5 427.5,-58.5"/>
<text text-anchor="middle" x="454" y="-66.5" font-family="Helvetica,sans-Serif" font-size="10.00">QString</text>
</g>
<!-- Node7&#45;&gt;Node11 -->
<g id="edge22" class="edge"><title>Node7&#45;&gt;Node11</title>
<path fill="none" stroke="midnightblue" d="M679.303,-118.472C631.837,-110.524 560.586,-97.6014 490.537,-80.2087"/>
<polygon fill="midnightblue" stroke="midnightblue" points="491.215,-76.7703 480.663,-77.7249 489.507,-83.5588 491.215,-76.7703"/>
</g>
<!-- Node7&#45;&gt;Node12 -->
<g id="edge24" class="edge"><title>Node7&#45;&gt;Node12</title>
<path fill="none" stroke="midnightblue" d="M786.54,-125.175C941.851,-119.691 1391.61,-102.434 1559.22,-80.0146"/>
<polygon fill="midnightblue" stroke="midnightblue" points="1559.95,-83.4467 1569.37,-78.5997 1558.99,-76.5137 1559.95,-83.4467"/>
</g>
<!-- Node13 -->
<g id="node26" class="node"><title>Node13</title>
<a xlink:href="SyncTask_8h.htm" target="_top" xlink:title="SyncTask.h">
<polygon fill="white" stroke="black" points="1481.5,-58.5 1481.5,-79.5 1552.5,-79.5 1552.5,-58.5 1481.5,-58.5"/>
<text text-anchor="middle" x="1517" y="-66.5" font-family="Helvetica,sans-Serif" font-size="10.00">SyncTask.h</text>
</a>
</g>
<!-- Node7&#45;&gt;Node13 -->
<g id="edge26" class="edge"><title>Node7&#45;&gt;Node13</title>
<path fill="none" stroke="midnightblue" d="M786.543,-124.864C929.969,-118.946 1321.53,-101.447 1470.77,-80.0863"/>
<polygon fill="midnightblue" stroke="midnightblue" points="1471.72,-83.4835 1481.09,-78.5418 1470.68,-76.5606 1471.72,-83.4835"/>
</g>
<!-- Node15 -->
<g id="node31" class="node"><title>Node15</title>
<polygon fill="white" stroke="#bfbfbf" points="498,-58.5 498,-79.5 550,-79.5 550,-58.5 498,-58.5"/>
<text text-anchor="middle" x="524" y="-66.5" font-family="Helvetica,sans-Serif" font-size="10.00">Event.h</text>
</g>
<!-- Node7&#45;&gt;Node15 -->
<g id="edge32" class="edge"><title>Node7&#45;&gt;Node15</title>
<path fill="none" stroke="midnightblue" d="M692.087,-116.451C658.882,-107.777 610.636,-94.9212 560.129,-80.2604"/>
<polygon fill="midnightblue" stroke="midnightblue" points="560.918,-76.845 550.338,-77.4039 558.958,-83.5648 560.918,-76.845"/>
</g>
<!-- Node16 -->
<g id="node33" class="node"><title>Node16</title>
<a xlink:href="MemoryWatcher_8h.htm" target="_top" xlink:title="MemoryWatcher.h">
<polygon fill="white" stroke="black" points="163.5,-58.5 163.5,-79.5 266.5,-79.5 266.5,-58.5 163.5,-58.5"/>
<text text-anchor="middle" x="215" y="-66.5" font-family="Helvetica,sans-Serif" font-size="10.00">MemoryWatcher.h</text>
</a>
</g>
<!-- Node7&#45;&gt;Node16 -->
<g id="edge34" class="edge"><title>Node7&#45;&gt;Node16</title>
<path fill="none" stroke="midnightblue" d="M679.172,-122.543C594.177,-115.251 423.76,-99.6014 280,-80 278.923,-79.8531 277.836,-79.702 276.742,-79.5471"/>
<polygon fill="midnightblue" stroke="midnightblue" points="277.159,-76.0708 266.754,-78.0666 276.133,-82.9952 277.159,-76.0708"/>
</g>
<!-- Node18 -->
<g id="node39" class="node"><title>Node18</title>
<polygon fill="white" stroke="#bfbfbf" points="110,-0.5 110,-21.5 182,-21.5 182,-0.5 110,-0.5"/>
<text text-anchor="middle" x="146" y="-8.5" font-family="Helvetica,sans-Serif" font-size="10.00">SignalSlot.h</text>
</g>
<!-- Node7&#45;&gt;Node18 -->
<g id="edge46" class="edge"><title>Node7&#45;&gt;Node18</title>
<path fill="none" stroke="midnightblue" d="M679.267,-126.407C543.08,-124.382 192.497,-115.719 155,-80 142.33,-67.9311 141.116,-47.4306 142.451,-31.9033"/>
<polygon fill="midnightblue" stroke="midnightblue" points="145.963,-32.0277 143.746,-21.6675 139.018,-31.1492 145.963,-32.0277"/>
</g>
<!-- Node19 -->
<g id="node41" class="node"><title>Node19</title>
<polygon fill="white" stroke="#bfbfbf" points="268,-0.5 268,-21.5 320,-21.5 320,-0.5 268,-0.5"/>
<text text-anchor="middle" x="294" y="-8.5" font-family="Helvetica,sans-Serif" font-size="10.00">Timer.h</text>
</g>
<!-- Node7&#45;&gt;Node19 -->
<g id="edge48" class="edge"><title>Node7&#45;&gt;Node19</title>
<path fill="none" stroke="midnightblue" d="M679.106,-124.312C572.012,-118.494 340.34,-103.347 313,-80 299.238,-68.2483 294.985,-47.5339 293.876,-31.8591"/>
<polygon fill="midnightblue" stroke="midnightblue" points="297.363,-31.4146 293.533,-21.5364 290.367,-31.6472 297.363,-31.4146"/>
</g>
<!-- Node20 -->
<g id="node45" class="node"><title>Node20</title>
<polygon fill="white" stroke="#bfbfbf" points="568,-58.5 568,-79.5 660,-79.5 660,-58.5 568,-58.5"/>
<text text-anchor="middle" x="614" y="-66.5" font-family="Helvetica,sans-Serif" font-size="10.00">WindowTypes.h</text>
</g>
<!-- Node7&#45;&gt;Node20 -->
<g id="edge50" class="edge"><title>Node7&#45;&gt;Node20</title>
<path fill="none" stroke="midnightblue" d="M711.45,-116.497C692.864,-107.438 665.798,-94.2462 644.905,-84.0628"/>
<polygon fill="midnightblue" stroke="midnightblue" points="646.314,-80.8563 635.792,-79.6212 643.247,-87.1487 646.314,-80.8563"/>
</g>
<!-- Node21 -->
<g id="node47" class="node"><title>Node21</title>
<polygon fill="white" stroke="#bfbfbf" points="677.5,-58.5 677.5,-79.5 788.5,-79.5 788.5,-58.5 677.5,-58.5"/>
<text text-anchor="middle" x="733" y="-66.5" font-family="Helvetica,sans-Serif" font-size="10.00">WindowProperties.h</text>
</g>
<!-- Node7&#45;&gt;Node21 -->
<g id="edge52" class="edge"><title>Node7&#45;&gt;Node21</title>
<path fill="none" stroke="midnightblue" d="M733,-116.362C733,-108.922 733,-98.7427 733,-89.7276"/>
<polygon fill="midnightblue" stroke="midnightblue" points="736.5,-89.5706 733,-79.5707 729.5,-89.5707 736.5,-89.5706"/>
</g>
<!-- Node22 -->
<g id="node49" class="node"><title>Node22</title>
<a xlink:href="WebAppCache_8h.htm" target="_top" xlink:title="WebAppCache.h">
<polygon fill="white" stroke="black" points="1369.5,-58.5 1369.5,-79.5 1464.5,-79.5 1464.5,-58.5 1369.5,-58.5"/>
<text text-anchor="middle" x="1417" y="-66.5" font-family="Helvetica,sans-Serif" font-size="10.00">WebAppCache.h</text>
</a>
</g>
<!-- Node7&#45;&gt;Node22 -->
<g id="edge54" class="edge"><title>Node7&#45;&gt;Node22</title>
<path fill="none" stroke="midnightblue" d="M786.523,-124.824C894.538,-120.023 1146.19,-106.759 1356,-80 1357.09,-79.8605 1358.2,-79.7144 1359.31,-79.5627"/>
<polygon fill="midnightblue" stroke="midnightblue" points="1360.07,-82.9881 1369.45,-78.0628 1359.05,-76.0634 1360.07,-82.9881"/>
</g>
<!-- Node23 -->
<g id="node53" class="node"><title>Node23</title>
<polygon fill="white" stroke="#bfbfbf" points="806,-58.5 806,-79.5 884,-79.5 884,-58.5 806,-58.5"/>
<text text-anchor="middle" x="845" y="-66.5" font-family="Helvetica,sans-Serif" font-size="10.00">lunaservice.h</text>
</g>
<!-- Node7&#45;&gt;Node23 -->
<g id="edge60" class="edge"><title>Node7&#45;&gt;Node23</title>
<path fill="none" stroke="midnightblue" d="M753.282,-116.497C770.618,-107.519 795.79,-94.4835 815.38,-84.3387"/>
<polygon fill="midnightblue" stroke="midnightblue" points="817.22,-87.3278 824.49,-79.6212 814.001,-81.1118 817.22,-87.3278"/>
</g>
<!-- Node24 -->
<g id="node55" class="node"><title>Node24</title>
<polygon fill="white" stroke="#bfbfbf" points="902,-58.5 902,-79.5 976,-79.5 976,-58.5 902,-58.5"/>
<text text-anchor="middle" x="939" y="-66.5" font-family="Helvetica,sans-Serif" font-size="10.00">PIpcBuffer.h</text>
</g>
<!-- Node7&#45;&gt;Node24 -->
<g id="edge62" class="edge"><title>Node7&#45;&gt;Node24</title>
<path fill="none" stroke="midnightblue" d="M770.305,-116.497C804.431,-106.888 855.069,-92.6311 891.958,-82.2449"/>
<polygon fill="midnightblue" stroke="midnightblue" points="893.295,-85.5045 901.972,-79.4252 891.398,-78.7664 893.295,-85.5045"/>
</g>
<!-- Node25 -->
<g id="node57" class="node"><title>Node25</title>
<polygon fill="white" stroke="#bfbfbf" points="993.5,-58.5 993.5,-79.5 1066.5,-79.5 1066.5,-58.5 993.5,-58.5"/>
<text text-anchor="middle" x="1030" y="-66.5" font-family="Helvetica,sans-Serif" font-size="10.00">PIpcClient.h</text>
</g>
<!-- Node7&#45;&gt;Node25 -->
<g id="edge64" class="edge"><title>Node7&#45;&gt;Node25</title>
<path fill="none" stroke="midnightblue" d="M786.756,-117.863C835.696,-109.343 910.172,-95.8788 983.354,-80.2841"/>
<polygon fill="midnightblue" stroke="midnightblue" points="984.158,-83.6914 993.201,-78.171 982.689,-76.8472 984.158,-83.6914"/>
</g>
<!-- Node26 -->
<g id="node59" class="node"><title>Node26</title>
<polygon fill="white" stroke="#bfbfbf" points="1084,-58.5 1084,-79.5 1208,-79.5 1208,-58.5 1084,-58.5"/>
<text text-anchor="middle" x="1146" y="-66.5" font-family="Helvetica,sans-Serif" font-size="10.00">PIpcChannelListener.h</text>
</g>
<!-- Node7&#45;&gt;Node26 -->
<g id="edge66" class="edge"><title>Node7&#45;&gt;Node26</title>
<path fill="none" stroke="midnightblue" d="M786.649,-119.916C851.985,-111.225 965.982,-95.8538 1073.61,-80.1864"/>
<polygon fill="midnightblue" stroke="midnightblue" points="1074.28,-83.6258 1083.67,-78.7184 1073.27,-76.6992 1074.28,-83.6258"/>
</g>
<!-- Node27 -->
<g id="node61" class="node"><title>Node27</title>
<polygon fill="white" stroke="#bfbfbf" points="1225.5,-58.5 1225.5,-79.5 1314.5,-79.5 1314.5,-58.5 1225.5,-58.5"/>
<text text-anchor="middle" x="1270" y="-66.5" font-family="Helvetica,sans-Serif" font-size="10.00">PIpcMessage.h</text>
</g>
<!-- Node7&#45;&gt;Node27 -->
<g id="edge68" class="edge"><title>Node7&#45;&gt;Node27</title>
<path fill="none" stroke="midnightblue" d="M786.59,-123.692C874.266,-117.865 1053.98,-104.186 1215.14,-80.1656"/>
<polygon fill="midnightblue" stroke="midnightblue" points="1215.88,-83.595 1225.24,-78.6433 1214.83,-76.6733 1215.88,-83.595"/>
</g>
<!-- Node13&#45;&gt;Node2 -->
<g id="edge28" class="edge"><title>Node13&#45;&gt;Node2</title>
<path fill="none" stroke="midnightblue" d="M1498.66,-58.3619C1483.43,-49.532 1461.56,-36.844 1444.28,-26.8224"/>
<polygon fill="midnightblue" stroke="midnightblue" points="1445.63,-23.5603 1435.23,-21.5707 1442.12,-29.6155 1445.63,-23.5603"/>
</g>
<!-- Node14 -->
<g id="node29" class="node"><title>Node14</title>
<polygon fill="white" stroke="#bfbfbf" points="1481,-0.5 1481,-21.5 1553,-21.5 1553,-0.5 1481,-0.5"/>
<text text-anchor="middle" x="1517" y="-8.5" font-family="Helvetica,sans-Serif" font-size="10.00">TaskBase.h</text>
</g>
<!-- Node13&#45;&gt;Node14 -->
<g id="edge30" class="edge"><title>Node13&#45;&gt;Node14</title>
<path fill="none" stroke="midnightblue" d="M1517,-58.3619C1517,-50.9219 1517,-40.7427 1517,-31.7276"/>
<polygon fill="midnightblue" stroke="midnightblue" points="1520.5,-31.5706 1517,-21.5707 1513.5,-31.5707 1520.5,-31.5706"/>
</g>
<!-- Node16&#45;&gt;Node2 -->
<g id="edge36" class="edge"><title>Node16&#45;&gt;Node2</title>
<path fill="none" stroke="midnightblue" d="M266.56,-62.535C281.519,-60.843 297.893,-59.168 313,-58 724.397,-26.1926 1223.82,-14.6556 1372.94,-11.7804"/>
<polygon fill="midnightblue" stroke="midnightblue" points="1373.14,-15.2774 1383.07,-11.5882 1373.01,-8.27871 1373.14,-15.2774"/>
</g>
<!-- Node16&#45;&gt;Node8 -->
<g id="edge40" class="edge"><title>Node16&#45;&gt;Node8</title>
<path fill="none" stroke="midnightblue" d="M189.466,-58.4966C164.805,-48.3523 127.545,-33.0256 102.064,-22.5441"/>
<polygon fill="midnightblue" stroke="midnightblue" points="103.176,-19.217 92.5964,-18.6496 100.513,-25.6907 103.176,-19.217"/>
</g>
<!-- Node17 -->
<g id="node36" class="node"><title>Node17</title>
<polygon fill="white" stroke="#bfbfbf" points="200,-0.5 200,-21.5 250,-21.5 250,-0.5 200,-0.5"/>
<text text-anchor="middle" x="225" y="-8.5" font-family="Helvetica,sans-Serif" font-size="10.00">stdint.h</text>
</g>
<!-- Node16&#45;&gt;Node17 -->
<g id="edge38" class="edge"><title>Node16&#45;&gt;Node17</title>
<path fill="none" stroke="midnightblue" d="M216.834,-58.3619C218.131,-50.8401 219.911,-40.5187 221.477,-31.4308"/>
<polygon fill="midnightblue" stroke="midnightblue" points="224.927,-32.02 223.177,-21.5707 218.029,-30.8306 224.927,-32.02"/>
</g>
<!-- Node16&#45;&gt;Node18 -->
<g id="edge42" class="edge"><title>Node16&#45;&gt;Node18</title>
<path fill="none" stroke="midnightblue" d="M202.344,-58.3619C192.326,-49.9408 178.133,-38.0105 166.499,-28.2308"/>
<polygon fill="midnightblue" stroke="midnightblue" points="168.482,-25.326 158.575,-21.5707 163.978,-30.6844 168.482,-25.326"/>
</g>
<!-- Node16&#45;&gt;Node19 -->
<g id="edge44" class="edge"><title>Node16&#45;&gt;Node19</title>
<path fill="none" stroke="midnightblue" d="M229.49,-58.3619C241.183,-49.7773 257.843,-37.5459 271.303,-27.6636"/>
<polygon fill="midnightblue" stroke="midnightblue" points="273.613,-30.31 279.602,-21.5707 269.47,-24.6675 273.613,-30.31"/>
</g>
<!-- Node22&#45;&gt;Node2 -->
<g id="edge56" class="edge"><title>Node22&#45;&gt;Node2</title>
<path fill="none" stroke="midnightblue" d="M1417,-58.3619C1417,-50.9219 1417,-40.7427 1417,-31.7276"/>
<polygon fill="midnightblue" stroke="midnightblue" points="1420.5,-31.5706 1417,-21.5707 1413.5,-31.5707 1420.5,-31.5706"/>
</g>
</g>
</svg>
