<?xml version="1.0" encoding="UTF-8" standalone="no"?>
<!DOCTYPE svg PUBLIC "-//W3C//DTD SVG 1.1//EN"
 "http://www.w3.org/Graphics/SVG/1.1/DTD/svg11.dtd">
<!-- Generated by graphviz version 2.26.3 (20100126.1600)
 -->
<!-- Title: MemoryWatcher.cpp Pages: 1 -->
<svg width="2287pt" height="204pt"
 viewBox="0.00 0.00 2287.00 204.00" xmlns="http://www.w3.org/2000/svg" xmlns:xlink="http://www.w3.org/1999/xlink">
<g id="graph1" class="graph" transform="scale(1 1) rotate(0) translate(4 200)">
<title>MemoryWatcher.cpp</title>
<polygon fill="white" stroke="white" points="-4,5 -4,-200 2284,-200 2284,5 -4,5"/>
<!-- Node1 -->
<g id="node1" class="node"><title>Node1</title>
<polygon fill="#bfbfbf" stroke="black" points="1834,-174.5 1834,-195.5 1948,-195.5 1948,-174.5 1834,-174.5"/>
<text text-anchor="middle" x="1891" y="-182.5" font-family="Helvetica,sans-Serif" font-size="10.00">MemoryWatcher.cpp</text>
</g>
<!-- Node2 -->
<g id="node3" class="node"><title>Node2</title>
<polygon fill="white" stroke="#bfbfbf" points="1501.5,-0.5 1501.5,-21.5 1568.5,-21.5 1568.5,-0.5 1501.5,-0.5"/>
<text text-anchor="middle" x="1535" y="-8.5" font-family="Helvetica,sans-Serif" font-size="10.00">Common.h</text>
</g>
<!-- Node1&#45;&gt;Node2 -->
<g id="edge2" class="edge"><title>Node1&#45;&gt;Node2</title>
<path fill="none" stroke="midnightblue" d="M1833.97,-177.131C1783.17,-169.136 1713.61,-155.459 1692,-138 1661.38,-113.26 1682.75,-84.8816 1654,-58 1642.52,-47.2673 1607.37,-34.0396 1578.23,-24.3543"/>
<polygon fill="midnightblue" stroke="midnightblue" points="1579.21,-20.9932 1568.62,-21.2142 1577.04,-27.647 1579.21,-20.9932"/>
</g>
<!-- Node3 -->
<g id="node5" class="node"><title>Node3</title>
<polygon fill="white" stroke="#bfbfbf" points="1700.5,-116.5 1700.5,-137.5 1769.5,-137.5 1769.5,-116.5 1700.5,-116.5"/>
<text text-anchor="middle" x="1735" y="-124.5" font-family="Helvetica,sans-Serif" font-size="10.00">sys/types.h</text>
</g>
<!-- Node1&#45;&gt;Node3 -->
<g id="edge4" class="edge"><title>Node1&#45;&gt;Node3</title>
<path fill="none" stroke="midnightblue" d="M1862.75,-174.497C1837.54,-165.123 1800.42,-151.324 1772.69,-141.012"/>
<polygon fill="midnightblue" stroke="midnightblue" points="1773.9,-137.727 1763.3,-137.523 1771.46,-144.289 1773.9,-137.727"/>
</g>
<!-- Node4 -->
<g id="node7" class="node"><title>Node4</title>
<polygon fill="white" stroke="#bfbfbf" points="1786.5,-116.5 1786.5,-137.5 1847.5,-137.5 1847.5,-116.5 1786.5,-116.5"/>
<text text-anchor="middle" x="1817" y="-124.5" font-family="Helvetica,sans-Serif" font-size="10.00">sys/stat.h</text>
</g>
<!-- Node1&#45;&gt;Node4 -->
<g id="edge6" class="edge"><title>Node1&#45;&gt;Node4</title>
<path fill="none" stroke="midnightblue" d="M1877.43,-174.362C1866.58,-165.859 1851.17,-153.779 1838.62,-143.947"/>
<polygon fill="midnightblue" stroke="midnightblue" points="1840.52,-140.985 1830.49,-137.571 1836.2,-146.494 1840.52,-140.985"/>
</g>
<!-- Node5 -->
<g id="node9" class="node"><title>Node5</title>
<polygon fill="white" stroke="#bfbfbf" points="1864.5,-116.5 1864.5,-137.5 1917.5,-137.5 1917.5,-116.5 1864.5,-116.5"/>
<text text-anchor="middle" x="1891" y="-124.5" font-family="Helvetica,sans-Serif" font-size="10.00">unistd.h</text>
</g>
<!-- Node1&#45;&gt;Node5 -->
<g id="edge8" class="edge"><title>Node1&#45;&gt;Node5</title>
<path fill="none" stroke="midnightblue" d="M1891,-174.362C1891,-166.922 1891,-156.743 1891,-147.728"/>
<polygon fill="midnightblue" stroke="midnightblue" points="1894.5,-147.571 1891,-137.571 1887.5,-147.571 1894.5,-147.571"/>
</g>
<!-- Node6 -->
<g id="node11" class="node"><title>Node6</title>
<polygon fill="white" stroke="#bfbfbf" points="1935,-116.5 1935,-137.5 1987,-137.5 1987,-116.5 1935,-116.5"/>
<text text-anchor="middle" x="1961" y="-124.5" font-family="Helvetica,sans-Serif" font-size="10.00">fstream</text>
</g>
<!-- Node1&#45;&gt;Node6 -->
<g id="edge10" class="edge"><title>Node1&#45;&gt;Node6</title>
<path fill="none" stroke="midnightblue" d="M1903.84,-174.362C1914,-165.941 1928.4,-154.011 1940.2,-144.231"/>
<polygon fill="midnightblue" stroke="midnightblue" points="1942.78,-146.646 1948.24,-137.571 1938.31,-141.256 1942.78,-146.646"/>
</g>
<!-- Node7 -->
<g id="node13" class="node"><title>Node7</title>
<polygon fill="white" stroke="#bfbfbf" points="2005,-116.5 2005,-137.5 2061,-137.5 2061,-116.5 2005,-116.5"/>
<text text-anchor="middle" x="2033" y="-124.5" font-family="Helvetica,sans-Serif" font-size="10.00">strings.h</text>
</g>
<!-- Node1&#45;&gt;Node7 -->
<g id="edge12" class="edge"><title>Node1&#45;&gt;Node7</title>
<path fill="none" stroke="midnightblue" d="M1916.72,-174.497C1939.29,-165.275 1972.36,-151.769 1997.46,-141.515"/>
<polygon fill="midnightblue" stroke="midnightblue" points="1999.06,-144.643 2007,-137.621 1996.42,-138.162 1999.06,-144.643"/>
</g>
<!-- Node8 -->
<g id="node15" class="node"><title>Node8</title>
<polygon fill="white" stroke="#bfbfbf" points="2078.5,-116.5 2078.5,-137.5 2133.5,-137.5 2133.5,-116.5 2078.5,-116.5"/>
<text text-anchor="middle" x="2106" y="-124.5" font-family="Helvetica,sans-Serif" font-size="10.00">malloc.h</text>
</g>
<!-- Node1&#45;&gt;Node8 -->
<g id="edge14" class="edge"><title>Node1&#45;&gt;Node8</title>
<path fill="none" stroke="midnightblue" d="M1933.08,-174.454C1967.24,-165.782 2016.87,-152.926 2068.18,-138.455"/>
<polygon fill="midnightblue" stroke="midnightblue" points="2069.46,-141.732 2078.12,-135.637 2067.55,-134.997 2069.46,-141.732"/>
</g>
<!-- Node9 -->
<g id="node17" class="node"><title>Node9</title>
<a xlink:href="MemoryWatcher_8h.htm" target="_top" xlink:title="MemoryWatcher.h">
<polygon fill="white" stroke="black" points="36.5,-58.5 36.5,-79.5 139.5,-79.5 139.5,-58.5 36.5,-58.5"/>
<text text-anchor="middle" x="88" y="-66.5" font-family="Helvetica,sans-Serif" font-size="10.00">MemoryWatcher.h</text>
</a>
</g>
<!-- Node1&#45;&gt;Node9 -->
<g id="edge16" class="edge"><title>Node1&#45;&gt;Node9</title>
<path fill="none" stroke="midnightblue" d="M1833.87,-183.459C1671.78,-178.888 1195.14,-164.073 800,-138 512.969,-119.061 437.951,-119.157 149.571,-80.1301"/>
<polygon fill="midnightblue" stroke="midnightblue" points="150.042,-76.662 139.662,-78.7851 149.1,-83.5984 150.042,-76.662"/>
</g>
<!-- Node14 -->
<g id="node28" class="node"><title>Node14</title>
<polygon fill="white" stroke="#bfbfbf" points="2150.5,-116.5 2150.5,-137.5 2213.5,-137.5 2213.5,-116.5 2150.5,-116.5"/>
<text text-anchor="middle" x="2182" y="-124.5" font-family="Helvetica,sans-Serif" font-size="10.00">Settings.h</text>
</g>
<!-- Node1&#45;&gt;Node14 -->
<g id="edge28" class="edge"><title>Node1&#45;&gt;Node14</title>
<path fill="none" stroke="midnightblue" d="M1948.1,-175.702C1996.87,-167.446 2069.06,-154.479 2140.16,-138.309"/>
<polygon fill="midnightblue" stroke="midnightblue" points="2141.22,-141.657 2150.18,-136.006 2139.65,-134.834 2141.22,-141.657"/>
</g>
<!-- Node15 -->
<g id="node30" class="node"><title>Node15</title>
<polygon fill="white" stroke="#bfbfbf" points="2231,-116.5 2231,-137.5 2279,-137.5 2279,-116.5 2231,-116.5"/>
<text text-anchor="middle" x="2255" y="-124.5" font-family="Helvetica,sans-Serif" font-size="10.00">Time.h</text>
</g>
<!-- Node1&#45;&gt;Node15 -->
<g id="edge30" class="edge"><title>Node1&#45;&gt;Node15</title>
<path fill="none" stroke="midnightblue" d="M1948.1,-180.056C2012.46,-173.779 2120.23,-161.151 2221.24,-137.848"/>
<polygon fill="midnightblue" stroke="midnightblue" points="2222.06,-141.252 2230.99,-135.56 2220.46,-134.437 2222.06,-141.252"/>
</g>
<!-- Node16 -->
<g id="node32" class="node"><title>Node16</title>
<a xlink:href="WebAppManager_8h.htm" target="_top" xlink:title="WebAppManager.h">
<polygon fill="white" stroke="black" points="808.5,-116.5 808.5,-137.5 915.5,-137.5 915.5,-116.5 808.5,-116.5"/>
<text text-anchor="middle" x="862" y="-124.5" font-family="Helvetica,sans-Serif" font-size="10.00">WebAppManager.h</text>
</a>
</g>
<!-- Node1&#45;&gt;Node16 -->
<g id="edge32" class="edge"><title>Node1&#45;&gt;Node16</title>
<path fill="none" stroke="midnightblue" d="M1833.84,-181.778C1655.94,-171.751 1112.83,-141.138 925.959,-130.605"/>
<polygon fill="midnightblue" stroke="midnightblue" points="925.928,-127.098 915.747,-130.029 925.534,-134.087 925.928,-127.098"/>
</g>
<!-- Node9&#45;&gt;Node2 -->
<g id="edge18" class="edge"><title>Node9&#45;&gt;Node2</title>
<path fill="none" stroke="midnightblue" d="M139.64,-59.0334C142.462,-58.6448 145.262,-58.2957 148,-58 216.235,-50.6297 1262.04,-19.1383 1490.95,-12.3096"/>
<polygon fill="midnightblue" stroke="midnightblue" points="1491.33,-15.7998 1501.23,-12.0033 1491.13,-8.80294 1491.33,-15.7998"/>
</g>
<!-- Node10 -->
<g id="node20" class="node"><title>Node10</title>
<polygon fill="white" stroke="#bfbfbf" points="63,-0.5 63,-21.5 113,-21.5 113,-0.5 63,-0.5"/>
<text text-anchor="middle" x="88" y="-8.5" font-family="Helvetica,sans-Serif" font-size="10.00">stdint.h</text>
</g>
<!-- Node9&#45;&gt;Node10 -->
<g id="edge20" class="edge"><title>Node9&#45;&gt;Node10</title>
<path fill="none" stroke="midnightblue" d="M88,-58.3619C88,-50.9219 88,-40.7427 88,-31.7276"/>
<polygon fill="midnightblue" stroke="midnightblue" points="91.5001,-31.5706 88,-21.5707 84.5001,-31.5707 91.5001,-31.5706"/>
</g>
<!-- Node11 -->
<g id="node22" class="node"><title>Node11</title>
<polygon fill="white" stroke="#bfbfbf" points="-0.5,-0.5 -0.5,-21.5 36.5,-21.5 36.5,-0.5 -0.5,-0.5"/>
<text text-anchor="middle" x="18" y="-8.5" font-family="Helvetica,sans-Serif" font-size="10.00">map</text>
</g>
<!-- Node9&#45;&gt;Node11 -->
<g id="edge22" class="edge"><title>Node9&#45;&gt;Node11</title>
<path fill="none" stroke="midnightblue" d="M75.1609,-58.3619C64.9975,-49.9408 50.5989,-38.0105 38.7958,-28.2308"/>
<polygon fill="midnightblue" stroke="midnightblue" points="40.691,-25.2558 30.7577,-21.5707 36.2248,-30.6459 40.691,-25.2558"/>
</g>
<!-- Node12 -->
<g id="node24" class="node"><title>Node12</title>
<polygon fill="white" stroke="#bfbfbf" points="419,-0.5 419,-21.5 491,-21.5 491,-0.5 419,-0.5"/>
<text text-anchor="middle" x="455" y="-8.5" font-family="Helvetica,sans-Serif" font-size="10.00">SignalSlot.h</text>
</g>
<!-- Node9&#45;&gt;Node12 -->
<g id="edge24" class="edge"><title>Node9&#45;&gt;Node12</title>
<path fill="none" stroke="midnightblue" d="M139.694,-59.4232C142.502,-58.934 145.285,-58.4567 148,-58 240.236,-42.488 348.43,-26.4183 408.606,-17.6688"/>
<polygon fill="midnightblue" stroke="midnightblue" points="409.162,-21.125 418.556,-16.2254 408.157,-14.1975 409.162,-21.125"/>
</g>
<!-- Node13 -->
<g id="node26" class="node"><title>Node13</title>
<polygon fill="white" stroke="#bfbfbf" points="1084,-0.5 1084,-21.5 1136,-21.5 1136,-0.5 1084,-0.5"/>
<text text-anchor="middle" x="1110" y="-8.5" font-family="Helvetica,sans-Serif" font-size="10.00">Timer.h</text>
</g>
<!-- Node9&#45;&gt;Node13 -->
<g id="edge26" class="edge"><title>Node9&#45;&gt;Node13</title>
<path fill="none" stroke="midnightblue" d="M139.645,-59.0829C142.466,-58.6815 145.265,-58.3161 148,-58 332.519,-36.6735 921.303,-16.965 1073.7,-12.1282"/>
<polygon fill="midnightblue" stroke="midnightblue" points="1074.03,-15.6199 1083.91,-11.8059 1073.81,-8.62336 1074.03,-15.6199"/>
</g>
<!-- Node16&#45;&gt;Node2 -->
<g id="edge34" class="edge"><title>Node16&#45;&gt;Node2</title>
<path fill="none" stroke="midnightblue" d="M915.562,-125.086C1069.92,-119.325 1506.11,-101.233 1528,-80 1540.52,-67.8584 1541.11,-47.3675 1539.27,-31.8621"/>
<polygon fill="midnightblue" stroke="midnightblue" points="1542.67,-30.9632 1537.63,-21.6436 1535.76,-32.0717 1542.67,-30.9632"/>
</g>
<!-- Node16&#45;&gt;Node9 -->
<g id="edge54" class="edge"><title>Node16&#45;&gt;Node9</title>
<path fill="none" stroke="midnightblue" d="M808.058,-125.578C690.265,-122.012 401.085,-110.761 149.706,-80.1004"/>
<polygon fill="midnightblue" stroke="midnightblue" points="150.005,-76.6108 139.652,-78.8611 149.149,-83.5582 150.005,-76.6108"/>
</g>
<!-- Node16&#45;&gt;Node11 -->
<g id="edge36" class="edge"><title>Node16&#45;&gt;Node11</title>
<path fill="none" stroke="midnightblue" d="M808.46,-125.832C628.768,-121.672 56.8234,-106.402 28,-80 15.0716,-68.1577 13.5717,-47.6274 14.7065,-32.0314"/>
<polygon fill="midnightblue" stroke="midnightblue" points="18.2241,-32.0726 15.8727,-21.742 11.2687,-31.2841 18.2241,-32.0726"/>
</g>
<!-- Node16&#45;&gt;Node12 -->
<g id="edge56" class="edge"><title>Node16&#45;&gt;Node12</title>
<path fill="none" stroke="midnightblue" d="M915.7,-125.697C1034.62,-122.257 1311.93,-110.968 1340,-80 1346.57,-72.7557 1346.73,-65.0949 1340,-58 1310.9,-27.3158 678.963,-14.6692 501.169,-11.7107"/>
<polygon fill="midnightblue" stroke="midnightblue" points="501.149,-8.21 491.093,-11.5454 501.034,-15.2091 501.149,-8.21"/>
</g>
<!-- Node16&#45;&gt;Node13 -->
<g id="edge58" class="edge"><title>Node16&#45;&gt;Node13</title>
<path fill="none" stroke="midnightblue" d="M915.642,-126.066C1040.56,-123.335 1342.6,-113.32 1373,-80 1379.59,-72.7764 1379.28,-65.4975 1373,-58 1344.51,-23.9728 1211.68,-14.5548 1146.4,-11.9681"/>
<polygon fill="midnightblue" stroke="midnightblue" points="1146.28,-8.4614 1136.16,-11.5966 1146.02,-15.4568 1146.28,-8.4614"/>
</g>
<!-- Node17 -->
<g id="node36" class="node"><title>Node17</title>
<polygon fill="white" stroke="#bfbfbf" points="156.5,-58.5 156.5,-79.5 185.5,-79.5 185.5,-58.5 156.5,-58.5"/>
<text text-anchor="middle" x="171" y="-66.5" font-family="Helvetica,sans-Serif" font-size="10.00">list</text>
</g>
<!-- Node16&#45;&gt;Node17 -->
<g id="edge38" class="edge"><title>Node16&#45;&gt;Node17</title>
<path fill="none" stroke="midnightblue" d="M808.257,-125.808C674.38,-122.435 327.838,-111.131 195.67,-79.569"/>
<polygon fill="midnightblue" stroke="midnightblue" points="196.338,-76.1276 185.784,-77.0608 194.616,-82.9126 196.338,-76.1276"/>
</g>
<!-- Node18 -->
<g id="node38" class="node"><title>Node18</title>
<polygon fill="white" stroke="#bfbfbf" points="202.5,-58.5 202.5,-79.5 245.5,-79.5 245.5,-58.5 202.5,-58.5"/>
<text text-anchor="middle" x="224" y="-66.5" font-family="Helvetica,sans-Serif" font-size="10.00">string</text>
</g>
<!-- Node16&#45;&gt;Node18 -->
<g id="edge40" class="edge"><title>Node16&#45;&gt;Node18</title>
<path fill="none" stroke="midnightblue" d="M808.112,-124.729C683.421,-119.178 377.016,-103.759 255.861,-79.8696"/>
<polygon fill="midnightblue" stroke="midnightblue" points="256.253,-76.3761 245.749,-77.7592 254.823,-83.2284 256.253,-76.3761"/>
</g>
<!-- Node19 -->
<g id="node40" class="node"><title>Node19</title>
<polygon fill="white" stroke="#bfbfbf" points="262.5,-58.5 262.5,-79.5 315.5,-79.5 315.5,-58.5 262.5,-58.5"/>
<text text-anchor="middle" x="289" y="-66.5" font-family="Helvetica,sans-Serif" font-size="10.00">QString</text>
</g>
<!-- Node16&#45;&gt;Node19 -->
<g id="edge42" class="edge"><title>Node16&#45;&gt;Node19</title>
<path fill="none" stroke="midnightblue" d="M808.387,-126.16C712.768,-123.829 506.591,-115.033 325.564,-79.9767"/>
<polygon fill="midnightblue" stroke="midnightblue" points="326.086,-76.5124 315.598,-78.0149 324.734,-83.3806 326.086,-76.5124"/>
</g>
<!-- Node20 -->
<g id="node42" class="node"><title>Node20</title>
<polygon fill="white" stroke="#bfbfbf" points="332.5,-58.5 332.5,-79.5 409.5,-79.5 409.5,-58.5 332.5,-58.5"/>
<text text-anchor="middle" x="371" y="-66.5" font-family="Helvetica,sans-Serif" font-size="10.00">QApplication</text>
</g>
<!-- Node16&#45;&gt;Node20 -->
<g id="edge44" class="edge"><title>Node16&#45;&gt;Node20</title>
<path fill="none" stroke="midnightblue" d="M808.398,-123.49C726.53,-117.653 565.312,-104.293 419.665,-80.1307"/>
<polygon fill="midnightblue" stroke="midnightblue" points="420.093,-76.6537 409.651,-78.4481 418.933,-83.5569 420.093,-76.6537"/>
</g>
<!-- Node21 -->
<g id="node44" class="node"><title>Node21</title>
<a xlink:href="SyncTask_8h.htm" target="_top" xlink:title="SyncTask.h">
<polygon fill="white" stroke="black" points="1574.5,-58.5 1574.5,-79.5 1645.5,-79.5 1645.5,-58.5 1574.5,-58.5"/>
<text text-anchor="middle" x="1610" y="-66.5" font-family="Helvetica,sans-Serif" font-size="10.00">SyncTask.h</text>
</a>
</g>
<!-- Node16&#45;&gt;Node21 -->
<g id="edge46" class="edge"><title>Node16&#45;&gt;Node21</title>
<path fill="none" stroke="midnightblue" d="M915.789,-126.195C1033.41,-123.82 1322.07,-114.642 1561,-80 1562.08,-79.8436 1563.17,-79.6763 1564.27,-79.4994"/>
<polygon fill="midnightblue" stroke="midnightblue" points="1565.04,-82.916 1574.26,-77.69 1563.79,-76.0281 1565.04,-82.916"/>
</g>
<!-- Node23 -->
<g id="node49" class="node"><title>Node23</title>
<polygon fill="white" stroke="#bfbfbf" points="427,-58.5 427,-79.5 479,-79.5 479,-58.5 427,-58.5"/>
<text text-anchor="middle" x="453" y="-66.5" font-family="Helvetica,sans-Serif" font-size="10.00">Event.h</text>
</g>
<!-- Node16&#45;&gt;Node23 -->
<g id="edge52" class="edge"><title>Node16&#45;&gt;Node23</title>
<path fill="none" stroke="midnightblue" d="M808.225,-123.29C737.104,-117.713 607.844,-105.252 489.215,-79.9648"/>
<polygon fill="midnightblue" stroke="midnightblue" points="489.752,-76.4999 479.237,-77.8016 488.268,-83.341 489.752,-76.4999"/>
</g>
<!-- Node24 -->
<g id="node54" class="node"><title>Node24</title>
<polygon fill="white" stroke="#bfbfbf" points="497,-58.5 497,-79.5 589,-79.5 589,-58.5 497,-58.5"/>
<text text-anchor="middle" x="543" y="-66.5" font-family="Helvetica,sans-Serif" font-size="10.00">WindowTypes.h</text>
</g>
<!-- Node16&#45;&gt;Node24 -->
<g id="edge60" class="edge"><title>Node16&#45;&gt;Node24</title>
<path fill="none" stroke="midnightblue" d="M808.343,-117.791C757.148,-108.927 677.59,-94.9509 599.243,-80.2092"/>
<polygon fill="midnightblue" stroke="midnightblue" points="599.675,-76.729 589.2,-78.3138 598.377,-83.6076 599.675,-76.729"/>
</g>
<!-- Node25 -->
<g id="node56" class="node"><title>Node25</title>
<polygon fill="white" stroke="#bfbfbf" points="606.5,-58.5 606.5,-79.5 717.5,-79.5 717.5,-58.5 606.5,-58.5"/>
<text text-anchor="middle" x="662" y="-66.5" font-family="Helvetica,sans-Serif" font-size="10.00">WindowProperties.h</text>
</g>
<!-- Node16&#45;&gt;Node25 -->
<g id="edge62" class="edge"><title>Node16&#45;&gt;Node25</title>
<path fill="none" stroke="midnightblue" d="M825.782,-116.497C792.753,-106.918 743.792,-92.7196 708.006,-82.3418"/>
<polygon fill="midnightblue" stroke="midnightblue" points="708.866,-78.9469 698.286,-79.5231 706.916,-85.6699 708.866,-78.9469"/>
</g>
<!-- Node26 -->
<g id="node58" class="node"><title>Node26</title>
<a xlink:href="WebAppCache_8h.htm" target="_top" xlink:title="WebAppCache.h">
<polygon fill="white" stroke="black" points="1424.5,-58.5 1424.5,-79.5 1519.5,-79.5 1519.5,-58.5 1424.5,-58.5"/>
<text text-anchor="middle" x="1472" y="-66.5" font-family="Helvetica,sans-Serif" font-size="10.00">WebAppCache.h</text>
</a>
</g>
<!-- Node16&#45;&gt;Node26 -->
<g id="edge64" class="edge"><title>Node16&#45;&gt;Node26</title>
<path fill="none" stroke="midnightblue" d="M915.562,-124.074C1013.98,-118.329 1230.11,-104 1411,-80 1412.09,-79.8549 1413.2,-79.7038 1414.31,-79.5474"/>
<polygon fill="midnightblue" stroke="midnightblue" points="1415.08,-82.9703 1424.45,-78.016 1414.04,-76.0488 1415.08,-82.9703"/>
</g>
<!-- Node27 -->
<g id="node61" class="node"><title>Node27</title>
<polygon fill="white" stroke="#bfbfbf" points="734.5,-58.5 734.5,-79.5 805.5,-79.5 805.5,-58.5 734.5,-58.5"/>
<text text-anchor="middle" x="770" y="-66.5" font-family="Helvetica,sans-Serif" font-size="10.00">HostBase.h</text>
</g>
<!-- Node16&#45;&gt;Node27 -->
<g id="edge68" class="edge"><title>Node16&#45;&gt;Node27</title>
<path fill="none" stroke="midnightblue" d="M845.126,-116.362C831.249,-107.614 811.366,-95.0786 795.54,-85.1015"/>
<polygon fill="midnightblue" stroke="midnightblue" points="797.093,-81.943 786.767,-79.5707 793.36,-87.8645 797.093,-81.943"/>
</g>
<!-- Node28 -->
<g id="node63" class="node"><title>Node28</title>
<polygon fill="white" stroke="#bfbfbf" points="823,-58.5 823,-79.5 901,-79.5 901,-58.5 823,-58.5"/>
<text text-anchor="middle" x="862" y="-66.5" font-family="Helvetica,sans-Serif" font-size="10.00">lunaservice.h</text>
</g>
<!-- Node16&#45;&gt;Node28 -->
<g id="edge70" class="edge"><title>Node16&#45;&gt;Node28</title>
<path fill="none" stroke="midnightblue" d="M862,-116.362C862,-108.922 862,-98.7427 862,-89.7276"/>
<polygon fill="midnightblue" stroke="midnightblue" points="865.5,-89.5706 862,-79.5707 858.5,-89.5707 865.5,-89.5706"/>
</g>
<!-- Node29 -->
<g id="node65" class="node"><title>Node29</title>
<polygon fill="white" stroke="#bfbfbf" points="919,-58.5 919,-79.5 993,-79.5 993,-58.5 919,-58.5"/>
<text text-anchor="middle" x="956" y="-66.5" font-family="Helvetica,sans-Serif" font-size="10.00">PIpcBuffer.h</text>
</g>
<!-- Node16&#45;&gt;Node29 -->
<g id="edge72" class="edge"><title>Node16&#45;&gt;Node29</title>
<path fill="none" stroke="midnightblue" d="M879.241,-116.362C893.552,-107.532 914.115,-94.844 930.357,-84.8224"/>
<polygon fill="midnightblue" stroke="midnightblue" points="932.196,-87.8004 938.868,-79.5707 928.52,-81.8431 932.196,-87.8004"/>
</g>
<!-- Node30 -->
<g id="node67" class="node"><title>Node30</title>
<polygon fill="white" stroke="#bfbfbf" points="1010.5,-58.5 1010.5,-79.5 1083.5,-79.5 1083.5,-58.5 1010.5,-58.5"/>
<text text-anchor="middle" x="1047" y="-66.5" font-family="Helvetica,sans-Serif" font-size="10.00">PIpcClient.h</text>
</g>
<!-- Node16&#45;&gt;Node30 -->
<g id="edge74" class="edge"><title>Node16&#45;&gt;Node30</title>
<path fill="none" stroke="midnightblue" d="M895.502,-116.497C925.793,-107 970.57,-92.9619 1003.59,-82.6087"/>
<polygon fill="midnightblue" stroke="midnightblue" points="1004.94,-85.8544 1013.44,-79.5231 1002.85,-79.175 1004.94,-85.8544"/>
</g>
<!-- Node31 -->
<g id="node69" class="node"><title>Node31</title>
<polygon fill="white" stroke="#bfbfbf" points="1101,-58.5 1101,-79.5 1225,-79.5 1225,-58.5 1101,-58.5"/>
<text text-anchor="middle" x="1163" y="-66.5" font-family="Helvetica,sans-Serif" font-size="10.00">PIpcChannelListener.h</text>
</g>
<!-- Node16&#45;&gt;Node31 -->
<g id="edge76" class="edge"><title>Node16&#45;&gt;Node31</title>
<path fill="none" stroke="midnightblue" d="M915.813,-116.631C966.992,-106.769 1044.04,-91.9222 1098.49,-81.4303"/>
<polygon fill="midnightblue" stroke="midnightblue" points="1099.23,-84.8531 1108.38,-79.5241 1097.9,-77.9795 1099.23,-84.8531"/>
</g>
<!-- Node32 -->
<g id="node71" class="node"><title>Node32</title>
<polygon fill="white" stroke="#bfbfbf" points="1242.5,-58.5 1242.5,-79.5 1331.5,-79.5 1331.5,-58.5 1242.5,-58.5"/>
<text text-anchor="middle" x="1287" y="-66.5" font-family="Helvetica,sans-Serif" font-size="10.00">PIpcMessage.h</text>
</g>
<!-- Node16&#45;&gt;Node32 -->
<g id="edge78" class="edge"><title>Node16&#45;&gt;Node32</title>
<path fill="none" stroke="midnightblue" d="M915.789,-121.552C986.315,-114.111 1114.08,-99.6042 1232.28,-80.1997"/>
<polygon fill="midnightblue" stroke="midnightblue" points="1232.93,-83.6396 1242.23,-78.5516 1231.79,-76.7338 1232.93,-83.6396"/>
</g>
<!-- Node21&#45;&gt;Node2 -->
<g id="edge48" class="edge"><title>Node21&#45;&gt;Node2</title>
<path fill="none" stroke="midnightblue" d="M1596.24,-58.3619C1585.25,-49.859 1569.63,-37.7785 1556.91,-27.9466"/>
<polygon fill="midnightblue" stroke="midnightblue" points="1558.72,-24.9195 1548.67,-21.5707 1554.44,-30.4569 1558.72,-24.9195"/>
</g>
<!-- Node22 -->
<g id="node47" class="node"><title>Node22</title>
<polygon fill="white" stroke="#bfbfbf" points="1586,-0.5 1586,-21.5 1658,-21.5 1658,-0.5 1586,-0.5"/>
<text text-anchor="middle" x="1622" y="-8.5" font-family="Helvetica,sans-Serif" font-size="10.00">TaskBase.h</text>
</g>
<!-- Node21&#45;&gt;Node22 -->
<g id="edge50" class="edge"><title>Node21&#45;&gt;Node22</title>
<path fill="none" stroke="midnightblue" d="M1612.2,-58.3619C1613.76,-50.8401 1615.89,-40.5187 1617.77,-31.4308"/>
<polygon fill="midnightblue" stroke="midnightblue" points="1621.21,-32.0724 1619.81,-21.5707 1614.36,-30.6541 1621.21,-32.0724"/>
</g>
<!-- Node26&#45;&gt;Node2 -->
<g id="edge66" class="edge"><title>Node26&#45;&gt;Node2</title>
<path fill="none" stroke="midnightblue" d="M1483.56,-58.3619C1492.61,-50.0226 1505.41,-38.2418 1515.97,-28.5162"/>
<polygon fill="midnightblue" stroke="midnightblue" points="1518.53,-30.9187 1523.52,-21.5707 1513.79,-25.7688 1518.53,-30.9187"/>
</g>
</g>
</svg>
