<?xml version="1.0" encoding="UTF-8" standalone="no"?>
<!DOCTYPE svg PUBLIC "-//W3C//DTD SVG 1.1//EN"
 "http://www.w3.org/Graphics/SVG/1.1/DTD/svg11.dtd">
<!-- Generated by graphviz version 2.26.3 (20100126.1600)
 -->
<!-- Title: MemoryWatcher.h Pages: 1 -->
<svg width="2168pt" height="160pt"
 viewBox="0.00 0.00 2168.00 160.00" xmlns="http://www.w3.org/2000/svg" xmlns:xlink="http://www.w3.org/1999/xlink">
<g id="graph1" class="graph" transform="scale(1 1) rotate(0) translate(4 156)">
<title>MemoryWatcher.h</title>
<polygon fill="white" stroke="white" points="-4,5 -4,-156 2165,-156 2165,5 -4,5"/>
<!-- Node1 -->
<g id="node1" class="node"><title>Node1</title>
<polygon fill="#bfbfbf" stroke="black" points="946.5,-130.5 946.5,-151.5 1049.5,-151.5 1049.5,-130.5 946.5,-130.5"/>
<text text-anchor="middle" x="998" y="-138.5" font-family="Helvetica,sans-Serif" font-size="10.00">MemoryWatcher.h</text>
</g>
<!-- Node2 -->
<g id="node3" class="node"><title>Node2</title>
<a xlink:href="MemoryWatcher_8cpp.htm" target="_top" xlink:title="MemoryWatcher.cpp">
<polygon fill="white" stroke="black" points="0,-7.5 0,-28.5 114,-28.5 114,-7.5 0,-7.5"/>
<text text-anchor="middle" x="57" y="-15.5" font-family="Helvetica,sans-Serif" font-size="10.00">MemoryWatcher.cpp</text>
</a>
</g>
<!-- Node1&#45;&gt;Node2 -->
<g id="edge2" class="edge"><title>Node1&#45;&gt;Node2</title>
<path fill="none" stroke="midnightblue" d="M935.922,-136.699C791.997,-126.045 424.785,-94.9286 123,-36 112.859,-34.0197 101.988,-31.3065 92.0543,-28.5873"/>
<polygon fill="midnightblue" stroke="midnightblue" points="936.074,-140.22 946.304,-137.461 936.586,-133.239 936.074,-140.22"/>
</g>
<!-- Node3 -->
<g id="node5" class="node"><title>Node3</title>
<a xlink:href="WebAppManager_8h.htm" target="_top" xlink:title="WebAppManager.h">
<polygon fill="white" stroke="black" points="944.5,-72.5 944.5,-93.5 1051.5,-93.5 1051.5,-72.5 944.5,-72.5"/>
<text text-anchor="middle" x="998" y="-80.5" font-family="Helvetica,sans-Serif" font-size="10.00">WebAppManager.h</text>
</a>
</g>
<!-- Node1&#45;&gt;Node3 -->
<g id="edge4" class="edge"><title>Node1&#45;&gt;Node3</title>
<path fill="none" stroke="midnightblue" d="M998,-120.191C998,-111.168 998,-100.994 998,-93.5707"/>
<polygon fill="midnightblue" stroke="midnightblue" points="994.5,-120.362 998,-130.362 1001.5,-120.362 994.5,-120.362"/>
</g>
<!-- Node17 -->
<g id="node34" class="node"><title>Node17</title>
<a xlink:href="WebAppManager_8cpp.htm" target="_top" xlink:title="WebAppManager.cpp">
<polygon fill="white" stroke="black" points="2041.5,-7.5 2041.5,-28.5 2160.5,-28.5 2160.5,-7.5 2041.5,-7.5"/>
<text text-anchor="middle" x="2101" y="-15.5" font-family="Helvetica,sans-Serif" font-size="10.00">WebAppManager.cpp</text>
</a>
</g>
<!-- Node1&#45;&gt;Node17 -->
<g id="edge38" class="edge"><title>Node1&#45;&gt;Node17</title>
<path fill="none" stroke="midnightblue" d="M1059.76,-138.137C1220.99,-129.929 1667.43,-102.5 2033,-36 2043.69,-34.0548 2055.17,-31.2866 2065.59,-28.5027"/>
<polygon fill="midnightblue" stroke="midnightblue" points="1059.37,-134.652 1049.56,-138.65 1059.72,-141.643 1059.37,-134.652"/>
</g>
<!-- Node3&#45;&gt;Node2 -->
<g id="edge20" class="edge"><title>Node3&#45;&gt;Node2</title>
<path fill="none" stroke="midnightblue" d="M934.294,-81.3362C760.258,-76.5106 279.365,-61.2272 123,-36 112.213,-34.2596 100.655,-31.4455 90.2736,-28.554"/>
<polygon fill="midnightblue" stroke="midnightblue" points="934.232,-84.8357 944.325,-81.6121 934.425,-77.8384 934.232,-84.8357"/>
</g>
<!-- Node4 -->
<g id="node7" class="node"><title>Node4</title>
<a xlink:href="CardWebApp_8cpp.htm" target="_top" xlink:title="CardWebApp.cpp">
<polygon fill="white" stroke="black" points="131.5,-7.5 131.5,-28.5 230.5,-28.5 230.5,-7.5 131.5,-7.5"/>
<text text-anchor="middle" x="181" y="-15.5" font-family="Helvetica,sans-Serif" font-size="10.00">CardWebApp.cpp</text>
</a>
</g>
<!-- Node3&#45;&gt;Node4 -->
<g id="edge6" class="edge"><title>Node3&#45;&gt;Node4</title>
<path fill="none" stroke="midnightblue" d="M934.352,-81.0163C776.799,-75.7911 371.786,-60.3526 239,-36 229.459,-34.2503 219.285,-31.4334 210.165,-28.5425"/>
<polygon fill="midnightblue" stroke="midnightblue" points="934.256,-84.5149 944.366,-81.3457 934.486,-77.5187 934.256,-84.5149"/>
</g>
<!-- Node5 -->
<g id="node9" class="node"><title>Node5</title>
<a xlink:href="DockWebApp_8cpp.htm" target="_top" xlink:title="DockWebApp.cpp">
<polygon fill="white" stroke="black" points="248,-7.5 248,-28.5 348,-28.5 348,-7.5 248,-7.5"/>
<text text-anchor="middle" x="298" y="-15.5" font-family="Helvetica,sans-Serif" font-size="10.00">DockWebApp.cpp</text>
</a>
</g>
<!-- Node3&#45;&gt;Node5 -->
<g id="edge8" class="edge"><title>Node3&#45;&gt;Node5</title>
<path fill="none" stroke="midnightblue" d="M934.117,-80.1295C794.601,-73.5652 466.416,-56.4369 357,-36 347.42,-34.2107 337.196,-31.419 327.996,-28.5637"/>
<polygon fill="midnightblue" stroke="midnightblue" points="934.077,-83.6314 944.23,-80.6024 934.404,-76.639 934.077,-83.6314"/>
</g>
<!-- Node6 -->
<g id="node11" class="node"><title>Node6</title>
<a xlink:href="AlertWebApp_8cpp.htm" target="_top" xlink:title="AlertWebApp.cpp">
<polygon fill="white" stroke="black" points="366,-7.5 366,-28.5 464,-28.5 464,-7.5 366,-7.5"/>
<text text-anchor="middle" x="415" y="-15.5" font-family="Helvetica,sans-Serif" font-size="10.00">AlertWebApp.cpp</text>
</a>
</g>
<!-- Node3&#45;&gt;Node6 -->
<g id="edge10" class="edge"><title>Node3&#45;&gt;Node6</title>
<path fill="none" stroke="midnightblue" d="M933.997,-81.623C834.499,-78.5087 637.091,-68.4271 473,-36 463.691,-34.1604 453.759,-31.3896 444.792,-28.5696"/>
<polygon fill="midnightblue" stroke="midnightblue" points="934.086,-85.1271 944.187,-81.9281 934.296,-78.1303 934.086,-85.1271"/>
</g>
<!-- Node7 -->
<g id="node13" class="node"><title>Node7</title>
<a xlink:href="DashboardWebApp_8cpp.htm" target="_top" xlink:title="DashboardWebApp.cpp">
<polygon fill="white" stroke="black" points="482,-7.5 482,-28.5 610,-28.5 610,-7.5 482,-7.5"/>
<text text-anchor="middle" x="546" y="-15.5" font-family="Helvetica,sans-Serif" font-size="10.00">DashboardWebApp.cpp</text>
</a>
</g>
<!-- Node3&#45;&gt;Node7 -->
<g id="edge12" class="edge"><title>Node3&#45;&gt;Node7</title>
<path fill="none" stroke="midnightblue" d="M934.037,-77.399C858.406,-70.2392 728.91,-56.2918 619,-36 607.961,-33.9619 596.1,-31.2618 585.216,-28.5745"/>
<polygon fill="midnightblue" stroke="midnightblue" points="934.061,-80.9165 944.344,-78.3642 934.714,-73.9469 934.061,-80.9165"/>
</g>
<!-- Node8 -->
<g id="node15" class="node"><title>Node8</title>
<a xlink:href="WebAppFactoryLuna_8cpp.htm" target="_top" xlink:title="WebAppFactoryLuna.cpp">
<polygon fill="white" stroke="black" points="628,-7.5 628,-28.5 762,-28.5 762,-7.5 628,-7.5"/>
<text text-anchor="middle" x="695" y="-15.5" font-family="Helvetica,sans-Serif" font-size="10.00">WebAppFactoryLuna.cpp</text>
</a>
</g>
<!-- Node3&#45;&gt;Node8 -->
<g id="edge14" class="edge"><title>Node3&#45;&gt;Node8</title>
<path fill="none" stroke="midnightblue" d="M934.669,-70.3887C889.082,-61.1884 826.156,-48.2391 771,-36 760.542,-33.6795 749.302,-31.077 738.757,-28.5876"/>
<polygon fill="midnightblue" stroke="midnightblue" points="934.21,-73.8664 944.704,-72.4099 935.592,-67.0042 934.21,-73.8664"/>
</g>
<!-- Node9 -->
<g id="node17" class="node"><title>Node9</title>
<a xlink:href="Main_8cpp.htm" target="_top" xlink:title="Main.cpp">
<polygon fill="white" stroke="black" points="779.5,-7.5 779.5,-28.5 838.5,-28.5 838.5,-7.5 779.5,-7.5"/>
<text text-anchor="middle" x="809" y="-15.5" font-family="Helvetica,sans-Serif" font-size="10.00">Main.cpp</text>
</a>
</g>
<!-- Node3&#45;&gt;Node9 -->
<g id="edge16" class="edge"><title>Node3&#45;&gt;Node9</title>
<path fill="none" stroke="midnightblue" d="M949.237,-69.7121C919.363,-61.1077 880.55,-49.0926 847,-36 841.424,-33.8239 835.521,-31.195 830.073,-28.6268"/>
<polygon fill="midnightblue" stroke="midnightblue" points="948.428,-73.1211 959.005,-72.496 950.347,-66.3891 948.428,-73.1211"/>
</g>
<!-- Node10 -->
<g id="node19" class="node"><title>Node10</title>
<a xlink:href="WebAppFactoryMinimal_8cpp.htm" target="_top" xlink:title="WebAppFactoryMinimal.cpp">
<polygon fill="white" stroke="black" points="855.5,-7.5 855.5,-28.5 1002.5,-28.5 1002.5,-7.5 855.5,-7.5"/>
<text text-anchor="middle" x="929" y="-15.5" font-family="Helvetica,sans-Serif" font-size="10.00">WebAppFactoryMinimal.cpp</text>
</a>
</g>
<!-- Node3&#45;&gt;Node10 -->
<g id="edge18" class="edge"><title>Node3&#45;&gt;Node10</title>
<path fill="none" stroke="midnightblue" d="M978.998,-65.0992C966.532,-53.3566 950.66,-38.4043 940.182,-28.5337"/>
<polygon fill="midnightblue" stroke="midnightblue" points="976.927,-67.9572 986.606,-72.2666 981.727,-62.862 976.927,-67.9572"/>
</g>
<!-- Node11 -->
<g id="node22" class="node"><title>Node11</title>
<a xlink:href="PalmSystem_8cpp.htm" target="_top" xlink:title="PalmSystem.cpp">
<polygon fill="white" stroke="black" points="1020,-7.5 1020,-28.5 1114,-28.5 1114,-7.5 1020,-7.5"/>
<text text-anchor="middle" x="1067" y="-15.5" font-family="Helvetica,sans-Serif" font-size="10.00">PalmSystem.cpp</text>
</a>
</g>
<!-- Node3&#45;&gt;Node11 -->
<g id="edge22" class="edge"><title>Node3&#45;&gt;Node11</title>
<path fill="none" stroke="midnightblue" d="M1017,-65.0992C1029.47,-53.3566 1045.34,-38.4043 1055.82,-28.5337"/>
<polygon fill="midnightblue" stroke="midnightblue" points="1014.27,-62.862 1009.39,-72.2666 1019.07,-67.9572 1014.27,-62.862"/>
</g>
<!-- Node12 -->
<g id="node24" class="node"><title>Node12</title>
<a xlink:href="ProcessManager_8cpp.htm" target="_top" xlink:title="ProcessManager.cpp">
<polygon fill="white" stroke="black" points="1131.5,-7.5 1131.5,-28.5 1248.5,-28.5 1248.5,-7.5 1131.5,-7.5"/>
<text text-anchor="middle" x="1190" y="-15.5" font-family="Helvetica,sans-Serif" font-size="10.00">ProcessManager.cpp</text>
</a>
</g>
<!-- Node3&#45;&gt;Node12 -->
<g id="edge24" class="edge"><title>Node3&#45;&gt;Node12</title>
<path fill="none" stroke="midnightblue" d="M1038.95,-69.1377C1074.79,-57.0023 1126.11,-39.6302 1158.74,-28.5835"/>
<polygon fill="midnightblue" stroke="midnightblue" points="1037.63,-65.8901 1029.28,-72.412 1039.87,-72.5204 1037.63,-65.8901"/>
</g>
<!-- Node13 -->
<g id="node26" class="node"><title>Node13</title>
<a xlink:href="RemoteWindowDataOpenGLQt_8cpp.htm" target="_top" xlink:title="RemoteWindowDataOpenGLQt.cpp">
<polygon fill="white" stroke="black" points="1265.5,-7.5 1265.5,-28.5 1450.5,-28.5 1450.5,-7.5 1265.5,-7.5"/>
<text text-anchor="middle" x="1358" y="-15.5" font-family="Helvetica,sans-Serif" font-size="10.00">RemoteWindowDataOpenGLQt.cpp</text>
</a>
</g>
<!-- Node3&#45;&gt;Node13 -->
<g id="edge26" class="edge"><title>Node3&#45;&gt;Node13</title>
<path fill="none" stroke="midnightblue" d="M1061.57,-71.522C1128.94,-59.358 1234.43,-40.3119 1299.72,-28.5235"/>
<polygon fill="midnightblue" stroke="midnightblue" points="1060.73,-68.1178 1051.51,-73.339 1061.97,-75.0064 1060.73,-68.1178"/>
</g>
<!-- Node14 -->
<g id="node28" class="node"><title>Node14</title>
<a xlink:href="RemoteWindowDataSoftwareQt_8cpp.htm" target="_top" xlink:title="RemoteWindowDataSoftware\lQt.cpp">
<polygon fill="white" stroke="black" points="1467.5,-1 1467.5,-35 1622.5,-35 1622.5,-1 1467.5,-1"/>
<text text-anchor="start" x="1475.5" y="-22" font-family="Helvetica,sans-Serif" font-size="10.00">RemoteWindowDataSoftware</text>
<text text-anchor="middle" x="1545" y="-9" font-family="Helvetica,sans-Serif" font-size="10.00">Qt.cpp</text>
</a>
</g>
<!-- Node3&#45;&gt;Node14 -->
<g id="edge28" class="edge"><title>Node3&#45;&gt;Node14</title>
<path fill="none" stroke="midnightblue" d="M1062.06,-78.5997C1151.34,-71.9827 1318.1,-57.8658 1459,-36 1461.71,-35.5789 1464.47,-35.1281 1467.25,-34.6537"/>
<polygon fill="midnightblue" stroke="midnightblue" points="1061.54,-75.1282 1051.82,-79.3504 1062.05,-82.1094 1061.54,-75.1282"/>
</g>
<!-- Node15 -->
<g id="node30" class="node"><title>Node15</title>
<a xlink:href="SysMgrWebBridge_8cpp.htm" target="_top" xlink:title="SysMgrWebBridge.cpp">
<polygon fill="white" stroke="black" points="1640,-7.5 1640,-28.5 1764,-28.5 1764,-7.5 1640,-7.5"/>
<text text-anchor="middle" x="1702" y="-15.5" font-family="Helvetica,sans-Serif" font-size="10.00">SysMgrWebBridge.cpp</text>
</a>
</g>
<!-- Node3&#45;&gt;Node15 -->
<g id="edge30" class="edge"><title>Node3&#45;&gt;Node15</title>
<path fill="none" stroke="midnightblue" d="M1061.73,-81.9302C1176.35,-79.1946 1424.59,-69.5657 1631,-36 1642.3,-34.1631 1654.43,-31.393 1665.41,-28.5729"/>
<polygon fill="midnightblue" stroke="midnightblue" points="1061.64,-78.4313 1051.72,-82.1595 1061.8,-85.4294 1061.64,-78.4313"/>
</g>
<!-- Node16 -->
<g id="node32" class="node"><title>Node16</title>
<a xlink:href="WebAppBase_8cpp.htm" target="_top" xlink:title="WebAppBase.cpp">
<polygon fill="white" stroke="black" points="1782,-7.5 1782,-28.5 1882,-28.5 1882,-7.5 1782,-7.5"/>
<text text-anchor="middle" x="1832" y="-15.5" font-family="Helvetica,sans-Serif" font-size="10.00">WebAppBase.cpp</text>
</a>
</g>
<!-- Node3&#45;&gt;Node16 -->
<g id="edge32" class="edge"><title>Node3&#45;&gt;Node16</title>
<path fill="none" stroke="midnightblue" d="M1061.83,-81.0654C1221.86,-75.9045 1637.03,-60.5104 1773,-36 1782.7,-34.2522 1793.04,-31.4359 1802.32,-28.5449"/>
<polygon fill="midnightblue" stroke="midnightblue" points="1061.55,-77.5726 1051.67,-81.3906 1061.77,-84.569 1061.55,-77.5726"/>
</g>
<!-- Node3&#45;&gt;Node17 -->
<g id="edge34" class="edge"><title>Node3&#45;&gt;Node17</title>
<path fill="none" stroke="midnightblue" d="M1061.61,-81.8888C1256.62,-78.2018 1844.25,-64.9282 2033,-36 2044.23,-34.2795 2056.27,-31.4335 2067.06,-28.5069"/>
<polygon fill="midnightblue" stroke="midnightblue" points="1061.46,-78.391 1051.53,-82.0775 1061.59,-85.3897 1061.46,-78.391"/>
</g>
<!-- Node18 -->
<g id="node36" class="node"><title>Node18</title>
<a xlink:href="WindowedWebApp_8cpp.htm" target="_top" xlink:title="WindowedWebApp.cpp">
<polygon fill="white" stroke="black" points="1899.5,-7.5 1899.5,-28.5 2024.5,-28.5 2024.5,-7.5 1899.5,-7.5"/>
<text text-anchor="middle" x="1962" y="-15.5" font-family="Helvetica,sans-Serif" font-size="10.00">WindowedWebApp.cpp</text>
</a>
</g>
<!-- Node3&#45;&gt;Node18 -->
<g id="edge36" class="edge"><title>Node3&#45;&gt;Node18</title>
<path fill="none" stroke="midnightblue" d="M1061.74,-81.2672C1238.24,-76.2111 1730.81,-60.2813 1891,-36 1902.57,-34.2467 1914.99,-31.4288 1926.16,-28.5381"/>
<polygon fill="midnightblue" stroke="midnightblue" points="1061.47,-77.7734 1051.58,-81.5564 1061.67,-84.7706 1061.47,-77.7734"/>
</g>
</g>
</svg>
