<?xml version="1.0" encoding="UTF-8" standalone="no"?>
<!DOCTYPE svg PUBLIC "-//W3C//DTD SVG 1.1//EN"
 "http://www.w3.org/Graphics/SVG/1.1/DTD/svg11.dtd">
<!-- Generated by graphviz version 2.26.3 (20100126.1600)
 -->
<!-- Title: MemoryWatcher.h Pages: 1 -->
<svg width="356pt" height="88pt"
 viewBox="0.00 0.00 356.00 88.00" xmlns="http://www.w3.org/2000/svg" xmlns:xlink="http://www.w3.org/1999/xlink">
<g id="graph1" class="graph" transform="scale(1 1) rotate(0) translate(4 84)">
<title>MemoryWatcher.h</title>
<polygon fill="white" stroke="white" points="-4,5 -4,-84 353,-84 353,5 -4,5"/>
<!-- Node1 -->
<g id="node1" class="node"><title>Node1</title>
<polygon fill="#bfbfbf" stroke="black" points="118.5,-58.5 118.5,-79.5 221.5,-79.5 221.5,-58.5 118.5,-58.5"/>
<text text-anchor="middle" x="170" y="-66.5" font-family="Helvetica,sans-Serif" font-size="10.00">MemoryWatcher.h</text>
</g>
<!-- Node2 -->
<g id="node3" class="node"><title>Node2</title>
<polygon fill="white" stroke="#bfbfbf" points="-0.5,-0.5 -0.5,-21.5 66.5,-21.5 66.5,-0.5 -0.5,-0.5"/>
<text text-anchor="middle" x="33" y="-8.5" font-family="Helvetica,sans-Serif" font-size="10.00">Common.h</text>
</g>
<!-- Node1&#45;&gt;Node2 -->
<g id="edge2" class="edge"><title>Node1&#45;&gt;Node2</title>
<path fill="none" stroke="midnightblue" d="M145.19,-58.4966C123.504,-49.3154 91.7893,-35.8889 67.608,-25.6516"/>
<polygon fill="midnightblue" stroke="midnightblue" points="68.6613,-22.2968 58.0881,-21.6212 65.9323,-28.7429 68.6613,-22.2968"/>
</g>
<!-- Node3 -->
<g id="node5" class="node"><title>Node3</title>
<polygon fill="white" stroke="#bfbfbf" points="84,-0.5 84,-21.5 134,-21.5 134,-0.5 84,-0.5"/>
<text text-anchor="middle" x="109" y="-8.5" font-family="Helvetica,sans-Serif" font-size="10.00">stdint.h</text>
</g>
<!-- Node1&#45;&gt;Node3 -->
<g id="edge4" class="edge"><title>Node1&#45;&gt;Node3</title>
<path fill="none" stroke="midnightblue" d="M158.812,-58.3619C150.041,-50.0226 137.651,-38.2418 127.422,-28.5162"/>
<polygon fill="midnightblue" stroke="midnightblue" points="129.776,-25.9248 120.117,-21.5707 124.953,-30.9978 129.776,-25.9248"/>
</g>
<!-- Node4 -->
<g id="node7" class="node"><title>Node4</title>
<polygon fill="white" stroke="#bfbfbf" points="151.5,-0.5 151.5,-21.5 188.5,-21.5 188.5,-0.5 151.5,-0.5"/>
<text text-anchor="middle" x="170" y="-8.5" font-family="Helvetica,sans-Serif" font-size="10.00">map</text>
</g>
<!-- Node1&#45;&gt;Node4 -->
<g id="edge6" class="edge"><title>Node1&#45;&gt;Node4</title>
<path fill="none" stroke="midnightblue" d="M170,-58.3619C170,-50.9219 170,-40.7427 170,-31.7276"/>
<polygon fill="midnightblue" stroke="midnightblue" points="173.5,-31.5706 170,-21.5707 166.5,-31.5707 173.5,-31.5706"/>
</g>
<!-- Node5 -->
<g id="node9" class="node"><title>Node5</title>
<polygon fill="white" stroke="#bfbfbf" points="206,-0.5 206,-21.5 278,-21.5 278,-0.5 206,-0.5"/>
<text text-anchor="middle" x="242" y="-8.5" font-family="Helvetica,sans-Serif" font-size="10.00">SignalSlot.h</text>
</g>
<!-- Node1&#45;&gt;Node5 -->
<g id="edge8" class="edge"><title>Node1&#45;&gt;Node5</title>
<path fill="none" stroke="midnightblue" d="M183.206,-58.3619C193.761,-49.859 208.758,-37.7785 220.963,-27.9466"/>
<polygon fill="midnightblue" stroke="midnightblue" points="223.286,-30.5696 228.878,-21.5707 218.895,-25.1183 223.286,-30.5696"/>
</g>
<!-- Node6 -->
<g id="node11" class="node"><title>Node6</title>
<polygon fill="white" stroke="#bfbfbf" points="296,-0.5 296,-21.5 348,-21.5 348,-0.5 296,-0.5"/>
<text text-anchor="middle" x="322" y="-8.5" font-family="Helvetica,sans-Serif" font-size="10.00">Timer.h</text>
</g>
<!-- Node1&#45;&gt;Node6 -->
<g id="edge10" class="edge"><title>Node1&#45;&gt;Node6</title>
<path fill="none" stroke="midnightblue" d="M197.526,-58.4966C222.442,-48.9894 259.286,-34.9303 286.428,-24.5737"/>
<polygon fill="midnightblue" stroke="midnightblue" points="287.853,-27.7761 295.948,-20.9409 285.357,-21.236 287.853,-27.7761"/>
</g>
</g>
</svg>
