<?xml version="1.0" encoding="UTF-8" standalone="no"?>
<!DOCTYPE svg PUBLIC "-//W3C//DTD SVG 1.1//EN"
 "http://www.w3.org/Graphics/SVG/1.1/DTD/svg11.dtd">
<!-- Generated by graphviz version 2.26.3 (20100126.1600)
 -->
<!-- Title: NewContentIndicatorEventFactory.h Pages: 1 -->
<svg width="424pt" height="102pt"
 viewBox="0.00 0.00 424.00 102.00" xmlns="http://www.w3.org/2000/svg" xmlns:xlink="http://www.w3.org/1999/xlink">
<g id="graph1" class="graph" transform="scale(1 1) rotate(0) translate(4 98)">
<title>NewContentIndicatorEventFactory.h</title>
<polygon fill="white" stroke="white" points="-4,5 -4,-98 421,-98 421,5 -4,5"/>
<!-- Node1 -->
<g id="node1" class="node"><title>Node1</title>
<polygon fill="#bfbfbf" stroke="black" points="202.5,-59 202.5,-93 345.5,-93 345.5,-59 202.5,-59"/>
<text text-anchor="start" x="210.5" y="-80" font-family="Helvetica,sans-Serif" font-size="10.00">NewContentIndicatorEvent</text>
<text text-anchor="middle" x="274" y="-67" font-family="Helvetica,sans-Serif" font-size="10.00">Factory.h</text>
</g>
<!-- Node2 -->
<g id="node3" class="node"><title>Node2</title>
<polygon fill="white" stroke="#bfbfbf" points="-0.5,-0.5 -0.5,-21.5 66.5,-21.5 66.5,-0.5 -0.5,-0.5"/>
<text text-anchor="middle" x="33" y="-8.5" font-family="Helvetica,sans-Serif" font-size="10.00">Common.h</text>
</g>
<!-- Node1&#45;&gt;Node2 -->
<g id="edge2" class="edge"><title>Node1&#45;&gt;Node2</title>
<path fill="none" stroke="midnightblue" d="M210.68,-58.922C168.485,-47.5417 114.114,-32.8772 76.6906,-22.7838"/>
<polygon fill="midnightblue" stroke="midnightblue" points="77.1755,-19.2895 66.6091,-20.0647 75.3526,-26.048 77.1755,-19.2895"/>
</g>
<!-- Node3 -->
<g id="node5" class="node"><title>Node3</title>
<polygon fill="white" stroke="#bfbfbf" points="84,-0.5 84,-21.5 236,-21.5 236,-0.5 84,-0.5"/>
<text text-anchor="middle" x="160" y="-8.5" font-family="Helvetica,sans-Serif" font-size="10.00">NewContentIndicatorEvent.h</text>
</g>
<!-- Node1&#45;&gt;Node3 -->
<g id="edge4" class="edge"><title>Node1&#45;&gt;Node3</title>
<path fill="none" stroke="midnightblue" d="M244.048,-58.922C226.57,-48.9566 204.676,-36.4729 187.615,-26.7455"/>
<polygon fill="midnightblue" stroke="midnightblue" points="189.114,-23.5711 178.693,-21.6584 185.647,-29.6521 189.114,-23.5711"/>
</g>
<!-- Node4 -->
<g id="node7" class="node"><title>Node4</title>
<polygon fill="white" stroke="#bfbfbf" points="253.5,-0.5 253.5,-21.5 294.5,-21.5 294.5,-0.5 253.5,-0.5"/>
<text text-anchor="middle" x="274" y="-8.5" font-family="Helvetica,sans-Serif" font-size="10.00">glib.h</text>
</g>
<!-- Node1&#45;&gt;Node4 -->
<g id="edge6" class="edge"><title>Node1&#45;&gt;Node4</title>
<path fill="none" stroke="midnightblue" d="M274,-58.922C274,-50.6704 274,-40.6922 274,-31.9818"/>
<polygon fill="midnightblue" stroke="midnightblue" points="277.5,-31.8521 274,-21.8521 270.5,-31.8521 277.5,-31.8521"/>
</g>
<!-- Node5 -->
<g id="node9" class="node"><title>Node5</title>
<polygon fill="white" stroke="#bfbfbf" points="312,-0.5 312,-21.5 356,-21.5 356,-0.5 312,-0.5"/>
<text text-anchor="middle" x="334" y="-8.5" font-family="Helvetica,sans-Serif" font-size="10.00">time.h</text>
</g>
<!-- Node1&#45;&gt;Node5 -->
<g id="edge8" class="edge"><title>Node1&#45;&gt;Node5</title>
<path fill="none" stroke="midnightblue" d="M289.764,-58.922C298.143,-49.8453 308.45,-38.6793 317.006,-29.4097"/>
<polygon fill="midnightblue" stroke="midnightblue" points="319.772,-31.5741 323.983,-21.8521 314.628,-26.8262 319.772,-31.5741"/>
</g>
<!-- Node6 -->
<g id="node11" class="node"><title>Node6</title>
<polygon fill="white" stroke="#bfbfbf" points="373.5,-0.5 373.5,-21.5 416.5,-21.5 416.5,-0.5 373.5,-0.5"/>
<text text-anchor="middle" x="395" y="-8.5" font-family="Helvetica,sans-Serif" font-size="10.00">string</text>
</g>
<!-- Node1&#45;&gt;Node6 -->
<g id="edge10" class="edge"><title>Node1&#45;&gt;Node6</title>
<path fill="none" stroke="midnightblue" d="M305.791,-58.922C324.514,-48.8644 348.012,-36.2415 366.191,-26.476"/>
<polygon fill="midnightblue" stroke="midnightblue" points="368.006,-29.474 375.159,-21.6584 364.693,-23.3074 368.006,-29.474"/>
</g>
</g>
</svg>
