<?xml version="1.0" encoding="UTF-8" standalone="no"?>
<!DOCTYPE svg PUBLIC "-//W3C//DTD SVG 1.1//EN"
 "http://www.w3.org/Graphics/SVG/1.1/DTD/svg11.dtd">
<!-- Generated by graphviz version 2.26.3 (20100126.1600)
 -->
<!-- Title: PalmSystem.h Pages: 1 -->
<svg width="300pt" height="88pt"
 viewBox="0.00 0.00 300.00 88.00" xmlns="http://www.w3.org/2000/svg" xmlns:xlink="http://www.w3.org/1999/xlink">
<g id="graph1" class="graph" transform="scale(1 1) rotate(0) translate(4 84)">
<title>PalmSystem.h</title>
<polygon fill="white" stroke="white" points="-4,5 -4,-84 297,-84 297,5 -4,5"/>
<!-- Node1 -->
<g id="node1" class="node"><title>Node1</title>
<polygon fill="#bfbfbf" stroke="black" points="112.5,-58.5 112.5,-79.5 195.5,-79.5 195.5,-58.5 112.5,-58.5"/>
<text text-anchor="middle" x="154" y="-66.5" font-family="Helvetica,sans-Serif" font-size="10.00">PalmSystem.h</text>
</g>
<!-- Node2 -->
<g id="node3" class="node"><title>Node2</title>
<polygon fill="white" stroke="#bfbfbf" points="-0.5,-0.5 -0.5,-21.5 54.5,-21.5 54.5,-0.5 -0.5,-0.5"/>
<text text-anchor="middle" x="27" y="-8.5" font-family="Helvetica,sans-Serif" font-size="10.00">QObject</text>
</g>
<!-- Node1&#45;&gt;Node2 -->
<g id="edge2" class="edge"><title>Node1&#45;&gt;Node2</title>
<path fill="none" stroke="midnightblue" d="M131.001,-58.4966C110.987,-49.3562 81.7592,-36.0082 59.3812,-25.7883"/>
<polygon fill="midnightblue" stroke="midnightblue" points="60.8071,-22.5918 50.2568,-21.6212 57.8991,-28.9592 60.8071,-22.5918"/>
</g>
<!-- Node3 -->
<g id="node5" class="node"><title>Node3</title>
<polygon fill="white" stroke="#bfbfbf" points="72,-0.5 72,-21.5 152,-21.5 152,-0.5 72,-0.5"/>
<text text-anchor="middle" x="112" y="-8.5" font-family="Helvetica,sans-Serif" font-size="10.00">QVariantMap</text>
</g>
<!-- Node1&#45;&gt;Node3 -->
<g id="edge4" class="edge"><title>Node1&#45;&gt;Node3</title>
<path fill="none" stroke="midnightblue" d="M146.297,-58.3619C140.554,-50.4313 132.557,-39.3885 125.73,-29.9606"/>
<polygon fill="midnightblue" stroke="midnightblue" points="128.355,-27.6173 119.655,-21.5707 122.685,-31.7229 128.355,-27.6173"/>
</g>
<!-- Node4 -->
<g id="node7" class="node"><title>Node4</title>
<polygon fill="white" stroke="#bfbfbf" points="169.5,-0.5 169.5,-21.5 222.5,-21.5 222.5,-0.5 169.5,-0.5"/>
<text text-anchor="middle" x="196" y="-8.5" font-family="Helvetica,sans-Serif" font-size="10.00">QString</text>
</g>
<!-- Node1&#45;&gt;Node4 -->
<g id="edge6" class="edge"><title>Node1&#45;&gt;Node4</title>
<path fill="none" stroke="midnightblue" d="M161.703,-58.3619C167.446,-50.4313 175.443,-39.3885 182.27,-29.9606"/>
<polygon fill="midnightblue" stroke="midnightblue" points="185.315,-31.7229 188.345,-21.5707 179.645,-27.6173 185.315,-31.7229"/>
</g>
<!-- Node5 -->
<g id="node9" class="node"><title>Node5</title>
<polygon fill="white" stroke="#bfbfbf" points="240,-0.5 240,-21.5 292,-21.5 292,-0.5 240,-0.5"/>
<text text-anchor="middle" x="266" y="-8.5" font-family="Helvetica,sans-Serif" font-size="10.00">Event.h</text>
</g>
<!-- Node1&#45;&gt;Node5 -->
<g id="edge8" class="edge"><title>Node1&#45;&gt;Node5</title>
<path fill="none" stroke="midnightblue" d="M174.282,-58.4966C191.618,-49.5194 216.79,-36.4835 236.38,-26.3387"/>
<polygon fill="midnightblue" stroke="midnightblue" points="238.22,-29.3278 245.49,-21.6212 235.001,-23.1118 238.22,-29.3278"/>
</g>
</g>
</svg>
