<?xml version="1.0" encoding="UTF-8" standalone="no"?>
<!DOCTYPE svg PUBLIC "-//W3C//DTD SVG 1.1//EN"
 "http://www.w3.org/Graphics/SVG/1.1/DTD/svg11.dtd">
<!-- Generated by graphviz version 2.26.3 (20100126.1600)
 -->
<!-- Title: PalmSystem.cpp Pages: 1 -->
<svg width="2336pt" height="392pt"
 viewBox="0.00 0.00 2336.00 392.00" xmlns="http://www.w3.org/2000/svg" xmlns:xlink="http://www.w3.org/1999/xlink">
<g id="graph1" class="graph" transform="scale(1 1) rotate(0) translate(4 388)">
<title>PalmSystem.cpp</title>
<polygon fill="white" stroke="white" points="-4,5 -4,-388 2333,-388 2333,5 -4,5"/>
<!-- Node1 -->
<g id="node1" class="node"><title>Node1</title>
<polygon fill="#bfbfbf" stroke="black" points="1421,-362.5 1421,-383.5 1515,-383.5 1515,-362.5 1421,-362.5"/>
<text text-anchor="middle" x="1468" y="-370.5" font-family="Helvetica,sans-Serif" font-size="10.00">PalmSystem.cpp</text>
</g>
<!-- Node2 -->
<g id="node3" class="node"><title>Node2</title>
<a xlink:href="PalmSystem_8h.htm" target="_top" xlink:title="PalmSystem.h">
<polygon fill="white" stroke="black" points="208.5,-181.5 208.5,-202.5 291.5,-202.5 291.5,-181.5 208.5,-181.5"/>
<text text-anchor="middle" x="250" y="-189.5" font-family="Helvetica,sans-Serif" font-size="10.00">PalmSystem.h</text>
</a>
</g>
<!-- Node1&#45;&gt;Node2 -->
<g id="edge2" class="edge"><title>Node1&#45;&gt;Node2</title>
<path fill="none" stroke="midnightblue" d="M1420.87,-372.199C1213.56,-368.526 390.878,-352.337 343,-326 297.501,-300.971 269.466,-243.042 257.222,-212.189"/>
<polygon fill="midnightblue" stroke="midnightblue" points="260.367,-210.612 253.546,-202.504 253.822,-213.095 260.367,-210.612"/>
</g>
<!-- Node7 -->
<g id="node13" class="node"><title>Node7</title>
<a xlink:href="AlertWebApp_8h.htm" target="_top" xlink:title="AlertWebApp.h">
<polygon fill="white" stroke="black" points="1084,-304.5 1084,-325.5 1170,-325.5 1170,-304.5 1084,-304.5"/>
<text text-anchor="middle" x="1127" y="-312.5" font-family="Helvetica,sans-Serif" font-size="10.00">AlertWebApp.h</text>
</a>
</g>
<!-- Node1&#45;&gt;Node7 -->
<g id="edge12" class="edge"><title>Node1&#45;&gt;Node7</title>
<path fill="none" stroke="midnightblue" d="M1420.94,-364.996C1357.9,-354.274 1246.33,-335.297 1180.27,-324.061"/>
<polygon fill="midnightblue" stroke="midnightblue" points="1180.52,-320.553 1170.08,-322.327 1179.35,-327.454 1180.52,-320.553"/>
</g>
<!-- Node11 -->
<g id="node22" class="node"><title>Node11</title>
<a xlink:href="WebAppBase_8h.htm" target="_top" xlink:title="WebAppBase.h">
<polygon fill="white" stroke="black" points="390.5,-181.5 390.5,-202.5 479.5,-202.5 479.5,-181.5 390.5,-181.5"/>
<text text-anchor="middle" x="435" y="-189.5" font-family="Helvetica,sans-Serif" font-size="10.00">WebAppBase.h</text>
</a>
</g>
<!-- Node1&#45;&gt;Node11 -->
<g id="edge120" class="edge"><title>Node1&#45;&gt;Node11</title>
<path fill="none" stroke="midnightblue" d="M1420.8,-369.853C1338.59,-363.974 1163.95,-349.729 1018,-326 782.992,-287.793 725.402,-270.026 495,-210 489.606,-208.595 483.968,-207.031 478.398,-205.428"/>
<polygon fill="midnightblue" stroke="midnightblue" points="479.097,-201.985 468.516,-202.527 477.125,-208.702 479.097,-201.985"/>
</g>
<!-- Node12 -->
<g id="node24" class="node"><title>Node12</title>
<a xlink:href="SysMgrWebBridge_8h.htm" target="_top" xlink:title="SysMgrWebBridge.h">
<polygon fill="white" stroke="black" points="294.5,-116.5 294.5,-137.5 407.5,-137.5 407.5,-116.5 294.5,-116.5"/>
<text text-anchor="middle" x="351" y="-124.5" font-family="Helvetica,sans-Serif" font-size="10.00">SysMgrWebBridge.h</text>
</a>
</g>
<!-- Node1&#45;&gt;Node12 -->
<g id="edge118" class="edge"><title>Node1&#45;&gt;Node12</title>
<path fill="none" stroke="midnightblue" d="M1421,-371.399C1322.31,-367.549 1086.49,-355.786 891,-326 774.812,-308.297 747.589,-294.119 633,-268 521.368,-242.555 468.062,-285.515 382,-210 363.926,-194.141 356.366,-166.702 353.219,-147.739"/>
<polygon fill="midnightblue" stroke="midnightblue" points="356.668,-147.13 351.83,-137.704 349.734,-148.09 356.668,-147.13"/>
</g>
<!-- Node14 -->
<g id="node30" class="node"><title>Node14</title>
<polygon fill="white" stroke="#bfbfbf" points="1480.5,-58.5 1480.5,-79.5 1541.5,-79.5 1541.5,-58.5 1480.5,-58.5"/>
<text text-anchor="middle" x="1511" y="-66.5" font-family="Helvetica,sans-Serif" font-size="10.00">QtWebKit</text>
</g>
<!-- Node1&#45;&gt;Node14 -->
<g id="edge158" class="edge"><title>Node1&#45;&gt;Node14</title>
<path fill="none" stroke="midnightblue" d="M1468.92,-362.185C1471.77,-336.36 1483.01,-271.366 1525,-246 1596.47,-202.83 1819.74,-236.268 1899,-210 1962.98,-188.796 2063.41,-165.809 2018,-116 1986.78,-81.7511 1666.5,-72.0748 1551.68,-69.6951"/>
<polygon fill="midnightblue" stroke="midnightblue" points="1551.61,-66.1931 1541.55,-69.493 1551.47,-73.1917 1551.61,-66.1931"/>
</g>
<!-- Node22 -->
<g id="node49" class="node"><title>Node22</title>
<a xlink:href="BannerMessageEventFactory_8h.htm" target="_top" xlink:title="BannerMessageEventFactory.h">
<polygon fill="white" stroke="black" points="1472.5,-181.5 1472.5,-202.5 1637.5,-202.5 1637.5,-181.5 1472.5,-181.5"/>
<text text-anchor="middle" x="1555" y="-189.5" font-family="Helvetica,sans-Serif" font-size="10.00">BannerMessageEventFactory.h</text>
</a>
</g>
<!-- Node1&#45;&gt;Node22 -->
<g id="edge54" class="edge"><title>Node1&#45;&gt;Node22</title>
<path fill="none" stroke="midnightblue" d="M1427.6,-362.439C1409.08,-355.357 1388.87,-343.94 1378,-326 1359.57,-295.591 1356.84,-274.575 1378,-246 1391.12,-228.274 1441.09,-214.028 1484.6,-204.629"/>
<polygon fill="midnightblue" stroke="midnightblue" points="1485.56,-208.003 1494.63,-202.521 1484.12,-201.153 1485.56,-208.003"/>
</g>
<!-- Node29 -->
<g id="node64" class="node"><title>Node29</title>
<a xlink:href="CardWebApp_8h.htm" target="_top" xlink:title="CardWebApp.h">
<polygon fill="white" stroke="black" points="1496,-304.5 1496,-325.5 1584,-325.5 1584,-304.5 1496,-304.5"/>
<text text-anchor="middle" x="1540" y="-312.5" font-family="Helvetica,sans-Serif" font-size="10.00">CardWebApp.h</text>
</a>
</g>
<!-- Node1&#45;&gt;Node29 -->
<g id="edge70" class="edge"><title>Node1&#45;&gt;Node29</title>
<path fill="none" stroke="midnightblue" d="M1481.21,-362.362C1491.76,-353.859 1506.76,-341.779 1518.96,-331.947"/>
<polygon fill="midnightblue" stroke="midnightblue" points="1521.29,-334.57 1526.88,-325.571 1516.89,-329.118 1521.29,-334.57"/>
</g>
<!-- Node33 -->
<g id="node76" class="node"><title>Node33</title>
<a xlink:href="DeviceInfo_8h.htm" target="_top" xlink:title="DeviceInfo.h">
<polygon fill="white" stroke="black" points="1654.5,-181.5 1654.5,-202.5 1729.5,-202.5 1729.5,-181.5 1654.5,-181.5"/>
<text text-anchor="middle" x="1692" y="-189.5" font-family="Helvetica,sans-Serif" font-size="10.00">DeviceInfo.h</text>
</a>
</g>
<!-- Node1&#45;&gt;Node33 -->
<g id="edge86" class="edge"><title>Node1&#45;&gt;Node33</title>
<path fill="none" stroke="midnightblue" d="M1449.9,-362.386C1437.82,-354.167 1422.91,-341.57 1416,-326 1401.57,-293.505 1392.88,-273.016 1416,-246 1449.63,-206.692 1596.06,-223.506 1646,-210 1650.1,-208.892 1654.33,-207.539 1658.49,-206.078"/>
<polygon fill="midnightblue" stroke="midnightblue" points="1659.84,-209.312 1667.98,-202.536 1657.39,-202.754 1659.84,-209.312"/>
</g>
<!-- Node34 -->
<g id="node80" class="node"><title>Node34</title>
<a xlink:href="KeyboardMapping_8h.htm" target="_top" xlink:title="KeyboardMapping.h">
<polygon fill="white" stroke="black" points="1601.5,-304.5 1601.5,-325.5 1712.5,-325.5 1712.5,-304.5 1601.5,-304.5"/>
<text text-anchor="middle" x="1657" y="-312.5" font-family="Helvetica,sans-Serif" font-size="10.00">KeyboardMapping.h</text>
</a>
</g>
<!-- Node1&#45;&gt;Node34 -->
<g id="edge92" class="edge"><title>Node1&#45;&gt;Node34</title>
<path fill="none" stroke="midnightblue" d="M1502.23,-362.497C1533.31,-352.959 1579.31,-338.841 1613.09,-328.475"/>
<polygon fill="midnightblue" stroke="midnightblue" points="1614.18,-331.803 1622.71,-325.523 1612.12,-325.111 1614.18,-331.803"/>
</g>
<!-- Node37 -->
<g id="node87" class="node"><title>Node37</title>
<polygon fill="white" stroke="#bfbfbf" points="1729.5,-304.5 1729.5,-325.5 1810.5,-325.5 1810.5,-304.5 1729.5,-304.5"/>
<text text-anchor="middle" x="1770" y="-312.5" font-family="Helvetica,sans-Serif" font-size="10.00">Localization.h</text>
</g>
<!-- Node1&#45;&gt;Node37 -->
<g id="edge100" class="edge"><title>Node1&#45;&gt;Node37</title>
<path fill="none" stroke="midnightblue" d="M1515.2,-364.773C1564,-356.144 1642.66,-341.901 1719.53,-326.255"/>
<polygon fill="midnightblue" stroke="midnightblue" points="1720.29,-329.673 1729.38,-324.24 1718.88,-322.815 1720.29,-329.673"/>
</g>
<!-- Node38 -->
<g id="node89" class="node"><title>Node38</title>
<a xlink:href="NewContentIndicatorEventFactory_8h.htm" target="_top" xlink:title="NewContentIndicatorEvent\lFactory.h">
<polygon fill="white" stroke="black" points="1747.5,-175 1747.5,-209 1890.5,-209 1890.5,-175 1747.5,-175"/>
<text text-anchor="start" x="1755.5" y="-196" font-family="Helvetica,sans-Serif" font-size="10.00">NewContentIndicatorEvent</text>
<text text-anchor="middle" x="1819" y="-183" font-family="Helvetica,sans-Serif" font-size="10.00">Factory.h</text>
</a>
</g>
<!-- Node1&#45;&gt;Node38 -->
<g id="edge102" class="edge"><title>Node1&#45;&gt;Node38</title>
<path fill="none" stroke="midnightblue" d="M1462.07,-362.205C1449.71,-338.077 1424.67,-279.284 1454,-246 1494.17,-200.416 1659.5,-219.02 1736.78,-209.835"/>
<polygon fill="midnightblue" stroke="midnightblue" points="1737.68,-213.241 1747.08,-208.345 1736.68,-206.313 1737.68,-213.241"/>
</g>
<!-- Node40 -->
<g id="node97" class="node"><title>Node40</title>
<polygon fill="white" stroke="#bfbfbf" points="1828,-304.5 1828,-325.5 1942,-325.5 1942,-304.5 1828,-304.5"/>
<text text-anchor="middle" x="1885" y="-312.5" font-family="Helvetica,sans-Serif" font-size="10.00">LocalePreferences.h</text>
</g>
<!-- Node1&#45;&gt;Node40 -->
<g id="edge114" class="edge"><title>Node1&#45;&gt;Node40</title>
<path fill="none" stroke="midnightblue" d="M1515.19,-367.169C1580.73,-358.962 1703.28,-343.229 1817.79,-326.149"/>
<polygon fill="midnightblue" stroke="midnightblue" points="1818.41,-329.595 1827.78,-324.652 1817.37,-322.672 1818.41,-329.595"/>
</g>
<!-- Node41 -->
<g id="node99" class="node"><title>Node41</title>
<polygon fill="white" stroke="#bfbfbf" points="1959.5,-304.5 1959.5,-325.5 2022.5,-325.5 2022.5,-304.5 1959.5,-304.5"/>
<text text-anchor="middle" x="1991" y="-312.5" font-family="Helvetica,sans-Serif" font-size="10.00">Settings.h</text>
</g>
<!-- Node1&#45;&gt;Node41 -->
<g id="edge116" class="edge"><title>Node1&#45;&gt;Node41</title>
<path fill="none" stroke="midnightblue" d="M1515.34,-371.087C1600.5,-367.062 1785.19,-355.676 1948.98,-326.142"/>
<polygon fill="midnightblue" stroke="midnightblue" points="1950.03,-329.508 1959.24,-324.263 1948.77,-322.622 1950.03,-329.508"/>
</g>
<!-- Node42 -->
<g id="node103" class="node"><title>Node42</title>
<a xlink:href="WebAppManager_8h.htm" target="_top" xlink:title="WebAppManager.h">
<polygon fill="white" stroke="red" points="793.5,-181.5 793.5,-202.5 900.5,-202.5 900.5,-181.5 793.5,-181.5"/>
<text text-anchor="middle" x="847" y="-189.5" font-family="Helvetica,sans-Serif" font-size="10.00">WebAppManager.h</text>
</a>
</g>
<!-- Node1&#45;&gt;Node42 -->
<g id="edge122" class="edge"><title>Node1&#45;&gt;Node42</title>
<path fill="none" stroke="midnightblue" d="M1420.78,-369.787C1330.79,-363.265 1138.08,-347.267 1075,-326 992.486,-298.18 907.094,-238.035 868.376,-208.729"/>
<polygon fill="midnightblue" stroke="midnightblue" points="870.483,-205.934 860.414,-202.636 866.229,-211.493 870.483,-205.934"/>
</g>
<!-- Node48 -->
<g id="node128" class="node"><title>Node48</title>
<polygon fill="white" stroke="#bfbfbf" points="2039.5,-304.5 2039.5,-325.5 2094.5,-325.5 2094.5,-304.5 2039.5,-304.5"/>
<text text-anchor="middle" x="2067" y="-312.5" font-family="Helvetica,sans-Serif" font-size="10.00">QDebug</text>
</g>
<!-- Node1&#45;&gt;Node48 -->
<g id="edge160" class="edge"><title>Node1&#45;&gt;Node48</title>
<path fill="none" stroke="midnightblue" d="M1515.23,-370.358C1628.69,-363.807 1915.07,-346.017 2029.37,-325.946"/>
<polygon fill="midnightblue" stroke="midnightblue" points="2030.04,-329.381 2039.24,-324.123 2028.77,-322.498 2030.04,-329.381"/>
</g>
<!-- Node49 -->
<g id="node130" class="node"><title>Node49</title>
<polygon fill="white" stroke="#bfbfbf" points="2112,-304.5 2112,-325.5 2186,-325.5 2186,-304.5 2112,-304.5"/>
<text text-anchor="middle" x="2149" y="-312.5" font-family="Helvetica,sans-Serif" font-size="10.00">pbnjson.hpp</text>
</g>
<!-- Node1&#45;&gt;Node49 -->
<g id="edge162" class="edge"><title>Node1&#45;&gt;Node49</title>
<path fill="none" stroke="midnightblue" d="M1515.3,-372.095C1619.62,-369.542 1877.39,-360.174 2101.95,-325.945"/>
<polygon fill="midnightblue" stroke="midnightblue" points="2102.6,-329.387 2111.94,-324.402 2101.53,-322.469 2102.6,-329.387"/>
</g>
<!-- Node50 -->
<g id="node132" class="node"><title>Node50</title>
<polygon fill="white" stroke="#bfbfbf" points="2203.5,-304.5 2203.5,-325.5 2328.5,-325.5 2328.5,-304.5 2203.5,-304.5"/>
<text text-anchor="middle" x="2266" y="-312.5" font-family="Helvetica,sans-Serif" font-size="10.00">PIpcMessageMacros.h</text>
</g>
<!-- Node1&#45;&gt;Node50 -->
<g id="edge164" class="edge"><title>Node1&#45;&gt;Node50</title>
<path fill="none" stroke="midnightblue" d="M1515.33,-371.402C1629.95,-367.219 1931.67,-354.332 2193.25,-326.117"/>
<polygon fill="midnightblue" stroke="midnightblue" points="2193.76,-329.583 2203.32,-325.021 2193,-322.624 2193.76,-329.583"/>
</g>
<!-- Node3 -->
<g id="node5" class="node"><title>Node3</title>
<polygon fill="white" stroke="#bfbfbf" points="222.5,-116.5 222.5,-137.5 277.5,-137.5 277.5,-116.5 222.5,-116.5"/>
<text text-anchor="middle" x="250" y="-124.5" font-family="Helvetica,sans-Serif" font-size="10.00">QObject</text>
</g>
<!-- Node2&#45;&gt;Node3 -->
<g id="edge4" class="edge"><title>Node2&#45;&gt;Node3</title>
<path fill="none" stroke="midnightblue" d="M250,-181.267C250,-172.18 250,-158.892 250,-147.74"/>
<polygon fill="midnightblue" stroke="midnightblue" points="253.5,-147.534 250,-137.534 246.5,-147.534 253.5,-147.534"/>
</g>
<!-- Node4 -->
<g id="node7" class="node"><title>Node4</title>
<polygon fill="white" stroke="#bfbfbf" points="0,-116.5 0,-137.5 80,-137.5 80,-116.5 0,-116.5"/>
<text text-anchor="middle" x="40" y="-124.5" font-family="Helvetica,sans-Serif" font-size="10.00">QVariantMap</text>
</g>
<!-- Node2&#45;&gt;Node4 -->
<g id="edge6" class="edge"><title>Node2&#45;&gt;Node4</title>
<path fill="none" stroke="midnightblue" d="M215.792,-181.412C179.793,-170.269 123.011,-152.694 83.7685,-140.547"/>
<polygon fill="midnightblue" stroke="midnightblue" points="84.7806,-137.197 74.1929,-137.584 82.7108,-143.884 84.7806,-137.197"/>
</g>
<!-- Node5 -->
<g id="node9" class="node"><title>Node5</title>
<polygon fill="white" stroke="#bfbfbf" points="152.5,-0.5 152.5,-21.5 205.5,-21.5 205.5,-0.5 152.5,-0.5"/>
<text text-anchor="middle" x="179" y="-8.5" font-family="Helvetica,sans-Serif" font-size="10.00">QString</text>
</g>
<!-- Node2&#45;&gt;Node5 -->
<g id="edge8" class="edge"><title>Node2&#45;&gt;Node5</title>
<path fill="none" stroke="midnightblue" d="M230.435,-181.387C201.45,-164.403 148.245,-128.078 127,-80 118.247,-60.1915 135.906,-40.7797 152.969,-27.6174"/>
<polygon fill="midnightblue" stroke="midnightblue" points="155.125,-30.3777 161.18,-21.6835 151.025,-24.7043 155.125,-30.3777"/>
</g>
<!-- Node6 -->
<g id="node11" class="node"><title>Node6</title>
<polygon fill="white" stroke="#bfbfbf" points="501,-116.5 501,-137.5 553,-137.5 553,-116.5 501,-116.5"/>
<text text-anchor="middle" x="527" y="-124.5" font-family="Helvetica,sans-Serif" font-size="10.00">Event.h</text>
</g>
<!-- Node2&#45;&gt;Node6 -->
<g id="edge10" class="edge"><title>Node2&#45;&gt;Node6</title>
<path fill="none" stroke="midnightblue" d="M291.77,-182.198C345.924,-169.491 439.488,-147.535 490.779,-135.5"/>
<polygon fill="midnightblue" stroke="midnightblue" points="491.815,-138.852 500.751,-133.16 490.216,-132.037 491.815,-138.852"/>
</g>
<!-- Node8 -->
<g id="node15" class="node"><title>Node8</title>
<polygon fill="white" stroke="#bfbfbf" points="1093.5,-0.5 1093.5,-21.5 1160.5,-21.5 1160.5,-0.5 1093.5,-0.5"/>
<text text-anchor="middle" x="1127" y="-8.5" font-family="Helvetica,sans-Serif" font-size="10.00">Common.h</text>
</g>
<!-- Node7&#45;&gt;Node8 -->
<g id="edge14" class="edge"><title>Node7&#45;&gt;Node8</title>
<path fill="none" stroke="midnightblue" d="M1083.97,-309.639C929.071,-289.459 413.164,-214.197 492,-116 510.666,-92.7499 724.622,-63.0914 754,-58 872.364,-37.4866 1013.33,-22.1756 1083.22,-15.1896"/>
<polygon fill="midnightblue" stroke="midnightblue" points="1083.8,-18.6491 1093.41,-14.18 1083.11,-11.6833 1083.8,-18.6491"/>
</g>
<!-- Node9 -->
<g id="node17" class="node"><title>Node9</title>
<a xlink:href="WindowedWebApp_8h.htm" target="_top" xlink:title="WindowedWebApp.h">
<polygon fill="white" stroke="red" points="1070,-246.5 1070,-267.5 1184,-267.5 1184,-246.5 1070,-246.5"/>
<text text-anchor="middle" x="1127" y="-254.5" font-family="Helvetica,sans-Serif" font-size="10.00">WindowedWebApp.h</text>
</a>
</g>
<!-- Node7&#45;&gt;Node9 -->
<g id="edge16" class="edge"><title>Node7&#45;&gt;Node9</title>
<path fill="none" stroke="midnightblue" d="M1127,-304.362C1127,-296.922 1127,-286.743 1127,-277.728"/>
<polygon fill="midnightblue" stroke="midnightblue" points="1130.5,-277.571 1127,-267.571 1123.5,-277.571 1130.5,-277.571"/>
</g>
<!-- Node9&#45;&gt;Node6 -->
<g id="edge50" class="edge"><title>Node9&#45;&gt;Node6</title>
<path fill="none" stroke="midnightblue" d="M1069.87,-252.226C1001.52,-245.808 883.905,-232.523 785,-210 704.094,-191.575 612.224,-159.148 562.888,-140.754"/>
<polygon fill="midnightblue" stroke="midnightblue" points="563.907,-137.397 553.315,-137.161 561.447,-143.951 563.907,-137.397"/>
</g>
<!-- Node9&#45;&gt;Node8 -->
<g id="edge18" class="edge"><title>Node9&#45;&gt;Node8</title>
<path fill="none" stroke="midnightblue" d="M1127,-246.43C1127,-208.975 1127,-82.138 1127,-31.8186"/>
<polygon fill="midnightblue" stroke="midnightblue" points="1130.5,-31.5309 1127,-21.5309 1123.5,-31.531 1130.5,-31.5309"/>
</g>
<!-- Node10 -->
<g id="node20" class="node"><title>Node10</title>
<polygon fill="white" stroke="#bfbfbf" points="1070.5,-116.5 1070.5,-137.5 1099.5,-137.5 1099.5,-116.5 1070.5,-116.5"/>
<text text-anchor="middle" x="1085" y="-124.5" font-family="Helvetica,sans-Serif" font-size="10.00">list</text>
</g>
<!-- Node9&#45;&gt;Node10 -->
<g id="edge20" class="edge"><title>Node9&#45;&gt;Node10</title>
<path fill="none" stroke="midnightblue" d="M1123.56,-246.362C1116.58,-224.746 1100.63,-175.372 1091.58,-147.369"/>
<polygon fill="midnightblue" stroke="midnightblue" points="1094.89,-146.225 1088.48,-137.785 1088.23,-148.377 1094.89,-146.225"/>
</g>
<!-- Node9&#45;&gt;Node11 -->
<g id="edge22" class="edge"><title>Node9&#45;&gt;Node11</title>
<path fill="none" stroke="midnightblue" d="M1069.78,-251.625C938.784,-239.321 618.502,-209.236 489.834,-197.151"/>
<polygon fill="midnightblue" stroke="midnightblue" points="490.094,-193.66 479.81,-196.209 489.439,-200.629 490.094,-193.66"/>
</g>
<!-- Node20 -->
<g id="node44" class="node"><title>Node20</title>
<polygon fill="white" stroke="#bfbfbf" points="1271.5,-181.5 1271.5,-202.5 1314.5,-202.5 1314.5,-181.5 1271.5,-181.5"/>
<text text-anchor="middle" x="1293" y="-189.5" font-family="Helvetica,sans-Serif" font-size="10.00">sptr.h</text>
</g>
<!-- Node9&#45;&gt;Node20 -->
<g id="edge48" class="edge"><title>Node9&#45;&gt;Node20</title>
<path fill="none" stroke="midnightblue" d="M1154.04,-246.412C1183.55,-234.856 1230.73,-216.382 1261.79,-204.219"/>
<polygon fill="midnightblue" stroke="midnightblue" points="1263.23,-207.414 1271.27,-200.509 1260.68,-200.896 1263.23,-207.414"/>
</g>
<!-- Node21 -->
<g id="node47" class="node"><title>Node21</title>
<polygon fill="white" stroke="#bfbfbf" points="1155,-116.5 1155,-137.5 1247,-137.5 1247,-116.5 1155,-116.5"/>
<text text-anchor="middle" x="1201" y="-124.5" font-family="Helvetica,sans-Serif" font-size="10.00">WindowTypes.h</text>
</g>
<!-- Node9&#45;&gt;Node21 -->
<g id="edge52" class="edge"><title>Node9&#45;&gt;Node21</title>
<path fill="none" stroke="midnightblue" d="M1133.06,-246.362C1145.47,-224.555 1173.96,-174.5 1189.82,-146.634"/>
<polygon fill="midnightblue" stroke="midnightblue" points="1192.96,-148.208 1194.86,-137.785 1186.87,-144.745 1192.96,-148.208"/>
</g>
<!-- Node11&#45;&gt;Node3 -->
<g id="edge42" class="edge"><title>Node11&#45;&gt;Node3</title>
<path fill="none" stroke="midnightblue" d="M404.865,-181.412C372.808,-170.149 322.046,-152.314 287.444,-140.156"/>
<polygon fill="midnightblue" stroke="midnightblue" points="288.297,-136.746 277.703,-136.733 285.977,-143.35 288.297,-136.746"/>
</g>
<!-- Node11&#45;&gt;Node12 -->
<g id="edge24" class="edge"><title>Node11&#45;&gt;Node12</title>
<path fill="none" stroke="midnightblue" d="M421.129,-181.267C407.918,-171.044 387.836,-155.504 372.543,-143.67"/>
<polygon fill="midnightblue" stroke="midnightblue" points="374.663,-140.886 364.613,-137.534 370.38,-146.422 374.663,-140.886"/>
</g>
<!-- Node16 -->
<g id="node34" class="node"><title>Node16</title>
<polygon fill="white" stroke="#bfbfbf" points="498,-58.5 498,-79.5 596,-79.5 596,-58.5 498,-58.5"/>
<text text-anchor="middle" x="547" y="-66.5" font-family="Helvetica,sans-Serif" font-size="10.00">palmimedefines.h</text>
</g>
<!-- Node11&#45;&gt;Node16 -->
<g id="edge46" class="edge"><title>Node11&#45;&gt;Node16</title>
<path fill="none" stroke="midnightblue" d="M435.824,-181.477C437.568,-165.613 442.911,-135.373 459,-116 470.933,-101.632 488.427,-91.0285 504.68,-83.5681"/>
<polygon fill="midnightblue" stroke="midnightblue" points="506.253,-86.7017 514.055,-79.534 503.486,-80.2718 506.253,-86.7017"/>
</g>
<!-- Node19 -->
<g id="node41" class="node"><title>Node19</title>
<polygon fill="white" stroke="#bfbfbf" points="571,-116.5 571,-137.5 649,-137.5 649,-116.5 571,-116.5"/>
<text text-anchor="middle" x="610" y="-124.5" font-family="Helvetica,sans-Serif" font-size="10.00">lunaservice.h</text>
</g>
<!-- Node11&#45;&gt;Node19 -->
<g id="edge44" class="edge"><title>Node11&#45;&gt;Node19</title>
<path fill="none" stroke="midnightblue" d="M463.506,-181.412C492.998,-170.458 539.225,-153.288 571.851,-141.17"/>
<polygon fill="midnightblue" stroke="midnightblue" points="573.35,-144.346 581.506,-137.584 570.913,-137.784 573.35,-144.346"/>
</g>
<!-- Node13 -->
<g id="node26" class="node"><title>Node13</title>
<a xlink:href="ProcessBase_8h.htm" target="_top" xlink:title="ProcessBase.h">
<polygon fill="white" stroke="black" points="135.5,-58.5 135.5,-79.5 222.5,-79.5 222.5,-58.5 135.5,-58.5"/>
<text text-anchor="middle" x="179" y="-66.5" font-family="Helvetica,sans-Serif" font-size="10.00">ProcessBase.h</text>
</a>
</g>
<!-- Node12&#45;&gt;Node13 -->
<g id="edge26" class="edge"><title>Node12&#45;&gt;Node13</title>
<path fill="none" stroke="midnightblue" d="M319.852,-116.497C291.811,-107.041 250.418,-93.0829 219.755,-82.7428"/>
<polygon fill="midnightblue" stroke="midnightblue" points="220.8,-79.4019 210.206,-79.5231 218.564,-86.035 220.8,-79.4019"/>
</g>
<!-- Node12&#45;&gt;Node14 -->
<g id="edge32" class="edge"><title>Node12&#45;&gt;Node14</title>
<path fill="none" stroke="midnightblue" d="M407.573,-122.174C433.318,-120.084 464.185,-117.726 492,-116 590.681,-109.877 1292.59,-78.6723 1470.23,-70.8036"/>
<polygon fill="midnightblue" stroke="midnightblue" points="1470.62,-74.29 1480.45,-70.351 1470.31,-67.2969 1470.62,-74.29"/>
</g>
<!-- Node15 -->
<g id="node32" class="node"><title>Node15</title>
<polygon fill="white" stroke="#bfbfbf" points="239.5,-58.5 239.5,-79.5 298.5,-79.5 298.5,-58.5 239.5,-58.5"/>
<text text-anchor="middle" x="269" y="-66.5" font-family="Helvetica,sans-Serif" font-size="10.00">QPointer</text>
</g>
<!-- Node12&#45;&gt;Node15 -->
<g id="edge34" class="edge"><title>Node12&#45;&gt;Node15</title>
<path fill="none" stroke="midnightblue" d="M335.96,-116.362C323.707,-107.696 306.201,-95.3126 292.161,-85.3819"/>
<polygon fill="midnightblue" stroke="midnightblue" points="294.13,-82.4879 283.945,-79.5707 290.088,-88.2028 294.13,-82.4879"/>
</g>
<!-- Node12&#45;&gt;Node16 -->
<g id="edge36" class="edge"><title>Node12&#45;&gt;Node16</title>
<path fill="none" stroke="midnightblue" d="M386.494,-116.497C418.724,-106.959 466.434,-92.8408 501.464,-82.475"/>
<polygon fill="midnightblue" stroke="midnightblue" points="502.844,-85.7168 511.439,-79.5231 500.857,-79.0045 502.844,-85.7168"/>
</g>
<!-- Node17 -->
<g id="node36" class="node"><title>Node17</title>
<polygon fill="white" stroke="#bfbfbf" points="315.5,-58.5 315.5,-79.5 386.5,-79.5 386.5,-58.5 315.5,-58.5"/>
<text text-anchor="middle" x="351" y="-66.5" font-family="Helvetica,sans-Serif" font-size="10.00">QWebPage</text>
</g>
<!-- Node12&#45;&gt;Node17 -->
<g id="edge38" class="edge"><title>Node12&#45;&gt;Node17</title>
<path fill="none" stroke="midnightblue" d="M351,-116.362C351,-108.922 351,-98.7427 351,-89.7276"/>
<polygon fill="midnightblue" stroke="midnightblue" points="354.5,-89.5706 351,-79.5707 347.5,-89.5707 354.5,-89.5706"/>
</g>
<!-- Node18 -->
<g id="node38" class="node"><title>Node18</title>
<polygon fill="white" stroke="#bfbfbf" points="404,-58.5 404,-79.5 480,-79.5 480,-58.5 404,-58.5"/>
<text text-anchor="middle" x="442" y="-66.5" font-family="Helvetica,sans-Serif" font-size="10.00">QWebFrame</text>
</g>
<!-- Node12&#45;&gt;Node18 -->
<g id="edge40" class="edge"><title>Node12&#45;&gt;Node18</title>
<path fill="none" stroke="midnightblue" d="M367.691,-116.362C381.416,-107.614 401.084,-95.0786 416.737,-85.1015"/>
<polygon fill="midnightblue" stroke="midnightblue" points="418.863,-87.8969 425.415,-79.5707 415.101,-81.994 418.863,-87.8969"/>
</g>
<!-- Node13&#45;&gt;Node5 -->
<g id="edge30" class="edge"><title>Node13&#45;&gt;Node5</title>
<path fill="none" stroke="midnightblue" d="M179,-58.3619C179,-50.9219 179,-40.7427 179,-31.7276"/>
<polygon fill="midnightblue" stroke="midnightblue" points="182.5,-31.5706 179,-21.5707 175.5,-31.5707 182.5,-31.5706"/>
</g>
<!-- Node13&#45;&gt;Node8 -->
<g id="edge28" class="edge"><title>Node13&#45;&gt;Node8</title>
<path fill="none" stroke="midnightblue" d="M222.608,-59.2596C225.44,-58.7868 228.255,-58.3601 231,-58 398.773,-35.9913 927.107,-17.4877 1083.18,-12.3913"/>
<polygon fill="midnightblue" stroke="midnightblue" points="1083.45,-15.8842 1093.34,-12.0613 1083.23,-8.88788 1083.45,-15.8842"/>
</g>
<!-- Node22&#45;&gt;Node8 -->
<g id="edge56" class="edge"><title>Node22&#45;&gt;Node8</title>
<path fill="none" stroke="midnightblue" d="M1472.24,-183.191C1428.36,-175.829 1374.83,-162.4 1332,-138 1288.85,-113.42 1295.64,-85.0582 1254,-58 1228.42,-41.3757 1196.14,-29.5281 1170.52,-21.8865"/>
<polygon fill="midnightblue" stroke="midnightblue" points="1171.28,-18.4636 1160.7,-19.0643 1169.35,-25.1911 1171.28,-18.4636"/>
</g>
<!-- Node23 -->
<g id="node52" class="node"><title>Node23</title>
<polygon fill="white" stroke="#bfbfbf" points="1341,-116.5 1341,-137.5 1471,-137.5 1471,-116.5 1341,-116.5"/>
<text text-anchor="middle" x="1406" y="-124.5" font-family="Helvetica,sans-Serif" font-size="10.00">BannerMessageEvent.h</text>
</g>
<!-- Node22&#45;&gt;Node23 -->
<g id="edge58" class="edge"><title>Node22&#45;&gt;Node23</title>
<path fill="none" stroke="midnightblue" d="M1530.73,-181.412C1505.94,-170.6 1467.28,-153.731 1439.56,-141.642"/>
<polygon fill="midnightblue" stroke="midnightblue" points="1440.83,-138.374 1430.26,-137.584 1438.03,-144.79 1440.83,-138.374"/>
</g>
<!-- Node24 -->
<g id="node54" class="node"><title>Node24</title>
<polygon fill="white" stroke="#bfbfbf" points="1488.5,-116.5 1488.5,-137.5 1621.5,-137.5 1621.5,-116.5 1488.5,-116.5"/>
<text text-anchor="middle" x="1555" y="-124.5" font-family="Helvetica,sans-Serif" font-size="10.00">ActiveCallBannerEvent.h</text>
</g>
<!-- Node22&#45;&gt;Node24 -->
<g id="edge60" class="edge"><title>Node22&#45;&gt;Node24</title>
<path fill="none" stroke="midnightblue" d="M1555,-181.267C1555,-172.18 1555,-158.892 1555,-147.74"/>
<polygon fill="midnightblue" stroke="midnightblue" points="1558.5,-147.534 1555,-137.534 1551.5,-147.534 1558.5,-147.534"/>
</g>
<!-- Node25 -->
<g id="node56" class="node"><title>Node25</title>
<polygon fill="white" stroke="#bfbfbf" points="1737,-116.5 1737,-137.5 1781,-137.5 1781,-116.5 1737,-116.5"/>
<text text-anchor="middle" x="1759" y="-124.5" font-family="Helvetica,sans-Serif" font-size="10.00">time.h</text>
</g>
<!-- Node22&#45;&gt;Node25 -->
<g id="edge62" class="edge"><title>Node22&#45;&gt;Node25</title>
<path fill="none" stroke="midnightblue" d="M1588.23,-181.412C1626.52,-169.213 1689,-149.303 1726.83,-137.249"/>
<polygon fill="midnightblue" stroke="midnightblue" points="1728.34,-140.441 1736.81,-134.07 1726.22,-133.772 1728.34,-140.441"/>
</g>
<!-- Node26 -->
<g id="node58" class="node"><title>Node26</title>
<polygon fill="white" stroke="#bfbfbf" points="1798.5,-116.5 1798.5,-137.5 1839.5,-137.5 1839.5,-116.5 1798.5,-116.5"/>
<text text-anchor="middle" x="1819" y="-124.5" font-family="Helvetica,sans-Serif" font-size="10.00">glib.h</text>
</g>
<!-- Node22&#45;&gt;Node26 -->
<g id="edge64" class="edge"><title>Node22&#45;&gt;Node26</title>
<path fill="none" stroke="midnightblue" d="M1604.44,-181.471C1658.58,-169.808 1742.87,-151.216 1788.54,-138.142"/>
<polygon fill="midnightblue" stroke="midnightblue" points="1789.62,-141.474 1798.21,-135.276 1787.63,-134.763 1789.62,-141.474"/>
</g>
<!-- Node27 -->
<g id="node60" class="node"><title>Node27</title>
<polygon fill="white" stroke="#bfbfbf" points="1638.5,-116.5 1638.5,-137.5 1681.5,-137.5 1681.5,-116.5 1638.5,-116.5"/>
<text text-anchor="middle" x="1660" y="-124.5" font-family="Helvetica,sans-Serif" font-size="10.00">string</text>
</g>
<!-- Node22&#45;&gt;Node27 -->
<g id="edge66" class="edge"><title>Node22&#45;&gt;Node27</title>
<path fill="none" stroke="midnightblue" d="M1572.34,-181.267C1589.23,-170.807 1615.12,-154.782 1634.39,-142.854"/>
<polygon fill="midnightblue" stroke="midnightblue" points="1636.32,-145.773 1642.98,-137.534 1632.64,-139.821 1636.32,-145.773"/>
</g>
<!-- Node28 -->
<g id="node62" class="node"><title>Node28</title>
<polygon fill="white" stroke="#bfbfbf" points="1195,-58.5 1195,-79.5 1245,-79.5 1245,-58.5 1195,-58.5"/>
<text text-anchor="middle" x="1220" y="-66.5" font-family="Helvetica,sans-Serif" font-size="10.00">stdint.h</text>
</g>
<!-- Node22&#45;&gt;Node28 -->
<g id="edge68" class="edge"><title>Node22&#45;&gt;Node28</title>
<path fill="none" stroke="midnightblue" d="M1501.62,-181.454C1429.29,-167.062 1308.08,-142.532 1299,-138 1273.89,-125.466 1250.38,-103.012 1235.64,-87.1276"/>
<polygon fill="midnightblue" stroke="midnightblue" points="1238.07,-84.5929 1228.78,-79.5069 1232.87,-89.2788 1238.07,-84.5929"/>
</g>
<!-- Node29&#45;&gt;Node8 -->
<g id="edge72" class="edge"><title>Node29&#45;&gt;Node8</title>
<path fill="none" stroke="midnightblue" d="M1584.21,-305.62C1587.18,-305.053 1590.13,-304.507 1593,-304 1759.65,-274.538 1822.59,-305.951 1962,-210 2006.03,-179.698 2068.36,-159.278 2037,-116 1988.43,-48.9668 1941.29,-73.6622 1860,-58 1726.68,-32.3114 1307.95,-16.8383 1170.9,-12.3609"/>
<polygon fill="midnightblue" stroke="midnightblue" points="1170.88,-8.85849 1160.77,-12.0333 1170.65,-15.8548 1170.88,-8.85849"/>
</g>
<!-- Node29&#45;&gt;Node9 -->
<g id="edge76" class="edge"><title>Node29&#45;&gt;Node9</title>
<path fill="none" stroke="midnightblue" d="M1495.8,-308.793C1423.42,-298.627 1279.15,-278.367 1194.09,-266.422"/>
<polygon fill="midnightblue" stroke="midnightblue" points="1194.41,-262.932 1184.02,-265.008 1193.44,-269.864 1194.41,-262.932"/>
</g>
<!-- Node29&#45;&gt;Node20 -->
<g id="edge74" class="edge"><title>Node29&#45;&gt;Node20</title>
<path fill="none" stroke="midnightblue" d="M1518.51,-304.3C1474.52,-282.391 1374.07,-232.37 1323.41,-207.143"/>
<polygon fill="midnightblue" stroke="midnightblue" points="1324.77,-203.913 1314.26,-202.588 1321.65,-210.179 1324.77,-203.913"/>
</g>
<!-- Node29&#45;&gt;Node21 -->
<g id="edge78" class="edge"><title>Node29&#45;&gt;Node21</title>
<path fill="none" stroke="midnightblue" d="M1525.9,-304.329C1492.22,-279.183 1403.85,-215.229 1323,-174 1297.32,-160.904 1267.09,-149.235 1243.15,-140.799"/>
<polygon fill="midnightblue" stroke="midnightblue" points="1244.24,-137.471 1233.64,-137.502 1241.94,-144.085 1244.24,-137.471"/>
</g>
<!-- Node30 -->
<g id="node70" class="node"><title>Node30</title>
<polygon fill="white" stroke="#bfbfbf" points="1533.5,-246.5 1533.5,-267.5 1616.5,-267.5 1616.5,-246.5 1533.5,-246.5"/>
<text text-anchor="middle" x="1575" y="-254.5" font-family="Helvetica,sans-Serif" font-size="10.00">SysMgrDefs.h</text>
</g>
<!-- Node29&#45;&gt;Node30 -->
<g id="edge80" class="edge"><title>Node29&#45;&gt;Node30</title>
<path fill="none" stroke="midnightblue" d="M1546.42,-304.362C1551.16,-296.513 1557.73,-285.616 1563.38,-276.253"/>
<polygon fill="midnightblue" stroke="midnightblue" points="1566.45,-277.941 1568.62,-267.571 1560.46,-274.324 1566.45,-277.941"/>
</g>
<!-- Node31 -->
<g id="node72" class="node"><title>Node31</title>
<polygon fill="white" stroke="#bfbfbf" points="1634,-246.5 1634,-267.5 1722,-267.5 1722,-246.5 1634,-246.5"/>
<text text-anchor="middle" x="1678" y="-254.5" font-family="Helvetica,sans-Serif" font-size="10.00">QGraphicsItem</text>
</g>
<!-- Node29&#45;&gt;Node31 -->
<g id="edge82" class="edge"><title>Node29&#45;&gt;Node31</title>
<path fill="none" stroke="midnightblue" d="M1564.99,-304.497C1586.93,-295.275 1619.07,-281.769 1643.46,-271.515"/>
<polygon fill="midnightblue" stroke="midnightblue" points="1644.87,-274.722 1652.73,-267.621 1642.15,-268.269 1644.87,-274.722"/>
</g>
<!-- Node32 -->
<g id="node74" class="node"><title>Node32</title>
<polygon fill="white" stroke="#bfbfbf" points="1740,-246.5 1740,-267.5 1830,-267.5 1830,-246.5 1740,-246.5"/>
<text text-anchor="middle" x="1785" y="-254.5" font-family="Helvetica,sans-Serif" font-size="10.00">QGraphicsView</text>
</g>
<!-- Node29&#45;&gt;Node32 -->
<g id="edge84" class="edge"><title>Node29&#45;&gt;Node32</title>
<path fill="none" stroke="midnightblue" d="M1584.08,-304.564C1625.11,-294.851 1686.38,-280.346 1730.47,-269.909"/>
<polygon fill="midnightblue" stroke="midnightblue" points="1731.52,-273.258 1740.44,-267.548 1729.91,-266.446 1731.52,-273.258"/>
</g>
<!-- Node33&#45;&gt;Node8 -->
<g id="edge88" class="edge"><title>Node33&#45;&gt;Node8</title>
<path fill="none" stroke="midnightblue" d="M1695.07,-181.322C1698.93,-165.528 1703.53,-135.688 1690,-116 1651.85,-60.4959 1615.23,-74.7743 1550,-58 1479.03,-39.7485 1264.09,-21.5638 1170.89,-14.2997"/>
<polygon fill="midnightblue" stroke="midnightblue" points="1170.91,-10.7911 1160.67,-13.5091 1170.37,-17.7702 1170.91,-10.7911"/>
</g>
<!-- Node33&#45;&gt;Node27 -->
<g id="edge90" class="edge"><title>Node33&#45;&gt;Node27</title>
<path fill="none" stroke="midnightblue" d="M1686.72,-181.267C1682.1,-171.896 1675.29,-158.057 1669.7,-146.7"/>
<polygon fill="midnightblue" stroke="midnightblue" points="1672.74,-144.96 1665.19,-137.534 1666.46,-148.051 1672.74,-144.96"/>
</g>
<!-- Node34&#45;&gt;Node8 -->
<g id="edge94" class="edge"><title>Node34&#45;&gt;Node8</title>
<path fill="none" stroke="midnightblue" d="M1712.81,-305.128C1715.57,-304.727 1718.32,-304.348 1721,-304 1811.92,-292.225 2062.27,-327.525 2132,-268 2158.48,-245.395 2151,-226.817 2151,-192 2151,-192 2151,-192 2151,-127 2151,-26.8061 1366.97,-13.139 1170.99,-11.2878"/>
<polygon fill="midnightblue" stroke="midnightblue" points="1170.81,-7.78612 1160.78,-11.1971 1170.75,-14.7858 1170.81,-7.78612"/>
</g>
<!-- Node35 -->
<g id="node83" class="node"><title>Node35</title>
<polygon fill="white" stroke="#bfbfbf" points="1946.5,-246.5 1946.5,-267.5 1975.5,-267.5 1975.5,-246.5 1946.5,-246.5"/>
<text text-anchor="middle" x="1961" y="-254.5" font-family="Helvetica,sans-Serif" font-size="10.00">Qt</text>
</g>
<!-- Node34&#45;&gt;Node35 -->
<g id="edge96" class="edge"><title>Node34&#45;&gt;Node35</title>
<path fill="none" stroke="midnightblue" d="M1712.5,-305.454C1715.38,-304.961 1718.22,-304.475 1721,-304 1815.21,-287.906 1840.92,-293.609 1933,-268 1934.25,-267.654 1935.51,-267.271 1936.78,-266.864"/>
<polygon fill="midnightblue" stroke="midnightblue" points="1938.15,-270.09 1946.37,-263.403 1935.78,-263.505 1938.15,-270.09"/>
</g>
<!-- Node36 -->
<g id="node85" class="node"><title>Node36</title>
<polygon fill="white" stroke="#bfbfbf" points="1992.5,-246.5 1992.5,-267.5 2123.5,-267.5 2123.5,-246.5 1992.5,-246.5"/>
<text text-anchor="middle" x="2058" y="-254.5" font-family="Helvetica,sans-Serif" font-size="10.00">SysMgrDeviceKeydefs.h</text>
</g>
<!-- Node34&#45;&gt;Node36 -->
<g id="edge98" class="edge"><title>Node34&#45;&gt;Node36</title>
<path fill="none" stroke="midnightblue" d="M1712.83,-305.289C1715.59,-304.845 1718.33,-304.413 1721,-304 1834.41,-286.497 1865.52,-284.759 1982.19,-268.244"/>
<polygon fill="midnightblue" stroke="midnightblue" points="1982.83,-271.689 1992.24,-266.816 1981.85,-264.758 1982.83,-271.689"/>
</g>
<!-- Node38&#45;&gt;Node8 -->
<g id="edge104" class="edge"><title>Node38&#45;&gt;Node8</title>
<path fill="none" stroke="midnightblue" d="M1890.73,-187.594C1962.88,-180.52 2058.15,-162.322 2018,-116 1961.79,-51.1497 1342.03,-20.1389 1170.67,-12.7657"/>
<polygon fill="midnightblue" stroke="midnightblue" points="1170.65,-9.26163 1160.51,-12.3336 1170.35,-16.2553 1170.65,-9.26163"/>
</g>
<!-- Node38&#45;&gt;Node25 -->
<g id="edge110" class="edge"><title>Node38&#45;&gt;Node25</title>
<path fill="none" stroke="midnightblue" d="M1803.24,-174.922C1794.86,-165.845 1784.55,-154.679 1775.99,-145.41"/>
<polygon fill="midnightblue" stroke="midnightblue" points="1778.37,-142.826 1769.02,-137.852 1773.23,-147.574 1778.37,-142.826"/>
</g>
<!-- Node38&#45;&gt;Node26 -->
<g id="edge108" class="edge"><title>Node38&#45;&gt;Node26</title>
<path fill="none" stroke="midnightblue" d="M1819,-174.922C1819,-166.67 1819,-156.692 1819,-147.982"/>
<polygon fill="midnightblue" stroke="midnightblue" points="1822.5,-147.852 1819,-137.852 1815.5,-147.852 1822.5,-147.852"/>
</g>
<!-- Node38&#45;&gt;Node27 -->
<g id="edge112" class="edge"><title>Node38&#45;&gt;Node27</title>
<path fill="none" stroke="midnightblue" d="M1777.22,-174.922C1750.21,-163.88 1715.64,-149.747 1691.06,-139.696"/>
<polygon fill="midnightblue" stroke="midnightblue" points="1692.09,-136.338 1681.51,-135.794 1689.44,-142.818 1692.09,-136.338"/>
</g>
<!-- Node39 -->
<g id="node92" class="node"><title>Node39</title>
<polygon fill="white" stroke="#bfbfbf" points="1857,-116.5 1857,-137.5 2009,-137.5 2009,-116.5 1857,-116.5"/>
<text text-anchor="middle" x="1933" y="-124.5" font-family="Helvetica,sans-Serif" font-size="10.00">NewContentIndicatorEvent.h</text>
</g>
<!-- Node38&#45;&gt;Node39 -->
<g id="edge106" class="edge"><title>Node38&#45;&gt;Node39</title>
<path fill="none" stroke="midnightblue" d="M1848.95,-174.922C1866.43,-164.957 1888.32,-152.473 1905.38,-142.745"/>
<polygon fill="midnightblue" stroke="midnightblue" points="1907.35,-145.652 1914.31,-137.658 1903.89,-139.571 1907.35,-145.652"/>
</g>
<!-- Node42&#45;&gt;Node5 -->
<g id="edge132" class="edge"><title>Node42&#45;&gt;Node5</title>
<path fill="none" stroke="midnightblue" d="M804.433,-181.442C773.099,-172.586 730.184,-158.135 696,-138 649.6,-110.67 654.269,-79.738 605,-58 535.506,-27.3386 305.903,-15.6895 215.774,-12.2292"/>
<polygon fill="midnightblue" stroke="midnightblue" points="215.866,-8.7303 205.743,-11.856 215.606,-15.7255 215.866,-8.7303"/>
</g>
<!-- Node42&#45;&gt;Node6 -->
<g id="edge140" class="edge"><title>Node42&#45;&gt;Node6</title>
<path fill="none" stroke="midnightblue" d="M793.277,-183.752C737.814,-174.805 648.661,-159.222 563.148,-138.09"/>
<polygon fill="midnightblue" stroke="midnightblue" points="563.829,-134.653 553.279,-135.622 562.131,-141.444 563.829,-134.653"/>
</g>
<!-- Node42&#45;&gt;Node8 -->
<g id="edge124" class="edge"><title>Node42&#45;&gt;Node8</title>
<path fill="none" stroke="midnightblue" d="M896.688,-181.495C929.24,-173.104 971.754,-159.188 1005,-138 1051.33,-108.474 1092.73,-57.828 1113.29,-30.2568"/>
<polygon fill="midnightblue" stroke="midnightblue" points="1116.36,-31.991 1119.44,-21.855 1110.71,-27.8554 1116.36,-31.991"/>
</g>
<!-- Node42&#45;&gt;Node10 -->
<g id="edge128" class="edge"><title>Node42&#45;&gt;Node10</title>
<path fill="none" stroke="midnightblue" d="M895.018,-181.423C937.895,-171.56 1002.2,-155.735 1057,-138 1058.23,-137.602 1059.48,-137.178 1060.75,-136.737"/>
<polygon fill="midnightblue" stroke="midnightblue" points="1062.16,-139.945 1070.3,-133.166 1059.71,-133.388 1062.16,-139.945"/>
</g>
<!-- Node42&#45;&gt;Node19 -->
<g id="edge156" class="edge"><title>Node42&#45;&gt;Node19</title>
<path fill="none" stroke="midnightblue" d="M808.658,-181.484C767.613,-170.227 702.413,-152.345 657.99,-140.162"/>
<polygon fill="midnightblue" stroke="midnightblue" points="658.856,-136.77 648.286,-137.501 657.005,-143.521 658.856,-136.77"/>
</g>
<!-- Node42&#45;&gt;Node21 -->
<g id="edge154" class="edge"><title>Node42&#45;&gt;Node21</title>
<path fill="none" stroke="midnightblue" d="M900.765,-182.128C966.72,-170.018 1078,-149.586 1144.97,-137.288"/>
<polygon fill="midnightblue" stroke="midnightblue" points="1145.72,-140.709 1154.92,-135.461 1144.45,-133.824 1145.72,-140.709"/>
</g>
<!-- Node42&#45;&gt;Node27 -->
<g id="edge130" class="edge"><title>Node42&#45;&gt;Node27</title>
<path fill="none" stroke="midnightblue" d="M900.751,-190.268C1050.57,-185.135 1471.62,-168.545 1628.32,-137.825"/>
<polygon fill="midnightblue" stroke="midnightblue" points="1629.17,-141.225 1638.26,-135.781 1627.76,-134.368 1629.17,-141.225"/>
</g>
<!-- Node43 -->
<g id="node106" class="node"><title>Node43</title>
<polygon fill="white" stroke="#bfbfbf" points="978.5,-58.5 978.5,-79.5 1015.5,-79.5 1015.5,-58.5 978.5,-58.5"/>
<text text-anchor="middle" x="997" y="-66.5" font-family="Helvetica,sans-Serif" font-size="10.00">map</text>
</g>
<!-- Node42&#45;&gt;Node43 -->
<g id="edge126" class="edge"><title>Node42&#45;&gt;Node43</title>
<path fill="none" stroke="midnightblue" d="M900.542,-184.421C930.163,-177.39 965.103,-163.885 986,-138 996.808,-124.612 999.016,-104.877 998.836,-89.9383"/>
<polygon fill="midnightblue" stroke="midnightblue" points="1002.32,-89.4528 998.336,-79.6343 995.325,-89.7922 1002.32,-89.4528"/>
</g>
<!-- Node44 -->
<g id="node111" class="node"><title>Node44</title>
<polygon fill="white" stroke="#bfbfbf" points="704.5,-116.5 704.5,-137.5 781.5,-137.5 781.5,-116.5 704.5,-116.5"/>
<text text-anchor="middle" x="743" y="-124.5" font-family="Helvetica,sans-Serif" font-size="10.00">QApplication</text>
</g>
<!-- Node42&#45;&gt;Node44 -->
<g id="edge134" class="edge"><title>Node42&#45;&gt;Node44</title>
<path fill="none" stroke="midnightblue" d="M829.827,-181.267C813.092,-170.807 787.451,-154.782 768.367,-142.854"/>
<polygon fill="midnightblue" stroke="midnightblue" points="770.189,-139.866 759.854,-137.534 766.479,-145.802 770.189,-139.866"/>
</g>
<!-- Node45 -->
<g id="node113" class="node"><title>Node45</title>
<a xlink:href="SyncTask_8h.htm" target="_top" xlink:title="SyncTask.h">
<polygon fill="white" stroke="red" points="762.5,-58.5 762.5,-79.5 833.5,-79.5 833.5,-58.5 762.5,-58.5"/>
<text text-anchor="middle" x="798" y="-66.5" font-family="Helvetica,sans-Serif" font-size="10.00">SyncTask.h</text>
</a>
</g>
<!-- Node42&#45;&gt;Node45 -->
<g id="edge136" class="edge"><title>Node42&#45;&gt;Node45</title>
<path fill="none" stroke="midnightblue" d="M842.652,-181.085C834.422,-160.427 816.459,-115.337 805.998,-89.0765"/>
<polygon fill="midnightblue" stroke="midnightblue" points="809.221,-87.71 802.269,-79.7153 802.718,-90.3006 809.221,-87.71"/>
</g>
<!-- Node46 -->
<g id="node117" class="node"><title>Node46</title>
<a xlink:href="MemoryWatcher_8h.htm" target="_top" xlink:title="MemoryWatcher.h">
<polygon fill="white" stroke="red" points="874.5,-116.5 874.5,-137.5 977.5,-137.5 977.5,-116.5 874.5,-116.5"/>
<text text-anchor="middle" x="926" y="-124.5" font-family="Helvetica,sans-Serif" font-size="10.00">MemoryWatcher.h</text>
</a>
</g>
<!-- Node42&#45;&gt;Node46 -->
<g id="edge142" class="edge"><title>Node42&#45;&gt;Node46</title>
<path fill="none" stroke="midnightblue" d="M860.045,-181.267C872.354,-171.139 891.007,-155.792 905.339,-144"/>
<polygon fill="midnightblue" stroke="midnightblue" points="907.699,-146.59 913.197,-137.534 903.252,-141.185 907.699,-146.59"/>
</g>
<!-- Node47 -->
<g id="node122" class="node"><title>Node47</title>
<polygon fill="white" stroke="#bfbfbf" points="851,-58.5 851,-79.5 923,-79.5 923,-58.5 851,-58.5"/>
<text text-anchor="middle" x="887" y="-66.5" font-family="Helvetica,sans-Serif" font-size="10.00">SignalSlot.h</text>
</g>
<!-- Node42&#45;&gt;Node47 -->
<g id="edge152" class="edge"><title>Node42&#45;&gt;Node47</title>
<path fill="none" stroke="midnightblue" d="M849.117,-181.002C852.135,-166.063 858.185,-138.625 866,-116 869.153,-106.871 873.386,-97.075 877.226,-88.8009"/>
<polygon fill="midnightblue" stroke="midnightblue" points="880.463,-90.1428 881.614,-79.6107 874.147,-87.1262 880.463,-90.1428"/>
</g>
<!-- Node45&#45;&gt;Node8 -->
<g id="edge138" class="edge"><title>Node45&#45;&gt;Node8</title>
<path fill="none" stroke="midnightblue" d="M833.964,-59.7554C836.677,-59.1356 839.378,-58.5429 842,-58 927.06,-40.3844 1027.49,-25.0892 1083.55,-17.0393"/>
<polygon fill="midnightblue" stroke="midnightblue" points="1084.09,-20.499 1093.49,-15.6216 1083.1,-13.5691 1084.09,-20.499"/>
</g>
<!-- Node46&#45;&gt;Node8 -->
<g id="edge144" class="edge"><title>Node46&#45;&gt;Node8</title>
<path fill="none" stroke="midnightblue" d="M929.936,-116.443C936.132,-101.266 949.595,-73.4156 970,-58 1003.12,-32.9759 1049.49,-21.2091 1083.24,-15.7166"/>
<polygon fill="midnightblue" stroke="midnightblue" points="1083.92,-19.1547 1093.28,-14.2057 1082.88,-12.2326 1083.92,-19.1547"/>
</g>
<!-- Node46&#45;&gt;Node28 -->
<g id="edge146" class="edge"><title>Node46&#45;&gt;Node28</title>
<path fill="none" stroke="midnightblue" d="M977.547,-116.831C1037.02,-105.098 1133.21,-86.1218 1184.74,-75.9563"/>
<polygon fill="midnightblue" stroke="midnightblue" points="1185.59,-79.3554 1194.73,-73.986 1184.24,-72.4878 1185.59,-79.3554"/>
</g>
<!-- Node46&#45;&gt;Node43 -->
<g id="edge148" class="edge"><title>Node46&#45;&gt;Node43</title>
<path fill="none" stroke="midnightblue" d="M939.022,-116.362C949.431,-107.859 964.219,-95.7785 976.255,-85.9466"/>
<polygon fill="midnightblue" stroke="midnightblue" points="978.53,-88.6077 984.06,-79.5707 974.101,-83.1866 978.53,-88.6077"/>
</g>
<!-- Node46&#45;&gt;Node47 -->
<g id="edge150" class="edge"><title>Node46&#45;&gt;Node47</title>
<path fill="none" stroke="midnightblue" d="M918.847,-116.362C913.514,-108.431 906.089,-97.3885 899.749,-87.9606"/>
<polygon fill="midnightblue" stroke="midnightblue" points="902.592,-85.9161 894.108,-79.5707 896.783,-89.8221 902.592,-85.9161"/>
</g>
</g>
</svg>
