<?xml version="1.0" encoding="UTF-8" standalone="no"?>
<!DOCTYPE svg PUBLIC "-//W3C//DTD SVG 1.1//EN"
 "http://www.w3.org/Graphics/SVG/1.1/DTD/svg11.dtd">
<!-- Generated by graphviz version 2.26.3 (20100126.1600)
 -->
<!-- Title: ProcessManager.h Pages: 1 -->
<svg width="260pt" height="88pt"
 viewBox="0.00 0.00 260.00 88.00" xmlns="http://www.w3.org/2000/svg" xmlns:xlink="http://www.w3.org/1999/xlink">
<g id="graph1" class="graph" transform="scale(1 1) rotate(0) translate(4 84)">
<title>ProcessManager.h</title>
<polygon fill="white" stroke="white" points="-4,5 -4,-84 257,-84 257,5 -4,5"/>
<!-- Node1 -->
<g id="node1" class="node"><title>Node1</title>
<polygon fill="#bfbfbf" stroke="black" points="72,-58.5 72,-79.5 178,-79.5 178,-58.5 72,-58.5"/>
<text text-anchor="middle" x="125" y="-66.5" font-family="Helvetica,sans-Serif" font-size="10.00">ProcessManager.h</text>
</g>
<!-- Node2 -->
<g id="node3" class="node"><title>Node2</title>
<a xlink:href="ProcessManager_8cpp.htm" target="_top" xlink:title="ProcessManager.cpp">
<polygon fill="white" stroke="black" points="-0.5,-0.5 -0.5,-21.5 116.5,-21.5 116.5,-0.5 -0.5,-0.5"/>
<text text-anchor="middle" x="58" y="-8.5" font-family="Helvetica,sans-Serif" font-size="10.00">ProcessManager.cpp</text>
</a>
</g>
<!-- Node1&#45;&gt;Node2 -->
<g id="edge2" class="edge"><title>Node1&#45;&gt;Node2</title>
<path fill="none" stroke="midnightblue" d="M105.005,-51.6908C93.6944,-41.8996 79.917,-29.973 70.2109,-21.5707"/>
<polygon fill="midnightblue" stroke="midnightblue" points="102.86,-54.4631 112.711,-58.3619 107.441,-49.1706 102.86,-54.4631"/>
</g>
<!-- Node3 -->
<g id="node5" class="node"><title>Node3</title>
<a xlink:href="WebAppManager_8cpp.htm" target="_top" xlink:title="WebAppManager.cpp">
<polygon fill="white" stroke="black" points="133.5,-0.5 133.5,-21.5 252.5,-21.5 252.5,-0.5 133.5,-0.5"/>
<text text-anchor="middle" x="193" y="-8.5" font-family="Helvetica,sans-Serif" font-size="10.00">WebAppManager.cpp</text>
</a>
</g>
<!-- Node1&#45;&gt;Node3 -->
<g id="edge4" class="edge"><title>Node1&#45;&gt;Node3</title>
<path fill="none" stroke="midnightblue" d="M145.294,-51.6908C156.773,-41.8996 170.756,-29.973 180.607,-21.5707"/>
<polygon fill="midnightblue" stroke="midnightblue" points="142.809,-49.2095 137.472,-58.3619 147.352,-54.5353 142.809,-49.2095"/>
</g>
</g>
</svg>
