<?xml version="1.0" encoding="UTF-8" standalone="no"?>
<!DOCTYPE svg PUBLIC "-//W3C//DTD SVG 1.1//EN"
 "http://www.w3.org/Graphics/SVG/1.1/DTD/svg11.dtd">
<!-- Generated by graphviz version 2.26.3 (20100126.1600)
 -->
<!-- Title: ProcessBase.h Pages: 1 -->
<svg width="144pt" height="88pt"
 viewBox="0.00 0.00 144.00 88.00" xmlns="http://www.w3.org/2000/svg" xmlns:xlink="http://www.w3.org/1999/xlink">
<g id="graph1" class="graph" transform="scale(1 1) rotate(0) translate(4 84)">
<title>ProcessBase.h</title>
<polygon fill="white" stroke="white" points="-4,5 -4,-84 141,-84 141,5 -4,5"/>
<!-- Node1 -->
<g id="node1" class="node"><title>Node1</title>
<polygon fill="#bfbfbf" stroke="black" points="27.5,-58.5 27.5,-79.5 114.5,-79.5 114.5,-58.5 27.5,-58.5"/>
<text text-anchor="middle" x="71" y="-66.5" font-family="Helvetica,sans-Serif" font-size="10.00">ProcessBase.h</text>
</g>
<!-- Node2 -->
<g id="node3" class="node"><title>Node2</title>
<polygon fill="white" stroke="#bfbfbf" points="-0.5,-0.5 -0.5,-21.5 66.5,-21.5 66.5,-0.5 -0.5,-0.5"/>
<text text-anchor="middle" x="33" y="-8.5" font-family="Helvetica,sans-Serif" font-size="10.00">Common.h</text>
</g>
<!-- Node1&#45;&gt;Node2 -->
<g id="edge2" class="edge"><title>Node1&#45;&gt;Node2</title>
<path fill="none" stroke="midnightblue" d="M64.0302,-58.3619C58.8343,-50.4313 51.5994,-39.3885 45.4225,-29.9606"/>
<polygon fill="midnightblue" stroke="midnightblue" points="48.3335,-28.0172 39.9256,-21.5707 42.4783,-31.8534 48.3335,-28.0172"/>
</g>
<!-- Node3 -->
<g id="node5" class="node"><title>Node3</title>
<polygon fill="white" stroke="#bfbfbf" points="83.5,-0.5 83.5,-21.5 136.5,-21.5 136.5,-0.5 83.5,-0.5"/>
<text text-anchor="middle" x="110" y="-8.5" font-family="Helvetica,sans-Serif" font-size="10.00">QString</text>
</g>
<!-- Node1&#45;&gt;Node3 -->
<g id="edge4" class="edge"><title>Node1&#45;&gt;Node3</title>
<path fill="none" stroke="midnightblue" d="M78.1532,-58.3619C83.4858,-50.4313 90.9112,-39.3885 97.2506,-29.9606"/>
<polygon fill="midnightblue" stroke="midnightblue" points="100.217,-31.8221 102.892,-21.5707 94.4077,-27.9161 100.217,-31.8221"/>
</g>
</g>
</svg>
