<?xml version="1.0" encoding="UTF-8" standalone="no"?>
<!DOCTYPE svg PUBLIC "-//W3C//DTD SVG 1.1//EN"
 "http://www.w3.org/Graphics/SVG/1.1/DTD/svg11.dtd">
<!-- Generated by graphviz version 2.26.3 (20100126.1600)
 -->
<!-- Title: ProcessManager.h Pages: 1 -->
<svg width="225pt" height="146pt"
 viewBox="0.00 0.00 225.09 146.00" xmlns="http://www.w3.org/2000/svg" xmlns:xlink="http://www.w3.org/1999/xlink">
<g id="graph1" class="graph" transform="scale(1 1) rotate(0) translate(4 142)">
<title>ProcessManager.h</title>
<polygon fill="white" stroke="white" points="-4,5 -4,-142 222.089,-142 222.089,5 -4,5"/>
<!-- Node1 -->
<g id="node1" class="node"><title>Node1</title>
<polygon fill="#bfbfbf" stroke="black" points="15.0894,-116.5 15.0894,-137.5 121.089,-137.5 121.089,-116.5 15.0894,-116.5"/>
<text text-anchor="middle" x="68.0894" y="-124.5" font-family="Helvetica,sans-Serif" font-size="10.00">ProcessManager.h</text>
</g>
<!-- Node2 -->
<g id="node3" class="node"><title>Node2</title>
<polygon fill="white" stroke="#bfbfbf" points="5.58937,-0.5 5.58937,-21.5 72.5894,-21.5 72.5894,-0.5 5.58937,-0.5"/>
<text text-anchor="middle" x="39.0894" y="-8.5" font-family="Helvetica,sans-Serif" font-size="10.00">Common.h</text>
</g>
<!-- Node1&#45;&gt;Node2 -->
<g id="edge2" class="edge"><title>Node1&#45;&gt;Node2</title>
<path fill="none" stroke="midnightblue" d="M43.6578,-116.473C28.9911,-108.715 11.5799,-96.617 3.08937,-80 -5.75002,-62.7003 6.69584,-43.0675 19.3058,-29.1794"/>
<polygon fill="midnightblue" stroke="midnightblue" points="22.1027,-31.3251 26.5896,-21.7272 17.0967,-26.4322 22.1027,-31.3251"/>
</g>
<!-- Node3 -->
<g id="node5" class="node"><title>Node3</title>
<polygon fill="white" stroke="#bfbfbf" points="12.0894,-58.5 12.0894,-79.5 58.0894,-79.5 58.0894,-58.5 12.0894,-58.5"/>
<text text-anchor="middle" x="35.0894" y="-66.5" font-family="Helvetica,sans-Serif" font-size="10.00">vector</text>
</g>
<!-- Node1&#45;&gt;Node3 -->
<g id="edge4" class="edge"><title>Node1&#45;&gt;Node3</title>
<path fill="none" stroke="midnightblue" d="M62.0367,-116.362C57.6175,-108.595 51.4998,-97.8426 46.2103,-88.5458"/>
<polygon fill="midnightblue" stroke="midnightblue" points="49.0911,-86.5315 41.1037,-79.5707 43.0069,-89.9932 49.0911,-86.5315"/>
</g>
<!-- Node4 -->
<g id="node7" class="node"><title>Node4</title>
<polygon fill="white" stroke="#bfbfbf" points="75.5894,-58.5 75.5894,-79.5 128.589,-79.5 128.589,-58.5 75.5894,-58.5"/>
<text text-anchor="middle" x="102.089" y="-66.5" font-family="Helvetica,sans-Serif" font-size="10.00">QString</text>
</g>
<!-- Node1&#45;&gt;Node4 -->
<g id="edge6" class="edge"><title>Node1&#45;&gt;Node4</title>
<path fill="none" stroke="midnightblue" d="M74.3255,-116.362C78.9265,-108.513 85.3145,-97.6159 90.8033,-88.2527"/>
<polygon fill="midnightblue" stroke="midnightblue" points="93.855,-89.9677 95.8928,-79.5707 87.8161,-86.4276 93.855,-89.9677"/>
</g>
<!-- Node5 -->
<g id="node9" class="node"><title>Node5</title>
<a xlink:href="SyncTask_8h.htm" target="_top" xlink:title="SyncTask.h">
<polygon fill="white" stroke="black" points="145.589,-58.5 145.589,-79.5 216.589,-79.5 216.589,-58.5 145.589,-58.5"/>
<text text-anchor="middle" x="181.089" y="-66.5" font-family="Helvetica,sans-Serif" font-size="10.00">SyncTask.h</text>
</a>
</g>
<!-- Node1&#45;&gt;Node5 -->
<g id="edge8" class="edge"><title>Node1&#45;&gt;Node5</title>
<path fill="none" stroke="midnightblue" d="M88.5528,-116.497C106.122,-107.479 131.671,-94.3649 151.474,-84.2006"/>
<polygon fill="midnightblue" stroke="midnightblue" points="153.098,-87.3014 160.396,-79.6212 149.902,-81.0738 153.098,-87.3014"/>
</g>
<!-- Node5&#45;&gt;Node2 -->
<g id="edge10" class="edge"><title>Node5&#45;&gt;Node2</title>
<path fill="none" stroke="midnightblue" d="M155.374,-58.4966C132.796,-49.2746 99.7318,-35.7695 74.6268,-25.5153"/>
<polygon fill="midnightblue" stroke="midnightblue" points="75.6741,-22.1624 65.093,-21.6212 73.0271,-28.6427 75.6741,-22.1624"/>
</g>
<!-- Node6 -->
<g id="node12" class="node"><title>Node6</title>
<polygon fill="white" stroke="#bfbfbf" points="145.089,-0.5 145.089,-21.5 217.089,-21.5 217.089,-0.5 145.089,-0.5"/>
<text text-anchor="middle" x="181.089" y="-8.5" font-family="Helvetica,sans-Serif" font-size="10.00">TaskBase.h</text>
</g>
<!-- Node5&#45;&gt;Node6 -->
<g id="edge12" class="edge"><title>Node5&#45;&gt;Node6</title>
<path fill="none" stroke="midnightblue" d="M181.089,-58.3619C181.089,-50.9219 181.089,-40.7427 181.089,-31.7276"/>
<polygon fill="midnightblue" stroke="midnightblue" points="184.589,-31.5706 181.089,-21.5707 177.589,-31.5707 184.589,-31.5706"/>
</g>
</g>
</svg>
