<?xml version="1.0" encoding="UTF-8" standalone="no"?>
<!DOCTYPE svg PUBLIC "-//W3C//DTD SVG 1.1//EN"
 "http://www.w3.org/Graphics/SVG/1.1/DTD/svg11.dtd">
<!-- Generated by graphviz version 2.26.3 (20100126.1600)
 -->
<!-- Title: ProcessManager.cpp Pages: 1 -->
<svg width="1979pt" height="204pt"
 viewBox="0.00 0.00 1979.29 204.00" xmlns="http://www.w3.org/2000/svg" xmlns:xlink="http://www.w3.org/1999/xlink">
<g id="graph1" class="graph" transform="scale(1 1) rotate(0) translate(4 200)">
<title>ProcessManager.cpp</title>
<polygon fill="white" stroke="white" points="-4,5 -4,-200 1976.29,-200 1976.29,5 -4,5"/>
<!-- Node1 -->
<g id="node1" class="node"><title>Node1</title>
<polygon fill="#bfbfbf" stroke="black" points="1145.79,-174.5 1145.79,-195.5 1262.79,-195.5 1262.79,-174.5 1145.79,-174.5"/>
<text text-anchor="middle" x="1204.29" y="-182.5" font-family="Helvetica,sans-Serif" font-size="10.00">ProcessManager.cpp</text>
</g>
<!-- Node2 -->
<g id="node3" class="node"><title>Node2</title>
<polygon fill="white" stroke="#bfbfbf" points="249.793,-0.5 249.793,-21.5 316.793,-21.5 316.793,-0.5 249.793,-0.5"/>
<text text-anchor="middle" x="283.293" y="-8.5" font-family="Helvetica,sans-Serif" font-size="10.00">Common.h</text>
</g>
<!-- Node1&#45;&gt;Node2 -->
<g id="edge2" class="edge"><title>Node1&#45;&gt;Node2</title>
<path fill="none" stroke="midnightblue" d="M1145.56,-184.432C929.865,-182.083 188.68,-171.624 88.2926,-138 45.2734,-123.591 25.3732,-120.173 4.29263,-80 -0.25067,-71.3419 -2.02098,-65.4661 4.29263,-58 11.8468,-49.0668 162.713,-27.3949 239.375,-16.8956"/>
<polygon fill="midnightblue" stroke="midnightblue" points="240.242,-20.3099 249.677,-15.4908 239.296,-13.3741 240.242,-20.3099"/>
</g>
<!-- Node3 -->
<g id="node5" class="node"><title>Node3</title>
<polygon fill="white" stroke="#bfbfbf" points="1010.79,-116.5 1010.79,-137.5 1051.79,-137.5 1051.79,-116.5 1010.79,-116.5"/>
<text text-anchor="middle" x="1031.29" y="-124.5" font-family="Helvetica,sans-Serif" font-size="10.00">glib.h</text>
</g>
<!-- Node1&#45;&gt;Node3 -->
<g id="edge4" class="edge"><title>Node1&#45;&gt;Node3</title>
<path fill="none" stroke="midnightblue" d="M1170.39,-174.431C1143.17,-165.835 1103.77,-153.148 1061.48,-138.33"/>
<polygon fill="midnightblue" stroke="midnightblue" points="1062.44,-134.955 1051.84,-134.932 1060.11,-141.557 1062.44,-134.955"/>
</g>
<!-- Node4 -->
<g id="node7" class="node"><title>Node4</title>
<a xlink:href="ProcessManager_8h.htm" target="_top" xlink:title="ProcessManager.h">
<polygon fill="white" stroke="black" points="97.2926,-116.5 97.2926,-137.5 203.293,-137.5 203.293,-116.5 97.2926,-116.5"/>
<text text-anchor="middle" x="150.293" y="-124.5" font-family="Helvetica,sans-Serif" font-size="10.00">ProcessManager.h</text>
</a>
</g>
<!-- Node1&#45;&gt;Node4 -->
<g id="edge6" class="edge"><title>Node1&#45;&gt;Node4</title>
<path fill="none" stroke="midnightblue" d="M1145.77,-183.941C994.31,-180.818 577.167,-169.779 231.293,-138 225.498,-137.468 219.483,-136.824 213.465,-136.117"/>
<polygon fill="midnightblue" stroke="midnightblue" points="213.726,-132.623 203.374,-134.879 212.873,-139.571 213.726,-132.623"/>
</g>
<!-- Node9 -->
<g id="node19" class="node"><title>Node9</title>
<a xlink:href="ProcessBase_8h.htm" target="_top" xlink:title="ProcessBase.h">
<polygon fill="white" stroke="black" points="239.793,-116.5 239.793,-137.5 326.793,-137.5 326.793,-116.5 239.793,-116.5"/>
<text text-anchor="middle" x="283.293" y="-124.5" font-family="Helvetica,sans-Serif" font-size="10.00">ProcessBase.h</text>
</a>
</g>
<!-- Node1&#45;&gt;Node9 -->
<g id="edge20" class="edge"><title>Node1&#45;&gt;Node9</title>
<path fill="none" stroke="midnightblue" d="M1145.63,-181.306C977.947,-170.746 498.294,-140.54 336.973,-130.381"/>
<polygon fill="midnightblue" stroke="midnightblue" points="337.014,-126.876 326.814,-129.741 336.574,-133.862 337.014,-126.876"/>
</g>
<!-- Node10 -->
<g id="node23" class="node"><title>Node10</title>
<a xlink:href="ApplicationDescription_8h.htm" target="_top" xlink:title="ApplicationDescription.h">
<polygon fill="white" stroke="black" points="1069.29,-116.5 1069.29,-137.5 1199.29,-137.5 1199.29,-116.5 1069.29,-116.5"/>
<text text-anchor="middle" x="1134.29" y="-124.5" font-family="Helvetica,sans-Serif" font-size="10.00">ApplicationDescription.h</text>
</a>
</g>
<!-- Node1&#45;&gt;Node10 -->
<g id="edge26" class="edge"><title>Node1&#45;&gt;Node10</title>
<path fill="none" stroke="midnightblue" d="M1191.45,-174.362C1181.29,-165.941 1166.89,-154.011 1155.09,-144.231"/>
<polygon fill="midnightblue" stroke="midnightblue" points="1156.98,-141.256 1147.05,-137.571 1152.52,-146.646 1156.98,-141.256"/>
</g>
<!-- Node12 -->
<g id="node27" class="node"><title>Node12</title>
<a xlink:href="SystemUiController_8h.htm" target="_top" xlink:title="SystemUiController.h">
<polygon fill="white" stroke="black" points="1217.29,-116.5 1217.29,-137.5 1333.29,-137.5 1333.29,-116.5 1217.29,-116.5"/>
<text text-anchor="middle" x="1275.29" y="-124.5" font-family="Helvetica,sans-Serif" font-size="10.00">SystemUiController.h</text>
</a>
</g>
<!-- Node1&#45;&gt;Node12 -->
<g id="edge30" class="edge"><title>Node1&#45;&gt;Node12</title>
<path fill="none" stroke="midnightblue" d="M1217.32,-174.362C1227.72,-165.859 1242.51,-153.779 1254.55,-143.947"/>
<polygon fill="midnightblue" stroke="midnightblue" points="1256.82,-146.608 1262.35,-137.571 1252.39,-141.187 1256.82,-146.608"/>
</g>
<!-- Node13 -->
<g id="node29" class="node"><title>Node13</title>
<polygon fill="white" stroke="#bfbfbf" points="1350.79,-116.5 1350.79,-137.5 1413.79,-137.5 1413.79,-116.5 1350.79,-116.5"/>
<text text-anchor="middle" x="1382.29" y="-124.5" font-family="Helvetica,sans-Serif" font-size="10.00">Logging.h</text>
</g>
<!-- Node1&#45;&gt;Node13 -->
<g id="edge32" class="edge"><title>Node1&#45;&gt;Node13</title>
<path fill="none" stroke="midnightblue" d="M1236.53,-174.497C1265.73,-164.982 1308.92,-150.909 1340.71,-140.55"/>
<polygon fill="midnightblue" stroke="midnightblue" points="1342.17,-143.754 1350.6,-137.328 1340,-137.098 1342.17,-143.754"/>
</g>
<!-- Node14 -->
<g id="node31" class="node"><title>Node14</title>
<a xlink:href="WebAppManager_8h.htm" target="_top" xlink:title="WebAppManager.h">
<polygon fill="white" stroke="black" points="886.793,-116.5 886.793,-137.5 993.793,-137.5 993.793,-116.5 886.793,-116.5"/>
<text text-anchor="middle" x="940.293" y="-124.5" font-family="Helvetica,sans-Serif" font-size="10.00">WebAppManager.h</text>
</a>
</g>
<!-- Node1&#45;&gt;Node14 -->
<g id="edge34" class="edge"><title>Node1&#45;&gt;Node14</title>
<path fill="none" stroke="midnightblue" d="M1156.48,-174.497C1111.95,-164.714 1045.49,-150.111 998.017,-139.682"/>
<polygon fill="midnightblue" stroke="midnightblue" points="998.709,-136.25 988.191,-137.523 997.207,-143.087 998.709,-136.25"/>
</g>
<!-- Node33 -->
<g id="node77" class="node"><title>Node33</title>
<polygon fill="white" stroke="#bfbfbf" points="1430.79,-116.5 1430.79,-137.5 1493.79,-137.5 1493.79,-116.5 1430.79,-116.5"/>
<text text-anchor="middle" x="1462.29" y="-124.5" font-family="Helvetica,sans-Serif" font-size="10.00">Settings.h</text>
</g>
<!-- Node1&#45;&gt;Node33 -->
<g id="edge88" class="edge"><title>Node1&#45;&gt;Node33</title>
<path fill="none" stroke="midnightblue" d="M1257.34,-174.428C1299.36,-165.86 1359.75,-153.109 1420.68,-138.318"/>
<polygon fill="midnightblue" stroke="midnightblue" points="1421.58,-141.702 1430.46,-135.928 1419.91,-134.902 1421.58,-141.702"/>
</g>
<!-- Node34 -->
<g id="node79" class="node"><title>Node34</title>
<polygon fill="white" stroke="#bfbfbf" points="1510.79,-116.5 1510.79,-137.5 1555.79,-137.5 1555.79,-116.5 1510.79,-116.5"/>
<text text-anchor="middle" x="1533.29" y="-124.5" font-family="Helvetica,sans-Serif" font-size="10.00">Utils.h</text>
</g>
<!-- Node1&#45;&gt;Node34 -->
<g id="edge90" class="edge"><title>Node1&#45;&gt;Node34</title>
<path fill="none" stroke="midnightblue" d="M1262.9,-178.994C1321.28,-172.287 1413.48,-159.738 1500.94,-138.021"/>
<polygon fill="midnightblue" stroke="midnightblue" points="1501.92,-141.384 1510.75,-135.54 1500.2,-134.598 1501.92,-141.384"/>
</g>
<!-- Node35 -->
<g id="node81" class="node"><title>Node35</title>
<polygon fill="white" stroke="#bfbfbf" points="1573.29,-116.5 1573.29,-137.5 1627.29,-137.5 1627.29,-116.5 1573.29,-116.5"/>
<text text-anchor="middle" x="1600.29" y="-124.5" font-family="Helvetica,sans-Serif" font-size="10.00">sstream</text>
</g>
<!-- Node1&#45;&gt;Node35 -->
<g id="edge92" class="edge"><title>Node1&#45;&gt;Node35</title>
<path fill="none" stroke="midnightblue" d="M1263.11,-180.355C1332.71,-174.183 1452.16,-161.477 1562.9,-138.037"/>
<polygon fill="midnightblue" stroke="midnightblue" points="1563.86,-141.41 1572.9,-135.885 1562.39,-134.567 1563.86,-141.41"/>
</g>
<!-- Node36 -->
<g id="node83" class="node"><title>Node36</title>
<polygon fill="white" stroke="#bfbfbf" points="1644.79,-116.5 1644.79,-137.5 1695.79,-137.5 1695.79,-116.5 1644.79,-116.5"/>
<text text-anchor="middle" x="1670.29" y="-124.5" font-family="Helvetica,sans-Serif" font-size="10.00">istream</text>
</g>
<!-- Node1&#45;&gt;Node36 -->
<g id="edge94" class="edge"><title>Node1&#45;&gt;Node36</title>
<path fill="none" stroke="midnightblue" d="M1262.89,-182.427C1344.57,-178.004 1497.24,-166.702 1634.59,-138.055"/>
<polygon fill="midnightblue" stroke="midnightblue" points="1635.4,-141.462 1644.45,-135.963 1633.94,-134.615 1635.4,-141.462"/>
</g>
<!-- Node4&#45;&gt;Node2 -->
<g id="edge8" class="edge"><title>Node4&#45;&gt;Node2</title>
<path fill="none" stroke="midnightblue" d="M135.003,-116.329C116.964,-102.43 91.2213,-77.5956 106.293,-58 122.455,-36.986 192.67,-23.4055 239.657,-16.4911"/>
<polygon fill="midnightblue" stroke="midnightblue" points="240.188,-19.951 249.595,-15.0764 239.201,-13.0208 240.188,-19.951"/>
</g>
<!-- Node5 -->
<g id="node10" class="node"><title>Node5</title>
<polygon fill="white" stroke="#bfbfbf" points="13.2926,-58.5 13.2926,-79.5 59.2926,-79.5 59.2926,-58.5 13.2926,-58.5"/>
<text text-anchor="middle" x="36.2926" y="-66.5" font-family="Helvetica,sans-Serif" font-size="10.00">vector</text>
</g>
<!-- Node4&#45;&gt;Node5 -->
<g id="edge10" class="edge"><title>Node4&#45;&gt;Node5</title>
<path fill="none" stroke="midnightblue" d="M129.648,-116.497C111.923,-107.479 86.1479,-94.3649 66.1696,-84.2006"/>
<polygon fill="midnightblue" stroke="midnightblue" points="67.6687,-81.0364 57.1688,-79.6212 64.4945,-87.2753 67.6687,-81.0364"/>
</g>
<!-- Node6 -->
<g id="node12" class="node"><title>Node6</title>
<polygon fill="white" stroke="#bfbfbf" points="202.793,-58.5 202.793,-79.5 255.793,-79.5 255.793,-58.5 202.793,-58.5"/>
<text text-anchor="middle" x="229.293" y="-66.5" font-family="Helvetica,sans-Serif" font-size="10.00">QString</text>
</g>
<!-- Node4&#45;&gt;Node6 -->
<g id="edge12" class="edge"><title>Node4&#45;&gt;Node6</title>
<path fill="none" stroke="midnightblue" d="M164.782,-116.362C176.475,-107.777 193.135,-95.5459 206.596,-85.6636"/>
<polygon fill="midnightblue" stroke="midnightblue" points="208.905,-88.31 214.895,-79.5707 204.763,-82.6675 208.905,-88.31"/>
</g>
<!-- Node7 -->
<g id="node14" class="node"><title>Node7</title>
<a xlink:href="SyncTask_8h.htm" target="_top" xlink:title="SyncTask.h">
<polygon fill="white" stroke="black" points="114.793,-58.5 114.793,-79.5 185.793,-79.5 185.793,-58.5 114.793,-58.5"/>
<text text-anchor="middle" x="150.293" y="-66.5" font-family="Helvetica,sans-Serif" font-size="10.00">SyncTask.h</text>
</a>
</g>
<!-- Node4&#45;&gt;Node7 -->
<g id="edge14" class="edge"><title>Node4&#45;&gt;Node7</title>
<path fill="none" stroke="midnightblue" d="M150.293,-116.362C150.293,-108.922 150.293,-98.7427 150.293,-89.7276"/>
<polygon fill="midnightblue" stroke="midnightblue" points="153.793,-89.5706 150.293,-79.5707 146.793,-89.5707 153.793,-89.5706"/>
</g>
<!-- Node7&#45;&gt;Node2 -->
<g id="edge16" class="edge"><title>Node7&#45;&gt;Node2</title>
<path fill="none" stroke="midnightblue" d="M174.378,-58.4966C195.432,-49.3154 226.22,-35.8889 249.695,-25.6516"/>
<polygon fill="midnightblue" stroke="midnightblue" points="251.17,-28.8268 258.937,-21.6212 248.372,-22.4104 251.17,-28.8268"/>
</g>
<!-- Node8 -->
<g id="node17" class="node"><title>Node8</title>
<polygon fill="white" stroke="#bfbfbf" points="114.293,-0.5 114.293,-21.5 186.293,-21.5 186.293,-0.5 114.293,-0.5"/>
<text text-anchor="middle" x="150.293" y="-8.5" font-family="Helvetica,sans-Serif" font-size="10.00">TaskBase.h</text>
</g>
<!-- Node7&#45;&gt;Node8 -->
<g id="edge18" class="edge"><title>Node7&#45;&gt;Node8</title>
<path fill="none" stroke="midnightblue" d="M150.293,-58.3619C150.293,-50.9219 150.293,-40.7427 150.293,-31.7276"/>
<polygon fill="midnightblue" stroke="midnightblue" points="153.793,-31.5706 150.293,-21.5707 146.793,-31.5707 153.793,-31.5706"/>
</g>
<!-- Node9&#45;&gt;Node2 -->
<g id="edge22" class="edge"><title>Node9&#45;&gt;Node2</title>
<path fill="none" stroke="midnightblue" d="M283.293,-116.295C283.293,-97.1314 283.293,-56.654 283.293,-31.8434"/>
<polygon fill="midnightblue" stroke="midnightblue" points="286.793,-31.6792 283.293,-21.6792 279.793,-31.6792 286.793,-31.6792"/>
</g>
<!-- Node9&#45;&gt;Node6 -->
<g id="edge24" class="edge"><title>Node9&#45;&gt;Node6</title>
<path fill="none" stroke="midnightblue" d="M273.388,-116.362C265.776,-108.186 255.085,-96.7025 246.136,-87.0907"/>
<polygon fill="midnightblue" stroke="midnightblue" points="248.51,-84.5046 239.134,-79.5707 243.387,-89.2746 248.51,-84.5046"/>
</g>
<!-- Node11 -->
<g id="node25" class="node"><title>Node11</title>
<polygon fill="white" stroke="#bfbfbf" points="1817.29,-58.5 1817.29,-79.5 1971.29,-79.5 1971.29,-58.5 1817.29,-58.5"/>
<text text-anchor="middle" x="1894.29" y="-66.5" font-family="Helvetica,sans-Serif" font-size="10.00">ApplicationDescriptionBase.h</text>
</g>
<!-- Node10&#45;&gt;Node11 -->
<g id="edge28" class="edge"><title>Node10&#45;&gt;Node11</title>
<path fill="none" stroke="midnightblue" d="M1199.62,-116.971C1202.55,-116.622 1205.45,-116.296 1208.29,-116 1470.76,-88.6715 1540.62,-104.562 1807,-80.0669"/>
<polygon fill="midnightblue" stroke="midnightblue" points="1807.33,-83.5511 1816.96,-79.1401 1806.68,-76.5812 1807.33,-83.5511"/>
</g>
<!-- Node14&#45;&gt;Node2 -->
<g id="edge36" class="edge"><title>Node14&#45;&gt;Node2</title>
<path fill="none" stroke="midnightblue" d="M889.319,-116.496C854.943,-108.55 808.976,-96.2307 770.293,-80 752.297,-72.4497 750.85,-64.0377 732.293,-58 657.594,-33.6971 424.6,-18.6375 326.995,-13.2459"/>
<polygon fill="midnightblue" stroke="midnightblue" points="327.055,-9.74409 316.88,-12.6951 326.674,-16.7337 327.055,-9.74409"/>
</g>
<!-- Node14&#45;&gt;Node6 -->
<g id="edge44" class="edge"><title>Node14&#45;&gt;Node6</title>
<path fill="none" stroke="midnightblue" d="M886.391,-124.416C776.361,-118.834 518.073,-104.17 302.293,-80 290.493,-78.6783 277.674,-76.8727 266.118,-75.1065"/>
<polygon fill="midnightblue" stroke="midnightblue" points="266.347,-71.5998 255.926,-73.5105 265.264,-78.5155 266.347,-71.5998"/>
</g>
<!-- Node14&#45;&gt;Node7 -->
<g id="edge48" class="edge"><title>Node14&#45;&gt;Node7</title>
<path fill="none" stroke="midnightblue" d="M886.582,-124.889C742.07,-119.01 346.299,-101.553 196.156,-80.0331"/>
<polygon fill="midnightblue" stroke="midnightblue" points="196.61,-76.562 186.202,-78.5433 195.574,-83.4849 196.61,-76.562"/>
</g>
<!-- Node15 -->
<g id="node34" class="node"><title>Node15</title>
<polygon fill="white" stroke="#bfbfbf" points="882.793,-0.5 882.793,-21.5 919.793,-21.5 919.793,-0.5 882.793,-0.5"/>
<text text-anchor="middle" x="901.293" y="-8.5" font-family="Helvetica,sans-Serif" font-size="10.00">map</text>
</g>
<!-- Node14&#45;&gt;Node15 -->
<g id="edge38" class="edge"><title>Node14&#45;&gt;Node15</title>
<path fill="none" stroke="midnightblue" d="M935.269,-116.334C930.949,-106.91 924.731,-92.7274 920.293,-80 914.74,-64.0772 909.735,-45.6442 906.257,-31.8378"/>
<polygon fill="midnightblue" stroke="midnightblue" points="909.599,-30.7699 903.814,-21.8937 902.801,-32.44 909.599,-30.7699"/>
</g>
<!-- Node16 -->
<g id="node36" class="node"><title>Node16</title>
<polygon fill="white" stroke="#bfbfbf" points="1124.79,-58.5 1124.79,-79.5 1153.79,-79.5 1153.79,-58.5 1124.79,-58.5"/>
<text text-anchor="middle" x="1139.29" y="-66.5" font-family="Helvetica,sans-Serif" font-size="10.00">list</text>
</g>
<!-- Node14&#45;&gt;Node16 -->
<g id="edge40" class="edge"><title>Node14&#45;&gt;Node16</title>
<path fill="none" stroke="midnightblue" d="M983.54,-116.467C1018.34,-107.668 1068.35,-94.292 1111.29,-80 1112.52,-79.5918 1113.77,-79.1597 1115.03,-78.7122"/>
<polygon fill="midnightblue" stroke="midnightblue" points="1116.45,-81.9168 1124.58,-75.1191 1113.99,-75.3653 1116.45,-81.9168"/>
</g>
<!-- Node17 -->
<g id="node38" class="node"><title>Node17</title>
<polygon fill="white" stroke="#bfbfbf" points="1170.79,-58.5 1170.79,-79.5 1213.79,-79.5 1213.79,-58.5 1170.79,-58.5"/>
<text text-anchor="middle" x="1192.29" y="-66.5" font-family="Helvetica,sans-Serif" font-size="10.00">string</text>
</g>
<!-- Node14&#45;&gt;Node17 -->
<g id="edge42" class="edge"><title>Node14&#45;&gt;Node17</title>
<path fill="none" stroke="midnightblue" d="M993.923,-116.562C1044.92,-106.486 1118.93,-91.4315 1161.05,-80.0417"/>
<polygon fill="midnightblue" stroke="midnightblue" points="1162.11,-83.3803 1170.78,-77.3039 1160.21,-76.6416 1162.11,-83.3803"/>
</g>
<!-- Node18 -->
<g id="node41" class="node"><title>Node18</title>
<polygon fill="white" stroke="#bfbfbf" points="1230.79,-58.5 1230.79,-79.5 1307.79,-79.5 1307.79,-58.5 1230.79,-58.5"/>
<text text-anchor="middle" x="1269.29" y="-66.5" font-family="Helvetica,sans-Serif" font-size="10.00">QApplication</text>
</g>
<!-- Node14&#45;&gt;Node18 -->
<g id="edge46" class="edge"><title>Node14&#45;&gt;Node18</title>
<path fill="none" stroke="midnightblue" d="M994.053,-117.416C996.839,-116.934 999.599,-116.459 1002.29,-116 1096.81,-99.8823 1123.42,-99.3204 1220.65,-80.2413"/>
<polygon fill="midnightblue" stroke="midnightblue" points="1221.48,-83.6463 1230.61,-78.2724 1220.12,-76.7794 1221.48,-83.6463"/>
</g>
<!-- Node19 -->
<g id="node44" class="node"><title>Node19</title>
<polygon fill="white" stroke="#bfbfbf" points="1325.29,-58.5 1325.29,-79.5 1377.29,-79.5 1377.29,-58.5 1325.29,-58.5"/>
<text text-anchor="middle" x="1351.29" y="-66.5" font-family="Helvetica,sans-Serif" font-size="10.00">Event.h</text>
</g>
<!-- Node14&#45;&gt;Node19 -->
<g id="edge50" class="edge"><title>Node14&#45;&gt;Node19</title>
<path fill="none" stroke="midnightblue" d="M994.028,-117.258C996.821,-116.817 999.588,-116.395 1002.29,-116 1138.03,-96.1963 1177.07,-108.578 1314.96,-79.965"/>
<polygon fill="midnightblue" stroke="midnightblue" points="1316,-83.3227 1325.06,-77.833 1314.56,-76.4736 1316,-83.3227"/>
</g>
<!-- Node20 -->
<g id="node46" class="node"><title>Node20</title>
<a xlink:href="MemoryWatcher_8h.htm" target="_top" xlink:title="MemoryWatcher.h">
<polygon fill="white" stroke="black" points="928.793,-58.5 928.793,-79.5 1031.79,-79.5 1031.79,-58.5 928.793,-58.5"/>
<text text-anchor="middle" x="980.293" y="-66.5" font-family="Helvetica,sans-Serif" font-size="10.00">MemoryWatcher.h</text>
</a>
</g>
<!-- Node14&#45;&gt;Node20 -->
<g id="edge52" class="edge"><title>Node14&#45;&gt;Node20</title>
<path fill="none" stroke="midnightblue" d="M947.629,-116.362C953.099,-108.431 960.714,-97.3885 967.216,-87.9606"/>
<polygon fill="midnightblue" stroke="midnightblue" points="970.206,-89.7899 973.003,-79.5707 964.444,-85.8157 970.206,-89.7899"/>
</g>
<!-- Node22 -->
<g id="node52" class="node"><title>Node22</title>
<polygon fill="white" stroke="#bfbfbf" points="1005.29,-0.5 1005.29,-21.5 1077.29,-21.5 1077.29,-0.5 1005.29,-0.5"/>
<text text-anchor="middle" x="1041.29" y="-8.5" font-family="Helvetica,sans-Serif" font-size="10.00">SignalSlot.h</text>
</g>
<!-- Node14&#45;&gt;Node22 -->
<g id="edge64" class="edge"><title>Node14&#45;&gt;Node22</title>
<path fill="none" stroke="midnightblue" d="M988.041,-116.439C1007.68,-109.507 1028.54,-98.215 1040.29,-80 1049.4,-65.8809 1048.83,-46.5223 1046.45,-31.903"/>
<polygon fill="midnightblue" stroke="midnightblue" points="1049.82,-30.92 1044.41,-21.8126 1042.96,-32.308 1049.82,-30.92"/>
</g>
<!-- Node23 -->
<g id="node54" class="node"><title>Node23</title>
<polygon fill="white" stroke="#bfbfbf" points="1095.29,-0.5 1095.29,-21.5 1147.29,-21.5 1147.29,-0.5 1095.29,-0.5"/>
<text text-anchor="middle" x="1121.29" y="-8.5" font-family="Helvetica,sans-Serif" font-size="10.00">Timer.h</text>
</g>
<!-- Node14&#45;&gt;Node23 -->
<g id="edge66" class="edge"><title>Node14&#45;&gt;Node23</title>
<path fill="none" stroke="midnightblue" d="M978.216,-116.477C1002.2,-108.721 1033.12,-96.6225 1057.29,-80 1077.32,-66.2229 1095.69,-45.1506 1107.56,-29.918"/>
<polygon fill="midnightblue" stroke="midnightblue" points="1110.52,-31.8094 1113.76,-21.7233 1104.94,-27.5851 1110.52,-31.8094"/>
</g>
<!-- Node24 -->
<g id="node58" class="node"><title>Node24</title>
<polygon fill="white" stroke="#bfbfbf" points="1395.29,-58.5 1395.29,-79.5 1487.29,-79.5 1487.29,-58.5 1395.29,-58.5"/>
<text text-anchor="middle" x="1441.29" y="-66.5" font-family="Helvetica,sans-Serif" font-size="10.00">WindowTypes.h</text>
</g>
<!-- Node14&#45;&gt;Node24 -->
<g id="edge68" class="edge"><title>Node14&#45;&gt;Node24</title>
<path fill="none" stroke="midnightblue" d="M994.019,-117.19C996.814,-116.766 999.584,-116.367 1002.29,-116 1168.92,-93.4461 1214.95,-104.404 1385.09,-80.051"/>
<polygon fill="midnightblue" stroke="midnightblue" points="1385.75,-83.4924 1395.14,-78.5924 1384.74,-76.565 1385.75,-83.4924"/>
</g>
<!-- Node25 -->
<g id="node60" class="node"><title>Node25</title>
<polygon fill="white" stroke="#bfbfbf" points="1504.79,-58.5 1504.79,-79.5 1615.79,-79.5 1615.79,-58.5 1504.79,-58.5"/>
<text text-anchor="middle" x="1560.29" y="-66.5" font-family="Helvetica,sans-Serif" font-size="10.00">WindowProperties.h</text>
</g>
<!-- Node14&#45;&gt;Node25 -->
<g id="edge70" class="edge"><title>Node14&#45;&gt;Node25</title>
<path fill="none" stroke="midnightblue" d="M994.01,-117.121C996.807,-116.716 999.581,-116.338 1002.29,-116 1217.43,-89.1486 1276.01,-106.144 1494.31,-80.1495"/>
<polygon fill="midnightblue" stroke="midnightblue" points="1494.98,-83.594 1504.49,-78.9202 1494.14,-76.6445 1494.98,-83.594"/>
</g>
<!-- Node26 -->
<g id="node62" class="node"><title>Node26</title>
<a xlink:href="WebAppCache_8h.htm" target="_top" xlink:title="WebAppCache.h">
<polygon fill="white" stroke="black" points="778.793,-58.5 778.793,-79.5 873.793,-79.5 873.793,-58.5 778.793,-58.5"/>
<text text-anchor="middle" x="826.293" y="-66.5" font-family="Helvetica,sans-Serif" font-size="10.00">WebAppCache.h</text>
</a>
</g>
<!-- Node14&#45;&gt;Node26 -->
<g id="edge72" class="edge"><title>Node14&#45;&gt;Node26</title>
<path fill="none" stroke="midnightblue" d="M919.648,-116.497C901.923,-107.479 876.148,-94.3649 856.17,-84.2006"/>
<polygon fill="midnightblue" stroke="midnightblue" points="857.669,-81.0364 847.169,-79.6212 854.494,-87.2753 857.669,-81.0364"/>
</g>
<!-- Node27 -->
<g id="node65" class="node"><title>Node27</title>
<polygon fill="white" stroke="#bfbfbf" points="1632.79,-58.5 1632.79,-79.5 1703.79,-79.5 1703.79,-58.5 1632.79,-58.5"/>
<text text-anchor="middle" x="1668.29" y="-66.5" font-family="Helvetica,sans-Serif" font-size="10.00">HostBase.h</text>
</g>
<!-- Node14&#45;&gt;Node27 -->
<g id="edge76" class="edge"><title>Node14&#45;&gt;Node27</title>
<path fill="none" stroke="midnightblue" d="M994.004,-117.072C996.803,-116.679 999.578,-116.318 1002.29,-116 1273.96,-84.1511 1348.73,-120.845 1622.16,-80.1047"/>
<polygon fill="midnightblue" stroke="midnightblue" points="1623.02,-83.5139 1632.39,-78.5585 1621.97,-76.5926 1623.02,-83.5139"/>
</g>
<!-- Node28 -->
<g id="node67" class="node"><title>Node28</title>
<polygon fill="white" stroke="#bfbfbf" points="1721.29,-58.5 1721.29,-79.5 1799.29,-79.5 1799.29,-58.5 1721.29,-58.5"/>
<text text-anchor="middle" x="1760.29" y="-66.5" font-family="Helvetica,sans-Serif" font-size="10.00">lunaservice.h</text>
</g>
<!-- Node14&#45;&gt;Node28 -->
<g id="edge78" class="edge"><title>Node14&#45;&gt;Node28</title>
<path fill="none" stroke="midnightblue" d="M994.001,-117.048C996.801,-116.662 999.577,-116.309 1002.29,-116 1312.86,-80.7158 1397.52,-122.537 1710.82,-79.9838"/>
<polygon fill="midnightblue" stroke="midnightblue" points="1711.67,-83.3988 1721.1,-78.5675 1710.72,-76.4642 1711.67,-83.3988"/>
</g>
<!-- Node29 -->
<g id="node69" class="node"><title>Node29</title>
<polygon fill="white" stroke="#bfbfbf" points="311.293,-58.5 311.293,-79.5 385.293,-79.5 385.293,-58.5 311.293,-58.5"/>
<text text-anchor="middle" x="348.293" y="-66.5" font-family="Helvetica,sans-Serif" font-size="10.00">PIpcBuffer.h</text>
</g>
<!-- Node14&#45;&gt;Node29 -->
<g id="edge80" class="edge"><title>Node14&#45;&gt;Node29</title>
<path fill="none" stroke="midnightblue" d="M886.492,-125.025C789.923,-120.903 580.737,-109.345 395.285,-79.9579"/>
<polygon fill="midnightblue" stroke="midnightblue" points="395.782,-76.493 385.354,-78.3632 394.673,-83.4044 395.782,-76.493"/>
</g>
<!-- Node30 -->
<g id="node71" class="node"><title>Node30</title>
<polygon fill="white" stroke="#bfbfbf" points="402.793,-58.5 402.793,-79.5 475.793,-79.5 475.793,-58.5 402.793,-58.5"/>
<text text-anchor="middle" x="439.293" y="-66.5" font-family="Helvetica,sans-Serif" font-size="10.00">PIpcClient.h</text>
</g>
<!-- Node14&#45;&gt;Node30 -->
<g id="edge82" class="edge"><title>Node14&#45;&gt;Node30</title>
<path fill="none" stroke="midnightblue" d="M886.614,-123.859C802.869,-118.435 635.959,-105.522 485.902,-80.1103"/>
<polygon fill="midnightblue" stroke="midnightblue" points="486.491,-76.6603 476.043,-78.4183 485.307,-83.5595 486.491,-76.6603"/>
</g>
<!-- Node31 -->
<g id="node73" class="node"><title>Node31</title>
<polygon fill="white" stroke="#bfbfbf" points="493.293,-58.5 493.293,-79.5 617.293,-79.5 617.293,-58.5 493.293,-58.5"/>
<text text-anchor="middle" x="555.293" y="-66.5" font-family="Helvetica,sans-Serif" font-size="10.00">PIpcChannelListener.h</text>
</g>
<!-- Node14&#45;&gt;Node31 -->
<g id="edge84" class="edge"><title>Node14&#45;&gt;Node31</title>
<path fill="none" stroke="midnightblue" d="M886.665,-119.058C826.219,-110.088 724.724,-94.9682 627.616,-80.1965"/>
<polygon fill="midnightblue" stroke="midnightblue" points="628.041,-76.721 617.628,-78.6761 626.987,-83.6413 628.041,-76.721"/>
</g>
<!-- Node32 -->
<g id="node75" class="node"><title>Node32</title>
<polygon fill="white" stroke="#bfbfbf" points="634.793,-58.5 634.793,-79.5 723.793,-79.5 723.793,-58.5 634.793,-58.5"/>
<text text-anchor="middle" x="679.293" y="-66.5" font-family="Helvetica,sans-Serif" font-size="10.00">PIpcMessage.h</text>
</g>
<!-- Node14&#45;&gt;Node32 -->
<g id="edge86" class="edge"><title>Node14&#45;&gt;Node32</title>
<path fill="none" stroke="midnightblue" d="M893.027,-116.497C848.275,-106.552 781.108,-91.6257 734.045,-81.1672"/>
<polygon fill="midnightblue" stroke="midnightblue" points="734.548,-77.6937 724.027,-78.9409 733.029,-84.527 734.548,-77.6937"/>
</g>
<!-- Node20&#45;&gt;Node2 -->
<g id="edge54" class="edge"><title>Node20&#45;&gt;Node2</title>
<path fill="none" stroke="midnightblue" d="M928.703,-62.8816C913.743,-61.1962 897.376,-59.4379 882.293,-58 674.897,-38.2295 426.52,-20.7005 327.34,-13.9491"/>
<polygon fill="midnightblue" stroke="midnightblue" points="327.316,-10.4395 317.102,-13.2544 326.842,-17.4234 327.316,-10.4395"/>
</g>
<!-- Node20&#45;&gt;Node15 -->
<g id="edge58" class="edge"><title>Node20&#45;&gt;Node15</title>
<path fill="none" stroke="midnightblue" d="M965.803,-58.3619C954.11,-49.7773 937.45,-37.5459 923.99,-27.6636"/>
<polygon fill="midnightblue" stroke="midnightblue" points="925.823,-24.6675 915.691,-21.5707 921.68,-30.31 925.823,-24.6675"/>
</g>
<!-- Node21 -->
<g id="node49" class="node"><title>Node21</title>
<polygon fill="white" stroke="#bfbfbf" points="937.293,-0.5 937.293,-21.5 987.293,-21.5 987.293,-0.5 937.293,-0.5"/>
<text text-anchor="middle" x="962.293" y="-8.5" font-family="Helvetica,sans-Serif" font-size="10.00">stdint.h</text>
</g>
<!-- Node20&#45;&gt;Node21 -->
<g id="edge56" class="edge"><title>Node20&#45;&gt;Node21</title>
<path fill="none" stroke="midnightblue" d="M976.991,-58.3619C974.631,-50.7584 971.384,-40.294 968.541,-31.1349"/>
<polygon fill="midnightblue" stroke="midnightblue" points="971.88,-30.0839 965.573,-21.5707 965.195,-32.1587 971.88,-30.0839"/>
</g>
<!-- Node20&#45;&gt;Node22 -->
<g id="edge60" class="edge"><title>Node20&#45;&gt;Node22</title>
<path fill="none" stroke="midnightblue" d="M991.481,-58.3619C1000.25,-50.0226 1012.64,-38.2418 1022.87,-28.5162"/>
<polygon fill="midnightblue" stroke="midnightblue" points="1025.34,-30.9978 1030.18,-21.5707 1020.52,-25.9248 1025.34,-30.9978"/>
</g>
<!-- Node20&#45;&gt;Node23 -->
<g id="edge62" class="edge"><title>Node20&#45;&gt;Node23</title>
<path fill="none" stroke="midnightblue" d="M1005.83,-58.4966C1028.25,-49.2746 1061.08,-35.7695 1086.01,-25.5153"/>
<polygon fill="midnightblue" stroke="midnightblue" points="1087.56,-28.6623 1095.47,-21.6212 1084.89,-22.1886 1087.56,-28.6623"/>
</g>
<!-- Node26&#45;&gt;Node2 -->
<g id="edge74" class="edge"><title>Node26&#45;&gt;Node2</title>
<path fill="none" stroke="midnightblue" d="M778.733,-60.0386C774.198,-59.3002 769.663,-58.6061 765.293,-58 604.402,-35.6867 411.843,-20.2843 327.042,-14.0697"/>
<polygon fill="midnightblue" stroke="midnightblue" points="327.231,-10.5743 317.004,-13.3402 326.724,-17.5559 327.231,-10.5743"/>
</g>
</g>
</svg>
