<?xml version="1.0" encoding="UTF-8" standalone="no"?>
<!DOCTYPE svg PUBLIC "-//W3C//DTD SVG 1.1//EN"
 "http://www.w3.org/Graphics/SVG/1.1/DTD/svg11.dtd">
<!-- Generated by graphviz version 2.26.3 (20100126.1600)
 -->
<!-- Title: RemoteWindowDataOpenGLTextureShared.h Pages: 1 -->
<svg width="1146pt" height="450pt"
 viewBox="0.00 0.00 1146.00 450.00" xmlns="http://www.w3.org/2000/svg" xmlns:xlink="http://www.w3.org/1999/xlink">
<g id="graph1" class="graph" transform="scale(1 1) rotate(0) translate(4 446)">
<title>RemoteWindowDataOpenGLTextureShared.h</title>
<polygon fill="white" stroke="white" points="-4,5 -4,-446 1143,-446 1143,5 -4,5"/>
<!-- Node1 -->
<g id="node1" class="node"><title>Node1</title>
<polygon fill="#bfbfbf" stroke="black" points="0,-407 0,-441 190,-441 190,-407 0,-407"/>
<text text-anchor="start" x="8" y="-428" font-family="Helvetica,sans-Serif" font-size="10.00">RemoteWindowDataOpenGLTexture</text>
<text text-anchor="middle" x="95" y="-415" font-family="Helvetica,sans-Serif" font-size="10.00">Shared.h</text>
</g>
<!-- Node2 -->
<g id="node3" class="node"><title>Node2</title>
<polygon fill="white" stroke="#bfbfbf" points="968.5,-0.5 968.5,-21.5 1035.5,-21.5 1035.5,-0.5 968.5,-0.5"/>
<text text-anchor="middle" x="1002" y="-8.5" font-family="Helvetica,sans-Serif" font-size="10.00">Common.h</text>
</g>
<!-- Node1&#45;&gt;Node2 -->
<g id="edge2" class="edge"><title>Node1&#45;&gt;Node2</title>
<path fill="none" stroke="midnightblue" d="M81.2019,-406.83C64.3326,-384.058 38,-341.952 38,-301 38,-301 38,-301 38,-127 38,48.5876 252.861,-80.5105 427,-58 479.173,-51.2557 832.982,-23.9261 958.195,-14.3414"/>
<polygon fill="midnightblue" stroke="midnightblue" points="958.497,-17.8286 968.201,-13.5759 957.963,-10.8489 958.497,-17.8286"/>
</g>
<!-- Node3 -->
<g id="node5" class="node"><title>Node3</title>
<a xlink:href="RemoteWindowData_8h.htm" target="_top" xlink:title="RemoteWindowData.h">
<polygon fill="white" stroke="black" points="387,-348.5 387,-369.5 509,-369.5 509,-348.5 387,-348.5"/>
<text text-anchor="middle" x="448" y="-356.5" font-family="Helvetica,sans-Serif" font-size="10.00">RemoteWindowData.h</text>
</a>
</g>
<!-- Node1&#45;&gt;Node3 -->
<g id="edge4" class="edge"><title>Node1&#45;&gt;Node3</title>
<path fill="none" stroke="midnightblue" d="M187.747,-406.922C248.418,-395.75 326.279,-381.413 380.969,-371.343"/>
<polygon fill="midnightblue" stroke="midnightblue" points="381.701,-374.767 390.901,-369.514 380.433,-367.883 381.701,-374.767"/>
</g>
<!-- Node3&#45;&gt;Node2 -->
<g id="edge6" class="edge"><title>Node3&#45;&gt;Node2</title>
<path fill="none" stroke="midnightblue" d="M509.233,-355.124C678.102,-343.621 1138,-306.469 1138,-243 1138,-243 1138,-243 1138,-127 1138,-76.148 1082.28,-42.8687 1042.17,-25.5007"/>
<polygon fill="midnightblue" stroke="midnightblue" points="1043.44,-22.2378 1032.86,-21.6296 1040.75,-28.7012 1043.44,-22.2378"/>
</g>
<!-- Node4 -->
<g id="node8" class="node"><title>Node4</title>
<polygon fill="white" stroke="#bfbfbf" points="65.5,-174.5 65.5,-195.5 112.5,-195.5 112.5,-174.5 65.5,-174.5"/>
<text text-anchor="middle" x="89" y="-182.5" font-family="Helvetica,sans-Serif" font-size="10.00">QRect</text>
</g>
<!-- Node3&#45;&gt;Node4 -->
<g id="edge8" class="edge"><title>Node3&#45;&gt;Node4</title>
<path fill="none" stroke="midnightblue" d="M426.083,-348.377C364.872,-318.709 191.91,-234.878 120.47,-200.253"/>
<polygon fill="midnightblue" stroke="midnightblue" points="121.611,-196.917 111.086,-195.705 118.558,-203.216 121.611,-196.917"/>
</g>
<!-- Node5 -->
<g id="node10" class="node"><title>Node5</title>
<a xlink:href="CardWebApp_8h.htm" target="_top" xlink:title="CardWebApp.h">
<polygon fill="white" stroke="black" points="700,-290.5 700,-311.5 788,-311.5 788,-290.5 700,-290.5"/>
<text text-anchor="middle" x="744" y="-298.5" font-family="Helvetica,sans-Serif" font-size="10.00">CardWebApp.h</text>
</a>
</g>
<!-- Node3&#45;&gt;Node5 -->
<g id="edge10" class="edge"><title>Node3&#45;&gt;Node5</title>
<path fill="none" stroke="midnightblue" d="M501.603,-348.497C554.974,-338.039 636.453,-322.073 689.972,-311.586"/>
<polygon fill="midnightblue" stroke="midnightblue" points="690.816,-314.988 699.957,-309.63 689.47,-308.118 690.816,-314.988"/>
</g>
<!-- Node5&#45;&gt;Node2 -->
<g id="edge12" class="edge"><title>Node5&#45;&gt;Node2</title>
<path fill="none" stroke="midnightblue" d="M788.01,-296.063C883.258,-284.154 1100,-249.923 1100,-185 1100,-185 1100,-185 1100,-127 1100,-82.7995 1057.97,-46.7407 1028.96,-27.1172"/>
<polygon fill="midnightblue" stroke="midnightblue" points="1030.72,-24.0899 1020.43,-21.5639 1026.9,-29.9551 1030.72,-24.0899"/>
</g>
<!-- Node6 -->
<g id="node13" class="node"><title>Node6</title>
<polygon fill="white" stroke="#bfbfbf" points="1029.5,-174.5 1029.5,-195.5 1072.5,-195.5 1072.5,-174.5 1029.5,-174.5"/>
<text text-anchor="middle" x="1051" y="-182.5" font-family="Helvetica,sans-Serif" font-size="10.00">sptr.h</text>
</g>
<!-- Node5&#45;&gt;Node6 -->
<g id="edge14" class="edge"><title>Node5&#45;&gt;Node6</title>
<path fill="none" stroke="midnightblue" d="M788.109,-296.673C832.401,-291.104 901.805,-278.993 957,-254 985.786,-240.965 1014.42,-218.173 1032.38,-202.368"/>
<polygon fill="midnightblue" stroke="midnightblue" points="1034.74,-204.947 1039.84,-195.659 1030.07,-199.741 1034.74,-204.947"/>
</g>
<!-- Node7 -->
<g id="node15" class="node"><title>Node7</title>
<a xlink:href="WindowedWebApp_8h.htm" target="_top" xlink:title="WindowedWebApp.h">
<polygon fill="white" stroke="black" points="520,-232.5 520,-253.5 634,-253.5 634,-232.5 520,-232.5"/>
<text text-anchor="middle" x="577" y="-240.5" font-family="Helvetica,sans-Serif" font-size="10.00">WindowedWebApp.h</text>
</a>
</g>
<!-- Node5&#45;&gt;Node7 -->
<g id="edge16" class="edge"><title>Node5&#45;&gt;Node7</title>
<path fill="none" stroke="midnightblue" d="M713.758,-290.497C686.65,-281.082 646.69,-267.204 616.957,-256.877"/>
<polygon fill="midnightblue" stroke="midnightblue" points="617.894,-253.498 607.299,-253.523 615.597,-260.11 617.894,-253.498"/>
</g>
<!-- Node24 -->
<g id="node53" class="node"><title>Node24</title>
<polygon fill="white" stroke="#bfbfbf" points="130,-174.5 130,-195.5 222,-195.5 222,-174.5 130,-174.5"/>
<text text-anchor="middle" x="176" y="-182.5" font-family="Helvetica,sans-Serif" font-size="10.00">WindowTypes.h</text>
</g>
<!-- Node5&#45;&gt;Node24 -->
<g id="edge66" class="edge"><title>Node5&#45;&gt;Node24</title>
<path fill="none" stroke="midnightblue" d="M699.755,-292.131C652.878,-282.721 576.706,-267.394 511,-254 412.766,-233.976 298.397,-210.352 231.901,-196.587"/>
<polygon fill="midnightblue" stroke="midnightblue" points="232.55,-193.147 222.048,-194.546 231.13,-200.001 232.55,-193.147"/>
</g>
<!-- Node27 -->
<g id="node61" class="node"><title>Node27</title>
<polygon fill="white" stroke="#bfbfbf" points="651.5,-232.5 651.5,-253.5 734.5,-253.5 734.5,-232.5 651.5,-232.5"/>
<text text-anchor="middle" x="693" y="-240.5" font-family="Helvetica,sans-Serif" font-size="10.00">SysMgrDefs.h</text>
</g>
<!-- Node5&#45;&gt;Node27 -->
<g id="edge68" class="edge"><title>Node5&#45;&gt;Node27</title>
<path fill="none" stroke="midnightblue" d="M734.646,-290.362C727.457,-282.186 717.359,-270.702 708.907,-261.091"/>
<polygon fill="midnightblue" stroke="midnightblue" points="711.527,-258.769 702.295,-253.571 706.27,-263.392 711.527,-258.769"/>
</g>
<!-- Node28 -->
<g id="node63" class="node"><title>Node28</title>
<polygon fill="white" stroke="#bfbfbf" points="752,-232.5 752,-253.5 840,-253.5 840,-232.5 752,-232.5"/>
<text text-anchor="middle" x="796" y="-240.5" font-family="Helvetica,sans-Serif" font-size="10.00">QGraphicsItem</text>
</g>
<!-- Node5&#45;&gt;Node28 -->
<g id="edge70" class="edge"><title>Node5&#45;&gt;Node28</title>
<path fill="none" stroke="midnightblue" d="M753.538,-290.362C760.868,-282.186 771.163,-270.702 779.781,-261.091"/>
<polygon fill="midnightblue" stroke="midnightblue" points="782.453,-263.353 786.523,-253.571 777.241,-258.68 782.453,-263.353"/>
</g>
<!-- Node29 -->
<g id="node65" class="node"><title>Node29</title>
<polygon fill="white" stroke="#bfbfbf" points="858,-232.5 858,-253.5 948,-253.5 948,-232.5 858,-232.5"/>
<text text-anchor="middle" x="903" y="-240.5" font-family="Helvetica,sans-Serif" font-size="10.00">QGraphicsView</text>
</g>
<!-- Node5&#45;&gt;Node29 -->
<g id="edge72" class="edge"><title>Node5&#45;&gt;Node29</title>
<path fill="none" stroke="midnightblue" d="M772.794,-290.497C798.491,-281.123 836.318,-267.324 864.587,-257.012"/>
<polygon fill="midnightblue" stroke="midnightblue" points="865.957,-260.238 874.152,-253.523 863.558,-253.662 865.957,-260.238"/>
</g>
<!-- Node7&#45;&gt;Node2 -->
<g id="edge18" class="edge"><title>Node7&#45;&gt;Node2</title>
<path fill="none" stroke="midnightblue" d="M634.206,-233.251C637.177,-232.812 640.122,-232.392 643,-232 718.283,-221.75 929.36,-249.809 983,-196 1026.78,-152.087 1015.57,-69.9492 1007.23,-31.6487"/>
<polygon fill="midnightblue" stroke="midnightblue" points="1010.58,-30.6105 1004.9,-21.6669 1003.77,-32.2005 1010.58,-30.6105"/>
</g>
<!-- Node7&#45;&gt;Node4 -->
<g id="edge64" class="edge"><title>Node7&#45;&gt;Node4</title>
<path fill="none" stroke="midnightblue" d="M519.821,-241.288C434.74,-237.827 269.877,-227.602 122.708,-195.996"/>
<polygon fill="midnightblue" stroke="midnightblue" points="123.11,-192.501 112.593,-193.783 121.614,-199.339 123.11,-192.501"/>
</g>
<!-- Node7&#45;&gt;Node6 -->
<g id="edge50" class="edge"><title>Node7&#45;&gt;Node6</title>
<path fill="none" stroke="midnightblue" d="M634.201,-233.219C637.174,-232.788 640.121,-232.378 643,-232 808.128,-210.297 852.784,-229.147 1016,-196 1017.09,-195.778 1018.2,-195.535 1019.31,-195.275"/>
<polygon fill="midnightblue" stroke="midnightblue" points="1020.59,-198.555 1029.34,-192.577 1018.77,-191.796 1020.59,-198.555"/>
</g>
<!-- Node8 -->
<g id="node18" class="node"><title>Node8</title>
<polygon fill="white" stroke="#bfbfbf" points="945.5,-174.5 945.5,-195.5 974.5,-195.5 974.5,-174.5 945.5,-174.5"/>
<text text-anchor="middle" x="960" y="-182.5" font-family="Helvetica,sans-Serif" font-size="10.00">list</text>
</g>
<!-- Node7&#45;&gt;Node8 -->
<g id="edge20" class="edge"><title>Node7&#45;&gt;Node8</title>
<path fill="none" stroke="midnightblue" d="M634.214,-233.309C637.183,-232.854 640.126,-232.415 643,-232 770.109,-213.634 808.751,-231.943 935.499,-195.762"/>
<polygon fill="midnightblue" stroke="midnightblue" points="936.56,-199.098 945.183,-192.942 934.603,-192.378 936.56,-199.098"/>
</g>
<!-- Node9 -->
<g id="node20" class="node"><title>Node9</title>
<polygon fill="white" stroke="#bfbfbf" points="239.5,-174.5 239.5,-195.5 320.5,-195.5 320.5,-174.5 239.5,-174.5"/>
<text text-anchor="middle" x="280" y="-182.5" font-family="Helvetica,sans-Serif" font-size="10.00">AsyncCaller.h</text>
</g>
<!-- Node7&#45;&gt;Node9 -->
<g id="edge22" class="edge"><title>Node7&#45;&gt;Node9</title>
<path fill="none" stroke="midnightblue" d="M519.761,-232.715C471.688,-223.949 400.933,-210.75 330.546,-196.279"/>
<polygon fill="midnightblue" stroke="midnightblue" points="331.121,-192.824 320.619,-194.229 329.705,-199.679 331.121,-192.824"/>
</g>
<!-- Node10 -->
<g id="node22" class="node"><title>Node10</title>
<a xlink:href="WebAppBase_8h.htm" target="_top" xlink:title="WebAppBase.h">
<polygon fill="white" stroke="black" points="839.5,-174.5 839.5,-195.5 928.5,-195.5 928.5,-174.5 839.5,-174.5"/>
<text text-anchor="middle" x="884" y="-182.5" font-family="Helvetica,sans-Serif" font-size="10.00">WebAppBase.h</text>
</a>
</g>
<!-- Node7&#45;&gt;Node10 -->
<g id="edge24" class="edge"><title>Node7&#45;&gt;Node10</title>
<path fill="none" stroke="midnightblue" d="M634.064,-232.806C683.272,-223.932 756.508,-210.529 829.226,-196.322"/>
<polygon fill="midnightblue" stroke="midnightblue" points="830.341,-199.67 839.481,-194.313 828.995,-192.801 830.341,-199.67"/>
</g>
<!-- Node21 -->
<g id="node47" class="node"><title>Node21</title>
<polygon fill="white" stroke="#bfbfbf" points="338,-174.5 338,-195.5 390,-195.5 390,-174.5 338,-174.5"/>
<text text-anchor="middle" x="364" y="-182.5" font-family="Helvetica,sans-Serif" font-size="10.00">Event.h</text>
</g>
<!-- Node7&#45;&gt;Node21 -->
<g id="edge52" class="edge"><title>Node7&#45;&gt;Node21</title>
<path fill="none" stroke="midnightblue" d="M534.77,-232.437C500.727,-223.79 451.41,-210.967 399.962,-196.2"/>
<polygon fill="midnightblue" stroke="midnightblue" points="400.912,-192.831 390.334,-193.42 398.971,-199.556 400.912,-192.831"/>
</g>
<!-- Node22 -->
<g id="node49" class="node"><title>Node22</title>
<polygon fill="white" stroke="#bfbfbf" points="408,-174.5 408,-195.5 460,-195.5 460,-174.5 408,-174.5"/>
<text text-anchor="middle" x="434" y="-182.5" font-family="Helvetica,sans-Serif" font-size="10.00">Timer.h</text>
</g>
<!-- Node7&#45;&gt;Node22 -->
<g id="edge54" class="edge"><title>Node7&#45;&gt;Node22</title>
<path fill="none" stroke="midnightblue" d="M551.104,-232.497C528.367,-223.275 495.07,-209.769 469.788,-199.515"/>
<polygon fill="midnightblue" stroke="midnightblue" points="470.769,-196.136 460.187,-195.621 468.138,-202.623 470.769,-196.136"/>
</g>
<!-- Node23 -->
<g id="node51" class="node"><title>Node23</title>
<polygon fill="white" stroke="#bfbfbf" points="477.5,-174.5 477.5,-195.5 588.5,-195.5 588.5,-174.5 477.5,-174.5"/>
<text text-anchor="middle" x="533" y="-182.5" font-family="Helvetica,sans-Serif" font-size="10.00">WindowProperties.h</text>
</g>
<!-- Node7&#45;&gt;Node23 -->
<g id="edge56" class="edge"><title>Node7&#45;&gt;Node23</title>
<path fill="none" stroke="midnightblue" d="M568.93,-232.362C562.851,-224.35 554.363,-213.161 547.163,-203.67"/>
<polygon fill="midnightblue" stroke="midnightblue" points="549.851,-201.422 541.019,-195.571 544.275,-205.653 549.851,-201.422"/>
</g>
<!-- Node7&#45;&gt;Node24 -->
<g id="edge58" class="edge"><title>Node7&#45;&gt;Node24</title>
<path fill="none" stroke="midnightblue" d="M519.896,-236.351C453.245,-228.342 339.486,-213.907 232.202,-196.127"/>
<polygon fill="midnightblue" stroke="midnightblue" points="232.615,-192.648 222.175,-194.452 231.462,-199.552 232.615,-192.648"/>
</g>
<!-- Node25 -->
<g id="node55" class="node"><title>Node25</title>
<polygon fill="white" stroke="#bfbfbf" points="606,-174.5 606,-195.5 730,-195.5 730,-174.5 606,-174.5"/>
<text text-anchor="middle" x="668" y="-182.5" font-family="Helvetica,sans-Serif" font-size="10.00">PIpcChannelListener.h</text>
</g>
<!-- Node7&#45;&gt;Node25 -->
<g id="edge60" class="edge"><title>Node7&#45;&gt;Node25</title>
<path fill="none" stroke="midnightblue" d="M593.691,-232.362C607.416,-223.614 627.084,-211.079 642.737,-201.101"/>
<polygon fill="midnightblue" stroke="midnightblue" points="644.863,-203.897 651.415,-195.571 641.101,-197.994 644.863,-203.897"/>
</g>
<!-- Node26 -->
<g id="node57" class="node"><title>Node26</title>
<polygon fill="white" stroke="#bfbfbf" points="748,-174.5 748,-195.5 822,-195.5 822,-174.5 748,-174.5"/>
<text text-anchor="middle" x="785" y="-182.5" font-family="Helvetica,sans-Serif" font-size="10.00">PIpcBuffer.h</text>
</g>
<!-- Node7&#45;&gt;Node26 -->
<g id="edge62" class="edge"><title>Node7&#45;&gt;Node26</title>
<path fill="none" stroke="midnightblue" d="M614.667,-232.497C649.379,-222.817 701.011,-208.42 738.325,-198.015"/>
<polygon fill="midnightblue" stroke="midnightblue" points="739.27,-201.385 747.963,-195.328 737.39,-194.642 739.27,-201.385"/>
</g>
<!-- Node11 -->
<g id="node24" class="node"><title>Node11</title>
<a xlink:href="SysMgrWebBridge_8h.htm" target="_top" xlink:title="SysMgrWebBridge.h">
<polygon fill="white" stroke="black" points="758.5,-116.5 758.5,-137.5 871.5,-137.5 871.5,-116.5 758.5,-116.5"/>
<text text-anchor="middle" x="815" y="-124.5" font-family="Helvetica,sans-Serif" font-size="10.00">SysMgrWebBridge.h</text>
</a>
</g>
<!-- Node10&#45;&gt;Node11 -->
<g id="edge26" class="edge"><title>Node10&#45;&gt;Node11</title>
<path fill="none" stroke="midnightblue" d="M871.344,-174.362C861.326,-165.941 847.133,-154.011 835.499,-144.231"/>
<polygon fill="midnightblue" stroke="midnightblue" points="837.482,-141.326 827.575,-137.571 832.978,-146.684 837.482,-141.326"/>
</g>
<!-- Node16 -->
<g id="node35" class="node"><title>Node16</title>
<polygon fill="white" stroke="#bfbfbf" points="876,-58.5 876,-79.5 974,-79.5 974,-58.5 876,-58.5"/>
<text text-anchor="middle" x="925" y="-66.5" font-family="Helvetica,sans-Serif" font-size="10.00">palmimedefines.h</text>
</g>
<!-- Node10&#45;&gt;Node16 -->
<g id="edge48" class="edge"><title>Node10&#45;&gt;Node16</title>
<path fill="none" stroke="midnightblue" d="M887.784,-174.295C894.618,-154.959 909.122,-113.923 917.869,-89.1767"/>
<polygon fill="midnightblue" stroke="midnightblue" points="921.193,-90.274 921.225,-79.6792 914.593,-87.9412 921.193,-90.274"/>
</g>
<!-- Node19 -->
<g id="node41" class="node"><title>Node19</title>
<polygon fill="white" stroke="#bfbfbf" points="590.5,-116.5 590.5,-137.5 645.5,-137.5 645.5,-116.5 590.5,-116.5"/>
<text text-anchor="middle" x="618" y="-124.5" font-family="Helvetica,sans-Serif" font-size="10.00">QObject</text>
</g>
<!-- Node10&#45;&gt;Node19 -->
<g id="edge44" class="edge"><title>Node10&#45;&gt;Node19</title>
<path fill="none" stroke="midnightblue" d="M839.47,-175.744C836.604,-175.153 833.762,-174.567 831,-174 755.437,-158.474 733.504,-157.784 655.617,-138.269"/>
<polygon fill="midnightblue" stroke="midnightblue" points="656.387,-134.853 645.834,-135.793 654.67,-141.639 656.387,-134.853"/>
</g>
<!-- Node20 -->
<g id="node43" class="node"><title>Node20</title>
<polygon fill="white" stroke="#bfbfbf" points="663,-116.5 663,-137.5 741,-137.5 741,-116.5 663,-116.5"/>
<text text-anchor="middle" x="702" y="-124.5" font-family="Helvetica,sans-Serif" font-size="10.00">lunaservice.h</text>
</g>
<!-- Node10&#45;&gt;Node20 -->
<g id="edge46" class="edge"><title>Node10&#45;&gt;Node20</title>
<path fill="none" stroke="midnightblue" d="M851.041,-174.497C821.242,-165 777.191,-150.962 744.703,-140.609"/>
<polygon fill="midnightblue" stroke="midnightblue" points="745.611,-137.225 735.021,-137.523 743.486,-143.894 745.611,-137.225"/>
</g>
<!-- Node12 -->
<g id="node26" class="node"><title>Node12</title>
<a xlink:href="ProcessBase_8h.htm" target="_top" xlink:title="ProcessBase.h">
<polygon fill="white" stroke="black" points="771.5,-58.5 771.5,-79.5 858.5,-79.5 858.5,-58.5 771.5,-58.5"/>
<text text-anchor="middle" x="815" y="-66.5" font-family="Helvetica,sans-Serif" font-size="10.00">ProcessBase.h</text>
</a>
</g>
<!-- Node11&#45;&gt;Node12 -->
<g id="edge28" class="edge"><title>Node11&#45;&gt;Node12</title>
<path fill="none" stroke="midnightblue" d="M815,-116.362C815,-108.922 815,-98.7427 815,-89.7276"/>
<polygon fill="midnightblue" stroke="midnightblue" points="818.5,-89.5706 815,-79.5707 811.5,-89.5707 818.5,-89.5706"/>
</g>
<!-- Node14 -->
<g id="node31" class="node"><title>Node14</title>
<polygon fill="white" stroke="#bfbfbf" points="617.5,-58.5 617.5,-79.5 678.5,-79.5 678.5,-58.5 617.5,-58.5"/>
<text text-anchor="middle" x="648" y="-66.5" font-family="Helvetica,sans-Serif" font-size="10.00">QtWebKit</text>
</g>
<!-- Node11&#45;&gt;Node14 -->
<g id="edge34" class="edge"><title>Node11&#45;&gt;Node14</title>
<path fill="none" stroke="midnightblue" d="M784.758,-116.497C757.65,-107.082 717.69,-93.2036 687.957,-82.8773"/>
<polygon fill="midnightblue" stroke="midnightblue" points="688.894,-79.4977 678.299,-79.5231 686.597,-86.1102 688.894,-79.4977"/>
</g>
<!-- Node15 -->
<g id="node33" class="node"><title>Node15</title>
<polygon fill="white" stroke="#bfbfbf" points="695.5,-58.5 695.5,-79.5 754.5,-79.5 754.5,-58.5 695.5,-58.5"/>
<text text-anchor="middle" x="725" y="-66.5" font-family="Helvetica,sans-Serif" font-size="10.00">QPointer</text>
</g>
<!-- Node11&#45;&gt;Node15 -->
<g id="edge36" class="edge"><title>Node11&#45;&gt;Node15</title>
<path fill="none" stroke="midnightblue" d="M798.493,-116.362C784.918,-107.614 765.467,-95.0786 749.985,-85.1015"/>
<polygon fill="midnightblue" stroke="midnightblue" points="751.704,-82.0457 741.403,-79.5707 747.912,-87.9297 751.704,-82.0457"/>
</g>
<!-- Node11&#45;&gt;Node16 -->
<g id="edge38" class="edge"><title>Node11&#45;&gt;Node16</title>
<path fill="none" stroke="midnightblue" d="M834.92,-116.497C851.946,-107.519 876.669,-94.4835 895.909,-84.3387"/>
<polygon fill="midnightblue" stroke="midnightblue" points="897.643,-87.3814 904.856,-79.6212 894.378,-81.1894 897.643,-87.3814"/>
</g>
<!-- Node17 -->
<g id="node37" class="node"><title>Node17</title>
<polygon fill="white" stroke="#bfbfbf" points="435.5,-58.5 435.5,-79.5 506.5,-79.5 506.5,-58.5 435.5,-58.5"/>
<text text-anchor="middle" x="471" y="-66.5" font-family="Helvetica,sans-Serif" font-size="10.00">QWebPage</text>
</g>
<!-- Node11&#45;&gt;Node17 -->
<g id="edge40" class="edge"><title>Node11&#45;&gt;Node17</title>
<path fill="none" stroke="midnightblue" d="M758.288,-117.349C755.486,-116.889 752.712,-116.437 750,-116 648.842,-99.6932 620.299,-100.753 516.867,-80.2618"/>
<polygon fill="midnightblue" stroke="midnightblue" points="517.449,-76.8089 506.957,-78.2784 516.075,-83.6728 517.449,-76.8089"/>
</g>
<!-- Node18 -->
<g id="node39" class="node"><title>Node18</title>
<polygon fill="white" stroke="#bfbfbf" points="524,-58.5 524,-79.5 600,-79.5 600,-58.5 524,-58.5"/>
<text text-anchor="middle" x="562" y="-66.5" font-family="Helvetica,sans-Serif" font-size="10.00">QWebFrame</text>
</g>
<!-- Node11&#45;&gt;Node18 -->
<g id="edge42" class="edge"><title>Node11&#45;&gt;Node18</title>
<path fill="none" stroke="midnightblue" d="M768.349,-116.434C728.787,-107.457 670.259,-94.1341 610.249,-80.2808"/>
<polygon fill="midnightblue" stroke="midnightblue" points="610.747,-76.8037 600.215,-77.9628 609.171,-83.6241 610.747,-76.8037"/>
</g>
<!-- Node12&#45;&gt;Node2 -->
<g id="edge30" class="edge"><title>Node12&#45;&gt;Node2</title>
<path fill="none" stroke="midnightblue" d="M848.864,-58.4966C879.578,-48.9706 925.026,-34.8744 958.435,-24.5121"/>
<polygon fill="midnightblue" stroke="midnightblue" points="959.873,-27.7306 968.388,-21.4252 957.8,-21.0448 959.873,-27.7306"/>
</g>
<!-- Node13 -->
<g id="node29" class="node"><title>Node13</title>
<polygon fill="white" stroke="#bfbfbf" points="788.5,-0.5 788.5,-21.5 841.5,-21.5 841.5,-0.5 788.5,-0.5"/>
<text text-anchor="middle" x="815" y="-8.5" font-family="Helvetica,sans-Serif" font-size="10.00">QString</text>
</g>
<!-- Node12&#45;&gt;Node13 -->
<g id="edge32" class="edge"><title>Node12&#45;&gt;Node13</title>
<path fill="none" stroke="midnightblue" d="M815,-58.3619C815,-50.9219 815,-40.7427 815,-31.7276"/>
<polygon fill="midnightblue" stroke="midnightblue" points="818.5,-31.5706 815,-21.5707 811.5,-31.5707 818.5,-31.5706"/>
</g>
</g>
</svg>
