<?xml version="1.0" encoding="UTF-8" standalone="no"?>
<!DOCTYPE svg PUBLIC "-//W3C//DTD SVG 1.1//EN"
 "http://www.w3.org/Graphics/SVG/1.1/DTD/svg11.dtd">
<!-- Generated by graphviz version 2.26.3 (20100126.1600)
 -->
<!-- Title: RemoteWindowData.h Pages: 1 -->
<svg width="1313pt" height="378pt"
 viewBox="0.00 0.00 1313.00 378.00" xmlns="http://www.w3.org/2000/svg" xmlns:xlink="http://www.w3.org/1999/xlink">
<g id="graph1" class="graph" transform="scale(1 1) rotate(0) translate(4 374)">
<title>RemoteWindowData.h</title>
<polygon fill="white" stroke="white" points="-4,5 -4,-374 1310,-374 1310,5 -4,5"/>
<!-- Node1 -->
<g id="node1" class="node"><title>Node1</title>
<polygon fill="#bfbfbf" stroke="black" points="0,-348.5 0,-369.5 122,-369.5 122,-348.5 0,-348.5"/>
<text text-anchor="middle" x="61" y="-356.5" font-family="Helvetica,sans-Serif" font-size="10.00">RemoteWindowData.h</text>
</g>
<!-- Node2 -->
<g id="node3" class="node"><title>Node2</title>
<polygon fill="white" stroke="#bfbfbf" points="391.5,-0.5 391.5,-21.5 458.5,-21.5 458.5,-0.5 391.5,-0.5"/>
<text text-anchor="middle" x="425" y="-8.5" font-family="Helvetica,sans-Serif" font-size="10.00">Common.h</text>
</g>
<!-- Node1&#45;&gt;Node2 -->
<g id="edge2" class="edge"><title>Node1&#45;&gt;Node2</title>
<path fill="none" stroke="midnightblue" d="M52.806,-348.489C38.3895,-328.91 10,-285.019 10,-243 10,-243 10,-243 10,-127 10,-50.5281 274.673,-22.2167 381.282,-13.9147"/>
<polygon fill="midnightblue" stroke="midnightblue" points="381.683,-17.3945 391.39,-13.1509 381.155,-10.4144 381.683,-17.3945"/>
</g>
<!-- Node3 -->
<g id="node5" class="node"><title>Node3</title>
<polygon fill="white" stroke="#bfbfbf" points="37.5,-174.5 37.5,-195.5 84.5,-195.5 84.5,-174.5 37.5,-174.5"/>
<text text-anchor="middle" x="61" y="-182.5" font-family="Helvetica,sans-Serif" font-size="10.00">QRect</text>
</g>
<!-- Node1&#45;&gt;Node3 -->
<g id="edge4" class="edge"><title>Node1&#45;&gt;Node3</title>
<path fill="none" stroke="midnightblue" d="M61,-348.377C61,-320.293 61,-243.673 61,-206.203"/>
<polygon fill="midnightblue" stroke="midnightblue" points="64.5001,-205.928 61,-195.928 57.5001,-205.928 64.5001,-205.928"/>
</g>
<!-- Node4 -->
<g id="node7" class="node"><title>Node4</title>
<a xlink:href="CardWebApp_8h.htm" target="_top" xlink:title="CardWebApp.h">
<polygon fill="white" stroke="black" points="693,-290.5 693,-311.5 781,-311.5 781,-290.5 693,-290.5"/>
<text text-anchor="middle" x="737" y="-298.5" font-family="Helvetica,sans-Serif" font-size="10.00">CardWebApp.h</text>
</a>
</g>
<!-- Node1&#45;&gt;Node4 -->
<g id="edge6" class="edge"><title>Node1&#45;&gt;Node4</title>
<path fill="none" stroke="midnightblue" d="M122.183,-353.751C253.056,-342.522 558.369,-316.326 682.782,-305.652"/>
<polygon fill="midnightblue" stroke="midnightblue" points="683.173,-309.131 692.837,-304.789 682.575,-302.157 683.173,-309.131"/>
</g>
<!-- Node4&#45;&gt;Node2 -->
<g id="edge8" class="edge"><title>Node4&#45;&gt;Node2</title>
<path fill="none" stroke="midnightblue" d="M692.553,-297.467C549.766,-285.53 112,-244.112 112,-185 112,-185 112,-185 112,-127 112,-70.2675 295.084,-32.4619 381.203,-17.8169"/>
<polygon fill="midnightblue" stroke="midnightblue" points="381.919,-21.2459 391.206,-16.146 380.766,-14.3415 381.919,-21.2459"/>
</g>
<!-- Node5 -->
<g id="node10" class="node"><title>Node5</title>
<polygon fill="white" stroke="#bfbfbf" points="1039.5,-174.5 1039.5,-195.5 1082.5,-195.5 1082.5,-174.5 1039.5,-174.5"/>
<text text-anchor="middle" x="1061" y="-182.5" font-family="Helvetica,sans-Serif" font-size="10.00">sptr.h</text>
</g>
<!-- Node4&#45;&gt;Node5 -->
<g id="edge10" class="edge"><title>Node4&#45;&gt;Node5</title>
<path fill="none" stroke="midnightblue" d="M781.083,-298.119C829.532,-293.617 908.745,-282.262 971,-254 998.886,-241.341 1026.11,-218.591 1043.18,-202.687"/>
<polygon fill="midnightblue" stroke="midnightblue" points="1045.89,-204.941 1050.71,-195.504 1041.06,-199.878 1045.89,-204.941"/>
</g>
<!-- Node6 -->
<g id="node12" class="node"><title>Node6</title>
<a xlink:href="WindowedWebApp_8h.htm" target="_top" xlink:title="WindowedWebApp.h">
<polygon fill="white" stroke="black" points="513,-232.5 513,-253.5 627,-253.5 627,-232.5 513,-232.5"/>
<text text-anchor="middle" x="570" y="-240.5" font-family="Helvetica,sans-Serif" font-size="10.00">WindowedWebApp.h</text>
</a>
</g>
<!-- Node4&#45;&gt;Node6 -->
<g id="edge12" class="edge"><title>Node4&#45;&gt;Node6</title>
<path fill="none" stroke="midnightblue" d="M706.758,-290.497C679.65,-281.082 639.69,-267.204 609.957,-256.877"/>
<polygon fill="midnightblue" stroke="midnightblue" points="610.894,-253.498 600.299,-253.523 608.597,-260.11 610.894,-253.498"/>
</g>
<!-- Node23 -->
<g id="node50" class="node"><title>Node23</title>
<polygon fill="white" stroke="#bfbfbf" points="930,-174.5 930,-195.5 1022,-195.5 1022,-174.5 930,-174.5"/>
<text text-anchor="middle" x="976" y="-182.5" font-family="Helvetica,sans-Serif" font-size="10.00">WindowTypes.h</text>
</g>
<!-- Node4&#45;&gt;Node23 -->
<g id="edge62" class="edge"><title>Node4&#45;&gt;Node23</title>
<path fill="none" stroke="midnightblue" d="M781.369,-296.204C836.159,-289.451 925.169,-275.508 950,-254 964.015,-241.86 970.494,-221.369 973.478,-205.863"/>
<polygon fill="midnightblue" stroke="midnightblue" points="976.989,-206.068 975.091,-195.644 970.075,-204.976 976.989,-206.068"/>
</g>
<!-- Node26 -->
<g id="node58" class="node"><title>Node26</title>
<polygon fill="white" stroke="#bfbfbf" points="644.5,-232.5 644.5,-253.5 727.5,-253.5 727.5,-232.5 644.5,-232.5"/>
<text text-anchor="middle" x="686" y="-240.5" font-family="Helvetica,sans-Serif" font-size="10.00">SysMgrDefs.h</text>
</g>
<!-- Node4&#45;&gt;Node26 -->
<g id="edge64" class="edge"><title>Node4&#45;&gt;Node26</title>
<path fill="none" stroke="midnightblue" d="M727.646,-290.362C720.457,-282.186 710.359,-270.702 701.907,-261.091"/>
<polygon fill="midnightblue" stroke="midnightblue" points="704.527,-258.769 695.295,-253.571 699.27,-263.392 704.527,-258.769"/>
</g>
<!-- Node27 -->
<g id="node60" class="node"><title>Node27</title>
<polygon fill="white" stroke="#bfbfbf" points="745,-232.5 745,-253.5 833,-253.5 833,-232.5 745,-232.5"/>
<text text-anchor="middle" x="789" y="-240.5" font-family="Helvetica,sans-Serif" font-size="10.00">QGraphicsItem</text>
</g>
<!-- Node4&#45;&gt;Node27 -->
<g id="edge66" class="edge"><title>Node4&#45;&gt;Node27</title>
<path fill="none" stroke="midnightblue" d="M746.538,-290.362C753.868,-282.186 764.163,-270.702 772.781,-261.091"/>
<polygon fill="midnightblue" stroke="midnightblue" points="775.453,-263.353 779.523,-253.571 770.241,-258.68 775.453,-263.353"/>
</g>
<!-- Node28 -->
<g id="node62" class="node"><title>Node28</title>
<polygon fill="white" stroke="#bfbfbf" points="851,-232.5 851,-253.5 941,-253.5 941,-232.5 851,-232.5"/>
<text text-anchor="middle" x="896" y="-240.5" font-family="Helvetica,sans-Serif" font-size="10.00">QGraphicsView</text>
</g>
<!-- Node4&#45;&gt;Node28 -->
<g id="edge68" class="edge"><title>Node4&#45;&gt;Node28</title>
<path fill="none" stroke="midnightblue" d="M765.794,-290.497C791.491,-281.123 829.318,-267.324 857.587,-257.012"/>
<polygon fill="midnightblue" stroke="midnightblue" points="858.957,-260.238 867.152,-253.523 856.558,-253.662 858.957,-260.238"/>
</g>
<!-- Node6&#45;&gt;Node2 -->
<g id="edge14" class="edge"><title>Node6&#45;&gt;Node2</title>
<path fill="none" stroke="midnightblue" d="M627.414,-233.68C668.366,-225.725 718.336,-212.89 731,-196 736.866,-188.177 736.033,-182.383 731,-174 673.418,-78.0848 538.155,-35.5245 468.358,-19.4028"/>
<polygon fill="midnightblue" stroke="midnightblue" points="469.074,-15.9767 458.552,-17.2128 467.548,-22.8084 469.074,-15.9767"/>
</g>
<!-- Node6&#45;&gt;Node3 -->
<g id="edge60" class="edge"><title>Node6&#45;&gt;Node3</title>
<path fill="none" stroke="midnightblue" d="M512.716,-237.774C428.802,-229.914 267.595,-214.033 131,-196 119.141,-194.434 106.192,-192.471 94.6923,-190.638"/>
<polygon fill="midnightblue" stroke="midnightblue" points="95.0419,-187.149 84.6112,-189.007 93.9235,-194.059 95.0419,-187.149"/>
</g>
<!-- Node6&#45;&gt;Node5 -->
<g id="edge46" class="edge"><title>Node6&#45;&gt;Node5</title>
<path fill="none" stroke="midnightblue" d="M627.199,-233.2C630.172,-232.774 633.12,-232.371 636,-232 807.596,-209.912 857.18,-233.753 1029.35,-195.935"/>
<polygon fill="midnightblue" stroke="midnightblue" points="1030.25,-199.32 1039.24,-193.723 1028.72,-192.488 1030.25,-199.32"/>
</g>
<!-- Node7 -->
<g id="node15" class="node"><title>Node7</title>
<polygon fill="white" stroke="#bfbfbf" points="777.5,-174.5 777.5,-195.5 806.5,-195.5 806.5,-174.5 777.5,-174.5"/>
<text text-anchor="middle" x="792" y="-182.5" font-family="Helvetica,sans-Serif" font-size="10.00">list</text>
</g>
<!-- Node6&#45;&gt;Node7 -->
<g id="edge16" class="edge"><title>Node6&#45;&gt;Node7</title>
<path fill="none" stroke="midnightblue" d="M621.994,-232.427C661.365,-223.935 716.581,-210.981 764,-196 765.233,-195.611 766.489,-195.194 767.752,-194.758"/>
<polygon fill="midnightblue" stroke="midnightblue" points="769.159,-197.969 777.313,-191.205 766.72,-191.408 769.159,-197.969"/>
</g>
<!-- Node8 -->
<g id="node17" class="node"><title>Node8</title>
<polygon fill="white" stroke="#bfbfbf" points="139.5,-174.5 139.5,-195.5 220.5,-195.5 220.5,-174.5 139.5,-174.5"/>
<text text-anchor="middle" x="180" y="-182.5" font-family="Helvetica,sans-Serif" font-size="10.00">AsyncCaller.h</text>
</g>
<!-- Node6&#45;&gt;Node8 -->
<g id="edge18" class="edge"><title>Node6&#45;&gt;Node8</title>
<path fill="none" stroke="midnightblue" d="M512.751,-236.596C446.938,-228.903 335.476,-214.858 230.705,-196.206"/>
<polygon fill="midnightblue" stroke="midnightblue" points="231.05,-192.712 220.589,-194.387 229.811,-199.602 231.05,-192.712"/>
</g>
<!-- Node9 -->
<g id="node19" class="node"><title>Node9</title>
<a xlink:href="WebAppBase_8h.htm" target="_top" xlink:title="WebAppBase.h">
<polygon fill="white" stroke="black" points="823.5,-174.5 823.5,-195.5 912.5,-195.5 912.5,-174.5 823.5,-174.5"/>
<text text-anchor="middle" x="868" y="-182.5" font-family="Helvetica,sans-Serif" font-size="10.00">WebAppBase.h</text>
</a>
</g>
<!-- Node6&#45;&gt;Node9 -->
<g id="edge20" class="edge"><title>Node6&#45;&gt;Node9</title>
<path fill="none" stroke="midnightblue" d="M626.487,-232.414C673.943,-223.464 743.82,-210.153 813.629,-196.256"/>
<polygon fill="midnightblue" stroke="midnightblue" points="814.355,-199.68 823.477,-194.291 812.985,-192.815 814.355,-199.68"/>
</g>
<!-- Node20 -->
<g id="node44" class="node"><title>Node20</title>
<polygon fill="white" stroke="#bfbfbf" points="238,-174.5 238,-195.5 290,-195.5 290,-174.5 238,-174.5"/>
<text text-anchor="middle" x="264" y="-182.5" font-family="Helvetica,sans-Serif" font-size="10.00">Event.h</text>
</g>
<!-- Node6&#45;&gt;Node20 -->
<g id="edge48" class="edge"><title>Node6&#45;&gt;Node20</title>
<path fill="none" stroke="midnightblue" d="M512.973,-235.359C460.081,-227.766 379.067,-214.854 300.353,-196.105"/>
<polygon fill="midnightblue" stroke="midnightblue" points="300.81,-192.615 290.268,-193.667 299.166,-199.419 300.81,-192.615"/>
</g>
<!-- Node21 -->
<g id="node46" class="node"><title>Node21</title>
<polygon fill="white" stroke="#bfbfbf" points="308,-174.5 308,-195.5 360,-195.5 360,-174.5 308,-174.5"/>
<text text-anchor="middle" x="334" y="-182.5" font-family="Helvetica,sans-Serif" font-size="10.00">Timer.h</text>
</g>
<!-- Node6&#45;&gt;Node21 -->
<g id="edge50" class="edge"><title>Node6&#45;&gt;Node21</title>
<path fill="none" stroke="midnightblue" d="M520.178,-232.438C481.578,-224.008 426.577,-211.464 370.121,-196.181"/>
<polygon fill="midnightblue" stroke="midnightblue" points="370.88,-192.76 360.311,-193.501 369.035,-199.513 370.88,-192.76"/>
</g>
<!-- Node22 -->
<g id="node48" class="node"><title>Node22</title>
<polygon fill="white" stroke="#bfbfbf" points="377.5,-174.5 377.5,-195.5 488.5,-195.5 488.5,-174.5 377.5,-174.5"/>
<text text-anchor="middle" x="433" y="-182.5" font-family="Helvetica,sans-Serif" font-size="10.00">WindowProperties.h</text>
</g>
<!-- Node6&#45;&gt;Node22 -->
<g id="edge52" class="edge"><title>Node6&#45;&gt;Node22</title>
<path fill="none" stroke="midnightblue" d="M545.19,-232.497C523.504,-223.315 491.789,-209.889 467.608,-199.652"/>
<polygon fill="midnightblue" stroke="midnightblue" points="468.661,-196.297 458.088,-195.621 465.932,-202.743 468.661,-196.297"/>
</g>
<!-- Node6&#45;&gt;Node23 -->
<g id="edge54" class="edge"><title>Node6&#45;&gt;Node23</title>
<path fill="none" stroke="midnightblue" d="M627.216,-233.322C630.185,-232.864 633.127,-232.421 636,-232 759.119,-213.971 793.27,-216.393 919.754,-196.116"/>
<polygon fill="midnightblue" stroke="midnightblue" points="920.518,-199.537 929.83,-194.484 919.399,-192.627 920.518,-199.537"/>
</g>
<!-- Node24 -->
<g id="node52" class="node"><title>Node24</title>
<polygon fill="white" stroke="#bfbfbf" points="506,-174.5 506,-195.5 630,-195.5 630,-174.5 506,-174.5"/>
<text text-anchor="middle" x="568" y="-182.5" font-family="Helvetica,sans-Serif" font-size="10.00">PIpcChannelListener.h</text>
</g>
<!-- Node6&#45;&gt;Node24 -->
<g id="edge56" class="edge"><title>Node6&#45;&gt;Node24</title>
<path fill="none" stroke="midnightblue" d="M569.633,-232.362C569.377,-224.922 569.026,-214.743 568.715,-205.728"/>
<polygon fill="midnightblue" stroke="midnightblue" points="572.207,-205.444 568.365,-195.571 565.211,-205.685 572.207,-205.444"/>
</g>
<!-- Node25 -->
<g id="node54" class="node"><title>Node25</title>
<polygon fill="white" stroke="#bfbfbf" points="648,-174.5 648,-195.5 722,-195.5 722,-174.5 648,-174.5"/>
<text text-anchor="middle" x="685" y="-182.5" font-family="Helvetica,sans-Serif" font-size="10.00">PIpcBuffer.h</text>
</g>
<!-- Node6&#45;&gt;Node25 -->
<g id="edge58" class="edge"><title>Node6&#45;&gt;Node25</title>
<path fill="none" stroke="midnightblue" d="M590.826,-232.497C608.706,-223.479 634.707,-210.365 654.861,-200.201"/>
<polygon fill="midnightblue" stroke="midnightblue" points="656.588,-203.249 663.941,-195.621 653.436,-196.999 656.588,-203.249"/>
</g>
<!-- Node10 -->
<g id="node21" class="node"><title>Node10</title>
<a xlink:href="SysMgrWebBridge_8h.htm" target="_top" xlink:title="SysMgrWebBridge.h">
<polygon fill="white" stroke="black" points="934.5,-116.5 934.5,-137.5 1047.5,-137.5 1047.5,-116.5 934.5,-116.5"/>
<text text-anchor="middle" x="991" y="-124.5" font-family="Helvetica,sans-Serif" font-size="10.00">SysMgrWebBridge.h</text>
</a>
</g>
<!-- Node9&#45;&gt;Node10 -->
<g id="edge22" class="edge"><title>Node9&#45;&gt;Node10</title>
<path fill="none" stroke="midnightblue" d="M890.274,-174.497C909.572,-165.397 937.713,-152.127 959.348,-141.925"/>
<polygon fill="midnightblue" stroke="midnightblue" points="960.924,-145.052 968.476,-137.621 957.938,-138.721 960.924,-145.052"/>
</g>
<!-- Node15 -->
<g id="node32" class="node"><title>Node15</title>
<polygon fill="white" stroke="#bfbfbf" points="1207,-58.5 1207,-79.5 1305,-79.5 1305,-58.5 1207,-58.5"/>
<text text-anchor="middle" x="1256" y="-66.5" font-family="Helvetica,sans-Serif" font-size="10.00">palmimedefines.h</text>
</g>
<!-- Node9&#45;&gt;Node15 -->
<g id="edge44" class="edge"><title>Node9&#45;&gt;Node15</title>
<path fill="none" stroke="midnightblue" d="M912.739,-174.975C951.017,-166.121 1007.46,-152.411 1056,-138 1113.13,-121.039 1178.18,-97.8607 1218.16,-83.1593"/>
<polygon fill="midnightblue" stroke="midnightblue" points="1219.6,-86.3601 1227.77,-79.6132 1217.18,-79.7933 1219.6,-86.3601"/>
</g>
<!-- Node18 -->
<g id="node38" class="node"><title>Node18</title>
<polygon fill="white" stroke="#bfbfbf" points="766.5,-116.5 766.5,-137.5 821.5,-137.5 821.5,-116.5 766.5,-116.5"/>
<text text-anchor="middle" x="794" y="-124.5" font-family="Helvetica,sans-Serif" font-size="10.00">QObject</text>
</g>
<!-- Node9&#45;&gt;Node18 -->
<g id="edge40" class="edge"><title>Node9&#45;&gt;Node18</title>
<path fill="none" stroke="midnightblue" d="M854.427,-174.362C843.579,-165.859 828.166,-153.779 815.621,-143.947"/>
<polygon fill="midnightblue" stroke="midnightblue" points="817.516,-140.985 807.487,-137.571 813.198,-146.494 817.516,-140.985"/>
</g>
<!-- Node19 -->
<g id="node40" class="node"><title>Node19</title>
<polygon fill="white" stroke="#bfbfbf" points="839,-116.5 839,-137.5 917,-137.5 917,-116.5 839,-116.5"/>
<text text-anchor="middle" x="878" y="-124.5" font-family="Helvetica,sans-Serif" font-size="10.00">lunaservice.h</text>
</g>
<!-- Node9&#45;&gt;Node19 -->
<g id="edge42" class="edge"><title>Node9&#45;&gt;Node19</title>
<path fill="none" stroke="midnightblue" d="M869.834,-174.362C871.131,-166.84 872.911,-156.519 874.477,-147.431"/>
<polygon fill="midnightblue" stroke="midnightblue" points="877.927,-148.02 876.177,-137.571 871.029,-146.831 877.927,-148.02"/>
</g>
<!-- Node11 -->
<g id="node23" class="node"><title>Node11</title>
<a xlink:href="ProcessBase_8h.htm" target="_top" xlink:title="ProcessBase.h">
<polygon fill="white" stroke="black" points="1102.5,-58.5 1102.5,-79.5 1189.5,-79.5 1189.5,-58.5 1102.5,-58.5"/>
<text text-anchor="middle" x="1146" y="-66.5" font-family="Helvetica,sans-Serif" font-size="10.00">ProcessBase.h</text>
</a>
</g>
<!-- Node10&#45;&gt;Node11 -->
<g id="edge24" class="edge"><title>Node10&#45;&gt;Node11</title>
<path fill="none" stroke="midnightblue" d="M1019.07,-116.497C1044.01,-107.164 1080.67,-93.4447 1108.19,-83.1475"/>
<polygon fill="midnightblue" stroke="midnightblue" points="1109.74,-86.3058 1117.88,-79.5231 1107.29,-79.7497 1109.74,-86.3058"/>
</g>
<!-- Node13 -->
<g id="node28" class="node"><title>Node13</title>
<polygon fill="white" stroke="#bfbfbf" points="948.5,-58.5 948.5,-79.5 1009.5,-79.5 1009.5,-58.5 948.5,-58.5"/>
<text text-anchor="middle" x="979" y="-66.5" font-family="Helvetica,sans-Serif" font-size="10.00">QtWebKit</text>
</g>
<!-- Node10&#45;&gt;Node13 -->
<g id="edge30" class="edge"><title>Node10&#45;&gt;Node13</title>
<path fill="none" stroke="midnightblue" d="M988.799,-116.362C987.243,-108.84 985.107,-98.5187 983.227,-89.4308"/>
<polygon fill="midnightblue" stroke="midnightblue" points="986.641,-88.6541 981.187,-79.5707 979.786,-90.0724 986.641,-88.6541"/>
</g>
<!-- Node14 -->
<g id="node30" class="node"><title>Node14</title>
<polygon fill="white" stroke="#bfbfbf" points="1026.5,-58.5 1026.5,-79.5 1085.5,-79.5 1085.5,-58.5 1026.5,-58.5"/>
<text text-anchor="middle" x="1056" y="-66.5" font-family="Helvetica,sans-Serif" font-size="10.00">QPointer</text>
</g>
<!-- Node10&#45;&gt;Node14 -->
<g id="edge32" class="edge"><title>Node10&#45;&gt;Node14</title>
<path fill="none" stroke="midnightblue" d="M1002.92,-116.362C1012.36,-107.941 1025.73,-96.0105 1036.69,-86.2308"/>
<polygon fill="midnightblue" stroke="midnightblue" points="1039.02,-88.8401 1044.15,-79.5707 1034.36,-83.6171 1039.02,-88.8401"/>
</g>
<!-- Node10&#45;&gt;Node15 -->
<g id="edge34" class="edge"><title>Node10&#45;&gt;Node15</title>
<path fill="none" stroke="midnightblue" d="M1038.99,-116.497C1083.69,-106.714 1150.41,-92.1107 1198.06,-81.6819"/>
<polygon fill="midnightblue" stroke="midnightblue" points="1198.9,-85.0803 1207.92,-79.5231 1197.4,-78.2421 1198.9,-85.0803"/>
</g>
<!-- Node16 -->
<g id="node34" class="node"><title>Node16</title>
<polygon fill="white" stroke="#bfbfbf" points="766.5,-58.5 766.5,-79.5 837.5,-79.5 837.5,-58.5 766.5,-58.5"/>
<text text-anchor="middle" x="802" y="-66.5" font-family="Helvetica,sans-Serif" font-size="10.00">QWebPage</text>
</g>
<!-- Node10&#45;&gt;Node16 -->
<g id="edge36" class="edge"><title>Node10&#45;&gt;Node16</title>
<path fill="none" stroke="midnightblue" d="M956.774,-116.497C925.695,-106.959 879.688,-92.8408 845.91,-82.475"/>
<polygon fill="midnightblue" stroke="midnightblue" points="846.877,-79.1109 836.291,-79.5231 844.824,-85.8029 846.877,-79.1109"/>
</g>
<!-- Node17 -->
<g id="node36" class="node"><title>Node17</title>
<polygon fill="white" stroke="#bfbfbf" points="855,-58.5 855,-79.5 931,-79.5 931,-58.5 855,-58.5"/>
<text text-anchor="middle" x="893" y="-66.5" font-family="Helvetica,sans-Serif" font-size="10.00">QWebFrame</text>
</g>
<!-- Node10&#45;&gt;Node17 -->
<g id="edge38" class="edge"><title>Node10&#45;&gt;Node17</title>
<path fill="none" stroke="midnightblue" d="M973.025,-116.362C958.106,-107.532 936.667,-94.844 919.734,-84.8224"/>
<polygon fill="midnightblue" stroke="midnightblue" points="921.249,-81.6519 910.861,-79.5707 917.684,-87.6759 921.249,-81.6519"/>
</g>
<!-- Node11&#45;&gt;Node2 -->
<g id="edge26" class="edge"><title>Node11&#45;&gt;Node2</title>
<path fill="none" stroke="midnightblue" d="M1102.38,-59.3165C1099.55,-58.8297 1096.74,-58.3844 1094,-58 859.664,-25.1438 575.765,-14.8338 468.685,-11.9796"/>
<polygon fill="midnightblue" stroke="midnightblue" points="468.671,-8.47814 458.584,-11.7187 468.491,-15.4758 468.671,-8.47814"/>
</g>
<!-- Node12 -->
<g id="node26" class="node"><title>Node12</title>
<polygon fill="white" stroke="#bfbfbf" points="1119.5,-0.5 1119.5,-21.5 1172.5,-21.5 1172.5,-0.5 1119.5,-0.5"/>
<text text-anchor="middle" x="1146" y="-8.5" font-family="Helvetica,sans-Serif" font-size="10.00">QString</text>
</g>
<!-- Node11&#45;&gt;Node12 -->
<g id="edge28" class="edge"><title>Node11&#45;&gt;Node12</title>
<path fill="none" stroke="midnightblue" d="M1146,-58.3619C1146,-50.9219 1146,-40.7427 1146,-31.7276"/>
<polygon fill="midnightblue" stroke="midnightblue" points="1149.5,-31.5706 1146,-21.5707 1142.5,-31.5707 1149.5,-31.5706"/>
</g>
</g>
</svg>
