<?xml version="1.0" encoding="UTF-8" standalone="no"?>
<!DOCTYPE svg PUBLIC "-//W3C//DTD SVG 1.1//EN"
 "http://www.w3.org/Graphics/SVG/1.1/DTD/svg11.dtd">
<!-- Generated by graphviz version 2.26.3 (20100126.1600)
 -->
<!-- Title: RemoteWindowDataSoftwareQt.h Pages: 1 -->
<svg width="1108pt" height="436pt"
 viewBox="0.00 0.00 1108.00 436.00" xmlns="http://www.w3.org/2000/svg" xmlns:xlink="http://www.w3.org/1999/xlink">
<g id="graph1" class="graph" transform="scale(1 1) rotate(0) translate(4 432)">
<title>RemoteWindowDataSoftwareQt.h</title>
<polygon fill="white" stroke="white" points="-4,5 -4,-432 1105,-432 1105,5 -4,5"/>
<!-- Node1 -->
<g id="node1" class="node"><title>Node1</title>
<polygon fill="#bfbfbf" stroke="black" points="202.5,-406.5 202.5,-427.5 377.5,-427.5 377.5,-406.5 202.5,-406.5"/>
<text text-anchor="middle" x="290" y="-414.5" font-family="Helvetica,sans-Serif" font-size="10.00">RemoteWindowDataSoftwareQt.h</text>
</g>
<!-- Node2 -->
<g id="node3" class="node"><title>Node2</title>
<polygon fill="white" stroke="#bfbfbf" points="930.5,-0.5 930.5,-21.5 997.5,-21.5 997.5,-0.5 930.5,-0.5"/>
<text text-anchor="middle" x="964" y="-8.5" font-family="Helvetica,sans-Serif" font-size="10.00">Common.h</text>
</g>
<!-- Node1&#45;&gt;Node2 -->
<g id="edge2" class="edge"><title>Node1&#45;&gt;Node2</title>
<path fill="none" stroke="midnightblue" d="M234.085,-406.473C149.814,-388.988 0,-350.888 0,-301 0,-301 0,-301 0,-127 0,48.5876 214.861,-80.5105 389,-58 441.173,-51.2557 794.982,-23.9261 920.195,-14.3414"/>
<polygon fill="midnightblue" stroke="midnightblue" points="920.497,-17.8286 930.201,-13.5759 919.963,-10.8489 920.497,-17.8286"/>
</g>
<!-- Node3 -->
<g id="node5" class="node"><title>Node3</title>
<a xlink:href="RemoteWindowData_8h.htm" target="_top" xlink:title="RemoteWindowData.h">
<polygon fill="white" stroke="black" points="229,-348.5 229,-369.5 351,-369.5 351,-348.5 229,-348.5"/>
<text text-anchor="middle" x="290" y="-356.5" font-family="Helvetica,sans-Serif" font-size="10.00">RemoteWindowData.h</text>
</a>
</g>
<!-- Node1&#45;&gt;Node3 -->
<g id="edge4" class="edge"><title>Node1&#45;&gt;Node3</title>
<path fill="none" stroke="midnightblue" d="M290,-406.362C290,-398.922 290,-388.743 290,-379.728"/>
<polygon fill="midnightblue" stroke="midnightblue" points="293.5,-379.571 290,-369.571 286.5,-379.571 293.5,-379.571"/>
</g>
<!-- Node30 -->
<g id="node67" class="node"><title>Node30</title>
<polygon fill="white" stroke="#bfbfbf" points="368.5,-348.5 368.5,-369.5 431.5,-369.5 431.5,-348.5 368.5,-348.5"/>
<text text-anchor="middle" x="400" y="-356.5" font-family="Helvetica,sans-Serif" font-size="10.00">Logging.h</text>
</g>
<!-- Node1&#45;&gt;Node30 -->
<g id="edge74" class="edge"><title>Node1&#45;&gt;Node30</title>
<path fill="none" stroke="midnightblue" d="M309.92,-406.497C326.946,-397.519 351.669,-384.484 370.909,-374.339"/>
<polygon fill="midnightblue" stroke="midnightblue" points="372.643,-377.381 379.856,-369.621 369.378,-371.189 372.643,-377.381"/>
</g>
<!-- Node3&#45;&gt;Node2 -->
<g id="edge6" class="edge"><title>Node3&#45;&gt;Node2</title>
<path fill="none" stroke="midnightblue" d="M351.05,-349.164C354.074,-348.753 357.07,-348.362 360,-348 442.419,-337.817 1100,-326.046 1100,-243 1100,-243 1100,-243 1100,-127 1100,-76.148 1044.28,-42.8687 1004.17,-25.5007"/>
<polygon fill="midnightblue" stroke="midnightblue" points="1005.44,-22.2378 994.861,-21.6296 1002.75,-28.7012 1005.44,-22.2378"/>
</g>
<!-- Node4 -->
<g id="node8" class="node"><title>Node4</title>
<polygon fill="white" stroke="#bfbfbf" points="27.5,-174.5 27.5,-195.5 74.5,-195.5 74.5,-174.5 27.5,-174.5"/>
<text text-anchor="middle" x="51" y="-182.5" font-family="Helvetica,sans-Serif" font-size="10.00">QRect</text>
</g>
<!-- Node3&#45;&gt;Node4 -->
<g id="edge8" class="edge"><title>Node3&#45;&gt;Node4</title>
<path fill="none" stroke="midnightblue" d="M275.409,-348.377C235.242,-319.134 122.792,-237.267 74.0346,-201.77"/>
<polygon fill="midnightblue" stroke="midnightblue" points="75.8479,-198.761 65.7035,-195.705 71.7279,-204.42 75.8479,-198.761"/>
</g>
<!-- Node5 -->
<g id="node10" class="node"><title>Node5</title>
<a xlink:href="CardWebApp_8h.htm" target="_top" xlink:title="CardWebApp.h">
<polygon fill="white" stroke="black" points="662,-290.5 662,-311.5 750,-311.5 750,-290.5 662,-290.5"/>
<text text-anchor="middle" x="706" y="-298.5" font-family="Helvetica,sans-Serif" font-size="10.00">CardWebApp.h</text>
</a>
</g>
<!-- Node3&#45;&gt;Node5 -->
<g id="edge10" class="edge"><title>Node3&#45;&gt;Node5</title>
<path fill="none" stroke="midnightblue" d="M351.072,-349.326C354.09,-348.872 357.079,-348.428 360,-348 463.122,-332.895 583.787,-316.881 651.923,-307.991"/>
<polygon fill="midnightblue" stroke="midnightblue" points="652.527,-311.442 661.991,-306.679 651.622,-304.5 652.527,-311.442"/>
</g>
<!-- Node5&#45;&gt;Node2 -->
<g id="edge12" class="edge"><title>Node5&#45;&gt;Node2</title>
<path fill="none" stroke="midnightblue" d="M750.01,-296.063C845.258,-284.154 1062,-249.923 1062,-185 1062,-185 1062,-185 1062,-127 1062,-82.7995 1019.97,-46.7407 990.957,-27.1172"/>
<polygon fill="midnightblue" stroke="midnightblue" points="992.722,-24.0899 982.433,-21.5639 988.901,-29.9551 992.722,-24.0899"/>
</g>
<!-- Node6 -->
<g id="node13" class="node"><title>Node6</title>
<polygon fill="white" stroke="#bfbfbf" points="991.5,-174.5 991.5,-195.5 1034.5,-195.5 1034.5,-174.5 991.5,-174.5"/>
<text text-anchor="middle" x="1013" y="-182.5" font-family="Helvetica,sans-Serif" font-size="10.00">sptr.h</text>
</g>
<!-- Node5&#45;&gt;Node6 -->
<g id="edge14" class="edge"><title>Node5&#45;&gt;Node6</title>
<path fill="none" stroke="midnightblue" d="M750.109,-296.673C794.401,-291.104 863.805,-278.993 919,-254 947.786,-240.965 976.416,-218.173 994.378,-202.368"/>
<polygon fill="midnightblue" stroke="midnightblue" points="996.745,-204.947 1001.84,-195.659 992.065,-199.741 996.745,-204.947"/>
</g>
<!-- Node7 -->
<g id="node15" class="node"><title>Node7</title>
<a xlink:href="WindowedWebApp_8h.htm" target="_top" xlink:title="WindowedWebApp.h">
<polygon fill="white" stroke="black" points="482,-232.5 482,-253.5 596,-253.5 596,-232.5 482,-232.5"/>
<text text-anchor="middle" x="539" y="-240.5" font-family="Helvetica,sans-Serif" font-size="10.00">WindowedWebApp.h</text>
</a>
</g>
<!-- Node5&#45;&gt;Node7 -->
<g id="edge16" class="edge"><title>Node5&#45;&gt;Node7</title>
<path fill="none" stroke="midnightblue" d="M675.758,-290.497C648.65,-281.082 608.69,-267.204 578.957,-256.877"/>
<polygon fill="midnightblue" stroke="midnightblue" points="579.894,-253.498 569.299,-253.523 577.597,-260.11 579.894,-253.498"/>
</g>
<!-- Node24 -->
<g id="node53" class="node"><title>Node24</title>
<polygon fill="white" stroke="#bfbfbf" points="92,-174.5 92,-195.5 184,-195.5 184,-174.5 92,-174.5"/>
<text text-anchor="middle" x="138" y="-182.5" font-family="Helvetica,sans-Serif" font-size="10.00">WindowTypes.h</text>
</g>
<!-- Node5&#45;&gt;Node24 -->
<g id="edge66" class="edge"><title>Node5&#45;&gt;Node24</title>
<path fill="none" stroke="midnightblue" d="M661.755,-292.131C614.878,-282.721 538.706,-267.394 473,-254 374.766,-233.976 260.397,-210.352 193.901,-196.587"/>
<polygon fill="midnightblue" stroke="midnightblue" points="194.55,-193.147 184.048,-194.546 193.13,-200.001 194.55,-193.147"/>
</g>
<!-- Node27 -->
<g id="node61" class="node"><title>Node27</title>
<polygon fill="white" stroke="#bfbfbf" points="613.5,-232.5 613.5,-253.5 696.5,-253.5 696.5,-232.5 613.5,-232.5"/>
<text text-anchor="middle" x="655" y="-240.5" font-family="Helvetica,sans-Serif" font-size="10.00">SysMgrDefs.h</text>
</g>
<!-- Node5&#45;&gt;Node27 -->
<g id="edge68" class="edge"><title>Node5&#45;&gt;Node27</title>
<path fill="none" stroke="midnightblue" d="M696.646,-290.362C689.457,-282.186 679.359,-270.702 670.907,-261.091"/>
<polygon fill="midnightblue" stroke="midnightblue" points="673.527,-258.769 664.295,-253.571 668.27,-263.392 673.527,-258.769"/>
</g>
<!-- Node28 -->
<g id="node63" class="node"><title>Node28</title>
<polygon fill="white" stroke="#bfbfbf" points="714,-232.5 714,-253.5 802,-253.5 802,-232.5 714,-232.5"/>
<text text-anchor="middle" x="758" y="-240.5" font-family="Helvetica,sans-Serif" font-size="10.00">QGraphicsItem</text>
</g>
<!-- Node5&#45;&gt;Node28 -->
<g id="edge70" class="edge"><title>Node5&#45;&gt;Node28</title>
<path fill="none" stroke="midnightblue" d="M715.538,-290.362C722.868,-282.186 733.163,-270.702 741.781,-261.091"/>
<polygon fill="midnightblue" stroke="midnightblue" points="744.453,-263.353 748.523,-253.571 739.241,-258.68 744.453,-263.353"/>
</g>
<!-- Node29 -->
<g id="node65" class="node"><title>Node29</title>
<polygon fill="white" stroke="#bfbfbf" points="820,-232.5 820,-253.5 910,-253.5 910,-232.5 820,-232.5"/>
<text text-anchor="middle" x="865" y="-240.5" font-family="Helvetica,sans-Serif" font-size="10.00">QGraphicsView</text>
</g>
<!-- Node5&#45;&gt;Node29 -->
<g id="edge72" class="edge"><title>Node5&#45;&gt;Node29</title>
<path fill="none" stroke="midnightblue" d="M734.794,-290.497C760.491,-281.123 798.318,-267.324 826.587,-257.012"/>
<polygon fill="midnightblue" stroke="midnightblue" points="827.957,-260.238 836.152,-253.523 825.558,-253.662 827.957,-260.238"/>
</g>
<!-- Node7&#45;&gt;Node2 -->
<g id="edge18" class="edge"><title>Node7&#45;&gt;Node2</title>
<path fill="none" stroke="midnightblue" d="M596.206,-233.251C599.177,-232.812 602.122,-232.392 605,-232 680.283,-221.75 891.36,-249.809 945,-196 988.775,-152.087 977.565,-69.9492 969.232,-31.6487"/>
<polygon fill="midnightblue" stroke="midnightblue" points="972.584,-30.6105 966.904,-21.6669 965.766,-32.2005 972.584,-30.6105"/>
</g>
<!-- Node7&#45;&gt;Node4 -->
<g id="edge64" class="edge"><title>Node7&#45;&gt;Node4</title>
<path fill="none" stroke="midnightblue" d="M481.821,-241.288C396.74,-237.827 231.877,-227.602 84.7084,-195.996"/>
<polygon fill="midnightblue" stroke="midnightblue" points="85.1101,-192.501 74.5932,-193.783 83.6142,-199.339 85.1101,-192.501"/>
</g>
<!-- Node7&#45;&gt;Node6 -->
<g id="edge50" class="edge"><title>Node7&#45;&gt;Node6</title>
<path fill="none" stroke="midnightblue" d="M596.201,-233.219C599.174,-232.788 602.121,-232.378 605,-232 770.128,-210.297 814.784,-229.147 978,-196 979.092,-195.778 980.199,-195.535 981.313,-195.275"/>
<polygon fill="midnightblue" stroke="midnightblue" points="982.592,-198.555 991.339,-192.577 980.773,-191.796 982.592,-198.555"/>
</g>
<!-- Node8 -->
<g id="node18" class="node"><title>Node8</title>
<polygon fill="white" stroke="#bfbfbf" points="907.5,-174.5 907.5,-195.5 936.5,-195.5 936.5,-174.5 907.5,-174.5"/>
<text text-anchor="middle" x="922" y="-182.5" font-family="Helvetica,sans-Serif" font-size="10.00">list</text>
</g>
<!-- Node7&#45;&gt;Node8 -->
<g id="edge20" class="edge"><title>Node7&#45;&gt;Node8</title>
<path fill="none" stroke="midnightblue" d="M596.214,-233.309C599.183,-232.854 602.126,-232.415 605,-232 732.109,-213.634 770.751,-231.943 897.499,-195.762"/>
<polygon fill="midnightblue" stroke="midnightblue" points="898.56,-199.098 907.183,-192.942 896.603,-192.378 898.56,-199.098"/>
</g>
<!-- Node9 -->
<g id="node20" class="node"><title>Node9</title>
<polygon fill="white" stroke="#bfbfbf" points="201.5,-174.5 201.5,-195.5 282.5,-195.5 282.5,-174.5 201.5,-174.5"/>
<text text-anchor="middle" x="242" y="-182.5" font-family="Helvetica,sans-Serif" font-size="10.00">AsyncCaller.h</text>
</g>
<!-- Node7&#45;&gt;Node9 -->
<g id="edge22" class="edge"><title>Node7&#45;&gt;Node9</title>
<path fill="none" stroke="midnightblue" d="M481.761,-232.715C433.688,-223.949 362.933,-210.75 292.546,-196.279"/>
<polygon fill="midnightblue" stroke="midnightblue" points="293.121,-192.824 282.619,-194.229 291.705,-199.679 293.121,-192.824"/>
</g>
<!-- Node10 -->
<g id="node22" class="node"><title>Node10</title>
<a xlink:href="WebAppBase_8h.htm" target="_top" xlink:title="WebAppBase.h">
<polygon fill="white" stroke="black" points="801.5,-174.5 801.5,-195.5 890.5,-195.5 890.5,-174.5 801.5,-174.5"/>
<text text-anchor="middle" x="846" y="-182.5" font-family="Helvetica,sans-Serif" font-size="10.00">WebAppBase.h</text>
</a>
</g>
<!-- Node7&#45;&gt;Node10 -->
<g id="edge24" class="edge"><title>Node7&#45;&gt;Node10</title>
<path fill="none" stroke="midnightblue" d="M596.064,-232.806C645.272,-223.932 718.508,-210.529 791.226,-196.322"/>
<polygon fill="midnightblue" stroke="midnightblue" points="792.341,-199.67 801.481,-194.313 790.995,-192.801 792.341,-199.67"/>
</g>
<!-- Node21 -->
<g id="node47" class="node"><title>Node21</title>
<polygon fill="white" stroke="#bfbfbf" points="300,-174.5 300,-195.5 352,-195.5 352,-174.5 300,-174.5"/>
<text text-anchor="middle" x="326" y="-182.5" font-family="Helvetica,sans-Serif" font-size="10.00">Event.h</text>
</g>
<!-- Node7&#45;&gt;Node21 -->
<g id="edge52" class="edge"><title>Node7&#45;&gt;Node21</title>
<path fill="none" stroke="midnightblue" d="M496.77,-232.437C462.727,-223.79 413.41,-210.967 361.962,-196.2"/>
<polygon fill="midnightblue" stroke="midnightblue" points="362.912,-192.831 352.334,-193.42 360.971,-199.556 362.912,-192.831"/>
</g>
<!-- Node22 -->
<g id="node49" class="node"><title>Node22</title>
<polygon fill="white" stroke="#bfbfbf" points="370,-174.5 370,-195.5 422,-195.5 422,-174.5 370,-174.5"/>
<text text-anchor="middle" x="396" y="-182.5" font-family="Helvetica,sans-Serif" font-size="10.00">Timer.h</text>
</g>
<!-- Node7&#45;&gt;Node22 -->
<g id="edge54" class="edge"><title>Node7&#45;&gt;Node22</title>
<path fill="none" stroke="midnightblue" d="M513.104,-232.497C490.367,-223.275 457.07,-209.769 431.788,-199.515"/>
<polygon fill="midnightblue" stroke="midnightblue" points="432.769,-196.136 422.187,-195.621 430.138,-202.623 432.769,-196.136"/>
</g>
<!-- Node23 -->
<g id="node51" class="node"><title>Node23</title>
<polygon fill="white" stroke="#bfbfbf" points="439.5,-174.5 439.5,-195.5 550.5,-195.5 550.5,-174.5 439.5,-174.5"/>
<text text-anchor="middle" x="495" y="-182.5" font-family="Helvetica,sans-Serif" font-size="10.00">WindowProperties.h</text>
</g>
<!-- Node7&#45;&gt;Node23 -->
<g id="edge56" class="edge"><title>Node7&#45;&gt;Node23</title>
<path fill="none" stroke="midnightblue" d="M530.93,-232.362C524.851,-224.35 516.363,-213.161 509.163,-203.67"/>
<polygon fill="midnightblue" stroke="midnightblue" points="511.851,-201.422 503.019,-195.571 506.275,-205.653 511.851,-201.422"/>
</g>
<!-- Node7&#45;&gt;Node24 -->
<g id="edge58" class="edge"><title>Node7&#45;&gt;Node24</title>
<path fill="none" stroke="midnightblue" d="M481.896,-236.351C415.245,-228.342 301.486,-213.907 194.202,-196.127"/>
<polygon fill="midnightblue" stroke="midnightblue" points="194.615,-192.648 184.175,-194.452 193.462,-199.552 194.615,-192.648"/>
</g>
<!-- Node25 -->
<g id="node55" class="node"><title>Node25</title>
<polygon fill="white" stroke="#bfbfbf" points="568,-174.5 568,-195.5 692,-195.5 692,-174.5 568,-174.5"/>
<text text-anchor="middle" x="630" y="-182.5" font-family="Helvetica,sans-Serif" font-size="10.00">PIpcChannelListener.h</text>
</g>
<!-- Node7&#45;&gt;Node25 -->
<g id="edge60" class="edge"><title>Node7&#45;&gt;Node25</title>
<path fill="none" stroke="midnightblue" d="M555.691,-232.362C569.416,-223.614 589.084,-211.079 604.737,-201.101"/>
<polygon fill="midnightblue" stroke="midnightblue" points="606.863,-203.897 613.415,-195.571 603.101,-197.994 606.863,-203.897"/>
</g>
<!-- Node26 -->
<g id="node57" class="node"><title>Node26</title>
<polygon fill="white" stroke="#bfbfbf" points="710,-174.5 710,-195.5 784,-195.5 784,-174.5 710,-174.5"/>
<text text-anchor="middle" x="747" y="-182.5" font-family="Helvetica,sans-Serif" font-size="10.00">PIpcBuffer.h</text>
</g>
<!-- Node7&#45;&gt;Node26 -->
<g id="edge62" class="edge"><title>Node7&#45;&gt;Node26</title>
<path fill="none" stroke="midnightblue" d="M576.667,-232.497C611.379,-222.817 663.011,-208.42 700.325,-198.015"/>
<polygon fill="midnightblue" stroke="midnightblue" points="701.27,-201.385 709.963,-195.328 699.39,-194.642 701.27,-201.385"/>
</g>
<!-- Node11 -->
<g id="node24" class="node"><title>Node11</title>
<a xlink:href="SysMgrWebBridge_8h.htm" target="_top" xlink:title="SysMgrWebBridge.h">
<polygon fill="white" stroke="black" points="720.5,-116.5 720.5,-137.5 833.5,-137.5 833.5,-116.5 720.5,-116.5"/>
<text text-anchor="middle" x="777" y="-124.5" font-family="Helvetica,sans-Serif" font-size="10.00">SysMgrWebBridge.h</text>
</a>
</g>
<!-- Node10&#45;&gt;Node11 -->
<g id="edge26" class="edge"><title>Node10&#45;&gt;Node11</title>
<path fill="none" stroke="midnightblue" d="M833.344,-174.362C823.326,-165.941 809.133,-154.011 797.499,-144.231"/>
<polygon fill="midnightblue" stroke="midnightblue" points="799.482,-141.326 789.575,-137.571 794.978,-146.684 799.482,-141.326"/>
</g>
<!-- Node16 -->
<g id="node35" class="node"><title>Node16</title>
<polygon fill="white" stroke="#bfbfbf" points="838,-58.5 838,-79.5 936,-79.5 936,-58.5 838,-58.5"/>
<text text-anchor="middle" x="887" y="-66.5" font-family="Helvetica,sans-Serif" font-size="10.00">palmimedefines.h</text>
</g>
<!-- Node10&#45;&gt;Node16 -->
<g id="edge48" class="edge"><title>Node10&#45;&gt;Node16</title>
<path fill="none" stroke="midnightblue" d="M849.784,-174.295C856.618,-154.959 871.122,-113.923 879.869,-89.1767"/>
<polygon fill="midnightblue" stroke="midnightblue" points="883.193,-90.274 883.225,-79.6792 876.593,-87.9412 883.193,-90.274"/>
</g>
<!-- Node19 -->
<g id="node41" class="node"><title>Node19</title>
<polygon fill="white" stroke="#bfbfbf" points="552.5,-116.5 552.5,-137.5 607.5,-137.5 607.5,-116.5 552.5,-116.5"/>
<text text-anchor="middle" x="580" y="-124.5" font-family="Helvetica,sans-Serif" font-size="10.00">QObject</text>
</g>
<!-- Node10&#45;&gt;Node19 -->
<g id="edge44" class="edge"><title>Node10&#45;&gt;Node19</title>
<path fill="none" stroke="midnightblue" d="M801.47,-175.744C798.604,-175.153 795.762,-174.567 793,-174 717.437,-158.474 695.504,-157.784 617.617,-138.269"/>
<polygon fill="midnightblue" stroke="midnightblue" points="618.387,-134.853 607.834,-135.793 616.67,-141.639 618.387,-134.853"/>
</g>
<!-- Node20 -->
<g id="node43" class="node"><title>Node20</title>
<polygon fill="white" stroke="#bfbfbf" points="625,-116.5 625,-137.5 703,-137.5 703,-116.5 625,-116.5"/>
<text text-anchor="middle" x="664" y="-124.5" font-family="Helvetica,sans-Serif" font-size="10.00">lunaservice.h</text>
</g>
<!-- Node10&#45;&gt;Node20 -->
<g id="edge46" class="edge"><title>Node10&#45;&gt;Node20</title>
<path fill="none" stroke="midnightblue" d="M813.041,-174.497C783.242,-165 739.191,-150.962 706.703,-140.609"/>
<polygon fill="midnightblue" stroke="midnightblue" points="707.611,-137.225 697.021,-137.523 705.486,-143.894 707.611,-137.225"/>
</g>
<!-- Node12 -->
<g id="node26" class="node"><title>Node12</title>
<a xlink:href="ProcessBase_8h.htm" target="_top" xlink:title="ProcessBase.h">
<polygon fill="white" stroke="black" points="733.5,-58.5 733.5,-79.5 820.5,-79.5 820.5,-58.5 733.5,-58.5"/>
<text text-anchor="middle" x="777" y="-66.5" font-family="Helvetica,sans-Serif" font-size="10.00">ProcessBase.h</text>
</a>
</g>
<!-- Node11&#45;&gt;Node12 -->
<g id="edge28" class="edge"><title>Node11&#45;&gt;Node12</title>
<path fill="none" stroke="midnightblue" d="M777,-116.362C777,-108.922 777,-98.7427 777,-89.7276"/>
<polygon fill="midnightblue" stroke="midnightblue" points="780.5,-89.5706 777,-79.5707 773.5,-89.5707 780.5,-89.5706"/>
</g>
<!-- Node14 -->
<g id="node31" class="node"><title>Node14</title>
<polygon fill="white" stroke="#bfbfbf" points="579.5,-58.5 579.5,-79.5 640.5,-79.5 640.5,-58.5 579.5,-58.5"/>
<text text-anchor="middle" x="610" y="-66.5" font-family="Helvetica,sans-Serif" font-size="10.00">QtWebKit</text>
</g>
<!-- Node11&#45;&gt;Node14 -->
<g id="edge34" class="edge"><title>Node11&#45;&gt;Node14</title>
<path fill="none" stroke="midnightblue" d="M746.758,-116.497C719.65,-107.082 679.69,-93.2036 649.957,-82.8773"/>
<polygon fill="midnightblue" stroke="midnightblue" points="650.894,-79.4977 640.299,-79.5231 648.597,-86.1102 650.894,-79.4977"/>
</g>
<!-- Node15 -->
<g id="node33" class="node"><title>Node15</title>
<polygon fill="white" stroke="#bfbfbf" points="657.5,-58.5 657.5,-79.5 716.5,-79.5 716.5,-58.5 657.5,-58.5"/>
<text text-anchor="middle" x="687" y="-66.5" font-family="Helvetica,sans-Serif" font-size="10.00">QPointer</text>
</g>
<!-- Node11&#45;&gt;Node15 -->
<g id="edge36" class="edge"><title>Node11&#45;&gt;Node15</title>
<path fill="none" stroke="midnightblue" d="M760.493,-116.362C746.918,-107.614 727.467,-95.0786 711.985,-85.1015"/>
<polygon fill="midnightblue" stroke="midnightblue" points="713.704,-82.0457 703.403,-79.5707 709.912,-87.9297 713.704,-82.0457"/>
</g>
<!-- Node11&#45;&gt;Node16 -->
<g id="edge38" class="edge"><title>Node11&#45;&gt;Node16</title>
<path fill="none" stroke="midnightblue" d="M796.92,-116.497C813.946,-107.519 838.669,-94.4835 857.909,-84.3387"/>
<polygon fill="midnightblue" stroke="midnightblue" points="859.643,-87.3814 866.856,-79.6212 856.378,-81.1894 859.643,-87.3814"/>
</g>
<!-- Node17 -->
<g id="node37" class="node"><title>Node17</title>
<polygon fill="white" stroke="#bfbfbf" points="397.5,-58.5 397.5,-79.5 468.5,-79.5 468.5,-58.5 397.5,-58.5"/>
<text text-anchor="middle" x="433" y="-66.5" font-family="Helvetica,sans-Serif" font-size="10.00">QWebPage</text>
</g>
<!-- Node11&#45;&gt;Node17 -->
<g id="edge40" class="edge"><title>Node11&#45;&gt;Node17</title>
<path fill="none" stroke="midnightblue" d="M720.288,-117.349C717.486,-116.889 714.712,-116.437 712,-116 610.842,-99.6932 582.299,-100.753 478.867,-80.2618"/>
<polygon fill="midnightblue" stroke="midnightblue" points="479.449,-76.8089 468.957,-78.2784 478.075,-83.6728 479.449,-76.8089"/>
</g>
<!-- Node18 -->
<g id="node39" class="node"><title>Node18</title>
<polygon fill="white" stroke="#bfbfbf" points="486,-58.5 486,-79.5 562,-79.5 562,-58.5 486,-58.5"/>
<text text-anchor="middle" x="524" y="-66.5" font-family="Helvetica,sans-Serif" font-size="10.00">QWebFrame</text>
</g>
<!-- Node11&#45;&gt;Node18 -->
<g id="edge42" class="edge"><title>Node11&#45;&gt;Node18</title>
<path fill="none" stroke="midnightblue" d="M730.349,-116.434C690.787,-107.457 632.259,-94.1341 572.249,-80.2808"/>
<polygon fill="midnightblue" stroke="midnightblue" points="572.747,-76.8037 562.215,-77.9628 571.171,-83.6241 572.747,-76.8037"/>
</g>
<!-- Node12&#45;&gt;Node2 -->
<g id="edge30" class="edge"><title>Node12&#45;&gt;Node2</title>
<path fill="none" stroke="midnightblue" d="M810.864,-58.4966C841.578,-48.9706 887.026,-34.8744 920.435,-24.5121"/>
<polygon fill="midnightblue" stroke="midnightblue" points="921.873,-27.7306 930.388,-21.4252 919.8,-21.0448 921.873,-27.7306"/>
</g>
<!-- Node13 -->
<g id="node29" class="node"><title>Node13</title>
<polygon fill="white" stroke="#bfbfbf" points="750.5,-0.5 750.5,-21.5 803.5,-21.5 803.5,-0.5 750.5,-0.5"/>
<text text-anchor="middle" x="777" y="-8.5" font-family="Helvetica,sans-Serif" font-size="10.00">QString</text>
</g>
<!-- Node12&#45;&gt;Node13 -->
<g id="edge32" class="edge"><title>Node12&#45;&gt;Node13</title>
<path fill="none" stroke="midnightblue" d="M777,-58.3619C777,-50.9219 777,-40.7427 777,-31.7276"/>
<polygon fill="midnightblue" stroke="midnightblue" points="780.5,-31.5706 777,-21.5707 773.5,-31.5707 780.5,-31.5706"/>
</g>
</g>
</svg>
