<?xml version="1.0" encoding="UTF-8" standalone="no"?>
<!DOCTYPE svg PUBLIC "-//W3C//DTD SVG 1.1//EN"
 "http://www.w3.org/Graphics/SVG/1.1/DTD/svg11.dtd">
<!-- Generated by graphviz version 2.26.3 (20100126.1600)
 -->
<!-- Title: RemoteWindowData.h Pages: 1 -->
<svg width="994pt" height="174pt"
 viewBox="0.00 0.00 994.00 174.00" xmlns="http://www.w3.org/2000/svg" xmlns:xlink="http://www.w3.org/1999/xlink">
<g id="graph1" class="graph" transform="scale(1 1) rotate(0) translate(4 170)">
<title>RemoteWindowData.h</title>
<polygon fill="white" stroke="white" points="-4,5 -4,-170 991,-170 991,5 -4,5"/>
<!-- Node1 -->
<g id="node1" class="node"><title>Node1</title>
<polygon fill="#bfbfbf" stroke="black" points="298,-144.5 298,-165.5 420,-165.5 420,-144.5 298,-144.5"/>
<text text-anchor="middle" x="359" y="-152.5" font-family="Helvetica,sans-Serif" font-size="10.00">RemoteWindowData.h</text>
</g>
<!-- Node2 -->
<g id="node3" class="node"><title>Node2</title>
<a xlink:href="CardWebApp_8cpp.htm" target="_top" xlink:title="CardWebApp.cpp">
<polygon fill="white" stroke="black" points="-0.5,-79.5 -0.5,-100.5 98.5,-100.5 98.5,-79.5 -0.5,-79.5"/>
<text text-anchor="middle" x="49" y="-87.5" font-family="Helvetica,sans-Serif" font-size="10.00">CardWebApp.cpp</text>
</a>
</g>
<!-- Node1&#45;&gt;Node2 -->
<g id="edge2" class="edge"><title>Node1&#45;&gt;Node2</title>
<path fill="none" stroke="midnightblue" d="M288.091,-144.045C237.333,-135.652 167.548,-122.988 107,-108 98.4032,-105.872 89.2034,-103.203 80.7219,-100.576"/>
<polygon fill="midnightblue" stroke="midnightblue" points="287.546,-147.502 297.98,-145.666 288.678,-140.594 287.546,-147.502"/>
</g>
<!-- Node3 -->
<g id="node5" class="node"><title>Node3</title>
<a xlink:href="DockWebApp_8cpp.htm" target="_top" xlink:title="DockWebApp.cpp">
<polygon fill="white" stroke="black" points="116,-79.5 116,-100.5 216,-100.5 216,-79.5 116,-79.5"/>
<text text-anchor="middle" x="166" y="-87.5" font-family="Helvetica,sans-Serif" font-size="10.00">DockWebApp.cpp</text>
</a>
</g>
<!-- Node1&#45;&gt;Node3 -->
<g id="edge4" class="edge"><title>Node1&#45;&gt;Node3</title>
<path fill="none" stroke="midnightblue" d="M317.84,-141.138C281.807,-129.002 230.225,-111.63 197.425,-100.584"/>
<polygon fill="midnightblue" stroke="midnightblue" points="316.968,-144.537 327.562,-144.412 319.202,-137.903 316.968,-144.537"/>
</g>
<!-- Node4 -->
<g id="node7" class="node"><title>Node4</title>
<a xlink:href="RemoteWindowData_8cpp.htm" target="_top" xlink:title="RemoteWindowData.cpp">
<polygon fill="white" stroke="black" points="156.5,-7.5 156.5,-28.5 289.5,-28.5 289.5,-7.5 156.5,-7.5"/>
<text text-anchor="middle" x="223" y="-15.5" font-family="Helvetica,sans-Serif" font-size="10.00">RemoteWindowData.cpp</text>
</a>
</g>
<!-- Node1&#45;&gt;Node4 -->
<g id="edge6" class="edge"><title>Node1&#45;&gt;Node4</title>
<path fill="none" stroke="midnightblue" d="M313.785,-140.507C296.165,-133.051 276.906,-122.432 263,-108 240.695,-84.8524 229.578,-47.1653 225.246,-28.7772"/>
<polygon fill="midnightblue" stroke="midnightblue" points="312.776,-143.873 323.361,-144.328 315.37,-137.371 312.776,-143.873"/>
</g>
<!-- Node5 -->
<g id="node9" class="node"><title>Node5</title>
<a xlink:href="RemoteWindowDataSoftwareQt_8h.htm" target="_top" xlink:title="RemoteWindowDataSoftwareQt.h">
<polygon fill="white" stroke="black" points="271.5,-79.5 271.5,-100.5 446.5,-100.5 446.5,-79.5 271.5,-79.5"/>
<text text-anchor="middle" x="359" y="-87.5" font-family="Helvetica,sans-Serif" font-size="10.00">RemoteWindowDataSoftwareQt.h</text>
</a>
</g>
<!-- Node1&#45;&gt;Node5 -->
<g id="edge8" class="edge"><title>Node1&#45;&gt;Node5</title>
<path fill="none" stroke="midnightblue" d="M359,-134.014C359,-122.831 359,-109.558 359,-100.534"/>
<polygon fill="midnightblue" stroke="midnightblue" points="355.5,-134.267 359,-144.267 362.5,-134.267 355.5,-134.267"/>
</g>
<!-- Node7 -->
<g id="node14" class="node"><title>Node7</title>
<a xlink:href="RemoteWindowDataOpenGLQt_8h.htm" target="_top" xlink:title="RemoteWindowDataOpenGLQt.h">
<polygon fill="white" stroke="black" points="463.5,-79.5 463.5,-100.5 636.5,-100.5 636.5,-79.5 463.5,-79.5"/>
<text text-anchor="middle" x="550" y="-87.5" font-family="Helvetica,sans-Serif" font-size="10.00">RemoteWindowDataOpenGLQt.h</text>
</a>
</g>
<!-- Node1&#45;&gt;Node7 -->
<g id="edge14" class="edge"><title>Node1&#45;&gt;Node7</title>
<path fill="none" stroke="midnightblue" d="M399.734,-141.138C435.393,-129.002 486.441,-111.63 518.901,-100.584"/>
<polygon fill="midnightblue" stroke="midnightblue" points="398.452,-137.877 390.113,-144.412 400.707,-144.504 398.452,-137.877"/>
</g>
<!-- Node9 -->
<g id="node18" class="node"><title>Node9</title>
<a xlink:href="RemoteWindowDataOpenGLTextureShared_8h.htm" target="_top" xlink:title="RemoteWindowDataOpenGLTexture\lShared.h">
<polygon fill="white" stroke="black" points="654,-73 654,-107 844,-107 844,-73 654,-73"/>
<text text-anchor="start" x="662" y="-94" font-family="Helvetica,sans-Serif" font-size="10.00">RemoteWindowDataOpenGLTexture</text>
<text text-anchor="middle" x="749" y="-81" font-family="Helvetica,sans-Serif" font-size="10.00">Shared.h</text>
</a>
</g>
<!-- Node1&#45;&gt;Node9 -->
<g id="edge18" class="edge"><title>Node1&#45;&gt;Node9</title>
<path fill="none" stroke="midnightblue" d="M430.254,-143.463C488.133,-134.05 571.864,-120.338 645,-108 647.891,-107.512 650.827,-107.015 653.791,-106.512"/>
<polygon fill="midnightblue" stroke="midnightblue" points="429.425,-140.052 420.116,-145.111 430.548,-146.961 429.425,-140.052"/>
</g>
<!-- Node10 -->
<g id="node20" class="node"><title>Node10</title>
<a xlink:href="WindowedWebApp_8cpp.htm" target="_top" xlink:title="WindowedWebApp.cpp">
<polygon fill="white" stroke="black" points="861.5,-79.5 861.5,-100.5 986.5,-100.5 986.5,-79.5 861.5,-79.5"/>
<text text-anchor="middle" x="924" y="-87.5" font-family="Helvetica,sans-Serif" font-size="10.00">WindowedWebApp.cpp</text>
</a>
</g>
<!-- Node1&#45;&gt;Node10 -->
<g id="edge20" class="edge"><title>Node1&#45;&gt;Node10</title>
<path fill="none" stroke="midnightblue" d="M430.461,-151.647C526.936,-146.338 703.938,-133.829 853,-108 864.151,-106.068 876.13,-103.303 887.014,-100.519"/>
<polygon fill="midnightblue" stroke="midnightblue" points="430.038,-148.165 420.241,-152.199 430.416,-155.155 430.038,-148.165"/>
</g>
<!-- Node5&#45;&gt;Node4 -->
<g id="edge10" class="edge"><title>Node5&#45;&gt;Node4</title>
<path fill="none" stroke="midnightblue" d="M329.877,-74.5817C303.747,-60.7486 266.086,-40.81 243.15,-28.6674"/>
<polygon fill="midnightblue" stroke="midnightblue" points="328.457,-77.7905 338.933,-79.3762 331.732,-71.604 328.457,-77.7905"/>
</g>
<!-- Node6 -->
<g id="node12" class="node"><title>Node6</title>
<a xlink:href="RemoteWindowDataSoftwareQt_8cpp.htm" target="_top" xlink:title="RemoteWindowDataSoftware\lQt.cpp">
<polygon fill="white" stroke="black" points="306.5,-1 306.5,-35 461.5,-35 461.5,-1 306.5,-1"/>
<text text-anchor="start" x="314.5" y="-22" font-family="Helvetica,sans-Serif" font-size="10.00">RemoteWindowDataSoftware</text>
<text text-anchor="middle" x="384" y="-9" font-family="Helvetica,sans-Serif" font-size="10.00">Qt.cpp</text>
</a>
</g>
<!-- Node5&#45;&gt;Node6 -->
<g id="edge12" class="edge"><title>Node5&#45;&gt;Node6</title>
<path fill="none" stroke="midnightblue" d="M366.01,-69.8113C369.807,-58.8757 374.448,-45.5109 378.064,-35.0944"/>
<polygon fill="midnightblue" stroke="midnightblue" points="362.663,-68.7813 362.689,-79.3762 369.275,-71.0775 362.663,-68.7813"/>
</g>
<!-- Node8 -->
<g id="node16" class="node"><title>Node8</title>
<a xlink:href="RemoteWindowDataOpenGLQt_8cpp.htm" target="_top" xlink:title="RemoteWindowDataOpenGLQt.cpp">
<polygon fill="white" stroke="black" points="478.5,-7.5 478.5,-28.5 663.5,-28.5 663.5,-7.5 478.5,-7.5"/>
<text text-anchor="middle" x="571" y="-15.5" font-family="Helvetica,sans-Serif" font-size="10.00">RemoteWindowDataOpenGLQt.cpp</text>
</a>
</g>
<!-- Node7&#45;&gt;Node8 -->
<g id="edge16" class="edge"><title>Node7&#45;&gt;Node8</title>
<path fill="none" stroke="midnightblue" d="M555.941,-69.6318C559.828,-56.3026 564.751,-39.4253 567.889,-28.6674"/>
<polygon fill="midnightblue" stroke="midnightblue" points="552.539,-68.7961 553.099,-79.3762 559.259,-70.7562 552.539,-68.7961"/>
</g>
</g>
</svg>
