<?xml version="1.0" encoding="UTF-8" standalone="no"?>
<!DOCTYPE svg PUBLIC "-//W3C//DTD SVG 1.1//EN"
 "http://www.w3.org/Graphics/SVG/1.1/DTD/svg11.dtd">
<!-- Generated by graphviz version 2.26.3 (20100126.1600)
 -->
<!-- Title: RemoteWindowDataSoftwareOpenGLComposited.h Pages: 1 -->
<svg width="526pt" height="102pt"
 viewBox="0.00 0.00 526.00 102.00" xmlns="http://www.w3.org/2000/svg" xmlns:xlink="http://www.w3.org/1999/xlink">
<g id="graph1" class="graph" transform="scale(1 1) rotate(0) translate(4 98)">
<title>RemoteWindowDataSoftwareOpenGLComposited.h</title>
<polygon fill="white" stroke="white" points="-4,5 -4,-98 523,-98 523,5 -4,5"/>
<!-- Node1 -->
<g id="node1" class="node"><title>Node1</title>
<polygon fill="#bfbfbf" stroke="black" points="173.5,-59 173.5,-93 328.5,-93 328.5,-59 173.5,-59"/>
<text text-anchor="start" x="181.5" y="-80" font-family="Helvetica,sans-Serif" font-size="10.00">RemoteWindowDataSoftware</text>
<text text-anchor="middle" x="251" y="-67" font-family="Helvetica,sans-Serif" font-size="10.00">OpenGLComposited.h</text>
</g>
<!-- Node2 -->
<g id="node3" class="node"><title>Node2</title>
<polygon fill="white" stroke="#bfbfbf" points="0,-0.5 0,-21.5 96,-21.5 96,-0.5 0,-0.5"/>
<text text-anchor="middle" x="48" y="-8.5" font-family="Helvetica,sans-Serif" font-size="10.00">PGLESContext.h</text>
</g>
<!-- Node1&#45;&gt;Node2 -->
<g id="edge2" class="edge"><title>Node1&#45;&gt;Node2</title>
<path fill="none" stroke="midnightblue" d="M197.664,-58.922C164.274,-48.2307 121.832,-34.6407 90.6782,-24.6654"/>
<polygon fill="midnightblue" stroke="midnightblue" points="91.5769,-21.2782 80.9859,-21.562 89.4423,-27.9448 91.5769,-21.2782"/>
</g>
<!-- Node3 -->
<g id="node5" class="node"><title>Node3</title>
<polygon fill="white" stroke="#bfbfbf" points="114,-0.5 114,-21.5 230,-21.5 230,-0.5 114,-0.5"/>
<text text-anchor="middle" x="172" y="-8.5" font-family="Helvetica,sans-Serif" font-size="10.00">WebGLES2Context.h</text>
</g>
<!-- Node1&#45;&gt;Node3 -->
<g id="edge4" class="edge"><title>Node1&#45;&gt;Node3</title>
<path fill="none" stroke="midnightblue" d="M230.244,-58.922C218.766,-49.4785 204.54,-37.7736 193.021,-28.2957"/>
<polygon fill="midnightblue" stroke="midnightblue" points="195.135,-25.503 185.189,-21.8521 190.688,-30.9085 195.135,-25.503"/>
</g>
<!-- Node4 -->
<g id="node7" class="node"><title>Node4</title>
<polygon fill="white" stroke="#bfbfbf" points="248,-0.5 248,-21.5 412,-21.5 412,-0.5 248,-0.5"/>
<text text-anchor="middle" x="330" y="-8.5" font-family="Helvetica,sans-Serif" font-size="10.00">RemoteWindowDataSoftware.h</text>
</g>
<!-- Node1&#45;&gt;Node4 -->
<g id="edge6" class="edge"><title>Node1&#45;&gt;Node4</title>
<path fill="none" stroke="midnightblue" d="M271.756,-58.922C283.234,-49.4785 297.46,-37.7736 308.979,-28.2957"/>
<polygon fill="midnightblue" stroke="midnightblue" points="311.312,-30.9085 316.811,-21.8521 306.865,-25.503 311.312,-30.9085"/>
</g>
<!-- Node5 -->
<g id="node9" class="node"><title>Node5</title>
<polygon fill="white" stroke="#bfbfbf" points="429.5,-0.5 429.5,-21.5 518.5,-21.5 518.5,-0.5 429.5,-0.5"/>
<text text-anchor="middle" x="474" y="-8.5" font-family="Helvetica,sans-Serif" font-size="10.00">NAppWindow.h</text>
</g>
<!-- Node1&#45;&gt;Node5 -->
<g id="edge8" class="edge"><title>Node1&#45;&gt;Node5</title>
<path fill="none" stroke="midnightblue" d="M309.591,-58.922C346.588,-48.1381 393.702,-34.4051 428.003,-24.4072"/>
<polygon fill="midnightblue" stroke="midnightblue" points="429.143,-27.7206 437.764,-21.562 427.184,-21.0002 429.143,-27.7206"/>
</g>
</g>
</svg>
