<?xml version="1.0" encoding="UTF-8" standalone="no"?>
<!DOCTYPE svg PUBLIC "-//W3C//DTD SVG 1.1//EN"
 "http://www.w3.org/Graphics/SVG/1.1/DTD/svg11.dtd">
<!-- Generated by graphviz version 2.26.3 (20100126.1600)
 -->
<!-- Title: RemoteWindowDataOpenGLQt.cpp Pages: 1 -->
<svg width="2116pt" height="494pt"
 viewBox="0.00 0.00 2116.00 494.00" xmlns="http://www.w3.org/2000/svg" xmlns:xlink="http://www.w3.org/1999/xlink">
<g id="graph1" class="graph" transform="scale(1 1) rotate(0) translate(4 490)">
<title>RemoteWindowDataOpenGLQt.cpp</title>
<polygon fill="white" stroke="white" points="-4,5 -4,-490 2113,-490 2113,5 -4,5"/>
<!-- Node1 -->
<g id="node1" class="node"><title>Node1</title>
<polygon fill="#bfbfbf" stroke="black" points="1538.5,-464.5 1538.5,-485.5 1723.5,-485.5 1723.5,-464.5 1538.5,-464.5"/>
<text text-anchor="middle" x="1631" y="-472.5" font-family="Helvetica,sans-Serif" font-size="10.00">RemoteWindowDataOpenGLQt.cpp</text>
</g>
<!-- Node2 -->
<g id="node3" class="node"><title>Node2</title>
<polygon fill="white" stroke="#bfbfbf" points="905.5,-0.5 905.5,-21.5 972.5,-21.5 972.5,-0.5 905.5,-0.5"/>
<text text-anchor="middle" x="939" y="-8.5" font-family="Helvetica,sans-Serif" font-size="10.00">Common.h</text>
</g>
<!-- Node1&#45;&gt;Node2 -->
<g id="edge2" class="edge"><title>Node1&#45;&gt;Node2</title>
<path fill="none" stroke="midnightblue" d="M1595.75,-464.442C1563.55,-452.865 1523.41,-432.373 1541,-406 1669.73,-212.941 1898.05,-394.029 2019,-196 2039.31,-162.751 1983.25,-119.958 1978,-116 1915.59,-68.9657 1888.67,-73.1402 1812,-58 1650.61,-26.13 1136.6,-14.5334 982.851,-11.7276"/>
<polygon fill="midnightblue" stroke="midnightblue" points="982.893,-8.22794 972.832,-11.548 982.768,-15.2268 982.893,-8.22794"/>
</g>
<!-- Node3 -->
<g id="node5" class="node"><title>Node3</title>
<a xlink:href="RemoteWindowDataOpenGLQt_8h.htm" target="_top" xlink:title="RemoteWindowDataOpenGLQt.h">
<polygon fill="white" stroke="black" points="2.5,-406.5 2.5,-427.5 175.5,-427.5 175.5,-406.5 2.5,-406.5"/>
<text text-anchor="middle" x="89" y="-414.5" font-family="Helvetica,sans-Serif" font-size="10.00">RemoteWindowDataOpenGLQt.h</text>
</a>
</g>
<!-- Node1&#45;&gt;Node3 -->
<g id="edge4" class="edge"><title>Node1&#45;&gt;Node3</title>
<path fill="none" stroke="midnightblue" d="M1538.3,-471.513C1265.07,-461.236 464.647,-431.129 185.987,-420.648"/>
<polygon fill="midnightblue" stroke="midnightblue" points="186.022,-417.147 175.898,-420.269 185.759,-424.142 186.022,-417.147"/>
</g>
<!-- Node27 -->
<g id="node60" class="node"><title>Node27</title>
<polygon fill="white" stroke="#bfbfbf" points="1004,-174.5 1004,-195.5 1078,-195.5 1078,-174.5 1004,-174.5"/>
<text text-anchor="middle" x="1041" y="-182.5" font-family="Helvetica,sans-Serif" font-size="10.00">PIpcBuffer.h</text>
</g>
<!-- Node1&#45;&gt;Node27 -->
<g id="edge82" class="edge"><title>Node1&#45;&gt;Node27</title>
<path fill="none" stroke="midnightblue" d="M1545.21,-464.466C1398.49,-445.274 1115,-402.557 1115,-359 1115,-359 1115,-359 1115,-301 1115,-261.003 1083.34,-223.703 1061.44,-202.683"/>
<polygon fill="midnightblue" stroke="midnightblue" points="1063.61,-199.919 1053.89,-195.7 1058.86,-205.059 1063.61,-199.919"/>
</g>
<!-- Node31 -->
<g id="node70" class="node"><title>Node31</title>
<polygon fill="white" stroke="#bfbfbf" points="1812,-116.5 1812,-137.5 1862,-137.5 1862,-116.5 1812,-116.5"/>
<text text-anchor="middle" x="1837" y="-124.5" font-family="Helvetica,sans-Serif" font-size="10.00">stdint.h</text>
</g>
<!-- Node1&#45;&gt;Node31 -->
<g id="edge78" class="edge"><title>Node1&#45;&gt;Node31</title>
<path fill="none" stroke="midnightblue" d="M1723.72,-467.074C1782.45,-460.198 1851.29,-448.1 1873,-428 1896.34,-406.389 1892,-390.808 1892,-359 1892,-359 1892,-359 1892,-243 1892,-205.781 1868.6,-167.759 1852.32,-145.819"/>
<polygon fill="midnightblue" stroke="midnightblue" points="1854.95,-143.501 1846.08,-137.711 1849.41,-147.77 1854.95,-143.501"/>
</g>
<!-- Node32 -->
<g id="node72" class="node"><title>Node32</title>
<polygon fill="white" stroke="#bfbfbf" points="1550,-406.5 1550,-427.5 1618,-427.5 1618,-406.5 1550,-406.5"/>
<text text-anchor="middle" x="1584" y="-414.5" font-family="Helvetica,sans-Serif" font-size="10.00">QtOpenGL</text>
</g>
<!-- Node1&#45;&gt;Node32 -->
<g id="edge80" class="edge"><title>Node1&#45;&gt;Node32</title>
<path fill="none" stroke="midnightblue" d="M1622.38,-464.362C1615.82,-456.268 1606.63,-444.932 1598.89,-435.38"/>
<polygon fill="midnightblue" stroke="midnightblue" points="1601.58,-433.136 1592.57,-427.571 1596.14,-437.544 1601.58,-433.136"/>
</g>
<!-- Node33 -->
<g id="node75" class="node"><title>Node33</title>
<polygon fill="white" stroke="#bfbfbf" points="1636,-406.5 1636,-427.5 1722,-427.5 1722,-406.5 1636,-406.5"/>
<text text-anchor="middle" x="1679" y="-414.5" font-family="Helvetica,sans-Serif" font-size="10.00">PIpcChannel.h</text>
</g>
<!-- Node1&#45;&gt;Node33 -->
<g id="edge84" class="edge"><title>Node1&#45;&gt;Node33</title>
<path fill="none" stroke="midnightblue" d="M1639.8,-464.362C1646.5,-456.268 1655.88,-444.932 1663.79,-435.38"/>
<polygon fill="midnightblue" stroke="midnightblue" points="1666.57,-437.506 1670.25,-427.571 1661.18,-433.043 1666.57,-437.506"/>
</g>
<!-- Node34 -->
<g id="node77" class="node"><title>Node34</title>
<polygon fill="white" stroke="#bfbfbf" points="1739.5,-406.5 1739.5,-427.5 1864.5,-427.5 1864.5,-406.5 1739.5,-406.5"/>
<text text-anchor="middle" x="1802" y="-414.5" font-family="Helvetica,sans-Serif" font-size="10.00">PIpcMessageMacros.h</text>
</g>
<!-- Node1&#45;&gt;Node34 -->
<g id="edge86" class="edge"><title>Node1&#45;&gt;Node34</title>
<path fill="none" stroke="midnightblue" d="M1661.97,-464.497C1689.84,-455.041 1731,-441.083 1761.48,-430.743"/>
<polygon fill="midnightblue" stroke="midnightblue" points="1762.63,-434.05 1770.98,-427.523 1760.38,-427.421 1762.63,-434.05"/>
</g>
<!-- Node35 -->
<g id="node79" class="node"><title>Node35</title>
<a xlink:href="WebAppManager_8h.htm" target="_top" xlink:title="WebAppManager.h">
<polygon fill="white" stroke="black" points="1215.5,-232.5 1215.5,-253.5 1322.5,-253.5 1322.5,-232.5 1215.5,-232.5"/>
<text text-anchor="middle" x="1269" y="-240.5" font-family="Helvetica,sans-Serif" font-size="10.00">WebAppManager.h</text>
</a>
</g>
<!-- Node1&#45;&gt;Node35 -->
<g id="edge88" class="edge"><title>Node1&#45;&gt;Node35</title>
<path fill="none" stroke="midnightblue" d="M1595.31,-464.451C1570.07,-456.262 1535.9,-443.676 1508,-428 1418.31,-377.613 1325.82,-295.899 1287.42,-260.393"/>
<polygon fill="midnightblue" stroke="midnightblue" points="1289.77,-257.799 1280.07,-253.545 1285,-262.922 1289.77,-257.799"/>
</g>
<!-- Node47 -->
<g id="node120" class="node"><title>Node47</title>
<a xlink:href="WindowMetaData_8h.htm" target="_top" xlink:title="WindowMetaData.h">
<polygon fill="white" stroke="black" points="1919.5,-406.5 1919.5,-427.5 2028.5,-427.5 2028.5,-406.5 1919.5,-406.5"/>
<text text-anchor="middle" x="1974" y="-414.5" font-family="Helvetica,sans-Serif" font-size="10.00">WindowMetaData.h</text>
</a>
</g>
<!-- Node1&#45;&gt;Node47 -->
<g id="edge146" class="edge"><title>Node1&#45;&gt;Node47</title>
<path fill="none" stroke="midnightblue" d="M1693.11,-464.497C1754.29,-454.153 1847.32,-438.421 1909.35,-427.931"/>
<polygon fill="midnightblue" stroke="midnightblue" points="1910.14,-431.349 1919.41,-426.23 1908.97,-424.447 1910.14,-431.349"/>
</g>
<!-- Node48 -->
<g id="node122" class="node"><title>Node48</title>
<polygon fill="white" stroke="#bfbfbf" points="2045.5,-406.5 2045.5,-427.5 2108.5,-427.5 2108.5,-406.5 2045.5,-406.5"/>
<text text-anchor="middle" x="2077" y="-414.5" font-family="Helvetica,sans-Serif" font-size="10.00">Logging.h</text>
</g>
<!-- Node1&#45;&gt;Node48 -->
<g id="edge148" class="edge"><title>Node1&#45;&gt;Node48</title>
<path fill="none" stroke="midnightblue" d="M1723.53,-468.348C1803.8,-461.644 1923.18,-449.438 2035.11,-428.161"/>
<polygon fill="midnightblue" stroke="midnightblue" points="2036.07,-431.541 2045.23,-426.21 2034.75,-424.668 2036.07,-431.541"/>
</g>
<!-- Node3&#45;&gt;Node2 -->
<g id="edge6" class="edge"><title>Node3&#45;&gt;Node2</title>
<path fill="none" stroke="midnightblue" d="M64.9455,-406.349C49.6622,-398.41 30.6335,-386.155 19,-370 0.412316,-344.188 0,-332.808 0,-301 0,-301 0,-301 0,-127 0,-85.4736 25.4681,-75.7708 63,-58 138.513,-22.2457 728.186,-13.2537 895.107,-11.4144"/>
<polygon fill="midnightblue" stroke="midnightblue" points="895.518,-14.9103 905.48,-11.3034 895.443,-7.9107 895.518,-14.9103"/>
</g>
<!-- Node4 -->
<g id="node8" class="node"><title>Node4</title>
<a xlink:href="RemoteWindowData_8h.htm" target="_top" xlink:title="RemoteWindowData.h">
<polygon fill="white" stroke="black" points="28,-348.5 28,-369.5 150,-369.5 150,-348.5 28,-348.5"/>
<text text-anchor="middle" x="89" y="-356.5" font-family="Helvetica,sans-Serif" font-size="10.00">RemoteWindowData.h</text>
</a>
</g>
<!-- Node3&#45;&gt;Node4 -->
<g id="edge8" class="edge"><title>Node3&#45;&gt;Node4</title>
<path fill="none" stroke="midnightblue" d="M89,-406.362C89,-398.922 89,-388.743 89,-379.728"/>
<polygon fill="midnightblue" stroke="midnightblue" points="92.5001,-379.571 89,-369.571 85.5001,-379.571 92.5001,-379.571"/>
</g>
<!-- Node4&#45;&gt;Node2 -->
<g id="edge10" class="edge"><title>Node4&#45;&gt;Node2</title>
<path fill="none" stroke="midnightblue" d="M80.806,-348.489C66.3895,-328.91 38,-285.019 38,-243 38,-243 38,-243 38,-127 38,-72.6359 87.5519,-75.5655 139,-58 210.594,-33.5563 738.015,-16.7212 895.024,-12.2106"/>
<polygon fill="midnightblue" stroke="midnightblue" points="895.354,-15.7027 905.25,-11.9193 895.154,-8.70558 895.354,-15.7027"/>
</g>
<!-- Node5 -->
<g id="node11" class="node"><title>Node5</title>
<polygon fill="white" stroke="#bfbfbf" points="65.5,-174.5 65.5,-195.5 112.5,-195.5 112.5,-174.5 65.5,-174.5"/>
<text text-anchor="middle" x="89" y="-182.5" font-family="Helvetica,sans-Serif" font-size="10.00">QRect</text>
</g>
<!-- Node4&#45;&gt;Node5 -->
<g id="edge12" class="edge"><title>Node4&#45;&gt;Node5</title>
<path fill="none" stroke="midnightblue" d="M89,-348.377C89,-320.293 89,-243.673 89,-206.203"/>
<polygon fill="midnightblue" stroke="midnightblue" points="92.5001,-205.928 89,-195.928 85.5001,-205.928 92.5001,-205.928"/>
</g>
<!-- Node6 -->
<g id="node13" class="node"><title>Node6</title>
<a xlink:href="CardWebApp_8h.htm" target="_top" xlink:title="CardWebApp.h">
<polygon fill="white" stroke="black" points="208,-290.5 208,-311.5 296,-311.5 296,-290.5 208,-290.5"/>
<text text-anchor="middle" x="252" y="-298.5" font-family="Helvetica,sans-Serif" font-size="10.00">CardWebApp.h</text>
</a>
</g>
<!-- Node4&#45;&gt;Node6 -->
<g id="edge14" class="edge"><title>Node4&#45;&gt;Node6</title>
<path fill="none" stroke="midnightblue" d="M118.518,-348.497C144.976,-339.082 183.979,-325.204 213,-314.877"/>
<polygon fill="midnightblue" stroke="midnightblue" points="214.179,-318.173 222.427,-311.523 211.832,-311.578 214.179,-318.173"/>
</g>
<!-- Node6&#45;&gt;Node2 -->
<g id="edge16" class="edge"><title>Node6&#45;&gt;Node2</title>
<path fill="none" stroke="midnightblue" d="M229.604,-290.439C196.92,-273.289 140,-236.089 140,-185 140,-185 140,-185 140,-127 140,-95.1919 134.29,-78.0288 159,-58 187.75,-34.6969 734.329,-16.9686 894.963,-12.2453"/>
<polygon fill="midnightblue" stroke="midnightblue" points="895.52,-15.7306 905.414,-11.9404 895.316,-8.73359 895.52,-15.7306"/>
</g>
<!-- Node7 -->
<g id="node16" class="node"><title>Node7</title>
<polygon fill="white" stroke="#bfbfbf" points="167.5,-174.5 167.5,-195.5 210.5,-195.5 210.5,-174.5 167.5,-174.5"/>
<text text-anchor="middle" x="189" y="-182.5" font-family="Helvetica,sans-Serif" font-size="10.00">sptr.h</text>
</g>
<!-- Node6&#45;&gt;Node7 -->
<g id="edge18" class="edge"><title>Node6&#45;&gt;Node7</title>
<path fill="none" stroke="midnightblue" d="M235.921,-290.166C224.624,-281.674 210.129,-268.836 202,-254 193.958,-239.323 190.802,-220.542 189.606,-206.281"/>
<polygon fill="midnightblue" stroke="midnightblue" points="193.081,-205.759 189.01,-195.978 186.093,-206.163 193.081,-205.759"/>
</g>
<!-- Node8 -->
<g id="node18" class="node"><title>Node8</title>
<a xlink:href="WindowedWebApp_8h.htm" target="_top" xlink:title="WindowedWebApp.h">
<polygon fill="white" stroke="black" points="558,-232.5 558,-253.5 672,-253.5 672,-232.5 558,-232.5"/>
<text text-anchor="middle" x="615" y="-240.5" font-family="Helvetica,sans-Serif" font-size="10.00">WindowedWebApp.h</text>
</a>
</g>
<!-- Node6&#45;&gt;Node8 -->
<g id="edge20" class="edge"><title>Node6&#45;&gt;Node8</title>
<path fill="none" stroke="midnightblue" d="M296.298,-294.106C352.371,-285.354 452.218,-269.683 547.654,-254.21"/>
<polygon fill="midnightblue" stroke="midnightblue" points="548.457,-257.625 557.767,-252.568 547.336,-250.716 548.457,-257.625"/>
</g>
<!-- Node25 -->
<g id="node56" class="node"><title>Node25</title>
<polygon fill="white" stroke="#bfbfbf" points="432,-174.5 432,-195.5 524,-195.5 524,-174.5 432,-174.5"/>
<text text-anchor="middle" x="478" y="-182.5" font-family="Helvetica,sans-Serif" font-size="10.00">WindowTypes.h</text>
</g>
<!-- Node6&#45;&gt;Node25 -->
<g id="edge70" class="edge"><title>Node6&#45;&gt;Node25</title>
<path fill="none" stroke="midnightblue" d="M244.33,-290.401C234.692,-275.673 221.008,-248.926 235,-232 260.462,-201.2 367.164,-203.709 421.893,-195.917"/>
<polygon fill="midnightblue" stroke="midnightblue" points="422.502,-199.364 431.792,-194.27 421.353,-192.459 422.502,-199.364"/>
</g>
<!-- Node28 -->
<g id="node64" class="node"><title>Node28</title>
<polygon fill="white" stroke="#bfbfbf" points="457.5,-232.5 457.5,-253.5 540.5,-253.5 540.5,-232.5 457.5,-232.5"/>
<text text-anchor="middle" x="499" y="-240.5" font-family="Helvetica,sans-Serif" font-size="10.00">SysMgrDefs.h</text>
</g>
<!-- Node6&#45;&gt;Node28 -->
<g id="edge72" class="edge"><title>Node6&#45;&gt;Node28</title>
<path fill="none" stroke="midnightblue" d="M296.159,-290.631C338.601,-280.664 402.724,-265.607 447.477,-255.098"/>
<polygon fill="midnightblue" stroke="midnightblue" points="448.346,-258.49 457.281,-252.796 446.746,-251.675 448.346,-258.49"/>
</g>
<!-- Node29 -->
<g id="node66" class="node"><title>Node29</title>
<polygon fill="white" stroke="#bfbfbf" points="244,-232.5 244,-253.5 332,-253.5 332,-232.5 244,-232.5"/>
<text text-anchor="middle" x="288" y="-240.5" font-family="Helvetica,sans-Serif" font-size="10.00">QGraphicsItem</text>
</g>
<!-- Node6&#45;&gt;Node29 -->
<g id="edge74" class="edge"><title>Node6&#45;&gt;Node29</title>
<path fill="none" stroke="midnightblue" d="M258.603,-290.362C263.475,-282.513 270.238,-271.616 276.05,-262.253"/>
<polygon fill="midnightblue" stroke="midnightblue" points="279.139,-263.913 281.439,-253.571 273.191,-260.221 279.139,-263.913"/>
</g>
<!-- Node30 -->
<g id="node68" class="node"><title>Node30</title>
<polygon fill="white" stroke="#bfbfbf" points="350,-232.5 350,-253.5 440,-253.5 440,-232.5 350,-232.5"/>
<text text-anchor="middle" x="395" y="-240.5" font-family="Helvetica,sans-Serif" font-size="10.00">QGraphicsView</text>
</g>
<!-- Node6&#45;&gt;Node30 -->
<g id="edge76" class="edge"><title>Node6&#45;&gt;Node30</title>
<path fill="none" stroke="midnightblue" d="M277.896,-290.497C300.633,-281.275 333.93,-267.769 359.212,-257.515"/>
<polygon fill="midnightblue" stroke="midnightblue" points="360.862,-260.623 368.813,-253.621 358.231,-254.136 360.862,-260.623"/>
</g>
<!-- Node8&#45;&gt;Node2 -->
<g id="edge22" class="edge"><title>Node8&#45;&gt;Node2</title>
<path fill="none" stroke="midnightblue" d="M607.665,-232.378C598.798,-218.094 586.421,-192.369 598,-174 632.255,-119.659 813.575,-53.0951 896.97,-24.7903"/>
<polygon fill="midnightblue" stroke="midnightblue" points="898.28,-28.0423 906.638,-21.5316 896.044,-21.409 898.28,-28.0423"/>
</g>
<!-- Node8&#45;&gt;Node5 -->
<g id="edge68" class="edge"><title>Node8&#45;&gt;Node5</title>
<path fill="none" stroke="midnightblue" d="M557.801,-233.204C554.827,-232.777 551.88,-232.372 549,-232 376.367,-209.677 331.735,-217.522 159,-196 147.13,-194.521 134.179,-192.579 122.679,-190.738"/>
<polygon fill="midnightblue" stroke="midnightblue" points="123.033,-187.25 112.6,-189.093 121.906,-194.158 123.033,-187.25"/>
</g>
<!-- Node8&#45;&gt;Node7 -->
<g id="edge54" class="edge"><title>Node8&#45;&gt;Node7</title>
<path fill="none" stroke="midnightblue" d="M557.793,-233.262C554.821,-232.82 551.877,-232.396 549,-232 406.126,-212.317 364.509,-228.863 220.835,-196.02"/>
<polygon fill="midnightblue" stroke="midnightblue" points="221.301,-192.534 210.768,-193.676 219.714,-199.352 221.301,-192.534"/>
</g>
<!-- Node9 -->
<g id="node21" class="node"><title>Node9</title>
<polygon fill="white" stroke="#bfbfbf" points="957.5,-174.5 957.5,-195.5 986.5,-195.5 986.5,-174.5 957.5,-174.5"/>
<text text-anchor="middle" x="972" y="-182.5" font-family="Helvetica,sans-Serif" font-size="10.00">list</text>
</g>
<!-- Node8&#45;&gt;Node9 -->
<g id="edge24" class="edge"><title>Node8&#45;&gt;Node9</title>
<path fill="none" stroke="midnightblue" d="M672.277,-240.267C737.617,-235.978 847.405,-225.196 947.514,-195.804"/>
<polygon fill="midnightblue" stroke="midnightblue" points="948.602,-199.132 957.17,-192.901 946.586,-192.428 948.602,-199.132"/>
</g>
<!-- Node10 -->
<g id="node23" class="node"><title>Node10</title>
<polygon fill="white" stroke="#bfbfbf" points="227.5,-174.5 227.5,-195.5 308.5,-195.5 308.5,-174.5 227.5,-174.5"/>
<text text-anchor="middle" x="268" y="-182.5" font-family="Helvetica,sans-Serif" font-size="10.00">AsyncCaller.h</text>
</g>
<!-- Node8&#45;&gt;Node10 -->
<g id="edge26" class="edge"><title>Node8&#45;&gt;Node10</title>
<path fill="none" stroke="midnightblue" d="M557.769,-233.421C554.804,-232.938 551.867,-232.461 549,-232 449.099,-215.924 421.191,-215.453 318.445,-196.193"/>
<polygon fill="midnightblue" stroke="midnightblue" points="319.074,-192.75 308.598,-194.334 317.775,-199.629 319.074,-192.75"/>
</g>
<!-- Node11 -->
<g id="node25" class="node"><title>Node11</title>
<a xlink:href="WebAppBase_8h.htm" target="_top" xlink:title="WebAppBase.h">
<polygon fill="white" stroke="black" points="325.5,-174.5 325.5,-195.5 414.5,-195.5 414.5,-174.5 325.5,-174.5"/>
<text text-anchor="middle" x="370" y="-182.5" font-family="Helvetica,sans-Serif" font-size="10.00">WebAppBase.h</text>
</a>
</g>
<!-- Node8&#45;&gt;Node11 -->
<g id="edge28" class="edge"><title>Node8&#45;&gt;Node11</title>
<path fill="none" stroke="midnightblue" d="M570.632,-232.497C529.567,-222.775 468.396,-208.294 424.401,-197.879"/>
<polygon fill="midnightblue" stroke="midnightblue" points="424.988,-194.421 414.451,-195.523 423.376,-201.233 424.988,-194.421"/>
</g>
<!-- Node22 -->
<g id="node50" class="node"><title>Node22</title>
<polygon fill="white" stroke="#bfbfbf" points="746,-174.5 746,-195.5 798,-195.5 798,-174.5 746,-174.5"/>
<text text-anchor="middle" x="772" y="-182.5" font-family="Helvetica,sans-Serif" font-size="10.00">Event.h</text>
</g>
<!-- Node8&#45;&gt;Node22 -->
<g id="edge56" class="edge"><title>Node8&#45;&gt;Node22</title>
<path fill="none" stroke="midnightblue" d="M643.432,-232.497C669.517,-222.86 708.261,-208.547 736.396,-198.153"/>
<polygon fill="midnightblue" stroke="midnightblue" points="737.699,-201.403 745.867,-194.654 735.273,-194.837 737.699,-201.403"/>
</g>
<!-- Node23 -->
<g id="node52" class="node"><title>Node23</title>
<polygon fill="white" stroke="#bfbfbf" points="1210,-116.5 1210,-137.5 1262,-137.5 1262,-116.5 1210,-116.5"/>
<text text-anchor="middle" x="1236" y="-124.5" font-family="Helvetica,sans-Serif" font-size="10.00">Timer.h</text>
</g>
<!-- Node8&#45;&gt;Node23 -->
<g id="edge58" class="edge"><title>Node8&#45;&gt;Node23</title>
<path fill="none" stroke="midnightblue" d="M609.725,-232.31C603.127,-217.226 594.36,-189.778 609,-174 629.198,-152.231 1068.19,-133.507 1199.33,-128.384"/>
<polygon fill="midnightblue" stroke="midnightblue" points="1199.79,-131.869 1209.64,-127.984 1199.52,-124.874 1199.79,-131.869"/>
</g>
<!-- Node24 -->
<g id="node54" class="node"><title>Node24</title>
<polygon fill="white" stroke="#bfbfbf" points="617.5,-174.5 617.5,-195.5 728.5,-195.5 728.5,-174.5 617.5,-174.5"/>
<text text-anchor="middle" x="673" y="-182.5" font-family="Helvetica,sans-Serif" font-size="10.00">WindowProperties.h</text>
</g>
<!-- Node8&#45;&gt;Node24 -->
<g id="edge60" class="edge"><title>Node8&#45;&gt;Node24</title>
<path fill="none" stroke="midnightblue" d="M625.638,-232.362C633.896,-224.104 645.528,-212.472 655.197,-202.803"/>
<polygon fill="midnightblue" stroke="midnightblue" points="657.833,-205.117 662.429,-195.571 652.883,-200.167 657.833,-205.117"/>
</g>
<!-- Node8&#45;&gt;Node25 -->
<g id="edge62" class="edge"><title>Node8&#45;&gt;Node25</title>
<path fill="none" stroke="midnightblue" d="M590.19,-232.497C568.504,-223.315 536.789,-209.889 512.608,-199.652"/>
<polygon fill="midnightblue" stroke="midnightblue" points="513.661,-196.297 503.088,-195.621 510.932,-202.743 513.661,-196.297"/>
</g>
<!-- Node26 -->
<g id="node58" class="node"><title>Node26</title>
<polygon fill="white" stroke="#bfbfbf" points="816,-174.5 816,-195.5 940,-195.5 940,-174.5 816,-174.5"/>
<text text-anchor="middle" x="878" y="-182.5" font-family="Helvetica,sans-Serif" font-size="10.00">PIpcChannelListener.h</text>
</g>
<!-- Node8&#45;&gt;Node26 -->
<g id="edge64" class="edge"><title>Node8&#45;&gt;Node26</title>
<path fill="none" stroke="midnightblue" d="M662.627,-232.497C706.988,-222.714 773.205,-208.111 820.494,-197.682"/>
<polygon fill="midnightblue" stroke="midnightblue" points="821.272,-201.095 830.283,-195.523 819.764,-194.259 821.272,-201.095"/>
</g>
<!-- Node8&#45;&gt;Node27 -->
<g id="edge66" class="edge"><title>Node8&#45;&gt;Node27</title>
<path fill="none" stroke="midnightblue" d="M672.275,-237.927C744.879,-231.05 874.036,-217.329 993.838,-196.055"/>
<polygon fill="midnightblue" stroke="midnightblue" points="994.695,-199.457 1003.92,-194.243 993.456,-192.568 994.695,-199.457"/>
</g>
<!-- Node12 -->
<g id="node27" class="node"><title>Node12</title>
<a xlink:href="SysMgrWebBridge_8h.htm" target="_top" xlink:title="SysMgrWebBridge.h">
<polygon fill="white" stroke="black" points="318.5,-116.5 318.5,-137.5 431.5,-137.5 431.5,-116.5 318.5,-116.5"/>
<text text-anchor="middle" x="375" y="-124.5" font-family="Helvetica,sans-Serif" font-size="10.00">SysMgrWebBridge.h</text>
</a>
</g>
<!-- Node11&#45;&gt;Node12 -->
<g id="edge30" class="edge"><title>Node11&#45;&gt;Node12</title>
<path fill="none" stroke="midnightblue" d="M370.917,-174.362C371.558,-166.922 372.436,-156.743 373.213,-147.728"/>
<polygon fill="midnightblue" stroke="midnightblue" points="376.717,-147.834 374.089,-137.571 369.743,-147.233 376.717,-147.834"/>
</g>
<!-- Node17 -->
<g id="node38" class="node"><title>Node17</title>
<polygon fill="white" stroke="#bfbfbf" points="608,-58.5 608,-79.5 706,-79.5 706,-58.5 608,-58.5"/>
<text text-anchor="middle" x="657" y="-66.5" font-family="Helvetica,sans-Serif" font-size="10.00">palmimedefines.h</text>
</g>
<!-- Node11&#45;&gt;Node17 -->
<g id="edge52" class="edge"><title>Node11&#45;&gt;Node17</title>
<path fill="none" stroke="midnightblue" d="M406.042,-174.431C435.014,-165.612 476.577,-152.226 512,-138 552.907,-121.571 598.6,-99.1127 627.56,-84.3412"/>
<polygon fill="midnightblue" stroke="midnightblue" points="629.41,-87.3259 636.709,-79.6462 626.214,-81.0981 629.41,-87.3259"/>
</g>
<!-- Node20 -->
<g id="node44" class="node"><title>Node20</title>
<polygon fill="white" stroke="#bfbfbf" points="448.5,-116.5 448.5,-137.5 503.5,-137.5 503.5,-116.5 448.5,-116.5"/>
<text text-anchor="middle" x="476" y="-124.5" font-family="Helvetica,sans-Serif" font-size="10.00">QObject</text>
</g>
<!-- Node11&#45;&gt;Node20 -->
<g id="edge48" class="edge"><title>Node11&#45;&gt;Node20</title>
<path fill="none" stroke="midnightblue" d="M389.442,-174.362C405.804,-165.409 429.413,-152.491 447.843,-142.406"/>
<polygon fill="midnightblue" stroke="midnightblue" points="449.589,-145.441 456.681,-137.571 446.229,-139.3 449.589,-145.441"/>
</g>
<!-- Node21 -->
<g id="node46" class="node"><title>Node21</title>
<polygon fill="white" stroke="#bfbfbf" points="879,-116.5 879,-137.5 957,-137.5 957,-116.5 879,-116.5"/>
<text text-anchor="middle" x="918" y="-124.5" font-family="Helvetica,sans-Serif" font-size="10.00">lunaservice.h</text>
</g>
<!-- Node11&#45;&gt;Node21 -->
<g id="edge50" class="edge"><title>Node11&#45;&gt;Node21</title>
<path fill="none" stroke="midnightblue" d="M414.757,-175.35C417.541,-174.862 420.305,-174.406 423,-174 585.369,-149.518 779.739,-135.469 868.908,-129.866"/>
<polygon fill="midnightblue" stroke="midnightblue" points="869.232,-133.352 878.996,-129.24 868.799,-126.366 869.232,-133.352"/>
</g>
<!-- Node13 -->
<g id="node29" class="node"><title>Node13</title>
<a xlink:href="ProcessBase_8h.htm" target="_top" xlink:title="ProcessBase.h">
<polygon fill="white" stroke="black" points="503.5,-58.5 503.5,-79.5 590.5,-79.5 590.5,-58.5 503.5,-58.5"/>
<text text-anchor="middle" x="547" y="-66.5" font-family="Helvetica,sans-Serif" font-size="10.00">ProcessBase.h</text>
</a>
</g>
<!-- Node12&#45;&gt;Node13 -->
<g id="edge32" class="edge"><title>Node12&#45;&gt;Node13</title>
<path fill="none" stroke="midnightblue" d="M406.148,-116.497C434.189,-107.041 475.582,-93.0829 506.245,-82.7428"/>
<polygon fill="midnightblue" stroke="midnightblue" points="507.436,-86.035 515.794,-79.5231 505.2,-79.4019 507.436,-86.035"/>
</g>
<!-- Node15 -->
<g id="node34" class="node"><title>Node15</title>
<polygon fill="white" stroke="#bfbfbf" points="349.5,-58.5 349.5,-79.5 410.5,-79.5 410.5,-58.5 349.5,-58.5"/>
<text text-anchor="middle" x="380" y="-66.5" font-family="Helvetica,sans-Serif" font-size="10.00">QtWebKit</text>
</g>
<!-- Node12&#45;&gt;Node15 -->
<g id="edge38" class="edge"><title>Node12&#45;&gt;Node15</title>
<path fill="none" stroke="midnightblue" d="M375.917,-116.362C376.558,-108.922 377.436,-98.7427 378.213,-89.7276"/>
<polygon fill="midnightblue" stroke="midnightblue" points="381.717,-89.8343 379.089,-79.5707 374.743,-89.2331 381.717,-89.8343"/>
</g>
<!-- Node16 -->
<g id="node36" class="node"><title>Node16</title>
<polygon fill="white" stroke="#bfbfbf" points="427.5,-58.5 427.5,-79.5 486.5,-79.5 486.5,-58.5 427.5,-58.5"/>
<text text-anchor="middle" x="457" y="-66.5" font-family="Helvetica,sans-Serif" font-size="10.00">QPointer</text>
</g>
<!-- Node12&#45;&gt;Node16 -->
<g id="edge40" class="edge"><title>Node12&#45;&gt;Node16</title>
<path fill="none" stroke="midnightblue" d="M390.04,-116.362C402.293,-107.696 419.799,-95.3126 433.839,-85.3819"/>
<polygon fill="midnightblue" stroke="midnightblue" points="435.912,-88.2028 442.055,-79.5707 431.87,-82.4879 435.912,-88.2028"/>
</g>
<!-- Node12&#45;&gt;Node17 -->
<g id="edge42" class="edge"><title>Node12&#45;&gt;Node17</title>
<path fill="none" stroke="midnightblue" d="M426.068,-116.497C474.428,-106.55 547.012,-91.6217 597.863,-81.163"/>
<polygon fill="midnightblue" stroke="midnightblue" points="598.64,-84.5766 607.729,-79.1337 597.229,-77.7201 598.64,-84.5766"/>
</g>
<!-- Node18 -->
<g id="node40" class="node"><title>Node18</title>
<polygon fill="white" stroke="#bfbfbf" points="167.5,-58.5 167.5,-79.5 238.5,-79.5 238.5,-58.5 167.5,-58.5"/>
<text text-anchor="middle" x="203" y="-66.5" font-family="Helvetica,sans-Serif" font-size="10.00">QWebPage</text>
</g>
<!-- Node12&#45;&gt;Node18 -->
<g id="edge44" class="edge"><title>Node12&#45;&gt;Node18</title>
<path fill="none" stroke="midnightblue" d="M343.852,-116.497C315.811,-107.041 274.418,-93.0829 243.755,-82.7428"/>
<polygon fill="midnightblue" stroke="midnightblue" points="244.8,-79.4019 234.206,-79.5231 242.564,-86.035 244.8,-79.4019"/>
</g>
<!-- Node19 -->
<g id="node42" class="node"><title>Node19</title>
<polygon fill="white" stroke="#bfbfbf" points="256,-58.5 256,-79.5 332,-79.5 332,-58.5 256,-58.5"/>
<text text-anchor="middle" x="294" y="-66.5" font-family="Helvetica,sans-Serif" font-size="10.00">QWebFrame</text>
</g>
<!-- Node12&#45;&gt;Node19 -->
<g id="edge46" class="edge"><title>Node12&#45;&gt;Node19</title>
<path fill="none" stroke="midnightblue" d="M360.143,-116.362C348.154,-107.777 331.073,-95.5459 317.272,-85.6636"/>
<polygon fill="midnightblue" stroke="midnightblue" points="318.931,-82.5469 308.762,-79.5707 314.855,-88.2383 318.931,-82.5469"/>
</g>
<!-- Node13&#45;&gt;Node2 -->
<g id="edge34" class="edge"><title>Node13&#45;&gt;Node2</title>
<path fill="none" stroke="midnightblue" d="M590.649,-59.5314C593.471,-58.992 596.273,-58.4763 599,-58 704.649,-39.5474 829.8,-23.8099 894.811,-16.0905"/>
<polygon fill="midnightblue" stroke="midnightblue" points="895.575,-19.5248 905.095,-14.8768 894.754,-12.573 895.575,-19.5248"/>
</g>
<!-- Node14 -->
<g id="node32" class="node"><title>Node14</title>
<polygon fill="white" stroke="#bfbfbf" points="1592.5,-0.5 1592.5,-21.5 1645.5,-21.5 1645.5,-0.5 1592.5,-0.5"/>
<text text-anchor="middle" x="1619" y="-8.5" font-family="Helvetica,sans-Serif" font-size="10.00">QString</text>
</g>
<!-- Node13&#45;&gt;Node14 -->
<g id="edge36" class="edge"><title>Node13&#45;&gt;Node14</title>
<path fill="none" stroke="midnightblue" d="M590.605,-59.2392C593.438,-58.7714 596.254,-58.3513 599,-58 794.953,-32.9285 1422.84,-15.8874 1582.04,-11.8976"/>
<polygon fill="midnightblue" stroke="midnightblue" points="1582.35,-15.3911 1592.26,-11.6433 1582.17,-8.39323 1582.35,-15.3911"/>
</g>
<!-- Node35&#45;&gt;Node2 -->
<g id="edge90" class="edge"><title>Node35&#45;&gt;Node2</title>
<path fill="none" stroke="midnightblue" d="M1253.96,-232.429C1201.46,-195.516 1026.02,-72.1774 962.344,-27.4115"/>
<polygon fill="midnightblue" stroke="midnightblue" points="964.319,-24.5216 954.125,-21.6335 960.293,-30.248 964.319,-24.5216"/>
</g>
<!-- Node35&#45;&gt;Node9 -->
<g id="edge94" class="edge"><title>Node35&#45;&gt;Node9</title>
<path fill="none" stroke="midnightblue" d="M1215.44,-238.23C1161.63,-232.462 1076.48,-220.671 996.568,-195.916"/>
<polygon fill="midnightblue" stroke="midnightblue" points="997.441,-192.521 986.851,-192.832 995.324,-199.193 997.441,-192.521"/>
</g>
<!-- Node35&#45;&gt;Node14 -->
<g id="edge98" class="edge"><title>Node35&#45;&gt;Node14</title>
<path fill="none" stroke="midnightblue" d="M1322.78,-241.53C1487.59,-236.766 1975.91,-220.622 1999,-196 2106.2,-81.6804 1770.02,-29.3436 1655.67,-15.1383"/>
<polygon fill="midnightblue" stroke="midnightblue" points="1655.98,-11.6502 1645.63,-13.9187 1655.13,-18.5991 1655.98,-11.6502"/>
</g>
<!-- Node35&#45;&gt;Node21 -->
<g id="edge136" class="edge"><title>Node35&#45;&gt;Node21</title>
<path fill="none" stroke="midnightblue" d="M1233.04,-232.437C1204.66,-223.718 1164.26,-210.466 1130,-196 1110.22,-187.65 1107,-181.804 1087,-174 1047.62,-158.633 1001.27,-146.113 967.072,-137.87"/>
<polygon fill="midnightblue" stroke="midnightblue" points="967.858,-134.46 957.32,-135.556 966.242,-141.271 967.858,-134.46"/>
</g>
<!-- Node35&#45;&gt;Node22 -->
<g id="edge108" class="edge"><title>Node35&#45;&gt;Node22</title>
<path fill="none" stroke="midnightblue" d="M1215.46,-241.081C1130.69,-237.274 960.411,-226.498 808.22,-195.913"/>
<polygon fill="midnightblue" stroke="midnightblue" points="808.721,-192.443 798.223,-193.87 807.319,-199.302 808.721,-192.443"/>
</g>
<!-- Node35&#45;&gt;Node23 -->
<g id="edge124" class="edge"><title>Node35&#45;&gt;Node23</title>
<path fill="none" stroke="midnightblue" d="M1259.79,-232.258C1252.67,-223.236 1243.31,-209.662 1239,-196 1234.04,-180.301 1233.54,-161.595 1234.14,-147.622"/>
<polygon fill="midnightblue" stroke="midnightblue" points="1237.64,-147.785 1234.79,-137.579 1230.65,-147.331 1237.64,-147.785"/>
</g>
<!-- Node35&#45;&gt;Node24 -->
<g id="edge128" class="edge"><title>Node35&#45;&gt;Node24</title>
<path fill="none" stroke="midnightblue" d="M1215.23,-239.715C1120.82,-233.627 918.915,-219.181 738.987,-196.183"/>
<polygon fill="midnightblue" stroke="midnightblue" points="739.173,-192.678 728.807,-194.869 738.277,-199.62 739.173,-192.678"/>
</g>
<!-- Node35&#45;&gt;Node25 -->
<g id="edge126" class="edge"><title>Node35&#45;&gt;Node25</title>
<path fill="none" stroke="midnightblue" d="M1215.09,-239.393C1102.47,-231.808 834.05,-213.461 609,-196 584.421,-194.093 557.262,-191.837 534.075,-189.866"/>
<polygon fill="midnightblue" stroke="midnightblue" points="534.326,-186.375 524.064,-189.012 533.73,-193.349 534.326,-186.375"/>
</g>
<!-- Node35&#45;&gt;Node26 -->
<g id="edge142" class="edge"><title>Node35&#45;&gt;Node26</title>
<path fill="none" stroke="midnightblue" d="M1215.48,-235.27C1153.96,-226.357 1049.69,-211.158 950.25,-196.181"/>
<polygon fill="midnightblue" stroke="midnightblue" points="950.744,-192.716 940.334,-194.686 949.7,-199.638 950.744,-192.716"/>
</g>
<!-- Node35&#45;&gt;Node27 -->
<g id="edge138" class="edge"><title>Node35&#45;&gt;Node27</title>
<path fill="none" stroke="midnightblue" d="M1227.71,-232.497C1188.35,-222.484 1129.15,-207.423 1088,-196.955"/>
<polygon fill="midnightblue" stroke="midnightblue" points="1088.76,-193.538 1078.21,-194.465 1087.04,-200.322 1088.76,-193.538"/>
</g>
<!-- Node36 -->
<g id="node82" class="node"><title>Node36</title>
<polygon fill="white" stroke="#bfbfbf" points="1629.5,-116.5 1629.5,-137.5 1666.5,-137.5 1666.5,-116.5 1629.5,-116.5"/>
<text text-anchor="middle" x="1648" y="-124.5" font-family="Helvetica,sans-Serif" font-size="10.00">map</text>
</g>
<!-- Node35&#45;&gt;Node36 -->
<g id="edge92" class="edge"><title>Node35&#45;&gt;Node36</title>
<path fill="none" stroke="midnightblue" d="M1322.71,-240.724C1428.1,-235.706 1653.81,-222.014 1677,-196 1689.99,-181.432 1677.75,-160.209 1665.42,-145.153"/>
<polygon fill="midnightblue" stroke="midnightblue" points="1667.94,-142.72 1658.72,-137.505 1662.68,-147.333 1667.94,-142.72"/>
</g>
<!-- Node37 -->
<g id="node85" class="node"><title>Node37</title>
<polygon fill="white" stroke="#bfbfbf" points="1247.5,-174.5 1247.5,-195.5 1290.5,-195.5 1290.5,-174.5 1247.5,-174.5"/>
<text text-anchor="middle" x="1269" y="-182.5" font-family="Helvetica,sans-Serif" font-size="10.00">string</text>
</g>
<!-- Node35&#45;&gt;Node37 -->
<g id="edge96" class="edge"><title>Node35&#45;&gt;Node37</title>
<path fill="none" stroke="midnightblue" d="M1269,-232.362C1269,-224.922 1269,-214.743 1269,-205.728"/>
<polygon fill="midnightblue" stroke="midnightblue" points="1272.5,-205.571 1269,-195.571 1265.5,-205.571 1272.5,-205.571"/>
</g>
<!-- Node38 -->
<g id="node88" class="node"><title>Node38</title>
<polygon fill="white" stroke="#bfbfbf" points="1307.5,-174.5 1307.5,-195.5 1384.5,-195.5 1384.5,-174.5 1307.5,-174.5"/>
<text text-anchor="middle" x="1346" y="-182.5" font-family="Helvetica,sans-Serif" font-size="10.00">QApplication</text>
</g>
<!-- Node35&#45;&gt;Node38 -->
<g id="edge100" class="edge"><title>Node35&#45;&gt;Node38</title>
<path fill="none" stroke="midnightblue" d="M1283.12,-232.362C1294.52,-223.777 1310.76,-211.546 1323.88,-201.664"/>
<polygon fill="midnightblue" stroke="midnightblue" points="1326.08,-204.383 1331.97,-195.571 1321.87,-198.792 1326.08,-204.383"/>
</g>
<!-- Node39 -->
<g id="node90" class="node"><title>Node39</title>
<a xlink:href="SyncTask_8h.htm" target="_top" xlink:title="SyncTask.h">
<polygon fill="white" stroke="black" points="1919.5,-174.5 1919.5,-195.5 1990.5,-195.5 1990.5,-174.5 1919.5,-174.5"/>
<text text-anchor="middle" x="1955" y="-182.5" font-family="Helvetica,sans-Serif" font-size="10.00">SyncTask.h</text>
</a>
</g>
<!-- Node35&#45;&gt;Node39 -->
<g id="edge102" class="edge"><title>Node35&#45;&gt;Node39</title>
<path fill="none" stroke="midnightblue" d="M1322.77,-239.64C1427.73,-232.891 1667.2,-216.56 1868,-196 1881.52,-194.616 1896.18,-192.86 1909.56,-191.16"/>
<polygon fill="midnightblue" stroke="midnightblue" points="1910.02,-194.629 1919.49,-189.877 1909.12,-187.687 1910.02,-194.629"/>
</g>
<!-- Node41 -->
<g id="node96" class="node"><title>Node41</title>
<a xlink:href="MemoryWatcher_8h.htm" target="_top" xlink:title="MemoryWatcher.h">
<polygon fill="white" stroke="black" points="1723.5,-174.5 1723.5,-195.5 1826.5,-195.5 1826.5,-174.5 1723.5,-174.5"/>
<text text-anchor="middle" x="1775" y="-182.5" font-family="Helvetica,sans-Serif" font-size="10.00">MemoryWatcher.h</text>
</a>
</g>
<!-- Node35&#45;&gt;Node41 -->
<g id="edge110" class="edge"><title>Node35&#45;&gt;Node41</title>
<path fill="none" stroke="midnightblue" d="M1322.76,-238.344C1405.95,-230.898 1570.8,-215.178 1710,-196 1711.08,-195.852 1712.16,-195.699 1713.26,-195.543"/>
<polygon fill="midnightblue" stroke="midnightblue" points="1713.87,-198.99 1723.24,-194.054 1712.84,-192.067 1713.87,-198.99"/>
</g>
<!-- Node42 -->
<g id="node101" class="node"><title>Node42</title>
<polygon fill="white" stroke="#bfbfbf" points="1722,-116.5 1722,-137.5 1794,-137.5 1794,-116.5 1722,-116.5"/>
<text text-anchor="middle" x="1758" y="-124.5" font-family="Helvetica,sans-Serif" font-size="10.00">SignalSlot.h</text>
</g>
<!-- Node35&#45;&gt;Node42 -->
<g id="edge122" class="edge"><title>Node35&#45;&gt;Node42</title>
<path fill="none" stroke="midnightblue" d="M1322.87,-242.58C1457.58,-240.972 1800.74,-233.227 1835,-196 1853.57,-175.828 1822.57,-155.165 1794.54,-141.777"/>
<polygon fill="midnightblue" stroke="midnightblue" points="1795.78,-138.494 1785.23,-137.527 1792.87,-144.862 1795.78,-138.494"/>
</g>
<!-- Node43 -->
<g id="node108" class="node"><title>Node43</title>
<a xlink:href="WebAppCache_8h.htm" target="_top" xlink:title="WebAppCache.h">
<polygon fill="white" stroke="black" points="1171.5,-58.5 1171.5,-79.5 1266.5,-79.5 1266.5,-58.5 1171.5,-58.5"/>
<text text-anchor="middle" x="1219" y="-66.5" font-family="Helvetica,sans-Serif" font-size="10.00">WebAppCache.h</text>
</a>
</g>
<!-- Node35&#45;&gt;Node43 -->
<g id="edge130" class="edge"><title>Node35&#45;&gt;Node43</title>
<path fill="none" stroke="midnightblue" d="M1258.34,-232.274C1241.63,-214.525 1210.23,-177.104 1201,-138 1197.1,-121.485 1202.54,-102.876 1208.43,-89.1481"/>
<polygon fill="midnightblue" stroke="midnightblue" points="1211.78,-90.2553 1212.88,-79.7178 1205.45,-87.2691 1211.78,-90.2553"/>
</g>
<!-- Node44 -->
<g id="node111" class="node"><title>Node44</title>
<polygon fill="white" stroke="#bfbfbf" points="1401.5,-174.5 1401.5,-195.5 1472.5,-195.5 1472.5,-174.5 1401.5,-174.5"/>
<text text-anchor="middle" x="1437" y="-182.5" font-family="Helvetica,sans-Serif" font-size="10.00">HostBase.h</text>
</g>
<!-- Node35&#45;&gt;Node44 -->
<g id="edge134" class="edge"><title>Node35&#45;&gt;Node44</title>
<path fill="none" stroke="midnightblue" d="M1299.42,-232.497C1326.69,-223.082 1366.89,-209.204 1396.8,-198.877"/>
<polygon fill="midnightblue" stroke="midnightblue" points="1398.21,-202.095 1406.52,-195.523 1395.92,-195.478 1398.21,-202.095"/>
</g>
<!-- Node45 -->
<g id="node115" class="node"><title>Node45</title>
<polygon fill="white" stroke="#bfbfbf" points="1489.5,-174.5 1489.5,-195.5 1562.5,-195.5 1562.5,-174.5 1489.5,-174.5"/>
<text text-anchor="middle" x="1526" y="-182.5" font-family="Helvetica,sans-Serif" font-size="10.00">PIpcClient.h</text>
</g>
<!-- Node35&#45;&gt;Node45 -->
<g id="edge140" class="edge"><title>Node35&#45;&gt;Node45</title>
<path fill="none" stroke="midnightblue" d="M1317.91,-232.471C1358.73,-223.61 1418.72,-210.428 1479.43,-196.338"/>
<polygon fill="midnightblue" stroke="midnightblue" points="1480.23,-199.745 1489.18,-194.069 1478.65,-192.927 1480.23,-199.745"/>
</g>
<!-- Node46 -->
<g id="node118" class="node"><title>Node46</title>
<polygon fill="white" stroke="#bfbfbf" points="1579.5,-174.5 1579.5,-195.5 1668.5,-195.5 1668.5,-174.5 1579.5,-174.5"/>
<text text-anchor="middle" x="1624" y="-182.5" font-family="Helvetica,sans-Serif" font-size="10.00">PIpcMessage.h</text>
</g>
<!-- Node35&#45;&gt;Node46 -->
<g id="edge144" class="edge"><title>Node35&#45;&gt;Node46</title>
<path fill="none" stroke="midnightblue" d="M1322.6,-235.489C1380.95,-227.125 1477.26,-212.781 1569.44,-196.224"/>
<polygon fill="midnightblue" stroke="midnightblue" points="1570.28,-199.629 1579.5,-194.405 1569.04,-192.74 1570.28,-199.629"/>
</g>
<!-- Node39&#45;&gt;Node2 -->
<g id="edge104" class="edge"><title>Node39&#45;&gt;Node2</title>
<path fill="none" stroke="midnightblue" d="M1960.18,-174.396C1966.66,-159.415 1975.29,-132.093 1961,-116 1895.03,-41.7197 1169.78,-17.202 982.78,-12.092"/>
<polygon fill="midnightblue" stroke="midnightblue" points="982.597,-8.58589 972.506,-11.8161 982.409,-15.5834 982.597,-8.58589"/>
</g>
<!-- Node40 -->
<g id="node93" class="node"><title>Node40</title>
<polygon fill="white" stroke="#bfbfbf" points="1880,-116.5 1880,-137.5 1952,-137.5 1952,-116.5 1880,-116.5"/>
<text text-anchor="middle" x="1916" y="-124.5" font-family="Helvetica,sans-Serif" font-size="10.00">TaskBase.h</text>
</g>
<!-- Node39&#45;&gt;Node40 -->
<g id="edge106" class="edge"><title>Node39&#45;&gt;Node40</title>
<path fill="none" stroke="midnightblue" d="M1947.85,-174.362C1942.51,-166.431 1935.09,-155.389 1928.75,-145.961"/>
<polygon fill="midnightblue" stroke="midnightblue" points="1931.59,-143.916 1923.11,-137.571 1925.78,-147.822 1931.59,-143.916"/>
</g>
<!-- Node41&#45;&gt;Node2 -->
<g id="edge112" class="edge"><title>Node41&#45;&gt;Node2</title>
<path fill="none" stroke="midnightblue" d="M1761.12,-174.234C1738.25,-156.701 1693.36,-123.205 1675,-116 1546.92,-65.7348 1121.72,-26.3683 983.106,-14.609"/>
<polygon fill="midnightblue" stroke="midnightblue" points="983.125,-11.0983 972.867,-13.7465 982.538,-18.0736 983.125,-11.0983"/>
</g>
<!-- Node41&#45;&gt;Node23 -->
<g id="edge120" class="edge"><title>Node41&#45;&gt;Node23</title>
<path fill="none" stroke="midnightblue" d="M1723.38,-179.151C1708.42,-177.471 1692.06,-175.648 1677,-174 1526.9,-157.578 1347.98,-138.735 1272.48,-130.818"/>
<polygon fill="midnightblue" stroke="midnightblue" points="1272.41,-127.292 1262.1,-129.73 1271.68,-134.254 1272.41,-127.292"/>
</g>
<!-- Node41&#45;&gt;Node31 -->
<g id="edge114" class="edge"><title>Node41&#45;&gt;Node31</title>
<path fill="none" stroke="midnightblue" d="M1786.37,-174.362C1795.29,-166.023 1807.88,-154.242 1818.28,-144.516"/>
<polygon fill="midnightblue" stroke="midnightblue" points="1820.79,-146.958 1825.7,-137.571 1816.01,-141.846 1820.79,-146.958"/>
</g>
<!-- Node41&#45;&gt;Node36 -->
<g id="edge116" class="edge"><title>Node41&#45;&gt;Node36</title>
<path fill="none" stroke="midnightblue" d="M1752,-174.497C1730.61,-164.728 1698.7,-150.153 1675.87,-139.727"/>
<polygon fill="midnightblue" stroke="midnightblue" points="1677.25,-136.51 1666.7,-135.539 1674.34,-142.877 1677.25,-136.51"/>
</g>
<!-- Node41&#45;&gt;Node42 -->
<g id="edge118" class="edge"><title>Node41&#45;&gt;Node42</title>
<path fill="none" stroke="midnightblue" d="M1771.88,-174.362C1769.68,-166.84 1766.65,-156.519 1763.99,-147.431"/>
<polygon fill="midnightblue" stroke="midnightblue" points="1767.27,-146.182 1761.1,-137.571 1760.55,-148.151 1767.27,-146.182"/>
</g>
<!-- Node43&#45;&gt;Node2 -->
<g id="edge132" class="edge"><title>Node43&#45;&gt;Node2</title>
<path fill="none" stroke="midnightblue" d="M1171.18,-59.0953C1118.29,-48.1379 1033.78,-30.6331 982.626,-20.0368"/>
<polygon fill="midnightblue" stroke="midnightblue" points="983.052,-16.5508 972.55,-17.9496 981.632,-23.4052 983.052,-16.5508"/>
</g>
</g>
</svg>
