<?xml version="1.0" encoding="UTF-8" standalone="no"?>
<!DOCTYPE svg PUBLIC "-//W3C//DTD SVG 1.1//EN"
 "http://www.w3.org/Graphics/SVG/1.1/DTD/svg11.dtd">
<!-- Generated by graphviz version 2.26.3 (20100126.1600)
 -->
<!-- Title: RemoteWindowDataSoftwareQt.cpp Pages: 1 -->
<svg width="2241pt" height="508pt"
 viewBox="0.00 0.00 2241.00 508.00" xmlns="http://www.w3.org/2000/svg" xmlns:xlink="http://www.w3.org/1999/xlink">
<g id="graph1" class="graph" transform="scale(1 1) rotate(0) translate(4 504)">
<title>RemoteWindowDataSoftwareQt.cpp</title>
<polygon fill="white" stroke="white" points="-4,5 -4,-504 2238,-504 2238,5 -4,5"/>
<!-- Node1 -->
<g id="node1" class="node"><title>Node1</title>
<polygon fill="#bfbfbf" stroke="black" points="1413.5,-465 1413.5,-499 1568.5,-499 1568.5,-465 1413.5,-465"/>
<text text-anchor="start" x="1421.5" y="-486" font-family="Helvetica,sans-Serif" font-size="10.00">RemoteWindowDataSoftware</text>
<text text-anchor="middle" x="1491" y="-473" font-family="Helvetica,sans-Serif" font-size="10.00">Qt.cpp</text>
</g>
<!-- Node2 -->
<g id="node3" class="node"><title>Node2</title>
<polygon fill="white" stroke="#bfbfbf" points="277.5,-0.5 277.5,-21.5 344.5,-21.5 344.5,-0.5 277.5,-0.5"/>
<text text-anchor="middle" x="311" y="-8.5" font-family="Helvetica,sans-Serif" font-size="10.00">Common.h</text>
</g>
<!-- Node1&#45;&gt;Node2 -->
<g id="edge2" class="edge"><title>Node1&#45;&gt;Node2</title>
<path fill="none" stroke="midnightblue" d="M1413.46,-479.706C1107.41,-470.152 0,-430.63 0,-359 0,-359 0,-359 0,-127 0,-84.5631 28.7292,-78.2922 66,-58 100.07,-39.4505 206.424,-23.8474 267.218,-16.15"/>
<polygon fill="midnightblue" stroke="midnightblue" points="267.798,-19.6048 277.288,-14.8944 266.932,-12.6586 267.798,-19.6048"/>
</g>
<!-- Node3 -->
<g id="node5" class="node"><title>Node3</title>
<a xlink:href="RemoteWindowDataSoftwareQt_8h.htm" target="_top" xlink:title="RemoteWindowDataSoftwareQt.h">
<polygon fill="white" stroke="black" points="498.5,-406.5 498.5,-427.5 673.5,-427.5 673.5,-406.5 498.5,-406.5"/>
<text text-anchor="middle" x="586" y="-414.5" font-family="Helvetica,sans-Serif" font-size="10.00">RemoteWindowDataSoftwareQt.h</text>
</a>
</g>
<!-- Node1&#45;&gt;Node3 -->
<g id="edge4" class="edge"><title>Node1&#45;&gt;Node3</title>
<path fill="none" stroke="midnightblue" d="M1413.45,-476.43C1248.85,-464.608 864.853,-437.028 683.785,-424.023"/>
<polygon fill="midnightblue" stroke="midnightblue" points="683.961,-420.527 673.736,-423.301 683.459,-427.509 683.961,-420.527"/>
</g>
<!-- Node23 -->
<g id="node52" class="node"><title>Node23</title>
<polygon fill="white" stroke="#bfbfbf" points="1042,-174.5 1042,-195.5 1116,-195.5 1116,-174.5 1042,-174.5"/>
<text text-anchor="middle" x="1079" y="-182.5" font-family="Helvetica,sans-Serif" font-size="10.00">PIpcBuffer.h</text>
</g>
<!-- Node1&#45;&gt;Node23 -->
<g id="edge142" class="edge"><title>Node1&#45;&gt;Node23</title>
<path fill="none" stroke="midnightblue" d="M1413.31,-470.973C1309.11,-453.959 1137,-417.068 1137,-359 1137,-359 1137,-359 1137,-301 1137,-263.233 1112.1,-225.158 1094.93,-203.391"/>
<polygon fill="midnightblue" stroke="midnightblue" points="1097.62,-201.149 1088.58,-195.625 1092.2,-205.581 1097.62,-201.149"/>
</g>
<!-- Node27 -->
<g id="node62" class="node"><title>Node27</title>
<polygon fill="white" stroke="#bfbfbf" points="800.5,-348.5 800.5,-369.5 863.5,-369.5 863.5,-348.5 800.5,-348.5"/>
<text text-anchor="middle" x="832" y="-356.5" font-family="Helvetica,sans-Serif" font-size="10.00">Logging.h</text>
</g>
<!-- Node1&#45;&gt;Node27 -->
<g id="edge152" class="edge"><title>Node1&#45;&gt;Node27</title>
<path fill="none" stroke="midnightblue" d="M1413.49,-472.621C1338.79,-463.112 1222.73,-447.103 1123,-428 1033.47,-410.85 929.868,-384.769 873.609,-370.074"/>
<polygon fill="midnightblue" stroke="midnightblue" points="874.23,-366.619 863.669,-367.467 872.454,-373.39 874.23,-366.619"/>
</g>
<!-- Node28 -->
<g id="node64" class="node"><title>Node28</title>
<a xlink:href="WebAppManager_8h.htm" target="_top" xlink:title="WebAppManager.h">
<polygon fill="white" stroke="black" points="1223.5,-232.5 1223.5,-253.5 1330.5,-253.5 1330.5,-232.5 1223.5,-232.5"/>
<text text-anchor="middle" x="1277" y="-240.5" font-family="Helvetica,sans-Serif" font-size="10.00">WebAppManager.h</text>
</a>
</g>
<!-- Node1&#45;&gt;Node28 -->
<g id="edge72" class="edge"><title>Node1&#45;&gt;Node28</title>
<path fill="none" stroke="midnightblue" d="M1413.41,-468.859C1367.74,-459.486 1316.06,-445.467 1301,-428 1260.76,-381.315 1267.08,-301.801 1272.98,-264.069"/>
<polygon fill="midnightblue" stroke="midnightblue" points="1276.5,-264.231 1274.74,-253.783 1269.6,-263.048 1276.5,-264.231"/>
</g>
<!-- Node35 -->
<g id="node84" class="node"><title>Node35</title>
<polygon fill="white" stroke="#bfbfbf" points="1656,-116.5 1656,-137.5 1706,-137.5 1706,-116.5 1656,-116.5"/>
<text text-anchor="middle" x="1681" y="-124.5" font-family="Helvetica,sans-Serif" font-size="10.00">stdint.h</text>
</g>
<!-- Node1&#45;&gt;Node35 -->
<g id="edge130" class="edge"><title>Node1&#45;&gt;Node35</title>
<path fill="none" stroke="midnightblue" d="M1413.25,-471.386C1361.62,-460.918 1307.77,-441.213 1334,-406 1528.8,-144.497 1842.2,-457.503 2037,-196 2042.84,-188.159 2043.45,-181.352 2037,-174 2016.02,-150.065 1801.94,-134.406 1716.21,-129.052"/>
<polygon fill="midnightblue" stroke="midnightblue" points="1716.37,-125.556 1706.18,-128.436 1715.95,-132.543 1716.37,-125.556"/>
</g>
<!-- Node41 -->
<g id="node107" class="node"><title>Node41</title>
<polygon fill="white" stroke="#bfbfbf" points="1343,-406.5 1343,-427.5 1405,-427.5 1405,-406.5 1343,-406.5"/>
<text text-anchor="middle" x="1374" y="-414.5" font-family="Helvetica,sans-Serif" font-size="10.00">sys/ioctl.h</text>
</g>
<!-- Node1&#45;&gt;Node41 -->
<g id="edge132" class="edge"><title>Node1&#45;&gt;Node41</title>
<path fill="none" stroke="midnightblue" d="M1460.26,-464.922C1442.32,-454.957 1419.85,-442.473 1402.34,-432.745"/>
<polygon fill="midnightblue" stroke="midnightblue" points="1403.63,-429.455 1393.19,-427.658 1400.23,-435.574 1403.63,-429.455"/>
</g>
<!-- Node42 -->
<g id="node109" class="node"><title>Node42</title>
<polygon fill="white" stroke="#bfbfbf" points="1422.5,-406.5 1422.5,-427.5 1479.5,-427.5 1479.5,-406.5 1422.5,-406.5"/>
<text text-anchor="middle" x="1451" y="-414.5" font-family="Helvetica,sans-Serif" font-size="10.00">linux/fb.h</text>
</g>
<!-- Node1&#45;&gt;Node42 -->
<g id="edge134" class="edge"><title>Node1&#45;&gt;Node42</title>
<path fill="none" stroke="midnightblue" d="M1480.49,-464.922C1475.13,-456.212 1468.59,-445.578 1463.03,-436.542"/>
<polygon fill="midnightblue" stroke="midnightblue" points="1465.9,-434.534 1457.68,-427.852 1459.94,-438.203 1465.9,-434.534"/>
</g>
<!-- Node43 -->
<g id="node111" class="node"><title>Node43</title>
<polygon fill="white" stroke="#bfbfbf" points="1496.5,-406.5 1496.5,-427.5 1565.5,-427.5 1565.5,-406.5 1496.5,-406.5"/>
<text text-anchor="middle" x="1531" y="-414.5" font-family="Helvetica,sans-Serif" font-size="10.00">sys/types.h</text>
</g>
<!-- Node1&#45;&gt;Node43 -->
<g id="edge136" class="edge"><title>Node1&#45;&gt;Node43</title>
<path fill="none" stroke="midnightblue" d="M1501.51,-464.922C1506.87,-456.212 1513.41,-445.578 1518.97,-436.542"/>
<polygon fill="midnightblue" stroke="midnightblue" points="1522.06,-438.203 1524.32,-427.852 1516.1,-434.534 1522.06,-438.203"/>
</g>
<!-- Node44 -->
<g id="node113" class="node"><title>Node44</title>
<polygon fill="white" stroke="#bfbfbf" points="1582.5,-406.5 1582.5,-427.5 1643.5,-427.5 1643.5,-406.5 1582.5,-406.5"/>
<text text-anchor="middle" x="1613" y="-414.5" font-family="Helvetica,sans-Serif" font-size="10.00">sys/stat.h</text>
</g>
<!-- Node1&#45;&gt;Node44 -->
<g id="edge138" class="edge"><title>Node1&#45;&gt;Node44</title>
<path fill="none" stroke="midnightblue" d="M1523.05,-464.922C1541.93,-454.864 1565.62,-442.242 1583.95,-432.476"/>
<polygon fill="midnightblue" stroke="midnightblue" points="1585.82,-435.449 1593,-427.658 1582.52,-429.272 1585.82,-435.449"/>
</g>
<!-- Node45 -->
<g id="node115" class="node"><title>Node45</title>
<polygon fill="white" stroke="#bfbfbf" points="1661,-406.5 1661,-427.5 1705,-427.5 1705,-406.5 1661,-406.5"/>
<text text-anchor="middle" x="1683" y="-414.5" font-family="Helvetica,sans-Serif" font-size="10.00">fcntl.h</text>
</g>
<!-- Node1&#45;&gt;Node45 -->
<g id="edge140" class="edge"><title>Node1&#45;&gt;Node45</title>
<path fill="none" stroke="midnightblue" d="M1542.56,-464.96C1571.96,-455.183 1609.73,-442.529 1651.2,-428.246"/>
<polygon fill="midnightblue" stroke="midnightblue" points="1652.35,-431.548 1660.67,-424.977 1650.07,-424.931 1652.35,-431.548"/>
</g>
<!-- Node46 -->
<g id="node118" class="node"><title>Node46</title>
<polygon fill="white" stroke="#bfbfbf" points="1723,-406.5 1723,-427.5 1809,-427.5 1809,-406.5 1723,-406.5"/>
<text text-anchor="middle" x="1766" y="-414.5" font-family="Helvetica,sans-Serif" font-size="10.00">PIpcChannel.h</text>
</g>
<!-- Node1&#45;&gt;Node46 -->
<g id="edge144" class="edge"><title>Node1&#45;&gt;Node46</title>
<path fill="none" stroke="midnightblue" d="M1563.25,-464.922C1610.25,-453.814 1670.49,-439.576 1713.05,-429.515"/>
<polygon fill="midnightblue" stroke="midnightblue" points="1714.01,-432.886 1722.93,-427.18 1712.4,-426.074 1714.01,-432.886"/>
</g>
<!-- Node47 -->
<g id="node120" class="node"><title>Node47</title>
<polygon fill="white" stroke="#bfbfbf" points="1826.5,-406.5 1826.5,-427.5 1885.5,-427.5 1885.5,-406.5 1826.5,-406.5"/>
<text text-anchor="middle" x="1856" y="-414.5" font-family="Helvetica,sans-Serif" font-size="10.00">QPainter</text>
</g>
<!-- Node1&#45;&gt;Node47 -->
<g id="edge146" class="edge"><title>Node1&#45;&gt;Node47</title>
<path fill="none" stroke="midnightblue" d="M1568.8,-471.791C1633.03,-462.758 1726.68,-448.196 1816.42,-428.191"/>
<polygon fill="midnightblue" stroke="midnightblue" points="1817.23,-431.597 1826.22,-425.982 1815.69,-424.768 1817.23,-431.597"/>
</g>
<!-- Node48 -->
<g id="node122" class="node"><title>Node48</title>
<polygon fill="white" stroke="#bfbfbf" points="1902.5,-406.5 1902.5,-427.5 2027.5,-427.5 2027.5,-406.5 1902.5,-406.5"/>
<text text-anchor="middle" x="1965" y="-414.5" font-family="Helvetica,sans-Serif" font-size="10.00">PIpcMessageMacros.h</text>
</g>
<!-- Node1&#45;&gt;Node48 -->
<g id="edge148" class="edge"><title>Node1&#45;&gt;Node48</title>
<path fill="none" stroke="midnightblue" d="M1568.7,-472.069C1647.68,-461.864 1773.86,-445.262 1892.32,-428.225"/>
<polygon fill="midnightblue" stroke="midnightblue" points="1892.89,-431.678 1902.29,-426.787 1891.89,-424.75 1892.89,-431.678"/>
</g>
<!-- Node49 -->
<g id="node124" class="node"><title>Node49</title>
<a xlink:href="WindowMetaData_8h.htm" target="_top" xlink:title="WindowMetaData.h">
<polygon fill="white" stroke="black" points="2044.5,-406.5 2044.5,-427.5 2153.5,-427.5 2153.5,-406.5 2044.5,-406.5"/>
<text text-anchor="middle" x="2099" y="-414.5" font-family="Helvetica,sans-Serif" font-size="10.00">WindowMetaData.h</text>
</a>
</g>
<!-- Node1&#45;&gt;Node49 -->
<g id="edge150" class="edge"><title>Node1&#45;&gt;Node49</title>
<path fill="none" stroke="midnightblue" d="M1568.83,-476.113C1672.76,-467.845 1862.79,-451.303 2034.43,-428.144"/>
<polygon fill="midnightblue" stroke="midnightblue" points="2034.97,-431.603 2044.4,-426.788 2034.02,-424.667 2034.97,-431.603"/>
</g>
<!-- Node50 -->
<g id="node127" class="node"><title>Node50</title>
<polygon fill="white" stroke="#bfbfbf" points="2170.5,-406.5 2170.5,-427.5 2233.5,-427.5 2233.5,-406.5 2170.5,-406.5"/>
<text text-anchor="middle" x="2202" y="-414.5" font-family="Helvetica,sans-Serif" font-size="10.00">Settings.h</text>
</g>
<!-- Node1&#45;&gt;Node50 -->
<g id="edge154" class="edge"><title>Node1&#45;&gt;Node50</title>
<path fill="none" stroke="midnightblue" d="M1568.58,-480.483C1692.26,-477.025 1941.66,-465.798 2160.19,-428.071"/>
<polygon fill="midnightblue" stroke="midnightblue" points="2161,-431.483 2170.25,-426.312 2159.79,-424.587 2161,-431.483"/>
</g>
<!-- Node3&#45;&gt;Node2 -->
<g id="edge6" class="edge"><title>Node3&#45;&gt;Node2</title>
<path fill="none" stroke="midnightblue" d="M498.258,-407.379C343.447,-389.207 38,-347.466 38,-301 38,-301 38,-301 38,-127 38,-80.382 75.6031,-79.4366 117,-58 164.984,-33.1522 226.487,-21.1369 267.239,-15.5402"/>
<polygon fill="midnightblue" stroke="midnightblue" points="267.922,-18.9809 277.387,-14.2203 267.019,-12.0394 267.922,-18.9809"/>
</g>
<!-- Node4 -->
<g id="node8" class="node"><title>Node4</title>
<a xlink:href="RemoteWindowData_8h.htm" target="_top" xlink:title="RemoteWindowData.h">
<polygon fill="white" stroke="black" points="250,-348.5 250,-369.5 372,-369.5 372,-348.5 250,-348.5"/>
<text text-anchor="middle" x="311" y="-356.5" font-family="Helvetica,sans-Serif" font-size="10.00">RemoteWindowData.h</text>
</a>
</g>
<!-- Node3&#45;&gt;Node4 -->
<g id="edge8" class="edge"><title>Node3&#45;&gt;Node4</title>
<path fill="none" stroke="midnightblue" d="M536.2,-406.497C489.717,-396.693 420.287,-382.05 370.819,-371.616"/>
<polygon fill="midnightblue" stroke="midnightblue" points="371.401,-368.162 360.894,-369.523 369.956,-375.011 371.401,-368.162"/>
</g>
<!-- Node3&#45;&gt;Node27 -->
<g id="edge70" class="edge"><title>Node3&#45;&gt;Node27</title>
<path fill="none" stroke="midnightblue" d="M630.549,-406.497C676.021,-395.776 746.044,-379.266 790.413,-368.805"/>
<polygon fill="midnightblue" stroke="midnightblue" points="791.361,-372.178 800.29,-366.476 789.754,-365.365 791.361,-372.178"/>
</g>
<!-- Node4&#45;&gt;Node2 -->
<g id="edge10" class="edge"><title>Node4&#45;&gt;Node2</title>
<path fill="none" stroke="midnightblue" d="M272.195,-348.464C205.448,-329.185 76,-286.223 76,-243 76,-243 76,-243 76,-127 76,-84.8052 199.36,-42.8601 267.325,-22.9525"/>
<polygon fill="midnightblue" stroke="midnightblue" points="268.694,-26.2005 277.33,-20.0638 266.752,-19.4752 268.694,-26.2005"/>
</g>
<!-- Node5 -->
<g id="node11" class="node"><title>Node5</title>
<polygon fill="white" stroke="#bfbfbf" points="103.5,-174.5 103.5,-195.5 150.5,-195.5 150.5,-174.5 103.5,-174.5"/>
<text text-anchor="middle" x="127" y="-182.5" font-family="Helvetica,sans-Serif" font-size="10.00">QRect</text>
</g>
<!-- Node4&#45;&gt;Node5 -->
<g id="edge12" class="edge"><title>Node4&#45;&gt;Node5</title>
<path fill="none" stroke="midnightblue" d="M290.702,-348.496C260.092,-331.849 201.697,-296.861 164,-254 151.286,-239.545 141.316,-219.966 134.944,-205.356"/>
<polygon fill="midnightblue" stroke="midnightblue" points="138.019,-203.635 130.953,-195.741 131.554,-206.318 138.019,-203.635"/>
</g>
<!-- Node6 -->
<g id="node13" class="node"><title>Node6</title>
<a xlink:href="CardWebApp_8h.htm" target="_top" xlink:title="CardWebApp.h">
<polygon fill="white" stroke="black" points="480,-290.5 480,-311.5 568,-311.5 568,-290.5 480,-290.5"/>
<text text-anchor="middle" x="524" y="-298.5" font-family="Helvetica,sans-Serif" font-size="10.00">CardWebApp.h</text>
</a>
</g>
<!-- Node4&#45;&gt;Node6 -->
<g id="edge14" class="edge"><title>Node4&#45;&gt;Node6</title>
<path fill="none" stroke="midnightblue" d="M349.573,-348.497C384.899,-338.877 437.338,-324.598 475.491,-314.209"/>
<polygon fill="midnightblue" stroke="midnightblue" points="476.626,-317.528 485.355,-311.523 474.787,-310.773 476.626,-317.528"/>
</g>
<!-- Node6&#45;&gt;Node2 -->
<g id="edge16" class="edge"><title>Node6&#45;&gt;Node2</title>
<path fill="none" stroke="midnightblue" d="M479.827,-295.637C386.55,-283.078 178,-247.959 178,-185 178,-185 178,-185 178,-127 178,-76.7237 232.646,-43.2398 271.882,-25.6778"/>
<polygon fill="midnightblue" stroke="midnightblue" points="273.675,-28.717 281.483,-21.5554 270.913,-22.2849 273.675,-28.717"/>
</g>
<!-- Node7 -->
<g id="node16" class="node"><title>Node7</title>
<polygon fill="white" stroke="#bfbfbf" points="205.5,-174.5 205.5,-195.5 248.5,-195.5 248.5,-174.5 205.5,-174.5"/>
<text text-anchor="middle" x="227" y="-182.5" font-family="Helvetica,sans-Serif" font-size="10.00">sptr.h</text>
</g>
<!-- Node6&#45;&gt;Node7 -->
<g id="edge18" class="edge"><title>Node6&#45;&gt;Node7</title>
<path fill="none" stroke="midnightblue" d="M496.856,-290.398C441.626,-268.827 316.474,-219.946 258.084,-197.141"/>
<polygon fill="midnightblue" stroke="midnightblue" points="259.236,-193.833 248.647,-193.455 256.689,-200.353 259.236,-193.833"/>
</g>
<!-- Node8 -->
<g id="node18" class="node"><title>Node8</title>
<a xlink:href="WindowedWebApp_8h.htm" target="_top" xlink:title="WindowedWebApp.h">
<polygon fill="white" stroke="black" points="425,-232.5 425,-253.5 539,-253.5 539,-232.5 425,-232.5"/>
<text text-anchor="middle" x="482" y="-240.5" font-family="Helvetica,sans-Serif" font-size="10.00">WindowedWebApp.h</text>
</a>
</g>
<!-- Node6&#45;&gt;Node8 -->
<g id="edge20" class="edge"><title>Node6&#45;&gt;Node8</title>
<path fill="none" stroke="midnightblue" d="M516.297,-290.362C510.554,-282.431 502.557,-271.389 495.73,-261.961"/>
<polygon fill="midnightblue" stroke="midnightblue" points="498.355,-259.617 489.655,-253.571 492.685,-263.723 498.355,-259.617"/>
</g>
<!-- Node21 -->
<g id="node48" class="node"><title>Node21</title>
<polygon fill="white" stroke="#bfbfbf" points="790,-174.5 790,-195.5 882,-195.5 882,-174.5 790,-174.5"/>
<text text-anchor="middle" x="836" y="-182.5" font-family="Helvetica,sans-Serif" font-size="10.00">WindowTypes.h</text>
</g>
<!-- Node6&#45;&gt;Node21 -->
<g id="edge62" class="edge"><title>Node6&#45;&gt;Node21</title>
<path fill="none" stroke="midnightblue" d="M530.298,-290.372C540.106,-274.841 560.569,-246.247 586,-232 660.109,-190.481 692.114,-211.016 779.706,-196.122"/>
<polygon fill="midnightblue" stroke="midnightblue" points="780.581,-199.52 789.796,-194.292 779.332,-192.633 780.581,-199.52"/>
</g>
<!-- Node24 -->
<g id="node56" class="node"><title>Node24</title>
<polygon fill="white" stroke="#bfbfbf" points="594.5,-232.5 594.5,-253.5 677.5,-253.5 677.5,-232.5 594.5,-232.5"/>
<text text-anchor="middle" x="636" y="-240.5" font-family="Helvetica,sans-Serif" font-size="10.00">SysMgrDefs.h</text>
</g>
<!-- Node6&#45;&gt;Node24 -->
<g id="edge64" class="edge"><title>Node6&#45;&gt;Node24</title>
<path fill="none" stroke="midnightblue" d="M544.282,-290.497C561.618,-281.519 586.79,-268.484 606.38,-258.339"/>
<polygon fill="midnightblue" stroke="midnightblue" points="608.22,-261.328 615.49,-253.621 605.001,-255.112 608.22,-261.328"/>
</g>
<!-- Node25 -->
<g id="node58" class="node"><title>Node25</title>
<polygon fill="white" stroke="#bfbfbf" points="695,-232.5 695,-253.5 783,-253.5 783,-232.5 695,-232.5"/>
<text text-anchor="middle" x="739" y="-240.5" font-family="Helvetica,sans-Serif" font-size="10.00">QGraphicsItem</text>
</g>
<!-- Node6&#45;&gt;Node25 -->
<g id="edge66" class="edge"><title>Node6&#45;&gt;Node25</title>
<path fill="none" stroke="midnightblue" d="M562.935,-290.497C598.593,-280.877 651.524,-266.598 690.036,-256.209"/>
<polygon fill="midnightblue" stroke="midnightblue" points="691.249,-259.507 699.992,-253.523 689.426,-252.748 691.249,-259.507"/>
</g>
<!-- Node26 -->
<g id="node60" class="node"><title>Node26</title>
<polygon fill="white" stroke="#bfbfbf" points="801,-232.5 801,-253.5 891,-253.5 891,-232.5 801,-232.5"/>
<text text-anchor="middle" x="846" y="-240.5" font-family="Helvetica,sans-Serif" font-size="10.00">QGraphicsView</text>
</g>
<!-- Node6&#45;&gt;Node26 -->
<g id="edge68" class="edge"><title>Node6&#45;&gt;Node26</title>
<path fill="none" stroke="midnightblue" d="M568.171,-293.634C619.324,-285.02 706.382,-270.099 790.911,-254.172"/>
<polygon fill="midnightblue" stroke="midnightblue" points="791.762,-257.573 800.937,-252.275 790.461,-250.695 791.762,-257.573"/>
</g>
<!-- Node8&#45;&gt;Node2 -->
<g id="edge22" class="edge"><title>Node8&#45;&gt;Node2</title>
<path fill="none" stroke="midnightblue" d="M424.62,-236.311C375.721,-229.29 310.901,-216.393 295,-196 256.948,-147.201 284.956,-67.5707 301.351,-30.7811"/>
<polygon fill="midnightblue" stroke="midnightblue" points="304.576,-32.1467 305.603,-21.6017 298.224,-29.2044 304.576,-32.1467"/>
</g>
<!-- Node8&#45;&gt;Node5 -->
<g id="edge60" class="edge"><title>Node8&#45;&gt;Node5</title>
<path fill="none" stroke="midnightblue" d="M424.963,-233.681C350.265,-221.477 221.676,-200.468 160.814,-190.525"/>
<polygon fill="midnightblue" stroke="midnightblue" points="161.044,-187.016 150.611,-188.857 159.915,-193.924 161.044,-187.016"/>
</g>
<!-- Node8&#45;&gt;Node7 -->
<g id="edge46" class="edge"><title>Node8&#45;&gt;Node7</title>
<path fill="none" stroke="midnightblue" d="M425.593,-232.467C380.944,-223.766 317.142,-210.521 262,-196 260.922,-195.716 259.828,-195.42 258.725,-195.114"/>
<polygon fill="midnightblue" stroke="midnightblue" points="259.333,-191.645 248.752,-192.184 257.36,-198.361 259.333,-191.645"/>
</g>
<!-- Node9 -->
<g id="node21" class="node"><title>Node9</title>
<polygon fill="white" stroke="#bfbfbf" points="545.5,-174.5 545.5,-195.5 574.5,-195.5 574.5,-174.5 545.5,-174.5"/>
<text text-anchor="middle" x="560" y="-182.5" font-family="Helvetica,sans-Serif" font-size="10.00">list</text>
</g>
<!-- Node8&#45;&gt;Node9 -->
<g id="edge24" class="edge"><title>Node8&#45;&gt;Node9</title>
<path fill="none" stroke="midnightblue" d="M496.306,-232.362C507.851,-223.777 524.3,-211.546 537.59,-201.664"/>
<polygon fill="midnightblue" stroke="midnightblue" points="539.848,-204.346 545.784,-195.571 535.671,-198.729 539.848,-204.346"/>
</g>
<!-- Node10 -->
<g id="node23" class="node"><title>Node10</title>
<polygon fill="white" stroke="#bfbfbf" points="303.5,-174.5 303.5,-195.5 384.5,-195.5 384.5,-174.5 303.5,-174.5"/>
<text text-anchor="middle" x="344" y="-182.5" font-family="Helvetica,sans-Serif" font-size="10.00">AsyncCaller.h</text>
</g>
<!-- Node8&#45;&gt;Node10 -->
<g id="edge26" class="edge"><title>Node8&#45;&gt;Node10</title>
<path fill="none" stroke="midnightblue" d="M457.009,-232.497C435.067,-223.275 402.934,-209.769 378.536,-199.515"/>
<polygon fill="midnightblue" stroke="midnightblue" points="379.846,-196.269 369.271,-195.621 377.134,-202.722 379.846,-196.269"/>
</g>
<!-- Node11 -->
<g id="node25" class="node"><title>Node11</title>
<a xlink:href="WebAppBase_8h.htm" target="_top" xlink:title="WebAppBase.h">
<polygon fill="white" stroke="black" points="401.5,-174.5 401.5,-195.5 490.5,-195.5 490.5,-174.5 401.5,-174.5"/>
<text text-anchor="middle" x="446" y="-182.5" font-family="Helvetica,sans-Serif" font-size="10.00">WebAppBase.h</text>
</a>
</g>
<!-- Node8&#45;&gt;Node11 -->
<g id="edge28" class="edge"><title>Node8&#45;&gt;Node11</title>
<path fill="none" stroke="midnightblue" d="M475.397,-232.362C470.525,-224.513 463.762,-213.616 457.95,-204.253"/>
<polygon fill="midnightblue" stroke="midnightblue" points="460.809,-202.221 452.561,-195.571 454.861,-205.913 460.809,-202.221"/>
</g>
<!-- Node18 -->
<g id="node42" class="node"><title>Node18</title>
<polygon fill="white" stroke="#bfbfbf" points="592,-174.5 592,-195.5 644,-195.5 644,-174.5 592,-174.5"/>
<text text-anchor="middle" x="618" y="-182.5" font-family="Helvetica,sans-Serif" font-size="10.00">Event.h</text>
</g>
<!-- Node8&#45;&gt;Node18 -->
<g id="edge48" class="edge"><title>Node8&#45;&gt;Node18</title>
<path fill="none" stroke="midnightblue" d="M506.629,-232.497C528.157,-223.315 559.64,-209.889 583.645,-199.652"/>
<polygon fill="midnightblue" stroke="midnightblue" points="585.27,-202.764 593.095,-195.621 582.524,-196.325 585.27,-202.764"/>
</g>
<!-- Node19 -->
<g id="node44" class="node"><title>Node19</title>
<polygon fill="white" stroke="#bfbfbf" points="1178,-116.5 1178,-137.5 1230,-137.5 1230,-116.5 1178,-116.5"/>
<text text-anchor="middle" x="1204" y="-124.5" font-family="Helvetica,sans-Serif" font-size="10.00">Timer.h</text>
</g>
<!-- Node8&#45;&gt;Node19 -->
<g id="edge50" class="edge"><title>Node8&#45;&gt;Node19</title>
<path fill="none" stroke="midnightblue" d="M486.944,-232.289C494.935,-216.376 512.323,-186.976 537,-174 592.903,-144.605 1035.81,-131.221 1167.31,-127.87"/>
<polygon fill="midnightblue" stroke="midnightblue" points="1167.74,-131.36 1177.65,-127.611 1167.56,-124.363 1167.74,-131.36"/>
</g>
<!-- Node20 -->
<g id="node46" class="node"><title>Node20</title>
<polygon fill="white" stroke="#bfbfbf" points="661.5,-174.5 661.5,-195.5 772.5,-195.5 772.5,-174.5 661.5,-174.5"/>
<text text-anchor="middle" x="717" y="-182.5" font-family="Helvetica,sans-Serif" font-size="10.00">WindowProperties.h</text>
</g>
<!-- Node8&#45;&gt;Node20 -->
<g id="edge52" class="edge"><title>Node8&#45;&gt;Node20</title>
<path fill="none" stroke="midnightblue" d="M524.557,-232.497C563.863,-222.795 622.373,-208.355 664.552,-197.945"/>
<polygon fill="midnightblue" stroke="midnightblue" points="665.493,-201.317 674.363,-195.523 663.816,-194.521 665.493,-201.317"/>
</g>
<!-- Node8&#45;&gt;Node21 -->
<g id="edge54" class="edge"><title>Node8&#45;&gt;Node21</title>
<path fill="none" stroke="midnightblue" d="M539.255,-234.131C612.787,-222.723 735.413,-203.629 779.861,-196.107"/>
<polygon fill="midnightblue" stroke="midnightblue" points="780.558,-199.539 789.813,-194.382 779.362,-192.642 780.558,-199.539"/>
</g>
<!-- Node22 -->
<g id="node50" class="node"><title>Node22</title>
<polygon fill="white" stroke="#bfbfbf" points="900,-174.5 900,-195.5 1024,-195.5 1024,-174.5 900,-174.5"/>
<text text-anchor="middle" x="962" y="-182.5" font-family="Helvetica,sans-Serif" font-size="10.00">PIpcChannelListener.h</text>
</g>
<!-- Node8&#45;&gt;Node22 -->
<g id="edge56" class="edge"><title>Node8&#45;&gt;Node22</title>
<path fill="none" stroke="midnightblue" d="M539.149,-236.714C630.931,-226.573 808.316,-206.777 889.364,-196.168"/>
<polygon fill="midnightblue" stroke="midnightblue" points="890.23,-199.584 899.682,-194.797 889.308,-192.645 890.23,-199.584"/>
</g>
<!-- Node8&#45;&gt;Node23 -->
<g id="edge58" class="edge"><title>Node8&#45;&gt;Node23</title>
<path fill="none" stroke="midnightblue" d="M539.191,-236.691C554.397,-235.085 570.814,-233.414 586,-232 781.156,-213.823 834.401,-226.822 1031.82,-195.981"/>
<polygon fill="midnightblue" stroke="midnightblue" points="1032.61,-199.399 1041.94,-194.381 1031.52,-192.485 1032.61,-199.399"/>
</g>
<!-- Node12 -->
<g id="node27" class="node"><title>Node12</title>
<a xlink:href="SysMgrWebBridge_8h.htm" target="_top" xlink:title="SysMgrWebBridge.h">
<polygon fill="white" stroke="red" points="310.5,-116.5 310.5,-137.5 423.5,-137.5 423.5,-116.5 310.5,-116.5"/>
<text text-anchor="middle" x="367" y="-124.5" font-family="Helvetica,sans-Serif" font-size="10.00">SysMgrWebBridge.h</text>
</a>
</g>
<!-- Node11&#45;&gt;Node12 -->
<g id="edge30" class="edge"><title>Node11&#45;&gt;Node12</title>
<path fill="none" stroke="midnightblue" d="M431.51,-174.362C419.817,-165.777 403.157,-153.546 389.697,-143.664"/>
<polygon fill="midnightblue" stroke="midnightblue" points="391.53,-140.667 381.398,-137.571 387.387,-146.31 391.53,-140.667"/>
</g>
<!-- Node15 -->
<g id="node34" class="node"><title>Node15</title>
<polygon fill="white" stroke="#bfbfbf" points="408,-58.5 408,-79.5 506,-79.5 506,-58.5 408,-58.5"/>
<text text-anchor="middle" x="457" y="-66.5" font-family="Helvetica,sans-Serif" font-size="10.00">palmimedefines.h</text>
</g>
<!-- Node11&#45;&gt;Node15 -->
<g id="edge44" class="edge"><title>Node11&#45;&gt;Node15</title>
<path fill="none" stroke="midnightblue" d="M447.015,-174.295C448.832,-155.131 452.671,-114.654 455.023,-89.8434"/>
<polygon fill="midnightblue" stroke="midnightblue" points="458.528,-89.965 455.987,-79.6792 451.559,-89.3041 458.528,-89.965"/>
</g>
<!-- Node16 -->
<g id="node36" class="node"><title>Node16</title>
<polygon fill="white" stroke="#bfbfbf" points="478.5,-116.5 478.5,-137.5 533.5,-137.5 533.5,-116.5 478.5,-116.5"/>
<text text-anchor="middle" x="506" y="-124.5" font-family="Helvetica,sans-Serif" font-size="10.00">QObject</text>
</g>
<!-- Node11&#45;&gt;Node16 -->
<g id="edge40" class="edge"><title>Node11&#45;&gt;Node16</title>
<path fill="none" stroke="midnightblue" d="M457.005,-174.362C465.547,-166.104 477.58,-154.472 487.583,-144.803"/>
<polygon fill="midnightblue" stroke="midnightblue" points="490.308,-147.037 495.065,-137.571 485.442,-142.004 490.308,-147.037"/>
</g>
<!-- Node17 -->
<g id="node38" class="node"><title>Node17</title>
<polygon fill="white" stroke="#bfbfbf" points="795,-116.5 795,-137.5 873,-137.5 873,-116.5 795,-116.5"/>
<text text-anchor="middle" x="834" y="-124.5" font-family="Helvetica,sans-Serif" font-size="10.00">lunaservice.h</text>
</g>
<!-- Node11&#45;&gt;Node17 -->
<g id="edge42" class="edge"><title>Node11&#45;&gt;Node17</title>
<path fill="none" stroke="midnightblue" d="M490.611,-176.325C495.129,-175.511 499.652,-174.721 504,-174 603.234,-157.532 719.851,-141.759 784.494,-133.329"/>
<polygon fill="midnightblue" stroke="midnightblue" points="785.33,-136.75 794.795,-131.991 784.428,-129.808 785.33,-136.75"/>
</g>
<!-- Node13 -->
<g id="node29" class="node"><title>Node13</title>
<a xlink:href="ProcessBase_8h.htm" target="_top" xlink:title="ProcessBase.h">
<polygon fill="white" stroke="black" points="303.5,-58.5 303.5,-79.5 390.5,-79.5 390.5,-58.5 303.5,-58.5"/>
<text text-anchor="middle" x="347" y="-66.5" font-family="Helvetica,sans-Serif" font-size="10.00">ProcessBase.h</text>
</a>
</g>
<!-- Node12&#45;&gt;Node13 -->
<g id="edge32" class="edge"><title>Node12&#45;&gt;Node13</title>
<path fill="none" stroke="midnightblue" d="M363.332,-116.362C360.71,-108.758 357.101,-98.294 353.943,-89.1349"/>
<polygon fill="midnightblue" stroke="midnightblue" points="357.214,-87.8834 350.645,-79.5707 350.596,-90.1654 357.214,-87.8834"/>
</g>
<!-- Node12&#45;&gt;Node15 -->
<g id="edge38" class="edge"><title>Node12&#45;&gt;Node15</title>
<path fill="none" stroke="midnightblue" d="M383.507,-116.362C397.082,-107.614 416.533,-95.0786 432.015,-85.1015"/>
<polygon fill="midnightblue" stroke="midnightblue" points="434.088,-87.9297 440.597,-79.5707 430.296,-82.0457 434.088,-87.9297"/>
</g>
<!-- Node13&#45;&gt;Node2 -->
<g id="edge34" class="edge"><title>Node13&#45;&gt;Node2</title>
<path fill="none" stroke="midnightblue" d="M340.397,-58.3619C335.525,-50.5131 328.762,-39.6159 322.95,-30.2527"/>
<polygon fill="midnightblue" stroke="midnightblue" points="325.809,-28.2213 317.561,-21.5707 319.861,-31.9129 325.809,-28.2213"/>
</g>
<!-- Node14 -->
<g id="node32" class="node"><title>Node14</title>
<polygon fill="white" stroke="#bfbfbf" points="813.5,-0.5 813.5,-21.5 866.5,-21.5 866.5,-0.5 813.5,-0.5"/>
<text text-anchor="middle" x="840" y="-8.5" font-family="Helvetica,sans-Serif" font-size="10.00">QString</text>
</g>
<!-- Node13&#45;&gt;Node14 -->
<g id="edge36" class="edge"><title>Node13&#45;&gt;Node14</title>
<path fill="none" stroke="midnightblue" d="M390.633,-59.4318C393.459,-58.9168 396.266,-58.4337 399,-58 548.071,-34.3527 727.427,-19.3619 803.278,-13.6362"/>
<polygon fill="midnightblue" stroke="midnightblue" points="803.568,-17.1243 813.28,-12.8898 803.047,-10.1437 803.568,-17.1243"/>
</g>
<!-- Node28&#45;&gt;Node2 -->
<g id="edge74" class="edge"><title>Node28&#45;&gt;Node2</title>
<path fill="none" stroke="midnightblue" d="M1262.65,-232.418C1241.35,-217.209 1199.59,-189.32 1160,-174 865.93,-60.1902 482.721,-23.4003 354.742,-13.8655"/>
<polygon fill="midnightblue" stroke="midnightblue" points="354.789,-10.3598 344.561,-13.1249 354.281,-17.3413 354.789,-10.3598"/>
</g>
<!-- Node28&#45;&gt;Node9 -->
<g id="edge78" class="edge"><title>Node28&#45;&gt;Node9</title>
<path fill="none" stroke="midnightblue" d="M1223.49,-241.978C1086.01,-238.948 722.167,-228.273 584.673,-195.564"/>
<polygon fill="midnightblue" stroke="midnightblue" points="585.335,-192.122 574.783,-193.067 583.622,-198.909 585.335,-192.122"/>
</g>
<!-- Node28&#45;&gt;Node14 -->
<g id="edge82" class="edge"><title>Node28&#45;&gt;Node14</title>
<path fill="none" stroke="midnightblue" d="M1276,-232.182C1273.42,-208.995 1264.79,-153.567 1239,-116 1215.15,-81.2609 1202.79,-74.4544 1164,-58 1112.76,-36.2637 950.26,-20.2754 876.75,-13.9635"/>
<polygon fill="midnightblue" stroke="midnightblue" points="876.833,-10.4581 866.573,-13.1029 876.243,-17.4332 876.833,-10.4581"/>
</g>
<!-- Node28&#45;&gt;Node17 -->
<g id="edge120" class="edge"><title>Node28&#45;&gt;Node17</title>
<path fill="none" stroke="midnightblue" d="M1251.24,-232.455C1229.02,-223.225 1196.15,-209.254 1168,-196 1148.58,-186.856 1145.4,-180.682 1125,-174 1042.65,-147.027 941.92,-135.173 883.158,-130.239"/>
<polygon fill="midnightblue" stroke="midnightblue" points="883.289,-126.738 873.04,-129.423 882.727,-133.715 883.289,-126.738"/>
</g>
<!-- Node28&#45;&gt;Node18 -->
<g id="edge92" class="edge"><title>Node28&#45;&gt;Node18</title>
<path fill="none" stroke="midnightblue" d="M1223.21,-240.536C1096.21,-234.468 779.638,-217.829 654.315,-195.815"/>
<polygon fill="midnightblue" stroke="midnightblue" points="654.677,-192.323 644.207,-193.946 653.404,-199.206 654.677,-192.323"/>
</g>
<!-- Node28&#45;&gt;Node19 -->
<g id="edge108" class="edge"><title>Node28&#45;&gt;Node19</title>
<path fill="none" stroke="midnightblue" d="M1269.13,-232.354C1262.27,-222.944 1252.16,-208.769 1244,-196 1233.58,-179.696 1222.61,-160.63 1214.81,-146.677"/>
<polygon fill="midnightblue" stroke="midnightblue" points="1217.86,-144.974 1209.95,-137.93 1211.74,-148.372 1217.86,-144.974"/>
</g>
<!-- Node28&#45;&gt;Node20 -->
<g id="edge112" class="edge"><title>Node28&#45;&gt;Node20</title>
<path fill="none" stroke="midnightblue" d="M1223.27,-239.249C1133.96,-232.721 949.117,-217.966 783.205,-196.223"/>
<polygon fill="midnightblue" stroke="midnightblue" points="783.182,-192.69 772.81,-194.848 782.264,-199.629 783.182,-192.69"/>
</g>
<!-- Node28&#45;&gt;Node21 -->
<g id="edge110" class="edge"><title>Node28&#45;&gt;Node21</title>
<path fill="none" stroke="midnightblue" d="M1223.43,-237.782C1150.7,-230.408 1016.46,-215.777 892.236,-196.108"/>
<polygon fill="midnightblue" stroke="midnightblue" points="892.594,-192.621 882.167,-194.499 891.49,-199.533 892.594,-192.621"/>
</g>
<!-- Node28&#45;&gt;Node22 -->
<g id="edge126" class="edge"><title>Node28&#45;&gt;Node22</title>
<path fill="none" stroke="midnightblue" d="M1223.21,-233.095C1169.58,-223.222 1087.08,-208.031 1029.18,-197.37"/>
<polygon fill="midnightblue" stroke="midnightblue" points="1029.5,-193.87 1019.03,-195.501 1028.23,-200.754 1029.5,-193.87"/>
</g>
<!-- Node28&#45;&gt;Node23 -->
<g id="edge122" class="edge"><title>Node28&#45;&gt;Node23</title>
<path fill="none" stroke="midnightblue" d="M1241.14,-232.497C1208.45,-222.918 1159.97,-208.72 1124.55,-198.342"/>
<polygon fill="midnightblue" stroke="midnightblue" points="1125.5,-194.975 1114.92,-195.523 1123.54,-201.693 1125.5,-194.975"/>
</g>
<!-- Node29 -->
<g id="node67" class="node"><title>Node29</title>
<polygon fill="white" stroke="#bfbfbf" points="1300.5,-116.5 1300.5,-137.5 1337.5,-137.5 1337.5,-116.5 1300.5,-116.5"/>
<text text-anchor="middle" x="1319" y="-124.5" font-family="Helvetica,sans-Serif" font-size="10.00">map</text>
</g>
<!-- Node28&#45;&gt;Node29 -->
<g id="edge76" class="edge"><title>Node28&#45;&gt;Node29</title>
<path fill="none" stroke="midnightblue" d="M1280.88,-232.295C1287.88,-212.959 1302.73,-171.923 1311.69,-147.177"/>
<polygon fill="midnightblue" stroke="midnightblue" points="1315.02,-148.273 1315.13,-137.679 1308.44,-145.89 1315.02,-148.273"/>
</g>
<!-- Node30 -->
<g id="node70" class="node"><title>Node30</title>
<polygon fill="white" stroke="#bfbfbf" points="1323.5,-174.5 1323.5,-195.5 1366.5,-195.5 1366.5,-174.5 1323.5,-174.5"/>
<text text-anchor="middle" x="1345" y="-182.5" font-family="Helvetica,sans-Serif" font-size="10.00">string</text>
</g>
<!-- Node28&#45;&gt;Node30 -->
<g id="edge80" class="edge"><title>Node28&#45;&gt;Node30</title>
<path fill="none" stroke="midnightblue" d="M1289.47,-232.362C1299.35,-223.941 1313.33,-212.011 1324.8,-202.231"/>
<polygon fill="midnightblue" stroke="midnightblue" points="1327.27,-204.723 1332.61,-195.571 1322.73,-199.397 1327.27,-204.723"/>
</g>
<!-- Node31 -->
<g id="node73" class="node"><title>Node31</title>
<polygon fill="white" stroke="#bfbfbf" points="1383.5,-174.5 1383.5,-195.5 1460.5,-195.5 1460.5,-174.5 1383.5,-174.5"/>
<text text-anchor="middle" x="1422" y="-182.5" font-family="Helvetica,sans-Serif" font-size="10.00">QApplication</text>
</g>
<!-- Node28&#45;&gt;Node31 -->
<g id="edge84" class="edge"><title>Node28&#45;&gt;Node31</title>
<path fill="none" stroke="midnightblue" d="M1303.26,-232.497C1326.42,-223.234 1360.38,-209.65 1386.05,-199.379"/>
<polygon fill="midnightblue" stroke="midnightblue" points="1387.46,-202.585 1395.45,-195.621 1384.86,-196.086 1387.46,-202.585"/>
</g>
<!-- Node32 -->
<g id="node75" class="node"><title>Node32</title>
<a xlink:href="SyncTask_8h.htm" target="_top" xlink:title="SyncTask.h">
<polygon fill="white" stroke="black" points="1477.5,-174.5 1477.5,-195.5 1548.5,-195.5 1548.5,-174.5 1477.5,-174.5"/>
<text text-anchor="middle" x="1513" y="-182.5" font-family="Helvetica,sans-Serif" font-size="10.00">SyncTask.h</text>
</a>
</g>
<!-- Node28&#45;&gt;Node32 -->
<g id="edge86" class="edge"><title>Node28&#45;&gt;Node32</title>
<path fill="none" stroke="midnightblue" d="M1320.48,-232.421C1357.28,-223.454 1411.68,-210.162 1467.72,-196.309"/>
<polygon fill="midnightblue" stroke="midnightblue" points="1468.6,-199.699 1477.46,-193.9 1466.91,-192.904 1468.6,-199.699"/>
</g>
<!-- Node34 -->
<g id="node81" class="node"><title>Node34</title>
<a xlink:href="MemoryWatcher_8h.htm" target="_top" xlink:title="MemoryWatcher.h">
<polygon fill="white" stroke="black" points="1565.5,-174.5 1565.5,-195.5 1668.5,-195.5 1668.5,-174.5 1565.5,-174.5"/>
<text text-anchor="middle" x="1617" y="-182.5" font-family="Helvetica,sans-Serif" font-size="10.00">MemoryWatcher.h</text>
</a>
</g>
<!-- Node28&#45;&gt;Node34 -->
<g id="edge94" class="edge"><title>Node28&#45;&gt;Node34</title>
<path fill="none" stroke="midnightblue" d="M1330.72,-234.229C1384.97,-225.315 1471.45,-210.955 1555.35,-196.275"/>
<polygon fill="midnightblue" stroke="midnightblue" points="1556.05,-199.704 1565.3,-194.53 1554.84,-192.809 1556.05,-199.704"/>
</g>
<!-- Node36 -->
<g id="node87" class="node"><title>Node36</title>
<polygon fill="white" stroke="#bfbfbf" points="1566,-116.5 1566,-137.5 1638,-137.5 1638,-116.5 1566,-116.5"/>
<text text-anchor="middle" x="1602" y="-124.5" font-family="Helvetica,sans-Serif" font-size="10.00">SignalSlot.h</text>
</g>
<!-- Node28&#45;&gt;Node36 -->
<g id="edge106" class="edge"><title>Node28&#45;&gt;Node36</title>
<path fill="none" stroke="midnightblue" d="M1330.85,-240.585C1434.68,-235.373 1654.38,-221.438 1677,-196 1694.96,-175.807 1664.79,-155.149 1637.53,-141.767"/>
<polygon fill="midnightblue" stroke="midnightblue" points="1639.01,-138.596 1628.47,-137.52 1636.04,-144.934 1639.01,-138.596"/>
</g>
<!-- Node37 -->
<g id="node94" class="node"><title>Node37</title>
<a xlink:href="WebAppCache_8h.htm" target="_top" xlink:title="WebAppCache.h">
<polygon fill="white" stroke="black" points="1625.5,-58.5 1625.5,-79.5 1720.5,-79.5 1720.5,-58.5 1625.5,-58.5"/>
<text text-anchor="middle" x="1673" y="-66.5" font-family="Helvetica,sans-Serif" font-size="10.00">WebAppCache.h</text>
</a>
</g>
<!-- Node28&#45;&gt;Node37 -->
<g id="edge114" class="edge"><title>Node28&#45;&gt;Node37</title>
<path fill="none" stroke="midnightblue" d="M1330.61,-240.041C1436.55,-233.75 1664.91,-217.818 1693,-196 1722.12,-173.38 1728.15,-150.451 1715,-116 1710.79,-104.959 1702.65,-94.8684 1694.66,-86.8919"/>
<polygon fill="midnightblue" stroke="midnightblue" points="1696.57,-83.8937 1686.86,-79.6631 1691.81,-89.0277 1696.57,-83.8937"/>
</g>
<!-- Node38 -->
<g id="node97" class="node"><title>Node38</title>
<polygon fill="white" stroke="#bfbfbf" points="1761.5,-174.5 1761.5,-195.5 1832.5,-195.5 1832.5,-174.5 1761.5,-174.5"/>
<text text-anchor="middle" x="1797" y="-182.5" font-family="Helvetica,sans-Serif" font-size="10.00">HostBase.h</text>
</g>
<!-- Node28&#45;&gt;Node38 -->
<g id="edge118" class="edge"><title>Node28&#45;&gt;Node38</title>
<path fill="none" stroke="midnightblue" d="M1330.6,-239.777C1418.3,-234.029 1597.72,-220.275 1748,-196 1749.08,-195.826 1750.16,-195.643 1751.26,-195.452"/>
<polygon fill="midnightblue" stroke="midnightblue" points="1752.07,-198.861 1761.24,-193.555 1750.76,-191.985 1752.07,-198.861"/>
</g>
<!-- Node39 -->
<g id="node101" class="node"><title>Node39</title>
<polygon fill="white" stroke="#bfbfbf" points="1849.5,-174.5 1849.5,-195.5 1922.5,-195.5 1922.5,-174.5 1849.5,-174.5"/>
<text text-anchor="middle" x="1886" y="-182.5" font-family="Helvetica,sans-Serif" font-size="10.00">PIpcClient.h</text>
</g>
<!-- Node28&#45;&gt;Node39 -->
<g id="edge124" class="edge"><title>Node28&#45;&gt;Node39</title>
<path fill="none" stroke="midnightblue" d="M1330.61,-241.327C1429.51,-237.634 1647.43,-226.668 1839.28,-196.091"/>
<polygon fill="midnightblue" stroke="midnightblue" points="1839.95,-199.528 1849.26,-194.478 1838.83,-192.618 1839.95,-199.528"/>
</g>
<!-- Node40 -->
<g id="node104" class="node"><title>Node40</title>
<polygon fill="white" stroke="#bfbfbf" points="1939.5,-174.5 1939.5,-195.5 2028.5,-195.5 2028.5,-174.5 1939.5,-174.5"/>
<text text-anchor="middle" x="1984" y="-182.5" font-family="Helvetica,sans-Serif" font-size="10.00">PIpcMessage.h</text>
</g>
<!-- Node28&#45;&gt;Node40 -->
<g id="edge128" class="edge"><title>Node28&#45;&gt;Node40</title>
<path fill="none" stroke="midnightblue" d="M1330.66,-241.557C1441.05,-238.066 1701.67,-227.14 1929.13,-196.12"/>
<polygon fill="midnightblue" stroke="midnightblue" points="1929.83,-199.557 1939.25,-194.723 1928.87,-192.623 1929.83,-199.557"/>
</g>
<!-- Node32&#45;&gt;Node2 -->
<g id="edge88" class="edge"><title>Node32&#45;&gt;Node2</title>
<path fill="none" stroke="midnightblue" d="M1491.66,-174.352C1438.17,-148.306 1293.37,-81.7781 1164,-58 1006.41,-29.0347 507.208,-15.483 355.293,-11.9598"/>
<polygon fill="midnightblue" stroke="midnightblue" points="355.042,-8.45323 344.965,-11.7234 354.882,-15.4514 355.042,-8.45323"/>
</g>
<!-- Node33 -->
<g id="node78" class="node"><title>Node33</title>
<polygon fill="white" stroke="#bfbfbf" points="1438,-116.5 1438,-137.5 1510,-137.5 1510,-116.5 1438,-116.5"/>
<text text-anchor="middle" x="1474" y="-124.5" font-family="Helvetica,sans-Serif" font-size="10.00">TaskBase.h</text>
</g>
<!-- Node32&#45;&gt;Node33 -->
<g id="edge90" class="edge"><title>Node32&#45;&gt;Node33</title>
<path fill="none" stroke="midnightblue" d="M1505.85,-174.362C1500.51,-166.431 1493.09,-155.389 1486.75,-145.961"/>
<polygon fill="midnightblue" stroke="midnightblue" points="1489.59,-143.916 1481.11,-137.571 1483.78,-147.822 1489.59,-143.916"/>
</g>
<!-- Node34&#45;&gt;Node2 -->
<g id="edge96" class="edge"><title>Node34&#45;&gt;Node2</title>
<path fill="none" stroke="midnightblue" d="M1603.38,-174.325C1580.94,-156.926 1536.9,-123.622 1519,-116 1394.45,-62.9707 1354.37,-74.424 1220,-58 1049.42,-37.1491 512.531,-17.8018 354.914,-12.4544"/>
<polygon fill="midnightblue" stroke="midnightblue" points="354.772,-8.94766 344.659,-12.1081 354.535,-15.9437 354.772,-8.94766"/>
</g>
<!-- Node34&#45;&gt;Node19 -->
<g id="edge104" class="edge"><title>Node34&#45;&gt;Node19</title>
<path fill="none" stroke="midnightblue" d="M1565.32,-175.359C1562.51,-174.886 1559.72,-174.43 1557,-174 1496.42,-164.419 1317.69,-141.456 1240.35,-131.61"/>
<polygon fill="midnightblue" stroke="midnightblue" points="1240.49,-128.1 1230.13,-130.31 1239.61,-135.044 1240.49,-128.1"/>
</g>
<!-- Node34&#45;&gt;Node29 -->
<g id="edge100" class="edge"><title>Node34&#45;&gt;Node29</title>
<path fill="none" stroke="midnightblue" d="M1565.43,-174.963C1502.29,-162.674 1397.58,-142.294 1347.45,-132.537"/>
<polygon fill="midnightblue" stroke="midnightblue" points="1348.1,-129.099 1337.62,-130.624 1346.76,-135.97 1348.1,-129.099"/>
</g>
<!-- Node34&#45;&gt;Node35 -->
<g id="edge98" class="edge"><title>Node34&#45;&gt;Node35</title>
<path fill="none" stroke="midnightblue" d="M1628.74,-174.362C1637.94,-166.023 1650.94,-154.242 1661.67,-144.516"/>
<polygon fill="midnightblue" stroke="midnightblue" points="1664.28,-146.879 1669.34,-137.571 1659.58,-141.692 1664.28,-146.879"/>
</g>
<!-- Node34&#45;&gt;Node36 -->
<g id="edge102" class="edge"><title>Node34&#45;&gt;Node36</title>
<path fill="none" stroke="midnightblue" d="M1614.25,-174.362C1612.3,-166.84 1609.63,-156.519 1607.28,-147.431"/>
<polygon fill="midnightblue" stroke="midnightblue" points="1610.63,-146.376 1604.73,-137.571 1603.85,-148.128 1610.63,-146.376"/>
</g>
<!-- Node37&#45;&gt;Node2 -->
<g id="edge116" class="edge"><title>Node37&#45;&gt;Node2</title>
<path fill="none" stroke="midnightblue" d="M1625.35,-64.0826C1603.08,-61.9356 1576.21,-59.5577 1552,-58 1084.02,-27.8874 515.431,-15.0162 355.004,-11.826"/>
<polygon fill="midnightblue" stroke="midnightblue" points="354.665,-8.31878 344.598,-11.6214 354.527,-15.3174 354.665,-8.31878"/>
</g>
</g>
</svg>
