<?xml version="1.0" encoding="UTF-8" standalone="no"?>
<!DOCTYPE svg PUBLIC "-//W3C//DTD SVG 1.1//EN"
 "http://www.w3.org/Graphics/SVG/1.1/DTD/svg11.dtd">
<!-- Generated by graphviz version 2.26.3 (20100126.1600)
 -->
<!-- Title: RemoteWindowData.cpp Pages: 1 -->
<svg width="1236pt" height="494pt"
 viewBox="0.00 0.00 1236.14 494.00" xmlns="http://www.w3.org/2000/svg" xmlns:xlink="http://www.w3.org/1999/xlink">
<g id="graph1" class="graph" transform="scale(1 1) rotate(0) translate(4 490)">
<title>RemoteWindowData.cpp</title>
<polygon fill="white" stroke="white" points="-4,5 -4,-490 1233.14,-490 1233.14,5 -4,5"/>
<!-- Node1 -->
<g id="node1" class="node"><title>Node1</title>
<polygon fill="#bfbfbf" stroke="black" points="1045.5,-464.5 1045.5,-485.5 1178.5,-485.5 1178.5,-464.5 1045.5,-464.5"/>
<text text-anchor="middle" x="1112" y="-472.5" font-family="Helvetica,sans-Serif" font-size="10.00">RemoteWindowData.cpp</text>
</g>
<!-- Node2 -->
<g id="node3" class="node"><title>Node2</title>
<polygon fill="white" stroke="#bfbfbf" points="1019.5,-0.5 1019.5,-21.5 1086.5,-21.5 1086.5,-0.5 1019.5,-0.5"/>
<text text-anchor="middle" x="1053" y="-8.5" font-family="Helvetica,sans-Serif" font-size="10.00">Common.h</text>
</g>
<!-- Node1&#45;&gt;Node2 -->
<g id="edge2" class="edge"><title>Node1&#45;&gt;Node2</title>
<path fill="none" stroke="midnightblue" d="M1150.44,-464.45C1170.21,-457.195 1193.2,-445.617 1208,-428 1228.54,-403.555 1228,-390.929 1228,-359 1228,-359 1228,-359 1228,-127 1228,-64.1229 1148.54,-33.3134 1096.71,-19.9044"/>
<polygon fill="midnightblue" stroke="midnightblue" points="1097.29,-16.4427 1086.74,-17.4502 1095.61,-23.2397 1097.29,-16.4427"/>
</g>
<!-- Node3 -->
<g id="node5" class="node"><title>Node3</title>
<a xlink:href="RemoteWindowData_8h.htm" target="_top" xlink:title="RemoteWindowData.h">
<polygon fill="white" stroke="black" points="936,-348.5 936,-369.5 1058,-369.5 1058,-348.5 936,-348.5"/>
<text text-anchor="middle" x="997" y="-356.5" font-family="Helvetica,sans-Serif" font-size="10.00">RemoteWindowData.h</text>
</a>
</g>
<!-- Node1&#45;&gt;Node3 -->
<g id="edge4" class="edge"><title>Node1&#45;&gt;Node3</title>
<path fill="none" stroke="midnightblue" d="M1072.98,-464.353C1053.3,-457.109 1030.57,-445.573 1016,-428 1004.75,-414.431 1000.14,-394.716 998.255,-379.83"/>
<polygon fill="midnightblue" stroke="midnightblue" points="1001.71,-379.197 997.286,-369.571 994.742,-379.856 1001.71,-379.197"/>
</g>
<!-- Node30 -->
<g id="node67" class="node"><title>Node30</title>
<a xlink:href="RemoteWindowDataSoftwareQt_8h.htm" target="_top" xlink:title="RemoteWindowDataSoftwareQt.h">
<polygon fill="white" stroke="black" points="1024.5,-406.5 1024.5,-427.5 1199.5,-427.5 1199.5,-406.5 1024.5,-406.5"/>
<text text-anchor="middle" x="1112" y="-414.5" font-family="Helvetica,sans-Serif" font-size="10.00">RemoteWindowDataSoftwareQt.h</text>
</a>
</g>
<!-- Node1&#45;&gt;Node30 -->
<g id="edge74" class="edge"><title>Node1&#45;&gt;Node30</title>
<path fill="none" stroke="midnightblue" d="M1112,-464.362C1112,-456.922 1112,-446.743 1112,-437.728"/>
<polygon fill="midnightblue" stroke="midnightblue" points="1115.5,-437.571 1112,-427.571 1108.5,-437.571 1115.5,-437.571"/>
</g>
<!-- Node3&#45;&gt;Node2 -->
<g id="edge6" class="edge"><title>Node3&#45;&gt;Node2</title>
<path fill="none" stroke="midnightblue" d="M1010.06,-348.338C1031.55,-329.511 1072,-288.085 1072,-243 1072,-243 1072,-243 1072,-127 1072,-93.175 1064.04,-54.5229 1058.42,-31.474"/>
<polygon fill="midnightblue" stroke="midnightblue" points="1061.81,-30.6159 1055.97,-21.7784 1055.03,-32.3312 1061.81,-30.6159"/>
</g>
<!-- Node4 -->
<g id="node8" class="node"><title>Node4</title>
<polygon fill="white" stroke="#bfbfbf" points="-0.5,-174.5 -0.5,-195.5 46.5,-195.5 46.5,-174.5 -0.5,-174.5"/>
<text text-anchor="middle" x="23" y="-182.5" font-family="Helvetica,sans-Serif" font-size="10.00">QRect</text>
</g>
<!-- Node3&#45;&gt;Node4 -->
<g id="edge8" class="edge"><title>Node3&#45;&gt;Node4</title>
<path fill="none" stroke="midnightblue" d="M935.937,-350.898C785.77,-330.43 386.917,-272.754 60,-196 58.9235,-195.747 57.8321,-195.481 56.7322,-195.205"/>
<polygon fill="midnightblue" stroke="midnightblue" points="57.3415,-191.744 46.7746,-192.513 55.5145,-198.502 57.3415,-191.744"/>
</g>
<!-- Node5 -->
<g id="node10" class="node"><title>Node5</title>
<a xlink:href="CardWebApp_8h.htm" target="_top" xlink:title="CardWebApp.h">
<polygon fill="white" stroke="black" points="758,-290.5 758,-311.5 846,-311.5 846,-290.5 758,-290.5"/>
<text text-anchor="middle" x="802" y="-298.5" font-family="Helvetica,sans-Serif" font-size="10.00">CardWebApp.h</text>
</a>
</g>
<!-- Node3&#45;&gt;Node5 -->
<g id="edge10" class="edge"><title>Node3&#45;&gt;Node5</title>
<path fill="none" stroke="midnightblue" d="M961.687,-348.497C929.621,-338.959 882.155,-324.841 847.304,-314.475"/>
<polygon fill="midnightblue" stroke="midnightblue" points="847.962,-311.019 837.379,-311.523 845.966,-317.729 847.962,-311.019"/>
</g>
<!-- Node5&#45;&gt;Node2 -->
<g id="edge12" class="edge"><title>Node5&#45;&gt;Node2</title>
<path fill="none" stroke="midnightblue" d="M846.208,-296.606C901.296,-290.248 991.111,-276.688 1015,-254 1038.06,-232.095 1034,-216.808 1034,-185 1034,-185 1034,-185 1034,-127 1034,-93.175 1041.96,-54.5229 1047.58,-31.474"/>
<polygon fill="midnightblue" stroke="midnightblue" points="1050.97,-32.3312 1050.03,-21.7784 1044.19,-30.6159 1050.97,-32.3312"/>
</g>
<!-- Node6 -->
<g id="node13" class="node"><title>Node6</title>
<polygon fill="white" stroke="#bfbfbf" points="853.5,-174.5 853.5,-195.5 896.5,-195.5 896.5,-174.5 853.5,-174.5"/>
<text text-anchor="middle" x="875" y="-182.5" font-family="Helvetica,sans-Serif" font-size="10.00">sptr.h</text>
</g>
<!-- Node5&#45;&gt;Node6 -->
<g id="edge14" class="edge"><title>Node5&#45;&gt;Node6</title>
<path fill="none" stroke="midnightblue" d="M757.696,-294.612C708.583,-285.684 639.771,-266.548 668,-232 716.81,-172.264 763.934,-214.295 843.617,-195.881"/>
<polygon fill="midnightblue" stroke="midnightblue" points="844.693,-199.218 853.498,-193.325 842.94,-192.441 844.693,-199.218"/>
</g>
<!-- Node7 -->
<g id="node15" class="node"><title>Node7</title>
<a xlink:href="WindowedWebApp_8h.htm" target="_top" xlink:title="WindowedWebApp.h">
<polygon fill="white" stroke="black" points="502,-232.5 502,-253.5 616,-253.5 616,-232.5 502,-232.5"/>
<text text-anchor="middle" x="559" y="-240.5" font-family="Helvetica,sans-Serif" font-size="10.00">WindowedWebApp.h</text>
</a>
</g>
<!-- Node5&#45;&gt;Node7 -->
<g id="edge16" class="edge"><title>Node5&#45;&gt;Node7</title>
<path fill="none" stroke="midnightblue" d="M757.995,-290.497C717.264,-280.775 656.593,-266.294 612.957,-255.879"/>
<polygon fill="midnightblue" stroke="midnightblue" points="613.627,-252.44 603.088,-253.523 612.002,-259.249 613.627,-252.44"/>
</g>
<!-- Node24 -->
<g id="node53" class="node"><title>Node24</title>
<polygon fill="white" stroke="#bfbfbf" points="914,-174.5 914,-195.5 1006,-195.5 1006,-174.5 914,-174.5"/>
<text text-anchor="middle" x="960" y="-182.5" font-family="Helvetica,sans-Serif" font-size="10.00">WindowTypes.h</text>
</g>
<!-- Node5&#45;&gt;Node24 -->
<g id="edge66" class="edge"><title>Node5&#45;&gt;Node24</title>
<path fill="none" stroke="midnightblue" d="M761.861,-290.475C724.922,-278.858 678.957,-258.274 701,-232 728.854,-198.8 844.965,-203.751 903.563,-195.938"/>
<polygon fill="midnightblue" stroke="midnightblue" points="904.471,-199.338 913.801,-194.319 903.377,-192.424 904.471,-199.338"/>
</g>
<!-- Node27 -->
<g id="node61" class="node"><title>Node27</title>
<polygon fill="white" stroke="#bfbfbf" points="709.5,-232.5 709.5,-253.5 792.5,-253.5 792.5,-232.5 709.5,-232.5"/>
<text text-anchor="middle" x="751" y="-240.5" font-family="Helvetica,sans-Serif" font-size="10.00">SysMgrDefs.h</text>
</g>
<!-- Node5&#45;&gt;Node27 -->
<g id="edge68" class="edge"><title>Node5&#45;&gt;Node27</title>
<path fill="none" stroke="midnightblue" d="M792.646,-290.362C785.457,-282.186 775.359,-270.702 766.907,-261.091"/>
<polygon fill="midnightblue" stroke="midnightblue" points="769.527,-258.769 760.295,-253.571 764.27,-263.392 769.527,-258.769"/>
</g>
<!-- Node28 -->
<g id="node63" class="node"><title>Node28</title>
<polygon fill="white" stroke="#bfbfbf" points="810,-232.5 810,-253.5 898,-253.5 898,-232.5 810,-232.5"/>
<text text-anchor="middle" x="854" y="-240.5" font-family="Helvetica,sans-Serif" font-size="10.00">QGraphicsItem</text>
</g>
<!-- Node5&#45;&gt;Node28 -->
<g id="edge70" class="edge"><title>Node5&#45;&gt;Node28</title>
<path fill="none" stroke="midnightblue" d="M811.538,-290.362C818.868,-282.186 829.163,-270.702 837.781,-261.091"/>
<polygon fill="midnightblue" stroke="midnightblue" points="840.453,-263.353 844.523,-253.571 835.241,-258.68 840.453,-263.353"/>
</g>
<!-- Node29 -->
<g id="node65" class="node"><title>Node29</title>
<polygon fill="white" stroke="#bfbfbf" points="916,-232.5 916,-253.5 1006,-253.5 1006,-232.5 916,-232.5"/>
<text text-anchor="middle" x="961" y="-240.5" font-family="Helvetica,sans-Serif" font-size="10.00">QGraphicsView</text>
</g>
<!-- Node5&#45;&gt;Node29 -->
<g id="edge72" class="edge"><title>Node5&#45;&gt;Node29</title>
<path fill="none" stroke="midnightblue" d="M830.794,-290.497C856.491,-281.123 894.318,-267.324 922.587,-257.012"/>
<polygon fill="midnightblue" stroke="midnightblue" points="923.957,-260.238 932.152,-253.523 921.558,-253.662 923.957,-260.238"/>
</g>
<!-- Node7&#45;&gt;Node2 -->
<g id="edge18" class="edge"><title>Node7&#45;&gt;Node2</title>
<path fill="none" stroke="midnightblue" d="M501.787,-241.439C383.33,-237.614 119.961,-225.817 93,-196 86.4421,-188.747 87.4027,-182.017 93,-174 178.643,-51.3302 262.752,-89.5288 409,-58 524.116,-33.1828 884.028,-17.4444 1009.41,-12.5979"/>
<polygon fill="midnightblue" stroke="midnightblue" points="1009.55,-16.0949 1019.41,-12.215 1009.29,-9.10001 1009.55,-16.0949"/>
</g>
<!-- Node7&#45;&gt;Node4 -->
<g id="edge64" class="edge"><title>Node7&#45;&gt;Node4</title>
<path fill="none" stroke="midnightblue" d="M501.988,-241.243C408.769,-237.565 218.251,-226.672 60,-196 58.9145,-195.79 57.8151,-195.561 56.7083,-195.316"/>
<polygon fill="midnightblue" stroke="midnightblue" points="57.2672,-191.848 46.7146,-192.793 55.5534,-198.635 57.2672,-191.848"/>
</g>
<!-- Node7&#45;&gt;Node6 -->
<g id="edge50" class="edge"><title>Node7&#45;&gt;Node6</title>
<path fill="none" stroke="midnightblue" d="M616.09,-233.901C687.879,-222.422 805.618,-203.462 843.381,-195.759"/>
<polygon fill="midnightblue" stroke="midnightblue" points="844.218,-199.158 853.197,-193.535 842.671,-192.332 844.218,-199.158"/>
</g>
<!-- Node8 -->
<g id="node18" class="node"><title>Node8</title>
<polygon fill="white" stroke="#bfbfbf" points="639.5,-174.5 639.5,-195.5 668.5,-195.5 668.5,-174.5 639.5,-174.5"/>
<text text-anchor="middle" x="654" y="-182.5" font-family="Helvetica,sans-Serif" font-size="10.00">list</text>
</g>
<!-- Node7&#45;&gt;Node8 -->
<g id="edge20" class="edge"><title>Node7&#45;&gt;Node8</title>
<path fill="none" stroke="midnightblue" d="M576.424,-232.362C591.701,-223.035 614.027,-209.404 630.811,-199.158"/>
<polygon fill="midnightblue" stroke="midnightblue" points="632.773,-202.06 639.484,-193.862 629.125,-196.086 632.773,-202.06"/>
</g>
<!-- Node9 -->
<g id="node20" class="node"><title>Node9</title>
<polygon fill="white" stroke="#bfbfbf" points="685.5,-174.5 685.5,-195.5 766.5,-195.5 766.5,-174.5 685.5,-174.5"/>
<text text-anchor="middle" x="726" y="-182.5" font-family="Helvetica,sans-Serif" font-size="10.00">AsyncCaller.h</text>
</g>
<!-- Node7&#45;&gt;Node9 -->
<g id="edge22" class="edge"><title>Node7&#45;&gt;Node9</title>
<path fill="none" stroke="midnightblue" d="M589.242,-232.497C616.35,-223.082 656.31,-209.204 686.043,-198.877"/>
<polygon fill="midnightblue" stroke="midnightblue" points="687.403,-202.11 695.701,-195.523 685.106,-195.498 687.403,-202.11"/>
</g>
<!-- Node10 -->
<g id="node22" class="node"><title>Node10</title>
<a xlink:href="WebAppBase_8h.htm" target="_top" xlink:title="WebAppBase.h">
<polygon fill="white" stroke="black" points="533.5,-174.5 533.5,-195.5 622.5,-195.5 622.5,-174.5 533.5,-174.5"/>
<text text-anchor="middle" x="578" y="-182.5" font-family="Helvetica,sans-Serif" font-size="10.00">WebAppBase.h</text>
</a>
</g>
<!-- Node7&#45;&gt;Node10 -->
<g id="edge24" class="edge"><title>Node7&#45;&gt;Node10</title>
<path fill="none" stroke="midnightblue" d="M562.485,-232.362C564.976,-224.758 568.404,-214.294 571.404,-205.135"/>
<polygon fill="midnightblue" stroke="midnightblue" points="574.75,-206.163 574.537,-195.571 568.098,-203.984 574.75,-206.163"/>
</g>
<!-- Node21 -->
<g id="node47" class="node"><title>Node21</title>
<polygon fill="white" stroke="#bfbfbf" points="784,-174.5 784,-195.5 836,-195.5 836,-174.5 784,-174.5"/>
<text text-anchor="middle" x="810" y="-182.5" font-family="Helvetica,sans-Serif" font-size="10.00">Event.h</text>
</g>
<!-- Node7&#45;&gt;Node21 -->
<g id="edge52" class="edge"><title>Node7&#45;&gt;Node21</title>
<path fill="none" stroke="midnightblue" d="M613.922,-232.474C655.462,-224.189 714.078,-211.811 773.731,-196.185"/>
<polygon fill="midnightblue" stroke="midnightblue" points="774.93,-199.488 783.701,-193.545 773.138,-192.721 774.93,-199.488"/>
</g>
<!-- Node22 -->
<g id="node49" class="node"><title>Node22</title>
<polygon fill="white" stroke="#bfbfbf" points="102,-174.5 102,-195.5 154,-195.5 154,-174.5 102,-174.5"/>
<text text-anchor="middle" x="128" y="-182.5" font-family="Helvetica,sans-Serif" font-size="10.00">Timer.h</text>
</g>
<!-- Node7&#45;&gt;Node22 -->
<g id="edge54" class="edge"><title>Node7&#45;&gt;Node22</title>
<path fill="none" stroke="midnightblue" d="M501.728,-239.564C426.272,-234.296 289.426,-222.183 164.366,-195.981"/>
<polygon fill="midnightblue" stroke="midnightblue" points="164.743,-192.483 154.233,-193.822 163.283,-199.329 164.743,-192.483"/>
</g>
<!-- Node23 -->
<g id="node51" class="node"><title>Node23</title>
<polygon fill="white" stroke="#bfbfbf" points="171.5,-174.5 171.5,-195.5 282.5,-195.5 282.5,-174.5 171.5,-174.5"/>
<text text-anchor="middle" x="227" y="-182.5" font-family="Helvetica,sans-Serif" font-size="10.00">WindowProperties.h</text>
</g>
<!-- Node7&#45;&gt;Node23 -->
<g id="edge56" class="edge"><title>Node7&#45;&gt;Node23</title>
<path fill="none" stroke="midnightblue" d="M501.927,-233.029C443.797,-222.874 353.759,-207.145 292.694,-196.477"/>
<polygon fill="midnightblue" stroke="midnightblue" points="293.229,-193.017 282.775,-194.744 292.024,-199.913 293.229,-193.017"/>
</g>
<!-- Node7&#45;&gt;Node24 -->
<g id="edge58" class="edge"><title>Node7&#45;&gt;Node24</title>
<path fill="none" stroke="midnightblue" d="M616.104,-236.351C682.755,-228.342 796.514,-213.907 903.798,-196.127"/>
<polygon fill="midnightblue" stroke="midnightblue" points="904.538,-199.552 913.825,-194.452 903.385,-192.648 904.538,-199.552"/>
</g>
<!-- Node25 -->
<g id="node55" class="node"><title>Node25</title>
<polygon fill="white" stroke="#bfbfbf" points="300,-174.5 300,-195.5 424,-195.5 424,-174.5 300,-174.5"/>
<text text-anchor="middle" x="362" y="-182.5" font-family="Helvetica,sans-Serif" font-size="10.00">PIpcChannelListener.h</text>
</g>
<!-- Node7&#45;&gt;Node25 -->
<g id="edge60" class="edge"><title>Node7&#45;&gt;Node25</title>
<path fill="none" stroke="midnightblue" d="M523.325,-232.497C490.93,-222.959 442.977,-208.841 407.769,-198.475"/>
<polygon fill="midnightblue" stroke="midnightblue" points="408.324,-194.99 397.742,-195.523 406.346,-201.705 408.324,-194.99"/>
</g>
<!-- Node26 -->
<g id="node57" class="node"><title>Node26</title>
<polygon fill="white" stroke="#bfbfbf" points="442,-174.5 442,-195.5 516,-195.5 516,-174.5 442,-174.5"/>
<text text-anchor="middle" x="479" y="-182.5" font-family="Helvetica,sans-Serif" font-size="10.00">PIpcBuffer.h</text>
</g>
<!-- Node7&#45;&gt;Node26 -->
<g id="edge62" class="edge"><title>Node7&#45;&gt;Node26</title>
<path fill="none" stroke="midnightblue" d="M544.327,-232.362C532.486,-223.777 515.615,-211.546 501.984,-201.664"/>
<polygon fill="midnightblue" stroke="midnightblue" points="503.731,-198.607 493.58,-195.571 499.622,-204.274 503.731,-198.607"/>
</g>
<!-- Node11 -->
<g id="node24" class="node"><title>Node11</title>
<a xlink:href="SysMgrWebBridge_8h.htm" target="_top" xlink:title="SysMgrWebBridge.h">
<polygon fill="white" stroke="black" points="634.5,-116.5 634.5,-137.5 747.5,-137.5 747.5,-116.5 634.5,-116.5"/>
<text text-anchor="middle" x="691" y="-124.5" font-family="Helvetica,sans-Serif" font-size="10.00">SysMgrWebBridge.h</text>
</a>
</g>
<!-- Node10&#45;&gt;Node11 -->
<g id="edge26" class="edge"><title>Node10&#45;&gt;Node11</title>
<path fill="none" stroke="midnightblue" d="M598.463,-174.497C616.033,-165.479 641.582,-152.365 661.385,-142.201"/>
<polygon fill="midnightblue" stroke="midnightblue" points="663.009,-145.301 670.307,-137.621 659.812,-139.074 663.009,-145.301"/>
</g>
<!-- Node16 -->
<g id="node35" class="node"><title>Node16</title>
<polygon fill="white" stroke="#bfbfbf" points="858,-58.5 858,-79.5 956,-79.5 956,-58.5 858,-58.5"/>
<text text-anchor="middle" x="907" y="-66.5" font-family="Helvetica,sans-Serif" font-size="10.00">palmimedefines.h</text>
</g>
<!-- Node10&#45;&gt;Node16 -->
<g id="edge48" class="edge"><title>Node10&#45;&gt;Node16</title>
<path fill="none" stroke="midnightblue" d="M622.528,-175.467C658.925,-167.146 711.458,-153.926 756,-138 799.591,-122.414 847.924,-99.224 877.888,-84.1072"/>
<polygon fill="midnightblue" stroke="midnightblue" points="879.615,-87.1556 886.942,-79.5027 876.442,-80.9161 879.615,-87.1556"/>
</g>
<!-- Node19 -->
<g id="node41" class="node"><title>Node19</title>
<polygon fill="white" stroke="#bfbfbf" points="466.5,-116.5 466.5,-137.5 521.5,-137.5 521.5,-116.5 466.5,-116.5"/>
<text text-anchor="middle" x="494" y="-124.5" font-family="Helvetica,sans-Serif" font-size="10.00">QObject</text>
</g>
<!-- Node10&#45;&gt;Node19 -->
<g id="edge44" class="edge"><title>Node10&#45;&gt;Node19</title>
<path fill="none" stroke="midnightblue" d="M562.593,-174.362C550.042,-165.696 532.108,-153.313 517.725,-143.382"/>
<polygon fill="midnightblue" stroke="midnightblue" points="519.527,-140.372 509.309,-137.571 515.55,-146.133 519.527,-140.372"/>
</g>
<!-- Node20 -->
<g id="node43" class="node"><title>Node20</title>
<polygon fill="white" stroke="#bfbfbf" points="539,-116.5 539,-137.5 617,-137.5 617,-116.5 539,-116.5"/>
<text text-anchor="middle" x="578" y="-124.5" font-family="Helvetica,sans-Serif" font-size="10.00">lunaservice.h</text>
</g>
<!-- Node10&#45;&gt;Node20 -->
<g id="edge46" class="edge"><title>Node10&#45;&gt;Node20</title>
<path fill="none" stroke="midnightblue" d="M578,-174.362C578,-166.922 578,-156.743 578,-147.728"/>
<polygon fill="midnightblue" stroke="midnightblue" points="581.5,-147.571 578,-137.571 574.5,-147.571 581.5,-147.571"/>
</g>
<!-- Node12 -->
<g id="node26" class="node"><title>Node12</title>
<a xlink:href="ProcessBase_8h.htm" target="_top" xlink:title="ProcessBase.h">
<polygon fill="white" stroke="black" points="417.5,-58.5 417.5,-79.5 504.5,-79.5 504.5,-58.5 417.5,-58.5"/>
<text text-anchor="middle" x="461" y="-66.5" font-family="Helvetica,sans-Serif" font-size="10.00">ProcessBase.h</text>
</a>
</g>
<!-- Node11&#45;&gt;Node12 -->
<g id="edge28" class="edge"><title>Node11&#45;&gt;Node12</title>
<path fill="none" stroke="midnightblue" d="M649.349,-116.497C610.96,-106.816 553.855,-92.4156 512.593,-82.0105"/>
<polygon fill="midnightblue" stroke="midnightblue" points="513.282,-78.5746 502.729,-79.5231 511.57,-85.3621 513.282,-78.5746"/>
</g>
<!-- Node14 -->
<g id="node31" class="node"><title>Node14</title>
<polygon fill="white" stroke="#bfbfbf" points="703.5,-58.5 703.5,-79.5 764.5,-79.5 764.5,-58.5 703.5,-58.5"/>
<text text-anchor="middle" x="734" y="-66.5" font-family="Helvetica,sans-Serif" font-size="10.00">QtWebKit</text>
</g>
<!-- Node11&#45;&gt;Node14 -->
<g id="edge34" class="edge"><title>Node11&#45;&gt;Node14</title>
<path fill="none" stroke="midnightblue" d="M698.887,-116.362C704.827,-108.35 713.122,-97.1605 720.159,-87.6696"/>
<polygon fill="midnightblue" stroke="midnightblue" points="723.019,-89.6883 726.163,-79.5707 717.396,-85.5193 723.019,-89.6883"/>
</g>
<!-- Node15 -->
<g id="node33" class="node"><title>Node15</title>
<polygon fill="white" stroke="#bfbfbf" points="781.5,-58.5 781.5,-79.5 840.5,-79.5 840.5,-58.5 781.5,-58.5"/>
<text text-anchor="middle" x="811" y="-66.5" font-family="Helvetica,sans-Serif" font-size="10.00">QPointer</text>
</g>
<!-- Node11&#45;&gt;Node15 -->
<g id="edge36" class="edge"><title>Node11&#45;&gt;Node15</title>
<path fill="none" stroke="midnightblue" d="M712.731,-116.497C731.474,-107.438 758.767,-94.2462 779.836,-84.0628"/>
<polygon fill="midnightblue" stroke="midnightblue" points="781.545,-87.1242 789.025,-79.6212 778.498,-80.8217 781.545,-87.1242"/>
</g>
<!-- Node11&#45;&gt;Node16 -->
<g id="edge38" class="edge"><title>Node11&#45;&gt;Node16</title>
<path fill="none" stroke="midnightblue" d="M730.116,-116.497C765.94,-106.877 819.117,-92.5981 857.808,-82.209"/>
<polygon fill="midnightblue" stroke="midnightblue" points="859.06,-85.4967 867.811,-79.5231 857.245,-78.7362 859.06,-85.4967"/>
</g>
<!-- Node17 -->
<g id="node37" class="node"><title>Node17</title>
<polygon fill="white" stroke="#bfbfbf" points="521.5,-58.5 521.5,-79.5 592.5,-79.5 592.5,-58.5 521.5,-58.5"/>
<text text-anchor="middle" x="557" y="-66.5" font-family="Helvetica,sans-Serif" font-size="10.00">QWebPage</text>
</g>
<!-- Node11&#45;&gt;Node17 -->
<g id="edge40" class="edge"><title>Node11&#45;&gt;Node17</title>
<path fill="none" stroke="midnightblue" d="M666.734,-116.497C645.522,-107.315 614.502,-93.8889 590.85,-83.6516"/>
<polygon fill="midnightblue" stroke="midnightblue" points="592.106,-80.3815 581.539,-79.6212 589.326,-86.8055 592.106,-80.3815"/>
</g>
<!-- Node18 -->
<g id="node39" class="node"><title>Node18</title>
<polygon fill="white" stroke="#bfbfbf" points="610,-58.5 610,-79.5 686,-79.5 686,-58.5 610,-58.5"/>
<text text-anchor="middle" x="648" y="-66.5" font-family="Helvetica,sans-Serif" font-size="10.00">QWebFrame</text>
</g>
<!-- Node11&#45;&gt;Node18 -->
<g id="edge42" class="edge"><title>Node11&#45;&gt;Node18</title>
<path fill="none" stroke="midnightblue" d="M683.113,-116.362C677.173,-108.35 668.878,-97.1605 661.841,-87.6696"/>
<polygon fill="midnightblue" stroke="midnightblue" points="664.604,-85.5193 655.837,-79.5707 658.981,-89.6883 664.604,-85.5193"/>
</g>
<!-- Node12&#45;&gt;Node2 -->
<g id="edge30" class="edge"><title>Node12&#45;&gt;Node2</title>
<path fill="none" stroke="midnightblue" d="M504.623,-59.3699C507.451,-58.8701 510.262,-58.4072 513,-58 696.286,-30.741 917.099,-17.6091 1009.27,-12.9992"/>
<polygon fill="midnightblue" stroke="midnightblue" points="1009.53,-16.4909 1019.34,-12.5039 1009.18,-9.49934 1009.53,-16.4909"/>
</g>
<!-- Node13 -->
<g id="node29" class="node"><title>Node13</title>
<polygon fill="white" stroke="#bfbfbf" points="434.5,-0.5 434.5,-21.5 487.5,-21.5 487.5,-0.5 434.5,-0.5"/>
<text text-anchor="middle" x="461" y="-8.5" font-family="Helvetica,sans-Serif" font-size="10.00">QString</text>
</g>
<!-- Node12&#45;&gt;Node13 -->
<g id="edge32" class="edge"><title>Node12&#45;&gt;Node13</title>
<path fill="none" stroke="midnightblue" d="M461,-58.3619C461,-50.9219 461,-40.7427 461,-31.7276"/>
<polygon fill="midnightblue" stroke="midnightblue" points="464.5,-31.5706 461,-21.5707 457.5,-31.5707 464.5,-31.5706"/>
</g>
<!-- Node30&#45;&gt;Node2 -->
<g id="edge76" class="edge"><title>Node30&#45;&gt;Node2</title>
<path fill="none" stroke="midnightblue" d="M1111.7,-406.445C1111.14,-386.065 1110,-339.874 1110,-301 1110,-301 1110,-301 1110,-127 1110,-89.5289 1085.75,-51.5841 1068.88,-29.7281"/>
<polygon fill="midnightblue" stroke="midnightblue" points="1071.4,-27.2705 1062.41,-21.6538 1065.93,-31.6467 1071.4,-27.2705"/>
</g>
<!-- Node30&#45;&gt;Node3 -->
<g id="edge78" class="edge"><title>Node30&#45;&gt;Node3</title>
<path fill="none" stroke="midnightblue" d="M1091.17,-406.497C1073.29,-397.479 1047.29,-384.365 1027.14,-374.201"/>
<polygon fill="midnightblue" stroke="midnightblue" points="1028.56,-370.999 1018.06,-369.621 1025.41,-377.249 1028.56,-370.999"/>
</g>
<!-- Node31 -->
<g id="node71" class="node"><title>Node31</title>
<polygon fill="white" stroke="#bfbfbf" points="1137.5,-348.5 1137.5,-369.5 1200.5,-369.5 1200.5,-348.5 1137.5,-348.5"/>
<text text-anchor="middle" x="1169" y="-356.5" font-family="Helvetica,sans-Serif" font-size="10.00">Logging.h</text>
</g>
<!-- Node30&#45;&gt;Node31 -->
<g id="edge80" class="edge"><title>Node30&#45;&gt;Node31</title>
<path fill="none" stroke="midnightblue" d="M1122.45,-406.362C1130.57,-398.104 1142,-386.472 1151.5,-376.803"/>
<polygon fill="midnightblue" stroke="midnightblue" points="1154.1,-379.156 1158.61,-369.571 1149.11,-374.25 1154.1,-379.156"/>
</g>
</g>
</svg>
