<?xml version="1.0" encoding="UTF-8" standalone="no"?>
<!DOCTYPE svg PUBLIC "-//W3C//DTD SVG 1.1//EN"
 "http://www.w3.org/Graphics/SVG/1.1/DTD/svg11.dtd">
<!-- Generated by graphviz version 2.26.3 (20100126.1600)
 -->
<!-- Title: RemoteWindowDataOpenGLQt.h Pages: 1 -->
<svg width="1137pt" height="436pt"
 viewBox="0.00 0.00 1137.00 436.00" xmlns="http://www.w3.org/2000/svg" xmlns:xlink="http://www.w3.org/1999/xlink">
<g id="graph1" class="graph" transform="scale(1 1) rotate(0) translate(4 432)">
<title>RemoteWindowDataOpenGLQt.h</title>
<polygon fill="white" stroke="white" points="-4,5 -4,-432 1134,-432 1134,5 -4,5"/>
<!-- Node1 -->
<g id="node1" class="node"><title>Node1</title>
<polygon fill="#bfbfbf" stroke="black" points="-0.5,-406.5 -0.5,-427.5 172.5,-427.5 172.5,-406.5 -0.5,-406.5"/>
<text text-anchor="middle" x="86" y="-414.5" font-family="Helvetica,sans-Serif" font-size="10.00">RemoteWindowDataOpenGLQt.h</text>
</g>
<!-- Node2 -->
<g id="node3" class="node"><title>Node2</title>
<polygon fill="white" stroke="#bfbfbf" points="959.5,-0.5 959.5,-21.5 1026.5,-21.5 1026.5,-0.5 959.5,-0.5"/>
<text text-anchor="middle" x="993" y="-8.5" font-family="Helvetica,sans-Serif" font-size="10.00">Common.h</text>
</g>
<!-- Node1&#45;&gt;Node2 -->
<g id="edge2" class="edge"><title>Node1&#45;&gt;Node2</title>
<path fill="none" stroke="midnightblue" d="M76.5876,-406.346C60.398,-386.881 29,-343.634 29,-301 29,-301 29,-301 29,-127 29,48.5876 243.861,-80.5105 418,-58 470.173,-51.2557 823.982,-23.9261 949.195,-14.3414"/>
<polygon fill="midnightblue" stroke="midnightblue" points="949.497,-17.8286 959.201,-13.5759 948.963,-10.8489 949.497,-17.8286"/>
</g>
<!-- Node3 -->
<g id="node5" class="node"><title>Node3</title>
<a xlink:href="RemoteWindowData_8h.htm" target="_top" xlink:title="RemoteWindowData.h">
<polygon fill="white" stroke="black" points="378,-348.5 378,-369.5 500,-369.5 500,-348.5 378,-348.5"/>
<text text-anchor="middle" x="439" y="-356.5" font-family="Helvetica,sans-Serif" font-size="10.00">RemoteWindowData.h</text>
</a>
</g>
<!-- Node1&#45;&gt;Node3 -->
<g id="edge4" class="edge"><title>Node1&#45;&gt;Node3</title>
<path fill="none" stroke="midnightblue" d="M149.926,-406.497C211.407,-396.395 304.165,-381.154 367.935,-370.676"/>
<polygon fill="midnightblue" stroke="midnightblue" points="368.612,-374.112 377.912,-369.037 367.477,-367.205 368.612,-374.112"/>
</g>
<!-- Node3&#45;&gt;Node2 -->
<g id="edge6" class="edge"><title>Node3&#45;&gt;Node2</title>
<path fill="none" stroke="midnightblue" d="M500.233,-355.124C669.102,-343.621 1129,-306.469 1129,-243 1129,-243 1129,-243 1129,-127 1129,-76.148 1073.28,-42.8687 1033.17,-25.5007"/>
<polygon fill="midnightblue" stroke="midnightblue" points="1034.44,-22.2378 1023.86,-21.6296 1031.75,-28.7012 1034.44,-22.2378"/>
</g>
<!-- Node4 -->
<g id="node8" class="node"><title>Node4</title>
<polygon fill="white" stroke="#bfbfbf" points="56.5,-174.5 56.5,-195.5 103.5,-195.5 103.5,-174.5 56.5,-174.5"/>
<text text-anchor="middle" x="80" y="-182.5" font-family="Helvetica,sans-Serif" font-size="10.00">QRect</text>
</g>
<!-- Node3&#45;&gt;Node4 -->
<g id="edge8" class="edge"><title>Node3&#45;&gt;Node4</title>
<path fill="none" stroke="midnightblue" d="M417.083,-348.377C355.872,-318.709 182.91,-234.878 111.47,-200.253"/>
<polygon fill="midnightblue" stroke="midnightblue" points="112.611,-196.917 102.086,-195.705 109.558,-203.216 112.611,-196.917"/>
</g>
<!-- Node5 -->
<g id="node10" class="node"><title>Node5</title>
<a xlink:href="CardWebApp_8h.htm" target="_top" xlink:title="CardWebApp.h">
<polygon fill="white" stroke="black" points="691,-290.5 691,-311.5 779,-311.5 779,-290.5 691,-290.5"/>
<text text-anchor="middle" x="735" y="-298.5" font-family="Helvetica,sans-Serif" font-size="10.00">CardWebApp.h</text>
</a>
</g>
<!-- Node3&#45;&gt;Node5 -->
<g id="edge10" class="edge"><title>Node3&#45;&gt;Node5</title>
<path fill="none" stroke="midnightblue" d="M492.603,-348.497C545.974,-338.039 627.453,-322.073 680.972,-311.586"/>
<polygon fill="midnightblue" stroke="midnightblue" points="681.816,-314.988 690.957,-309.63 680.47,-308.118 681.816,-314.988"/>
</g>
<!-- Node5&#45;&gt;Node2 -->
<g id="edge12" class="edge"><title>Node5&#45;&gt;Node2</title>
<path fill="none" stroke="midnightblue" d="M779.01,-296.063C874.258,-284.154 1091,-249.923 1091,-185 1091,-185 1091,-185 1091,-127 1091,-82.7995 1048.97,-46.7407 1019.96,-27.1172"/>
<polygon fill="midnightblue" stroke="midnightblue" points="1021.72,-24.0899 1011.43,-21.5639 1017.9,-29.9551 1021.72,-24.0899"/>
</g>
<!-- Node6 -->
<g id="node13" class="node"><title>Node6</title>
<polygon fill="white" stroke="#bfbfbf" points="1020.5,-174.5 1020.5,-195.5 1063.5,-195.5 1063.5,-174.5 1020.5,-174.5"/>
<text text-anchor="middle" x="1042" y="-182.5" font-family="Helvetica,sans-Serif" font-size="10.00">sptr.h</text>
</g>
<!-- Node5&#45;&gt;Node6 -->
<g id="edge14" class="edge"><title>Node5&#45;&gt;Node6</title>
<path fill="none" stroke="midnightblue" d="M779.109,-296.673C823.401,-291.104 892.805,-278.993 948,-254 976.786,-240.965 1005.42,-218.173 1023.38,-202.368"/>
<polygon fill="midnightblue" stroke="midnightblue" points="1025.74,-204.947 1030.84,-195.659 1021.07,-199.741 1025.74,-204.947"/>
</g>
<!-- Node7 -->
<g id="node15" class="node"><title>Node7</title>
<a xlink:href="WindowedWebApp_8h.htm" target="_top" xlink:title="WindowedWebApp.h">
<polygon fill="white" stroke="black" points="511,-232.5 511,-253.5 625,-253.5 625,-232.5 511,-232.5"/>
<text text-anchor="middle" x="568" y="-240.5" font-family="Helvetica,sans-Serif" font-size="10.00">WindowedWebApp.h</text>
</a>
</g>
<!-- Node5&#45;&gt;Node7 -->
<g id="edge16" class="edge"><title>Node5&#45;&gt;Node7</title>
<path fill="none" stroke="midnightblue" d="M704.758,-290.497C677.65,-281.082 637.69,-267.204 607.957,-256.877"/>
<polygon fill="midnightblue" stroke="midnightblue" points="608.894,-253.498 598.299,-253.523 606.597,-260.11 608.894,-253.498"/>
</g>
<!-- Node24 -->
<g id="node53" class="node"><title>Node24</title>
<polygon fill="white" stroke="#bfbfbf" points="121,-174.5 121,-195.5 213,-195.5 213,-174.5 121,-174.5"/>
<text text-anchor="middle" x="167" y="-182.5" font-family="Helvetica,sans-Serif" font-size="10.00">WindowTypes.h</text>
</g>
<!-- Node5&#45;&gt;Node24 -->
<g id="edge66" class="edge"><title>Node5&#45;&gt;Node24</title>
<path fill="none" stroke="midnightblue" d="M690.755,-292.131C643.878,-282.721 567.706,-267.394 502,-254 403.766,-233.976 289.397,-210.352 222.901,-196.587"/>
<polygon fill="midnightblue" stroke="midnightblue" points="223.55,-193.147 213.048,-194.546 222.13,-200.001 223.55,-193.147"/>
</g>
<!-- Node27 -->
<g id="node61" class="node"><title>Node27</title>
<polygon fill="white" stroke="#bfbfbf" points="642.5,-232.5 642.5,-253.5 725.5,-253.5 725.5,-232.5 642.5,-232.5"/>
<text text-anchor="middle" x="684" y="-240.5" font-family="Helvetica,sans-Serif" font-size="10.00">SysMgrDefs.h</text>
</g>
<!-- Node5&#45;&gt;Node27 -->
<g id="edge68" class="edge"><title>Node5&#45;&gt;Node27</title>
<path fill="none" stroke="midnightblue" d="M725.646,-290.362C718.457,-282.186 708.359,-270.702 699.907,-261.091"/>
<polygon fill="midnightblue" stroke="midnightblue" points="702.527,-258.769 693.295,-253.571 697.27,-263.392 702.527,-258.769"/>
</g>
<!-- Node28 -->
<g id="node63" class="node"><title>Node28</title>
<polygon fill="white" stroke="#bfbfbf" points="743,-232.5 743,-253.5 831,-253.5 831,-232.5 743,-232.5"/>
<text text-anchor="middle" x="787" y="-240.5" font-family="Helvetica,sans-Serif" font-size="10.00">QGraphicsItem</text>
</g>
<!-- Node5&#45;&gt;Node28 -->
<g id="edge70" class="edge"><title>Node5&#45;&gt;Node28</title>
<path fill="none" stroke="midnightblue" d="M744.538,-290.362C751.868,-282.186 762.163,-270.702 770.781,-261.091"/>
<polygon fill="midnightblue" stroke="midnightblue" points="773.453,-263.353 777.523,-253.571 768.241,-258.68 773.453,-263.353"/>
</g>
<!-- Node29 -->
<g id="node65" class="node"><title>Node29</title>
<polygon fill="white" stroke="#bfbfbf" points="849,-232.5 849,-253.5 939,-253.5 939,-232.5 849,-232.5"/>
<text text-anchor="middle" x="894" y="-240.5" font-family="Helvetica,sans-Serif" font-size="10.00">QGraphicsView</text>
</g>
<!-- Node5&#45;&gt;Node29 -->
<g id="edge72" class="edge"><title>Node5&#45;&gt;Node29</title>
<path fill="none" stroke="midnightblue" d="M763.794,-290.497C789.491,-281.123 827.318,-267.324 855.587,-257.012"/>
<polygon fill="midnightblue" stroke="midnightblue" points="856.957,-260.238 865.152,-253.523 854.558,-253.662 856.957,-260.238"/>
</g>
<!-- Node7&#45;&gt;Node2 -->
<g id="edge18" class="edge"><title>Node7&#45;&gt;Node2</title>
<path fill="none" stroke="midnightblue" d="M625.206,-233.251C628.177,-232.812 631.122,-232.392 634,-232 709.283,-221.75 920.36,-249.809 974,-196 1017.78,-152.087 1006.57,-69.9492 998.232,-31.6487"/>
<polygon fill="midnightblue" stroke="midnightblue" points="1001.58,-30.6105 995.904,-21.6669 994.766,-32.2005 1001.58,-30.6105"/>
</g>
<!-- Node7&#45;&gt;Node4 -->
<g id="edge64" class="edge"><title>Node7&#45;&gt;Node4</title>
<path fill="none" stroke="midnightblue" d="M510.821,-241.288C425.74,-237.827 260.877,-227.602 113.708,-195.996"/>
<polygon fill="midnightblue" stroke="midnightblue" points="114.11,-192.501 103.593,-193.783 112.614,-199.339 114.11,-192.501"/>
</g>
<!-- Node7&#45;&gt;Node6 -->
<g id="edge50" class="edge"><title>Node7&#45;&gt;Node6</title>
<path fill="none" stroke="midnightblue" d="M625.201,-233.219C628.174,-232.788 631.121,-232.378 634,-232 799.128,-210.297 843.784,-229.147 1007,-196 1008.09,-195.778 1009.2,-195.535 1010.31,-195.275"/>
<polygon fill="midnightblue" stroke="midnightblue" points="1011.59,-198.555 1020.34,-192.577 1009.77,-191.796 1011.59,-198.555"/>
</g>
<!-- Node8 -->
<g id="node18" class="node"><title>Node8</title>
<polygon fill="white" stroke="#bfbfbf" points="936.5,-174.5 936.5,-195.5 965.5,-195.5 965.5,-174.5 936.5,-174.5"/>
<text text-anchor="middle" x="951" y="-182.5" font-family="Helvetica,sans-Serif" font-size="10.00">list</text>
</g>
<!-- Node7&#45;&gt;Node8 -->
<g id="edge20" class="edge"><title>Node7&#45;&gt;Node8</title>
<path fill="none" stroke="midnightblue" d="M625.214,-233.309C628.183,-232.854 631.126,-232.415 634,-232 761.109,-213.634 799.751,-231.943 926.499,-195.762"/>
<polygon fill="midnightblue" stroke="midnightblue" points="927.56,-199.098 936.183,-192.942 925.603,-192.378 927.56,-199.098"/>
</g>
<!-- Node9 -->
<g id="node20" class="node"><title>Node9</title>
<polygon fill="white" stroke="#bfbfbf" points="230.5,-174.5 230.5,-195.5 311.5,-195.5 311.5,-174.5 230.5,-174.5"/>
<text text-anchor="middle" x="271" y="-182.5" font-family="Helvetica,sans-Serif" font-size="10.00">AsyncCaller.h</text>
</g>
<!-- Node7&#45;&gt;Node9 -->
<g id="edge22" class="edge"><title>Node7&#45;&gt;Node9</title>
<path fill="none" stroke="midnightblue" d="M510.761,-232.715C462.688,-223.949 391.933,-210.75 321.546,-196.279"/>
<polygon fill="midnightblue" stroke="midnightblue" points="322.121,-192.824 311.619,-194.229 320.705,-199.679 322.121,-192.824"/>
</g>
<!-- Node10 -->
<g id="node22" class="node"><title>Node10</title>
<a xlink:href="WebAppBase_8h.htm" target="_top" xlink:title="WebAppBase.h">
<polygon fill="white" stroke="black" points="830.5,-174.5 830.5,-195.5 919.5,-195.5 919.5,-174.5 830.5,-174.5"/>
<text text-anchor="middle" x="875" y="-182.5" font-family="Helvetica,sans-Serif" font-size="10.00">WebAppBase.h</text>
</a>
</g>
<!-- Node7&#45;&gt;Node10 -->
<g id="edge24" class="edge"><title>Node7&#45;&gt;Node10</title>
<path fill="none" stroke="midnightblue" d="M625.064,-232.806C674.272,-223.932 747.508,-210.529 820.226,-196.322"/>
<polygon fill="midnightblue" stroke="midnightblue" points="821.341,-199.67 830.481,-194.313 819.995,-192.801 821.341,-199.67"/>
</g>
<!-- Node21 -->
<g id="node47" class="node"><title>Node21</title>
<polygon fill="white" stroke="#bfbfbf" points="329,-174.5 329,-195.5 381,-195.5 381,-174.5 329,-174.5"/>
<text text-anchor="middle" x="355" y="-182.5" font-family="Helvetica,sans-Serif" font-size="10.00">Event.h</text>
</g>
<!-- Node7&#45;&gt;Node21 -->
<g id="edge52" class="edge"><title>Node7&#45;&gt;Node21</title>
<path fill="none" stroke="midnightblue" d="M525.77,-232.437C491.727,-223.79 442.41,-210.967 390.962,-196.2"/>
<polygon fill="midnightblue" stroke="midnightblue" points="391.912,-192.831 381.334,-193.42 389.971,-199.556 391.912,-192.831"/>
</g>
<!-- Node22 -->
<g id="node49" class="node"><title>Node22</title>
<polygon fill="white" stroke="#bfbfbf" points="399,-174.5 399,-195.5 451,-195.5 451,-174.5 399,-174.5"/>
<text text-anchor="middle" x="425" y="-182.5" font-family="Helvetica,sans-Serif" font-size="10.00">Timer.h</text>
</g>
<!-- Node7&#45;&gt;Node22 -->
<g id="edge54" class="edge"><title>Node7&#45;&gt;Node22</title>
<path fill="none" stroke="midnightblue" d="M542.104,-232.497C519.367,-223.275 486.07,-209.769 460.788,-199.515"/>
<polygon fill="midnightblue" stroke="midnightblue" points="461.769,-196.136 451.187,-195.621 459.138,-202.623 461.769,-196.136"/>
</g>
<!-- Node23 -->
<g id="node51" class="node"><title>Node23</title>
<polygon fill="white" stroke="#bfbfbf" points="468.5,-174.5 468.5,-195.5 579.5,-195.5 579.5,-174.5 468.5,-174.5"/>
<text text-anchor="middle" x="524" y="-182.5" font-family="Helvetica,sans-Serif" font-size="10.00">WindowProperties.h</text>
</g>
<!-- Node7&#45;&gt;Node23 -->
<g id="edge56" class="edge"><title>Node7&#45;&gt;Node23</title>
<path fill="none" stroke="midnightblue" d="M559.93,-232.362C553.851,-224.35 545.363,-213.161 538.163,-203.67"/>
<polygon fill="midnightblue" stroke="midnightblue" points="540.851,-201.422 532.019,-195.571 535.275,-205.653 540.851,-201.422"/>
</g>
<!-- Node7&#45;&gt;Node24 -->
<g id="edge58" class="edge"><title>Node7&#45;&gt;Node24</title>
<path fill="none" stroke="midnightblue" d="M510.896,-236.351C444.245,-228.342 330.486,-213.907 223.202,-196.127"/>
<polygon fill="midnightblue" stroke="midnightblue" points="223.615,-192.648 213.175,-194.452 222.462,-199.552 223.615,-192.648"/>
</g>
<!-- Node25 -->
<g id="node55" class="node"><title>Node25</title>
<polygon fill="white" stroke="#bfbfbf" points="597,-174.5 597,-195.5 721,-195.5 721,-174.5 597,-174.5"/>
<text text-anchor="middle" x="659" y="-182.5" font-family="Helvetica,sans-Serif" font-size="10.00">PIpcChannelListener.h</text>
</g>
<!-- Node7&#45;&gt;Node25 -->
<g id="edge60" class="edge"><title>Node7&#45;&gt;Node25</title>
<path fill="none" stroke="midnightblue" d="M584.691,-232.362C598.416,-223.614 618.084,-211.079 633.737,-201.101"/>
<polygon fill="midnightblue" stroke="midnightblue" points="635.863,-203.897 642.415,-195.571 632.101,-197.994 635.863,-203.897"/>
</g>
<!-- Node26 -->
<g id="node57" class="node"><title>Node26</title>
<polygon fill="white" stroke="#bfbfbf" points="739,-174.5 739,-195.5 813,-195.5 813,-174.5 739,-174.5"/>
<text text-anchor="middle" x="776" y="-182.5" font-family="Helvetica,sans-Serif" font-size="10.00">PIpcBuffer.h</text>
</g>
<!-- Node7&#45;&gt;Node26 -->
<g id="edge62" class="edge"><title>Node7&#45;&gt;Node26</title>
<path fill="none" stroke="midnightblue" d="M605.667,-232.497C640.379,-222.817 692.011,-208.42 729.325,-198.015"/>
<polygon fill="midnightblue" stroke="midnightblue" points="730.27,-201.385 738.963,-195.328 728.39,-194.642 730.27,-201.385"/>
</g>
<!-- Node11 -->
<g id="node24" class="node"><title>Node11</title>
<a xlink:href="SysMgrWebBridge_8h.htm" target="_top" xlink:title="SysMgrWebBridge.h">
<polygon fill="white" stroke="black" points="749.5,-116.5 749.5,-137.5 862.5,-137.5 862.5,-116.5 749.5,-116.5"/>
<text text-anchor="middle" x="806" y="-124.5" font-family="Helvetica,sans-Serif" font-size="10.00">SysMgrWebBridge.h</text>
</a>
</g>
<!-- Node10&#45;&gt;Node11 -->
<g id="edge26" class="edge"><title>Node10&#45;&gt;Node11</title>
<path fill="none" stroke="midnightblue" d="M862.344,-174.362C852.326,-165.941 838.133,-154.011 826.499,-144.231"/>
<polygon fill="midnightblue" stroke="midnightblue" points="828.482,-141.326 818.575,-137.571 823.978,-146.684 828.482,-141.326"/>
</g>
<!-- Node16 -->
<g id="node35" class="node"><title>Node16</title>
<polygon fill="white" stroke="#bfbfbf" points="867,-58.5 867,-79.5 965,-79.5 965,-58.5 867,-58.5"/>
<text text-anchor="middle" x="916" y="-66.5" font-family="Helvetica,sans-Serif" font-size="10.00">palmimedefines.h</text>
</g>
<!-- Node10&#45;&gt;Node16 -->
<g id="edge48" class="edge"><title>Node10&#45;&gt;Node16</title>
<path fill="none" stroke="midnightblue" d="M878.784,-174.295C885.618,-154.959 900.122,-113.923 908.869,-89.1767"/>
<polygon fill="midnightblue" stroke="midnightblue" points="912.193,-90.274 912.225,-79.6792 905.593,-87.9412 912.193,-90.274"/>
</g>
<!-- Node19 -->
<g id="node41" class="node"><title>Node19</title>
<polygon fill="white" stroke="#bfbfbf" points="581.5,-116.5 581.5,-137.5 636.5,-137.5 636.5,-116.5 581.5,-116.5"/>
<text text-anchor="middle" x="609" y="-124.5" font-family="Helvetica,sans-Serif" font-size="10.00">QObject</text>
</g>
<!-- Node10&#45;&gt;Node19 -->
<g id="edge44" class="edge"><title>Node10&#45;&gt;Node19</title>
<path fill="none" stroke="midnightblue" d="M830.47,-175.744C827.604,-175.153 824.762,-174.567 822,-174 746.437,-158.474 724.504,-157.784 646.617,-138.269"/>
<polygon fill="midnightblue" stroke="midnightblue" points="647.387,-134.853 636.834,-135.793 645.67,-141.639 647.387,-134.853"/>
</g>
<!-- Node20 -->
<g id="node43" class="node"><title>Node20</title>
<polygon fill="white" stroke="#bfbfbf" points="654,-116.5 654,-137.5 732,-137.5 732,-116.5 654,-116.5"/>
<text text-anchor="middle" x="693" y="-124.5" font-family="Helvetica,sans-Serif" font-size="10.00">lunaservice.h</text>
</g>
<!-- Node10&#45;&gt;Node20 -->
<g id="edge46" class="edge"><title>Node10&#45;&gt;Node20</title>
<path fill="none" stroke="midnightblue" d="M842.041,-174.497C812.242,-165 768.191,-150.962 735.703,-140.609"/>
<polygon fill="midnightblue" stroke="midnightblue" points="736.611,-137.225 726.021,-137.523 734.486,-143.894 736.611,-137.225"/>
</g>
<!-- Node12 -->
<g id="node26" class="node"><title>Node12</title>
<a xlink:href="ProcessBase_8h.htm" target="_top" xlink:title="ProcessBase.h">
<polygon fill="white" stroke="black" points="762.5,-58.5 762.5,-79.5 849.5,-79.5 849.5,-58.5 762.5,-58.5"/>
<text text-anchor="middle" x="806" y="-66.5" font-family="Helvetica,sans-Serif" font-size="10.00">ProcessBase.h</text>
</a>
</g>
<!-- Node11&#45;&gt;Node12 -->
<g id="edge28" class="edge"><title>Node11&#45;&gt;Node12</title>
<path fill="none" stroke="midnightblue" d="M806,-116.362C806,-108.922 806,-98.7427 806,-89.7276"/>
<polygon fill="midnightblue" stroke="midnightblue" points="809.5,-89.5706 806,-79.5707 802.5,-89.5707 809.5,-89.5706"/>
</g>
<!-- Node14 -->
<g id="node31" class="node"><title>Node14</title>
<polygon fill="white" stroke="#bfbfbf" points="608.5,-58.5 608.5,-79.5 669.5,-79.5 669.5,-58.5 608.5,-58.5"/>
<text text-anchor="middle" x="639" y="-66.5" font-family="Helvetica,sans-Serif" font-size="10.00">QtWebKit</text>
</g>
<!-- Node11&#45;&gt;Node14 -->
<g id="edge34" class="edge"><title>Node11&#45;&gt;Node14</title>
<path fill="none" stroke="midnightblue" d="M775.758,-116.497C748.65,-107.082 708.69,-93.2036 678.957,-82.8773"/>
<polygon fill="midnightblue" stroke="midnightblue" points="679.894,-79.4977 669.299,-79.5231 677.597,-86.1102 679.894,-79.4977"/>
</g>
<!-- Node15 -->
<g id="node33" class="node"><title>Node15</title>
<polygon fill="white" stroke="#bfbfbf" points="686.5,-58.5 686.5,-79.5 745.5,-79.5 745.5,-58.5 686.5,-58.5"/>
<text text-anchor="middle" x="716" y="-66.5" font-family="Helvetica,sans-Serif" font-size="10.00">QPointer</text>
</g>
<!-- Node11&#45;&gt;Node15 -->
<g id="edge36" class="edge"><title>Node11&#45;&gt;Node15</title>
<path fill="none" stroke="midnightblue" d="M789.493,-116.362C775.918,-107.614 756.467,-95.0786 740.985,-85.1015"/>
<polygon fill="midnightblue" stroke="midnightblue" points="742.704,-82.0457 732.403,-79.5707 738.912,-87.9297 742.704,-82.0457"/>
</g>
<!-- Node11&#45;&gt;Node16 -->
<g id="edge38" class="edge"><title>Node11&#45;&gt;Node16</title>
<path fill="none" stroke="midnightblue" d="M825.92,-116.497C842.946,-107.519 867.669,-94.4835 886.909,-84.3387"/>
<polygon fill="midnightblue" stroke="midnightblue" points="888.643,-87.3814 895.856,-79.6212 885.378,-81.1894 888.643,-87.3814"/>
</g>
<!-- Node17 -->
<g id="node37" class="node"><title>Node17</title>
<polygon fill="white" stroke="#bfbfbf" points="426.5,-58.5 426.5,-79.5 497.5,-79.5 497.5,-58.5 426.5,-58.5"/>
<text text-anchor="middle" x="462" y="-66.5" font-family="Helvetica,sans-Serif" font-size="10.00">QWebPage</text>
</g>
<!-- Node11&#45;&gt;Node17 -->
<g id="edge40" class="edge"><title>Node11&#45;&gt;Node17</title>
<path fill="none" stroke="midnightblue" d="M749.288,-117.349C746.486,-116.889 743.712,-116.437 741,-116 639.842,-99.6932 611.299,-100.753 507.867,-80.2618"/>
<polygon fill="midnightblue" stroke="midnightblue" points="508.449,-76.8089 497.957,-78.2784 507.075,-83.6728 508.449,-76.8089"/>
</g>
<!-- Node18 -->
<g id="node39" class="node"><title>Node18</title>
<polygon fill="white" stroke="#bfbfbf" points="515,-58.5 515,-79.5 591,-79.5 591,-58.5 515,-58.5"/>
<text text-anchor="middle" x="553" y="-66.5" font-family="Helvetica,sans-Serif" font-size="10.00">QWebFrame</text>
</g>
<!-- Node11&#45;&gt;Node18 -->
<g id="edge42" class="edge"><title>Node11&#45;&gt;Node18</title>
<path fill="none" stroke="midnightblue" d="M759.349,-116.434C719.787,-107.457 661.259,-94.1341 601.249,-80.2808"/>
<polygon fill="midnightblue" stroke="midnightblue" points="601.747,-76.8037 591.215,-77.9628 600.171,-83.6241 601.747,-76.8037"/>
</g>
<!-- Node12&#45;&gt;Node2 -->
<g id="edge30" class="edge"><title>Node12&#45;&gt;Node2</title>
<path fill="none" stroke="midnightblue" d="M839.864,-58.4966C870.578,-48.9706 916.026,-34.8744 949.435,-24.5121"/>
<polygon fill="midnightblue" stroke="midnightblue" points="950.873,-27.7306 959.388,-21.4252 948.8,-21.0448 950.873,-27.7306"/>
</g>
<!-- Node13 -->
<g id="node29" class="node"><title>Node13</title>
<polygon fill="white" stroke="#bfbfbf" points="779.5,-0.5 779.5,-21.5 832.5,-21.5 832.5,-0.5 779.5,-0.5"/>
<text text-anchor="middle" x="806" y="-8.5" font-family="Helvetica,sans-Serif" font-size="10.00">QString</text>
</g>
<!-- Node12&#45;&gt;Node13 -->
<g id="edge32" class="edge"><title>Node12&#45;&gt;Node13</title>
<path fill="none" stroke="midnightblue" d="M806,-58.3619C806,-50.9219 806,-40.7427 806,-31.7276"/>
<polygon fill="midnightblue" stroke="midnightblue" points="809.5,-31.5706 806,-21.5707 802.5,-31.5707 809.5,-31.5706"/>
</g>
</g>
</svg>
