<?xml version="1.0" encoding="UTF-8" standalone="no"?>
<!DOCTYPE svg PUBLIC "-//W3C//DTD SVG 1.1//EN"
 "http://www.w3.org/Graphics/SVG/1.1/DTD/svg11.dtd">
<!-- Generated by graphviz version 2.26.3 (20100126.1600)
 -->
<!-- Title: RemoteWindowDataSoftwareQt.h Pages: 1 -->
<svg width="312pt" height="102pt"
 viewBox="0.00 0.00 312.00 102.00" xmlns="http://www.w3.org/2000/svg" xmlns:xlink="http://www.w3.org/1999/xlink">
<g id="graph1" class="graph" transform="scale(1 1) rotate(0) translate(4 98)">
<title>RemoteWindowDataSoftwareQt.h</title>
<polygon fill="white" stroke="white" points="-4,5 -4,-98 309,-98 309,5 -4,5"/>
<!-- Node1 -->
<g id="node1" class="node"><title>Node1</title>
<polygon fill="#bfbfbf" stroke="black" points="58.5,-72.5 58.5,-93.5 233.5,-93.5 233.5,-72.5 58.5,-72.5"/>
<text text-anchor="middle" x="146" y="-80.5" font-family="Helvetica,sans-Serif" font-size="10.00">RemoteWindowDataSoftwareQt.h</text>
</g>
<!-- Node2 -->
<g id="node3" class="node"><title>Node2</title>
<a xlink:href="RemoteWindowData_8cpp.htm" target="_top" xlink:title="RemoteWindowData.cpp">
<polygon fill="white" stroke="black" points="-0.5,-7.5 -0.5,-28.5 132.5,-28.5 132.5,-7.5 -0.5,-7.5"/>
<text text-anchor="middle" x="66" y="-15.5" font-family="Helvetica,sans-Serif" font-size="10.00">RemoteWindowData.cpp</text>
</a>
</g>
<!-- Node1&#45;&gt;Node2 -->
<g id="edge2" class="edge"><title>Node1&#45;&gt;Node2</title>
<path fill="none" stroke="midnightblue" d="M124.79,-65.7667C110.219,-53.9281 91.3444,-38.5923 78.9646,-28.5337"/>
<polygon fill="midnightblue" stroke="midnightblue" points="122.821,-68.677 132.79,-72.2666 127.236,-63.2442 122.821,-68.677"/>
</g>
<!-- Node3 -->
<g id="node5" class="node"><title>Node3</title>
<a xlink:href="RemoteWindowDataSoftwareQt_8cpp.htm" target="_top" xlink:title="RemoteWindowDataSoftware\lQt.cpp">
<polygon fill="white" stroke="black" points="149.5,-1 149.5,-35 304.5,-35 304.5,-1 149.5,-1"/>
<text text-anchor="start" x="157.5" y="-22" font-family="Helvetica,sans-Serif" font-size="10.00">RemoteWindowDataSoftware</text>
<text text-anchor="middle" x="227" y="-9" font-family="Helvetica,sans-Serif" font-size="10.00">Qt.cpp</text>
</a>
</g>
<!-- Node1&#45;&gt;Node3 -->
<g id="edge4" class="edge"><title>Node1&#45;&gt;Node3</title>
<path fill="none" stroke="midnightblue" d="M167.406,-65.8219C179.23,-56.334 193.869,-44.5869 205.678,-35.1099"/>
<polygon fill="midnightblue" stroke="midnightblue" points="164.984,-63.2781 159.376,-72.2666 169.365,-68.7376 164.984,-63.2781"/>
</g>
</g>
</svg>
