<?xml version="1.0" encoding="UTF-8" standalone="no"?>
<!DOCTYPE svg PUBLIC "-//W3C//DTD SVG 1.1//EN"
 "http://www.w3.org/Graphics/SVG/1.1/DTD/svg11.dtd">
<!-- Generated by graphviz version 2.26.3 (20100126.1600)
 -->
<!-- Title: WindowMetaData Pages: 1 -->
<svg width="277pt" height="128pt"
 viewBox="0.00 0.00 277.00 128.00" xmlns="http://www.w3.org/2000/svg" xmlns:xlink="http://www.w3.org/1999/xlink">
<g id="graph1" class="graph" transform="scale(1 1) rotate(0) translate(4 124)">
<title>WindowMetaData</title>
<polygon fill="white" stroke="white" points="-4,5 -4,-124 274,-124 274,5 -4,5"/>
<!-- Node1 -->
<g id="node1" class="node"><title>Node1</title>
<polygon fill="#bfbfbf" stroke="black" points="40.5,-0.5 40.5,-21.5 141.5,-21.5 141.5,-0.5 40.5,-0.5"/>
<text text-anchor="middle" x="91" y="-8.5" font-family="Helvetica,sans-Serif" font-size="10.00">WindowMetaData</text>
</g>
<!-- Node2 -->
<g id="node2" class="node"><title>Node2</title>
<polygon fill="white" stroke="#bfbfbf" points="-0.5,-98.5 -0.5,-119.5 28.5,-119.5 28.5,-98.5 -0.5,-98.5"/>
<text text-anchor="middle" x="14" y="-106.5" font-family="Helvetica,sans-Serif" font-size="10.00">int</text>
</g>
<!-- Node2&#45;&gt;Node1 -->
<g id="edge2" class="edge"><title>Node2&#45;&gt;Node1</title>
<path fill="none" stroke="#9a32cd" stroke-dasharray="5,2" d="M8.52168,-87.8819C5.99069,-73.1606 5.36912,-53.7685 15,-40 19.6949,-33.2881 35.7395,-26.7045 51.8843,-21.511"/>
<polygon fill="#9a32cd" stroke="#9a32cd" points="5.18303,-89.0081 10.6912,-98.0585 12.0292,-87.5485 5.18303,-89.0081"/>
<text text-anchor="middle" x="81" y="-70.5" font-family="Helvetica,sans-Serif" font-size="10.00"> directRenderingOrientation</text>
<text text-anchor="middle" x="81" y="-57.5" font-family="Helvetica,sans-Serif" font-size="10.00">directRenderingScreenX</text>
<text text-anchor="middle" x="81" y="-44.5" font-family="Helvetica,sans-Serif" font-size="10.00">directRenderingScreenY</text>
</g>
<!-- Node3 -->
<g id="node4" class="node"><title>Node3</title>
<polygon fill="white" stroke="#bfbfbf" points="151,-98.5 151,-119.5 187,-119.5 187,-98.5 151,-98.5"/>
<text text-anchor="middle" x="169" y="-106.5" font-family="Helvetica,sans-Serif" font-size="10.00">bool</text>
</g>
<!-- Node3&#45;&gt;Node1 -->
<g id="edge4" class="edge"><title>Node3&#45;&gt;Node1</title>
<path fill="none" stroke="#9a32cd" stroke-dasharray="5,2" d="M166.638,-88.2068C164.011,-73.3401 158.5,-53.6313 147,-40 140.293,-32.0502 130.852,-26.0071 121.63,-21.5502"/>
<polygon fill="#9a32cd" stroke="#9a32cd" points="163.226,-89.0628 168.137,-98.4507 170.152,-88.0493 163.226,-89.0628"/>
<text text-anchor="middle" x="216.5" y="-57.5" font-family="Helvetica,sans-Serif" font-size="10.00"> allowDirectRendering</text>
</g>
</g>
</svg>
