<?xml version="1.0" encoding="UTF-8" standalone="no"?>
<!DOCTYPE svg PUBLIC "-//W3C//DTD SVG 1.1//EN"
 "http://www.w3.org/Graphics/SVG/1.1/DTD/svg11.dtd">
<!-- Generated by graphviz version 2.26.3 (20100126.1600)
 -->
<!-- Title: KeyMapType Pages: 1 -->
<svg width="116pt" height="180pt"
 viewBox="0.00 0.00 116.00 180.00" xmlns="http://www.w3.org/2000/svg" xmlns:xlink="http://www.w3.org/1999/xlink">
<g id="graph1" class="graph" transform="scale(1 1) rotate(0) translate(4 176)">
<title>KeyMapType</title>
<polygon fill="white" stroke="white" points="-4,5 -4,-176 113,-176 113,5 -4,5"/>
<!-- Node1 -->
<g id="node1" class="node"><title>Node1</title>
<polygon fill="#bfbfbf" stroke="black" points="0,-0.5 0,-21.5 80,-21.5 80,-0.5 0,-0.5"/>
<text text-anchor="middle" x="40" y="-8.5" font-family="Helvetica,sans-Serif" font-size="10.00">KeyMapType</text>
</g>
<!-- Node2 -->
<g id="node2" class="node"><title>Node2</title>
<polygon fill="white" stroke="#bfbfbf" points="25.5,-150.5 25.5,-171.5 54.5,-171.5 54.5,-150.5 25.5,-150.5"/>
<text text-anchor="middle" x="40" y="-158.5" font-family="Helvetica,sans-Serif" font-size="10.00">int</text>
</g>
<!-- Node2&#45;&gt;Node1 -->
<g id="edge2" class="edge"><title>Node2&#45;&gt;Node1</title>
<path fill="none" stroke="#9a32cd" stroke-dasharray="5,2" d="M40,-140.041C40,-107.588 40,-46.3507 40,-21.6899"/>
<polygon fill="#9a32cd" stroke="#9a32cd" points="36.5001,-140.212 40,-150.212 43.5001,-140.212 36.5001,-140.212"/>
<text text-anchor="middle" x="74" y="-122.5" font-family="Helvetica,sans-Serif" font-size="10.00"> qtKey</text>
<text text-anchor="middle" x="74" y="-109.5" font-family="Helvetica,sans-Serif" font-size="10.00">normal</text>
<text text-anchor="middle" x="74" y="-96.5" font-family="Helvetica,sans-Serif" font-size="10.00">shift</text>
<text text-anchor="middle" x="74" y="-83.5" font-family="Helvetica,sans-Serif" font-size="10.00">devicekey</text>
<text text-anchor="middle" x="74" y="-70.5" font-family="Helvetica,sans-Serif" font-size="10.00">qtKeyOpt</text>
<text text-anchor="middle" x="74" y="-57.5" font-family="Helvetica,sans-Serif" font-size="10.00">opt</text>
<text text-anchor="middle" x="74" y="-44.5" font-family="Helvetica,sans-Serif" font-size="10.00">virtualkeycode</text>
</g>
</g>
</svg>
