<?xml version="1.0" encoding="UTF-8" standalone="no"?>
<!DOCTYPE svg PUBLIC "-//W3C//DTD SVG 1.1//EN"
 "http://www.w3.org/Graphics/SVG/1.1/DTD/svg11.dtd">
<!-- Generated by graphviz version 2.26.3 (20100126.1600)
 -->
<!-- Title: Palm::DbBackupStatus Pages: 1 -->
<svg width="128pt" height="102pt"
 viewBox="0.00 0.00 128.00 102.00" xmlns="http://www.w3.org/2000/svg" xmlns:xlink="http://www.w3.org/1999/xlink">
<g id="graph1" class="graph" transform="scale(1 1) rotate(0) translate(4 98)">
<title>Palm::DbBackupStatus</title>
<polygon fill="white" stroke="white" points="-4,5 -4,-98 125,-98 125,5 -4,5"/>
<!-- Node1 -->
<g id="node1" class="node"><title>Node1</title>
<polygon fill="#bfbfbf" stroke="black" points="-0.5,-0.5 -0.5,-21.5 120.5,-21.5 120.5,-0.5 -0.5,-0.5"/>
<text text-anchor="middle" x="60" y="-8.5" font-family="Helvetica,sans-Serif" font-size="10.00">Palm::DbBackupStatus</text>
</g>
<!-- Node2 -->
<g id="node2" class="node"><title>Node2</title>
<polygon fill="white" stroke="#bfbfbf" points="19.5,-72.5 19.5,-93.5 48.5,-93.5 48.5,-72.5 19.5,-72.5"/>
<text text-anchor="middle" x="34" y="-80.5" font-family="Helvetica,sans-Serif" font-size="10.00">int</text>
</g>
<!-- Node2&#45;&gt;Node1 -->
<g id="edge2" class="edge"><title>Node2&#45;&gt;Node1</title>
<path fill="none" stroke="#9a32cd" stroke-dasharray="5,2" d="M40.2712,-62.641C42.5816,-55.4459 45.297,-47.324 48,-40 50.2638,-33.8659 53.042,-27.1105 55.355,-21.664"/>
<polygon fill="#9a32cd" stroke="#9a32cd" points="36.8891,-61.7289 37.2247,-72.3184 43.5661,-63.8309 36.8891,-61.7289"/>
<text text-anchor="middle" x="56.5" y="-44.5" font-family="Helvetica,sans-Serif" font-size="10.00"> err</text>
</g>
<!-- Node3 -->
<g id="node4" class="node"><title>Node3</title>
<polygon fill="white" stroke="#bfbfbf" points="65.5,-72.5 65.5,-93.5 108.5,-93.5 108.5,-72.5 65.5,-72.5"/>
<text text-anchor="middle" x="87" y="-80.5" font-family="Helvetica,sans-Serif" font-size="10.00">string</text>
</g>
<!-- Node3&#45;&gt;Node1 -->
<g id="edge4" class="edge"><title>Node3&#45;&gt;Node1</title>
<path fill="none" stroke="#9a32cd" stroke-dasharray="5,2" d="M79.3619,-62.6318C74.3635,-49.3026 68.0345,-32.4253 64.0003,-21.6674"/>
<polygon fill="#9a32cd" stroke="#9a32cd" points="76.2276,-64.2418 83.0161,-72.3762 82.7819,-61.7839 76.2276,-64.2418"/>
<text text-anchor="middle" x="82.5" y="-44.5" font-family="Helvetica,sans-Serif" font-size="10.00"> url</text>
</g>
</g>
</svg>
