<?xml version="1.0" encoding="UTF-8" standalone="no"?>
<!DOCTYPE svg PUBLIC "-//W3C//DTD SVG 1.1//EN"
 "http://www.w3.org/Graphics/SVG/1.1/DTD/svg11.dtd">
<!-- Generated by graphviz version 2.26.3 (20100126.1600)
 -->
<!-- Title: SyncTask.h Pages: 1 -->
<svg width="2168pt" height="160pt"
 viewBox="0.00 0.00 2168.00 160.00" xmlns="http://www.w3.org/2000/svg" xmlns:xlink="http://www.w3.org/1999/xlink">
<g id="graph1" class="graph" transform="scale(1 1) rotate(0) translate(4 156)">
<title>SyncTask.h</title>
<polygon fill="white" stroke="white" points="-4,5 -4,-156 2165,-156 2165,5 -4,5"/>
<!-- Node1 -->
<g id="node1" class="node"><title>Node1</title>
<polygon fill="#bfbfbf" stroke="black" points="1197.5,-130.5 1197.5,-151.5 1268.5,-151.5 1268.5,-130.5 1197.5,-130.5"/>
<text text-anchor="middle" x="1233" y="-138.5" font-family="Helvetica,sans-Serif" font-size="10.00">SyncTask.h</text>
</g>
<!-- Node2 -->
<g id="node3" class="node"><title>Node2</title>
<a xlink:href="SyncTask_8cpp.htm" target="_top" xlink:title="SyncTask.cpp">
<polygon fill="white" stroke="black" points="1079.5,-72.5 1079.5,-93.5 1162.5,-93.5 1162.5,-72.5 1079.5,-72.5"/>
<text text-anchor="middle" x="1121" y="-80.5" font-family="Helvetica,sans-Serif" font-size="10.00">SyncTask.cpp</text>
</a>
</g>
<!-- Node1&#45;&gt;Node2 -->
<g id="edge2" class="edge"><title>Node1&#45;&gt;Node2</title>
<path fill="none" stroke="midnightblue" d="M1203.64,-125.794C1184.1,-115.675 1158.91,-102.634 1141.51,-93.6212"/>
<polygon fill="midnightblue" stroke="midnightblue" points="1202.23,-129.006 1212.72,-130.497 1205.45,-122.79 1202.23,-129.006"/>
</g>
<!-- Node3 -->
<g id="node5" class="node"><title>Node3</title>
<a xlink:href="WebAppManager_8h.htm" target="_top" xlink:title="WebAppManager.h">
<polygon fill="white" stroke="black" points="1179.5,-72.5 1179.5,-93.5 1286.5,-93.5 1286.5,-72.5 1179.5,-72.5"/>
<text text-anchor="middle" x="1233" y="-80.5" font-family="Helvetica,sans-Serif" font-size="10.00">WebAppManager.h</text>
</a>
</g>
<!-- Node1&#45;&gt;Node3 -->
<g id="edge4" class="edge"><title>Node1&#45;&gt;Node3</title>
<path fill="none" stroke="midnightblue" d="M1233,-120.191C1233,-111.168 1233,-100.994 1233,-93.5707"/>
<polygon fill="midnightblue" stroke="midnightblue" points="1229.5,-120.362 1233,-130.362 1236.5,-120.362 1229.5,-120.362"/>
</g>
<!-- Node20 -->
<g id="node39" class="node"><title>Node20</title>
<a xlink:href="ProcessManager_8h.htm" target="_top" xlink:title="ProcessManager.h">
<polygon fill="white" stroke="black" points="1913,-72.5 1913,-93.5 2019,-93.5 2019,-72.5 1913,-72.5"/>
<text text-anchor="middle" x="1966" y="-80.5" font-family="Helvetica,sans-Serif" font-size="10.00">ProcessManager.h</text>
</a>
</g>
<!-- Node1&#45;&gt;Node20 -->
<g id="edge38" class="edge"><title>Node1&#45;&gt;Node20</title>
<path fill="none" stroke="midnightblue" d="M1279.21,-137.344C1408.76,-127.092 1775.01,-98.1122 1912.75,-87.2138"/>
<polygon fill="midnightblue" stroke="midnightblue" points="1278.54,-133.885 1268.85,-138.163 1279.1,-140.863 1278.54,-133.885"/>
</g>
<!-- Node4 -->
<g id="node7" class="node"><title>Node4</title>
<a xlink:href="CardWebApp_8cpp.htm" target="_top" xlink:title="CardWebApp.cpp">
<polygon fill="white" stroke="black" points="1183.5,-7.5 1183.5,-28.5 1282.5,-28.5 1282.5,-7.5 1183.5,-7.5"/>
<text text-anchor="middle" x="1233" y="-15.5" font-family="Helvetica,sans-Serif" font-size="10.00">CardWebApp.cpp</text>
</a>
</g>
<!-- Node3&#45;&gt;Node4 -->
<g id="edge6" class="edge"><title>Node3&#45;&gt;Node4</title>
<path fill="none" stroke="midnightblue" d="M1233,-62.0142C1233,-50.8307 1233,-37.5583 1233,-28.5337"/>
<polygon fill="midnightblue" stroke="midnightblue" points="1229.5,-62.2665 1233,-72.2666 1236.5,-62.2666 1229.5,-62.2665"/>
</g>
<!-- Node5 -->
<g id="node9" class="node"><title>Node5</title>
<a xlink:href="DockWebApp_8cpp.htm" target="_top" xlink:title="DockWebApp.cpp">
<polygon fill="white" stroke="black" points="1300,-7.5 1300,-28.5 1400,-28.5 1400,-7.5 1300,-7.5"/>
<text text-anchor="middle" x="1350" y="-15.5" font-family="Helvetica,sans-Serif" font-size="10.00">DockWebApp.cpp</text>
</a>
</g>
<!-- Node3&#45;&gt;Node5 -->
<g id="edge8" class="edge"><title>Node3&#45;&gt;Node5</title>
<path fill="none" stroke="midnightblue" d="M1260.8,-67.5541C1282.45,-55.5291 1311.92,-39.1581 1330.95,-28.5835"/>
<polygon fill="midnightblue" stroke="midnightblue" points="1259.1,-64.4959 1252.06,-72.412 1262.5,-70.615 1259.1,-64.4959"/>
</g>
<!-- Node6 -->
<g id="node11" class="node"><title>Node6</title>
<a xlink:href="AlertWebApp_8cpp.htm" target="_top" xlink:title="AlertWebApp.cpp">
<polygon fill="white" stroke="black" points="1418,-7.5 1418,-28.5 1516,-28.5 1516,-7.5 1418,-7.5"/>
<text text-anchor="middle" x="1467" y="-15.5" font-family="Helvetica,sans-Serif" font-size="10.00">AlertWebApp.cpp</text>
</a>
</g>
<!-- Node3&#45;&gt;Node6 -->
<g id="edge10" class="edge"><title>Node3&#45;&gt;Node6</title>
<path fill="none" stroke="midnightblue" d="M1284.41,-69.8483C1319.59,-60.7086 1367.24,-48.051 1409,-36 1417.1,-33.6615 1425.81,-31.0267 1433.94,-28.5092"/>
<polygon fill="midnightblue" stroke="midnightblue" points="1283.18,-66.552 1274.38,-72.4481 1284.94,-73.3283 1283.18,-66.552"/>
</g>
<!-- Node7 -->
<g id="node13" class="node"><title>Node7</title>
<a xlink:href="DashboardWebApp_8cpp.htm" target="_top" xlink:title="DashboardWebApp.cpp">
<polygon fill="white" stroke="black" points="1534,-7.5 1534,-28.5 1662,-28.5 1662,-7.5 1534,-7.5"/>
<text text-anchor="middle" x="1598" y="-15.5" font-family="Helvetica,sans-Serif" font-size="10.00">DashboardWebApp.cpp</text>
</a>
</g>
<!-- Node3&#45;&gt;Node7 -->
<g id="edge12" class="edge"><title>Node3&#45;&gt;Node7</title>
<path fill="none" stroke="midnightblue" d="M1296.49,-74.3158C1355.83,-65.8378 1446.76,-51.9156 1525,-36 1535.62,-33.8405 1547.02,-31.1891 1557.59,-28.5919"/>
<polygon fill="midnightblue" stroke="midnightblue" points="1295.93,-70.8606 1286.52,-75.7319 1296.91,-77.791 1295.93,-70.8606"/>
</g>
<!-- Node8 -->
<g id="node15" class="node"><title>Node8</title>
<a xlink:href="WebAppFactoryLuna_8cpp.htm" target="_top" xlink:title="WebAppFactoryLuna.cpp">
<polygon fill="white" stroke="black" points="1680,-7.5 1680,-28.5 1814,-28.5 1814,-7.5 1680,-7.5"/>
<text text-anchor="middle" x="1747" y="-15.5" font-family="Helvetica,sans-Serif" font-size="10.00">WebAppFactoryLuna.cpp</text>
</a>
</g>
<!-- Node3&#45;&gt;Node8 -->
<g id="edge14" class="edge"><title>Node3&#45;&gt;Node8</title>
<path fill="none" stroke="midnightblue" d="M1296.64,-78.6919C1382.18,-72.3269 1538.81,-58.6548 1671,-36 1682.63,-34.0074 1695.13,-31.2902 1706.57,-28.5711"/>
<polygon fill="midnightblue" stroke="midnightblue" points="1296.28,-75.2086 1286.56,-79.432 1296.79,-82.1897 1296.28,-75.2086"/>
</g>
<!-- Node9 -->
<g id="node17" class="node"><title>Node9</title>
<a xlink:href="Main_8cpp.htm" target="_top" xlink:title="Main.cpp">
<polygon fill="white" stroke="black" points="1831.5,-7.5 1831.5,-28.5 1890.5,-28.5 1890.5,-7.5 1831.5,-7.5"/>
<text text-anchor="middle" x="1861" y="-15.5" font-family="Helvetica,sans-Serif" font-size="10.00">Main.cpp</text>
</a>
</g>
<!-- Node3&#45;&gt;Node9 -->
<g id="edge16" class="edge"><title>Node3&#45;&gt;Node9</title>
<path fill="none" stroke="midnightblue" d="M1297.15,-80.8159C1428.79,-75.8565 1725.25,-62.1004 1823,-36 1829.49,-34.2674 1836.22,-31.4554 1842.18,-28.5636"/>
<polygon fill="midnightblue" stroke="midnightblue" points="1296.69,-77.3306 1286.83,-81.1995 1296.95,-84.3257 1296.69,-77.3306"/>
</g>
<!-- Node10 -->
<g id="node19" class="node"><title>Node10</title>
<a xlink:href="WebAppFactoryMinimal_8cpp.htm" target="_top" xlink:title="WebAppFactoryMinimal.cpp">
<polygon fill="white" stroke="black" points="-0.5,-7.5 -0.5,-28.5 146.5,-28.5 146.5,-7.5 -0.5,-7.5"/>
<text text-anchor="middle" x="73" y="-15.5" font-family="Helvetica,sans-Serif" font-size="10.00">WebAppFactoryMinimal.cpp</text>
</a>
</g>
<!-- Node3&#45;&gt;Node10 -->
<g id="edge18" class="edge"><title>Node3&#45;&gt;Node10</title>
<path fill="none" stroke="midnightblue" d="M1169.3,-71.9485C719.921,-25.4101 599.988,-92.2548 155,-36 141.552,-34.2999 127.053,-31.4596 114.042,-28.5318"/>
<polygon fill="midnightblue" stroke="midnightblue" points="1168.99,-75.4352 1179.3,-72.9973 1169.72,-68.4733 1168.99,-75.4352"/>
</g>
<!-- Node11 -->
<g id="node21" class="node"><title>Node11</title>
<a xlink:href="MemoryWatcher_8cpp.htm" target="_top" xlink:title="MemoryWatcher.cpp">
<polygon fill="white" stroke="black" points="164,-7.5 164,-28.5 278,-28.5 278,-7.5 164,-7.5"/>
<text text-anchor="middle" x="221" y="-15.5" font-family="Helvetica,sans-Serif" font-size="10.00">MemoryWatcher.cpp</text>
</a>
</g>
<!-- Node3&#45;&gt;Node11 -->
<g id="edge20" class="edge"><title>Node3&#45;&gt;Node11</title>
<path fill="none" stroke="midnightblue" d="M1169.13,-71.9247C778.276,-30.6861 672.272,-95.599 287,-36 276.084,-34.3114 264.389,-31.4742 253.922,-28.5457"/>
<polygon fill="midnightblue" stroke="midnightblue" points="1168.98,-75.429 1179.3,-73.0148 1169.73,-68.4689 1168.98,-75.429"/>
</g>
<!-- Node12 -->
<g id="node23" class="node"><title>Node12</title>
<a xlink:href="PalmSystem_8cpp.htm" target="_top" xlink:title="PalmSystem.cpp">
<polygon fill="white" stroke="black" points="296,-7.5 296,-28.5 390,-28.5 390,-7.5 296,-7.5"/>
<text text-anchor="middle" x="343" y="-15.5" font-family="Helvetica,sans-Serif" font-size="10.00">PalmSystem.cpp</text>
</a>
</g>
<!-- Node3&#45;&gt;Node12 -->
<g id="edge22" class="edge"><title>Node3&#45;&gt;Node12</title>
<path fill="none" stroke="midnightblue" d="M1169.12,-71.9174C827.801,-35.1409 733.707,-96.4911 399,-36 389.654,-34.3109 379.708,-31.4736 370.831,-28.5451"/>
<polygon fill="midnightblue" stroke="midnightblue" points="1168.97,-75.4218 1179.29,-73.0344 1169.73,-68.4636 1168.97,-75.4218"/>
</g>
<!-- Node13 -->
<g id="node25" class="node"><title>Node13</title>
<a xlink:href="ProcessManager_8cpp.htm" target="_top" xlink:title="ProcessManager.cpp">
<polygon fill="white" stroke="black" points="1907.5,-7.5 1907.5,-28.5 2024.5,-28.5 2024.5,-7.5 1907.5,-7.5"/>
<text text-anchor="middle" x="1966" y="-15.5" font-family="Helvetica,sans-Serif" font-size="10.00">ProcessManager.cpp</text>
</a>
</g>
<!-- Node3&#45;&gt;Node13 -->
<g id="edge24" class="edge"><title>Node3&#45;&gt;Node13</title>
<path fill="none" stroke="midnightblue" d="M1297.21,-80.0437C1440.84,-73.1753 1784.41,-55.2518 1899,-36 1909.81,-34.184 1921.4,-31.3846 1931.85,-28.5304"/>
<polygon fill="midnightblue" stroke="midnightblue" points="1296.64,-76.5672 1286.81,-80.5385 1296.97,-83.5593 1296.64,-76.5672"/>
</g>
<!-- Node14 -->
<g id="node27" class="node"><title>Node14</title>
<a xlink:href="RemoteWindowDataOpenGLQt_8cpp.htm" target="_top" xlink:title="RemoteWindowDataOpenGLQt.cpp">
<polygon fill="white" stroke="black" points="407.5,-7.5 407.5,-28.5 592.5,-28.5 592.5,-7.5 407.5,-7.5"/>
<text text-anchor="middle" x="500" y="-15.5" font-family="Helvetica,sans-Serif" font-size="10.00">RemoteWindowDataOpenGLQt.cpp</text>
</a>
</g>
<!-- Node3&#45;&gt;Node14 -->
<g id="edge26" class="edge"><title>Node3&#45;&gt;Node14</title>
<path fill="none" stroke="midnightblue" d="M1169.09,-71.8796C917.196,-42.418 849.699,-65.9173 601,-36 585.173,-34.0961 568.068,-31.3234 552.513,-28.522"/>
<polygon fill="midnightblue" stroke="midnightblue" points="1168.94,-75.3866 1179.29,-73.089 1169.77,-68.4353 1168.94,-75.3866"/>
</g>
<!-- Node15 -->
<g id="node29" class="node"><title>Node15</title>
<a xlink:href="RemoteWindowDataSoftwareQt_8cpp.htm" target="_top" xlink:title="RemoteWindowDataSoftware\lQt.cpp">
<polygon fill="white" stroke="black" points="609.5,-1 609.5,-35 764.5,-35 764.5,-1 609.5,-1"/>
<text text-anchor="start" x="617.5" y="-22" font-family="Helvetica,sans-Serif" font-size="10.00">RemoteWindowDataSoftware</text>
<text text-anchor="middle" x="687" y="-9" font-family="Helvetica,sans-Serif" font-size="10.00">Qt.cpp</text>
</a>
</g>
<!-- Node3&#45;&gt;Node15 -->
<g id="edge28" class="edge"><title>Node3&#45;&gt;Node15</title>
<path fill="none" stroke="midnightblue" d="M1169.16,-71.8424C993.193,-48.9623 945.403,-61.7504 773,-36 770.284,-35.5944 767.525,-35.1568 764.743,-34.6938"/>
<polygon fill="midnightblue" stroke="midnightblue" points="1168.9,-75.3393 1179.28,-73.1788 1169.82,-68.3996 1168.9,-75.3393"/>
</g>
<!-- Node16 -->
<g id="node31" class="node"><title>Node16</title>
<a xlink:href="SysMgrWebBridge_8cpp.htm" target="_top" xlink:title="SysMgrWebBridge.cpp">
<polygon fill="white" stroke="black" points="782,-7.5 782,-28.5 906,-28.5 906,-7.5 782,-7.5"/>
<text text-anchor="middle" x="844" y="-15.5" font-family="Helvetica,sans-Serif" font-size="10.00">SysMgrWebBridge.cpp</text>
</a>
</g>
<!-- Node3&#45;&gt;Node16 -->
<g id="edge30" class="edge"><title>Node3&#45;&gt;Node16</title>
<path fill="none" stroke="midnightblue" d="M1169.13,-71.7513C1055.77,-54.1775 1024.55,-57.5231 915,-36 904.394,-33.9162 893.003,-31.2318 882.519,-28.5753"/>
<polygon fill="midnightblue" stroke="midnightblue" points="1168.83,-75.2474 1179.25,-73.3423 1169.92,-68.3322 1168.83,-75.2474"/>
</g>
<!-- Node17 -->
<g id="node33" class="node"><title>Node17</title>
<a xlink:href="WebAppBase_8cpp.htm" target="_top" xlink:title="WebAppBase.cpp">
<polygon fill="white" stroke="black" points="924,-7.5 924,-28.5 1024,-28.5 1024,-7.5 924,-7.5"/>
<text text-anchor="middle" x="974" y="-15.5" font-family="Helvetica,sans-Serif" font-size="10.00">WebAppBase.cpp</text>
</a>
</g>
<!-- Node3&#45;&gt;Node17 -->
<g id="edge32" class="edge"><title>Node3&#45;&gt;Node17</title>
<path fill="none" stroke="midnightblue" d="M1174.43,-70.294C1134.42,-61.3574 1080.3,-48.7592 1033,-36 1024.62,-33.741 1015.64,-31.1094 1007.28,-28.5673"/>
<polygon fill="midnightblue" stroke="midnightblue" points="1173.76,-73.7309 1184.28,-72.485 1175.28,-66.8978 1173.76,-73.7309"/>
</g>
<!-- Node18 -->
<g id="node35" class="node"><title>Node18</title>
<a xlink:href="WebAppManager_8cpp.htm" target="_top" xlink:title="WebAppManager.cpp">
<polygon fill="white" stroke="black" points="2041.5,-7.5 2041.5,-28.5 2160.5,-28.5 2160.5,-7.5 2041.5,-7.5"/>
<text text-anchor="middle" x="2101" y="-15.5" font-family="Helvetica,sans-Serif" font-size="10.00">WebAppManager.cpp</text>
</a>
</g>
<!-- Node3&#45;&gt;Node18 -->
<g id="edge34" class="edge"><title>Node3&#45;&gt;Node18</title>
<path fill="none" stroke="midnightblue" d="M1297.07,-80.8918C1460.83,-75.2382 1891.68,-58.6211 2033,-36 2044.09,-34.2242 2056,-31.4 2066.69,-28.5103"/>
<polygon fill="midnightblue" stroke="midnightblue" points="1296.55,-77.4075 1286.68,-81.2483 1296.79,-84.4034 1296.55,-77.4075"/>
</g>
<!-- Node19 -->
<g id="node37" class="node"><title>Node19</title>
<a xlink:href="WindowedWebApp_8cpp.htm" target="_top" xlink:title="WindowedWebApp.cpp">
<polygon fill="white" stroke="black" points="1041.5,-7.5 1041.5,-28.5 1166.5,-28.5 1166.5,-7.5 1041.5,-7.5"/>
<text text-anchor="middle" x="1104" y="-15.5" font-family="Helvetica,sans-Serif" font-size="10.00">WindowedWebApp.cpp</text>
</a>
</g>
<!-- Node3&#45;&gt;Node19 -->
<g id="edge36" class="edge"><title>Node3&#45;&gt;Node19</title>
<path fill="none" stroke="midnightblue" d="M1202.98,-67.8751C1179.06,-55.8219 1146.18,-39.2525 1125,-28.5835"/>
<polygon fill="midnightblue" stroke="midnightblue" points="1201.48,-71.0377 1211.99,-72.412 1204.63,-64.7865 1201.48,-71.0377"/>
</g>
<!-- Node20&#45;&gt;Node13 -->
<g id="edge40" class="edge"><title>Node20&#45;&gt;Node13</title>
<path fill="none" stroke="midnightblue" d="M1966,-62.0142C1966,-50.8307 1966,-37.5583 1966,-28.5337"/>
<polygon fill="midnightblue" stroke="midnightblue" points="1962.5,-62.2665 1966,-72.2666 1969.5,-62.2666 1962.5,-62.2665"/>
</g>
<!-- Node20&#45;&gt;Node18 -->
<g id="edge42" class="edge"><title>Node20&#45;&gt;Node18</title>
<path fill="none" stroke="midnightblue" d="M1997.08,-68.0348C2022.14,-55.9686 2056.76,-39.2997 2079.02,-28.5835"/>
<polygon fill="midnightblue" stroke="midnightblue" points="1995.48,-64.9202 1987.99,-72.412 1998.52,-71.2273 1995.48,-64.9202"/>
</g>
</g>
</svg>
