<?xml version="1.0" encoding="UTF-8" standalone="no"?>
<!DOCTYPE svg PUBLIC "-//W3C//DTD SVG 1.1//EN"
 "http://www.w3.org/Graphics/SVG/1.1/DTD/svg11.dtd">
<!-- Generated by graphviz version 2.26.3 (20100126.1600)
 -->
<!-- Title: SyncTask.h Pages: 1 -->
<svg width="164pt" height="88pt"
 viewBox="0.00 0.00 164.00 88.00" xmlns="http://www.w3.org/2000/svg" xmlns:xlink="http://www.w3.org/1999/xlink">
<g id="graph1" class="graph" transform="scale(1 1) rotate(0) translate(4 84)">
<title>SyncTask.h</title>
<polygon fill="white" stroke="white" points="-4,5 -4,-84 161,-84 161,5 -4,5"/>
<!-- Node1 -->
<g id="node1" class="node"><title>Node1</title>
<polygon fill="#bfbfbf" stroke="black" points="40.5,-58.5 40.5,-79.5 111.5,-79.5 111.5,-58.5 40.5,-58.5"/>
<text text-anchor="middle" x="76" y="-66.5" font-family="Helvetica,sans-Serif" font-size="10.00">SyncTask.h</text>
</g>
<!-- Node2 -->
<g id="node3" class="node"><title>Node2</title>
<polygon fill="white" stroke="#bfbfbf" points="-0.5,-0.5 -0.5,-21.5 66.5,-21.5 66.5,-0.5 -0.5,-0.5"/>
<text text-anchor="middle" x="33" y="-8.5" font-family="Helvetica,sans-Serif" font-size="10.00">Common.h</text>
</g>
<!-- Node1&#45;&gt;Node2 -->
<g id="edge2" class="edge"><title>Node1&#45;&gt;Node2</title>
<path fill="none" stroke="midnightblue" d="M68.1131,-58.3619C62.173,-50.3496 53.8776,-39.1605 46.8412,-29.6696"/>
<polygon fill="midnightblue" stroke="midnightblue" points="49.6041,-27.5193 40.8369,-21.5707 43.9809,-31.6883 49.6041,-27.5193"/>
</g>
<!-- Node3 -->
<g id="node5" class="node"><title>Node3</title>
<polygon fill="white" stroke="#bfbfbf" points="84,-0.5 84,-21.5 156,-21.5 156,-0.5 84,-0.5"/>
<text text-anchor="middle" x="120" y="-8.5" font-family="Helvetica,sans-Serif" font-size="10.00">TaskBase.h</text>
</g>
<!-- Node1&#45;&gt;Node3 -->
<g id="edge4" class="edge"><title>Node1&#45;&gt;Node3</title>
<path fill="none" stroke="midnightblue" d="M84.0703,-58.3619C90.1486,-50.3496 98.6369,-39.1605 105.837,-29.6696"/>
<polygon fill="midnightblue" stroke="midnightblue" points="108.725,-31.653 111.981,-21.5707 103.149,-27.4222 108.725,-31.653"/>
</g>
</g>
</svg>
