<?xml version="1.0" encoding="UTF-8" standalone="no"?>
<!DOCTYPE svg PUBLIC "-//W3C//DTD SVG 1.1//EN"
 "http://www.w3.org/Graphics/SVG/1.1/DTD/svg11.dtd">
<!-- Generated by graphviz version 2.26.3 (20100126.1600)
 -->
<!-- Title: SyncTask.cpp Pages: 1 -->
<svg width="331pt" height="146pt"
 viewBox="0.00 0.00 331.00 146.00" xmlns="http://www.w3.org/2000/svg" xmlns:xlink="http://www.w3.org/1999/xlink">
<g id="graph1" class="graph" transform="scale(1 1) rotate(0) translate(4 142)">
<title>SyncTask.cpp</title>
<polygon fill="white" stroke="white" points="-4,5 -4,-142 328,-142 328,5 -4,5"/>
<!-- Node1 -->
<g id="node1" class="node"><title>Node1</title>
<polygon fill="#bfbfbf" stroke="black" points="98.5,-116.5 98.5,-137.5 181.5,-137.5 181.5,-116.5 98.5,-116.5"/>
<text text-anchor="middle" x="140" y="-124.5" font-family="Helvetica,sans-Serif" font-size="10.00">SyncTask.cpp</text>
</g>
<!-- Node2 -->
<g id="node3" class="node"><title>Node2</title>
<polygon fill="white" stroke="#bfbfbf" points="-0.5,-0.5 -0.5,-21.5 66.5,-21.5 66.5,-0.5 -0.5,-0.5"/>
<text text-anchor="middle" x="33" y="-8.5" font-family="Helvetica,sans-Serif" font-size="10.00">Common.h</text>
</g>
<!-- Node1&#45;&gt;Node2 -->
<g id="edge2" class="edge"><title>Node1&#45;&gt;Node2</title>
<path fill="none" stroke="midnightblue" d="M106.384,-116.487C87.8449,-109.065 65.8449,-97.3155 52,-80 40.9939,-66.235 36.3513,-46.5406 34.3992,-31.7134"/>
<polygon fill="midnightblue" stroke="midnightblue" points="37.8554,-31.1011 33.3702,-21.5025 30.8906,-31.8031 37.8554,-31.1011"/>
</g>
<!-- Node3 -->
<g id="node5" class="node"><title>Node3</title>
<a xlink:href="SyncTask_8h.htm" target="_top" xlink:title="SyncTask.h">
<polygon fill="white" stroke="black" points="60.5,-58.5 60.5,-79.5 131.5,-79.5 131.5,-58.5 60.5,-58.5"/>
<text text-anchor="middle" x="96" y="-66.5" font-family="Helvetica,sans-Serif" font-size="10.00">SyncTask.h</text>
</a>
</g>
<!-- Node1&#45;&gt;Node3 -->
<g id="edge4" class="edge"><title>Node1&#45;&gt;Node3</title>
<path fill="none" stroke="midnightblue" d="M131.93,-116.362C125.851,-108.35 117.363,-97.1605 110.163,-87.6696"/>
<polygon fill="midnightblue" stroke="midnightblue" points="112.851,-85.4222 104.019,-79.5707 107.275,-89.653 112.851,-85.4222"/>
</g>
<!-- Node5 -->
<g id="node10" class="node"><title>Node5</title>
<polygon fill="white" stroke="#bfbfbf" points="148.5,-58.5 148.5,-79.5 219.5,-79.5 219.5,-58.5 148.5,-58.5"/>
<text text-anchor="middle" x="184" y="-66.5" font-family="Helvetica,sans-Serif" font-size="10.00">HostBase.h</text>
</g>
<!-- Node1&#45;&gt;Node5 -->
<g id="edge10" class="edge"><title>Node1&#45;&gt;Node5</title>
<path fill="none" stroke="midnightblue" d="M148.07,-116.362C154.149,-108.35 162.637,-97.1605 169.837,-87.6696"/>
<polygon fill="midnightblue" stroke="midnightblue" points="172.725,-89.653 175.981,-79.5707 167.149,-85.4222 172.725,-89.653"/>
</g>
<!-- Node6 -->
<g id="node12" class="node"><title>Node6</title>
<polygon fill="white" stroke="#bfbfbf" points="237,-58.5 237,-79.5 323,-79.5 323,-58.5 237,-58.5"/>
<text text-anchor="middle" x="280" y="-66.5" font-family="Helvetica,sans-Serif" font-size="10.00">MutexLocker.h</text>
</g>
<!-- Node1&#45;&gt;Node6 -->
<g id="edge12" class="edge"><title>Node1&#45;&gt;Node6</title>
<path fill="none" stroke="midnightblue" d="M165.353,-116.497C187.613,-107.275 220.212,-93.7695 244.963,-83.5153"/>
<polygon fill="midnightblue" stroke="midnightblue" points="246.464,-86.6822 254.363,-79.6212 243.784,-80.2152 246.464,-86.6822"/>
</g>
<!-- Node3&#45;&gt;Node2 -->
<g id="edge6" class="edge"><title>Node3&#45;&gt;Node2</title>
<path fill="none" stroke="midnightblue" d="M84.4448,-58.3619C75.3866,-50.0226 62.5903,-38.2418 52.0263,-28.5162"/>
<polygon fill="midnightblue" stroke="midnightblue" points="54.2095,-25.7688 44.4819,-21.5707 49.4683,-30.9187 54.2095,-25.7688"/>
</g>
<!-- Node4 -->
<g id="node8" class="node"><title>Node4</title>
<polygon fill="white" stroke="#bfbfbf" points="84,-0.5 84,-21.5 156,-21.5 156,-0.5 84,-0.5"/>
<text text-anchor="middle" x="120" y="-8.5" font-family="Helvetica,sans-Serif" font-size="10.00">TaskBase.h</text>
</g>
<!-- Node3&#45;&gt;Node4 -->
<g id="edge8" class="edge"><title>Node3&#45;&gt;Node4</title>
<path fill="none" stroke="midnightblue" d="M100.402,-58.3619C103.582,-50.6766 107.972,-40.0686 111.79,-30.8399"/>
<polygon fill="midnightblue" stroke="midnightblue" points="115.036,-32.1491 115.626,-21.5707 108.568,-29.4726 115.036,-32.1491"/>
</g>
</g>
</svg>
