<?xml version="1.0" encoding="UTF-8" standalone="no"?>
<!DOCTYPE svg PUBLIC "-//W3C//DTD SVG 1.1//EN"
 "http://www.w3.org/Graphics/SVG/1.1/DTD/svg11.dtd">
<!-- Generated by graphviz version 2.26.3 (20100126.1600)
 -->
<!-- Title: SysMgrWebBridge.h Pages: 1 -->
<svg width="574pt" height="146pt"
 viewBox="0.00 0.00 574.00 146.00" xmlns="http://www.w3.org/2000/svg" xmlns:xlink="http://www.w3.org/1999/xlink">
<g id="graph1" class="graph" transform="scale(1 1) rotate(0) translate(4 142)">
<title>SysMgrWebBridge.h</title>
<polygon fill="white" stroke="white" points="-4,5 -4,-142 571,-142 571,5 -4,5"/>
<!-- Node1 -->
<g id="node1" class="node"><title>Node1</title>
<polygon fill="#bfbfbf" stroke="black" points="230.5,-116.5 230.5,-137.5 343.5,-137.5 343.5,-116.5 230.5,-116.5"/>
<text text-anchor="middle" x="287" y="-124.5" font-family="Helvetica,sans-Serif" font-size="10.00">SysMgrWebBridge.h</text>
</g>
<!-- Node2 -->
<g id="node3" class="node"><title>Node2</title>
<a xlink:href="ProcessBase_8h.htm" target="_top" xlink:title="ProcessBase.h">
<polygon fill="white" stroke="black" points="27.5,-58.5 27.5,-79.5 114.5,-79.5 114.5,-58.5 27.5,-58.5"/>
<text text-anchor="middle" x="71" y="-66.5" font-family="Helvetica,sans-Serif" font-size="10.00">ProcessBase.h</text>
</a>
</g>
<!-- Node1&#45;&gt;Node2 -->
<g id="edge2" class="edge"><title>Node1&#45;&gt;Node2</title>
<path fill="none" stroke="midnightblue" d="M247.884,-116.497C212.06,-106.877 158.883,-92.5981 120.192,-82.209"/>
<polygon fill="midnightblue" stroke="midnightblue" points="120.755,-78.7362 110.189,-79.5231 118.94,-85.4967 120.755,-78.7362"/>
</g>
<!-- Node5 -->
<g id="node9" class="node"><title>Node5</title>
<polygon fill="white" stroke="#bfbfbf" points="131.5,-58.5 131.5,-79.5 192.5,-79.5 192.5,-58.5 131.5,-58.5"/>
<text text-anchor="middle" x="162" y="-66.5" font-family="Helvetica,sans-Serif" font-size="10.00">QtWebKit</text>
</g>
<!-- Node1&#45;&gt;Node5 -->
<g id="edge8" class="edge"><title>Node1&#45;&gt;Node5</title>
<path fill="none" stroke="midnightblue" d="M264.363,-116.497C244.752,-107.397 216.154,-94.1273 194.167,-83.9253"/>
<polygon fill="midnightblue" stroke="midnightblue" points="195.435,-80.6554 184.891,-79.6212 192.488,-87.0051 195.435,-80.6554"/>
</g>
<!-- Node6 -->
<g id="node11" class="node"><title>Node6</title>
<polygon fill="white" stroke="#bfbfbf" points="209.5,-58.5 209.5,-79.5 268.5,-79.5 268.5,-58.5 209.5,-58.5"/>
<text text-anchor="middle" x="239" y="-66.5" font-family="Helvetica,sans-Serif" font-size="10.00">QPointer</text>
</g>
<!-- Node1&#45;&gt;Node6 -->
<g id="edge10" class="edge"><title>Node1&#45;&gt;Node6</title>
<path fill="none" stroke="midnightblue" d="M278.196,-116.362C271.498,-108.268 262.116,-96.9318 254.211,-87.3796"/>
<polygon fill="midnightblue" stroke="midnightblue" points="256.82,-85.0431 247.748,-79.5707 251.427,-89.5061 256.82,-85.0431"/>
</g>
<!-- Node7 -->
<g id="node13" class="node"><title>Node7</title>
<polygon fill="white" stroke="#bfbfbf" points="286,-58.5 286,-79.5 384,-79.5 384,-58.5 286,-58.5"/>
<text text-anchor="middle" x="335" y="-66.5" font-family="Helvetica,sans-Serif" font-size="10.00">palmimedefines.h</text>
</g>
<!-- Node1&#45;&gt;Node7 -->
<g id="edge12" class="edge"><title>Node1&#45;&gt;Node7</title>
<path fill="none" stroke="midnightblue" d="M295.804,-116.362C302.502,-108.268 311.884,-96.9318 319.789,-87.3796"/>
<polygon fill="midnightblue" stroke="midnightblue" points="322.573,-89.5061 326.252,-79.5707 317.18,-85.0431 322.573,-89.5061"/>
</g>
<!-- Node8 -->
<g id="node15" class="node"><title>Node8</title>
<polygon fill="white" stroke="#bfbfbf" points="401.5,-58.5 401.5,-79.5 472.5,-79.5 472.5,-58.5 401.5,-58.5"/>
<text text-anchor="middle" x="437" y="-66.5" font-family="Helvetica,sans-Serif" font-size="10.00">QWebPage</text>
</g>
<!-- Node1&#45;&gt;Node8 -->
<g id="edge14" class="edge"><title>Node1&#45;&gt;Node8</title>
<path fill="none" stroke="midnightblue" d="M314.164,-116.497C338.3,-107.164 373.781,-93.4447 400.412,-83.1475"/>
<polygon fill="midnightblue" stroke="midnightblue" points="401.72,-86.394 409.785,-79.5231 399.196,-79.8651 401.72,-86.394"/>
</g>
<!-- Node9 -->
<g id="node17" class="node"><title>Node9</title>
<polygon fill="white" stroke="#bfbfbf" points="490,-58.5 490,-79.5 566,-79.5 566,-58.5 490,-58.5"/>
<text text-anchor="middle" x="528" y="-66.5" font-family="Helvetica,sans-Serif" font-size="10.00">QWebFrame</text>
</g>
<!-- Node1&#45;&gt;Node9 -->
<g id="edge16" class="edge"><title>Node1&#45;&gt;Node9</title>
<path fill="none" stroke="midnightblue" d="M330.643,-116.497C372.8,-106.351 436.497,-91.0216 480.05,-80.5399"/>
<polygon fill="midnightblue" stroke="midnightblue" points="480.937,-83.9263 489.841,-78.1835 479.3,-77.1206 480.937,-83.9263"/>
</g>
<!-- Node3 -->
<g id="node5" class="node"><title>Node3</title>
<polygon fill="white" stroke="#bfbfbf" points="-0.5,-0.5 -0.5,-21.5 66.5,-21.5 66.5,-0.5 -0.5,-0.5"/>
<text text-anchor="middle" x="33" y="-8.5" font-family="Helvetica,sans-Serif" font-size="10.00">Common.h</text>
</g>
<!-- Node2&#45;&gt;Node3 -->
<g id="edge4" class="edge"><title>Node2&#45;&gt;Node3</title>
<path fill="none" stroke="midnightblue" d="M64.0302,-58.3619C58.8343,-50.4313 51.5994,-39.3885 45.4225,-29.9606"/>
<polygon fill="midnightblue" stroke="midnightblue" points="48.3335,-28.0172 39.9256,-21.5707 42.4783,-31.8534 48.3335,-28.0172"/>
</g>
<!-- Node4 -->
<g id="node7" class="node"><title>Node4</title>
<polygon fill="white" stroke="#bfbfbf" points="83.5,-0.5 83.5,-21.5 136.5,-21.5 136.5,-0.5 83.5,-0.5"/>
<text text-anchor="middle" x="110" y="-8.5" font-family="Helvetica,sans-Serif" font-size="10.00">QString</text>
</g>
<!-- Node2&#45;&gt;Node4 -->
<g id="edge6" class="edge"><title>Node2&#45;&gt;Node4</title>
<path fill="none" stroke="midnightblue" d="M78.1532,-58.3619C83.4858,-50.4313 90.9112,-39.3885 97.2506,-29.9606"/>
<polygon fill="midnightblue" stroke="midnightblue" points="100.217,-31.8221 102.892,-21.5707 94.4077,-27.9161 100.217,-31.8221"/>
</g>
</g>
</svg>
