<?xml version="1.0" encoding="UTF-8" standalone="no"?>
<!DOCTYPE svg PUBLIC "-//W3C//DTD SVG 1.1//EN"
 "http://www.w3.org/Graphics/SVG/1.1/DTD/svg11.dtd">
<!-- Generated by graphviz version 2.26.3 (20100126.1600)
 -->
<!-- Title: SysMgrWebBridge.h Pages: 1 -->
<svg width="1384pt" height="406pt"
 viewBox="0.00 0.00 1384.10 406.00" xmlns="http://www.w3.org/2000/svg" xmlns:xlink="http://www.w3.org/1999/xlink">
<g id="graph1" class="graph" transform="scale(1 1) rotate(0) translate(4 402)">
<title>SysMgrWebBridge.h</title>
<polygon fill="white" stroke="white" points="-4,5 -4,-402 1381.1,-402 1381.1,5 -4,5"/>
<!-- Node1 -->
<g id="node1" class="node"><title>Node1</title>
<polygon fill="#bfbfbf" stroke="black" points="595.597,-376.5 595.597,-397.5 708.597,-397.5 708.597,-376.5 595.597,-376.5"/>
<text text-anchor="middle" x="652.097" y="-384.5" font-family="Helvetica,sans-Serif" font-size="10.00">SysMgrWebBridge.h</text>
</g>
<!-- Node2 -->
<g id="node3" class="node"><title>Node2</title>
<a xlink:href="CardWebApp_8cpp.htm" target="_top" xlink:title="CardWebApp.cpp">
<polygon fill="white" stroke="black" points="1135.6,-79.5 1135.6,-100.5 1234.6,-100.5 1234.6,-79.5 1135.6,-79.5"/>
<text text-anchor="middle" x="1185.1" y="-87.5" font-family="Helvetica,sans-Serif" font-size="10.00">CardWebApp.cpp</text>
</a>
</g>
<!-- Node1&#45;&gt;Node2 -->
<g id="edge2" class="edge"><title>Node1&#45;&gt;Node2</title>
<path fill="none" stroke="midnightblue" d="M719.052,-384.849C832.753,-380.467 1058.42,-368.405 1132.1,-340 1180.12,-321.486 1225.1,-322.467 1225.1,-271 1225.1,-271 1225.1,-271 1225.1,-213 1225.1,-169.662 1202.36,-121.759 1191.17,-100.807"/>
<polygon fill="midnightblue" stroke="midnightblue" points="718.6,-381.363 708.739,-385.237 718.863,-388.358 718.6,-381.363"/>
</g>
<!-- Node3 -->
<g id="node5" class="node"><title>Node3</title>
<a xlink:href="DockWebApp_8cpp.htm" target="_top" xlink:title="DockWebApp.cpp">
<polygon fill="white" stroke="black" points="390.097,-79.5 390.097,-100.5 490.097,-100.5 490.097,-79.5 390.097,-79.5"/>
<text text-anchor="middle" x="440.097" y="-87.5" font-family="Helvetica,sans-Serif" font-size="10.00">DockWebApp.cpp</text>
</a>
</g>
<!-- Node1&#45;&gt;Node3 -->
<g id="edge4" class="edge"><title>Node1&#45;&gt;Node3</title>
<path fill="none" stroke="midnightblue" d="M718.82,-380.027C853.07,-363.47 1135.21,-314.451 1040.1,-202 977.812,-128.361 916.838,-198.684 826.097,-166 807.737,-159.387 806.595,-150.22 788.097,-144 665.41,-102.748 625.69,-134.985 499.097,-108 489.88,-106.035 480.028,-103.294 471.067,-100.543"/>
<polygon fill="midnightblue" stroke="midnightblue" points="718.147,-376.583 708.638,-381.255 718.986,-383.532 718.147,-376.583"/>
</g>
<!-- Node4 -->
<g id="node7" class="node"><title>Node4</title>
<a xlink:href="AlertWebApp_8cpp.htm" target="_top" xlink:title="AlertWebApp.cpp">
<polygon fill="white" stroke="black" points="29.0972,-144.5 29.0972,-165.5 127.097,-165.5 127.097,-144.5 29.0972,-144.5"/>
<text text-anchor="middle" x="78.0972" y="-152.5" font-family="Helvetica,sans-Serif" font-size="10.00">AlertWebApp.cpp</text>
</a>
</g>
<!-- Node1&#45;&gt;Node4 -->
<g id="edge6" class="edge"><title>Node1&#45;&gt;Node4</title>
<path fill="none" stroke="midnightblue" d="M585.554,-385.215C474.956,-381.427 258.585,-370.29 189.097,-340 153.3,-324.396 144.991,-314.336 123.097,-282 97.13,-243.648 84.4116,-188.65 79.9814,-165.697"/>
<polygon fill="midnightblue" stroke="midnightblue" points="585.484,-388.715 595.595,-385.549 585.717,-381.719 585.484,-388.715"/>
</g>
<!-- Node5 -->
<g id="node9" class="node"><title>Node5</title>
<a xlink:href="WebAppFactoryLuna_8cpp.htm" target="_top" xlink:title="WebAppFactoryLuna.cpp">
<polygon fill="white" stroke="black" points="238.097,-79.5 238.097,-100.5 372.097,-100.5 372.097,-79.5 238.097,-79.5"/>
<text text-anchor="middle" x="305.097" y="-87.5" font-family="Helvetica,sans-Serif" font-size="10.00">WebAppFactoryLuna.cpp</text>
</a>
</g>
<!-- Node1&#45;&gt;Node5 -->
<g id="edge8" class="edge"><title>Node1&#45;&gt;Node5</title>
<path fill="none" stroke="midnightblue" d="M585.101,-383.587C467.675,-377.132 229.523,-361.801 149.097,-340 79.05,-321.012 1.09719,-343.575 1.09719,-271 1.09719,-271 1.09719,-271 1.09719,-213 1.09719,-181.192 -3.29157,-165.557 20.0972,-144 51.1559,-115.373 163.885,-101.077 237.915,-94.6215"/>
<polygon fill="midnightblue" stroke="midnightblue" points="585.22,-387.099 595.395,-384.147 585.6,-380.109 585.22,-387.099"/>
</g>
<!-- Node6 -->
<g id="node11" class="node"><title>Node6</title>
<a xlink:href="WebAppFactoryMinimal_8cpp.htm" target="_top" xlink:title="WebAppFactoryMinimal.cpp">
<polygon fill="white" stroke="black" points="1050.6,-144.5 1050.6,-165.5 1197.6,-165.5 1197.6,-144.5 1050.6,-144.5"/>
<text text-anchor="middle" x="1124.1" y="-152.5" font-family="Helvetica,sans-Serif" font-size="10.00">WebAppFactoryMinimal.cpp</text>
</a>
</g>
<!-- Node1&#45;&gt;Node6 -->
<g id="edge10" class="edge"><title>Node1&#45;&gt;Node6</title>
<path fill="none" stroke="midnightblue" d="M718.976,-384.828C839.772,-380.234 1084.36,-367.605 1111.1,-340 1158.36,-291.202 1136.55,-197.167 1127.41,-165.616"/>
<polygon fill="midnightblue" stroke="midnightblue" points="718.601,-381.339 708.738,-385.209 718.861,-388.335 718.601,-381.339"/>
</g>
<!-- Node7 -->
<g id="node13" class="node"><title>Node7</title>
<a xlink:href="PalmSystem_8cpp.htm" target="_top" xlink:title="PalmSystem.cpp">
<polygon fill="white" stroke="black" points="183.097,-144.5 183.097,-165.5 277.097,-165.5 277.097,-144.5 183.097,-144.5"/>
<text text-anchor="middle" x="230.097" y="-152.5" font-family="Helvetica,sans-Serif" font-size="10.00">PalmSystem.cpp</text>
</a>
</g>
<!-- Node1&#45;&gt;Node7 -->
<g id="edge12" class="edge"><title>Node1&#45;&gt;Node7</title>
<path fill="none" stroke="midnightblue" d="M585.353,-383.884C458.274,-376.371 189.361,-352.342 135.097,-282 102.133,-239.269 175.333,-187.525 211.456,-165.617"/>
<polygon fill="midnightblue" stroke="midnightblue" points="585.174,-387.38 595.359,-384.459 585.576,-380.391 585.174,-387.38"/>
</g>
<!-- Node8 -->
<g id="node15" class="node"><title>Node8</title>
<a xlink:href="WebAppBase_8h.htm" target="_top" xlink:title="WebAppBase.h">
<polygon fill="white" stroke="black" points="445.597,-318.5 445.597,-339.5 534.597,-339.5 534.597,-318.5 445.597,-318.5"/>
<text text-anchor="middle" x="490.097" y="-326.5" font-family="Helvetica,sans-Serif" font-size="10.00">WebAppBase.h</text>
</a>
</g>
<!-- Node1&#45;&gt;Node8 -->
<g id="edge14" class="edge"><title>Node1&#45;&gt;Node8</title>
<path fill="none" stroke="midnightblue" d="M613.02,-373.009C584.231,-362.702 545.688,-348.903 519.489,-339.523"/>
<polygon fill="midnightblue" stroke="midnightblue" points="612.166,-376.421 622.76,-376.497 614.525,-369.831 612.166,-376.421"/>
</g>
<!-- Node9 -->
<g id="node20" class="node"><title>Node9</title>
<a xlink:href="SysMgrWebBridge_8cpp.htm" target="_top" xlink:title="SysMgrWebBridge.cpp">
<polygon fill="white" stroke="black" points="144.097,-260.5 144.097,-281.5 268.097,-281.5 268.097,-260.5 144.097,-260.5"/>
<text text-anchor="middle" x="206.097" y="-268.5" font-family="Helvetica,sans-Serif" font-size="10.00">SysMgrWebBridge.cpp</text>
</a>
</g>
<!-- Node1&#45;&gt;Node9 -->
<g id="edge96" class="edge"><title>Node1&#45;&gt;Node9</title>
<path fill="none" stroke="midnightblue" d="M588.349,-374.373C545.411,-365.548 487.614,-353.047 437.097,-340 365.773,-321.579 283.336,-295.874 238.778,-281.607"/>
<polygon fill="midnightblue" stroke="midnightblue" points="587.879,-377.849 598.378,-376.423 589.281,-370.991 587.879,-377.849"/>
</g>
<!-- Node22 -->
<g id="node55" class="node"><title>Node22</title>
<a xlink:href="WindowedWebApp_8cpp.htm" target="_top" xlink:title="WindowedWebApp.cpp">
<polygon fill="white" stroke="black" points="1251.6,-79.5 1251.6,-100.5 1376.6,-100.5 1376.6,-79.5 1251.6,-79.5"/>
<text text-anchor="middle" x="1314.1" y="-87.5" font-family="Helvetica,sans-Serif" font-size="10.00">WindowedWebApp.cpp</text>
</a>
</g>
<!-- Node1&#45;&gt;Node22 -->
<g id="edge102" class="edge"><title>Node1&#45;&gt;Node22</title>
<path fill="none" stroke="midnightblue" d="M719.147,-384.857C841.015,-380.325 1093.93,-367.813 1177.1,-340 1232.19,-321.577 1288.1,-329.088 1288.1,-271 1288.1,-271 1288.1,-271 1288.1,-213 1288.1,-170.657 1303.03,-121.854 1310.26,-100.698"/>
<polygon fill="midnightblue" stroke="midnightblue" points="718.698,-381.371 708.833,-385.233 718.954,-388.366 718.698,-381.371"/>
</g>
<!-- Node23 -->
<g id="node57" class="node"><title>Node23</title>
<a xlink:href="WebAppManager_8cpp.htm" target="_top" xlink:title="WebAppManager.cpp">
<polygon fill="white" stroke="black" points="516.597,-144.5 516.597,-165.5 635.597,-165.5 635.597,-144.5 516.597,-144.5"/>
<text text-anchor="middle" x="576.097" y="-152.5" font-family="Helvetica,sans-Serif" font-size="10.00">WebAppManager.cpp</text>
</a>
</g>
<!-- Node1&#45;&gt;Node23 -->
<g id="edge100" class="edge"><title>Node1&#45;&gt;Node23</title>
<path fill="none" stroke="midnightblue" d="M653.347,-366.329C654.014,-339.945 651.991,-293.688 633.097,-260 620.905,-238.261 602.847,-245.417 590.097,-224 579.092,-205.515 576.602,-179.833 576.12,-165.588"/>
<polygon fill="midnightblue" stroke="midnightblue" points="649.85,-366.191 652.938,-376.326 656.844,-366.477 649.85,-366.191"/>
</g>
<!-- Node27 -->
<g id="node71" class="node"><title>Node27</title>
<a xlink:href="WebAppDeferredUpdateHandler_8cpp.htm" target="_top" xlink:title="WebAppDeferredUpdateHandler.cpp">
<polygon fill="white" stroke="black" points="841.097,-202.5 841.097,-223.5 1031.1,-223.5 1031.1,-202.5 841.097,-202.5"/>
<text text-anchor="middle" x="936.097" y="-210.5" font-family="Helvetica,sans-Serif" font-size="10.00">WebAppDeferredUpdateHandler.cpp</text>
</a>
</g>
<!-- Node1&#45;&gt;Node27 -->
<g id="edge98" class="edge"><title>Node1&#45;&gt;Node27</title>
<path fill="none" stroke="midnightblue" d="M678.236,-370.985C735.436,-335.94 870.436,-253.229 918.625,-223.705"/>
<polygon fill="midnightblue" stroke="midnightblue" points="676.134,-368.169 669.435,-376.377 679.791,-374.138 676.134,-368.169"/>
</g>
<!-- Node8&#45;&gt;Node5 -->
<g id="edge16" class="edge"><title>Node8&#45;&gt;Node5</title>
<path fill="none" stroke="midnightblue" d="M435.263,-319.55C399.849,-312.186 353.402,-300.122 315.097,-282 295.085,-272.532 251.102,-238.176 234.097,-224 205.609,-200.251 188.58,-200.144 174.097,-166 159.158,-130.781 203.518,-111.045 244.596,-100.57"/>
<polygon fill="midnightblue" stroke="midnightblue" points="434.915,-323.05 445.41,-321.594 436.298,-316.188 434.915,-323.05"/>
</g>
<!-- Node8&#45;&gt;Node6 -->
<g id="edge18" class="edge"><title>Node8&#45;&gt;Node6</title>
<path fill="none" stroke="midnightblue" d="M545.197,-322.351C666.588,-307.084 953.191,-267.474 1040.1,-224 1070.48,-208.802 1099.66,-180.864 1114.32,-165.615"/>
<polygon fill="midnightblue" stroke="midnightblue" points="544.502,-318.91 535.013,-323.623 545.37,-325.856 544.502,-318.91"/>
</g>
<!-- Node8&#45;&gt;Node7 -->
<g id="edge20" class="edge"><title>Node8&#45;&gt;Node7</title>
<path fill="none" stroke="midnightblue" d="M479.14,-309.424C469.209,-293.562 453.087,-271.952 433.097,-260 363.074,-218.133 314.259,-277.993 253.097,-224 236.058,-208.958 231.609,-180.956 230.47,-165.656"/>
<polygon fill="midnightblue" stroke="midnightblue" points="476.375,-311.622 484.502,-318.419 482.388,-308.038 476.375,-311.622"/>
</g>
<!-- Node8&#45;&gt;Node9 -->
<g id="edge22" class="edge"><title>Node8&#45;&gt;Node9</title>
<path fill="none" stroke="midnightblue" d="M435.5,-317.85C384.214,-307.376 308.037,-291.819 257.737,-281.546"/>
<polygon fill="midnightblue" stroke="midnightblue" points="434.912,-321.302 445.41,-319.874 436.312,-314.443 434.912,-321.302"/>
</g>
<!-- Node10 -->
<g id="node22" class="node"><title>Node10</title>
<a xlink:href="WebAppBase_8cpp.htm" target="_top" xlink:title="WebAppBase.cpp">
<polygon fill="white" stroke="black" points="324.097,-260.5 324.097,-281.5 424.097,-281.5 424.097,-260.5 324.097,-260.5"/>
<text text-anchor="middle" x="374.097" y="-268.5" font-family="Helvetica,sans-Serif" font-size="10.00">WebAppBase.cpp</text>
</a>
</g>
<!-- Node8&#45;&gt;Node10 -->
<g id="edge24" class="edge"><title>Node8&#45;&gt;Node10</title>
<path fill="none" stroke="midnightblue" d="M459.961,-313.932C439.684,-303.793 413.447,-290.675 395.34,-281.621"/>
<polygon fill="midnightblue" stroke="midnightblue" points="458.581,-317.155 469.09,-318.497 461.711,-310.894 458.581,-317.155"/>
</g>
<!-- Node11 -->
<g id="node24" class="node"><title>Node11</title>
<a xlink:href="WebAppCache_8cpp.htm" target="_top" xlink:title="WebAppCache.cpp">
<polygon fill="white" stroke="black" points="517.597,-260.5 517.597,-281.5 624.597,-281.5 624.597,-260.5 517.597,-260.5"/>
<text text-anchor="middle" x="571.097" y="-268.5" font-family="Helvetica,sans-Serif" font-size="10.00">WebAppCache.cpp</text>
</a>
</g>
<!-- Node8&#45;&gt;Node11 -->
<g id="edge26" class="edge"><title>Node8&#45;&gt;Node11</title>
<path fill="none" stroke="midnightblue" d="M513.477,-312.259C527.296,-302.364 544.373,-290.136 556.335,-281.571"/>
<polygon fill="midnightblue" stroke="midnightblue" points="511.047,-309.694 504.954,-318.362 515.122,-315.386 511.047,-309.694"/>
</g>
<!-- Node12 -->
<g id="node26" class="node"><title>Node12</title>
<a xlink:href="WindowedWebApp_8h.htm" target="_top" xlink:title="WindowedWebApp.h">
<polygon fill="white" stroke="black" points="680.097,-260.5 680.097,-281.5 794.097,-281.5 794.097,-260.5 680.097,-260.5"/>
<text text-anchor="middle" x="737.097" y="-268.5" font-family="Helvetica,sans-Serif" font-size="10.00">WindowedWebApp.h</text>
</a>
</g>
<!-- Node8&#45;&gt;Node12 -->
<g id="edge28" class="edge"><title>Node8&#45;&gt;Node12</title>
<path fill="none" stroke="midnightblue" d="M544.573,-316.208C588.924,-305.794 650.768,-291.272 692.283,-281.523"/>
<polygon fill="midnightblue" stroke="midnightblue" points="543.762,-312.803 534.827,-318.497 545.362,-319.618 543.762,-312.803"/>
</g>
<!-- Node8&#45;&gt;Node23 -->
<g id="edge94" class="edge"><title>Node8&#45;&gt;Node23</title>
<path fill="none" stroke="midnightblue" d="M494.417,-308.444C497.67,-294.5 502.668,-275.801 509.097,-260 520.193,-232.73 525.157,-226.752 541.097,-202 549.47,-188.999 560.239,-174.867 567.607,-165.531"/>
<polygon fill="midnightblue" stroke="midnightblue" points="490.944,-307.939 492.189,-318.461 497.777,-309.46 490.944,-307.939"/>
</g>
<!-- Node12&#45;&gt;Node6 -->
<g id="edge86" class="edge"><title>Node12&#45;&gt;Node6</title>
<path fill="none" stroke="midnightblue" d="M755.485,-253.522C773.524,-237.44 802.552,-214.279 832.097,-202 851.923,-193.761 970.477,-176.226 1050.29,-165.059"/>
<polygon fill="midnightblue" stroke="midnightblue" points="753.033,-251.022 748.008,-260.349 757.753,-256.191 753.033,-251.022"/>
</g>
<!-- Node13 -->
<g id="node28" class="node"><title>Node13</title>
<a xlink:href="CardWebApp_8h.htm" target="_top" xlink:title="CardWebApp.h">
<polygon fill="white" stroke="black" points="621.097,-202.5 621.097,-223.5 709.097,-223.5 709.097,-202.5 621.097,-202.5"/>
<text text-anchor="middle" x="665.097" y="-210.5" font-family="Helvetica,sans-Serif" font-size="10.00">CardWebApp.h</text>
</a>
</g>
<!-- Node12&#45;&gt;Node13 -->
<g id="edge30" class="edge"><title>Node12&#45;&gt;Node13</title>
<path fill="none" stroke="midnightblue" d="M715.963,-253.975C703.743,-244.132 688.751,-232.055 678.219,-223.571"/>
<polygon fill="midnightblue" stroke="midnightblue" points="713.908,-256.814 723.891,-260.362 718.299,-251.363 713.908,-256.814"/>
</g>
<!-- Node14 -->
<g id="node31" class="node"><title>Node14</title>
<a xlink:href="DockWebApp_8h.htm" target="_top" xlink:title="DockWebApp.h">
<polygon fill="white" stroke="black" points="690.597,-144.5 690.597,-165.5 779.597,-165.5 779.597,-144.5 690.597,-144.5"/>
<text text-anchor="middle" x="735.097" y="-152.5" font-family="Helvetica,sans-Serif" font-size="10.00">DockWebApp.h</text>
</a>
</g>
<!-- Node12&#45;&gt;Node14 -->
<g id="edge70" class="edge"><title>Node12&#45;&gt;Node14</title>
<path fill="none" stroke="midnightblue" d="M736.737,-250.123C736.309,-225.298 735.611,-184.824 735.281,-165.679"/>
<polygon fill="midnightblue" stroke="midnightblue" points="733.241,-250.357 736.913,-260.295 740.24,-250.236 733.241,-250.357"/>
</g>
<!-- Node12&#45;&gt;Node22 -->
<g id="edge92" class="edge"><title>Node12&#45;&gt;Node22</title>
<path fill="none" stroke="midnightblue" d="M746.593,-251.287C755.348,-235.343 769.889,-213.687 789.097,-202 870.744,-152.324 910.694,-197 1001.1,-166 1020.66,-159.292 1022.57,-150.796 1042.1,-144 1127.81,-114.175 1154.39,-127.163 1243.1,-108 1253.29,-105.798 1264.24,-103.16 1274.41,-100.591"/>
<polygon fill="midnightblue" stroke="midnightblue" points="743.396,-249.848 741.899,-260.337 749.61,-253.071 743.396,-249.848"/>
</g>
<!-- Node12&#45;&gt;Node23 -->
<g id="edge90" class="edge"><title>Node12&#45;&gt;Node23</title>
<path fill="none" stroke="midnightblue" d="M675.263,-257.533C653.404,-250.398 629.863,-239.733 612.097,-224 593.991,-207.966 583.604,-180.62 578.994,-165.62"/>
<polygon fill="midnightblue" stroke="midnightblue" points="674.245,-260.882 684.832,-260.474 676.302,-254.191 674.245,-260.882"/>
</g>
<!-- Node24 -->
<g id="node60" class="node"><title>Node24</title>
<a xlink:href="AlertWebApp_8h.htm" target="_top" xlink:title="AlertWebApp.h">
<polygon fill="white" stroke="black" points="262.097,-202.5 262.097,-223.5 348.097,-223.5 348.097,-202.5 262.097,-202.5"/>
<text text-anchor="middle" x="305.097" y="-210.5" font-family="Helvetica,sans-Serif" font-size="10.00">AlertWebApp.h</text>
</a>
</g>
<!-- Node12&#45;&gt;Node24 -->
<g id="edge72" class="edge"><title>Node12&#45;&gt;Node24</title>
<path fill="none" stroke="midnightblue" d="M669.881,-263.387C577.377,-252.79 415.631,-233.793 357.097,-224 354.185,-223.513 351.188,-222.975 348.174,-222.408"/>
<polygon fill="midnightblue" stroke="midnightblue" points="669.65,-266.884 679.983,-264.543 670.446,-259.929 669.65,-266.884"/>
</g>
<!-- Node25 -->
<g id="node65" class="node"><title>Node25</title>
<a xlink:href="DashboardWebApp_8h.htm" target="_top" xlink:title="DashboardWebApp.h">
<polygon fill="white" stroke="black" points="366.097,-202.5 366.097,-223.5 482.097,-223.5 482.097,-202.5 366.097,-202.5"/>
<text text-anchor="middle" x="424.097" y="-210.5" font-family="Helvetica,sans-Serif" font-size="10.00">DashboardWebApp.h</text>
</a>
</g>
<!-- Node12&#45;&gt;Node25 -->
<g id="edge80" class="edge"><title>Node12&#45;&gt;Node25</title>
<path fill="none" stroke="midnightblue" d="M670.53,-258.665C614.174,-248.222 534.268,-233.415 480.885,-223.523"/>
<polygon fill="midnightblue" stroke="midnightblue" points="669.945,-262.116 680.415,-260.497 671.22,-255.233 669.945,-262.116"/>
</g>
<!-- Node12&#45;&gt;Node27 -->
<g id="edge88" class="edge"><title>Node12&#45;&gt;Node27</title>
<path fill="none" stroke="midnightblue" d="M782.8,-257.68C818.389,-247.307 867.107,-233.108 899.992,-223.523"/>
<polygon fill="midnightblue" stroke="midnightblue" points="781.756,-254.338 773.135,-260.497 783.715,-261.059 781.756,-254.338"/>
</g>
<!-- Node13&#45;&gt;Node2 -->
<g id="edge32" class="edge"><title>Node13&#45;&gt;Node2</title>
<path fill="none" stroke="midnightblue" d="M719.278,-206.636C793.117,-197.603 921.294,-180.545 966.097,-166 986.515,-159.372 989.198,-152.052 1009.1,-144 1059.92,-123.433 1074.69,-124.126 1127.1,-108 1134.86,-105.612 1143.2,-103.033 1151.06,-100.592"/>
<polygon fill="midnightblue" stroke="midnightblue" points="718.739,-203.175 709.234,-207.856 719.583,-210.124 718.739,-203.175"/>
</g>
<!-- Node13&#45;&gt;Node5 -->
<g id="edge40" class="edge"><title>Node13&#45;&gt;Node5</title>
<path fill="none" stroke="midnightblue" d="M664.493,-192.184C662.862,-176.532 657.979,-155.828 644.097,-144 599.197,-105.742 439.088,-118.81 381.097,-108 369.767,-105.888 357.582,-103.194 346.359,-100.537"/>
<polygon fill="midnightblue" stroke="midnightblue" points="661.023,-192.746 665.188,-202.488 668.007,-192.275 661.023,-192.746"/>
</g>
<!-- Node13&#45;&gt;Node6 -->
<g id="edge42" class="edge"><title>Node13&#45;&gt;Node6</title>
<path fill="none" stroke="midnightblue" d="M719.243,-206.158C801.492,-195.765 958.102,-175.975 1050.58,-164.29"/>
<polygon fill="midnightblue" stroke="midnightblue" points="718.59,-202.713 709.108,-207.439 719.468,-209.657 718.59,-202.713"/>
</g>
<!-- Node13&#45;&gt;Node7 -->
<g id="edge44" class="edge"><title>Node13&#45;&gt;Node7</title>
<path fill="none" stroke="midnightblue" d="M610.916,-205.776C524.932,-194.311 358.654,-172.141 277.276,-161.291"/>
<polygon fill="midnightblue" stroke="midnightblue" points="610.618,-209.267 620.993,-207.119 611.544,-202.328 610.618,-209.267"/>
</g>
<!-- Node13&#45;&gt;Node14 -->
<g id="edge34" class="edge"><title>Node13&#45;&gt;Node14</title>
<path fill="none" stroke="midnightblue" d="M685.644,-195.975C697.525,-186.132 712.1,-174.055 722.34,-165.571"/>
<polygon fill="midnightblue" stroke="midnightblue" points="683.403,-193.287 677.936,-202.362 687.87,-198.677 683.403,-193.287"/>
</g>
<!-- Node15 -->
<g id="node38" class="node"><title>Node15</title>
<a xlink:href="RemoteWindowData_8h.htm" target="_top" xlink:title="RemoteWindowData.h">
<polygon fill="white" stroke="black" points="835.097,-144.5 835.097,-165.5 957.097,-165.5 957.097,-144.5 835.097,-144.5"/>
<text text-anchor="middle" x="896.097" y="-152.5" font-family="Helvetica,sans-Serif" font-size="10.00">RemoteWindowData.h</text>
</a>
</g>
<!-- Node13&#45;&gt;Node15 -->
<g id="edge46" class="edge"><title>Node13&#45;&gt;Node15</title>
<path fill="none" stroke="midnightblue" d="M716.831,-200.011C758.25,-189.611 815.605,-175.21 854.186,-165.523"/>
<polygon fill="midnightblue" stroke="midnightblue" points="715.776,-196.667 706.93,-202.497 717.481,-203.456 715.776,-196.667"/>
</g>
<!-- Node13&#45;&gt;Node23 -->
<g id="edge68" class="edge"><title>Node13&#45;&gt;Node23</title>
<path fill="none" stroke="midnightblue" d="M640.272,-196.821C624.942,-186.831 605.712,-174.299 592.318,-165.571"/>
<polygon fill="midnightblue" stroke="midnightblue" points="638.484,-199.834 648.773,-202.362 642.306,-193.97 638.484,-199.834"/>
</g>
<!-- Node14&#45;&gt;Node3 -->
<g id="edge36" class="edge"><title>Node14&#45;&gt;Node3</title>
<path fill="none" stroke="midnightblue" d="M680.425,-144.41C616.287,-131.939 516.451,-112.364 499.097,-108 490.477,-105.832 481.244,-103.178 472.703,-100.581"/>
<polygon fill="midnightblue" stroke="midnightblue" points="679.91,-147.875 690.394,-146.347 681.246,-141.004 679.91,-147.875"/>
</g>
<!-- Node14&#45;&gt;Node5 -->
<g id="edge38" class="edge"><title>Node14&#45;&gt;Node5</title>
<path fill="none" stroke="midnightblue" d="M680.393,-144.523C679.285,-144.344 678.186,-144.169 677.097,-144 546.145,-123.642 511.556,-131.308 381.097,-108 369.618,-105.949 357.274,-103.245 345.943,-100.558"/>
<polygon fill="midnightblue" stroke="midnightblue" points="680.057,-148.015 690.501,-146.233 681.225,-141.113 680.057,-148.015"/>
</g>
<!-- Node15&#45;&gt;Node2 -->
<g id="edge48" class="edge"><title>Node15&#45;&gt;Node2</title>
<path fill="none" stroke="midnightblue" d="M966.172,-142.633C1012.18,-134.049 1073.54,-121.722 1127.1,-108 1135.57,-105.828 1144.65,-103.172 1153.05,-100.575"/>
<polygon fill="midnightblue" stroke="midnightblue" points="965.496,-139.199 956.3,-144.461 966.77,-146.082 965.496,-139.199"/>
</g>
<!-- Node15&#45;&gt;Node3 -->
<g id="edge50" class="edge"><title>Node15&#45;&gt;Node3</title>
<path fill="none" stroke="midnightblue" d="M824.451,-144.437C823.325,-144.289 822.207,-144.143 821.097,-144 678.281,-125.549 640.122,-137.135 499.097,-108 489.763,-106.072 479.788,-103.309 470.746,-100.524"/>
<polygon fill="midnightblue" stroke="midnightblue" points="824.348,-147.955 834.726,-145.824 825.284,-141.018 824.348,-147.955"/>
</g>
<!-- Node16 -->
<g id="node42" class="node"><title>Node16</title>
<a xlink:href="RemoteWindowData_8cpp.htm" target="_top" xlink:title="RemoteWindowData.cpp">
<polygon fill="white" stroke="black" points="739.597,-7.5 739.597,-28.5 872.597,-28.5 872.597,-7.5 739.597,-7.5"/>
<text text-anchor="middle" x="806.097" y="-15.5" font-family="Helvetica,sans-Serif" font-size="10.00">RemoteWindowData.cpp</text>
</a>
</g>
<!-- Node15&#45;&gt;Node16 -->
<g id="edge52" class="edge"><title>Node15&#45;&gt;Node16</title>
<path fill="none" stroke="midnightblue" d="M902.562,-134.571C906.909,-116.82 910.059,-91.0411 899.097,-72 886.708,-50.48 862.09,-36.7454 841.294,-28.5151"/>
<polygon fill="midnightblue" stroke="midnightblue" points="899.121,-133.881 899.817,-144.453 905.866,-135.755 899.121,-133.881"/>
</g>
<!-- Node17 -->
<g id="node44" class="node"><title>Node17</title>
<a xlink:href="RemoteWindowDataSoftwareQt_8h.htm" target="_top" xlink:title="RemoteWindowDataSoftwareQt.h">
<polygon fill="white" stroke="black" points="507.597,-79.5 507.597,-100.5 682.597,-100.5 682.597,-79.5 507.597,-79.5"/>
<text text-anchor="middle" x="595.097" y="-87.5" font-family="Helvetica,sans-Serif" font-size="10.00">RemoteWindowDataSoftwareQt.h</text>
</a>
</g>
<!-- Node15&#45;&gt;Node17 -->
<g id="edge54" class="edge"><title>Node15&#45;&gt;Node17</title>
<path fill="none" stroke="midnightblue" d="M837.545,-142.356C781.071,-130.16 696.591,-111.917 643.723,-100.501"/>
<polygon fill="midnightblue" stroke="midnightblue" points="836.888,-145.795 847.402,-144.484 838.366,-138.952 836.888,-145.795"/>
</g>
<!-- Node19 -->
<g id="node49" class="node"><title>Node19</title>
<a xlink:href="RemoteWindowDataOpenGLQt_8h.htm" target="_top" xlink:title="RemoteWindowDataOpenGLQt.h">
<polygon fill="white" stroke="black" points="945.597,-79.5 945.597,-100.5 1118.6,-100.5 1118.6,-79.5 945.597,-79.5"/>
<text text-anchor="middle" x="1032.1" y="-87.5" font-family="Helvetica,sans-Serif" font-size="10.00">RemoteWindowDataOpenGLQt.h</text>
</a>
</g>
<!-- Node15&#45;&gt;Node19 -->
<g id="edge60" class="edge"><title>Node15&#45;&gt;Node19</title>
<path fill="none" stroke="midnightblue" d="M927.409,-140.035C952.655,-127.969 987.532,-111.3 1009.95,-100.584"/>
<polygon fill="midnightblue" stroke="midnightblue" points="925.764,-136.942 918.251,-144.412 928.782,-143.258 925.764,-136.942"/>
</g>
<!-- Node21 -->
<g id="node53" class="node"><title>Node21</title>
<a xlink:href="RemoteWindowDataOpenGLTextureShared_8h.htm" target="_top" xlink:title="RemoteWindowDataOpenGLTexture\lShared.h">
<polygon fill="white" stroke="black" points="700.097,-73 700.097,-107 890.097,-107 890.097,-73 700.097,-73"/>
<text text-anchor="start" x="708.097" y="-94" font-family="Helvetica,sans-Serif" font-size="10.00">RemoteWindowDataOpenGLTexture</text>
<text text-anchor="middle" x="795.097" y="-81" font-family="Helvetica,sans-Serif" font-size="10.00">Shared.h</text>
</a>
</g>
<!-- Node15&#45;&gt;Node21 -->
<g id="edge64" class="edge"><title>Node15&#45;&gt;Node21</title>
<path fill="none" stroke="midnightblue" d="M870.684,-138.645C855.729,-129.02 836.838,-116.863 821.683,-107.11"/>
<polygon fill="midnightblue" stroke="midnightblue" points="869.116,-141.798 879.419,-144.267 872.904,-135.912 869.116,-141.798"/>
</g>
<!-- Node15&#45;&gt;Node22 -->
<g id="edge66" class="edge"><title>Node15&#45;&gt;Node22</title>
<path fill="none" stroke="midnightblue" d="M967.333,-147.748C1037.75,-140.017 1148.38,-126.359 1243.1,-108 1253.83,-105.919 1265.37,-103.205 1275.95,-100.518"/>
<polygon fill="midnightblue" stroke="midnightblue" points="966.805,-144.285 957.242,-148.846 967.562,-151.244 966.805,-144.285"/>
</g>
<!-- Node17&#45;&gt;Node16 -->
<g id="edge56" class="edge"><title>Node17&#45;&gt;Node16</title>
<path fill="none" stroke="midnightblue" d="M635.853,-76.0928C676.587,-62.193 738.316,-41.1291 775.179,-28.5501"/>
<polygon fill="midnightblue" stroke="midnightblue" points="634.565,-72.8341 626.231,-79.3762 636.825,-79.4591 634.565,-72.8341"/>
</g>
<!-- Node18 -->
<g id="node47" class="node"><title>Node18</title>
<a xlink:href="RemoteWindowDataSoftwareQt_8cpp.htm" target="_top" xlink:title="RemoteWindowDataSoftware\lQt.cpp">
<polygon fill="white" stroke="black" points="517.597,-1 517.597,-35 672.597,-35 672.597,-1 517.597,-1"/>
<text text-anchor="start" x="525.597" y="-22" font-family="Helvetica,sans-Serif" font-size="10.00">RemoteWindowDataSoftware</text>
<text text-anchor="middle" x="595.097" y="-9" font-family="Helvetica,sans-Serif" font-size="10.00">Qt.cpp</text>
</a>
</g>
<!-- Node17&#45;&gt;Node18 -->
<g id="edge58" class="edge"><title>Node17&#45;&gt;Node18</title>
<path fill="none" stroke="midnightblue" d="M595.097,-69.1318C595.097,-58.3258 595.097,-45.2961 595.097,-35.0944"/>
<polygon fill="midnightblue" stroke="midnightblue" points="591.597,-69.3761 595.097,-79.3762 598.597,-69.3762 591.597,-69.3761"/>
</g>
<!-- Node20 -->
<g id="node51" class="node"><title>Node20</title>
<a xlink:href="RemoteWindowDataOpenGLQt_8cpp.htm" target="_top" xlink:title="RemoteWindowDataOpenGLQt.cpp">
<polygon fill="white" stroke="black" points="939.597,-7.5 939.597,-28.5 1124.6,-28.5 1124.6,-7.5 939.597,-7.5"/>
<text text-anchor="middle" x="1032.1" y="-15.5" font-family="Helvetica,sans-Serif" font-size="10.00">RemoteWindowDataOpenGLQt.cpp</text>
</a>
</g>
<!-- Node19&#45;&gt;Node20 -->
<g id="edge62" class="edge"><title>Node19&#45;&gt;Node20</title>
<path fill="none" stroke="midnightblue" d="M1032.1,-69.2348C1032.1,-55.969 1032.1,-39.3188 1032.1,-28.6674"/>
<polygon fill="midnightblue" stroke="midnightblue" points="1028.6,-69.3761 1032.1,-79.3762 1035.6,-69.3762 1028.6,-69.3761"/>
</g>
<!-- Node24&#45;&gt;Node4 -->
<g id="edge74" class="edge"><title>Node24&#45;&gt;Node4</title>
<path fill="none" stroke="midnightblue" d="M254.26,-200.011C213.557,-189.611 157.196,-175.21 119.282,-165.523"/>
<polygon fill="midnightblue" stroke="midnightblue" points="253.434,-203.412 263.989,-202.497 255.167,-196.63 253.434,-203.412"/>
</g>
<!-- Node24&#45;&gt;Node5 -->
<g id="edge76" class="edge"><title>Node24&#45;&gt;Node5</title>
<path fill="none" stroke="midnightblue" d="M305.097,-191.963C305.097,-165.49 305.097,-121.033 305.097,-100.715"/>
<polygon fill="midnightblue" stroke="midnightblue" points="301.597,-192.085 305.097,-202.085 308.597,-192.085 301.597,-192.085"/>
</g>
<!-- Node24&#45;&gt;Node7 -->
<g id="edge78" class="edge"><title>Node24&#45;&gt;Node7</title>
<path fill="none" stroke="midnightblue" d="M283.083,-195.975C270.353,-186.132 254.737,-174.055 243.766,-165.571"/>
<polygon fill="midnightblue" stroke="midnightblue" points="281.289,-199.013 291.341,-202.362 285.572,-193.476 281.289,-199.013"/>
</g>
<!-- Node25&#45;&gt;Node5 -->
<g id="edge84" class="edge"><title>Node25&#45;&gt;Node5</title>
<path fill="none" stroke="midnightblue" d="M399.011,-196.417C387.185,-188.009 373.256,-177.217 362.097,-166 341.159,-144.954 321.485,-115.931 311.649,-100.553"/>
<polygon fill="midnightblue" stroke="midnightblue" points="397.353,-199.526 407.565,-202.349 401.343,-193.774 397.353,-199.526"/>
</g>
<!-- Node26 -->
<g id="node67" class="node"><title>Node26</title>
<a xlink:href="DashboardWebApp_8cpp.htm" target="_top" xlink:title="DashboardWebApp.cpp">
<polygon fill="white" stroke="black" points="371.097,-144.5 371.097,-165.5 499.097,-165.5 499.097,-144.5 371.097,-144.5"/>
<text text-anchor="middle" x="435.097" y="-152.5" font-family="Helvetica,sans-Serif" font-size="10.00">DashboardWebApp.cpp</text>
</a>
</g>
<!-- Node25&#45;&gt;Node26 -->
<g id="edge82" class="edge"><title>Node25&#45;&gt;Node26</title>
<path fill="none" stroke="midnightblue" d="M427.987,-192.488C429.712,-183.392 431.669,-173.076 433.092,-165.571"/>
<polygon fill="midnightblue" stroke="midnightblue" points="424.539,-191.885 426.115,-202.362 431.417,-193.189 424.539,-191.885"/>
</g>
</g>
</svg>
