<?xml version="1.0" encoding="UTF-8" standalone="no"?>
<!DOCTYPE svg PUBLIC "-//W3C//DTD SVG 1.1//EN"
 "http://www.w3.org/Graphics/SVG/1.1/DTD/svg11.dtd">
<!-- Generated by graphviz version 2.26.3 (20100126.1600)
 -->
<!-- Title: SysMgrWebBridge.cpp Pages: 1 -->
<svg width="2232pt" height="262pt"
 viewBox="0.00 0.00 2232.00 262.00" xmlns="http://www.w3.org/2000/svg" xmlns:xlink="http://www.w3.org/1999/xlink">
<g id="graph1" class="graph" transform="scale(1 1) rotate(0) translate(4 258)">
<title>SysMgrWebBridge.cpp</title>
<polygon fill="white" stroke="white" points="-4,5 -4,-258 2229,-258 2229,5 -4,5"/>
<!-- Node1 -->
<g id="node1" class="node"><title>Node1</title>
<polygon fill="#bfbfbf" stroke="black" points="702,-232.5 702,-253.5 826,-253.5 826,-232.5 702,-232.5"/>
<text text-anchor="middle" x="764" y="-240.5" font-family="Helvetica,sans-Serif" font-size="10.00">SysMgrWebBridge.cpp</text>
</g>
<!-- Node2 -->
<g id="node3" class="node"><title>Node2</title>
<a xlink:href="SysMgrWebBridge_8h.htm" target="_top" xlink:title="SysMgrWebBridge.h">
<polygon fill="white" stroke="black" points="277.5,-116.5 277.5,-137.5 390.5,-137.5 390.5,-116.5 277.5,-116.5"/>
<text text-anchor="middle" x="334" y="-124.5" font-family="Helvetica,sans-Serif" font-size="10.00">SysMgrWebBridge.h</text>
</a>
</g>
<!-- Node1&#45;&gt;Node2 -->
<g id="edge2" class="edge"><title>Node1&#45;&gt;Node2</title>
<path fill="none" stroke="midnightblue" d="M701.942,-238.805C641.314,-233.392 547.026,-221.446 469,-196 428.707,-182.86 385.694,-158.953 359.322,-143.021"/>
<polygon fill="midnightblue" stroke="midnightblue" points="361.075,-139.99 350.72,-137.749 357.418,-145.959 361.075,-139.99"/>
</g>
<!-- Node11 -->
<g id="node21" class="node"><title>Node11</title>
<polygon fill="white" stroke="#bfbfbf" points="477.5,-174.5 477.5,-195.5 540.5,-195.5 540.5,-174.5 477.5,-174.5"/>
<text text-anchor="middle" x="509" y="-182.5" font-family="Helvetica,sans-Serif" font-size="10.00">Logging.h</text>
</g>
<!-- Node1&#45;&gt;Node11 -->
<g id="edge20" class="edge"><title>Node1&#45;&gt;Node11</title>
<path fill="none" stroke="midnightblue" d="M712.125,-232.467C670.769,-223.886 611.153,-211.112 550.902,-196.395"/>
<polygon fill="midnightblue" stroke="midnightblue" points="551.383,-192.909 540.837,-193.919 549.711,-199.706 551.383,-192.909"/>
</g>
<!-- Node12 -->
<g id="node23" class="node"><title>Node12</title>
<a xlink:href="PalmSystem_8h.htm" target="_top" xlink:title="PalmSystem.h">
<polygon fill="white" stroke="black" points="557.5,-174.5 557.5,-195.5 640.5,-195.5 640.5,-174.5 557.5,-174.5"/>
<text text-anchor="middle" x="599" y="-182.5" font-family="Helvetica,sans-Serif" font-size="10.00">PalmSystem.h</text>
</a>
</g>
<!-- Node1&#45;&gt;Node12 -->
<g id="edge22" class="edge"><title>Node1&#45;&gt;Node12</title>
<path fill="none" stroke="midnightblue" d="M734.12,-232.497C707.337,-223.082 667.855,-209.204 638.478,-198.877"/>
<polygon fill="midnightblue" stroke="midnightblue" points="639.531,-195.537 628.936,-195.523 637.21,-202.141 639.531,-195.537"/>
</g>
<!-- Node16 -->
<g id="node32" class="node"><title>Node16</title>
<polygon fill="white" stroke="#bfbfbf" points="657.5,-174.5 657.5,-195.5 702.5,-195.5 702.5,-174.5 657.5,-174.5"/>
<text text-anchor="middle" x="680" y="-182.5" font-family="Helvetica,sans-Serif" font-size="10.00">Utils.h</text>
</g>
<!-- Node1&#45;&gt;Node16 -->
<g id="edge32" class="edge"><title>Node1&#45;&gt;Node16</title>
<path fill="none" stroke="midnightblue" d="M748.593,-232.362C736.042,-223.696 718.108,-211.313 703.725,-201.382"/>
<polygon fill="midnightblue" stroke="midnightblue" points="705.527,-198.372 695.309,-195.571 701.55,-204.133 705.527,-198.372"/>
</g>
<!-- Node17 -->
<g id="node34" class="node"><title>Node17</title>
<a xlink:href="WebAppBase_8h.htm" target="_top" xlink:title="WebAppBase.h">
<polygon fill="white" stroke="black" points="719.5,-174.5 719.5,-195.5 808.5,-195.5 808.5,-174.5 719.5,-174.5"/>
<text text-anchor="middle" x="764" y="-182.5" font-family="Helvetica,sans-Serif" font-size="10.00">WebAppBase.h</text>
</a>
</g>
<!-- Node1&#45;&gt;Node17 -->
<g id="edge34" class="edge"><title>Node1&#45;&gt;Node17</title>
<path fill="none" stroke="midnightblue" d="M764,-232.362C764,-224.922 764,-214.743 764,-205.728"/>
<polygon fill="midnightblue" stroke="midnightblue" points="767.5,-205.571 764,-195.571 760.5,-205.571 767.5,-205.571"/>
</g>
<!-- Node19 -->
<g id="node41" class="node"><title>Node19</title>
<a xlink:href="WebAppManager_8h.htm" target="_top" xlink:title="WebAppManager.h">
<polygon fill="white" stroke="black" points="1402.5,-116.5 1402.5,-137.5 1509.5,-137.5 1509.5,-116.5 1402.5,-116.5"/>
<text text-anchor="middle" x="1456" y="-124.5" font-family="Helvetica,sans-Serif" font-size="10.00">WebAppManager.h</text>
</a>
</g>
<!-- Node1&#45;&gt;Node19 -->
<g id="edge44" class="edge"><title>Node1&#45;&gt;Node19</title>
<path fill="none" stroke="midnightblue" d="M776.164,-232.383C796.669,-214.731 837.58,-180.625 855,-174 904.258,-155.268 1248.04,-136.918 1392.4,-129.944"/>
<polygon fill="midnightblue" stroke="midnightblue" points="1392.62,-133.438 1402.44,-129.462 1392.29,-126.446 1392.62,-133.438"/>
</g>
<!-- Node38 -->
<g id="node89" class="node"><title>Node38</title>
<polygon fill="white" stroke="#bfbfbf" points="863.5,-174.5 863.5,-195.5 918.5,-195.5 918.5,-174.5 863.5,-174.5"/>
<text text-anchor="middle" x="891" y="-182.5" font-family="Helvetica,sans-Serif" font-size="10.00">QDebug</text>
</g>
<!-- Node1&#45;&gt;Node38 -->
<g id="edge102" class="edge"><title>Node1&#45;&gt;Node38</title>
<path fill="none" stroke="midnightblue" d="M786.999,-232.497C807.013,-223.356 836.241,-210.008 858.619,-199.788"/>
<polygon fill="midnightblue" stroke="midnightblue" points="860.101,-202.959 867.743,-195.621 857.193,-196.592 860.101,-202.959"/>
</g>
<!-- Node39 -->
<g id="node91" class="node"><title>Node39</title>
<polygon fill="white" stroke="#bfbfbf" points="936,-174.5 936,-195.5 1008,-195.5 1008,-174.5 936,-174.5"/>
<text text-anchor="middle" x="972" y="-182.5" font-family="Helvetica,sans-Serif" font-size="10.00">cjson/json.h</text>
</g>
<!-- Node1&#45;&gt;Node39 -->
<g id="edge104" class="edge"><title>Node1&#45;&gt;Node39</title>
<path fill="none" stroke="midnightblue" d="M801.667,-232.497C836.594,-222.757 888.651,-208.242 926.016,-197.822"/>
<polygon fill="midnightblue" stroke="midnightblue" points="926.966,-201.191 935.659,-195.134 925.086,-194.448 926.966,-201.191"/>
</g>
<!-- Node40 -->
<g id="node93" class="node"><title>Node40</title>
<polygon fill="white" stroke="#bfbfbf" points="1026,-174.5 1026,-195.5 1100,-195.5 1100,-174.5 1026,-174.5"/>
<text text-anchor="middle" x="1063" y="-182.5" font-family="Helvetica,sans-Serif" font-size="10.00">pbnjson.hpp</text>
</g>
<!-- Node1&#45;&gt;Node40 -->
<g id="edge106" class="edge"><title>Node1&#45;&gt;Node40</title>
<path fill="none" stroke="midnightblue" d="M825.522,-232.476C874.556,-223.882 945.193,-211.042 1015.9,-196.161"/>
<polygon fill="midnightblue" stroke="midnightblue" points="1016.82,-199.545 1025.88,-194.048 1015.37,-192.697 1016.82,-199.545"/>
</g>
<!-- Node3 -->
<g id="node5" class="node"><title>Node3</title>
<a xlink:href="ProcessBase_8h.htm" target="_top" xlink:title="ProcessBase.h">
<polygon fill="white" stroke="black" points="335.5,-58.5 335.5,-79.5 422.5,-79.5 422.5,-58.5 335.5,-58.5"/>
<text text-anchor="middle" x="379" y="-66.5" font-family="Helvetica,sans-Serif" font-size="10.00">ProcessBase.h</text>
</a>
</g>
<!-- Node2&#45;&gt;Node3 -->
<g id="edge4" class="edge"><title>Node2&#45;&gt;Node3</title>
<path fill="none" stroke="midnightblue" d="M342.254,-116.362C348.47,-108.35 357.151,-97.1605 364.515,-87.6696"/>
<polygon fill="midnightblue" stroke="midnightblue" points="367.434,-89.617 370.799,-79.5707 361.903,-85.326 367.434,-89.617"/>
</g>
<!-- Node6 -->
<g id="node11" class="node"><title>Node6</title>
<polygon fill="white" stroke="#bfbfbf" points="257.5,-58.5 257.5,-79.5 318.5,-79.5 318.5,-58.5 257.5,-58.5"/>
<text text-anchor="middle" x="288" y="-66.5" font-family="Helvetica,sans-Serif" font-size="10.00">QtWebKit</text>
</g>
<!-- Node2&#45;&gt;Node6 -->
<g id="edge10" class="edge"><title>Node2&#45;&gt;Node6</title>
<path fill="none" stroke="midnightblue" d="M325.563,-116.362C319.208,-108.35 310.334,-97.1605 302.807,-87.6696"/>
<polygon fill="midnightblue" stroke="midnightblue" points="305.34,-85.2308 296.384,-79.5707 299.855,-89.5805 305.34,-85.2308"/>
</g>
<!-- Node7 -->
<g id="node13" class="node"><title>Node7</title>
<polygon fill="white" stroke="#bfbfbf" points="-0.5,-58.5 -0.5,-79.5 58.5,-79.5 58.5,-58.5 -0.5,-58.5"/>
<text text-anchor="middle" x="29" y="-66.5" font-family="Helvetica,sans-Serif" font-size="10.00">QPointer</text>
</g>
<!-- Node2&#45;&gt;Node7 -->
<g id="edge12" class="edge"><title>Node2&#45;&gt;Node7</title>
<path fill="none" stroke="midnightblue" d="M277.388,-118.844C225.323,-110.934 145.832,-97.8332 68.676,-80.2347"/>
<polygon fill="midnightblue" stroke="midnightblue" points="69.3223,-76.7919 58.7912,-77.952 67.7472,-83.6124 69.3223,-76.7919"/>
</g>
<!-- Node8 -->
<g id="node15" class="node"><title>Node8</title>
<polygon fill="white" stroke="#bfbfbf" points="440,-58.5 440,-79.5 538,-79.5 538,-58.5 440,-58.5"/>
<text text-anchor="middle" x="489" y="-66.5" font-family="Helvetica,sans-Serif" font-size="10.00">palmimedefines.h</text>
</g>
<!-- Node2&#45;&gt;Node8 -->
<g id="edge14" class="edge"><title>Node2&#45;&gt;Node8</title>
<path fill="none" stroke="midnightblue" d="M362.069,-116.497C387.01,-107.164 423.674,-93.4447 451.192,-83.1475"/>
<polygon fill="midnightblue" stroke="midnightblue" points="452.739,-86.3058 460.878,-79.5231 450.286,-79.7497 452.739,-86.3058"/>
</g>
<!-- Node9 -->
<g id="node17" class="node"><title>Node9</title>
<polygon fill="white" stroke="#bfbfbf" points="75.5,-58.5 75.5,-79.5 146.5,-79.5 146.5,-58.5 75.5,-58.5"/>
<text text-anchor="middle" x="111" y="-66.5" font-family="Helvetica,sans-Serif" font-size="10.00">QWebPage</text>
</g>
<!-- Node2&#45;&gt;Node9 -->
<g id="edge16" class="edge"><title>Node2&#45;&gt;Node9</title>
<path fill="none" stroke="midnightblue" d="M293.616,-116.497C254.97,-106.445 196.762,-91.3057 156.496,-80.833"/>
<polygon fill="midnightblue" stroke="midnightblue" points="157.227,-77.4069 146.668,-78.277 155.465,-84.1815 157.227,-77.4069"/>
</g>
<!-- Node10 -->
<g id="node19" class="node"><title>Node10</title>
<polygon fill="white" stroke="#bfbfbf" points="164,-58.5 164,-79.5 240,-79.5 240,-58.5 164,-58.5"/>
<text text-anchor="middle" x="202" y="-66.5" font-family="Helvetica,sans-Serif" font-size="10.00">QWebFrame</text>
</g>
<!-- Node2&#45;&gt;Node10 -->
<g id="edge18" class="edge"><title>Node2&#45;&gt;Node10</title>
<path fill="none" stroke="midnightblue" d="M310.096,-116.497C289.2,-107.315 258.644,-93.8889 235.345,-83.6516"/>
<polygon fill="midnightblue" stroke="midnightblue" points="236.736,-80.4397 226.172,-79.6212 233.92,-86.8483 236.736,-80.4397"/>
</g>
<!-- Node4 -->
<g id="node7" class="node"><title>Node4</title>
<polygon fill="white" stroke="#bfbfbf" points="1655.5,-0.5 1655.5,-21.5 1722.5,-21.5 1722.5,-0.5 1655.5,-0.5"/>
<text text-anchor="middle" x="1689" y="-8.5" font-family="Helvetica,sans-Serif" font-size="10.00">Common.h</text>
</g>
<!-- Node3&#45;&gt;Node4 -->
<g id="edge6" class="edge"><title>Node3&#45;&gt;Node4</title>
<path fill="none" stroke="midnightblue" d="M422.601,-59.2113C425.435,-58.7503 428.253,-58.3394 431,-58 673.54,-28.0398 1452.35,-14.5573 1645.39,-11.6271"/>
<polygon fill="midnightblue" stroke="midnightblue" points="1645.5,-15.126 1655.45,-11.476 1645.4,-8.12678 1645.5,-15.126"/>
</g>
<!-- Node5 -->
<g id="node9" class="node"><title>Node5</title>
<polygon fill="white" stroke="#bfbfbf" points="539.5,-0.5 539.5,-21.5 592.5,-21.5 592.5,-0.5 539.5,-0.5"/>
<text text-anchor="middle" x="566" y="-8.5" font-family="Helvetica,sans-Serif" font-size="10.00">QString</text>
</g>
<!-- Node3&#45;&gt;Node5 -->
<g id="edge8" class="edge"><title>Node3&#45;&gt;Node5</title>
<path fill="none" stroke="midnightblue" d="M412.864,-58.4966C445.772,-48.2901 495.593,-32.8374 529.4,-22.3517"/>
<polygon fill="midnightblue" stroke="midnightblue" points="530.827,-25.5737 539.342,-19.2683 528.754,-18.8879 530.827,-25.5737"/>
</g>
<!-- Node12&#45;&gt;Node5 -->
<g id="edge28" class="edge"><title>Node12&#45;&gt;Node5</title>
<path fill="none" stroke="midnightblue" d="M579.615,-174.458C566.894,-166.35 551.307,-153.856 544,-138 535.413,-119.366 550.417,-62.2618 559.62,-31.3631"/>
<polygon fill="midnightblue" stroke="midnightblue" points="563.018,-32.2187 562.585,-21.6327 556.322,-30.178 563.018,-32.2187"/>
</g>
<!-- Node13 -->
<g id="node25" class="node"><title>Node13</title>
<polygon fill="white" stroke="#bfbfbf" points="688.5,-116.5 688.5,-137.5 743.5,-137.5 743.5,-116.5 688.5,-116.5"/>
<text text-anchor="middle" x="716" y="-124.5" font-family="Helvetica,sans-Serif" font-size="10.00">QObject</text>
</g>
<!-- Node12&#45;&gt;Node13 -->
<g id="edge24" class="edge"><title>Node12&#45;&gt;Node13</title>
<path fill="none" stroke="midnightblue" d="M620.188,-174.497C638.462,-165.438 665.072,-152.246 685.615,-142.063"/>
<polygon fill="midnightblue" stroke="midnightblue" points="687.169,-145.199 694.574,-137.621 684.06,-138.927 687.169,-145.199"/>
</g>
<!-- Node14 -->
<g id="node27" class="node"><title>Node14</title>
<polygon fill="white" stroke="#bfbfbf" points="553,-116.5 553,-137.5 633,-137.5 633,-116.5 553,-116.5"/>
<text text-anchor="middle" x="593" y="-124.5" font-family="Helvetica,sans-Serif" font-size="10.00">QVariantMap</text>
</g>
<!-- Node12&#45;&gt;Node14 -->
<g id="edge26" class="edge"><title>Node12&#45;&gt;Node14</title>
<path fill="none" stroke="midnightblue" d="M597.9,-174.362C597.13,-166.922 596.077,-156.743 595.144,-147.728"/>
<polygon fill="midnightblue" stroke="midnightblue" points="598.604,-147.157 594.094,-137.571 591.641,-147.878 598.604,-147.157"/>
</g>
<!-- Node15 -->
<g id="node30" class="node"><title>Node15</title>
<polygon fill="white" stroke="#bfbfbf" points="594,-58.5 594,-79.5 646,-79.5 646,-58.5 594,-58.5"/>
<text text-anchor="middle" x="620" y="-66.5" font-family="Helvetica,sans-Serif" font-size="10.00">Event.h</text>
</g>
<!-- Node12&#45;&gt;Node15 -->
<g id="edge30" class="edge"><title>Node12&#45;&gt;Node15</title>
<path fill="none" stroke="midnightblue" d="M613.179,-174.408C623.349,-165.861 636.234,-152.845 642,-138 648.362,-121.621 641.222,-102.562 633.425,-88.6304"/>
<polygon fill="midnightblue" stroke="midnightblue" points="636.287,-86.6015 628.081,-79.9004 630.317,-90.2565 636.287,-86.6015"/>
</g>
<!-- Node17&#45;&gt;Node2 -->
<g id="edge36" class="edge"><title>Node17&#45;&gt;Node2</title>
<path fill="none" stroke="midnightblue" d="M719.228,-175.443C716.448,-174.932 713.689,-174.446 711,-174 603.021,-156.094 476.618,-141.653 401.049,-133.709"/>
<polygon fill="midnightblue" stroke="midnightblue" points="401.04,-130.189 390.731,-132.631 400.313,-137.151 401.04,-130.189"/>
</g>
<!-- Node17&#45;&gt;Node8 -->
<g id="edge42" class="edge"><title>Node17&#45;&gt;Node8</title>
<path fill="none" stroke="midnightblue" d="M765.537,-174.468C767.1,-159.323 767.44,-131.512 752,-116 737.761,-101.695 621.298,-85.1141 548.204,-75.9659"/>
<polygon fill="midnightblue" stroke="midnightblue" points="548.548,-72.4818 538.194,-74.7253 547.687,-79.4286 548.548,-72.4818"/>
</g>
<!-- Node17&#45;&gt;Node13 -->
<g id="edge38" class="edge"><title>Node17&#45;&gt;Node13</title>
<path fill="none" stroke="midnightblue" d="M755.196,-174.362C748.498,-166.268 739.116,-154.932 731.211,-145.38"/>
<polygon fill="midnightblue" stroke="midnightblue" points="733.82,-143.043 724.748,-137.571 728.427,-147.506 733.82,-143.043"/>
</g>
<!-- Node18 -->
<g id="node38" class="node"><title>Node18</title>
<polygon fill="white" stroke="#bfbfbf" points="664,-58.5 664,-79.5 742,-79.5 742,-58.5 664,-58.5"/>
<text text-anchor="middle" x="703" y="-66.5" font-family="Helvetica,sans-Serif" font-size="10.00">lunaservice.h</text>
</g>
<!-- Node17&#45;&gt;Node18 -->
<g id="edge40" class="edge"><title>Node17&#45;&gt;Node18</title>
<path fill="none" stroke="midnightblue" d="M772.446,-174.1C782.296,-159.953 795.923,-134.852 785,-116 776.552,-101.421 761.688,-90.9756 746.914,-83.6934"/>
<polygon fill="midnightblue" stroke="midnightblue" points="748.338,-80.4963 737.785,-79.5594 745.45,-86.873 748.338,-80.4963"/>
</g>
<!-- Node19&#45;&gt;Node4 -->
<g id="edge46" class="edge"><title>Node19&#45;&gt;Node4</title>
<path fill="none" stroke="midnightblue" d="M1509.75,-122.003C1589.11,-114.075 1729.95,-97.691 1745,-80 1760.2,-62.1307 1737.59,-41.1468 1716.72,-27.052"/>
<polygon fill="midnightblue" stroke="midnightblue" points="1718.6,-24.1018 1708.3,-21.6446 1714.82,-29.9924 1718.6,-24.1018"/>
</g>
<!-- Node19&#45;&gt;Node5 -->
<g id="edge54" class="edge"><title>Node19&#45;&gt;Node5</title>
<path fill="none" stroke="midnightblue" d="M1402.44,-126.33C1265.11,-124.117 903.244,-115.036 789,-80 770.343,-74.2782 769.073,-65.3615 751,-58 701.487,-37.8327 640.907,-24.4181 602.873,-17.2546"/>
<polygon fill="midnightblue" stroke="midnightblue" points="603.239,-13.7633 592.771,-15.3994 601.974,-20.6482 603.239,-13.7633"/>
</g>
<!-- Node19&#45;&gt;Node15 -->
<g id="edge64" class="edge"><title>Node19&#45;&gt;Node15</title>
<path fill="none" stroke="midnightblue" d="M1402.47,-125.575C1250.63,-121.265 818.242,-107.085 656.458,-79.8097"/>
<polygon fill="midnightblue" stroke="midnightblue" points="656.655,-76.2904 646.198,-77.9941 655.435,-83.1833 656.655,-76.2904"/>
</g>
<!-- Node19&#45;&gt;Node18 -->
<g id="edge92" class="edge"><title>Node19&#45;&gt;Node18</title>
<path fill="none" stroke="midnightblue" d="M1402.18,-125.907C1284.47,-122.966 995.548,-112.742 756,-80 754.743,-79.8282 753.471,-79.6439 752.19,-79.449"/>
<polygon fill="midnightblue" stroke="midnightblue" points="752.7,-75.9857 742.258,-77.7751 751.537,-82.8884 752.7,-75.9857"/>
</g>
<!-- Node20 -->
<g id="node44" class="node"><title>Node20</title>
<polygon fill="white" stroke="#bfbfbf" points="1871.5,-0.5 1871.5,-21.5 1908.5,-21.5 1908.5,-0.5 1871.5,-0.5"/>
<text text-anchor="middle" x="1890" y="-8.5" font-family="Helvetica,sans-Serif" font-size="10.00">map</text>
</g>
<!-- Node19&#45;&gt;Node20 -->
<g id="edge48" class="edge"><title>Node19&#45;&gt;Node20</title>
<path fill="none" stroke="midnightblue" d="M1509.63,-124.216C1571.57,-119.758 1675.87,-108.402 1761,-80 1799.84,-67.0419 1840.91,-43.0432 1866.01,-27.0466"/>
<polygon fill="midnightblue" stroke="midnightblue" points="1868.01,-29.9233 1874.5,-21.5505 1864.2,-24.0473 1868.01,-29.9233"/>
</g>
<!-- Node21 -->
<g id="node46" class="node"><title>Node21</title>
<polygon fill="white" stroke="#bfbfbf" points="1829.5,-58.5 1829.5,-79.5 1858.5,-79.5 1858.5,-58.5 1829.5,-58.5"/>
<text text-anchor="middle" x="1844" y="-66.5" font-family="Helvetica,sans-Serif" font-size="10.00">list</text>
</g>
<!-- Node19&#45;&gt;Node21 -->
<g id="edge50" class="edge"><title>Node19&#45;&gt;Node21</title>
<path fill="none" stroke="midnightblue" d="M1509.54,-124.104C1580.55,-119.339 1709.34,-107.472 1816,-80 1817.25,-79.6776 1818.52,-79.3147 1819.8,-78.9222"/>
<polygon fill="midnightblue" stroke="midnightblue" points="1821.15,-82.1571 1829.4,-75.5132 1818.81,-75.5604 1821.15,-82.1571"/>
</g>
<!-- Node22 -->
<g id="node48" class="node"><title>Node22</title>
<polygon fill="white" stroke="#bfbfbf" points="1875.5,-58.5 1875.5,-79.5 1918.5,-79.5 1918.5,-58.5 1875.5,-58.5"/>
<text text-anchor="middle" x="1897" y="-66.5" font-family="Helvetica,sans-Serif" font-size="10.00">string</text>
</g>
<!-- Node19&#45;&gt;Node22 -->
<g id="edge52" class="edge"><title>Node19&#45;&gt;Node22</title>
<path fill="none" stroke="midnightblue" d="M1509.57,-124.93C1586.76,-121.061 1733.64,-110.385 1865.37,-79.9825"/>
<polygon fill="midnightblue" stroke="midnightblue" points="1866.3,-83.36 1875.23,-77.6628 1864.69,-76.5461 1866.3,-83.36"/>
</g>
<!-- Node23 -->
<g id="node51" class="node"><title>Node23</title>
<polygon fill="white" stroke="#bfbfbf" points="1935.5,-58.5 1935.5,-79.5 2012.5,-79.5 2012.5,-58.5 1935.5,-58.5"/>
<text text-anchor="middle" x="1974" y="-66.5" font-family="Helvetica,sans-Serif" font-size="10.00">QApplication</text>
</g>
<!-- Node19&#45;&gt;Node23 -->
<g id="edge56" class="edge"><title>Node19&#45;&gt;Node23</title>
<path fill="none" stroke="midnightblue" d="M1509.63,-123.933C1595.47,-118.524 1769.16,-105.531 1925.11,-80.1561"/>
<polygon fill="midnightblue" stroke="midnightblue" points="1926.05,-83.5471 1935.35,-78.4667 1924.92,-76.6404 1926.05,-83.5471"/>
</g>
<!-- Node24 -->
<g id="node53" class="node"><title>Node24</title>
<a xlink:href="SyncTask_8h.htm" target="_top" xlink:title="SyncTask.h">
<polygon fill="white" stroke="black" points="797.5,-58.5 797.5,-79.5 868.5,-79.5 868.5,-58.5 797.5,-58.5"/>
<text text-anchor="middle" x="833" y="-66.5" font-family="Helvetica,sans-Serif" font-size="10.00">SyncTask.h</text>
</a>
</g>
<!-- Node19&#45;&gt;Node24 -->
<g id="edge58" class="edge"><title>Node19&#45;&gt;Node24</title>
<path fill="none" stroke="midnightblue" d="M1402.16,-125.574C1301.13,-122.259 1076.2,-111.856 878.887,-80.1152"/>
<polygon fill="midnightblue" stroke="midnightblue" points="879.351,-76.6448 868.918,-78.4894 878.224,-83.5535 879.351,-76.6448"/>
</g>
<!-- Node26 -->
<g id="node59" class="node"><title>Node26</title>
<a xlink:href="MemoryWatcher_8h.htm" target="_top" xlink:title="MemoryWatcher.h">
<polygon fill="white" stroke="black" points="2029.5,-58.5 2029.5,-79.5 2132.5,-79.5 2132.5,-58.5 2029.5,-58.5"/>
<text text-anchor="middle" x="2081" y="-66.5" font-family="Helvetica,sans-Serif" font-size="10.00">MemoryWatcher.h</text>
</a>
</g>
<!-- Node19&#45;&gt;Node26 -->
<g id="edge66" class="edge"><title>Node19&#45;&gt;Node26</title>
<path fill="none" stroke="midnightblue" d="M1509.55,-124.304C1608.38,-118.946 1826.29,-105.346 2019.3,-80.1299"/>
<polygon fill="midnightblue" stroke="midnightblue" points="2019.88,-83.5827 2029.34,-78.804 2018.97,-76.6429 2019.88,-83.5827"/>
</g>
<!-- Node28 -->
<g id="node65" class="node"><title>Node28</title>
<polygon fill="white" stroke="#bfbfbf" points="2082,-0.5 2082,-21.5 2154,-21.5 2154,-0.5 2082,-0.5"/>
<text text-anchor="middle" x="2118" y="-8.5" font-family="Helvetica,sans-Serif" font-size="10.00">SignalSlot.h</text>
</g>
<!-- Node19&#45;&gt;Node28 -->
<g id="edge78" class="edge"><title>Node19&#45;&gt;Node28</title>
<path fill="none" stroke="midnightblue" d="M1509.51,-125.303C1667.04,-120.048 2119.52,-103.007 2141,-80 2153.82,-66.2671 2143.97,-45.1876 2133.47,-29.9412"/>
<polygon fill="midnightblue" stroke="midnightblue" points="2136.15,-27.68 2127.38,-21.738 2130.53,-31.8533 2136.15,-27.68"/>
</g>
<!-- Node29 -->
<g id="node67" class="node"><title>Node29</title>
<polygon fill="white" stroke="#bfbfbf" points="2172,-0.5 2172,-21.5 2224,-21.5 2224,-0.5 2172,-0.5"/>
<text text-anchor="middle" x="2198" y="-8.5" font-family="Helvetica,sans-Serif" font-size="10.00">Timer.h</text>
</g>
<!-- Node19&#45;&gt;Node29 -->
<g id="edge80" class="edge"><title>Node19&#45;&gt;Node29</title>
<path fill="none" stroke="midnightblue" d="M1509.75,-126.285C1664.48,-123.829 2103.44,-113.914 2158,-80 2175.56,-69.0868 2186.24,-47.4348 2192.1,-31.2813"/>
<polygon fill="midnightblue" stroke="midnightblue" points="2195.47,-32.2213 2195.27,-21.6283 2188.82,-30.0344 2195.47,-32.2213"/>
</g>
<!-- Node30 -->
<g id="node71" class="node"><title>Node30</title>
<polygon fill="white" stroke="#bfbfbf" points="886,-58.5 886,-79.5 978,-79.5 978,-58.5 886,-58.5"/>
<text text-anchor="middle" x="932" y="-66.5" font-family="Helvetica,sans-Serif" font-size="10.00">WindowTypes.h</text>
</g>
<!-- Node19&#45;&gt;Node30 -->
<g id="edge82" class="edge"><title>Node19&#45;&gt;Node30</title>
<path fill="none" stroke="midnightblue" d="M1402.33,-123.333C1316.85,-117.117 1144.34,-103.041 988.402,-80.095"/>
<polygon fill="midnightblue" stroke="midnightblue" points="988.562,-76.5804 978.156,-78.5707 987.532,-83.5042 988.562,-76.5804"/>
</g>
<!-- Node31 -->
<g id="node73" class="node"><title>Node31</title>
<polygon fill="white" stroke="#bfbfbf" points="995.5,-58.5 995.5,-79.5 1106.5,-79.5 1106.5,-58.5 995.5,-58.5"/>
<text text-anchor="middle" x="1051" y="-66.5" font-family="Helvetica,sans-Serif" font-size="10.00">WindowProperties.h</text>
</g>
<!-- Node19&#45;&gt;Node31 -->
<g id="edge84" class="edge"><title>Node19&#45;&gt;Node31</title>
<path fill="none" stroke="midnightblue" d="M1402.47,-120.181C1337.28,-111.753 1223.58,-96.6519 1116.81,-80.2481"/>
<polygon fill="midnightblue" stroke="midnightblue" points="1117.25,-76.7745 1106.83,-78.7082 1116.18,-83.6926 1117.25,-76.7745"/>
</g>
<!-- Node32 -->
<g id="node75" class="node"><title>Node32</title>
<a xlink:href="WebAppCache_8h.htm" target="_top" xlink:title="WebAppCache.h">
<polygon fill="white" stroke="black" points="1641.5,-58.5 1641.5,-79.5 1736.5,-79.5 1736.5,-58.5 1641.5,-58.5"/>
<text text-anchor="middle" x="1689" y="-66.5" font-family="Helvetica,sans-Serif" font-size="10.00">WebAppCache.h</text>
</a>
</g>
<!-- Node19&#45;&gt;Node32 -->
<g id="edge86" class="edge"><title>Node19&#45;&gt;Node32</title>
<path fill="none" stroke="midnightblue" d="M1498.19,-116.497C1537.17,-106.795 1595.18,-92.3547 1637,-81.9445"/>
<polygon fill="midnightblue" stroke="midnightblue" points="1637.87,-85.335 1646.73,-79.5231 1636.18,-78.5423 1637.87,-85.335"/>
</g>
<!-- Node33 -->
<g id="node78" class="node"><title>Node33</title>
<polygon fill="white" stroke="#bfbfbf" points="1123.5,-58.5 1123.5,-79.5 1194.5,-79.5 1194.5,-58.5 1123.5,-58.5"/>
<text text-anchor="middle" x="1159" y="-66.5" font-family="Helvetica,sans-Serif" font-size="10.00">HostBase.h</text>
</g>
<!-- Node19&#45;&gt;Node33 -->
<g id="edge90" class="edge"><title>Node19&#45;&gt;Node33</title>
<path fill="none" stroke="midnightblue" d="M1402.01,-117.958C1352.86,-109.504 1278.08,-96.0855 1204.83,-80.322"/>
<polygon fill="midnightblue" stroke="midnightblue" points="1205.49,-76.8838 1194.98,-78.1848 1204.01,-83.7248 1205.49,-76.8838"/>
</g>
<!-- Node34 -->
<g id="node81" class="node"><title>Node34</title>
<polygon fill="white" stroke="#bfbfbf" points="1212,-58.5 1212,-79.5 1286,-79.5 1286,-58.5 1212,-58.5"/>
<text text-anchor="middle" x="1249" y="-66.5" font-family="Helvetica,sans-Serif" font-size="10.00">PIpcBuffer.h</text>
</g>
<!-- Node19&#45;&gt;Node34 -->
<g id="edge94" class="edge"><title>Node19&#45;&gt;Node34</title>
<path fill="none" stroke="midnightblue" d="M1418.51,-116.497C1384.22,-106.888 1333.34,-92.6311 1296.27,-82.2449"/>
<polygon fill="midnightblue" stroke="midnightblue" points="1296.78,-78.7531 1286.21,-79.4252 1294.89,-85.4935 1296.78,-78.7531"/>
</g>
<!-- Node35 -->
<g id="node83" class="node"><title>Node35</title>
<polygon fill="white" stroke="#bfbfbf" points="1303.5,-58.5 1303.5,-79.5 1376.5,-79.5 1376.5,-58.5 1303.5,-58.5"/>
<text text-anchor="middle" x="1340" y="-66.5" font-family="Helvetica,sans-Serif" font-size="10.00">PIpcClient.h</text>
</g>
<!-- Node19&#45;&gt;Node35 -->
<g id="edge96" class="edge"><title>Node19&#45;&gt;Node35</title>
<path fill="none" stroke="midnightblue" d="M1434.99,-116.497C1416.96,-107.479 1390.73,-94.3649 1370.4,-84.2006"/>
<polygon fill="midnightblue" stroke="midnightblue" points="1371.75,-80.9629 1361.24,-79.6212 1368.62,-87.2239 1371.75,-80.9629"/>
</g>
<!-- Node36 -->
<g id="node85" class="node"><title>Node36</title>
<polygon fill="white" stroke="#bfbfbf" points="1394,-58.5 1394,-79.5 1518,-79.5 1518,-58.5 1394,-58.5"/>
<text text-anchor="middle" x="1456" y="-66.5" font-family="Helvetica,sans-Serif" font-size="10.00">PIpcChannelListener.h</text>
</g>
<!-- Node19&#45;&gt;Node36 -->
<g id="edge98" class="edge"><title>Node19&#45;&gt;Node36</title>
<path fill="none" stroke="midnightblue" d="M1456,-116.362C1456,-108.922 1456,-98.7427 1456,-89.7276"/>
<polygon fill="midnightblue" stroke="midnightblue" points="1459.5,-89.5706 1456,-79.5707 1452.5,-89.5707 1459.5,-89.5706"/>
</g>
<!-- Node37 -->
<g id="node87" class="node"><title>Node37</title>
<polygon fill="white" stroke="#bfbfbf" points="1535.5,-58.5 1535.5,-79.5 1624.5,-79.5 1624.5,-58.5 1535.5,-58.5"/>
<text text-anchor="middle" x="1580" y="-66.5" font-family="Helvetica,sans-Serif" font-size="10.00">PIpcMessage.h</text>
</g>
<!-- Node19&#45;&gt;Node37 -->
<g id="edge100" class="edge"><title>Node19&#45;&gt;Node37</title>
<path fill="none" stroke="midnightblue" d="M1478.46,-116.497C1497.91,-107.397 1526.28,-94.1273 1548.09,-83.9253"/>
<polygon fill="midnightblue" stroke="midnightblue" points="1549.72,-87.0285 1557.29,-79.6212 1546.75,-80.6878 1549.72,-87.0285"/>
</g>
<!-- Node24&#45;&gt;Node4 -->
<g id="edge60" class="edge"><title>Node24&#45;&gt;Node4</title>
<path fill="none" stroke="midnightblue" d="M868.907,-59.4415C871.634,-58.8943 874.353,-58.4038 877,-58 1027.14,-35.0932 1498.31,-17.4967 1644.97,-12.4606"/>
<polygon fill="midnightblue" stroke="midnightblue" points="1645.49,-15.9451 1655.37,-12.1062 1645.25,-8.94917 1645.49,-15.9451"/>
</g>
<!-- Node25 -->
<g id="node56" class="node"><title>Node25</title>
<polygon fill="white" stroke="#bfbfbf" points="797,-0.5 797,-21.5 869,-21.5 869,-0.5 797,-0.5"/>
<text text-anchor="middle" x="833" y="-8.5" font-family="Helvetica,sans-Serif" font-size="10.00">TaskBase.h</text>
</g>
<!-- Node24&#45;&gt;Node25 -->
<g id="edge62" class="edge"><title>Node24&#45;&gt;Node25</title>
<path fill="none" stroke="midnightblue" d="M833,-58.3619C833,-50.9219 833,-40.7427 833,-31.7276"/>
<polygon fill="midnightblue" stroke="midnightblue" points="836.5,-31.5706 833,-21.5707 829.5,-31.5707 836.5,-31.5706"/>
</g>
<!-- Node26&#45;&gt;Node4 -->
<g id="edge68" class="edge"><title>Node26&#45;&gt;Node4</title>
<path fill="none" stroke="midnightblue" d="M2029.31,-59.3861C2026.5,-58.9065 2023.72,-58.4413 2021,-58 1917.85,-41.251 1796.12,-24.8818 1732.58,-16.5949"/>
<polygon fill="midnightblue" stroke="midnightblue" points="1732.89,-13.1059 1722.53,-15.2874 1731.99,-20.0475 1732.89,-13.1059"/>
</g>
<!-- Node26&#45;&gt;Node20 -->
<g id="edge72" class="edge"><title>Node26&#45;&gt;Node20</title>
<path fill="none" stroke="midnightblue" d="M2046.41,-58.4966C2009.78,-47.373 1952.63,-30.018 1918.49,-19.6529"/>
<polygon fill="midnightblue" stroke="midnightblue" points="1919.27,-16.2319 1908.69,-16.6752 1917.24,-22.9299 1919.27,-16.2319"/>
</g>
<!-- Node27 -->
<g id="node62" class="node"><title>Node27</title>
<polygon fill="white" stroke="#bfbfbf" points="2014,-0.5 2014,-21.5 2064,-21.5 2064,-0.5 2014,-0.5"/>
<text text-anchor="middle" x="2039" y="-8.5" font-family="Helvetica,sans-Serif" font-size="10.00">stdint.h</text>
</g>
<!-- Node26&#45;&gt;Node27 -->
<g id="edge70" class="edge"><title>Node26&#45;&gt;Node27</title>
<path fill="none" stroke="midnightblue" d="M2073.3,-58.3619C2067.55,-50.4313 2059.56,-39.3885 2052.73,-29.9606"/>
<polygon fill="midnightblue" stroke="midnightblue" points="2055.35,-27.6173 2046.65,-21.5707 2049.68,-31.7229 2055.35,-27.6173"/>
</g>
<!-- Node26&#45;&gt;Node28 -->
<g id="edge74" class="edge"><title>Node26&#45;&gt;Node28</title>
<path fill="none" stroke="midnightblue" d="M2087.79,-58.3619C2092.79,-50.5131 2099.75,-39.6159 2105.72,-30.2527"/>
<polygon fill="midnightblue" stroke="midnightblue" points="2108.83,-31.8837 2111.26,-21.5707 2102.93,-28.1189 2108.83,-31.8837"/>
</g>
<!-- Node26&#45;&gt;Node29 -->
<g id="edge76" class="edge"><title>Node26&#45;&gt;Node29</title>
<path fill="none" stroke="midnightblue" d="M2102.19,-58.4966C2120.46,-49.4378 2147.07,-36.2462 2167.61,-26.0628"/>
<polygon fill="midnightblue" stroke="midnightblue" points="2169.17,-29.1986 2176.57,-21.6212 2166.06,-22.9269 2169.17,-29.1986"/>
</g>
<!-- Node32&#45;&gt;Node4 -->
<g id="edge88" class="edge"><title>Node32&#45;&gt;Node4</title>
<path fill="none" stroke="midnightblue" d="M1689,-58.3619C1689,-50.9219 1689,-40.7427 1689,-31.7276"/>
<polygon fill="midnightblue" stroke="midnightblue" points="1692.5,-31.5706 1689,-21.5707 1685.5,-31.5707 1692.5,-31.5706"/>
</g>
</g>
</svg>
