<?xml version="1.0" encoding="UTF-8" standalone="no"?>
<!DOCTYPE svg PUBLIC "-//W3C//DTD SVG 1.1//EN"
 "http://www.w3.org/Graphics/SVG/1.1/DTD/svg11.dtd">
<!-- Generated by graphviz version 2.26.3 (20100126.1600)
 -->
<!-- Title: WebAppCache.cpp Pages: 1 -->
<svg width="607pt" height="262pt"
 viewBox="0.00 0.00 607.00 262.00" xmlns="http://www.w3.org/2000/svg" xmlns:xlink="http://www.w3.org/1999/xlink">
<g id="graph1" class="graph" transform="scale(1 1) rotate(0) translate(4 258)">
<title>WebAppCache.cpp</title>
<polygon fill="white" stroke="white" points="-4,5 -4,-258 604,-258 604,5 -4,5"/>
<!-- Node1 -->
<g id="node1" class="node"><title>Node1</title>
<polygon fill="#bfbfbf" stroke="black" points="158.5,-232.5 158.5,-253.5 265.5,-253.5 265.5,-232.5 158.5,-232.5"/>
<text text-anchor="middle" x="212" y="-240.5" font-family="Helvetica,sans-Serif" font-size="10.00">WebAppCache.cpp</text>
</g>
<!-- Node2 -->
<g id="node3" class="node"><title>Node2</title>
<a xlink:href="WebAppCache_8h.htm" target="_top" xlink:title="WebAppCache.h">
<polygon fill="white" stroke="black" points="85.5,-116.5 85.5,-137.5 180.5,-137.5 180.5,-116.5 85.5,-116.5"/>
<text text-anchor="middle" x="133" y="-124.5" font-family="Helvetica,sans-Serif" font-size="10.00">WebAppCache.h</text>
</a>
</g>
<!-- Node1&#45;&gt;Node2 -->
<g id="edge2" class="edge"><title>Node1&#45;&gt;Node2</title>
<path fill="none" stroke="midnightblue" d="M195.848,-232.359C183.943,-223.786 168.122,-210.76 158,-196 147.894,-181.263 141.358,-161.963 137.513,-147.524"/>
<polygon fill="midnightblue" stroke="midnightblue" points="140.858,-146.468 135.083,-137.585 134.058,-148.13 140.858,-146.468"/>
</g>
<!-- Node4 -->
<g id="node7" class="node"><title>Node4</title>
<polygon fill="white" stroke="#bfbfbf" points="166.5,-174.5 166.5,-195.5 195.5,-195.5 195.5,-174.5 166.5,-174.5"/>
<text text-anchor="middle" x="181" y="-182.5" font-family="Helvetica,sans-Serif" font-size="10.00">list</text>
</g>
<!-- Node1&#45;&gt;Node4 -->
<g id="edge6" class="edge"><title>Node1&#45;&gt;Node4</title>
<path fill="none" stroke="midnightblue" d="M206.314,-232.362C202.163,-224.595 196.416,-213.843 191.447,-204.546"/>
<polygon fill="midnightblue" stroke="midnightblue" points="194.45,-202.74 186.65,-195.571 188.277,-206.04 194.45,-202.74"/>
</g>
<!-- Node5 -->
<g id="node9" class="node"><title>Node5</title>
<polygon fill="white" stroke="#bfbfbf" points="213,-174.5 213,-195.5 273,-195.5 273,-174.5 213,-174.5"/>
<text text-anchor="middle" x="243" y="-182.5" font-family="Helvetica,sans-Serif" font-size="10.00">algorithm</text>
</g>
<!-- Node1&#45;&gt;Node5 -->
<g id="edge8" class="edge"><title>Node1&#45;&gt;Node5</title>
<path fill="none" stroke="midnightblue" d="M217.686,-232.362C221.837,-224.595 227.584,-213.843 232.553,-204.546"/>
<polygon fill="midnightblue" stroke="midnightblue" points="235.723,-206.04 237.35,-195.571 229.55,-202.74 235.723,-206.04"/>
</g>
<!-- Node6 -->
<g id="node11" class="node"><title>Node6</title>
<a xlink:href="WebAppBase_8h.htm" target="_top" xlink:title="WebAppBase.h">
<polygon fill="white" stroke="black" points="352.5,-174.5 352.5,-195.5 441.5,-195.5 441.5,-174.5 352.5,-174.5"/>
<text text-anchor="middle" x="397" y="-182.5" font-family="Helvetica,sans-Serif" font-size="10.00">WebAppBase.h</text>
</a>
</g>
<!-- Node1&#45;&gt;Node6 -->
<g id="edge10" class="edge"><title>Node1&#45;&gt;Node6</title>
<path fill="none" stroke="midnightblue" d="M245.502,-232.497C275.793,-223 320.57,-208.962 353.593,-198.609"/>
<polygon fill="midnightblue" stroke="midnightblue" points="354.94,-201.854 363.435,-195.523 352.846,-195.175 354.94,-201.854"/>
</g>
<!-- Node3 -->
<g id="node5" class="node"><title>Node3</title>
<polygon fill="white" stroke="#bfbfbf" points="-0.5,-0.5 -0.5,-21.5 66.5,-21.5 66.5,-0.5 -0.5,-0.5"/>
<text text-anchor="middle" x="33" y="-8.5" font-family="Helvetica,sans-Serif" font-size="10.00">Common.h</text>
</g>
<!-- Node2&#45;&gt;Node3 -->
<g id="edge4" class="edge"><title>Node2&#45;&gt;Node3</title>
<path fill="none" stroke="midnightblue" d="M103.226,-116.39C85.9112,-108.778 65.0057,-96.8665 52,-80 41.359,-66.2001 36.6747,-46.811 34.6141,-32.0988"/>
<polygon fill="midnightblue" stroke="midnightblue" points="38.068,-31.4868 33.4946,-21.9299 31.11,-32.2529 38.068,-31.4868"/>
</g>
<!-- Node7 -->
<g id="node13" class="node"><title>Node7</title>
<a xlink:href="SysMgrWebBridge_8h.htm" target="_top" xlink:title="SysMgrWebBridge.h">
<polygon fill="white" stroke="black" points="256.5,-116.5 256.5,-137.5 369.5,-137.5 369.5,-116.5 256.5,-116.5"/>
<text text-anchor="middle" x="313" y="-124.5" font-family="Helvetica,sans-Serif" font-size="10.00">SysMgrWebBridge.h</text>
</a>
</g>
<!-- Node6&#45;&gt;Node7 -->
<g id="edge12" class="edge"><title>Node6&#45;&gt;Node7</title>
<path fill="none" stroke="midnightblue" d="M381.593,-174.362C369.042,-165.696 351.108,-153.313 336.725,-143.382"/>
<polygon fill="midnightblue" stroke="midnightblue" points="338.527,-140.372 328.309,-137.571 334.55,-146.133 338.527,-140.372"/>
</g>
<!-- Node12 -->
<g id="node24" class="node"><title>Node12</title>
<polygon fill="white" stroke="#bfbfbf" points="501,-58.5 501,-79.5 599,-79.5 599,-58.5 501,-58.5"/>
<text text-anchor="middle" x="550" y="-66.5" font-family="Helvetica,sans-Serif" font-size="10.00">palmimedefines.h</text>
</g>
<!-- Node6&#45;&gt;Node12 -->
<g id="edge34" class="edge"><title>Node6&#45;&gt;Node12</title>
<path fill="none" stroke="midnightblue" d="M397.003,-174.44C397.58,-159.514 400.822,-132.257 416,-116 427.435,-103.752 464.51,-91.2588 496.77,-82.2347"/>
<polygon fill="midnightblue" stroke="midnightblue" points="497.87,-85.5624 506.593,-79.5495 496.024,-78.8101 497.87,-85.5624"/>
</g>
<!-- Node15 -->
<g id="node30" class="node"><title>Node15</title>
<polygon fill="white" stroke="#bfbfbf" points="424.5,-116.5 424.5,-137.5 479.5,-137.5 479.5,-116.5 424.5,-116.5"/>
<text text-anchor="middle" x="452" y="-124.5" font-family="Helvetica,sans-Serif" font-size="10.00">QObject</text>
</g>
<!-- Node6&#45;&gt;Node15 -->
<g id="edge30" class="edge"><title>Node6&#45;&gt;Node15</title>
<path fill="none" stroke="midnightblue" d="M407.088,-174.362C414.841,-166.186 425.73,-154.702 434.845,-145.091"/>
<polygon fill="midnightblue" stroke="midnightblue" points="437.635,-147.235 441.976,-137.571 432.555,-142.419 437.635,-147.235"/>
</g>
<!-- Node16 -->
<g id="node32" class="node"><title>Node16</title>
<polygon fill="white" stroke="#bfbfbf" points="497,-116.5 497,-137.5 575,-137.5 575,-116.5 497,-116.5"/>
<text text-anchor="middle" x="536" y="-124.5" font-family="Helvetica,sans-Serif" font-size="10.00">lunaservice.h</text>
</g>
<!-- Node6&#45;&gt;Node16 -->
<g id="edge32" class="edge"><title>Node6&#45;&gt;Node16</title>
<path fill="none" stroke="midnightblue" d="M422.172,-174.497C444.273,-165.275 476.639,-151.769 501.213,-141.515"/>
<polygon fill="midnightblue" stroke="midnightblue" points="502.665,-144.702 510.546,-137.621 499.969,-138.242 502.665,-144.702"/>
</g>
<!-- Node8 -->
<g id="node15" class="node"><title>Node8</title>
<a xlink:href="ProcessBase_8h.htm" target="_top" xlink:title="ProcessBase.h">
<polygon fill="white" stroke="black" points="60.5,-58.5 60.5,-79.5 147.5,-79.5 147.5,-58.5 60.5,-58.5"/>
<text text-anchor="middle" x="104" y="-66.5" font-family="Helvetica,sans-Serif" font-size="10.00">ProcessBase.h</text>
</a>
</g>
<!-- Node7&#45;&gt;Node8 -->
<g id="edge14" class="edge"><title>Node7&#45;&gt;Node8</title>
<path fill="none" stroke="midnightblue" d="M275.152,-116.497C240.489,-106.877 189.035,-92.5981 151.598,-82.209"/>
<polygon fill="midnightblue" stroke="midnightblue" points="152.491,-78.8246 141.919,-79.5231 150.619,-85.5697 152.491,-78.8246"/>
</g>
<!-- Node10 -->
<g id="node20" class="node"><title>Node10</title>
<polygon fill="white" stroke="#bfbfbf" points="164.5,-58.5 164.5,-79.5 225.5,-79.5 225.5,-58.5 164.5,-58.5"/>
<text text-anchor="middle" x="195" y="-66.5" font-family="Helvetica,sans-Serif" font-size="10.00">QtWebKit</text>
</g>
<!-- Node7&#45;&gt;Node10 -->
<g id="edge20" class="edge"><title>Node7&#45;&gt;Node10</title>
<path fill="none" stroke="midnightblue" d="M291.631,-116.497C273.201,-107.438 246.363,-94.2462 225.645,-84.0628"/>
<polygon fill="midnightblue" stroke="midnightblue" points="227.127,-80.8914 216.609,-79.6212 224.039,-87.1735 227.127,-80.8914"/>
</g>
<!-- Node11 -->
<g id="node22" class="node"><title>Node11</title>
<polygon fill="white" stroke="#bfbfbf" points="242.5,-58.5 242.5,-79.5 301.5,-79.5 301.5,-58.5 242.5,-58.5"/>
<text text-anchor="middle" x="272" y="-66.5" font-family="Helvetica,sans-Serif" font-size="10.00">QPointer</text>
</g>
<!-- Node7&#45;&gt;Node11 -->
<g id="edge22" class="edge"><title>Node7&#45;&gt;Node11</title>
<path fill="none" stroke="midnightblue" d="M305.48,-116.362C299.874,-108.431 292.068,-97.3885 285.403,-87.9606"/>
<polygon fill="midnightblue" stroke="midnightblue" points="288.103,-85.7161 279.472,-79.5707 282.387,-89.7568 288.103,-85.7161"/>
</g>
<!-- Node7&#45;&gt;Node12 -->
<g id="edge24" class="edge"><title>Node7&#45;&gt;Node12</title>
<path fill="none" stroke="midnightblue" d="M355.919,-116.497C395.56,-106.795 454.568,-92.3547 497.106,-81.9445"/>
<polygon fill="midnightblue" stroke="midnightblue" points="498.119,-85.2999 507.001,-79.5231 496.455,-78.5006 498.119,-85.2999"/>
</g>
<!-- Node13 -->
<g id="node26" class="node"><title>Node13</title>
<polygon fill="white" stroke="#bfbfbf" points="318.5,-58.5 318.5,-79.5 389.5,-79.5 389.5,-58.5 318.5,-58.5"/>
<text text-anchor="middle" x="354" y="-66.5" font-family="Helvetica,sans-Serif" font-size="10.00">QWebPage</text>
</g>
<!-- Node7&#45;&gt;Node13 -->
<g id="edge26" class="edge"><title>Node7&#45;&gt;Node13</title>
<path fill="none" stroke="midnightblue" d="M320.52,-116.362C326.126,-108.431 333.932,-97.3885 340.597,-87.9606"/>
<polygon fill="midnightblue" stroke="midnightblue" points="343.613,-89.7568 346.528,-79.5707 337.897,-85.7161 343.613,-89.7568"/>
</g>
<!-- Node14 -->
<g id="node28" class="node"><title>Node14</title>
<polygon fill="white" stroke="#bfbfbf" points="407,-58.5 407,-79.5 483,-79.5 483,-58.5 407,-58.5"/>
<text text-anchor="middle" x="445" y="-66.5" font-family="Helvetica,sans-Serif" font-size="10.00">QWebFrame</text>
</g>
<!-- Node7&#45;&gt;Node14 -->
<g id="edge28" class="edge"><title>Node7&#45;&gt;Node14</title>
<path fill="none" stroke="midnightblue" d="M336.904,-116.497C357.8,-107.315 388.356,-93.8889 411.655,-83.6516"/>
<polygon fill="midnightblue" stroke="midnightblue" points="413.08,-86.8483 420.828,-79.6212 410.264,-80.4397 413.08,-86.8483"/>
</g>
<!-- Node8&#45;&gt;Node3 -->
<g id="edge16" class="edge"><title>Node8&#45;&gt;Node3</title>
<path fill="none" stroke="midnightblue" d="M90.9775,-58.3619C80.5688,-49.859 65.7806,-37.7785 53.7449,-27.9466"/>
<polygon fill="midnightblue" stroke="midnightblue" points="55.8987,-25.1866 45.9399,-21.5707 51.4701,-30.6077 55.8987,-25.1866"/>
</g>
<!-- Node9 -->
<g id="node18" class="node"><title>Node9</title>
<polygon fill="white" stroke="#bfbfbf" points="83.5,-0.5 83.5,-21.5 136.5,-21.5 136.5,-0.5 83.5,-0.5"/>
<text text-anchor="middle" x="110" y="-8.5" font-family="Helvetica,sans-Serif" font-size="10.00">QString</text>
</g>
<!-- Node8&#45;&gt;Node9 -->
<g id="edge18" class="edge"><title>Node8&#45;&gt;Node9</title>
<path fill="none" stroke="midnightblue" d="M105.1,-58.3619C105.87,-50.9219 106.923,-40.7427 107.856,-31.7276"/>
<polygon fill="midnightblue" stroke="midnightblue" points="111.359,-31.8777 108.906,-21.5707 104.396,-31.1574 111.359,-31.8777"/>
</g>
</g>
</svg>
