<?xml version="1.0" encoding="UTF-8" standalone="no"?>
<!DOCTYPE svg PUBLIC "-//W3C//DTD SVG 1.1//EN"
 "http://www.w3.org/Graphics/SVG/1.1/DTD/svg11.dtd">
<!-- Generated by graphviz version 2.26.3 (20100126.1600)
 -->
<!-- Title: WebAppDeferredUpdateHandler.cpp Pages: 1 -->
<svg width="1382pt" height="320pt"
 viewBox="0.00 0.00 1382.00 320.00" xmlns="http://www.w3.org/2000/svg" xmlns:xlink="http://www.w3.org/1999/xlink">
<g id="graph1" class="graph" transform="scale(1 1) rotate(0) translate(4 316)">
<title>WebAppDeferredUpdateHandler.cpp</title>
<polygon fill="white" stroke="white" points="-4,5 -4,-316 1379,-316 1379,5 -4,5"/>
<!-- Node1 -->
<g id="node1" class="node"><title>Node1</title>
<polygon fill="#bfbfbf" stroke="black" points="988,-290.5 988,-311.5 1178,-311.5 1178,-290.5 988,-290.5"/>
<text text-anchor="middle" x="1083" y="-298.5" font-family="Helvetica,sans-Serif" font-size="10.00">WebAppDeferredUpdateHandler.cpp</text>
</g>
<!-- Node2 -->
<g id="node3" class="node"><title>Node2</title>
<polygon fill="white" stroke="#bfbfbf" points="4.5,-0.5 4.5,-21.5 71.5,-21.5 71.5,-0.5 4.5,-0.5"/>
<text text-anchor="middle" x="38" y="-8.5" font-family="Helvetica,sans-Serif" font-size="10.00">Common.h</text>
</g>
<!-- Node1&#45;&gt;Node2 -->
<g id="edge2" class="edge"><title>Node1&#45;&gt;Node2</title>
<path fill="none" stroke="midnightblue" d="M987.87,-297.192C855.517,-291.272 608.464,-277.973 399,-254 220.202,-233.536 0,-364.965 0,-185 0,-185 0,-185 0,-127 0,-91.7411 16.0509,-53.3154 27.2892,-30.7323"/>
<polygon fill="midnightblue" stroke="midnightblue" points="30.4185,-32.3005 31.8946,-21.809 24.1981,-29.0901 30.4185,-32.3005"/>
</g>
<!-- Node3 -->
<g id="node5" class="node"><title>Node3</title>
<polygon fill="white" stroke="#bfbfbf" points="1089.5,-232.5 1089.5,-253.5 1120.5,-253.5 1120.5,-232.5 1089.5,-232.5"/>
<text text-anchor="middle" x="1105" y="-240.5" font-family="Helvetica,sans-Serif" font-size="10.00">set</text>
</g>
<!-- Node1&#45;&gt;Node3 -->
<g id="edge4" class="edge"><title>Node1&#45;&gt;Node3</title>
<path fill="none" stroke="midnightblue" d="M1087.04,-290.362C1089.92,-282.758 1093.89,-272.294 1097.36,-263.135"/>
<polygon fill="midnightblue" stroke="midnightblue" points="1100.72,-264.162 1100.99,-253.571 1094.17,-261.679 1100.72,-264.162"/>
</g>
<!-- Node4 -->
<g id="node7" class="node"><title>Node4</title>
<polygon fill="white" stroke="#bfbfbf" points="1137.5,-232.5 1137.5,-253.5 1178.5,-253.5 1178.5,-232.5 1137.5,-232.5"/>
<text text-anchor="middle" x="1158" y="-240.5" font-family="Helvetica,sans-Serif" font-size="10.00">glib.h</text>
</g>
<!-- Node1&#45;&gt;Node4 -->
<g id="edge6" class="edge"><title>Node1&#45;&gt;Node4</title>
<path fill="none" stroke="midnightblue" d="M1096.76,-290.362C1107.75,-281.859 1123.37,-269.779 1136.09,-259.947"/>
<polygon fill="midnightblue" stroke="midnightblue" points="1138.56,-262.457 1144.33,-253.571 1134.28,-256.919 1138.56,-262.457"/>
</g>
<!-- Node5 -->
<g id="node9" class="node"><title>Node5</title>
<a xlink:href="WebAppDeferredUpdateHandler_8h.htm" target="_top" xlink:title="WebAppDeferredUpdateHandler.h">
<polygon fill="white" stroke="black" points="1195.5,-232.5 1195.5,-253.5 1374.5,-253.5 1374.5,-232.5 1195.5,-232.5"/>
<text text-anchor="middle" x="1285" y="-240.5" font-family="Helvetica,sans-Serif" font-size="10.00">WebAppDeferredUpdateHandler.h</text>
</a>
</g>
<!-- Node1&#45;&gt;Node5 -->
<g id="edge8" class="edge"><title>Node1&#45;&gt;Node5</title>
<path fill="none" stroke="midnightblue" d="M1119.58,-290.497C1152.94,-280.918 1202.39,-266.72 1238.53,-256.342"/>
<polygon fill="midnightblue" stroke="midnightblue" points="1239.71,-259.647 1248.35,-253.523 1237.77,-252.919 1239.71,-259.647"/>
</g>
<!-- Node6 -->
<g id="node11" class="node"><title>Node6</title>
<a xlink:href="SysMgrWebBridge_8h.htm" target="_top" xlink:title="SysMgrWebBridge.h">
<polygon fill="white" stroke="black" points="1025.5,-116.5 1025.5,-137.5 1138.5,-137.5 1138.5,-116.5 1025.5,-116.5"/>
<text text-anchor="middle" x="1082" y="-124.5" font-family="Helvetica,sans-Serif" font-size="10.00">SysMgrWebBridge.h</text>
</a>
</g>
<!-- Node1&#45;&gt;Node6 -->
<g id="edge10" class="edge"><title>Node1&#45;&gt;Node6</title>
<path fill="none" stroke="midnightblue" d="M1082.41,-290.177C1081.92,-280.653 1081.26,-266.411 1081,-254 1080.2,-216.532 1080.91,-172.833 1081.47,-147.694"/>
<polygon fill="midnightblue" stroke="midnightblue" points="1084.97,-147.619 1081.71,-137.539 1077.97,-147.452 1084.97,-147.619"/>
</g>
<!-- Node14 -->
<g id="node28" class="node"><title>Node14</title>
<a xlink:href="WindowedWebApp_8h.htm" target="_top" xlink:title="WindowedWebApp.h">
<polygon fill="white" stroke="black" points="408,-232.5 408,-253.5 522,-253.5 522,-232.5 408,-232.5"/>
<text text-anchor="middle" x="465" y="-240.5" font-family="Helvetica,sans-Serif" font-size="10.00">WindowedWebApp.h</text>
</a>
</g>
<!-- Node1&#45;&gt;Node14 -->
<g id="edge28" class="edge"><title>Node1&#45;&gt;Node14</title>
<path fill="none" stroke="midnightblue" d="M987.792,-292.065C861.712,-280.232 642.492,-259.658 532.303,-249.316"/>
<polygon fill="midnightblue" stroke="midnightblue" points="532.592,-245.828 522.308,-248.378 531.938,-252.798 532.592,-245.828"/>
</g>
<!-- Node7 -->
<g id="node13" class="node"><title>Node7</title>
<a xlink:href="ProcessBase_8h.htm" target="_top" xlink:title="ProcessBase.h">
<polygon fill="white" stroke="black" points="1223.5,-58.5 1223.5,-79.5 1310.5,-79.5 1310.5,-58.5 1223.5,-58.5"/>
<text text-anchor="middle" x="1267" y="-66.5" font-family="Helvetica,sans-Serif" font-size="10.00">ProcessBase.h</text>
</a>
</g>
<!-- Node6&#45;&gt;Node7 -->
<g id="edge12" class="edge"><title>Node6&#45;&gt;Node7</title>
<path fill="none" stroke="midnightblue" d="M1115.5,-116.497C1145.79,-107 1190.57,-92.9619 1223.59,-82.6087"/>
<polygon fill="midnightblue" stroke="midnightblue" points="1224.94,-85.8544 1233.44,-79.5231 1222.85,-79.175 1224.94,-85.8544"/>
</g>
<!-- Node9 -->
<g id="node18" class="node"><title>Node9</title>
<polygon fill="white" stroke="#bfbfbf" points="1145.5,-58.5 1145.5,-79.5 1206.5,-79.5 1206.5,-58.5 1145.5,-58.5"/>
<text text-anchor="middle" x="1176" y="-66.5" font-family="Helvetica,sans-Serif" font-size="10.00">QtWebKit</text>
</g>
<!-- Node6&#45;&gt;Node9 -->
<g id="edge18" class="edge"><title>Node6&#45;&gt;Node9</title>
<path fill="none" stroke="midnightblue" d="M1099.24,-116.362C1113.55,-107.532 1134.11,-94.844 1150.36,-84.8224"/>
<polygon fill="midnightblue" stroke="midnightblue" points="1152.2,-87.8004 1158.87,-79.5707 1148.52,-81.8431 1152.2,-87.8004"/>
</g>
<!-- Node10 -->
<g id="node20" class="node"><title>Node10</title>
<polygon fill="white" stroke="#bfbfbf" points="887.5,-58.5 887.5,-79.5 946.5,-79.5 946.5,-58.5 887.5,-58.5"/>
<text text-anchor="middle" x="917" y="-66.5" font-family="Helvetica,sans-Serif" font-size="10.00">QPointer</text>
</g>
<!-- Node6&#45;&gt;Node10 -->
<g id="edge20" class="edge"><title>Node6&#45;&gt;Node10</title>
<path fill="none" stroke="midnightblue" d="M1052.12,-116.497C1025.25,-107.053 985.609,-93.1171 956.204,-82.7809"/>
<polygon fill="midnightblue" stroke="midnightblue" points="957.253,-79.4396 946.658,-79.4252 954.931,-86.0435 957.253,-79.4396"/>
</g>
<!-- Node11 -->
<g id="node22" class="node"><title>Node11</title>
<polygon fill="white" stroke="#bfbfbf" points="772,-58.5 772,-79.5 870,-79.5 870,-58.5 772,-58.5"/>
<text text-anchor="middle" x="821" y="-66.5" font-family="Helvetica,sans-Serif" font-size="10.00">palmimedefines.h</text>
</g>
<!-- Node6&#45;&gt;Node11 -->
<g id="edge22" class="edge"><title>Node6&#45;&gt;Node11</title>
<path fill="none" stroke="midnightblue" d="M1034.73,-116.497C990.803,-106.734 925.273,-92.1718 878.363,-81.7474"/>
<polygon fill="midnightblue" stroke="midnightblue" points="878.875,-78.2758 868.354,-79.5231 877.356,-85.1091 878.875,-78.2758"/>
</g>
<!-- Node12 -->
<g id="node24" class="node"><title>Node12</title>
<polygon fill="white" stroke="#bfbfbf" points="963.5,-58.5 963.5,-79.5 1034.5,-79.5 1034.5,-58.5 963.5,-58.5"/>
<text text-anchor="middle" x="999" y="-66.5" font-family="Helvetica,sans-Serif" font-size="10.00">QWebPage</text>
</g>
<!-- Node6&#45;&gt;Node12 -->
<g id="edge24" class="edge"><title>Node6&#45;&gt;Node12</title>
<path fill="none" stroke="midnightblue" d="M1066.78,-116.362C1054.37,-107.696 1036.65,-95.3126 1022.44,-85.3819"/>
<polygon fill="midnightblue" stroke="midnightblue" points="1024.33,-82.4297 1014.13,-79.5707 1020.32,-88.1676 1024.33,-82.4297"/>
</g>
<!-- Node13 -->
<g id="node26" class="node"><title>Node13</title>
<polygon fill="white" stroke="#bfbfbf" points="1052,-58.5 1052,-79.5 1128,-79.5 1128,-58.5 1052,-58.5"/>
<text text-anchor="middle" x="1090" y="-66.5" font-family="Helvetica,sans-Serif" font-size="10.00">QWebFrame</text>
</g>
<!-- Node6&#45;&gt;Node13 -->
<g id="edge26" class="edge"><title>Node6&#45;&gt;Node13</title>
<path fill="none" stroke="midnightblue" d="M1083.47,-116.362C1084.49,-108.922 1085.9,-98.7427 1087.14,-89.7276"/>
<polygon fill="midnightblue" stroke="midnightblue" points="1090.64,-89.9551 1088.54,-79.5707 1083.71,-88.9986 1090.64,-89.9551"/>
</g>
<!-- Node7&#45;&gt;Node2 -->
<g id="edge14" class="edge"><title>Node7&#45;&gt;Node2</title>
<path fill="none" stroke="midnightblue" d="M1223.4,-59.2195C1220.56,-58.7565 1217.75,-58.3429 1215,-58 989.311,-29.8272 267.244,-15.1293 81.7627,-11.7592"/>
<polygon fill="midnightblue" stroke="midnightblue" points="81.6363,-8.25646 71.5748,-11.5757 81.5101,-15.2553 81.6363,-8.25646"/>
</g>
<!-- Node8 -->
<g id="node16" class="node"><title>Node8</title>
<polygon fill="white" stroke="#bfbfbf" points="1240.5,-0.5 1240.5,-21.5 1293.5,-21.5 1293.5,-0.5 1240.5,-0.5"/>
<text text-anchor="middle" x="1267" y="-8.5" font-family="Helvetica,sans-Serif" font-size="10.00">QString</text>
</g>
<!-- Node7&#45;&gt;Node8 -->
<g id="edge16" class="edge"><title>Node7&#45;&gt;Node8</title>
<path fill="none" stroke="midnightblue" d="M1267,-58.3619C1267,-50.9219 1267,-40.7427 1267,-31.7276"/>
<polygon fill="midnightblue" stroke="midnightblue" points="1270.5,-31.5706 1267,-21.5707 1263.5,-31.5707 1270.5,-31.5706"/>
</g>
<!-- Node14&#45;&gt;Node2 -->
<g id="edge30" class="edge"><title>Node14&#45;&gt;Node2</title>
<path fill="none" stroke="midnightblue" d="M407.84,-240.33C301.365,-234.798 81.2073,-220.508 57,-196 13.4274,-151.886 24.536,-69.8488 32.8063,-31.6111"/>
<polygon fill="midnightblue" stroke="midnightblue" points="36.2675,-32.1786 35.1171,-21.6464 29.4484,-30.5972 36.2675,-32.1786"/>
</g>
<!-- Node15 -->
<g id="node31" class="node"><title>Node15</title>
<polygon fill="white" stroke="#bfbfbf" points="65.5,-174.5 65.5,-195.5 94.5,-195.5 94.5,-174.5 65.5,-174.5"/>
<text text-anchor="middle" x="80" y="-182.5" font-family="Helvetica,sans-Serif" font-size="10.00">list</text>
</g>
<!-- Node14&#45;&gt;Node15 -->
<g id="edge32" class="edge"><title>Node14&#45;&gt;Node15</title>
<path fill="none" stroke="midnightblue" d="M407.73,-241.143C337.428,-237.641 214.868,-227.558 104.445,-195.761"/>
<polygon fill="midnightblue" stroke="midnightblue" points="105.404,-192.395 94.8223,-192.925 103.425,-199.11 105.404,-192.395"/>
</g>
<!-- Node16 -->
<g id="node33" class="node"><title>Node16</title>
<polygon fill="white" stroke="#bfbfbf" points="111.5,-174.5 111.5,-195.5 192.5,-195.5 192.5,-174.5 111.5,-174.5"/>
<text text-anchor="middle" x="152" y="-182.5" font-family="Helvetica,sans-Serif" font-size="10.00">AsyncCaller.h</text>
</g>
<!-- Node14&#45;&gt;Node16 -->
<g id="edge34" class="edge"><title>Node14&#45;&gt;Node16</title>
<path fill="none" stroke="midnightblue" d="M407.956,-233.601C356.694,-224.983 279.104,-211.518 202.87,-196.321"/>
<polygon fill="midnightblue" stroke="midnightblue" points="203.105,-192.798 192.612,-194.264 201.729,-199.662 203.105,-192.798"/>
</g>
<!-- Node17 -->
<g id="node35" class="node"><title>Node17</title>
<a xlink:href="WebAppBase_8h.htm" target="_top" xlink:title="WebAppBase.h">
<polygon fill="white" stroke="black" points="945.5,-174.5 945.5,-195.5 1034.5,-195.5 1034.5,-174.5 945.5,-174.5"/>
<text text-anchor="middle" x="990" y="-182.5" font-family="Helvetica,sans-Serif" font-size="10.00">WebAppBase.h</text>
</a>
</g>
<!-- Node14&#45;&gt;Node17 -->
<g id="edge36" class="edge"><title>Node14&#45;&gt;Node17</title>
<path fill="none" stroke="midnightblue" d="M522.278,-239.253C609.422,-233.122 780.679,-219.386 935.095,-196.178"/>
<polygon fill="midnightblue" stroke="midnightblue" points="935.88,-199.599 945.241,-194.635 934.828,-192.678 935.88,-199.599"/>
</g>
<!-- Node20 -->
<g id="node43" class="node"><title>Node20</title>
<polygon fill="white" stroke="#bfbfbf" points="209.5,-174.5 209.5,-195.5 252.5,-195.5 252.5,-174.5 209.5,-174.5"/>
<text text-anchor="middle" x="231" y="-182.5" font-family="Helvetica,sans-Serif" font-size="10.00">sptr.h</text>
</g>
<!-- Node14&#45;&gt;Node20 -->
<g id="edge46" class="edge"><title>Node14&#45;&gt;Node20</title>
<path fill="none" stroke="midnightblue" d="M410.832,-232.446C371.706,-224.386 317.49,-212.322 262.137,-196.112"/>
<polygon fill="midnightblue" stroke="midnightblue" points="263.105,-192.748 252.522,-193.257 261.112,-199.459 263.105,-192.748"/>
</g>
<!-- Node21 -->
<g id="node45" class="node"><title>Node21</title>
<polygon fill="white" stroke="#bfbfbf" points="270,-174.5 270,-195.5 322,-195.5 322,-174.5 270,-174.5"/>
<text text-anchor="middle" x="296" y="-182.5" font-family="Helvetica,sans-Serif" font-size="10.00">Event.h</text>
</g>
<!-- Node14&#45;&gt;Node21 -->
<g id="edge48" class="edge"><title>Node14&#45;&gt;Node21</title>
<path fill="none" stroke="midnightblue" d="M434.395,-232.497C405.596,-222.613 362.461,-207.809 332.016,-197.361"/>
<polygon fill="midnightblue" stroke="midnightblue" points="332.812,-193.933 322.217,-193.998 330.54,-200.554 332.812,-193.933"/>
</g>
<!-- Node22 -->
<g id="node47" class="node"><title>Node22</title>
<polygon fill="white" stroke="#bfbfbf" points="340,-174.5 340,-195.5 392,-195.5 392,-174.5 340,-174.5"/>
<text text-anchor="middle" x="366" y="-182.5" font-family="Helvetica,sans-Serif" font-size="10.00">Timer.h</text>
</g>
<!-- Node14&#45;&gt;Node22 -->
<g id="edge50" class="edge"><title>Node14&#45;&gt;Node22</title>
<path fill="none" stroke="midnightblue" d="M446.842,-232.362C431.77,-223.532 410.113,-210.844 393.007,-200.822"/>
<polygon fill="midnightblue" stroke="midnightblue" points="394.441,-197.606 384.043,-195.571 390.902,-203.646 394.441,-197.606"/>
</g>
<!-- Node23 -->
<g id="node49" class="node"><title>Node23</title>
<polygon fill="white" stroke="#bfbfbf" points="409.5,-174.5 409.5,-195.5 520.5,-195.5 520.5,-174.5 409.5,-174.5"/>
<text text-anchor="middle" x="465" y="-182.5" font-family="Helvetica,sans-Serif" font-size="10.00">WindowProperties.h</text>
</g>
<!-- Node14&#45;&gt;Node23 -->
<g id="edge52" class="edge"><title>Node14&#45;&gt;Node23</title>
<path fill="none" stroke="midnightblue" d="M465,-232.362C465,-224.922 465,-214.743 465,-205.728"/>
<polygon fill="midnightblue" stroke="midnightblue" points="468.5,-205.571 465,-195.571 461.5,-205.571 468.5,-205.571"/>
</g>
<!-- Node24 -->
<g id="node51" class="node"><title>Node24</title>
<polygon fill="white" stroke="#bfbfbf" points="538,-174.5 538,-195.5 630,-195.5 630,-174.5 538,-174.5"/>
<text text-anchor="middle" x="584" y="-182.5" font-family="Helvetica,sans-Serif" font-size="10.00">WindowTypes.h</text>
</g>
<!-- Node14&#45;&gt;Node24 -->
<g id="edge54" class="edge"><title>Node14&#45;&gt;Node24</title>
<path fill="none" stroke="midnightblue" d="M486.55,-232.497C505.136,-223.438 532.202,-210.246 553.095,-200.063"/>
<polygon fill="midnightblue" stroke="midnightblue" points="554.753,-203.149 562.208,-195.621 551.686,-196.856 554.753,-203.149"/>
</g>
<!-- Node25 -->
<g id="node53" class="node"><title>Node25</title>
<polygon fill="white" stroke="#bfbfbf" points="648,-174.5 648,-195.5 772,-195.5 772,-174.5 648,-174.5"/>
<text text-anchor="middle" x="710" y="-182.5" font-family="Helvetica,sans-Serif" font-size="10.00">PIpcChannelListener.h</text>
</g>
<!-- Node14&#45;&gt;Node25 -->
<g id="edge56" class="edge"><title>Node14&#45;&gt;Node25</title>
<path fill="none" stroke="midnightblue" d="M509.368,-232.497C550.433,-222.775 611.604,-208.294 655.599,-197.879"/>
<polygon fill="midnightblue" stroke="midnightblue" points="656.624,-201.233 665.549,-195.523 655.012,-194.421 656.624,-201.233"/>
</g>
<!-- Node26 -->
<g id="node55" class="node"><title>Node26</title>
<polygon fill="white" stroke="#bfbfbf" points="790,-174.5 790,-195.5 864,-195.5 864,-174.5 790,-174.5"/>
<text text-anchor="middle" x="827" y="-182.5" font-family="Helvetica,sans-Serif" font-size="10.00">PIpcBuffer.h</text>
</g>
<!-- Node14&#45;&gt;Node26 -->
<g id="edge58" class="edge"><title>Node14&#45;&gt;Node26</title>
<path fill="none" stroke="midnightblue" d="M522.052,-236.035C583.423,-228.201 684.056,-214.374 780.033,-196.066"/>
<polygon fill="midnightblue" stroke="midnightblue" points="780.746,-199.493 789.903,-194.164 779.422,-192.62 780.746,-199.493"/>
</g>
<!-- Node27 -->
<g id="node57" class="node"><title>Node27</title>
<polygon fill="white" stroke="#bfbfbf" points="881.5,-174.5 881.5,-195.5 928.5,-195.5 928.5,-174.5 881.5,-174.5"/>
<text text-anchor="middle" x="905" y="-182.5" font-family="Helvetica,sans-Serif" font-size="10.00">QRect</text>
</g>
<!-- Node14&#45;&gt;Node27 -->
<g id="edge60" class="edge"><title>Node14&#45;&gt;Node27</title>
<path fill="none" stroke="midnightblue" d="M522.081,-240.325C599.558,-235.836 742.264,-224.531 871.341,-196.014"/>
<polygon fill="midnightblue" stroke="midnightblue" points="872.412,-199.361 881.4,-193.75 870.875,-192.532 872.412,-199.361"/>
</g>
<!-- Node17&#45;&gt;Node6 -->
<g id="edge38" class="edge"><title>Node17&#45;&gt;Node6</title>
<path fill="none" stroke="midnightblue" d="M1006.87,-174.362C1020.75,-165.614 1040.63,-153.079 1056.46,-143.101"/>
<polygon fill="midnightblue" stroke="midnightblue" points="1058.64,-145.864 1065.23,-137.571 1054.91,-139.943 1058.64,-145.864"/>
</g>
<!-- Node17&#45;&gt;Node11 -->
<g id="edge44" class="edge"><title>Node17&#45;&gt;Node11</title>
<path fill="none" stroke="midnightblue" d="M945.468,-174.493C909.711,-165.286 863.207,-151.33 849,-138 835.42,-125.259 828.257,-105.012 824.59,-89.7384"/>
<polygon fill="midnightblue" stroke="midnightblue" points="827.96,-88.7516 822.495,-79.6747 821.106,-90.1781 827.96,-88.7516"/>
</g>
<!-- Node18 -->
<g id="node38" class="node"><title>Node18</title>
<polygon fill="white" stroke="#bfbfbf" points="857.5,-116.5 857.5,-137.5 912.5,-137.5 912.5,-116.5 857.5,-116.5"/>
<text text-anchor="middle" x="885" y="-124.5" font-family="Helvetica,sans-Serif" font-size="10.00">QObject</text>
</g>
<!-- Node17&#45;&gt;Node18 -->
<g id="edge40" class="edge"><title>Node17&#45;&gt;Node18</title>
<path fill="none" stroke="midnightblue" d="M970.741,-174.362C954.534,-165.409 931.147,-152.491 912.891,-142.406"/>
<polygon fill="midnightblue" stroke="midnightblue" points="914.582,-139.342 904.137,-137.571 911.198,-145.47 914.582,-139.342"/>
</g>
<!-- Node19 -->
<g id="node40" class="node"><title>Node19</title>
<polygon fill="white" stroke="#bfbfbf" points="930,-116.5 930,-137.5 1008,-137.5 1008,-116.5 930,-116.5"/>
<text text-anchor="middle" x="969" y="-124.5" font-family="Helvetica,sans-Serif" font-size="10.00">lunaservice.h</text>
</g>
<!-- Node17&#45;&gt;Node19 -->
<g id="edge42" class="edge"><title>Node17&#45;&gt;Node19</title>
<path fill="none" stroke="midnightblue" d="M986.148,-174.362C983.395,-166.758 979.606,-156.294 976.29,-147.135"/>
<polygon fill="midnightblue" stroke="midnightblue" points="979.523,-145.782 972.827,-137.571 972.941,-148.165 979.523,-145.782"/>
</g>
</g>
</svg>
