<?xml version="1.0" encoding="UTF-8" standalone="no"?>
<!DOCTYPE svg PUBLIC "-//W3C//DTD SVG 1.1//EN"
 "http://www.w3.org/Graphics/SVG/1.1/DTD/svg11.dtd">
<!-- Generated by graphviz version 2.26.3 (20100126.1600)
 -->
<!-- Title: WebAppBase.cpp Pages: 1 -->
<svg width="2216pt" height="262pt"
 viewBox="0.00 0.00 2216.00 262.00" xmlns="http://www.w3.org/2000/svg" xmlns:xlink="http://www.w3.org/1999/xlink">
<g id="graph1" class="graph" transform="scale(1 1) rotate(0) translate(4 258)">
<title>WebAppBase.cpp</title>
<polygon fill="white" stroke="white" points="-4,5 -4,-258 2213,-258 2213,5 -4,5"/>
<!-- Node1 -->
<g id="node1" class="node"><title>Node1</title>
<polygon fill="#bfbfbf" stroke="black" points="1036,-232.5 1036,-253.5 1136,-253.5 1136,-232.5 1036,-232.5"/>
<text text-anchor="middle" x="1086" y="-240.5" font-family="Helvetica,sans-Serif" font-size="10.00">WebAppBase.cpp</text>
</g>
<!-- Node2 -->
<g id="node3" class="node"><title>Node2</title>
<polygon fill="white" stroke="#bfbfbf" points="1194.5,-0.5 1194.5,-21.5 1261.5,-21.5 1261.5,-0.5 1194.5,-0.5"/>
<text text-anchor="middle" x="1228" y="-8.5" font-family="Helvetica,sans-Serif" font-size="10.00">Common.h</text>
</g>
<!-- Node1&#45;&gt;Node2 -->
<g id="edge2" class="edge"><title>Node1&#45;&gt;Node2</title>
<path fill="none" stroke="midnightblue" d="M1035.93,-236.705C914.351,-219.564 620.559,-165.949 719,-58 750.09,-23.9065 1066.6,-14.1884 1184.26,-11.7421"/>
<polygon fill="midnightblue" stroke="midnightblue" points="1184.43,-15.2395 1194.36,-11.54 1184.29,-8.2409 1184.43,-15.2395"/>
</g>
<!-- Node3 -->
<g id="node5" class="node"><title>Node3</title>
<a xlink:href="WebAppBase_8h.htm" target="_top" xlink:title="WebAppBase.h">
<polygon fill="white" stroke="black" points="529.5,-174.5 529.5,-195.5 618.5,-195.5 618.5,-174.5 529.5,-174.5"/>
<text text-anchor="middle" x="574" y="-182.5" font-family="Helvetica,sans-Serif" font-size="10.00">WebAppBase.h</text>
</a>
</g>
<!-- Node1&#45;&gt;Node3 -->
<g id="edge4" class="edge"><title>Node1&#45;&gt;Node3</title>
<path fill="none" stroke="midnightblue" d="M1035.98,-237.333C939.615,-226.417 728.96,-202.554 628.889,-191.218"/>
<polygon fill="midnightblue" stroke="midnightblue" points="629.02,-187.71 618.69,-190.063 628.232,-194.666 629.02,-187.71"/>
</g>
<!-- Node14 -->
<g id="node29" class="node"><title>Node14</title>
<a xlink:href="ApplicationDescription_8h.htm" target="_top" xlink:title="ApplicationDescription.h">
<polygon fill="white" stroke="black" points="1068,-174.5 1068,-195.5 1198,-195.5 1198,-174.5 1068,-174.5"/>
<text text-anchor="middle" x="1133" y="-182.5" font-family="Helvetica,sans-Serif" font-size="10.00">ApplicationDescription.h</text>
</a>
</g>
<!-- Node1&#45;&gt;Node14 -->
<g id="edge30" class="edge"><title>Node1&#45;&gt;Node14</title>
<path fill="none" stroke="midnightblue" d="M1094.62,-232.362C1101.18,-224.268 1110.37,-212.932 1118.11,-203.38"/>
<polygon fill="midnightblue" stroke="midnightblue" points="1120.86,-205.544 1124.43,-195.571 1115.42,-201.136 1120.86,-205.544"/>
</g>
<!-- Node16 -->
<g id="node33" class="node"><title>Node16</title>
<a xlink:href="WebAppManager_8h.htm" target="_top" xlink:title="WebAppManager.h">
<polygon fill="white" stroke="black" points="1320.5,-116.5 1320.5,-137.5 1427.5,-137.5 1427.5,-116.5 1320.5,-116.5"/>
<text text-anchor="middle" x="1374" y="-124.5" font-family="Helvetica,sans-Serif" font-size="10.00">WebAppManager.h</text>
</a>
</g>
<!-- Node1&#45;&gt;Node16 -->
<g id="edge34" class="edge"><title>Node1&#45;&gt;Node16</title>
<path fill="none" stroke="midnightblue" d="M1075.41,-232.021C1062.52,-217.332 1044.22,-191.15 1059,-174 1075.17,-155.241 1222.98,-139.719 1310.26,-132.091"/>
<polygon fill="midnightblue" stroke="midnightblue" points="1310.67,-135.569 1320.33,-131.223 1310.07,-128.595 1310.67,-135.569"/>
</g>
<!-- Node36 -->
<g id="node82" class="node"><title>Node36</title>
<polygon fill="white" stroke="#bfbfbf" points="1215.5,-174.5 1215.5,-195.5 1270.5,-195.5 1270.5,-174.5 1215.5,-174.5"/>
<text text-anchor="middle" x="1243" y="-182.5" font-family="Helvetica,sans-Serif" font-size="10.00">QDebug</text>
</g>
<!-- Node1&#45;&gt;Node36 -->
<g id="edge92" class="edge"><title>Node1&#45;&gt;Node36</title>
<path fill="none" stroke="midnightblue" d="M1114.43,-232.497C1140.04,-223.035 1177.86,-209.066 1205.85,-198.724"/>
<polygon fill="midnightblue" stroke="midnightblue" points="1207.14,-201.979 1215.31,-195.231 1204.71,-195.413 1207.14,-201.979"/>
</g>
<!-- Node37 -->
<g id="node84" class="node"><title>Node37</title>
<polygon fill="white" stroke="#bfbfbf" points="1288,-174.5 1288,-195.5 1360,-195.5 1360,-174.5 1288,-174.5"/>
<text text-anchor="middle" x="1324" y="-182.5" font-family="Helvetica,sans-Serif" font-size="10.00">cjson/json.h</text>
</g>
<!-- Node1&#45;&gt;Node37 -->
<g id="edge94" class="edge"><title>Node1&#45;&gt;Node37</title>
<path fill="none" stroke="midnightblue" d="M1129.31,-232.464C1166.29,-223.466 1221.16,-210.108 1277.81,-196.29"/>
<polygon fill="midnightblue" stroke="midnightblue" points="1278.77,-199.659 1287.65,-193.888 1277.11,-192.858 1278.77,-199.659"/>
</g>
<!-- Node4 -->
<g id="node7" class="node"><title>Node4</title>
<a xlink:href="SysMgrWebBridge_8h.htm" target="_top" xlink:title="SysMgrWebBridge.h">
<polygon fill="white" stroke="black" points="232.5,-116.5 232.5,-137.5 345.5,-137.5 345.5,-116.5 232.5,-116.5"/>
<text text-anchor="middle" x="289" y="-124.5" font-family="Helvetica,sans-Serif" font-size="10.00">SysMgrWebBridge.h</text>
</a>
</g>
<!-- Node3&#45;&gt;Node4 -->
<g id="edge6" class="edge"><title>Node3&#45;&gt;Node4</title>
<path fill="none" stroke="midnightblue" d="M529.469,-175.938C481.522,-166.18 404.895,-150.586 351.054,-139.629"/>
<polygon fill="midnightblue" stroke="midnightblue" points="351.439,-136.135 340.942,-137.571 350.043,-142.995 351.439,-136.135"/>
</g>
<!-- Node9 -->
<g id="node18" class="node"><title>Node9</title>
<polygon fill="white" stroke="#bfbfbf" points="440,-58.5 440,-79.5 538,-79.5 538,-58.5 440,-58.5"/>
<text text-anchor="middle" x="489" y="-66.5" font-family="Helvetica,sans-Serif" font-size="10.00">palmimedefines.h</text>
</g>
<!-- Node3&#45;&gt;Node9 -->
<g id="edge28" class="edge"><title>Node3&#45;&gt;Node9</title>
<path fill="none" stroke="midnightblue" d="M566.156,-174.295C551.734,-154.613 520.839,-112.45 502.825,-87.8668"/>
<polygon fill="midnightblue" stroke="midnightblue" points="505.559,-85.6768 496.825,-79.6792 499.913,-89.8142 505.559,-85.6768"/>
</g>
<!-- Node12 -->
<g id="node24" class="node"><title>Node12</title>
<polygon fill="white" stroke="#bfbfbf" points="601.5,-116.5 601.5,-137.5 656.5,-137.5 656.5,-116.5 601.5,-116.5"/>
<text text-anchor="middle" x="629" y="-124.5" font-family="Helvetica,sans-Serif" font-size="10.00">QObject</text>
</g>
<!-- Node3&#45;&gt;Node12 -->
<g id="edge24" class="edge"><title>Node3&#45;&gt;Node12</title>
<path fill="none" stroke="midnightblue" d="M584.088,-174.362C591.841,-166.186 602.73,-154.702 611.845,-145.091"/>
<polygon fill="midnightblue" stroke="midnightblue" points="614.635,-147.235 618.976,-137.571 609.555,-142.419 614.635,-147.235"/>
</g>
<!-- Node13 -->
<g id="node26" class="node"><title>Node13</title>
<polygon fill="white" stroke="#bfbfbf" points="556,-58.5 556,-79.5 634,-79.5 634,-58.5 556,-58.5"/>
<text text-anchor="middle" x="595" y="-66.5" font-family="Helvetica,sans-Serif" font-size="10.00">lunaservice.h</text>
</g>
<!-- Node3&#45;&gt;Node13 -->
<g id="edge26" class="edge"><title>Node3&#45;&gt;Node13</title>
<path fill="none" stroke="midnightblue" d="M575.938,-174.295C579.407,-155.131 586.735,-114.654 591.227,-89.8434"/>
<polygon fill="midnightblue" stroke="midnightblue" points="594.729,-90.1428 593.067,-79.6792 587.841,-88.8957 594.729,-90.1428"/>
</g>
<!-- Node5 -->
<g id="node9" class="node"><title>Node5</title>
<a xlink:href="ProcessBase_8h.htm" target="_top" xlink:title="ProcessBase.h">
<polygon fill="white" stroke="black" points="335.5,-58.5 335.5,-79.5 422.5,-79.5 422.5,-58.5 335.5,-58.5"/>
<text text-anchor="middle" x="379" y="-66.5" font-family="Helvetica,sans-Serif" font-size="10.00">ProcessBase.h</text>
</a>
</g>
<!-- Node4&#45;&gt;Node5 -->
<g id="edge8" class="edge"><title>Node4&#45;&gt;Node5</title>
<path fill="none" stroke="midnightblue" d="M305.507,-116.362C319.082,-107.614 338.533,-95.0786 354.015,-85.1015"/>
<polygon fill="midnightblue" stroke="midnightblue" points="356.088,-87.9297 362.597,-79.5707 352.296,-82.0457 356.088,-87.9297"/>
</g>
<!-- Node7 -->
<g id="node14" class="node"><title>Node7</title>
<polygon fill="white" stroke="#bfbfbf" points="181.5,-58.5 181.5,-79.5 242.5,-79.5 242.5,-58.5 181.5,-58.5"/>
<text text-anchor="middle" x="212" y="-66.5" font-family="Helvetica,sans-Serif" font-size="10.00">QtWebKit</text>
</g>
<!-- Node4&#45;&gt;Node7 -->
<g id="edge14" class="edge"><title>Node4&#45;&gt;Node7</title>
<path fill="none" stroke="midnightblue" d="M274.877,-116.362C263.48,-107.777 247.242,-95.5459 234.122,-85.6636"/>
<polygon fill="midnightblue" stroke="midnightblue" points="236.127,-82.7916 226.033,-79.5707 231.915,-88.3829 236.127,-82.7916"/>
</g>
<!-- Node8 -->
<g id="node16" class="node"><title>Node8</title>
<polygon fill="white" stroke="#bfbfbf" points="259.5,-58.5 259.5,-79.5 318.5,-79.5 318.5,-58.5 259.5,-58.5"/>
<text text-anchor="middle" x="289" y="-66.5" font-family="Helvetica,sans-Serif" font-size="10.00">QPointer</text>
</g>
<!-- Node4&#45;&gt;Node8 -->
<g id="edge16" class="edge"><title>Node4&#45;&gt;Node8</title>
<path fill="none" stroke="midnightblue" d="M289,-116.362C289,-108.922 289,-98.7427 289,-89.7276"/>
<polygon fill="midnightblue" stroke="midnightblue" points="292.5,-89.5706 289,-79.5707 285.5,-89.5707 292.5,-89.5706"/>
</g>
<!-- Node4&#45;&gt;Node9 -->
<g id="edge18" class="edge"><title>Node4&#45;&gt;Node9</title>
<path fill="none" stroke="midnightblue" d="M325.218,-116.497C358.247,-106.918 407.208,-92.7196 442.994,-82.3418"/>
<polygon fill="midnightblue" stroke="midnightblue" points="444.084,-85.6699 452.714,-79.5231 442.134,-78.9469 444.084,-85.6699"/>
</g>
<!-- Node10 -->
<g id="node20" class="node"><title>Node10</title>
<polygon fill="white" stroke="#bfbfbf" points="-0.5,-58.5 -0.5,-79.5 70.5,-79.5 70.5,-58.5 -0.5,-58.5"/>
<text text-anchor="middle" x="35" y="-66.5" font-family="Helvetica,sans-Serif" font-size="10.00">QWebPage</text>
</g>
<!-- Node4&#45;&gt;Node10 -->
<g id="edge20" class="edge"><title>Node4&#45;&gt;Node10</title>
<path fill="none" stroke="midnightblue" d="M240.123,-116.42C199.759,-107.602 140.709,-94.5161 80.5735,-80.3385"/>
<polygon fill="midnightblue" stroke="midnightblue" points="81.0603,-76.8571 70.5231,-77.961 79.4488,-83.6691 81.0603,-76.8571"/>
</g>
<!-- Node11 -->
<g id="node22" class="node"><title>Node11</title>
<polygon fill="white" stroke="#bfbfbf" points="88,-58.5 88,-79.5 164,-79.5 164,-58.5 88,-58.5"/>
<text text-anchor="middle" x="126" y="-66.5" font-family="Helvetica,sans-Serif" font-size="10.00">QWebFrame</text>
</g>
<!-- Node4&#45;&gt;Node11 -->
<g id="edge22" class="edge"><title>Node4&#45;&gt;Node11</title>
<path fill="none" stroke="midnightblue" d="M259.482,-116.497C233.024,-107.082 194.021,-93.2036 165,-82.8773"/>
<polygon fill="midnightblue" stroke="midnightblue" points="166.168,-79.578 155.573,-79.5231 163.821,-86.173 166.168,-79.578"/>
</g>
<!-- Node5&#45;&gt;Node2 -->
<g id="edge10" class="edge"><title>Node5&#45;&gt;Node2</title>
<path fill="none" stroke="midnightblue" d="M422.61,-59.2805C425.442,-58.8025 428.256,-58.369 431,-58 578.42,-38.1741 1038.86,-18.5555 1183.83,-12.7323"/>
<polygon fill="midnightblue" stroke="midnightblue" points="1184.26,-16.2181 1194.11,-12.3213 1183.98,-9.22367 1184.26,-16.2181"/>
</g>
<!-- Node6 -->
<g id="node12" class="node"><title>Node6</title>
<polygon fill="white" stroke="#bfbfbf" points="493.5,-0.5 493.5,-21.5 546.5,-21.5 546.5,-0.5 493.5,-0.5"/>
<text text-anchor="middle" x="520" y="-8.5" font-family="Helvetica,sans-Serif" font-size="10.00">QString</text>
</g>
<!-- Node5&#45;&gt;Node6 -->
<g id="edge12" class="edge"><title>Node5&#45;&gt;Node6</title>
<path fill="none" stroke="midnightblue" d="M404.534,-58.4966C426.953,-49.2746 459.785,-35.7695 484.713,-25.5153"/>
<polygon fill="midnightblue" stroke="midnightblue" points="486.263,-28.6623 494.179,-21.6212 483.6,-22.1886 486.263,-28.6623"/>
</g>
<!-- Node15 -->
<g id="node31" class="node"><title>Node15</title>
<polygon fill="white" stroke="#bfbfbf" points="1445,-116.5 1445,-137.5 1599,-137.5 1599,-116.5 1445,-116.5"/>
<text text-anchor="middle" x="1522" y="-124.5" font-family="Helvetica,sans-Serif" font-size="10.00">ApplicationDescriptionBase.h</text>
</g>
<!-- Node14&#45;&gt;Node15 -->
<g id="edge32" class="edge"><title>Node14&#45;&gt;Node15</title>
<path fill="none" stroke="midnightblue" d="M1198.11,-175.292C1265.04,-165.313 1369.38,-149.756 1441.46,-139.009"/>
<polygon fill="midnightblue" stroke="midnightblue" points="1442.03,-142.462 1451.41,-137.525 1441,-135.538 1442.03,-142.462"/>
</g>
<!-- Node16&#45;&gt;Node2 -->
<g id="edge36" class="edge"><title>Node16&#45;&gt;Node2</title>
<path fill="none" stroke="midnightblue" d="M1354.77,-116.46C1339.16,-107.556 1316.89,-94.0414 1299,-80 1278.92,-64.2406 1258.25,-43.5467 1244.42,-28.946"/>
<polygon fill="midnightblue" stroke="midnightblue" points="1246.88,-26.4491 1237.5,-21.5314 1241.76,-31.2279 1246.88,-26.4491"/>
</g>
<!-- Node16&#45;&gt;Node6 -->
<g id="edge44" class="edge"><title>Node16&#45;&gt;Node6</title>
<path fill="none" stroke="midnightblue" d="M1320.49,-124.968C1185.48,-119.551 833.605,-103.554 719,-80 687.334,-73.492 604.476,-43.0568 556.249,-24.852"/>
<polygon fill="midnightblue" stroke="midnightblue" points="557.394,-21.5432 546.802,-21.2754 554.915,-28.0896 557.394,-21.5432"/>
</g>
<!-- Node16&#45;&gt;Node13 -->
<g id="edge82" class="edge"><title>Node16&#45;&gt;Node13</title>
<path fill="none" stroke="midnightblue" d="M1320.46,-126.095C1199.88,-123.498 898.012,-113.868 648,-80 646.743,-79.8297 645.471,-79.6468 644.189,-79.453"/>
<polygon fill="midnightblue" stroke="midnightblue" points="644.698,-75.9895 634.256,-77.7856 643.539,-82.8929 644.698,-75.9895"/>
</g>
<!-- Node17 -->
<g id="node36" class="node"><title>Node17</title>
<polygon fill="white" stroke="#bfbfbf" points="1391.5,-0.5 1391.5,-21.5 1428.5,-21.5 1428.5,-0.5 1391.5,-0.5"/>
<text text-anchor="middle" x="1410" y="-8.5" font-family="Helvetica,sans-Serif" font-size="10.00">map</text>
</g>
<!-- Node16&#45;&gt;Node17 -->
<g id="edge38" class="edge"><title>Node16&#45;&gt;Node17</title>
<path fill="none" stroke="midnightblue" d="M1377.32,-116.295C1383.3,-97.0451 1395.94,-56.2889 1403.64,-31.5091"/>
<polygon fill="midnightblue" stroke="midnightblue" points="1407.06,-32.2673 1406.69,-21.6792 1400.38,-30.1924 1407.06,-32.2673"/>
</g>
<!-- Node18 -->
<g id="node38" class="node"><title>Node18</title>
<polygon fill="white" stroke="#bfbfbf" points="1629.5,-58.5 1629.5,-79.5 1658.5,-79.5 1658.5,-58.5 1629.5,-58.5"/>
<text text-anchor="middle" x="1644" y="-66.5" font-family="Helvetica,sans-Serif" font-size="10.00">list</text>
</g>
<!-- Node16&#45;&gt;Node18 -->
<g id="edge40" class="edge"><title>Node16&#45;&gt;Node18</title>
<path fill="none" stroke="midnightblue" d="M1427.65,-117.118C1493.35,-104.93 1598.17,-85.1852 1616,-80 1617.24,-79.6389 1618.5,-79.2449 1619.77,-78.8276"/>
<polygon fill="midnightblue" stroke="midnightblue" points="1621.16,-82.0487 1629.35,-75.3356 1618.76,-75.472 1621.16,-82.0487"/>
</g>
<!-- Node19 -->
<g id="node40" class="node"><title>Node19</title>
<polygon fill="white" stroke="#bfbfbf" points="1675.5,-58.5 1675.5,-79.5 1718.5,-79.5 1718.5,-58.5 1675.5,-58.5"/>
<text text-anchor="middle" x="1697" y="-66.5" font-family="Helvetica,sans-Serif" font-size="10.00">string</text>
</g>
<!-- Node16&#45;&gt;Node19 -->
<g id="edge42" class="edge"><title>Node16&#45;&gt;Node19</title>
<path fill="none" stroke="midnightblue" d="M1427.76,-117.391C1430.54,-116.915 1433.3,-116.449 1436,-116 1535.29,-99.457 1564.59,-105.592 1665.23,-80.1216"/>
<polygon fill="midnightblue" stroke="midnightblue" points="1666.39,-83.4383 1675.2,-77.5562 1664.65,-76.6592 1666.39,-83.4383"/>
</g>
<!-- Node20 -->
<g id="node43" class="node"><title>Node20</title>
<polygon fill="white" stroke="#bfbfbf" points="1735.5,-58.5 1735.5,-79.5 1812.5,-79.5 1812.5,-58.5 1735.5,-58.5"/>
<text text-anchor="middle" x="1774" y="-66.5" font-family="Helvetica,sans-Serif" font-size="10.00">QApplication</text>
</g>
<!-- Node16&#45;&gt;Node20 -->
<g id="edge46" class="edge"><title>Node16&#45;&gt;Node20</title>
<path fill="none" stroke="midnightblue" d="M1427.74,-117.287C1430.53,-116.839 1433.3,-116.407 1436,-116 1561.6,-97.1028 1596.93,-102.58 1725.13,-80.2002"/>
<polygon fill="midnightblue" stroke="midnightblue" points="1726.1,-83.5821 1735.34,-78.3934 1724.88,-76.6892 1726.1,-83.5821"/>
</g>
<!-- Node21 -->
<g id="node45" class="node"><title>Node21</title>
<a xlink:href="SyncTask_8h.htm" target="_top" xlink:title="SyncTask.h">
<polygon fill="white" stroke="black" points="1307.5,-58.5 1307.5,-79.5 1378.5,-79.5 1378.5,-58.5 1307.5,-58.5"/>
<text text-anchor="middle" x="1343" y="-66.5" font-family="Helvetica,sans-Serif" font-size="10.00">SyncTask.h</text>
</a>
</g>
<!-- Node16&#45;&gt;Node21 -->
<g id="edge48" class="edge"><title>Node16&#45;&gt;Node21</title>
<path fill="none" stroke="midnightblue" d="M1368.31,-116.362C1364.16,-108.595 1358.42,-97.8426 1353.45,-88.5458"/>
<polygon fill="midnightblue" stroke="midnightblue" points="1356.45,-86.7401 1348.65,-79.5707 1350.28,-90.0398 1356.45,-86.7401"/>
</g>
<!-- Node23 -->
<g id="node50" class="node"><title>Node23</title>
<polygon fill="white" stroke="#bfbfbf" points="1830,-58.5 1830,-79.5 1882,-79.5 1882,-58.5 1830,-58.5"/>
<text text-anchor="middle" x="1856" y="-66.5" font-family="Helvetica,sans-Serif" font-size="10.00">Event.h</text>
</g>
<!-- Node16&#45;&gt;Node23 -->
<g id="edge54" class="edge"><title>Node16&#45;&gt;Node23</title>
<path fill="none" stroke="midnightblue" d="M1427.73,-117.189C1430.52,-116.766 1433.29,-116.366 1436,-116 1603.06,-93.408 1650.72,-113.17 1819.8,-79.8923"/>
<polygon fill="midnightblue" stroke="midnightblue" points="1820.66,-83.2883 1829.78,-77.8936 1819.29,-76.4244 1820.66,-83.2883"/>
</g>
<!-- Node24 -->
<g id="node52" class="node"><title>Node24</title>
<a xlink:href="MemoryWatcher_8h.htm" target="_top" xlink:title="MemoryWatcher.h">
<polygon fill="white" stroke="black" points="1433.5,-58.5 1433.5,-79.5 1536.5,-79.5 1536.5,-58.5 1433.5,-58.5"/>
<text text-anchor="middle" x="1485" y="-66.5" font-family="Helvetica,sans-Serif" font-size="10.00">MemoryWatcher.h</text>
</a>
</g>
<!-- Node16&#45;&gt;Node24 -->
<g id="edge56" class="edge"><title>Node16&#45;&gt;Node24</title>
<path fill="none" stroke="midnightblue" d="M1394.1,-116.497C1411.28,-107.519 1436.23,-94.4835 1455.64,-84.3387"/>
<polygon fill="midnightblue" stroke="midnightblue" points="1457.43,-87.3544 1464.67,-79.6212 1454.19,-81.1503 1457.43,-87.3544"/>
</g>
<!-- Node26 -->
<g id="node58" class="node"><title>Node26</title>
<polygon fill="white" stroke="#bfbfbf" points="1514,-0.5 1514,-21.5 1586,-21.5 1586,-0.5 1514,-0.5"/>
<text text-anchor="middle" x="1550" y="-8.5" font-family="Helvetica,sans-Serif" font-size="10.00">SignalSlot.h</text>
</g>
<!-- Node16&#45;&gt;Node26 -->
<g id="edge68" class="edge"><title>Node16&#45;&gt;Node26</title>
<path fill="none" stroke="midnightblue" d="M1423.48,-116.442C1471.12,-105.798 1537.11,-89.6074 1545,-80 1555.92,-66.7042 1556.18,-46.6861 1554.3,-31.6304"/>
<polygon fill="midnightblue" stroke="midnightblue" points="1557.74,-31.0116 1552.67,-21.7116 1550.84,-32.1469 1557.74,-31.0116"/>
</g>
<!-- Node27 -->
<g id="node60" class="node"><title>Node27</title>
<polygon fill="white" stroke="#bfbfbf" points="1604,-0.5 1604,-21.5 1656,-21.5 1656,-0.5 1604,-0.5"/>
<text text-anchor="middle" x="1630" y="-8.5" font-family="Helvetica,sans-Serif" font-size="10.00">Timer.h</text>
</g>
<!-- Node16&#45;&gt;Node27 -->
<g id="edge70" class="edge"><title>Node16&#45;&gt;Node27</title>
<path fill="none" stroke="midnightblue" d="M1427.52,-117.107C1474.96,-107.725 1540.14,-93.1482 1563,-80 1584.98,-67.3574 1604.46,-45.4303 1616.67,-29.6847"/>
<polygon fill="midnightblue" stroke="midnightblue" points="1619.48,-31.7726 1622.68,-21.6713 1613.88,-27.5746 1619.48,-31.7726"/>
</g>
<!-- Node28 -->
<g id="node64" class="node"><title>Node28</title>
<polygon fill="white" stroke="#bfbfbf" points="1900,-58.5 1900,-79.5 1992,-79.5 1992,-58.5 1900,-58.5"/>
<text text-anchor="middle" x="1946" y="-66.5" font-family="Helvetica,sans-Serif" font-size="10.00">WindowTypes.h</text>
</g>
<!-- Node16&#45;&gt;Node28 -->
<g id="edge72" class="edge"><title>Node16&#45;&gt;Node28</title>
<path fill="none" stroke="midnightblue" d="M1427.72,-117.142C1430.52,-116.731 1433.29,-116.347 1436,-116 1633.97,-90.6664 1688.34,-107.382 1889.83,-80.0215"/>
<polygon fill="midnightblue" stroke="midnightblue" points="1890.43,-83.4733 1899.85,-78.6414 1889.47,-76.5388 1890.43,-83.4733"/>
</g>
<!-- Node29 -->
<g id="node66" class="node"><title>Node29</title>
<polygon fill="white" stroke="#bfbfbf" points="2009.5,-58.5 2009.5,-79.5 2120.5,-79.5 2120.5,-58.5 2009.5,-58.5"/>
<text text-anchor="middle" x="2065" y="-66.5" font-family="Helvetica,sans-Serif" font-size="10.00">WindowProperties.h</text>
</g>
<!-- Node16&#45;&gt;Node29 -->
<g id="edge74" class="edge"><title>Node16&#45;&gt;Node29</title>
<path fill="none" stroke="midnightblue" d="M1427.71,-117.091C1430.51,-116.693 1433.29,-116.326 1436,-116 1682.53,-86.3709 1749.34,-108.746 1999.09,-80.125"/>
<polygon fill="midnightblue" stroke="midnightblue" points="1999.67,-83.5813 2009.2,-78.9504 1998.87,-76.6281 1999.67,-83.5813"/>
</g>
<!-- Node30 -->
<g id="node68" class="node"><title>Node30</title>
<a xlink:href="WebAppCache_8h.htm" target="_top" xlink:title="WebAppCache.h">
<polygon fill="white" stroke="black" points="1157.5,-58.5 1157.5,-79.5 1252.5,-79.5 1252.5,-58.5 1157.5,-58.5"/>
<text text-anchor="middle" x="1205" y="-66.5" font-family="Helvetica,sans-Serif" font-size="10.00">WebAppCache.h</text>
</a>
</g>
<!-- Node16&#45;&gt;Node30 -->
<g id="edge76" class="edge"><title>Node16&#45;&gt;Node30</title>
<path fill="none" stroke="midnightblue" d="M1343.4,-116.497C1315.96,-107.082 1275.52,-93.2036 1245.44,-82.8773"/>
<polygon fill="midnightblue" stroke="midnightblue" points="1246.26,-79.4588 1235.66,-79.5231 1243.98,-86.0797 1246.26,-79.4588"/>
</g>
<!-- Node31 -->
<g id="node71" class="node"><title>Node31</title>
<polygon fill="white" stroke="#bfbfbf" points="2137.5,-58.5 2137.5,-79.5 2208.5,-79.5 2208.5,-58.5 2137.5,-58.5"/>
<text text-anchor="middle" x="2173" y="-66.5" font-family="Helvetica,sans-Serif" font-size="10.00">HostBase.h</text>
</g>
<!-- Node16&#45;&gt;Node31 -->
<g id="edge80" class="edge"><title>Node16&#45;&gt;Node31</title>
<path fill="none" stroke="midnightblue" d="M1427.71,-117.052C1430.51,-116.665 1433.28,-116.31 1436,-116 1739.13,-81.3704 1822.2,-124.664 2127.08,-80.0605"/>
<polygon fill="midnightblue" stroke="midnightblue" points="2127.72,-83.5051 2137.1,-78.5762 2126.69,-76.5808 2127.72,-83.5051"/>
</g>
<!-- Node32 -->
<g id="node74" class="node"><title>Node32</title>
<polygon fill="white" stroke="#bfbfbf" points="728,-58.5 728,-79.5 802,-79.5 802,-58.5 728,-58.5"/>
<text text-anchor="middle" x="765" y="-66.5" font-family="Helvetica,sans-Serif" font-size="10.00">PIpcBuffer.h</text>
</g>
<!-- Node16&#45;&gt;Node32 -->
<g id="edge84" class="edge"><title>Node16&#45;&gt;Node32</title>
<path fill="none" stroke="midnightblue" d="M1320.11,-125.216C1221.21,-121.353 1004.05,-110.133 812.051,-79.9625"/>
<polygon fill="midnightblue" stroke="midnightblue" points="812.486,-76.4878 802.06,-78.3716 811.385,-83.4007 812.486,-76.4878"/>
</g>
<!-- Node33 -->
<g id="node76" class="node"><title>Node33</title>
<polygon fill="white" stroke="#bfbfbf" points="819.5,-58.5 819.5,-79.5 892.5,-79.5 892.5,-58.5 819.5,-58.5"/>
<text text-anchor="middle" x="856" y="-66.5" font-family="Helvetica,sans-Serif" font-size="10.00">PIpcClient.h</text>
</g>
<!-- Node16&#45;&gt;Node33 -->
<g id="edge86" class="edge"><title>Node16&#45;&gt;Node33</title>
<path fill="none" stroke="midnightblue" d="M1320.47,-124.141C1234.35,-119.004 1059.6,-106.365 903.034,-80.1743"/>
<polygon fill="midnightblue" stroke="midnightblue" points="903.193,-76.6513 892.749,-78.4294 902.023,-83.5527 903.193,-76.6513"/>
</g>
<!-- Node34 -->
<g id="node78" class="node"><title>Node34</title>
<polygon fill="white" stroke="#bfbfbf" points="910,-58.5 910,-79.5 1034,-79.5 1034,-58.5 910,-58.5"/>
<text text-anchor="middle" x="972" y="-66.5" font-family="Helvetica,sans-Serif" font-size="10.00">PIpcChannelListener.h</text>
</g>
<!-- Node16&#45;&gt;Node34 -->
<g id="edge88" class="edge"><title>Node16&#45;&gt;Node34</title>
<path fill="none" stroke="midnightblue" d="M1320.37,-119.597C1256.92,-110.792 1147.83,-95.5039 1044.33,-80.185"/>
<polygon fill="midnightblue" stroke="midnightblue" points="1044.74,-76.7073 1034.33,-78.7026 1043.71,-83.6316 1044.74,-76.7073"/>
</g>
<!-- Node35 -->
<g id="node80" class="node"><title>Node35</title>
<polygon fill="white" stroke="#bfbfbf" points="1051.5,-58.5 1051.5,-79.5 1140.5,-79.5 1140.5,-58.5 1051.5,-58.5"/>
<text text-anchor="middle" x="1096" y="-66.5" font-family="Helvetica,sans-Serif" font-size="10.00">PIpcMessage.h</text>
</g>
<!-- Node16&#45;&gt;Node35 -->
<g id="edge90" class="edge"><title>Node16&#45;&gt;Node35</title>
<path fill="none" stroke="midnightblue" d="M1323.66,-116.497C1274.91,-106.327 1201.2,-90.9479 1150.95,-80.4645"/>
<polygon fill="midnightblue" stroke="midnightblue" points="1151.42,-76.987 1140.92,-78.3708 1149.99,-83.8395 1151.42,-76.987"/>
</g>
<!-- Node21&#45;&gt;Node2 -->
<g id="edge50" class="edge"><title>Node21&#45;&gt;Node2</title>
<path fill="none" stroke="midnightblue" d="M1322.17,-58.4966C1304.29,-49.4786 1278.29,-36.3649 1258.14,-26.2006"/>
<polygon fill="midnightblue" stroke="midnightblue" points="1259.56,-22.9994 1249.06,-21.6212 1256.41,-29.2495 1259.56,-22.9994"/>
</g>
<!-- Node22 -->
<g id="node48" class="node"><title>Node22</title>
<polygon fill="white" stroke="#bfbfbf" points="1302,-0.5 1302,-21.5 1374,-21.5 1374,-0.5 1302,-0.5"/>
<text text-anchor="middle" x="1338" y="-8.5" font-family="Helvetica,sans-Serif" font-size="10.00">TaskBase.h</text>
</g>
<!-- Node21&#45;&gt;Node22 -->
<g id="edge52" class="edge"><title>Node21&#45;&gt;Node22</title>
<path fill="none" stroke="midnightblue" d="M1342.08,-58.3619C1341.44,-50.9219 1340.56,-40.7427 1339.79,-31.7276"/>
<polygon fill="midnightblue" stroke="midnightblue" points="1343.26,-31.2331 1338.91,-21.5707 1336.28,-31.8343 1343.26,-31.2331"/>
</g>
<!-- Node24&#45;&gt;Node2 -->
<g id="edge58" class="edge"><title>Node24&#45;&gt;Node2</title>
<path fill="none" stroke="midnightblue" d="M1438.46,-58.4966C1390.99,-47.7834 1317.91,-31.29 1271.55,-20.8279"/>
<polygon fill="midnightblue" stroke="midnightblue" points="1272.04,-17.3501 1261.51,-18.5627 1270.49,-24.1784 1272.04,-17.3501"/>
</g>
<!-- Node24&#45;&gt;Node17 -->
<g id="edge62" class="edge"><title>Node24&#45;&gt;Node17</title>
<path fill="none" stroke="midnightblue" d="M1471.24,-58.3619C1460.25,-49.859 1444.63,-37.7785 1431.91,-27.9466"/>
<polygon fill="midnightblue" stroke="midnightblue" points="1433.72,-24.9195 1423.67,-21.5707 1429.44,-30.4569 1433.72,-24.9195"/>
</g>
<!-- Node25 -->
<g id="node55" class="node"><title>Node25</title>
<polygon fill="white" stroke="#bfbfbf" points="1446,-0.5 1446,-21.5 1496,-21.5 1496,-0.5 1446,-0.5"/>
<text text-anchor="middle" x="1471" y="-8.5" font-family="Helvetica,sans-Serif" font-size="10.00">stdint.h</text>
</g>
<!-- Node24&#45;&gt;Node25 -->
<g id="edge60" class="edge"><title>Node24&#45;&gt;Node25</title>
<path fill="none" stroke="midnightblue" d="M1482.43,-58.3619C1480.62,-50.8401 1478.13,-40.5187 1475.93,-31.4308"/>
<polygon fill="midnightblue" stroke="midnightblue" points="1479.3,-30.4702 1473.55,-21.5707 1472.5,-32.1127 1479.3,-30.4702"/>
</g>
<!-- Node24&#45;&gt;Node26 -->
<g id="edge64" class="edge"><title>Node24&#45;&gt;Node26</title>
<path fill="none" stroke="midnightblue" d="M1496.92,-58.3619C1506.36,-49.9408 1519.73,-38.0105 1530.69,-28.2308"/>
<polygon fill="midnightblue" stroke="midnightblue" points="1533.02,-30.8401 1538.15,-21.5707 1528.36,-25.6171 1533.02,-30.8401"/>
</g>
<!-- Node24&#45;&gt;Node27 -->
<g id="edge66" class="edge"><title>Node24&#45;&gt;Node27</title>
<path fill="none" stroke="midnightblue" d="M1511.26,-58.4966C1534.56,-49.1759 1568.8,-35.4799 1594.53,-25.1872"/>
<polygon fill="midnightblue" stroke="midnightblue" points="1595.95,-28.3889 1603.94,-21.4252 1593.35,-21.8895 1595.95,-28.3889"/>
</g>
<!-- Node30&#45;&gt;Node2 -->
<g id="edge78" class="edge"><title>Node30&#45;&gt;Node2</title>
<path fill="none" stroke="midnightblue" d="M1209.22,-58.3619C1212.23,-50.7584 1216.38,-40.294 1220.02,-31.1349"/>
<polygon fill="midnightblue" stroke="midnightblue" points="1223.38,-32.1567 1223.81,-21.5707 1216.87,-29.5762 1223.38,-32.1567"/>
</g>
</g>
</svg>
