<?xml version="1.0" encoding="UTF-8" standalone="no"?>
<!DOCTYPE svg PUBLIC "-//W3C//DTD SVG 1.1//EN"
 "http://www.w3.org/Graphics/SVG/1.1/DTD/svg11.dtd">
<!-- Generated by graphviz version 2.26.3 (20100126.1600)
 -->
<!-- Title: WebAppFactory.cpp Pages: 1 -->
<svg width="458pt" height="204pt"
 viewBox="0.00 0.00 458.47 204.00" xmlns="http://www.w3.org/2000/svg" xmlns:xlink="http://www.w3.org/1999/xlink">
<g id="graph1" class="graph" transform="scale(1 1) rotate(0) translate(4 200)">
<title>WebAppFactory.cpp</title>
<polygon fill="white" stroke="white" points="-4,5 -4,-200 455.469,-200 455.469,5 -4,5"/>
<!-- Node1 -->
<g id="node1" class="node"><title>Node1</title>
<polygon fill="#bfbfbf" stroke="black" points="218.969,-174.5 218.969,-195.5 329.969,-195.5 329.969,-174.5 218.969,-174.5"/>
<text text-anchor="middle" x="274.469" y="-182.5" font-family="Helvetica,sans-Serif" font-size="10.00">WebAppFactory.cpp</text>
</g>
<!-- Node2 -->
<g id="node3" class="node"><title>Node2</title>
<polygon fill="white" stroke="#bfbfbf" points="87.9693,-0.5 87.9693,-21.5 154.969,-21.5 154.969,-0.5 87.9693,-0.5"/>
<text text-anchor="middle" x="121.469" y="-8.5" font-family="Helvetica,sans-Serif" font-size="10.00">Common.h</text>
</g>
<!-- Node1&#45;&gt;Node2 -->
<g id="edge2" class="edge"><title>Node1&#45;&gt;Node2</title>
<path fill="none" stroke="midnightblue" d="M218.958,-183.242C149.272,-179.731 35.6585,-169.243 9.46932,-138 -24.9996,-96.8798 46.6122,-49.8382 90.5632,-26.2204"/>
<polygon fill="midnightblue" stroke="midnightblue" points="92.2438,-29.2912 99.4738,-21.5468 88.9923,-23.0922 92.2438,-29.2912"/>
</g>
<!-- Node3 -->
<g id="node5" class="node"><title>Node3</title>
<a xlink:href="WebAppFactory_8h.htm" target="_top" xlink:title="WebAppFactory.h">
<polygon fill="white" stroke="black" points="176.469,-58.5 176.469,-79.5 276.469,-79.5 276.469,-58.5 176.469,-58.5"/>
<text text-anchor="middle" x="226.469" y="-66.5" font-family="Helvetica,sans-Serif" font-size="10.00">WebAppFactory.h</text>
</a>
</g>
<!-- Node1&#45;&gt;Node3 -->
<g id="edge4" class="edge"><title>Node1&#45;&gt;Node3</title>
<path fill="none" stroke="midnightblue" d="M284.895,-174.366C297.161,-160.508 314.534,-135.717 303.469,-116 295.484,-101.771 281.246,-91.3396 267.167,-83.9711"/>
<polygon fill="midnightblue" stroke="midnightblue" points="268.534,-80.7447 258.005,-79.5621 265.499,-87.0523 268.534,-80.7447"/>
</g>
<!-- Node5 -->
<g id="node10" class="node"><title>Node5</title>
<polygon fill="white" stroke="#bfbfbf" points="292.469,-0.5 292.469,-21.5 384.469,-21.5 384.469,-0.5 292.469,-0.5"/>
<text text-anchor="middle" x="338.469" y="-8.5" font-family="Helvetica,sans-Serif" font-size="10.00">WindowTypes.h</text>
</g>
<!-- Node1&#45;&gt;Node5 -->
<g id="edge26" class="edge"><title>Node1&#45;&gt;Node5</title>
<path fill="none" stroke="midnightblue" d="M288.31,-174.188C298.367,-165.526 311.406,-152.463 318.469,-138 335.279,-103.583 338.539,-58.2403 338.862,-32.0852"/>
<polygon fill="midnightblue" stroke="midnightblue" points="342.362,-31.8266 338.847,-21.8319 335.362,-31.8371 342.362,-31.8266"/>
</g>
<!-- Node6 -->
<g id="node12" class="node"><title>Node6</title>
<polygon fill="white" stroke="#bfbfbf" points="387.969,-116.5 387.969,-137.5 450.969,-137.5 450.969,-116.5 387.969,-116.5"/>
<text text-anchor="middle" x="419.469" y="-124.5" font-family="Helvetica,sans-Serif" font-size="10.00">Settings.h</text>
</g>
<!-- Node1&#45;&gt;Node6 -->
<g id="edge12" class="edge"><title>Node1&#45;&gt;Node6</title>
<path fill="none" stroke="midnightblue" d="M300.728,-174.497C323.885,-165.234 357.845,-151.65 383.521,-141.379"/>
<polygon fill="midnightblue" stroke="midnightblue" points="384.931,-144.585 392.916,-137.621 382.332,-138.086 384.931,-144.585"/>
</g>
<!-- Node7 -->
<g id="node14" class="node"><title>Node7</title>
<a xlink:href="WebAppFactoryMinimal_8h.htm" target="_top" xlink:title="WebAppFactoryMinimal.h">
<polygon fill="white" stroke="black" points="158.469,-116.5 158.469,-137.5 294.469,-137.5 294.469,-116.5 158.469,-116.5"/>
<text text-anchor="middle" x="226.469" y="-124.5" font-family="Helvetica,sans-Serif" font-size="10.00">WebAppFactoryMinimal.h</text>
</a>
</g>
<!-- Node1&#45;&gt;Node7 -->
<g id="edge14" class="edge"><title>Node1&#45;&gt;Node7</title>
<path fill="none" stroke="midnightblue" d="M265.665,-174.362C258.967,-166.268 249.585,-154.932 241.68,-145.38"/>
<polygon fill="midnightblue" stroke="midnightblue" points="244.29,-143.043 235.217,-137.571 238.897,-147.506 244.29,-143.043"/>
</g>
<!-- Node8 -->
<g id="node18" class="node"><title>Node8</title>
<a xlink:href="WebAppFactoryLuna_8h.htm" target="_top" xlink:title="WebAppFactoryLuna.h">
<polygon fill="white" stroke="black" points="17.9693,-116.5 17.9693,-137.5 140.969,-137.5 140.969,-116.5 17.9693,-116.5"/>
<text text-anchor="middle" x="79.4693" y="-124.5" font-family="Helvetica,sans-Serif" font-size="10.00">WebAppFactoryLuna.h</text>
</a>
</g>
<!-- Node1&#45;&gt;Node8 -->
<g id="edge20" class="edge"><title>Node1&#45;&gt;Node8</title>
<path fill="none" stroke="midnightblue" d="M239.156,-174.497C207.091,-164.959 159.624,-150.841 124.773,-140.475"/>
<polygon fill="midnightblue" stroke="midnightblue" points="125.431,-137.019 114.849,-137.523 123.436,-143.729 125.431,-137.019"/>
</g>
<!-- Node3&#45;&gt;Node2 -->
<g id="edge6" class="edge"><title>Node3&#45;&gt;Node2</title>
<path fill="none" stroke="midnightblue" d="M207.211,-58.3619C191.004,-49.4094 167.616,-36.4908 149.36,-26.4064"/>
<polygon fill="midnightblue" stroke="midnightblue" points="151.052,-23.3422 140.606,-21.5707 147.667,-29.4696 151.052,-23.3422"/>
</g>
<!-- Node4 -->
<g id="node8" class="node"><title>Node4</title>
<polygon fill="white" stroke="#bfbfbf" points="199.969,-0.5 199.969,-21.5 252.969,-21.5 252.969,-0.5 199.969,-0.5"/>
<text text-anchor="middle" x="226.469" y="-8.5" font-family="Helvetica,sans-Serif" font-size="10.00">QString</text>
</g>
<!-- Node3&#45;&gt;Node4 -->
<g id="edge8" class="edge"><title>Node3&#45;&gt;Node4</title>
<path fill="none" stroke="midnightblue" d="M226.469,-58.3619C226.469,-50.9219 226.469,-40.7427 226.469,-31.7276"/>
<polygon fill="midnightblue" stroke="midnightblue" points="229.969,-31.5706 226.469,-21.5707 222.969,-31.5707 229.969,-31.5706"/>
</g>
<!-- Node3&#45;&gt;Node5 -->
<g id="edge10" class="edge"><title>Node3&#45;&gt;Node5</title>
<path fill="none" stroke="midnightblue" d="M246.752,-58.4966C264.087,-49.5194 289.26,-36.4835 308.85,-26.3387"/>
<polygon fill="midnightblue" stroke="midnightblue" points="310.689,-29.3278 317.959,-21.6212 307.47,-23.1118 310.689,-29.3278"/>
</g>
<!-- Node7&#45;&gt;Node2 -->
<g id="edge16" class="edge"><title>Node7&#45;&gt;Node2</title>
<path fill="none" stroke="midnightblue" d="M210.573,-116.404C198.014,-107.569 180.493,-94.1763 167.469,-80 153.541,-64.8391 140.82,-45.0859 132.303,-30.6015"/>
<polygon fill="midnightblue" stroke="midnightblue" points="135.121,-28.4777 127.116,-21.5367 129.045,-31.9545 135.121,-28.4777"/>
</g>
<!-- Node7&#45;&gt;Node3 -->
<g id="edge18" class="edge"><title>Node7&#45;&gt;Node3</title>
<path fill="none" stroke="midnightblue" d="M226.469,-116.362C226.469,-108.922 226.469,-98.7427 226.469,-89.7276"/>
<polygon fill="midnightblue" stroke="midnightblue" points="229.969,-89.5706 226.469,-79.5707 222.969,-89.5707 229.969,-89.5706"/>
</g>
<!-- Node8&#45;&gt;Node2 -->
<g id="edge22" class="edge"><title>Node8&#45;&gt;Node2</title>
<path fill="none" stroke="midnightblue" d="M83.3453,-116.295C90.3463,-96.9588 105.204,-55.9229 114.164,-31.1767"/>
<polygon fill="midnightblue" stroke="midnightblue" points="117.489,-32.2734 117.603,-21.6792 110.907,-29.8903 117.489,-32.2734"/>
</g>
<!-- Node8&#45;&gt;Node3 -->
<g id="edge24" class="edge"><title>Node8&#45;&gt;Node3</title>
<path fill="none" stroke="midnightblue" d="M106.09,-116.497C129.567,-107.234 163.995,-93.6499 190.025,-83.3793"/>
<polygon fill="midnightblue" stroke="midnightblue" points="191.532,-86.5473 199.55,-79.6212 188.963,-80.0358 191.532,-86.5473"/>
</g>
</g>
</svg>
