<?xml version="1.0" encoding="UTF-8" standalone="no"?>
<!DOCTYPE svg PUBLIC "-//W3C//DTD SVG 1.1//EN"
 "http://www.w3.org/Graphics/SVG/1.1/DTD/svg11.dtd">
<!-- Generated by graphviz version 2.26.3 (20100126.1600)
 -->
<!-- Title: WebAppFactoryLuna.cpp Pages: 1 -->
<svg width="2595pt" height="436pt"
 viewBox="0.00 0.00 2595.47 436.00" xmlns="http://www.w3.org/2000/svg" xmlns:xlink="http://www.w3.org/1999/xlink">
<g id="graph1" class="graph" transform="scale(1 1) rotate(0) translate(4 432)">
<title>WebAppFactoryLuna.cpp</title>
<polygon fill="white" stroke="white" points="-4,5 -4,-432 2592.47,-432 2592.47,5 -4,5"/>
<!-- Node1 -->
<g id="node1" class="node"><title>Node1</title>
<polygon fill="#bfbfbf" stroke="black" points="967.467,-406.5 967.467,-427.5 1101.47,-427.5 1101.47,-406.5 967.467,-406.5"/>
<text text-anchor="middle" x="1034.47" y="-414.5" font-family="Helvetica,sans-Serif" font-size="10.00">WebAppFactoryLuna.cpp</text>
</g>
<!-- Node2 -->
<g id="node3" class="node"><title>Node2</title>
<polygon fill="white" stroke="#bfbfbf" points="1049.97,-0.5 1049.97,-21.5 1116.97,-21.5 1116.97,-0.5 1049.97,-0.5"/>
<text text-anchor="middle" x="1083.47" y="-8.5" font-family="Helvetica,sans-Serif" font-size="10.00">Common.h</text>
</g>
<!-- Node1&#45;&gt;Node2 -->
<g id="edge2" class="edge"><title>Node1&#45;&gt;Node2</title>
<path fill="none" stroke="midnightblue" d="M967.088,-416.531C737.726,-414.054 1.46743,-398.509 1.46743,-301 1.46743,-301 1.46743,-301 1.46743,-127 1.46743,-95.1919 -4.40229,-77.8305 20.4674,-58 60.9095,-25.7524 844.462,-13.9535 1039.7,-11.5078"/>
<polygon fill="midnightblue" stroke="midnightblue" points="1039.91,-15.0055 1049.87,-11.3823 1039.82,-8.00608 1039.91,-15.0055"/>
</g>
<!-- Node3 -->
<g id="node5" class="node"><title>Node3</title>
<a xlink:href="WebAppFactoryLuna_8h.htm" target="_top" xlink:title="WebAppFactoryLuna.h">
<polygon fill="white" stroke="black" points="334.967,-290.5 334.967,-311.5 457.967,-311.5 457.967,-290.5 334.967,-290.5"/>
<text text-anchor="middle" x="396.467" y="-298.5" font-family="Helvetica,sans-Serif" font-size="10.00">WebAppFactoryLuna.h</text>
</a>
</g>
<!-- Node1&#45;&gt;Node3 -->
<g id="edge4" class="edge"><title>Node1&#45;&gt;Node3</title>
<path fill="none" stroke="midnightblue" d="M967.447,-413.847C828.008,-406.934 515.898,-389.497 471.467,-370 446.357,-358.981 424.162,-336.014 410.556,-319.605"/>
<polygon fill="midnightblue" stroke="midnightblue" points="413.231,-317.346 404.253,-311.72 407.763,-321.716 413.231,-317.346"/>
</g>
<!-- Node7 -->
<g id="node15" class="node"><title>Node7</title>
<a xlink:href="AlertWebApp_8h.htm" target="_top" xlink:title="AlertWebApp.h">
<polygon fill="white" stroke="black" points="1055.47,-290.5 1055.47,-311.5 1141.47,-311.5 1141.47,-290.5 1055.47,-290.5"/>
<text text-anchor="middle" x="1098.47" y="-298.5" font-family="Helvetica,sans-Serif" font-size="10.00">AlertWebApp.h</text>
</a>
</g>
<!-- Node1&#45;&gt;Node7 -->
<g id="edge16" class="edge"><title>Node1&#45;&gt;Node7</title>
<path fill="none" stroke="midnightblue" d="M1040.37,-406.295C1051.14,-386.786 1074.09,-345.188 1087.7,-320.518"/>
<polygon fill="midnightblue" stroke="midnightblue" points="1090.81,-322.126 1092.58,-311.679 1084.68,-318.744 1090.81,-322.126"/>
</g>
<!-- Node11 -->
<g id="node25" class="node"><title>Node11</title>
<a xlink:href="WebAppBase_8h.htm" target="_top" xlink:title="WebAppBase.h">
<polygon fill="white" stroke="black" points="558.967,-174.5 558.967,-195.5 647.967,-195.5 647.967,-174.5 558.967,-174.5"/>
<text text-anchor="middle" x="603.467" y="-182.5" font-family="Helvetica,sans-Serif" font-size="10.00">WebAppBase.h</text>
</a>
</g>
<!-- Node1&#45;&gt;Node11 -->
<g id="edge106" class="edge"><title>Node1&#45;&gt;Node11</title>
<path fill="none" stroke="midnightblue" d="M974.414,-406.461C853.192,-383.836 586.275,-326.714 533.467,-254 518.53,-233.431 544.68,-213.436 569.158,-200.312"/>
<polygon fill="midnightblue" stroke="midnightblue" points="571.039,-203.282 578.368,-195.632 567.867,-197.042 571.039,-203.282"/>
</g>
<!-- Node12 -->
<g id="node27" class="node"><title>Node12</title>
<a xlink:href="SysMgrWebBridge_8h.htm" target="_top" xlink:title="SysMgrWebBridge.h">
<polygon fill="white" stroke="black" points="262.967,-116.5 262.967,-137.5 375.967,-137.5 375.967,-116.5 262.967,-116.5"/>
<text text-anchor="middle" x="319.467" y="-124.5" font-family="Helvetica,sans-Serif" font-size="10.00">SysMgrWebBridge.h</text>
</a>
</g>
<!-- Node1&#45;&gt;Node12 -->
<g id="edge104" class="edge"><title>Node1&#45;&gt;Node12</title>
<path fill="none" stroke="midnightblue" d="M967.33,-414.866C832.513,-410.069 533.319,-396.707 434.467,-370 366.343,-351.595 291.467,-371.567 291.467,-301 291.467,-301 291.467,-301 291.467,-243 291.467,-208.661 303.205,-170.161 311.481,-147.282"/>
<polygon fill="midnightblue" stroke="midnightblue" points="314.853,-148.259 315.092,-137.667 308.3,-145.798 314.853,-148.259"/>
</g>
<!-- Node28 -->
<g id="node63" class="node"><title>Node28</title>
<a xlink:href="CardWebApp_8h.htm" target="_top" xlink:title="CardWebApp.h">
<polygon fill="white" stroke="black" points="800.467,-290.5 800.467,-311.5 888.467,-311.5 888.467,-290.5 800.467,-290.5"/>
<text text-anchor="middle" x="844.467" y="-298.5" font-family="Helvetica,sans-Serif" font-size="10.00">CardWebApp.h</text>
</a>
</g>
<!-- Node1&#45;&gt;Node28 -->
<g id="edge70" class="edge"><title>Node1&#45;&gt;Node28</title>
<path fill="none" stroke="midnightblue" d="M1008.78,-406.34C988.584,-397.568 960.021,-384.29 936.467,-370 910.65,-354.336 883.225,-333.096 865.104,-318.336"/>
<polygon fill="midnightblue" stroke="midnightblue" points="866.948,-315.32 857.004,-311.663 862.497,-320.723 866.948,-315.32"/>
</g>
<!-- Node32 -->
<g id="node75" class="node"><title>Node32</title>
<a xlink:href="DockWebApp_8h.htm" target="_top" xlink:title="DockWebApp.h">
<polygon fill="white" stroke="black" points="944.967,-348.5 944.967,-369.5 1033.97,-369.5 1033.97,-348.5 944.967,-348.5"/>
<text text-anchor="middle" x="989.467" y="-356.5" font-family="Helvetica,sans-Serif" font-size="10.00">DockWebApp.h</text>
</a>
</g>
<!-- Node1&#45;&gt;Node32 -->
<g id="edge86" class="edge"><title>Node1&#45;&gt;Node32</title>
<path fill="none" stroke="midnightblue" d="M1026.21,-406.362C1020,-398.35 1011.32,-387.161 1003.95,-377.67"/>
<polygon fill="midnightblue" stroke="midnightblue" points="1006.56,-375.326 997.669,-369.571 1001.03,-379.617 1006.56,-375.326"/>
</g>
<!-- Node33 -->
<g id="node81" class="node"><title>Node33</title>
<a xlink:href="DashboardWebApp_8h.htm" target="_top" xlink:title="DashboardWebApp.h">
<polygon fill="white" stroke="black" points="1197.47,-290.5 1197.47,-311.5 1313.47,-311.5 1313.47,-290.5 1197.47,-290.5"/>
<text text-anchor="middle" x="1255.47" y="-298.5" font-family="Helvetica,sans-Serif" font-size="10.00">DashboardWebApp.h</text>
</a>
</g>
<!-- Node1&#45;&gt;Node33 -->
<g id="edge96" class="edge"><title>Node1&#45;&gt;Node33</title>
<path fill="none" stroke="midnightblue" d="M1101.77,-407.094C1149.27,-398.906 1207.67,-386.04 1226.47,-370 1240.78,-357.782 1248.18,-337.301 1251.91,-321.819"/>
<polygon fill="midnightblue" stroke="midnightblue" points="1255.42,-322.12 1254.02,-311.618 1248.57,-320.702 1255.42,-322.12"/>
</g>
<!-- Node34 -->
<g id="node85" class="node"><title>Node34</title>
<polygon fill="white" stroke="#bfbfbf" points="1154.97,-348.5 1154.97,-369.5 1217.97,-369.5 1217.97,-348.5 1154.97,-348.5"/>
<text text-anchor="middle" x="1186.47" y="-356.5" font-family="Helvetica,sans-Serif" font-size="10.00">Settings.h</text>
</g>
<!-- Node1&#45;&gt;Node34 -->
<g id="edge102" class="edge"><title>Node1&#45;&gt;Node34</title>
<path fill="none" stroke="midnightblue" d="M1061.99,-406.497C1086.45,-397.164 1122.41,-383.445 1149.39,-373.147"/>
<polygon fill="midnightblue" stroke="midnightblue" points="1150.79,-376.358 1158.89,-369.523 1148.3,-369.818 1150.79,-376.358"/>
</g>
<!-- Node35 -->
<g id="node89" class="node"><title>Node35</title>
<a xlink:href="WebAppManager_8h.htm" target="_top" xlink:title="WebAppManager.h">
<polygon fill="white" stroke="black" points="1760.97,-232.5 1760.97,-253.5 1867.97,-253.5 1867.97,-232.5 1760.97,-232.5"/>
<text text-anchor="middle" x="1814.47" y="-240.5" font-family="Helvetica,sans-Serif" font-size="10.00">WebAppManager.h</text>
</a>
</g>
<!-- Node1&#45;&gt;Node35 -->
<g id="edge108" class="edge"><title>Node1&#45;&gt;Node35</title>
<path fill="none" stroke="midnightblue" d="M1045.58,-406.293C1075.04,-378.158 1155.19,-303.38 1188.47,-290 1239.66,-269.417 1601.61,-251.987 1750.61,-245.602"/>
<polygon fill="midnightblue" stroke="midnightblue" points="1751.12,-249.084 1760.97,-245.162 1750.83,-242.09 1751.12,-249.084"/>
</g>
<!-- Node48 -->
<g id="node131" class="node"><title>Node48</title>
<polygon fill="white" stroke="#bfbfbf" points="1273.47,-348.5 1273.47,-369.5 1359.47,-369.5 1359.47,-348.5 1273.47,-348.5"/>
<text text-anchor="middle" x="1316.47" y="-356.5" font-family="Helvetica,sans-Serif" font-size="10.00">PIpcChannel.h</text>
</g>
<!-- Node1&#45;&gt;Node48 -->
<g id="edge166" class="edge"><title>Node1&#45;&gt;Node48</title>
<path fill="none" stroke="midnightblue" d="M1085.54,-406.497C1135.83,-396.152 1212.32,-380.419 1263.32,-369.93"/>
<polygon fill="midnightblue" stroke="midnightblue" points="1264.08,-373.348 1273.17,-367.905 1262.67,-366.492 1264.08,-373.348"/>
</g>
<!-- Node49 -->
<g id="node133" class="node"><title>Node49</title>
<polygon fill="white" stroke="#bfbfbf" points="1376.97,-348.5 1376.97,-369.5 1431.97,-369.5 1431.97,-348.5 1376.97,-348.5"/>
<text text-anchor="middle" x="1404.47" y="-356.5" font-family="Helvetica,sans-Serif" font-size="10.00">QDebug</text>
</g>
<!-- Node1&#45;&gt;Node49 -->
<g id="edge168" class="edge"><title>Node1&#45;&gt;Node49</title>
<path fill="none" stroke="midnightblue" d="M1101.56,-410.684C1167.14,-403.805 1269.9,-391.155 1366.72,-370.157"/>
<polygon fill="midnightblue" stroke="midnightblue" points="1367.66,-373.533 1376.67,-367.963 1366.16,-366.697 1367.66,-373.533"/>
</g>
<!-- Node3&#45;&gt;Node2 -->
<g id="edge6" class="edge"><title>Node3&#45;&gt;Node2</title>
<path fill="none" stroke="midnightblue" d="M404.356,-290.416C428.361,-258.955 504.063,-165.145 588.467,-116 666.974,-70.2889 695.848,-77.9857 784.467,-58 874.168,-37.7704 980.948,-23.236 1039.54,-16.0632"/>
<polygon fill="midnightblue" stroke="midnightblue" points="1040.06,-19.5269 1049.56,-14.8512 1039.21,-12.5776 1040.06,-19.5269"/>
</g>
<!-- Node4 -->
<g id="node8" class="node"><title>Node4</title>
<a xlink:href="WebAppFactory_8h.htm" target="_top" xlink:title="WebAppFactory.h">
<polygon fill="white" stroke="black" points="319.467,-232.5 319.467,-253.5 419.467,-253.5 419.467,-232.5 319.467,-232.5"/>
<text text-anchor="middle" x="369.467" y="-240.5" font-family="Helvetica,sans-Serif" font-size="10.00">WebAppFactory.h</text>
</a>
</g>
<!-- Node3&#45;&gt;Node4 -->
<g id="edge8" class="edge"><title>Node3&#45;&gt;Node4</title>
<path fill="none" stroke="midnightblue" d="M391.515,-290.362C387.938,-282.677 382.999,-272.069 378.703,-262.84"/>
<polygon fill="midnightblue" stroke="midnightblue" points="381.782,-261.159 374.388,-253.571 375.436,-264.114 381.782,-261.159"/>
</g>
<!-- Node4&#45;&gt;Node2 -->
<g id="edge10" class="edge"><title>Node4&#45;&gt;Node2</title>
<path fill="none" stroke="midnightblue" d="M380.923,-232.399C417.641,-199.183 537.056,-97.0308 657.467,-58 727.823,-35.1945 945.802,-19.4657 1039.7,-13.5753"/>
<polygon fill="midnightblue" stroke="midnightblue" points="1039.96,-17.0661 1049.73,-12.9545 1039.53,-10.0795 1039.96,-17.0661"/>
</g>
<!-- Node5 -->
<g id="node11" class="node"><title>Node5</title>
<polygon fill="white" stroke="#bfbfbf" points="45.9674,-0.5 45.9674,-21.5 98.9674,-21.5 98.9674,-0.5 45.9674,-0.5"/>
<text text-anchor="middle" x="72.4674" y="-8.5" font-family="Helvetica,sans-Serif" font-size="10.00">QString</text>
</g>
<!-- Node4&#45;&gt;Node5 -->
<g id="edge12" class="edge"><title>Node4&#45;&gt;Node5</title>
<path fill="none" stroke="midnightblue" d="M319.155,-236.423C239.58,-223.011 86.9077,-184.36 20.4674,-80 8.52176,-61.2365 27.8631,-41.0587 46.2534,-27.4009"/>
<polygon fill="midnightblue" stroke="midnightblue" points="48.3358,-30.2156 54.5202,-21.613 44.321,-24.4813 48.3358,-30.2156"/>
</g>
<!-- Node6 -->
<g id="node13" class="node"><title>Node6</title>
<polygon fill="white" stroke="#bfbfbf" points="763.467,-174.5 763.467,-195.5 855.467,-195.5 855.467,-174.5 763.467,-174.5"/>
<text text-anchor="middle" x="809.467" y="-182.5" font-family="Helvetica,sans-Serif" font-size="10.00">WindowTypes.h</text>
</g>
<!-- Node4&#45;&gt;Node6 -->
<g id="edge14" class="edge"><title>Node4&#45;&gt;Node6</title>
<path fill="none" stroke="midnightblue" d="M419.475,-238.12C491.136,-230.858 627.373,-216.05 753.109,-196.128"/>
<polygon fill="midnightblue" stroke="midnightblue" points="753.978,-199.533 763.3,-194.498 752.873,-192.621 753.978,-199.533"/>
</g>
<!-- Node7&#45;&gt;Node2 -->
<g id="edge18" class="edge"><title>Node7&#45;&gt;Node2</title>
<path fill="none" stroke="midnightblue" d="M1110.83,-290.195C1120.24,-281.343 1132.82,-268.029 1140.47,-254 1155.69,-226.07 1159.47,-216.808 1159.47,-185 1159.47,-185 1159.47,-185 1159.47,-127 1159.47,-86.5104 1126.67,-49.1585 1104.17,-28.2949"/>
<polygon fill="midnightblue" stroke="midnightblue" points="1106.49,-25.681 1096.71,-21.6247 1101.83,-30.8993 1106.49,-25.681"/>
</g>
<!-- Node8 -->
<g id="node18" class="node"><title>Node8</title>
<a xlink:href="WindowedWebApp_8h.htm" target="_top" xlink:title="WindowedWebApp.h">
<polygon fill="white" stroke="black" points="1017.47,-232.5 1017.47,-253.5 1131.47,-253.5 1131.47,-232.5 1017.47,-232.5"/>
<text text-anchor="middle" x="1074.47" y="-240.5" font-family="Helvetica,sans-Serif" font-size="10.00">WindowedWebApp.h</text>
</a>
</g>
<!-- Node7&#45;&gt;Node8 -->
<g id="edge20" class="edge"><title>Node7&#45;&gt;Node8</title>
<path fill="none" stroke="midnightblue" d="M1094.07,-290.362C1090.89,-282.677 1086.5,-272.069 1082.68,-262.84"/>
<polygon fill="midnightblue" stroke="midnightblue" points="1085.9,-261.473 1078.84,-253.571 1079.43,-264.149 1085.9,-261.473"/>
</g>
<!-- Node8&#45;&gt;Node2 -->
<g id="edge22" class="edge"><title>Node8&#45;&gt;Node2</title>
<path fill="none" stroke="midnightblue" d="M1074.88,-232.429C1076.27,-196.648 1080.8,-79.6628 1082.66,-31.7481"/>
<polygon fill="midnightblue" stroke="midnightblue" points="1086.16,-31.7617 1083.05,-21.6335 1079.17,-31.4903 1086.16,-31.7617"/>
</g>
<!-- Node8&#45;&gt;Node6 -->
<g id="edge62" class="edge"><title>Node8&#45;&gt;Node6</title>
<path fill="none" stroke="midnightblue" d="M1026.48,-232.497C981.223,-222.592 913.393,-207.746 865.638,-197.294"/>
<polygon fill="midnightblue" stroke="midnightblue" points="866.285,-193.853 855.768,-195.134 864.788,-200.691 866.285,-193.853"/>
</g>
<!-- Node9 -->
<g id="node21" class="node"><title>Node9</title>
<polygon fill="white" stroke="#bfbfbf" points="1186.97,-174.5 1186.97,-195.5 1215.97,-195.5 1215.97,-174.5 1186.97,-174.5"/>
<text text-anchor="middle" x="1201.47" y="-182.5" font-family="Helvetica,sans-Serif" font-size="10.00">list</text>
</g>
<!-- Node8&#45;&gt;Node9 -->
<g id="edge24" class="edge"><title>Node8&#45;&gt;Node9</title>
<path fill="none" stroke="midnightblue" d="M1097.47,-232.497C1120.13,-222.146 1154.61,-206.399 1177.58,-195.91"/>
<polygon fill="midnightblue" stroke="midnightblue" points="1179.3,-198.971 1186.94,-191.633 1176.39,-192.604 1179.3,-198.971"/>
</g>
<!-- Node10 -->
<g id="node23" class="node"><title>Node10</title>
<polygon fill="white" stroke="#bfbfbf" points="974.967,-174.5 974.967,-195.5 1055.97,-195.5 1055.97,-174.5 974.967,-174.5"/>
<text text-anchor="middle" x="1015.47" y="-182.5" font-family="Helvetica,sans-Serif" font-size="10.00">AsyncCaller.h</text>
</g>
<!-- Node8&#45;&gt;Node10 -->
<g id="edge26" class="edge"><title>Node8&#45;&gt;Node10</title>
<path fill="none" stroke="midnightblue" d="M1063.65,-232.362C1055.25,-224.104 1043.41,-212.472 1033.58,-202.803"/>
<polygon fill="midnightblue" stroke="midnightblue" points="1035.81,-200.085 1026.22,-195.571 1030.9,-205.077 1035.81,-200.085"/>
</g>
<!-- Node8&#45;&gt;Node11 -->
<g id="edge28" class="edge"><title>Node8&#45;&gt;Node11</title>
<path fill="none" stroke="midnightblue" d="M1017.18,-235.946C925.71,-224.682 747.844,-202.779 658.082,-191.725"/>
<polygon fill="midnightblue" stroke="midnightblue" points="658.459,-188.245 648.107,-190.497 657.604,-195.193 658.459,-188.245"/>
</g>
<!-- Node21 -->
<g id="node48" class="node"><title>Node21</title>
<polygon fill="white" stroke="#bfbfbf" points="702.967,-174.5 702.967,-195.5 745.967,-195.5 745.967,-174.5 702.967,-174.5"/>
<text text-anchor="middle" x="724.467" y="-182.5" font-family="Helvetica,sans-Serif" font-size="10.00">sptr.h</text>
</g>
<!-- Node8&#45;&gt;Node21 -->
<g id="edge54" class="edge"><title>Node8&#45;&gt;Node21</title>
<path fill="none" stroke="midnightblue" d="M1017.41,-238.191C955.01,-232.137 852.067,-219.826 756.118,-196.068"/>
<polygon fill="midnightblue" stroke="midnightblue" points="756.811,-192.633 746.259,-193.579 755.098,-199.42 756.811,-192.633"/>
</g>
<!-- Node22 -->
<g id="node50" class="node"><title>Node22</title>
<polygon fill="white" stroke="#bfbfbf" points="1233.47,-174.5 1233.47,-195.5 1285.47,-195.5 1285.47,-174.5 1233.47,-174.5"/>
<text text-anchor="middle" x="1259.47" y="-182.5" font-family="Helvetica,sans-Serif" font-size="10.00">Event.h</text>
</g>
<!-- Node8&#45;&gt;Node22 -->
<g id="edge56" class="edge"><title>Node8&#45;&gt;Node22</title>
<path fill="none" stroke="midnightblue" d="M1108.13,-232.462C1136.51,-223.574 1178.46,-210.433 1223.45,-196.317"/>
<polygon fill="midnightblue" stroke="midnightblue" points="1224.6,-199.625 1233.09,-193.291 1222.51,-192.946 1224.6,-199.625"/>
</g>
<!-- Node23 -->
<g id="node52" class="node"><title>Node23</title>
<polygon fill="white" stroke="#bfbfbf" points="1905.47,-116.5 1905.47,-137.5 1957.47,-137.5 1957.47,-116.5 1905.47,-116.5"/>
<text text-anchor="middle" x="1931.47" y="-124.5" font-family="Helvetica,sans-Serif" font-size="10.00">Timer.h</text>
</g>
<!-- Node8&#45;&gt;Node23 -->
<g id="edge58" class="edge"><title>Node8&#45;&gt;Node23</title>
<path fill="none" stroke="midnightblue" d="M1085.83,-232.405C1103.85,-216.359 1140.82,-186.448 1178.47,-174 1322.14,-126.494 1707.92,-153.292 1858.47,-138 1870.5,-136.778 1883.58,-134.962 1895.3,-133.157"/>
<polygon fill="midnightblue" stroke="midnightblue" points="1895.86,-136.611 1905.19,-131.588 1894.76,-129.698 1895.86,-136.611"/>
</g>
<!-- Node24 -->
<g id="node54" class="node"><title>Node24</title>
<polygon fill="white" stroke="#bfbfbf" points="1302.97,-174.5 1302.97,-195.5 1413.97,-195.5 1413.97,-174.5 1302.97,-174.5"/>
<text text-anchor="middle" x="1358.47" y="-182.5" font-family="Helvetica,sans-Serif" font-size="10.00">WindowProperties.h</text>
</g>
<!-- Node8&#45;&gt;Node24 -->
<g id="edge60" class="edge"><title>Node8&#45;&gt;Node24</title>
<path fill="none" stroke="midnightblue" d="M1125.9,-232.497C1174,-222.673 1245.9,-207.988 1297.01,-197.551"/>
<polygon fill="midnightblue" stroke="midnightblue" points="1297.84,-200.953 1306.94,-195.523 1296.44,-194.095 1297.84,-200.953"/>
</g>
<!-- Node25 -->
<g id="node57" class="node"><title>Node25</title>
<polygon fill="white" stroke="#bfbfbf" points="1431.47,-174.5 1431.47,-195.5 1555.47,-195.5 1555.47,-174.5 1431.47,-174.5"/>
<text text-anchor="middle" x="1493.47" y="-182.5" font-family="Helvetica,sans-Serif" font-size="10.00">PIpcChannelListener.h</text>
</g>
<!-- Node8&#45;&gt;Node25 -->
<g id="edge64" class="edge"><title>Node8&#45;&gt;Node25</title>
<path fill="none" stroke="midnightblue" d="M1131.48,-235.646C1198.36,-226.942 1312.85,-211.8 1421.03,-196.19"/>
<polygon fill="midnightblue" stroke="midnightblue" points="1421.74,-199.623 1431.14,-194.727 1420.74,-192.695 1421.74,-199.623"/>
</g>
<!-- Node26 -->
<g id="node59" class="node"><title>Node26</title>
<polygon fill="white" stroke="#bfbfbf" points="1573.47,-174.5 1573.47,-195.5 1647.47,-195.5 1647.47,-174.5 1573.47,-174.5"/>
<text text-anchor="middle" x="1610.47" y="-182.5" font-family="Helvetica,sans-Serif" font-size="10.00">PIpcBuffer.h</text>
</g>
<!-- Node8&#45;&gt;Node26 -->
<g id="edge66" class="edge"><title>Node8&#45;&gt;Node26</title>
<path fill="none" stroke="midnightblue" d="M1131.76,-240.095C1221.7,-234.966 1401.58,-222.419 1563.27,-196.009"/>
<polygon fill="midnightblue" stroke="midnightblue" points="1564.11,-199.418 1573.4,-194.332 1562.96,-192.512 1564.11,-199.418"/>
</g>
<!-- Node27 -->
<g id="node61" class="node"><title>Node27</title>
<polygon fill="white" stroke="#bfbfbf" points="910.967,-174.5 910.967,-195.5 957.967,-195.5 957.967,-174.5 910.967,-174.5"/>
<text text-anchor="middle" x="934.467" y="-182.5" font-family="Helvetica,sans-Serif" font-size="10.00">QRect</text>
</g>
<!-- Node8&#45;&gt;Node27 -->
<g id="edge68" class="edge"><title>Node8&#45;&gt;Node27</title>
<path fill="none" stroke="midnightblue" d="M1049.11,-232.497C1026.3,-223.044 992.619,-209.092 967.663,-198.752"/>
<polygon fill="midnightblue" stroke="midnightblue" points="968.81,-195.439 958.231,-194.845 966.13,-201.906 968.81,-195.439"/>
</g>
<!-- Node11&#45;&gt;Node12 -->
<g id="edge30" class="edge"><title>Node11&#45;&gt;Node12</title>
<path fill="none" stroke="midnightblue" d="M558.78,-175.874C510.94,-166.103 434.705,-150.534 381.163,-139.6"/>
<polygon fill="midnightblue" stroke="midnightblue" points="381.606,-136.118 371.107,-137.546 380.205,-142.976 381.606,-136.118"/>
</g>
<!-- Node16 -->
<g id="node37" class="node"><title>Node16</title>
<polygon fill="white" stroke="#bfbfbf" points="469.467,-58.5 469.467,-79.5 567.467,-79.5 567.467,-58.5 469.467,-58.5"/>
<text text-anchor="middle" x="518.467" y="-66.5" font-family="Helvetica,sans-Serif" font-size="10.00">palmimedefines.h</text>
</g>
<!-- Node11&#45;&gt;Node16 -->
<g id="edge52" class="edge"><title>Node11&#45;&gt;Node16</title>
<path fill="none" stroke="midnightblue" d="M595.623,-174.295C581.201,-154.613 550.306,-112.45 532.292,-87.8668"/>
<polygon fill="midnightblue" stroke="midnightblue" points="535.027,-85.6768 526.293,-79.6792 529.38,-89.8142 535.027,-85.6768"/>
</g>
<!-- Node19 -->
<g id="node43" class="node"><title>Node19</title>
<polygon fill="white" stroke="#bfbfbf" points="596.967,-116.5 596.967,-137.5 651.967,-137.5 651.967,-116.5 596.967,-116.5"/>
<text text-anchor="middle" x="624.467" y="-124.5" font-family="Helvetica,sans-Serif" font-size="10.00">QObject</text>
</g>
<!-- Node11&#45;&gt;Node19 -->
<g id="edge48" class="edge"><title>Node11&#45;&gt;Node19</title>
<path fill="none" stroke="midnightblue" d="M607.319,-174.362C610.072,-166.758 613.861,-156.294 617.177,-147.135"/>
<polygon fill="midnightblue" stroke="midnightblue" points="620.527,-148.165 620.64,-137.571 613.945,-145.782 620.527,-148.165"/>
</g>
<!-- Node20 -->
<g id="node45" class="node"><title>Node20</title>
<polygon fill="white" stroke="#bfbfbf" points="742.467,-116.5 742.467,-137.5 820.467,-137.5 820.467,-116.5 742.467,-116.5"/>
<text text-anchor="middle" x="781.467" y="-124.5" font-family="Helvetica,sans-Serif" font-size="10.00">lunaservice.h</text>
</g>
<!-- Node11&#45;&gt;Node20 -->
<g id="edge50" class="edge"><title>Node11&#45;&gt;Node20</title>
<path fill="none" stroke="midnightblue" d="M635.702,-174.497C664.721,-165.041 707.558,-151.083 739.291,-140.743"/>
<polygon fill="midnightblue" stroke="midnightblue" points="740.749,-143.949 749.173,-137.523 738.58,-137.293 740.749,-143.949"/>
</g>
<!-- Node13 -->
<g id="node29" class="node"><title>Node13</title>
<a xlink:href="ProcessBase_8h.htm" target="_top" xlink:title="ProcessBase.h">
<polygon fill="white" stroke="black" points="28.9674,-58.5 28.9674,-79.5 115.967,-79.5 115.967,-58.5 28.9674,-58.5"/>
<text text-anchor="middle" x="72.4674" y="-66.5" font-family="Helvetica,sans-Serif" font-size="10.00">ProcessBase.h</text>
</a>
</g>
<!-- Node12&#45;&gt;Node13 -->
<g id="edge32" class="edge"><title>Node12&#45;&gt;Node13</title>
<path fill="none" stroke="midnightblue" d="M274.738,-116.497C232.862,-106.663 170.249,-91.9609 125.794,-81.5219"/>
<polygon fill="midnightblue" stroke="midnightblue" points="126.571,-78.1093 116.035,-79.2305 124.97,-84.9239 126.571,-78.1093"/>
</g>
<!-- Node14 -->
<g id="node33" class="node"><title>Node14</title>
<polygon fill="white" stroke="#bfbfbf" points="226.967,-58.5 226.967,-79.5 287.967,-79.5 287.967,-58.5 226.967,-58.5"/>
<text text-anchor="middle" x="257.467" y="-66.5" font-family="Helvetica,sans-Serif" font-size="10.00">QtWebKit</text>
</g>
<!-- Node12&#45;&gt;Node14 -->
<g id="edge38" class="edge"><title>Node12&#45;&gt;Node14</title>
<path fill="none" stroke="midnightblue" d="M308.096,-116.362C299.181,-108.023 286.588,-96.2418 276.192,-86.5162"/>
<polygon fill="midnightblue" stroke="midnightblue" points="278.461,-83.8463 268.767,-79.5707 273.679,-88.9582 278.461,-83.8463"/>
</g>
<!-- Node15 -->
<g id="node35" class="node"><title>Node15</title>
<polygon fill="white" stroke="#bfbfbf" points="304.967,-58.5 304.967,-79.5 363.967,-79.5 363.967,-58.5 304.967,-58.5"/>
<text text-anchor="middle" x="334.467" y="-66.5" font-family="Helvetica,sans-Serif" font-size="10.00">QPointer</text>
</g>
<!-- Node12&#45;&gt;Node15 -->
<g id="edge40" class="edge"><title>Node12&#45;&gt;Node15</title>
<path fill="none" stroke="midnightblue" d="M322.219,-116.362C324.164,-108.84 326.833,-98.5187 329.184,-89.4308"/>
<polygon fill="midnightblue" stroke="midnightblue" points="332.618,-90.1285 331.734,-79.5707 325.841,-88.3758 332.618,-90.1285"/>
</g>
<!-- Node12&#45;&gt;Node16 -->
<g id="edge42" class="edge"><title>Node12&#45;&gt;Node16</title>
<path fill="none" stroke="midnightblue" d="M355.505,-116.497C388.369,-106.918 437.085,-92.7196 472.691,-82.3418"/>
<polygon fill="midnightblue" stroke="midnightblue" points="473.741,-85.6815 482.362,-79.5231 471.783,-78.9611 473.741,-85.6815"/>
</g>
<!-- Node17 -->
<g id="node39" class="node"><title>Node17</title>
<polygon fill="white" stroke="#bfbfbf" points="380.967,-58.5 380.967,-79.5 451.967,-79.5 451.967,-58.5 380.967,-58.5"/>
<text text-anchor="middle" x="416.467" y="-66.5" font-family="Helvetica,sans-Serif" font-size="10.00">QWebPage</text>
</g>
<!-- Node12&#45;&gt;Node17 -->
<g id="edge44" class="edge"><title>Node12&#45;&gt;Node17</title>
<path fill="none" stroke="midnightblue" d="M337.259,-116.362C352.026,-107.532 373.246,-94.844 390.006,-84.8224"/>
<polygon fill="midnightblue" stroke="midnightblue" points="392.002,-87.7066 398.789,-79.5707 388.41,-81.6987 392.002,-87.7066"/>
</g>
<!-- Node18 -->
<g id="node41" class="node"><title>Node18</title>
<polygon fill="white" stroke="#bfbfbf" points="133.467,-58.5 133.467,-79.5 209.467,-79.5 209.467,-58.5 133.467,-58.5"/>
<text text-anchor="middle" x="171.467" y="-66.5" font-family="Helvetica,sans-Serif" font-size="10.00">QWebFrame</text>
</g>
<!-- Node12&#45;&gt;Node18 -->
<g id="edge46" class="edge"><title>Node12&#45;&gt;Node18</title>
<path fill="none" stroke="midnightblue" d="M292.666,-116.497C269.029,-107.234 234.367,-93.6499 208.16,-83.3793"/>
<polygon fill="midnightblue" stroke="midnightblue" points="209.158,-80.0113 198.57,-79.6212 206.603,-86.5287 209.158,-80.0113"/>
</g>
<!-- Node13&#45;&gt;Node2 -->
<g id="edge34" class="edge"><title>Node13&#45;&gt;Node2</title>
<path fill="none" stroke="midnightblue" d="M116.074,-59.2486C118.906,-58.7785 121.722,-58.3553 124.467,-58 305.237,-34.6024 877.036,-16.8803 1039.83,-12.2125"/>
<polygon fill="midnightblue" stroke="midnightblue" points="1040.06,-15.7076 1049.96,-11.924 1039.86,-8.71043 1040.06,-15.7076"/>
</g>
<!-- Node13&#45;&gt;Node5 -->
<g id="edge36" class="edge"><title>Node13&#45;&gt;Node5</title>
<path fill="none" stroke="midnightblue" d="M72.4674,-58.3619C72.4674,-50.9219 72.4674,-40.7427 72.4674,-31.7276"/>
<polygon fill="midnightblue" stroke="midnightblue" points="75.9675,-31.5706 72.4674,-21.5707 68.9675,-31.5707 75.9675,-31.5706"/>
</g>
<!-- Node28&#45;&gt;Node2 -->
<g id="edge72" class="edge"><title>Node28&#45;&gt;Node2</title>
<path fill="none" stroke="midnightblue" d="M861.653,-290.376C881.946,-276.527 910.978,-251.748 894.467,-232 835.103,-160.996 667.472,-262.527 694.467,-174 703.528,-144.287 709.529,-135.796 733.467,-116 824.447,-40.7626 968.109,-19.425 1039.78,-13.3819"/>
<polygon fill="midnightblue" stroke="midnightblue" points="1040.12,-16.866 1049.82,-12.5967 1039.58,-9.88733 1040.12,-16.866"/>
</g>
<!-- Node28&#45;&gt;Node6 -->
<g id="edge78" class="edge"><title>Node28&#45;&gt;Node6</title>
<path fill="none" stroke="midnightblue" d="M827.051,-290.225C815.421,-281.93 801.088,-269.309 794.467,-254 787.655,-238.246 792.781,-219.084 798.825,-204.955"/>
<polygon fill="midnightblue" stroke="midnightblue" points="802.103,-206.211 803.23,-195.677 795.779,-203.209 802.103,-206.211"/>
</g>
<!-- Node28&#45;&gt;Node8 -->
<g id="edge76" class="edge"><title>Node28&#45;&gt;Node8</title>
<path fill="none" stroke="midnightblue" d="M886.119,-290.497C924.508,-280.816 981.612,-266.416 1022.87,-256.01"/>
<polygon fill="midnightblue" stroke="midnightblue" points="1023.9,-259.362 1032.74,-253.523 1022.19,-252.575 1023.9,-259.362"/>
</g>
<!-- Node28&#45;&gt;Node21 -->
<g id="edge74" class="edge"><title>Node28&#45;&gt;Node21</title>
<path fill="none" stroke="midnightblue" d="M800.386,-297.283C720.626,-290.11 559.035,-273.345 542.467,-254 536.107,-246.573 536.48,-239.73 542.467,-232 551.749,-220.017 643.414,-200.673 692.998,-190.963"/>
<polygon fill="midnightblue" stroke="midnightblue" points="693.745,-194.384 702.896,-189.044 692.412,-187.512 693.745,-194.384"/>
</g>
<!-- Node29 -->
<g id="node69" class="node"><title>Node29</title>
<polygon fill="white" stroke="#bfbfbf" points="802.967,-232.5 802.967,-253.5 885.967,-253.5 885.967,-232.5 802.967,-232.5"/>
<text text-anchor="middle" x="844.467" y="-240.5" font-family="Helvetica,sans-Serif" font-size="10.00">SysMgrDefs.h</text>
</g>
<!-- Node28&#45;&gt;Node29 -->
<g id="edge80" class="edge"><title>Node28&#45;&gt;Node29</title>
<path fill="none" stroke="midnightblue" d="M844.467,-290.362C844.467,-282.922 844.467,-272.743 844.467,-263.728"/>
<polygon fill="midnightblue" stroke="midnightblue" points="847.968,-263.571 844.467,-253.571 840.968,-263.571 847.968,-263.571"/>
</g>
<!-- Node30 -->
<g id="node71" class="node"><title>Node30</title>
<polygon fill="white" stroke="#bfbfbf" points="551.467,-232.5 551.467,-253.5 639.467,-253.5 639.467,-232.5 551.467,-232.5"/>
<text text-anchor="middle" x="595.467" y="-240.5" font-family="Helvetica,sans-Serif" font-size="10.00">QGraphicsItem</text>
</g>
<!-- Node28&#45;&gt;Node30 -->
<g id="edge82" class="edge"><title>Node28&#45;&gt;Node30</title>
<path fill="none" stroke="midnightblue" d="M800.238,-290.698C758.142,-280.892 694.703,-266.115 649.604,-255.61"/>
<polygon fill="midnightblue" stroke="midnightblue" points="650.237,-252.164 639.703,-253.304 648.649,-258.981 650.237,-252.164"/>
</g>
<!-- Node31 -->
<g id="node73" class="node"><title>Node31</title>
<polygon fill="white" stroke="#bfbfbf" points="657.467,-232.5 657.467,-253.5 747.467,-253.5 747.467,-232.5 657.467,-232.5"/>
<text text-anchor="middle" x="702.467" y="-240.5" font-family="Helvetica,sans-Serif" font-size="10.00">QGraphicsView</text>
</g>
<!-- Node28&#45;&gt;Node31 -->
<g id="edge84" class="edge"><title>Node28&#45;&gt;Node31</title>
<path fill="none" stroke="midnightblue" d="M818.752,-290.497C796.174,-281.275 763.11,-267.769 738.005,-257.515"/>
<polygon fill="midnightblue" stroke="midnightblue" points="739.052,-254.162 728.471,-253.621 736.405,-260.643 739.052,-254.162"/>
</g>
<!-- Node32&#45;&gt;Node2 -->
<g id="edge88" class="edge"><title>Node32&#45;&gt;Node2</title>
<path fill="none" stroke="midnightblue" d="M988.057,-348.039C986.1,-334.253 982.04,-309.97 975.467,-290 966.579,-262.991 966.152,-254.266 948.467,-232 932.321,-211.671 913.838,-219.338 902.467,-196 898.185,-187.21 898.491,-182.933 902.467,-174 933.712,-103.816 1011.76,-51.1572 1054.45,-26.4946"/>
<polygon fill="midnightblue" stroke="midnightblue" points="1056.27,-29.491 1063.25,-21.5221 1052.82,-23.3977 1056.27,-29.491"/>
</g>
<!-- Node32&#45;&gt;Node6 -->
<g id="edge92" class="edge"><title>Node32&#45;&gt;Node6</title>
<path fill="none" stroke="midnightblue" d="M985.416,-348.325C974.851,-320.949 945.996,-249.186 927.467,-232 910.153,-215.939 886.673,-205.091 865.218,-197.904"/>
<polygon fill="midnightblue" stroke="midnightblue" points="866.121,-194.52 855.531,-194.855 864.019,-201.196 866.121,-194.52"/>
</g>
<!-- Node32&#45;&gt;Node8 -->
<g id="edge90" class="edge"><title>Node32&#45;&gt;Node8</title>
<path fill="none" stroke="midnightblue" d="M997.312,-348.295C1011.73,-328.613 1042.63,-286.45 1060.64,-261.867"/>
<polygon fill="midnightblue" stroke="midnightblue" points="1063.55,-263.814 1066.64,-253.679 1057.91,-259.677 1063.55,-263.814"/>
</g>
<!-- Node32&#45;&gt;Node28 -->
<g id="edge94" class="edge"><title>Node32&#45;&gt;Node28</title>
<path fill="none" stroke="midnightblue" d="M963.209,-348.497C940.052,-339.234 906.092,-325.65 880.416,-315.379"/>
<polygon fill="midnightblue" stroke="midnightblue" points="881.605,-312.086 871.02,-311.621 879.005,-318.585 881.605,-312.086"/>
</g>
<!-- Node33&#45;&gt;Node2 -->
<g id="edge98" class="edge"><title>Node33&#45;&gt;Node2</title>
<path fill="none" stroke="midnightblue" d="M1313.56,-299.032C1569.93,-289.972 2587.47,-249.923 2587.47,-185 2587.47,-185 2587.47,-185 2587.47,-127 2587.47,-51.7249 1374.01,-18.0877 1127.03,-12.0208"/>
<polygon fill="midnightblue" stroke="midnightblue" points="1127.07,-8.52096 1116.99,-11.7764 1126.9,-15.5189 1127.07,-8.52096"/>
</g>
<!-- Node33&#45;&gt;Node8 -->
<g id="edge100" class="edge"><title>Node33&#45;&gt;Node8</title>
<path fill="none" stroke="midnightblue" d="M1222.69,-290.497C1193.05,-281 1149.25,-266.962 1116.94,-256.609"/>
<polygon fill="midnightblue" stroke="midnightblue" points="1117.9,-253.242 1107.31,-253.523 1115.76,-259.908 1117.9,-253.242"/>
</g>
<!-- Node35&#45;&gt;Node2 -->
<g id="edge110" class="edge"><title>Node35&#45;&gt;Node2</title>
<path fill="none" stroke="midnightblue" d="M1828.97,-232.479C1839.37,-223.97 1852.55,-210.97 1858.47,-196 1871.53,-162.931 1881.11,-143.417 1858.47,-116 1811.46,-59.0692 1284.89,-23.0829 1127.59,-13.547"/>
<polygon fill="midnightblue" stroke="midnightblue" points="1127.53,-10.0374 1117.34,-12.9317 1127.11,-17.0248 1127.53,-10.0374"/>
</g>
<!-- Node35&#45;&gt;Node5 -->
<g id="edge118" class="edge"><title>Node35&#45;&gt;Node5</title>
<path fill="none" stroke="midnightblue" d="M1794.26,-232.473C1776.52,-223.14 1750.09,-209.009 1727.47,-196 1711.21,-186.652 1709.23,-180.007 1691.47,-174 1219.5,-14.3886 1072.29,-106.909 576.467,-58 401.571,-40.7478 192.36,-21.7681 109.178,-14.2881"/>
<polygon fill="midnightblue" stroke="midnightblue" points="109.253,-10.7808 98.98,-13.3719 108.627,-17.7527 109.253,-10.7808"/>
</g>
<!-- Node35&#45;&gt;Node6 -->
<g id="edge146" class="edge"><title>Node35&#45;&gt;Node6</title>
<path fill="none" stroke="midnightblue" d="M1760.93,-241.48C1620.13,-237.215 1227.9,-223.601 902.467,-196 890.57,-194.991 877.846,-193.656 865.748,-192.264"/>
<polygon fill="midnightblue" stroke="midnightblue" points="866.105,-188.782 855.765,-191.088 865.286,-195.734 866.105,-188.782"/>
</g>
<!-- Node35&#45;&gt;Node9 -->
<g id="edge114" class="edge"><title>Node35&#45;&gt;Node9</title>
<path fill="none" stroke="midnightblue" d="M1760.63,-241.224C1638.42,-236.8 1342.22,-223.762 1225.96,-195.545"/>
<polygon fill="midnightblue" stroke="midnightblue" points="1226.82,-192.152 1216.26,-193.039 1225.06,-198.93 1226.82,-192.152"/>
</g>
<!-- Node35&#45;&gt;Node20 -->
<g id="edge156" class="edge"><title>Node35&#45;&gt;Node20</title>
<path fill="none" stroke="midnightblue" d="M1786.77,-232.442C1763.3,-223.316 1728.87,-209.5 1699.47,-196 1679.96,-187.042 1677.19,-179.587 1656.47,-174 1616.44,-163.21 1009.89,-136.707 830.858,-129.083"/>
<polygon fill="midnightblue" stroke="midnightblue" points="830.815,-125.578 820.676,-128.65 830.518,-132.572 830.815,-125.578"/>
</g>
<!-- Node35&#45;&gt;Node22 -->
<g id="edge128" class="edge"><title>Node35&#45;&gt;Node22</title>
<path fill="none" stroke="midnightblue" d="M1760.78,-241.929C1667.6,-239.249 1469.97,-229.941 1295.55,-195.862"/>
<polygon fill="midnightblue" stroke="midnightblue" points="1296.17,-192.418 1285.68,-193.903 1294.81,-199.284 1296.17,-192.418"/>
</g>
<!-- Node35&#45;&gt;Node23 -->
<g id="edge144" class="edge"><title>Node35&#45;&gt;Node23</title>
<path fill="none" stroke="midnightblue" d="M1838.13,-232.453C1854.55,-224.265 1876.14,-211.679 1891.47,-196 1905.31,-181.841 1916.17,-161.971 1923.06,-147.187"/>
<polygon fill="midnightblue" stroke="midnightblue" points="1926.32,-148.458 1927.18,-137.898 1919.92,-145.618 1926.32,-148.458"/>
</g>
<!-- Node35&#45;&gt;Node24 -->
<g id="edge148" class="edge"><title>Node35&#45;&gt;Node24</title>
<path fill="none" stroke="midnightblue" d="M1760.78,-237.437C1687.15,-229.616 1550.48,-214.406 1424.5,-196.248"/>
<polygon fill="midnightblue" stroke="midnightblue" points="1424.69,-192.739 1414.29,-194.766 1423.68,-199.666 1424.69,-192.739"/>
</g>
<!-- Node35&#45;&gt;Node25 -->
<g id="edge162" class="edge"><title>Node35&#45;&gt;Node25</title>
<path fill="none" stroke="midnightblue" d="M1760.74,-233.292C1706.07,-223.415 1621.17,-208.074 1561.76,-197.34"/>
<polygon fill="midnightblue" stroke="midnightblue" points="1562.18,-193.859 1551.72,-195.525 1560.94,-200.748 1562.18,-193.859"/>
</g>
<!-- Node35&#45;&gt;Node26 -->
<g id="edge158" class="edge"><title>Node35&#45;&gt;Node26</title>
<path fill="none" stroke="midnightblue" d="M1777.52,-232.497C1743.84,-222.918 1693.89,-208.72 1657.39,-198.342"/>
<polygon fill="midnightblue" stroke="midnightblue" points="1658.06,-194.891 1647.48,-195.523 1656.14,-201.624 1658.06,-194.891"/>
</g>
<!-- Node36 -->
<g id="node92" class="node"><title>Node36</title>
<polygon fill="white" stroke="#bfbfbf" points="2273.97,-116.5 2273.97,-137.5 2310.97,-137.5 2310.97,-116.5 2273.97,-116.5"/>
<text text-anchor="middle" x="2292.47" y="-124.5" font-family="Helvetica,sans-Serif" font-size="10.00">map</text>
</g>
<!-- Node35&#45;&gt;Node36 -->
<g id="edge112" class="edge"><title>Node35&#45;&gt;Node36</title>
<path fill="none" stroke="midnightblue" d="M1868.24,-242.349C1998.39,-240.217 2322.04,-231.377 2354.47,-196 2371.74,-177.158 2343.76,-155.156 2320,-141.155"/>
<polygon fill="midnightblue" stroke="midnightblue" points="2321.64,-138.06 2311.21,-136.205 2318.21,-144.16 2321.64,-138.06"/>
</g>
<!-- Node37 -->
<g id="node95" class="node"><title>Node37</title>
<polygon fill="white" stroke="#bfbfbf" points="2422.97,-174.5 2422.97,-195.5 2465.97,-195.5 2465.97,-174.5 2422.97,-174.5"/>
<text text-anchor="middle" x="2444.47" y="-182.5" font-family="Helvetica,sans-Serif" font-size="10.00">string</text>
</g>
<!-- Node35&#45;&gt;Node37 -->
<g id="edge116" class="edge"><title>Node35&#45;&gt;Node37</title>
<path fill="none" stroke="midnightblue" d="M1868.07,-240.319C1994.12,-233.762 2306.47,-215.986 2409.47,-196 2410.56,-195.788 2411.67,-195.553 2412.78,-195.3"/>
<polygon fill="midnightblue" stroke="midnightblue" points="2414.05,-198.585 2422.82,-192.637 2412.26,-191.819 2414.05,-198.585"/>
</g>
<!-- Node38 -->
<g id="node98" class="node"><title>Node38</title>
<polygon fill="white" stroke="#bfbfbf" points="2482.97,-174.5 2482.97,-195.5 2559.97,-195.5 2559.97,-174.5 2482.97,-174.5"/>
<text text-anchor="middle" x="2521.47" y="-182.5" font-family="Helvetica,sans-Serif" font-size="10.00">QApplication</text>
</g>
<!-- Node35&#45;&gt;Node38 -->
<g id="edge120" class="edge"><title>Node35&#45;&gt;Node38</title>
<path fill="none" stroke="midnightblue" d="M1868.25,-242.058C1979.53,-239.486 2243.14,-230.165 2472.62,-196.091"/>
<polygon fill="midnightblue" stroke="midnightblue" points="2473.47,-199.504 2482.83,-194.555 2472.42,-192.582 2473.47,-199.504"/>
</g>
<!-- Node39 -->
<g id="node100" class="node"><title>Node39</title>
<a xlink:href="SyncTask_8h.htm" target="_top" xlink:title="SyncTask.h">
<polygon fill="white" stroke="black" points="1778.97,-174.5 1778.97,-195.5 1849.97,-195.5 1849.97,-174.5 1778.97,-174.5"/>
<text text-anchor="middle" x="1814.47" y="-182.5" font-family="Helvetica,sans-Serif" font-size="10.00">SyncTask.h</text>
</a>
</g>
<!-- Node35&#45;&gt;Node39 -->
<g id="edge122" class="edge"><title>Node35&#45;&gt;Node39</title>
<path fill="none" stroke="midnightblue" d="M1814.47,-232.362C1814.47,-224.922 1814.47,-214.743 1814.47,-205.728"/>
<polygon fill="midnightblue" stroke="midnightblue" points="1817.97,-205.571 1814.47,-195.571 1810.97,-205.571 1817.97,-205.571"/>
</g>
<!-- Node41 -->
<g id="node106" class="node"><title>Node41</title>
<a xlink:href="MemoryWatcher_8h.htm" target="_top" xlink:title="MemoryWatcher.h">
<polygon fill="white" stroke="black" points="1942.97,-174.5 1942.97,-195.5 2045.97,-195.5 2045.97,-174.5 1942.97,-174.5"/>
<text text-anchor="middle" x="1994.47" y="-182.5" font-family="Helvetica,sans-Serif" font-size="10.00">MemoryWatcher.h</text>
</a>
</g>
<!-- Node35&#45;&gt;Node41 -->
<g id="edge130" class="edge"><title>Node35&#45;&gt;Node41</title>
<path fill="none" stroke="midnightblue" d="M1847.06,-232.497C1876.54,-223 1920.1,-208.962 1952.23,-198.609"/>
<polygon fill="midnightblue" stroke="midnightblue" points="1953.37,-201.921 1961.81,-195.523 1951.22,-195.259 1953.37,-201.921"/>
</g>
<!-- Node43 -->
<g id="node112" class="node"><title>Node43</title>
<polygon fill="white" stroke="#bfbfbf" points="2133.47,-116.5 2133.47,-137.5 2205.47,-137.5 2205.47,-116.5 2133.47,-116.5"/>
<text text-anchor="middle" x="2169.47" y="-124.5" font-family="Helvetica,sans-Serif" font-size="10.00">SignalSlot.h</text>
</g>
<!-- Node35&#45;&gt;Node43 -->
<g id="edge142" class="edge"><title>Node35&#45;&gt;Node43</title>
<path fill="none" stroke="midnightblue" d="M1868.05,-242.199C1995.26,-239.742 2307.15,-230.252 2338.47,-196 2345.07,-188.784 2344.38,-181.785 2338.47,-174 2323.64,-154.485 2260.65,-140.93 2215.92,-133.555"/>
<polygon fill="midnightblue" stroke="midnightblue" points="2216.26,-130.064 2205.83,-131.944 2215.15,-136.977 2216.26,-130.064"/>
</g>
<!-- Node44 -->
<g id="node119" class="node"><title>Node44</title>
<a xlink:href="WebAppCache_8h.htm" target="_top" xlink:title="WebAppCache.h">
<polygon fill="white" stroke="black" points="1406.97,-58.5 1406.97,-79.5 1501.97,-79.5 1501.97,-58.5 1406.97,-58.5"/>
<text text-anchor="middle" x="1454.47" y="-66.5" font-family="Helvetica,sans-Serif" font-size="10.00">WebAppCache.h</text>
</a>
</g>
<!-- Node35&#45;&gt;Node44 -->
<g id="edge150" class="edge"><title>Node35&#45;&gt;Node44</title>
<path fill="none" stroke="midnightblue" d="M1803.46,-232.426C1787.69,-217.728 1757.27,-191.016 1727.47,-174 1653,-131.479 1557.99,-99.3683 1501.94,-82.4349"/>
<polygon fill="midnightblue" stroke="midnightblue" points="1502.86,-79.0574 1492.28,-79.55 1500.86,-85.7647 1502.86,-79.0574"/>
</g>
<!-- Node45 -->
<g id="node122" class="node"><title>Node45</title>
<polygon fill="white" stroke="#bfbfbf" points="2062.97,-174.5 2062.97,-195.5 2133.97,-195.5 2133.97,-174.5 2062.97,-174.5"/>
<text text-anchor="middle" x="2098.47" y="-182.5" font-family="Helvetica,sans-Serif" font-size="10.00">HostBase.h</text>
</g>
<!-- Node35&#45;&gt;Node45 -->
<g id="edge154" class="edge"><title>Node35&#45;&gt;Node45</title>
<path fill="none" stroke="midnightblue" d="M1868.01,-233.333C1914.47,-224.759 1983.77,-211.529 2052.79,-196.304"/>
<polygon fill="midnightblue" stroke="midnightblue" points="2053.96,-199.628 2062.96,-194.043 2052.44,-192.795 2053.96,-199.628"/>
</g>
<!-- Node46 -->
<g id="node126" class="node"><title>Node46</title>
<polygon fill="white" stroke="#bfbfbf" points="2150.97,-174.5 2150.97,-195.5 2223.97,-195.5 2223.97,-174.5 2150.97,-174.5"/>
<text text-anchor="middle" x="2187.47" y="-182.5" font-family="Helvetica,sans-Serif" font-size="10.00">PIpcClient.h</text>
</g>
<!-- Node35&#45;&gt;Node46 -->
<g id="edge160" class="edge"><title>Node35&#45;&gt;Node46</title>
<path fill="none" stroke="midnightblue" d="M1868.14,-236.938C1931.22,-229.451 2039.21,-215.505 2140.59,-196.24"/>
<polygon fill="midnightblue" stroke="midnightblue" points="2141.54,-199.623 2150.69,-194.298 2140.21,-192.749 2141.54,-199.623"/>
</g>
<!-- Node47 -->
<g id="node129" class="node"><title>Node47</title>
<polygon fill="white" stroke="#bfbfbf" points="2240.97,-174.5 2240.97,-195.5 2329.97,-195.5 2329.97,-174.5 2240.97,-174.5"/>
<text text-anchor="middle" x="2285.47" y="-182.5" font-family="Helvetica,sans-Serif" font-size="10.00">PIpcMessage.h</text>
</g>
<!-- Node35&#45;&gt;Node47 -->
<g id="edge164" class="edge"><title>Node35&#45;&gt;Node47</title>
<path fill="none" stroke="midnightblue" d="M1868.13,-238.569C1945.94,-231.792 2094.81,-217.5 2230.54,-196.207"/>
<polygon fill="midnightblue" stroke="midnightblue" points="2231.37,-199.618 2240.7,-194.595 2230.28,-192.705 2231.37,-199.618"/>
</g>
<!-- Node39&#45;&gt;Node2 -->
<g id="edge124" class="edge"><title>Node39&#45;&gt;Node2</title>
<path fill="none" stroke="midnightblue" d="M1794.88,-174.472C1747.56,-149.567 1622.62,-86.9562 1510.47,-58 1438.69,-39.4674 1220.89,-21.3753 1127.15,-14.2153"/>
<polygon fill="midnightblue" stroke="midnightblue" points="1127.38,-10.7228 1117.14,-13.4567 1126.85,-17.7028 1127.38,-10.7228"/>
</g>
<!-- Node40 -->
<g id="node103" class="node"><title>Node40</title>
<polygon fill="white" stroke="#bfbfbf" points="1777.47,-116.5 1777.47,-137.5 1849.47,-137.5 1849.47,-116.5 1777.47,-116.5"/>
<text text-anchor="middle" x="1813.47" y="-124.5" font-family="Helvetica,sans-Serif" font-size="10.00">TaskBase.h</text>
</g>
<!-- Node39&#45;&gt;Node40 -->
<g id="edge126" class="edge"><title>Node39&#45;&gt;Node40</title>
<path fill="none" stroke="midnightblue" d="M1814.28,-174.362C1814.16,-166.922 1813.98,-156.743 1813.82,-147.728"/>
<polygon fill="midnightblue" stroke="midnightblue" points="1817.32,-147.509 1813.65,-137.571 1810.32,-147.63 1817.32,-147.509"/>
</g>
<!-- Node41&#45;&gt;Node2 -->
<g id="edge132" class="edge"><title>Node41&#45;&gt;Node2</title>
<path fill="none" stroke="midnightblue" d="M1992,-174.307C1988.3,-159.943 1980.22,-134.127 1966.47,-116 1941,-82.4295 1930.93,-72.7725 1891.47,-58 1819.83,-31.1839 1285.49,-15.9826 1127.4,-12.0384"/>
<polygon fill="midnightblue" stroke="midnightblue" points="1127.19,-8.53229 1117.11,-11.7843 1127.02,-15.5302 1127.19,-8.53229"/>
</g>
<!-- Node41&#45;&gt;Node23 -->
<g id="edge140" class="edge"><title>Node41&#45;&gt;Node23</title>
<path fill="none" stroke="midnightblue" d="M1982.91,-174.362C1973.85,-166.023 1961.06,-154.242 1950.49,-144.516"/>
<polygon fill="midnightblue" stroke="midnightblue" points="1952.68,-141.769 1942.95,-137.571 1947.94,-146.919 1952.68,-141.769"/>
</g>
<!-- Node41&#45;&gt;Node36 -->
<g id="edge136" class="edge"><title>Node41&#45;&gt;Node36</title>
<path fill="none" stroke="midnightblue" d="M2046.03,-174.963C2109.18,-162.674 2213.89,-142.294 2264.02,-132.537"/>
<polygon fill="midnightblue" stroke="midnightblue" points="2264.7,-135.97 2273.85,-130.624 2263.37,-129.099 2264.7,-135.97"/>
</g>
<!-- Node42 -->
<g id="node109" class="node"><title>Node42</title>
<polygon fill="white" stroke="#bfbfbf" points="2013.47,-116.5 2013.47,-137.5 2063.47,-137.5 2063.47,-116.5 2013.47,-116.5"/>
<text text-anchor="middle" x="2038.47" y="-124.5" font-family="Helvetica,sans-Serif" font-size="10.00">stdint.h</text>
</g>
<!-- Node41&#45;&gt;Node42 -->
<g id="edge134" class="edge"><title>Node41&#45;&gt;Node42</title>
<path fill="none" stroke="midnightblue" d="M2002.54,-174.362C2008.62,-166.35 2017.1,-155.161 2024.3,-145.67"/>
<polygon fill="midnightblue" stroke="midnightblue" points="2027.19,-147.653 2030.45,-137.571 2021.62,-143.422 2027.19,-147.653"/>
</g>
<!-- Node41&#45;&gt;Node43 -->
<g id="edge138" class="edge"><title>Node41&#45;&gt;Node43</title>
<path fill="none" stroke="midnightblue" d="M2026.16,-174.497C2054.69,-165.041 2096.8,-151.083 2128,-140.743"/>
<polygon fill="midnightblue" stroke="midnightblue" points="2129.33,-143.991 2137.72,-137.523 2127.12,-137.347 2129.33,-143.991"/>
</g>
<!-- Node44&#45;&gt;Node2 -->
<g id="edge152" class="edge"><title>Node44&#45;&gt;Node2</title>
<path fill="none" stroke="midnightblue" d="M1406.73,-61.5363C1334.22,-50.2012 1197.39,-28.8098 1127.29,-17.8504"/>
<polygon fill="midnightblue" stroke="midnightblue" points="1127.46,-14.3346 1117.04,-16.2479 1126.38,-21.2506 1127.46,-14.3346"/>
</g>
</g>
</svg>
