<?xml version="1.0" encoding="UTF-8" standalone="no"?>
<!DOCTYPE svg PUBLIC "-//W3C//DTD SVG 1.1//EN"
 "http://www.w3.org/Graphics/SVG/1.1/DTD/svg11.dtd">
<!-- Generated by graphviz version 2.26.3 (20100126.1600)
 -->
<!-- Title: WebAppBase.h Pages: 1 -->
<svg width="1873pt" height="348pt"
 viewBox="0.00 0.00 1873.00 348.00" xmlns="http://www.w3.org/2000/svg" xmlns:xlink="http://www.w3.org/1999/xlink">
<g id="graph1" class="graph" transform="scale(1 1) rotate(0) translate(4 344)">
<title>WebAppBase.h</title>
<polygon fill="white" stroke="white" points="-4,5 -4,-344 1870,-344 1870,5 -4,5"/>
<!-- Node1 -->
<g id="node1" class="node"><title>Node1</title>
<polygon fill="#bfbfbf" stroke="black" points="1366.5,-318.5 1366.5,-339.5 1455.5,-339.5 1455.5,-318.5 1366.5,-318.5"/>
<text text-anchor="middle" x="1411" y="-326.5" font-family="Helvetica,sans-Serif" font-size="10.00">WebAppBase.h</text>
</g>
<!-- Node2 -->
<g id="node3" class="node"><title>Node2</title>
<a xlink:href="WebAppFactoryLuna_8cpp.htm" target="_top" xlink:title="WebAppFactoryLuna.cpp">
<polygon fill="white" stroke="black" points="1004,-79.5 1004,-100.5 1138,-100.5 1138,-79.5 1004,-79.5"/>
<text text-anchor="middle" x="1071" y="-87.5" font-family="Helvetica,sans-Serif" font-size="10.00">WebAppFactoryLuna.cpp</text>
</a>
</g>
<!-- Node1&#45;&gt;Node2 -->
<g id="edge2" class="edge"><title>Node1&#45;&gt;Node2</title>
<path fill="none" stroke="midnightblue" d="M1430.83,-311.256C1468.79,-276.76 1549.22,-200.976 1563,-166 1566.58,-156.903 1569.53,-151.281 1563,-144 1535.15,-112.925 1266.29,-97.9175 1138.21,-92.4858"/>
<polygon fill="midnightblue" stroke="midnightblue" points="1428.06,-309.038 1422.99,-318.339 1432.76,-314.231 1428.06,-309.038"/>
</g>
<!-- Node3 -->
<g id="node5" class="node"><title>Node3</title>
<a xlink:href="WebAppFactoryMinimal_8cpp.htm" target="_top" xlink:title="WebAppFactoryMinimal.cpp">
<polygon fill="white" stroke="black" points="1223.5,-144.5 1223.5,-165.5 1370.5,-165.5 1370.5,-144.5 1223.5,-144.5"/>
<text text-anchor="middle" x="1297" y="-152.5" font-family="Helvetica,sans-Serif" font-size="10.00">WebAppFactoryMinimal.cpp</text>
</a>
</g>
<!-- Node1&#45;&gt;Node3 -->
<g id="edge4" class="edge"><title>Node1&#45;&gt;Node3</title>
<path fill="none" stroke="midnightblue" d="M1398.59,-309.962C1382.39,-285.109 1353.12,-240.267 1328,-202 1319.85,-189.58 1310.45,-175.339 1304.15,-165.819"/>
<polygon fill="midnightblue" stroke="midnightblue" points="1395.74,-311.987 1404.13,-318.453 1401.6,-308.164 1395.74,-311.987"/>
</g>
<!-- Node4 -->
<g id="node7" class="node"><title>Node4</title>
<a xlink:href="PalmSystem_8cpp.htm" target="_top" xlink:title="PalmSystem.cpp">
<polygon fill="white" stroke="black" points="1112,-144.5 1112,-165.5 1206,-165.5 1206,-144.5 1112,-144.5"/>
<text text-anchor="middle" x="1159" y="-152.5" font-family="Helvetica,sans-Serif" font-size="10.00">PalmSystem.cpp</text>
</a>
</g>
<!-- Node1&#45;&gt;Node4 -->
<g id="edge6" class="edge"><title>Node1&#45;&gt;Node4</title>
<path fill="none" stroke="midnightblue" d="M1392.27,-311.432C1383.23,-302.76 1372.35,-292.03 1363,-282 1331.18,-247.863 1333.53,-228.33 1295,-202 1268.29,-183.746 1233.8,-171.933 1206.24,-164.716"/>
<polygon fill="midnightblue" stroke="midnightblue" points="1390,-314.098 1399.66,-318.453 1394.82,-309.025 1390,-314.098"/>
</g>
<!-- Node5 -->
<g id="node9" class="node"><title>Node5</title>
<a xlink:href="SysMgrWebBridge_8cpp.htm" target="_top" xlink:title="SysMgrWebBridge.cpp">
<polygon fill="white" stroke="black" points="1499,-260.5 1499,-281.5 1623,-281.5 1623,-260.5 1499,-260.5"/>
<text text-anchor="middle" x="1561" y="-268.5" font-family="Helvetica,sans-Serif" font-size="10.00">SysMgrWebBridge.cpp</text>
</a>
</g>
<!-- Node1&#45;&gt;Node5 -->
<g id="edge8" class="edge"><title>Node1&#45;&gt;Node5</title>
<path fill="none" stroke="midnightblue" d="M1447.53,-314.874C1474.15,-304.582 1509.63,-290.862 1533.79,-281.523"/>
<polygon fill="midnightblue" stroke="midnightblue" points="1446.23,-311.626 1438.16,-318.497 1448.75,-318.155 1446.23,-311.626"/>
</g>
<!-- Node6 -->
<g id="node11" class="node"><title>Node6</title>
<a xlink:href="WebAppBase_8cpp.htm" target="_top" xlink:title="WebAppBase.cpp">
<polygon fill="white" stroke="black" points="1641,-260.5 1641,-281.5 1741,-281.5 1741,-260.5 1641,-260.5"/>
<text text-anchor="middle" x="1691" y="-268.5" font-family="Helvetica,sans-Serif" font-size="10.00">WebAppBase.cpp</text>
</a>
</g>
<!-- Node1&#45;&gt;Node6 -->
<g id="edge10" class="edge"><title>Node1&#45;&gt;Node6</title>
<path fill="none" stroke="midnightblue" d="M1465.5,-317.711C1516.3,-307.188 1591.44,-291.623 1640.81,-281.397"/>
<polygon fill="midnightblue" stroke="midnightblue" points="1464.76,-314.29 1455.68,-319.746 1466.18,-321.144 1464.76,-314.29"/>
</g>
<!-- Node7 -->
<g id="node13" class="node"><title>Node7</title>
<a xlink:href="WebAppCache_8cpp.htm" target="_top" xlink:title="WebAppCache.cpp">
<polygon fill="white" stroke="black" points="1758.5,-260.5 1758.5,-281.5 1865.5,-281.5 1865.5,-260.5 1758.5,-260.5"/>
<text text-anchor="middle" x="1812" y="-268.5" font-family="Helvetica,sans-Serif" font-size="10.00">WebAppCache.cpp</text>
</a>
</g>
<!-- Node1&#45;&gt;Node7 -->
<g id="edge12" class="edge"><title>Node1&#45;&gt;Node7</title>
<path fill="none" stroke="midnightblue" d="M1465.83,-322.046C1532.95,-313.386 1650,-297.797 1750,-282 1752.7,-281.574 1755.46,-281.125 1758.25,-280.664"/>
<polygon fill="midnightblue" stroke="midnightblue" points="1464.97,-318.628 1455.5,-323.376 1465.87,-325.571 1464.97,-318.628"/>
</g>
<!-- Node8 -->
<g id="node15" class="node"><title>Node8</title>
<a xlink:href="WindowedWebApp_8h.htm" target="_top" xlink:title="WindowedWebApp.h">
<polygon fill="white" stroke="black" points="940,-260.5 940,-281.5 1054,-281.5 1054,-260.5 940,-260.5"/>
<text text-anchor="middle" x="997" y="-268.5" font-family="Helvetica,sans-Serif" font-size="10.00">WindowedWebApp.h</text>
</a>
</g>
<!-- Node1&#45;&gt;Node8 -->
<g id="edge14" class="edge"><title>Node1&#45;&gt;Node8</title>
<path fill="none" stroke="midnightblue" d="M1356.13,-321.312C1277.57,-310.307 1133.76,-290.16 1054.03,-278.99"/>
<polygon fill="midnightblue" stroke="midnightblue" points="1355.91,-324.817 1366.3,-322.738 1356.88,-317.884 1355.91,-324.817"/>
</g>
<!-- Node21 -->
<g id="node48" class="node"><title>Node21</title>
<a xlink:href="WebAppManager_8cpp.htm" target="_top" xlink:title="WebAppManager.cpp">
<polygon fill="white" stroke="black" points="499.5,-144.5 499.5,-165.5 618.5,-165.5 618.5,-144.5 499.5,-144.5"/>
<text text-anchor="middle" x="559" y="-152.5" font-family="Helvetica,sans-Serif" font-size="10.00">WebAppManager.cpp</text>
</a>
</g>
<!-- Node1&#45;&gt;Node21 -->
<g id="edge80" class="edge"><title>Node1&#45;&gt;Node21</title>
<path fill="none" stroke="midnightblue" d="M1356.05,-326.991C1266.35,-322.959 1083.2,-311.581 931,-282 841.405,-264.586 820.319,-253.658 734,-224 679.641,-205.323 617.31,-179.714 583.663,-165.532"/>
<polygon fill="midnightblue" stroke="midnightblue" points="1356.11,-330.497 1366.26,-327.436 1356.42,-323.503 1356.11,-330.497"/>
</g>
<!-- Node8&#45;&gt;Node3 -->
<g id="edge72" class="edge"><title>Node8&#45;&gt;Node3</title>
<path fill="none" stroke="midnightblue" d="M1015.17,-253.191C1032.3,-237.398 1059.41,-214.893 1087,-202 1113.15,-189.782 1184.22,-175.193 1236.47,-165.544"/>
<polygon fill="midnightblue" stroke="midnightblue" points="1012.47,-250.925 1007.6,-260.334 1017.27,-256.016 1012.47,-250.925"/>
</g>
<!-- Node9 -->
<g id="node17" class="node"><title>Node9</title>
<a xlink:href="CardWebApp_8h.htm" target="_top" xlink:title="CardWebApp.h">
<polygon fill="white" stroke="black" points="848,-202.5 848,-223.5 936,-223.5 936,-202.5 848,-202.5"/>
<text text-anchor="middle" x="892" y="-210.5" font-family="Helvetica,sans-Serif" font-size="10.00">CardWebApp.h</text>
</a>
</g>
<!-- Node8&#45;&gt;Node9 -->
<g id="edge16" class="edge"><title>Node8&#45;&gt;Node9</title>
<path fill="none" stroke="midnightblue" d="M968.971,-255.517C950.689,-245.419 927.308,-232.503 911.137,-223.571"/>
<polygon fill="midnightblue" stroke="midnightblue" points="967.296,-258.59 977.741,-260.362 970.68,-252.463 967.296,-258.59"/>
</g>
<!-- Node11 -->
<g id="node21" class="node"><title>Node11</title>
<a xlink:href="DockWebApp_8h.htm" target="_top" xlink:title="DockWebApp.h">
<polygon fill="white" stroke="black" points="775.5,-144.5 775.5,-165.5 864.5,-165.5 864.5,-144.5 775.5,-144.5"/>
<text text-anchor="middle" x="820" y="-152.5" font-family="Helvetica,sans-Serif" font-size="10.00">DockWebApp.h</text>
</a>
</g>
<!-- Node8&#45;&gt;Node11 -->
<g id="edge56" class="edge"><title>Node8&#45;&gt;Node11</title>
<path fill="none" stroke="midnightblue" d="M931.552,-258.223C894.221,-249.684 852.284,-237.558 839,-224 823.435,-208.114 820.347,-180.709 819.898,-165.66"/>
<polygon fill="midnightblue" stroke="midnightblue" points="930.904,-261.664 941.426,-260.424 932.427,-254.832 930.904,-261.664"/>
</g>
<!-- Node20 -->
<g id="node46" class="node"><title>Node20</title>
<a xlink:href="WindowedWebApp_8cpp.htm" target="_top" xlink:title="WindowedWebApp.cpp">
<polygon fill="white" stroke="black" points="-0.5,-79.5 -0.5,-100.5 124.5,-100.5 124.5,-79.5 -0.5,-79.5"/>
<text text-anchor="middle" x="62" y="-87.5" font-family="Helvetica,sans-Serif" font-size="10.00">WindowedWebApp.cpp</text>
</a>
</g>
<!-- Node8&#45;&gt;Node20 -->
<g id="edge78" class="edge"><title>Node8&#45;&gt;Node20</title>
<path fill="none" stroke="midnightblue" d="M929.769,-259.249C876.603,-249.893 800.511,-236.361 734,-224 466.539,-174.292 398.515,-167.229 133,-108 122.947,-105.757 112.147,-103.132 102.08,-100.59"/>
<polygon fill="midnightblue" stroke="midnightblue" points="929.3,-262.72 939.755,-261.005 930.512,-255.826 929.3,-262.72"/>
</g>
<!-- Node8&#45;&gt;Node21 -->
<g id="edge76" class="edge"><title>Node8&#45;&gt;Node21</title>
<path fill="none" stroke="midnightblue" d="M947.247,-257.823C859.483,-234.58 678.891,-186.752 598.779,-165.535"/>
<polygon fill="midnightblue" stroke="midnightblue" points="946.406,-261.221 956.969,-260.398 948.199,-254.455 946.406,-261.221"/>
</g>
<!-- Node22 -->
<g id="node51" class="node"><title>Node22</title>
<a xlink:href="AlertWebApp_8h.htm" target="_top" xlink:title="AlertWebApp.h">
<polygon fill="white" stroke="black" points="954,-202.5 954,-223.5 1040,-223.5 1040,-202.5 954,-202.5"/>
<text text-anchor="middle" x="997" y="-210.5" font-family="Helvetica,sans-Serif" font-size="10.00">AlertWebApp.h</text>
</a>
</g>
<!-- Node8&#45;&gt;Node22 -->
<g id="edge58" class="edge"><title>Node8&#45;&gt;Node22</title>
<path fill="none" stroke="midnightblue" d="M997,-250.191C997,-241.168 997,-230.994 997,-223.571"/>
<polygon fill="midnightblue" stroke="midnightblue" points="993.5,-250.362 997,-260.362 1000.5,-250.362 993.5,-250.362"/>
</g>
<!-- Node24 -->
<g id="node57" class="node"><title>Node24</title>
<a xlink:href="DashboardWebApp_8h.htm" target="_top" xlink:title="DashboardWebApp.h">
<polygon fill="white" stroke="black" points="1380,-202.5 1380,-223.5 1496,-223.5 1496,-202.5 1380,-202.5"/>
<text text-anchor="middle" x="1438" y="-210.5" font-family="Helvetica,sans-Serif" font-size="10.00">DashboardWebApp.h</text>
</a>
</g>
<!-- Node8&#45;&gt;Node24 -->
<g id="edge66" class="edge"><title>Node8&#45;&gt;Node24</title>
<path fill="none" stroke="midnightblue" d="M1064.13,-262.171C1150.28,-250.841 1298.29,-231.375 1379.85,-220.648"/>
<polygon fill="midnightblue" stroke="midnightblue" points="1063.66,-258.703 1054.2,-263.477 1064.57,-265.643 1063.66,-258.703"/>
</g>
<!-- Node26 -->
<g id="node63" class="node"><title>Node26</title>
<a xlink:href="WebAppDeferredUpdateHandler_8cpp.htm" target="_top" xlink:title="WebAppDeferredUpdateHandler.cpp">
<polygon fill="white" stroke="black" points="1096,-202.5 1096,-223.5 1286,-223.5 1286,-202.5 1096,-202.5"/>
<text text-anchor="middle" x="1191" y="-210.5" font-family="Helvetica,sans-Serif" font-size="10.00">WebAppDeferredUpdateHandler.cpp</text>
</a>
</g>
<!-- Node8&#45;&gt;Node26 -->
<g id="edge74" class="edge"><title>Node8&#45;&gt;Node26</title>
<path fill="none" stroke="midnightblue" d="M1042,-257.546C1076.65,-247.186 1123.88,-233.067 1155.8,-223.523"/>
<polygon fill="midnightblue" stroke="midnightblue" points="1040.71,-254.279 1032.13,-260.497 1042.72,-260.985 1040.71,-254.279"/>
</g>
<!-- Node9&#45;&gt;Node2 -->
<g id="edge26" class="edge"><title>Node9&#45;&gt;Node2</title>
<path fill="none" stroke="midnightblue" d="M911.711,-195.773C928.732,-181.246 954.258,-160.281 978,-144 1002.17,-127.422 1031.68,-110.868 1050.88,-100.543"/>
<polygon fill="midnightblue" stroke="midnightblue" points="909.379,-193.162 904.083,-202.338 913.946,-198.467 909.379,-193.162"/>
</g>
<!-- Node9&#45;&gt;Node3 -->
<g id="edge28" class="edge"><title>Node9&#45;&gt;Node3</title>
<path fill="none" stroke="midnightblue" d="M946.138,-201.892C1066.02,-181.694 1098.17,-181.625 1215,-166 1217.71,-165.638 1220.46,-165.27 1223.24,-164.897"/>
<polygon fill="midnightblue" stroke="midnightblue" points="945.475,-198.454 936.201,-203.578 946.646,-205.355 945.475,-198.454"/>
</g>
<!-- Node9&#45;&gt;Node4 -->
<g id="edge30" class="edge"><title>Node9&#45;&gt;Node4</title>
<path fill="none" stroke="midnightblue" d="M946.106,-201.247C994.693,-190.692 1065.32,-175.351 1111.69,-165.276"/>
<polygon fill="midnightblue" stroke="midnightblue" points="945.119,-197.879 936.09,-203.422 946.605,-204.72 945.119,-197.879"/>
</g>
<!-- Node10 -->
<g id="node19" class="node"><title>Node10</title>
<a xlink:href="CardWebApp_8cpp.htm" target="_top" xlink:title="CardWebApp.cpp">
<polygon fill="white" stroke="black" points="887.5,-79.5 887.5,-100.5 986.5,-100.5 986.5,-79.5 887.5,-79.5"/>
<text text-anchor="middle" x="937" y="-87.5" font-family="Helvetica,sans-Serif" font-size="10.00">CardWebApp.cpp</text>
</a>
</g>
<!-- Node9&#45;&gt;Node10 -->
<g id="edge18" class="edge"><title>Node9&#45;&gt;Node10</title>
<path fill="none" stroke="midnightblue" d="M898.838,-192.721C903.539,-178.937 909.993,-160.313 916,-144 921.561,-128.897 928.374,-111.579 932.702,-100.714"/>
<polygon fill="midnightblue" stroke="midnightblue" points="895.52,-191.606 895.621,-202.201 902.149,-193.856 895.52,-191.606"/>
</g>
<!-- Node9&#45;&gt;Node11 -->
<g id="edge20" class="edge"><title>Node9&#45;&gt;Node11</title>
<path fill="none" stroke="midnightblue" d="M870.866,-195.975C858.646,-186.132 843.654,-174.055 833.122,-165.571"/>
<polygon fill="midnightblue" stroke="midnightblue" points="868.811,-198.814 878.794,-202.362 873.202,-193.363 868.811,-198.814"/>
</g>
<!-- Node13 -->
<g id="node29" class="node"><title>Node13</title>
<a xlink:href="RemoteWindowData_8h.htm" target="_top" xlink:title="RemoteWindowData.h">
<polygon fill="white" stroke="black" points="636,-144.5 636,-165.5 758,-165.5 758,-144.5 636,-144.5"/>
<text text-anchor="middle" x="697" y="-152.5" font-family="Helvetica,sans-Serif" font-size="10.00">RemoteWindowData.h</text>
</a>
</g>
<!-- Node9&#45;&gt;Node13 -->
<g id="edge32" class="edge"><title>Node9&#45;&gt;Node13</title>
<path fill="none" stroke="midnightblue" d="M846.768,-199.546C811.935,-189.186 764.466,-175.067 732.379,-165.523"/>
<polygon fill="midnightblue" stroke="midnightblue" points="846.104,-203 856.687,-202.497 848.1,-196.291 846.104,-203"/>
</g>
<!-- Node9&#45;&gt;Node21 -->
<g id="edge54" class="edge"><title>Node9&#45;&gt;Node21</title>
<path fill="none" stroke="midnightblue" d="M837.72,-203.546C777.559,-193.067 680.83,-176.22 618.607,-165.382"/>
<polygon fill="midnightblue" stroke="midnightblue" points="837.328,-207.03 847.78,-205.298 838.529,-200.134 837.328,-207.03"/>
</g>
<!-- Node11&#45;&gt;Node2 -->
<g id="edge24" class="edge"><title>Node11&#45;&gt;Node2</title>
<path fill="none" stroke="midnightblue" d="M870.296,-141.975C917.374,-129.784 986.822,-111.799 1030.45,-100.501"/>
<polygon fill="midnightblue" stroke="midnightblue" points="869.41,-138.589 860.606,-144.484 871.165,-145.366 869.41,-138.589"/>
</g>
<!-- Node12 -->
<g id="node23" class="node"><title>Node12</title>
<a xlink:href="DockWebApp_8cpp.htm" target="_top" xlink:title="DockWebApp.cpp">
<polygon fill="white" stroke="black" points="770,-79.5 770,-100.5 870,-100.5 870,-79.5 770,-79.5"/>
<text text-anchor="middle" x="820" y="-87.5" font-family="Helvetica,sans-Serif" font-size="10.00">DockWebApp.cpp</text>
</a>
</g>
<!-- Node11&#45;&gt;Node12 -->
<g id="edge22" class="edge"><title>Node11&#45;&gt;Node12</title>
<path fill="none" stroke="midnightblue" d="M820,-134.014C820,-122.831 820,-109.558 820,-100.534"/>
<polygon fill="midnightblue" stroke="midnightblue" points="816.5,-134.267 820,-144.267 823.5,-134.267 816.5,-134.267"/>
</g>
<!-- Node13&#45;&gt;Node10 -->
<g id="edge34" class="edge"><title>Node13&#45;&gt;Node10</title>
<path fill="none" stroke="midnightblue" d="M750.09,-142.007C786.488,-132.924 835.816,-120.269 879,-108 887.113,-105.695 895.82,-103.073 903.957,-100.557"/>
<polygon fill="midnightblue" stroke="midnightblue" points="749.042,-138.661 740.182,-144.471 750.731,-145.454 749.042,-138.661"/>
</g>
<!-- Node13&#45;&gt;Node12 -->
<g id="edge36" class="edge"><title>Node13&#45;&gt;Node12</title>
<path fill="none" stroke="midnightblue" d="M725.924,-139.715C748.707,-127.675 779.873,-111.205 799.973,-100.584"/>
<polygon fill="midnightblue" stroke="midnightblue" points="724.242,-136.645 717.036,-144.412 727.513,-142.834 724.242,-136.645"/>
</g>
<!-- Node14 -->
<g id="node33" class="node"><title>Node14</title>
<a xlink:href="RemoteWindowData_8cpp.htm" target="_top" xlink:title="RemoteWindowData.cpp">
<polygon fill="white" stroke="black" points="594.5,-7.5 594.5,-28.5 727.5,-28.5 727.5,-7.5 594.5,-7.5"/>
<text text-anchor="middle" x="661" y="-15.5" font-family="Helvetica,sans-Serif" font-size="10.00">RemoteWindowData.cpp</text>
</a>
</g>
<!-- Node13&#45;&gt;Node14 -->
<g id="edge38" class="edge"><title>Node13&#45;&gt;Node14</title>
<path fill="none" stroke="midnightblue" d="M710.772,-135.904C721.332,-118.756 732.606,-93.105 723,-72 714.308,-52.9021 695.155,-37.9317 680.421,-28.6457"/>
<polygon fill="midnightblue" stroke="midnightblue" points="707.703,-134.2 705.115,-144.474 713.545,-138.056 707.703,-134.2"/>
</g>
<!-- Node15 -->
<g id="node35" class="node"><title>Node15</title>
<a xlink:href="RemoteWindowDataSoftwareQt_8h.htm" target="_top" xlink:title="RemoteWindowDataSoftwareQt.h">
<polygon fill="white" stroke="black" points="331.5,-79.5 331.5,-100.5 506.5,-100.5 506.5,-79.5 331.5,-79.5"/>
<text text-anchor="middle" x="419" y="-87.5" font-family="Helvetica,sans-Serif" font-size="10.00">RemoteWindowDataSoftwareQt.h</text>
</a>
</g>
<!-- Node13&#45;&gt;Node15 -->
<g id="edge40" class="edge"><title>Node13&#45;&gt;Node15</title>
<path fill="none" stroke="midnightblue" d="M642.273,-142.204C590.118,-130.01 512.536,-111.87 463.91,-100.501"/>
<polygon fill="midnightblue" stroke="midnightblue" points="641.491,-145.616 652.026,-144.484 643.085,-138.799 641.491,-145.616"/>
</g>
<!-- Node17 -->
<g id="node40" class="node"><title>Node17</title>
<a xlink:href="RemoteWindowDataOpenGLQt_8h.htm" target="_top" xlink:title="RemoteWindowDataOpenGLQt.h">
<polygon fill="white" stroke="black" points="141.5,-79.5 141.5,-100.5 314.5,-100.5 314.5,-79.5 141.5,-79.5"/>
<text text-anchor="middle" x="228" y="-87.5" font-family="Helvetica,sans-Serif" font-size="10.00">RemoteWindowDataOpenGLQt.h</text>
</a>
</g>
<!-- Node13&#45;&gt;Node17 -->
<g id="edge46" class="edge"><title>Node13&#45;&gt;Node17</title>
<path fill="none" stroke="midnightblue" d="M626.008,-143.908C490.534,-125.575 454.323,-128.192 323,-108 309.063,-105.857 294.044,-103.182 280.154,-100.556"/>
<polygon fill="midnightblue" stroke="midnightblue" points="625.555,-147.378 635.937,-145.264 626.503,-140.443 625.555,-147.378"/>
</g>
<!-- Node19 -->
<g id="node44" class="node"><title>Node19</title>
<a xlink:href="RemoteWindowDataOpenGLTextureShared_8h.htm" target="_top" xlink:title="RemoteWindowDataOpenGLTexture\lShared.h">
<polygon fill="white" stroke="black" points="524,-73 524,-107 714,-107 714,-73 524,-73"/>
<text text-anchor="start" x="532" y="-94" font-family="Helvetica,sans-Serif" font-size="10.00">RemoteWindowDataOpenGLTexture</text>
<text text-anchor="middle" x="619" y="-81" font-family="Helvetica,sans-Serif" font-size="10.00">Shared.h</text>
</a>
</g>
<!-- Node13&#45;&gt;Node19 -->
<g id="edge50" class="edge"><title>Node13&#45;&gt;Node19</title>
<path fill="none" stroke="midnightblue" d="M676.386,-137.822C665.001,-128.334 650.904,-116.587 639.532,-107.11"/>
<polygon fill="midnightblue" stroke="midnightblue" points="674.197,-140.553 684.12,-144.267 678.678,-135.176 674.197,-140.553"/>
</g>
<!-- Node13&#45;&gt;Node20 -->
<g id="edge52" class="edge"><title>Node13&#45;&gt;Node20</title>
<path fill="none" stroke="midnightblue" d="M625.735,-143.946C406.507,-119.613 347.019,-142.652 133,-108 121.702,-106.171 109.573,-103.403 98.5932,-100.583"/>
<polygon fill="midnightblue" stroke="midnightblue" points="625.627,-147.456 635.957,-145.102 626.414,-140.5 625.627,-147.456"/>
</g>
<!-- Node15&#45;&gt;Node14 -->
<g id="edge42" class="edge"><title>Node15&#45;&gt;Node14</title>
<path fill="none" stroke="midnightblue" d="M464.293,-76.5245C510.955,-62.6414 582.728,-41.2876 625.457,-28.5747"/>
<polygon fill="midnightblue" stroke="midnightblue" points="463.035,-73.2471 454.448,-79.4535 465.031,-79.9564 463.035,-73.2471"/>
</g>
<!-- Node16 -->
<g id="node38" class="node"><title>Node16</title>
<a xlink:href="RemoteWindowDataSoftwareQt_8cpp.htm" target="_top" xlink:title="RemoteWindowDataSoftware\lQt.cpp">
<polygon fill="white" stroke="black" points="341.5,-1 341.5,-35 496.5,-35 496.5,-1 341.5,-1"/>
<text text-anchor="start" x="349.5" y="-22" font-family="Helvetica,sans-Serif" font-size="10.00">RemoteWindowDataSoftware</text>
<text text-anchor="middle" x="419" y="-9" font-family="Helvetica,sans-Serif" font-size="10.00">Qt.cpp</text>
</a>
</g>
<!-- Node15&#45;&gt;Node16 -->
<g id="edge44" class="edge"><title>Node15&#45;&gt;Node16</title>
<path fill="none" stroke="midnightblue" d="M419,-69.1318C419,-58.3258 419,-45.2961 419,-35.0944"/>
<polygon fill="midnightblue" stroke="midnightblue" points="415.5,-69.3761 419,-79.3762 422.5,-69.3762 415.5,-69.3761"/>
</g>
<!-- Node18 -->
<g id="node42" class="node"><title>Node18</title>
<a xlink:href="RemoteWindowDataOpenGLQt_8cpp.htm" target="_top" xlink:title="RemoteWindowDataOpenGLQt.cpp">
<polygon fill="white" stroke="black" points="135.5,-7.5 135.5,-28.5 320.5,-28.5 320.5,-7.5 135.5,-7.5"/>
<text text-anchor="middle" x="228" y="-15.5" font-family="Helvetica,sans-Serif" font-size="10.00">RemoteWindowDataOpenGLQt.cpp</text>
</a>
</g>
<!-- Node17&#45;&gt;Node18 -->
<g id="edge48" class="edge"><title>Node17&#45;&gt;Node18</title>
<path fill="none" stroke="midnightblue" d="M228,-69.2348C228,-55.969 228,-39.3188 228,-28.6674"/>
<polygon fill="midnightblue" stroke="midnightblue" points="224.5,-69.3761 228,-79.3762 231.5,-69.3762 224.5,-69.3761"/>
</g>
<!-- Node22&#45;&gt;Node2 -->
<g id="edge62" class="edge"><title>Node22&#45;&gt;Node2</title>
<path fill="none" stroke="midnightblue" d="M987.876,-192.998C982.72,-178.563 978.785,-159.046 987,-144 998.381,-123.153 1021.64,-109.154 1040.8,-100.643"/>
<polygon fill="midnightblue" stroke="midnightblue" points="984.71,-194.504 991.69,-202.475 991.203,-191.891 984.71,-194.504"/>
</g>
<!-- Node22&#45;&gt;Node4 -->
<g id="edge64" class="edge"><title>Node22&#45;&gt;Node4</title>
<path fill="none" stroke="midnightblue" d="M1036.08,-199.009C1064.87,-188.702 1103.41,-174.903 1129.61,-165.523"/>
<polygon fill="midnightblue" stroke="midnightblue" points="1034.57,-195.831 1026.34,-202.497 1036.93,-202.421 1034.57,-195.831"/>
</g>
<!-- Node23 -->
<g id="node53" class="node"><title>Node23</title>
<a xlink:href="AlertWebApp_8cpp.htm" target="_top" xlink:title="AlertWebApp.cpp">
<polygon fill="white" stroke="black" points="996,-144.5 996,-165.5 1094,-165.5 1094,-144.5 996,-144.5"/>
<text text-anchor="middle" x="1045" y="-152.5" font-family="Helvetica,sans-Serif" font-size="10.00">AlertWebApp.cpp</text>
</a>
</g>
<!-- Node22&#45;&gt;Node23 -->
<g id="edge60" class="edge"><title>Node22&#45;&gt;Node23</title>
<path fill="none" stroke="midnightblue" d="M1012.28,-194.541C1020.19,-184.979 1029.57,-173.647 1036.25,-165.571"/>
<polygon fill="midnightblue" stroke="midnightblue" points="1009.48,-192.426 1005.8,-202.362 1014.88,-196.889 1009.48,-192.426"/>
</g>
<!-- Node24&#45;&gt;Node2 -->
<g id="edge70" class="edge"><title>Node24&#45;&gt;Node2</title>
<path fill="none" stroke="midnightblue" d="M1426.86,-193.748C1416.55,-177.769 1399.71,-155.818 1379,-144 1338.86,-121.1 1215.89,-104.776 1138.01,-96.4091"/>
<polygon fill="midnightblue" stroke="midnightblue" points="1423.93,-195.665 1432.16,-202.343 1429.89,-191.993 1423.93,-195.665"/>
</g>
<!-- Node25 -->
<g id="node59" class="node"><title>Node25</title>
<a xlink:href="DashboardWebApp_8cpp.htm" target="_top" xlink:title="DashboardWebApp.cpp">
<polygon fill="white" stroke="black" points="1426,-144.5 1426,-165.5 1554,-165.5 1554,-144.5 1426,-144.5"/>
<text text-anchor="middle" x="1490" y="-152.5" font-family="Helvetica,sans-Serif" font-size="10.00">DashboardWebApp.cpp</text>
</a>
</g>
<!-- Node24&#45;&gt;Node25 -->
<g id="edge68" class="edge"><title>Node24&#45;&gt;Node25</title>
<path fill="none" stroke="midnightblue" d="M1454.29,-194.83C1462.92,-185.208 1473.21,-173.728 1480.52,-165.571"/>
<polygon fill="midnightblue" stroke="midnightblue" points="1451.61,-192.58 1447.54,-202.362 1456.82,-197.253 1451.61,-192.58"/>
</g>
</g>
</svg>
