<?xml version="1.0" encoding="UTF-8" standalone="no"?>
<!DOCTYPE svg PUBLIC "-//W3C//DTD SVG 1.1//EN"
 "http://www.w3.org/Graphics/SVG/1.1/DTD/svg11.dtd">
<!-- Generated by graphviz version 2.26.3 (20100126.1600)
 -->
<!-- Title: WebAppManager.h Pages: 1 -->
<svg width="1655pt" height="146pt"
 viewBox="0.00 0.00 1655.00 146.00" xmlns="http://www.w3.org/2000/svg" xmlns:xlink="http://www.w3.org/1999/xlink">
<g id="graph1" class="graph" transform="scale(1 1) rotate(0) translate(4 142)">
<title>WebAppManager.h</title>
<polygon fill="white" stroke="white" points="-4,5 -4,-142 1652,-142 1652,5 -4,5"/>
<!-- Node1 -->
<g id="node1" class="node"><title>Node1</title>
<polygon fill="#bfbfbf" stroke="black" points="592.5,-116.5 592.5,-137.5 699.5,-137.5 699.5,-116.5 592.5,-116.5"/>
<text text-anchor="middle" x="646" y="-124.5" font-family="Helvetica,sans-Serif" font-size="10.00">WebAppManager.h</text>
</g>
<!-- Node2 -->
<g id="node3" class="node"><title>Node2</title>
<polygon fill="white" stroke="#bfbfbf" points="114.5,-0.5 114.5,-21.5 181.5,-21.5 181.5,-0.5 114.5,-0.5"/>
<text text-anchor="middle" x="148" y="-8.5" font-family="Helvetica,sans-Serif" font-size="10.00">Common.h</text>
</g>
<!-- Node1&#45;&gt;Node2 -->
<g id="edge2" class="edge"><title>Node1&#45;&gt;Node2</title>
<path fill="none" stroke="midnightblue" d="M592.477,-126.239C464.607,-123.867 149.605,-114.543 118,-80 104.757,-65.526 117.378,-44.2864 130.074,-29.2012"/>
<polygon fill="midnightblue" stroke="midnightblue" points="132.884,-31.3107 136.971,-21.5358 127.68,-26.6286 132.884,-31.3107"/>
</g>
<!-- Node3 -->
<g id="node5" class="node"><title>Node3</title>
<polygon fill="white" stroke="#bfbfbf" points="230.5,-0.5 230.5,-21.5 267.5,-21.5 267.5,-0.5 230.5,-0.5"/>
<text text-anchor="middle" x="249" y="-8.5" font-family="Helvetica,sans-Serif" font-size="10.00">map</text>
</g>
<!-- Node1&#45;&gt;Node3 -->
<g id="edge4" class="edge"><title>Node1&#45;&gt;Node3</title>
<path fill="none" stroke="midnightblue" d="M592.21,-123.601C493.677,-116.901 292.075,-100.815 268,-80 254.31,-68.1641 250.048,-47.4613 248.916,-31.8122"/>
<polygon fill="midnightblue" stroke="midnightblue" points="252.404,-31.381 248.556,-21.5095 245.408,-31.6257 252.404,-31.381"/>
</g>
<!-- Node4 -->
<g id="node7" class="node"><title>Node4</title>
<polygon fill="white" stroke="#bfbfbf" points="472.5,-58.5 472.5,-79.5 501.5,-79.5 501.5,-58.5 472.5,-58.5"/>
<text text-anchor="middle" x="487" y="-66.5" font-family="Helvetica,sans-Serif" font-size="10.00">list</text>
</g>
<!-- Node1&#45;&gt;Node4 -->
<g id="edge6" class="edge"><title>Node1&#45;&gt;Node4</title>
<path fill="none" stroke="midnightblue" d="M612.071,-116.458C586.375,-108.213 550.09,-96.0175 511.345,-80.3113"/>
<polygon fill="midnightblue" stroke="midnightblue" points="512.564,-77.028 501.984,-76.4664 509.904,-83.5032 512.564,-77.028"/>
</g>
<!-- Node5 -->
<g id="node9" class="node"><title>Node5</title>
<polygon fill="white" stroke="#bfbfbf" points="518.5,-58.5 518.5,-79.5 561.5,-79.5 561.5,-58.5 518.5,-58.5"/>
<text text-anchor="middle" x="540" y="-66.5" font-family="Helvetica,sans-Serif" font-size="10.00">string</text>
</g>
<!-- Node1&#45;&gt;Node5 -->
<g id="edge8" class="edge"><title>Node1&#45;&gt;Node5</title>
<path fill="none" stroke="midnightblue" d="M626.558,-116.362C610.196,-107.409 586.587,-94.4908 568.157,-84.4064"/>
<polygon fill="midnightblue" stroke="midnightblue" points="569.771,-81.3004 559.319,-79.5707 566.411,-87.4412 569.771,-81.3004"/>
</g>
<!-- Node6 -->
<g id="node11" class="node"><title>Node6</title>
<polygon fill="white" stroke="#bfbfbf" points="578.5,-58.5 578.5,-79.5 631.5,-79.5 631.5,-58.5 578.5,-58.5"/>
<text text-anchor="middle" x="605" y="-66.5" font-family="Helvetica,sans-Serif" font-size="10.00">QString</text>
</g>
<!-- Node1&#45;&gt;Node6 -->
<g id="edge10" class="edge"><title>Node1&#45;&gt;Node6</title>
<path fill="none" stroke="midnightblue" d="M638.48,-116.362C632.874,-108.431 625.068,-97.3885 618.403,-87.9606"/>
<polygon fill="midnightblue" stroke="midnightblue" points="621.103,-85.7161 612.472,-79.5707 615.387,-89.7568 621.103,-85.7161"/>
</g>
<!-- Node7 -->
<g id="node13" class="node"><title>Node7</title>
<polygon fill="white" stroke="#bfbfbf" points="648.5,-58.5 648.5,-79.5 725.5,-79.5 725.5,-58.5 648.5,-58.5"/>
<text text-anchor="middle" x="687" y="-66.5" font-family="Helvetica,sans-Serif" font-size="10.00">QApplication</text>
</g>
<!-- Node1&#45;&gt;Node7 -->
<g id="edge12" class="edge"><title>Node1&#45;&gt;Node7</title>
<path fill="none" stroke="midnightblue" d="M653.52,-116.362C659.126,-108.431 666.932,-97.3885 673.597,-87.9606"/>
<polygon fill="midnightblue" stroke="midnightblue" points="676.613,-89.7568 679.528,-79.5707 670.897,-85.7161 676.613,-89.7568"/>
</g>
<!-- Node8 -->
<g id="node15" class="node"><title>Node8</title>
<a xlink:href="SyncTask_8h.htm" target="_top" xlink:title="SyncTask.h">
<polygon fill="white" stroke="black" points="0.5,-58.5 0.5,-79.5 71.5,-79.5 71.5,-58.5 0.5,-58.5"/>
<text text-anchor="middle" x="36" y="-66.5" font-family="Helvetica,sans-Serif" font-size="10.00">SyncTask.h</text>
</a>
</g>
<!-- Node1&#45;&gt;Node8 -->
<g id="edge14" class="edge"><title>Node1&#45;&gt;Node8</title>
<path fill="none" stroke="midnightblue" d="M592.34,-124.957C492.145,-120.6 270.003,-108.378 85,-80 83.9228,-79.8348 82.8339,-79.6594 81.7371,-79.4754"/>
<polygon fill="midnightblue" stroke="midnightblue" points="82.2231,-76.0059 71.7522,-77.6211 80.945,-82.8882 82.2231,-76.0059"/>
</g>
<!-- Node10 -->
<g id="node20" class="node"><title>Node10</title>
<polygon fill="white" stroke="#bfbfbf" points="743,-58.5 743,-79.5 795,-79.5 795,-58.5 743,-58.5"/>
<text text-anchor="middle" x="769" y="-66.5" font-family="Helvetica,sans-Serif" font-size="10.00">Event.h</text>
</g>
<!-- Node1&#45;&gt;Node10 -->
<g id="edge20" class="edge"><title>Node1&#45;&gt;Node10</title>
<path fill="none" stroke="midnightblue" d="M668.274,-116.497C687.572,-107.397 715.713,-94.1273 737.348,-83.9253"/>
<polygon fill="midnightblue" stroke="midnightblue" points="738.924,-87.052 746.476,-79.6212 735.938,-80.7206 738.924,-87.052"/>
</g>
<!-- Node11 -->
<g id="node22" class="node"><title>Node11</title>
<a xlink:href="MemoryWatcher_8h.htm" target="_top" xlink:title="MemoryWatcher.h">
<polygon fill="white" stroke="black" points="276.5,-58.5 276.5,-79.5 379.5,-79.5 379.5,-58.5 276.5,-58.5"/>
<text text-anchor="middle" x="328" y="-66.5" font-family="Helvetica,sans-Serif" font-size="10.00">MemoryWatcher.h</text>
</a>
</g>
<!-- Node1&#45;&gt;Node11 -->
<g id="edge22" class="edge"><title>Node1&#45;&gt;Node11</title>
<path fill="none" stroke="midnightblue" d="M592.415,-117.227C536.361,-107.003 448.492,-90.9766 389.609,-80.2369"/>
<polygon fill="midnightblue" stroke="midnightblue" points="390.158,-76.7794 379.693,-78.4282 388.902,-83.6658 390.158,-76.7794"/>
</g>
<!-- Node13 -->
<g id="node28" class="node"><title>Node13</title>
<polygon fill="white" stroke="#bfbfbf" points="353,-0.5 353,-21.5 425,-21.5 425,-0.5 353,-0.5"/>
<text text-anchor="middle" x="389" y="-8.5" font-family="Helvetica,sans-Serif" font-size="10.00">SignalSlot.h</text>
</g>
<!-- Node1&#45;&gt;Node13 -->
<g id="edge34" class="edge"><title>Node1&#45;&gt;Node13</title>
<path fill="none" stroke="midnightblue" d="M592.179,-122.53C551.352,-117.186 495.098,-105.499 452,-80 430.993,-67.5715 412.916,-45.9156 401.582,-30.1731"/>
<polygon fill="midnightblue" stroke="midnightblue" points="404.287,-27.9312 395.716,-21.702 398.531,-31.916 404.287,-27.9312"/>
</g>
<!-- Node14 -->
<g id="node30" class="node"><title>Node14</title>
<polygon fill="white" stroke="#bfbfbf" points="443,-0.5 443,-21.5 495,-21.5 495,-0.5 443,-0.5"/>
<text text-anchor="middle" x="469" y="-8.5" font-family="Helvetica,sans-Serif" font-size="10.00">Timer.h</text>
</g>
<!-- Node1&#45;&gt;Node14 -->
<g id="edge36" class="edge"><title>Node1&#45;&gt;Node14</title>
<path fill="none" stroke="midnightblue" d="M592.435,-120.436C544.586,-113.342 479.687,-100.253 464,-80 453.465,-66.3994 456.285,-46.4176 460.812,-31.453"/>
<polygon fill="midnightblue" stroke="midnightblue" points="464.258,-32.201 464.244,-21.6062 457.648,-29.897 464.258,-32.201"/>
</g>
<!-- Node15 -->
<g id="node34" class="node"><title>Node15</title>
<polygon fill="white" stroke="#bfbfbf" points="813,-58.5 813,-79.5 905,-79.5 905,-58.5 813,-58.5"/>
<text text-anchor="middle" x="859" y="-66.5" font-family="Helvetica,sans-Serif" font-size="10.00">WindowTypes.h</text>
</g>
<!-- Node1&#45;&gt;Node15 -->
<g id="edge38" class="edge"><title>Node1&#45;&gt;Node15</title>
<path fill="none" stroke="midnightblue" d="M684.573,-116.497C719.899,-106.877 772.338,-92.5981 810.491,-82.209"/>
<polygon fill="midnightblue" stroke="midnightblue" points="811.626,-85.5275 820.355,-79.5231 809.787,-78.7734 811.626,-85.5275"/>
</g>
<!-- Node16 -->
<g id="node36" class="node"><title>Node16</title>
<polygon fill="white" stroke="#bfbfbf" points="922.5,-58.5 922.5,-79.5 1033.5,-79.5 1033.5,-58.5 922.5,-58.5"/>
<text text-anchor="middle" x="978" y="-66.5" font-family="Helvetica,sans-Serif" font-size="10.00">WindowProperties.h</text>
</g>
<!-- Node1&#45;&gt;Node16 -->
<g id="edge40" class="edge"><title>Node1&#45;&gt;Node16</title>
<path fill="none" stroke="midnightblue" d="M699.711,-117.617C757.687,-107.488 850.067,-91.3498 912.322,-80.4739"/>
<polygon fill="midnightblue" stroke="midnightblue" points="913.18,-83.8771 922.428,-78.7083 911.975,-76.9816 913.18,-83.8771"/>
</g>
<!-- Node17 -->
<g id="node38" class="node"><title>Node17</title>
<a xlink:href="WebAppCache_8h.htm" target="_top" xlink:title="WebAppCache.h">
<polygon fill="white" stroke="black" points="126.5,-58.5 126.5,-79.5 221.5,-79.5 221.5,-58.5 126.5,-58.5"/>
<text text-anchor="middle" x="174" y="-66.5" font-family="Helvetica,sans-Serif" font-size="10.00">WebAppCache.h</text>
</a>
</g>
<!-- Node1&#45;&gt;Node17 -->
<g id="edge42" class="edge"><title>Node1&#45;&gt;Node17</title>
<path fill="none" stroke="midnightblue" d="M592.326,-121.978C513.711,-114.37 362.719,-98.7983 235,-80 233.909,-79.8394 232.807,-79.674 231.698,-79.5045"/>
<polygon fill="midnightblue" stroke="midnightblue" points="231.998,-76.0081 221.571,-77.8845 230.892,-82.9202 231.998,-76.0081"/>
</g>
<!-- Node18 -->
<g id="node41" class="node"><title>Node18</title>
<polygon fill="white" stroke="#bfbfbf" points="1050.5,-58.5 1050.5,-79.5 1121.5,-79.5 1121.5,-58.5 1050.5,-58.5"/>
<text text-anchor="middle" x="1086" y="-66.5" font-family="Helvetica,sans-Serif" font-size="10.00">HostBase.h</text>
</g>
<!-- Node1&#45;&gt;Node18 -->
<g id="edge46" class="edge"><title>Node1&#45;&gt;Node18</title>
<path fill="none" stroke="midnightblue" d="M699.806,-122.793C774.342,-116.486 913.335,-102.99 1040.18,-80.1806"/>
<polygon fill="midnightblue" stroke="midnightblue" points="1040.85,-83.615 1050.06,-78.3789 1039.6,-76.7284 1040.85,-83.615"/>
</g>
<!-- Node19 -->
<g id="node43" class="node"><title>Node19</title>
<polygon fill="white" stroke="#bfbfbf" points="1139,-58.5 1139,-79.5 1217,-79.5 1217,-58.5 1139,-58.5"/>
<text text-anchor="middle" x="1178" y="-66.5" font-family="Helvetica,sans-Serif" font-size="10.00">lunaservice.h</text>
</g>
<!-- Node1&#45;&gt;Node19 -->
<g id="edge48" class="edge"><title>Node1&#45;&gt;Node19</title>
<path fill="none" stroke="midnightblue" d="M699.646,-124.049C787.401,-118.728 967.226,-105.759 1128.67,-80.0496"/>
<polygon fill="midnightblue" stroke="midnightblue" points="1129.47,-83.4658 1138.79,-78.4179 1128.36,-76.5551 1129.47,-83.4658"/>
</g>
<!-- Node20 -->
<g id="node45" class="node"><title>Node20</title>
<polygon fill="white" stroke="#bfbfbf" points="1235,-58.5 1235,-79.5 1309,-79.5 1309,-58.5 1235,-58.5"/>
<text text-anchor="middle" x="1272" y="-66.5" font-family="Helvetica,sans-Serif" font-size="10.00">PIpcBuffer.h</text>
</g>
<!-- Node1&#45;&gt;Node20 -->
<g id="edge50" class="edge"><title>Node1&#45;&gt;Node20</title>
<path fill="none" stroke="midnightblue" d="M699.504,-125.414C800.466,-121.825 1026.04,-110.967 1224.89,-79.9668"/>
<polygon fill="midnightblue" stroke="midnightblue" points="1225.61,-83.3971 1234.94,-78.3794 1224.52,-76.4829 1225.61,-83.3971"/>
</g>
<!-- Node21 -->
<g id="node47" class="node"><title>Node21</title>
<polygon fill="white" stroke="#bfbfbf" points="1326.5,-58.5 1326.5,-79.5 1399.5,-79.5 1399.5,-58.5 1326.5,-58.5"/>
<text text-anchor="middle" x="1363" y="-66.5" font-family="Helvetica,sans-Serif" font-size="10.00">PIpcClient.h</text>
</g>
<!-- Node1&#45;&gt;Node21 -->
<g id="edge52" class="edge"><title>Node1&#45;&gt;Node21</title>
<path fill="none" stroke="midnightblue" d="M699.919,-126.329C812.808,-124.256 1082.3,-115.808 1316.21,-80.0751"/>
<polygon fill="midnightblue" stroke="midnightblue" points="1316.92,-83.507 1326.27,-78.5184 1315.85,-76.5894 1316.92,-83.507"/>
</g>
<!-- Node22 -->
<g id="node49" class="node"><title>Node22</title>
<polygon fill="white" stroke="#bfbfbf" points="1417,-58.5 1417,-79.5 1541,-79.5 1541,-58.5 1417,-58.5"/>
<text text-anchor="middle" x="1479" y="-66.5" font-family="Helvetica,sans-Serif" font-size="10.00">PIpcChannelListener.h</text>
</g>
<!-- Node1&#45;&gt;Node22 -->
<g id="edge54" class="edge"><title>Node1&#45;&gt;Node22</title>
<path fill="none" stroke="midnightblue" d="M699.726,-125.388C822.916,-121.324 1135.38,-108.933 1406.67,-80.0615"/>
<polygon fill="midnightblue" stroke="midnightblue" points="1407.14,-83.5313 1416.7,-78.9835 1406.39,-76.5713 1407.14,-83.5313"/>
</g>
<!-- Node23 -->
<g id="node51" class="node"><title>Node23</title>
<polygon fill="white" stroke="#bfbfbf" points="1558.5,-58.5 1558.5,-79.5 1647.5,-79.5 1647.5,-58.5 1558.5,-58.5"/>
<text text-anchor="middle" x="1603" y="-66.5" font-family="Helvetica,sans-Serif" font-size="10.00">PIpcMessage.h</text>
</g>
<!-- Node1&#45;&gt;Node23 -->
<g id="edge56" class="edge"><title>Node1&#45;&gt;Node23</title>
<path fill="none" stroke="midnightblue" d="M699.601,-125.29C864.692,-119.855 1364.87,-102.102 1548.21,-80.0418"/>
<polygon fill="midnightblue" stroke="midnightblue" points="1548.77,-83.4985 1558.26,-78.786 1547.91,-76.5525 1548.77,-83.4985"/>
</g>
<!-- Node8&#45;&gt;Node2 -->
<g id="edge16" class="edge"><title>Node8&#45;&gt;Node2</title>
<path fill="none" stroke="midnightblue" d="M56.2824,-58.4966C73.6177,-49.5194 98.7904,-36.4835 118.38,-26.3387"/>
<polygon fill="midnightblue" stroke="midnightblue" points="120.22,-29.3278 127.49,-21.6212 117.001,-23.1118 120.22,-29.3278"/>
</g>
<!-- Node9 -->
<g id="node18" class="node"><title>Node9</title>
<polygon fill="white" stroke="#bfbfbf" points="0,-0.5 0,-21.5 72,-21.5 72,-0.5 0,-0.5"/>
<text text-anchor="middle" x="36" y="-8.5" font-family="Helvetica,sans-Serif" font-size="10.00">TaskBase.h</text>
</g>
<!-- Node8&#45;&gt;Node9 -->
<g id="edge18" class="edge"><title>Node8&#45;&gt;Node9</title>
<path fill="none" stroke="midnightblue" d="M36,-58.3619C36,-50.9219 36,-40.7427 36,-31.7276"/>
<polygon fill="midnightblue" stroke="midnightblue" points="39.5001,-31.5706 36,-21.5707 32.5001,-31.5707 39.5001,-31.5706"/>
</g>
<!-- Node11&#45;&gt;Node2 -->
<g id="edge24" class="edge"><title>Node11&#45;&gt;Node2</title>
<path fill="none" stroke="midnightblue" d="M295.403,-58.4966C265.931,-49.0001 222.365,-34.9619 190.234,-24.6087"/>
<polygon fill="midnightblue" stroke="midnightblue" points="191.249,-21.2587 180.658,-21.5231 189.102,-27.9214 191.249,-21.2587"/>
</g>
<!-- Node11&#45;&gt;Node3 -->
<g id="edge28" class="edge"><title>Node11&#45;&gt;Node3</title>
<path fill="none" stroke="midnightblue" d="M313.51,-58.3619C301.817,-49.7773 285.157,-37.5459 271.697,-27.6636"/>
<polygon fill="midnightblue" stroke="midnightblue" points="273.53,-24.6675 263.398,-21.5707 269.387,-30.31 273.53,-24.6675"/>
</g>
<!-- Node12 -->
<g id="node25" class="node"><title>Node12</title>
<polygon fill="white" stroke="#bfbfbf" points="285,-0.5 285,-21.5 335,-21.5 335,-0.5 285,-0.5"/>
<text text-anchor="middle" x="310" y="-8.5" font-family="Helvetica,sans-Serif" font-size="10.00">stdint.h</text>
</g>
<!-- Node11&#45;&gt;Node12 -->
<g id="edge26" class="edge"><title>Node11&#45;&gt;Node12</title>
<path fill="none" stroke="midnightblue" d="M324.699,-58.3619C322.339,-50.7584 319.091,-40.294 316.249,-31.1349"/>
<polygon fill="midnightblue" stroke="midnightblue" points="319.587,-30.0839 313.281,-21.5707 312.902,-32.1587 319.587,-30.0839"/>
</g>
<!-- Node11&#45;&gt;Node13 -->
<g id="edge30" class="edge"><title>Node11&#45;&gt;Node13</title>
<path fill="none" stroke="midnightblue" d="M339.188,-58.3619C347.959,-50.0226 360.349,-38.2418 370.578,-28.5162"/>
<polygon fill="midnightblue" stroke="midnightblue" points="373.047,-30.9978 377.883,-21.5707 368.224,-25.9248 373.047,-30.9978"/>
</g>
<!-- Node11&#45;&gt;Node14 -->
<g id="edge32" class="edge"><title>Node11&#45;&gt;Node14</title>
<path fill="none" stroke="midnightblue" d="M353.534,-58.4966C375.953,-49.2746 408.785,-35.7695 433.713,-25.5153"/>
<polygon fill="midnightblue" stroke="midnightblue" points="435.263,-28.6623 443.179,-21.6212 432.6,-22.1886 435.263,-28.6623"/>
</g>
<!-- Node17&#45;&gt;Node2 -->
<g id="edge44" class="edge"><title>Node17&#45;&gt;Node2</title>
<path fill="none" stroke="midnightblue" d="M169.231,-58.3619C165.786,-50.6766 161.031,-40.0686 156.894,-30.8399"/>
<polygon fill="midnightblue" stroke="midnightblue" points="160.023,-29.264 152.739,-21.5707 153.635,-32.1275 160.023,-29.264"/>
</g>
</g>
</svg>
