<?xml version="1.0" encoding="UTF-8" standalone="no"?>
<!DOCTYPE svg PUBLIC "-//W3C//DTD SVG 1.1//EN"
 "http://www.w3.org/Graphics/SVG/1.1/DTD/svg11.dtd">
<!-- Generated by graphviz version 2.26.3 (20100126.1600)
 -->
<!-- Title: WebAppDeferredUpdateHandler.h Pages: 1 -->
<svg width="314pt" height="88pt"
 viewBox="0.00 0.00 314.00 88.00" xmlns="http://www.w3.org/2000/svg" xmlns:xlink="http://www.w3.org/1999/xlink">
<g id="graph1" class="graph" transform="scale(1 1) rotate(0) translate(4 84)">
<title>WebAppDeferredUpdateHandler.h</title>
<polygon fill="white" stroke="white" points="-4,5 -4,-84 311,-84 311,5 -4,5"/>
<!-- Node1 -->
<g id="node1" class="node"><title>Node1</title>
<polygon fill="#bfbfbf" stroke="black" points="40.5,-58.5 40.5,-79.5 219.5,-79.5 219.5,-58.5 40.5,-58.5"/>
<text text-anchor="middle" x="130" y="-66.5" font-family="Helvetica,sans-Serif" font-size="10.00">WebAppDeferredUpdateHandler.h</text>
</g>
<!-- Node2 -->
<g id="node3" class="node"><title>Node2</title>
<a xlink:href="CardWebApp_8cpp.htm" target="_top" xlink:title="CardWebApp.cpp">
<polygon fill="white" stroke="black" points="-0.5,-0.5 -0.5,-21.5 98.5,-21.5 98.5,-0.5 -0.5,-0.5"/>
<text text-anchor="middle" x="49" y="-8.5" font-family="Helvetica,sans-Serif" font-size="10.00">CardWebApp.cpp</text>
</a>
</g>
<!-- Node1&#45;&gt;Node2 -->
<g id="edge2" class="edge"><title>Node1&#45;&gt;Node2</title>
<path fill="none" stroke="midnightblue" d="M106.62,-52.2587C92.8016,-42.3641 75.7246,-30.1361 63.7625,-21.5707"/>
<polygon fill="midnightblue" stroke="midnightblue" points="104.975,-55.3857 115.143,-58.3619 109.05,-49.6943 104.975,-55.3857"/>
</g>
<!-- Node3 -->
<g id="node5" class="node"><title>Node3</title>
<a xlink:href="WebAppDeferredUpdateHandler_8cpp.htm" target="_top" xlink:title="WebAppDeferredUpdateHandler.cpp">
<polygon fill="white" stroke="black" points="116,-0.5 116,-21.5 306,-21.5 306,-0.5 116,-0.5"/>
<text text-anchor="middle" x="211" y="-8.5" font-family="Helvetica,sans-Serif" font-size="10.00">WebAppDeferredUpdateHandler.cpp</text>
</a>
</g>
<!-- Node1&#45;&gt;Node3 -->
<g id="edge4" class="edge"><title>Node1&#45;&gt;Node3</title>
<path fill="none" stroke="midnightblue" d="M153.38,-52.2587C167.198,-42.3641 184.275,-30.1361 196.238,-21.5707"/>
<polygon fill="midnightblue" stroke="midnightblue" points="150.95,-49.6943 144.857,-58.3619 155.025,-55.3857 150.95,-49.6943"/>
</g>
</g>
</svg>
