<?xml version="1.0" encoding="UTF-8" standalone="no"?>
<!DOCTYPE svg PUBLIC "-//W3C//DTD SVG 1.1//EN"
 "http://www.w3.org/Graphics/SVG/1.1/DTD/svg11.dtd">
<!-- Generated by graphviz version 2.26.3 (20100126.1600)
 -->
<!-- Title: WebAppManager.h Pages: 1 -->
<svg width="2168pt" height="102pt"
 viewBox="0.00 0.00 2168.00 102.00" xmlns="http://www.w3.org/2000/svg" xmlns:xlink="http://www.w3.org/1999/xlink">
<g id="graph1" class="graph" transform="scale(1 1) rotate(0) translate(4 98)">
<title>WebAppManager.h</title>
<polygon fill="white" stroke="white" points="-4,5 -4,-98 2165,-98 2165,5 -4,5"/>
<!-- Node1 -->
<g id="node1" class="node"><title>Node1</title>
<polygon fill="#bfbfbf" stroke="black" points="952.5,-72.5 952.5,-93.5 1059.5,-93.5 1059.5,-72.5 952.5,-72.5"/>
<text text-anchor="middle" x="1006" y="-80.5" font-family="Helvetica,sans-Serif" font-size="10.00">WebAppManager.h</text>
</g>
<!-- Node2 -->
<g id="node3" class="node"><title>Node2</title>
<a xlink:href="CardWebApp_8cpp.htm" target="_top" xlink:title="CardWebApp.cpp">
<polygon fill="white" stroke="black" points="-0.5,-7.5 -0.5,-28.5 98.5,-28.5 98.5,-7.5 -0.5,-7.5"/>
<text text-anchor="middle" x="49" y="-15.5" font-family="Helvetica,sans-Serif" font-size="10.00">CardWebApp.cpp</text>
</a>
</g>
<!-- Node1&#45;&gt;Node2 -->
<g id="edge2" class="edge"><title>Node1&#45;&gt;Node2</title>
<path fill="none" stroke="midnightblue" d="M942.07,-81.7212C764.476,-77.8406 267.66,-64.6673 107,-36 97.3473,-34.2776 87.0534,-31.4311 77.8581,-28.5046"/>
<polygon fill="midnightblue" stroke="midnightblue" points="942.225,-85.2253 952.298,-81.9421 942.376,-78.2269 942.225,-85.2253"/>
</g>
<!-- Node3 -->
<g id="node5" class="node"><title>Node3</title>
<a xlink:href="DockWebApp_8cpp.htm" target="_top" xlink:title="DockWebApp.cpp">
<polygon fill="white" stroke="black" points="116,-7.5 116,-28.5 216,-28.5 216,-7.5 116,-7.5"/>
<text text-anchor="middle" x="166" y="-15.5" font-family="Helvetica,sans-Serif" font-size="10.00">DockWebApp.cpp</text>
</a>
</g>
<!-- Node1&#45;&gt;Node3 -->
<g id="edge4" class="edge"><title>Node1&#45;&gt;Node3</title>
<path fill="none" stroke="midnightblue" d="M942.25,-81.1024C781.409,-76.0037 362.192,-60.6971 225,-36 215.303,-34.2544 204.956,-31.4388 195.679,-28.5476"/>
<polygon fill="midnightblue" stroke="midnightblue" points="942.36,-84.6075 952.465,-81.4235 942.58,-77.611 942.36,-84.6075"/>
</g>
<!-- Node4 -->
<g id="node7" class="node"><title>Node4</title>
<a xlink:href="AlertWebApp_8cpp.htm" target="_top" xlink:title="AlertWebApp.cpp">
<polygon fill="white" stroke="black" points="234,-7.5 234,-28.5 332,-28.5 332,-7.5 234,-7.5"/>
<text text-anchor="middle" x="283" y="-15.5" font-family="Helvetica,sans-Serif" font-size="10.00">AlertWebApp.cpp</text>
</a>
</g>
<!-- Node1&#45;&gt;Node4 -->
<g id="edge6" class="edge"><title>Node1&#45;&gt;Node4</title>
<path fill="none" stroke="midnightblue" d="M941.828,-80.3504C798.301,-74.1181 455.023,-57.4256 341,-36 331.571,-34.2282 321.516,-31.4416 312.473,-28.5855"/>
<polygon fill="midnightblue" stroke="midnightblue" points="942.079,-83.8645 952.221,-80.7986 942.381,-76.871 942.079,-83.8645"/>
</g>
<!-- Node5 -->
<g id="node9" class="node"><title>Node5</title>
<a xlink:href="DashboardWebApp_8cpp.htm" target="_top" xlink:title="DashboardWebApp.cpp">
<polygon fill="white" stroke="black" points="350,-7.5 350,-28.5 478,-28.5 478,-7.5 350,-7.5"/>
<text text-anchor="middle" x="414" y="-15.5" font-family="Helvetica,sans-Serif" font-size="10.00">DashboardWebApp.cpp</text>
</a>
</g>
<!-- Node1&#45;&gt;Node5 -->
<g id="edge8" class="edge"><title>Node1&#45;&gt;Node5</title>
<path fill="none" stroke="midnightblue" d="M942.165,-80.3342C843.841,-75.5284 649.663,-63.2583 487,-36 475.542,-34.08 463.228,-31.3194 452.038,-28.5348"/>
<polygon fill="midnightblue" stroke="midnightblue" points="942.082,-83.8341 952.238,-80.8167 942.417,-76.8422 942.082,-83.8341"/>
</g>
<!-- Node6 -->
<g id="node11" class="node"><title>Node6</title>
<a xlink:href="WebAppFactoryLuna_8cpp.htm" target="_top" xlink:title="WebAppFactoryLuna.cpp">
<polygon fill="white" stroke="black" points="496,-7.5 496,-28.5 630,-28.5 630,-7.5 496,-7.5"/>
<text text-anchor="middle" x="563" y="-15.5" font-family="Helvetica,sans-Serif" font-size="10.00">WebAppFactoryLuna.cpp</text>
</a>
</g>
<!-- Node1&#45;&gt;Node6 -->
<g id="edge10" class="edge"><title>Node1&#45;&gt;Node6</title>
<path fill="none" stroke="midnightblue" d="M942.222,-76.8889C868.768,-69.3754 744.629,-55.2173 639,-36 627.527,-33.9127 615.186,-31.1965 603.854,-28.5094"/>
<polygon fill="midnightblue" stroke="midnightblue" points="941.941,-80.3783 952.243,-77.9048 942.647,-73.414 941.941,-80.3783"/>
</g>
<!-- Node7 -->
<g id="node13" class="node"><title>Node7</title>
<a xlink:href="Main_8cpp.htm" target="_top" xlink:title="Main.cpp">
<polygon fill="white" stroke="black" points="647.5,-7.5 647.5,-28.5 706.5,-28.5 706.5,-7.5 647.5,-7.5"/>
<text text-anchor="middle" x="677" y="-15.5" font-family="Helvetica,sans-Serif" font-size="10.00">Main.cpp</text>
</a>
</g>
<!-- Node1&#45;&gt;Node7 -->
<g id="edge12" class="edge"><title>Node1&#45;&gt;Node7</title>
<path fill="none" stroke="midnightblue" d="M942.353,-77.9287C882.593,-71.9554 791.227,-59.6844 715,-36 708.865,-34.0939 702.458,-31.3713 696.69,-28.6188"/>
<polygon fill="midnightblue" stroke="midnightblue" points="942.107,-81.4212 952.398,-78.9032 942.783,-74.4539 942.107,-81.4212"/>
</g>
<!-- Node8 -->
<g id="node15" class="node"><title>Node8</title>
<a xlink:href="WebAppFactoryMinimal_8cpp.htm" target="_top" xlink:title="WebAppFactoryMinimal.cpp">
<polygon fill="white" stroke="black" points="723.5,-7.5 723.5,-28.5 870.5,-28.5 870.5,-7.5 723.5,-7.5"/>
<text text-anchor="middle" x="797" y="-15.5" font-family="Helvetica,sans-Serif" font-size="10.00">WebAppFactoryMinimal.cpp</text>
</a>
</g>
<!-- Node1&#45;&gt;Node8 -->
<g id="edge14" class="edge"><title>Node1&#45;&gt;Node8</title>
<path fill="none" stroke="midnightblue" d="M961.927,-69.293C922.885,-57.1509 866.701,-39.6774 831.03,-28.5835"/>
<polygon fill="midnightblue" stroke="midnightblue" points="961.367,-72.7843 971.955,-72.412 963.446,-66.1001 961.367,-72.7843"/>
</g>
<!-- Node9 -->
<g id="node17" class="node"><title>Node9</title>
<a xlink:href="MemoryWatcher_8cpp.htm" target="_top" xlink:title="MemoryWatcher.cpp">
<polygon fill="white" stroke="black" points="888,-7.5 888,-28.5 1002,-28.5 1002,-7.5 888,-7.5"/>
<text text-anchor="middle" x="945" y="-15.5" font-family="Helvetica,sans-Serif" font-size="10.00">MemoryWatcher.cpp</text>
</a>
</g>
<!-- Node1&#45;&gt;Node9 -->
<g id="edge16" class="edge"><title>Node1&#45;&gt;Node9</title>
<path fill="none" stroke="midnightblue" d="M988.885,-64.7628C977.914,-53.0723 964.06,-38.3103 954.885,-28.5337"/>
<polygon fill="midnightblue" stroke="midnightblue" points="986.532,-67.3698 995.927,-72.2666 991.636,-62.5796 986.532,-67.3698"/>
</g>
<!-- Node10 -->
<g id="node19" class="node"><title>Node10</title>
<a xlink:href="PalmSystem_8cpp.htm" target="_top" xlink:title="PalmSystem.cpp">
<polygon fill="white" stroke="black" points="1020,-7.5 1020,-28.5 1114,-28.5 1114,-7.5 1020,-7.5"/>
<text text-anchor="middle" x="1067" y="-15.5" font-family="Helvetica,sans-Serif" font-size="10.00">PalmSystem.cpp</text>
</a>
</g>
<!-- Node1&#45;&gt;Node10 -->
<g id="edge18" class="edge"><title>Node1&#45;&gt;Node10</title>
<path fill="none" stroke="midnightblue" d="M1023.11,-64.7628C1034.09,-53.0723 1047.94,-38.3103 1057.11,-28.5337"/>
<polygon fill="midnightblue" stroke="midnightblue" points="1020.36,-62.5796 1016.07,-72.2666 1025.47,-67.3698 1020.36,-62.5796"/>
</g>
<!-- Node11 -->
<g id="node21" class="node"><title>Node11</title>
<a xlink:href="ProcessManager_8cpp.htm" target="_top" xlink:title="ProcessManager.cpp">
<polygon fill="white" stroke="black" points="1131.5,-7.5 1131.5,-28.5 1248.5,-28.5 1248.5,-7.5 1131.5,-7.5"/>
<text text-anchor="middle" x="1190" y="-15.5" font-family="Helvetica,sans-Serif" font-size="10.00">ProcessManager.cpp</text>
</a>
</g>
<!-- Node1&#45;&gt;Node11 -->
<g id="edge20" class="edge"><title>Node1&#45;&gt;Node11</title>
<path fill="none" stroke="midnightblue" d="M1045.68,-68.9818C1080.01,-56.854 1128.9,-39.583 1160.04,-28.5835"/>
<polygon fill="midnightblue" stroke="midnightblue" points="1044.24,-65.7809 1035.97,-72.412 1046.57,-72.3812 1044.24,-65.7809"/>
</g>
<!-- Node12 -->
<g id="node23" class="node"><title>Node12</title>
<a xlink:href="RemoteWindowDataOpenGLQt_8cpp.htm" target="_top" xlink:title="RemoteWindowDataOpenGLQt.cpp">
<polygon fill="white" stroke="black" points="1265.5,-7.5 1265.5,-28.5 1450.5,-28.5 1450.5,-7.5 1265.5,-7.5"/>
<text text-anchor="middle" x="1358" y="-15.5" font-family="Helvetica,sans-Serif" font-size="10.00">RemoteWindowDataOpenGLQt.cpp</text>
</a>
</g>
<!-- Node1&#45;&gt;Node12 -->
<g id="edge22" class="edge"><title>Node1&#45;&gt;Node12</title>
<path fill="none" stroke="midnightblue" d="M1069.7,-71.2373C1135.61,-59.0665 1237.6,-40.2327 1300.95,-28.5349"/>
<polygon fill="midnightblue" stroke="midnightblue" points="1069.04,-67.7994 1059.84,-73.0571 1070.31,-74.683 1069.04,-67.7994"/>
</g>
<!-- Node13 -->
<g id="node25" class="node"><title>Node13</title>
<a xlink:href="RemoteWindowDataSoftwareQt_8cpp.htm" target="_top" xlink:title="RemoteWindowDataSoftware\lQt.cpp">
<polygon fill="white" stroke="black" points="1467.5,-1 1467.5,-35 1622.5,-35 1622.5,-1 1467.5,-1"/>
<text text-anchor="start" x="1475.5" y="-22" font-family="Helvetica,sans-Serif" font-size="10.00">RemoteWindowDataSoftware</text>
<text text-anchor="middle" x="1545" y="-9" font-family="Helvetica,sans-Serif" font-size="10.00">Qt.cpp</text>
</a>
</g>
<!-- Node1&#45;&gt;Node13 -->
<g id="edge24" class="edge"><title>Node1&#45;&gt;Node13</title>
<path fill="none" stroke="midnightblue" d="M1069.66,-78.4734C1157.56,-71.7503 1320.92,-57.555 1459,-36 1461.71,-35.5765 1464.47,-35.1236 1467.25,-34.6475"/>
<polygon fill="midnightblue" stroke="midnightblue" points="1069.29,-74.9915 1059.58,-79.2368 1069.81,-81.9716 1069.29,-74.9915"/>
</g>
<!-- Node14 -->
<g id="node27" class="node"><title>Node14</title>
<a xlink:href="SysMgrWebBridge_8cpp.htm" target="_top" xlink:title="SysMgrWebBridge.cpp">
<polygon fill="white" stroke="black" points="1640,-7.5 1640,-28.5 1764,-28.5 1764,-7.5 1640,-7.5"/>
<text text-anchor="middle" x="1702" y="-15.5" font-family="Helvetica,sans-Serif" font-size="10.00">SysMgrWebBridge.cpp</text>
</a>
</g>
<!-- Node1&#45;&gt;Node14 -->
<g id="edge26" class="edge"><title>Node1&#45;&gt;Node14</title>
<path fill="none" stroke="midnightblue" d="M1070.14,-81.8342C1183.84,-78.9562 1427.92,-69.1218 1631,-36 1642.3,-34.1577 1654.42,-31.3861 1665.4,-28.5662"/>
<polygon fill="midnightblue" stroke="midnightblue" points="1069.79,-78.3416 1059.88,-82.0839 1069.96,-85.3396 1069.79,-78.3416"/>
</g>
<!-- Node15 -->
<g id="node29" class="node"><title>Node15</title>
<a xlink:href="WebAppBase_8cpp.htm" target="_top" xlink:title="WebAppBase.cpp">
<polygon fill="white" stroke="black" points="1782,-7.5 1782,-28.5 1882,-28.5 1882,-7.5 1782,-7.5"/>
<text text-anchor="middle" x="1832" y="-15.5" font-family="Helvetica,sans-Serif" font-size="10.00">WebAppBase.cpp</text>
</a>
</g>
<!-- Node1&#45;&gt;Node15 -->
<g id="edge28" class="edge"><title>Node1&#45;&gt;Node15</title>
<path fill="none" stroke="midnightblue" d="M1069.74,-81.0218C1228.53,-75.7839 1638.59,-60.2717 1773,-36 1782.7,-34.2491 1793.04,-31.432 1802.32,-28.5411"/>
<polygon fill="midnightblue" stroke="midnightblue" points="1069.53,-77.5266 1059.65,-81.3519 1069.76,-84.5229 1069.53,-77.5266"/>
</g>
<!-- Node16 -->
<g id="node31" class="node"><title>Node16</title>
<a xlink:href="WebAppManager_8cpp.htm" target="_top" xlink:title="WebAppManager.cpp">
<polygon fill="white" stroke="black" points="1899.5,-7.5 1899.5,-28.5 2018.5,-28.5 2018.5,-7.5 1899.5,-7.5"/>
<text text-anchor="middle" x="1959" y="-15.5" font-family="Helvetica,sans-Serif" font-size="10.00">WebAppManager.cpp</text>
</a>
</g>
<!-- Node1&#45;&gt;Node16 -->
<g id="edge30" class="edge"><title>Node1&#45;&gt;Node16</title>
<path fill="none" stroke="midnightblue" d="M1069.8,-81.3167C1245.28,-76.4156 1732.57,-60.9043 1891,-36 1902.1,-34.2554 1914,-31.44 1924.7,-28.5488"/>
<polygon fill="midnightblue" stroke="midnightblue" points="1069.59,-77.8212 1059.69,-81.597 1069.79,-84.8185 1069.59,-77.8212"/>
</g>
<!-- Node17 -->
<g id="node33" class="node"><title>Node17</title>
<a xlink:href="WindowedWebApp_8cpp.htm" target="_top" xlink:title="WindowedWebApp.cpp">
<polygon fill="white" stroke="black" points="2035.5,-7.5 2035.5,-28.5 2160.5,-28.5 2160.5,-7.5 2035.5,-7.5"/>
<text text-anchor="middle" x="2098" y="-15.5" font-family="Helvetica,sans-Serif" font-size="10.00">WindowedWebApp.cpp</text>
</a>
</g>
<!-- Node1&#45;&gt;Node17 -->
<g id="edge32" class="edge"><title>Node1&#45;&gt;Node17</title>
<path fill="none" stroke="midnightblue" d="M1069.74,-81.7535C1263.08,-77.7061 1840.98,-63.5715 2027,-36 2038.57,-34.2847 2051,-31.4776 2062.17,-28.5849"/>
<polygon fill="midnightblue" stroke="midnightblue" points="1069.66,-78.2543 1059.74,-81.9611 1069.81,-85.2528 1069.66,-78.2543"/>
</g>
</g>
</svg>
