<?xml version="1.0" encoding="UTF-8" standalone="no"?>
<!DOCTYPE svg PUBLIC "-//W3C//DTD SVG 1.1//EN"
 "http://www.w3.org/Graphics/SVG/1.1/DTD/svg11.dtd">
<!-- Generated by graphviz version 2.26.3 (20100126.1600)
 -->
<!-- Title: WebAppFactoryMinimal.h Pages: 1 -->
<svg width="282pt" height="88pt"
 viewBox="0.00 0.00 282.00 88.00" xmlns="http://www.w3.org/2000/svg" xmlns:xlink="http://www.w3.org/1999/xlink">
<g id="graph1" class="graph" transform="scale(1 1) rotate(0) translate(4 84)">
<title>WebAppFactoryMinimal.h</title>
<polygon fill="white" stroke="white" points="-4,5 -4,-84 279,-84 279,5 -4,5"/>
<!-- Node1 -->
<g id="node1" class="node"><title>Node1</title>
<polygon fill="#bfbfbf" stroke="black" points="78,-58.5 78,-79.5 214,-79.5 214,-58.5 78,-58.5"/>
<text text-anchor="middle" x="146" y="-66.5" font-family="Helvetica,sans-Serif" font-size="10.00">WebAppFactoryMinimal.h</text>
</g>
<!-- Node2 -->
<g id="node3" class="node"><title>Node2</title>
<a xlink:href="WebAppFactoryMinimal_8cpp.htm" target="_top" xlink:title="WebAppFactoryMinimal.cpp">
<polygon fill="white" stroke="black" points="-0.5,-0.5 -0.5,-21.5 146.5,-21.5 146.5,-0.5 -0.5,-0.5"/>
<text text-anchor="middle" x="73" y="-8.5" font-family="Helvetica,sans-Serif" font-size="10.00">WebAppFactoryMinimal.cpp</text>
</a>
</g>
<!-- Node1&#45;&gt;Node2 -->
<g id="edge2" class="edge"><title>Node1&#45;&gt;Node2</title>
<path fill="none" stroke="midnightblue" d="M124.572,-51.9753C112.183,-42.1315 96.9824,-30.0545 86.3044,-21.5707"/>
<polygon fill="midnightblue" stroke="midnightblue" points="122.604,-54.8815 132.611,-58.3619 126.958,-49.4008 122.604,-54.8815"/>
</g>
<!-- Node3 -->
<g id="node5" class="node"><title>Node3</title>
<a xlink:href="WebAppFactory_8cpp.htm" target="_top" xlink:title="WebAppFactory.cpp">
<polygon fill="white" stroke="black" points="163.5,-0.5 163.5,-21.5 274.5,-21.5 274.5,-0.5 163.5,-0.5"/>
<text text-anchor="middle" x="219" y="-8.5" font-family="Helvetica,sans-Serif" font-size="10.00">WebAppFactory.cpp</text>
</a>
</g>
<!-- Node1&#45;&gt;Node3 -->
<g id="edge4" class="edge"><title>Node1&#45;&gt;Node3</title>
<path fill="none" stroke="midnightblue" d="M167.428,-51.9753C179.817,-42.1315 195.018,-30.0545 205.696,-21.5707"/>
<polygon fill="midnightblue" stroke="midnightblue" points="165.042,-49.4008 159.389,-58.3619 169.396,-54.8815 165.042,-49.4008"/>
</g>
</g>
</svg>
