<?xml version="1.0" encoding="UTF-8" standalone="no"?>
<!DOCTYPE svg PUBLIC "-//W3C//DTD SVG 1.1//EN"
 "http://www.w3.org/Graphics/SVG/1.1/DTD/svg11.dtd">
<!-- Generated by graphviz version 2.26.3 (20100126.1600)
 -->
<!-- Title: WebAppFactoryLuna.h Pages: 1 -->
<svg width="270pt" height="88pt"
 viewBox="0.00 0.00 270.00 88.00" xmlns="http://www.w3.org/2000/svg" xmlns:xlink="http://www.w3.org/1999/xlink">
<g id="graph1" class="graph" transform="scale(1 1) rotate(0) translate(4 84)">
<title>WebAppFactoryLuna.h</title>
<polygon fill="white" stroke="white" points="-4,5 -4,-84 267,-84 267,5 -4,5"/>
<!-- Node1 -->
<g id="node1" class="node"><title>Node1</title>
<polygon fill="#bfbfbf" stroke="black" points="75.5,-58.5 75.5,-79.5 198.5,-79.5 198.5,-58.5 75.5,-58.5"/>
<text text-anchor="middle" x="137" y="-66.5" font-family="Helvetica,sans-Serif" font-size="10.00">WebAppFactoryLuna.h</text>
</g>
<!-- Node2 -->
<g id="node3" class="node"><title>Node2</title>
<a xlink:href="WebAppFactoryLuna_8cpp.htm" target="_top" xlink:title="WebAppFactoryLuna.cpp">
<polygon fill="white" stroke="black" points="0,-0.5 0,-21.5 134,-21.5 134,-0.5 0,-0.5"/>
<text text-anchor="middle" x="67" y="-8.5" font-family="Helvetica,sans-Serif" font-size="10.00">WebAppFactoryLuna.cpp</text>
</a>
</g>
<!-- Node1&#45;&gt;Node2 -->
<g id="edge2" class="edge"><title>Node1&#45;&gt;Node2</title>
<path fill="none" stroke="midnightblue" d="M116.453,-51.9753C104.573,-42.1315 89.9969,-30.0545 79.7577,-21.5707"/>
<polygon fill="midnightblue" stroke="midnightblue" points="114.228,-54.6768 124.161,-58.3619 118.694,-49.2866 114.228,-54.6768"/>
</g>
<!-- Node3 -->
<g id="node5" class="node"><title>Node3</title>
<a xlink:href="WebAppFactory_8cpp.htm" target="_top" xlink:title="WebAppFactory.cpp">
<polygon fill="white" stroke="black" points="151.5,-0.5 151.5,-21.5 262.5,-21.5 262.5,-0.5 151.5,-0.5"/>
<text text-anchor="middle" x="207" y="-8.5" font-family="Helvetica,sans-Serif" font-size="10.00">WebAppFactory.cpp</text>
</a>
</g>
<!-- Node1&#45;&gt;Node3 -->
<g id="edge4" class="edge"><title>Node1&#45;&gt;Node3</title>
<path fill="none" stroke="midnightblue" d="M157.547,-51.9753C169.427,-42.1315 184.003,-30.0545 194.242,-21.5707"/>
<polygon fill="midnightblue" stroke="midnightblue" points="155.306,-49.2866 149.839,-58.3619 159.772,-54.6768 155.306,-49.2866"/>
</g>
</g>
</svg>
