<?xml version="1.0" encoding="UTF-8" standalone="no"?>
<!DOCTYPE svg PUBLIC "-//W3C//DTD SVG 1.1//EN"
 "http://www.w3.org/Graphics/SVG/1.1/DTD/svg11.dtd">
<!-- Generated by graphviz version 2.26.3 (20100126.1600)
 -->
<!-- Title: WebAppBase.h Pages: 1 -->
<svg width="647pt" height="204pt"
 viewBox="0.00 0.00 647.00 204.00" xmlns="http://www.w3.org/2000/svg" xmlns:xlink="http://www.w3.org/1999/xlink">
<g id="graph1" class="graph" transform="scale(1 1) rotate(0) translate(4 200)">
<title>WebAppBase.h</title>
<polygon fill="white" stroke="white" points="-4,5 -4,-200 644,-200 644,5 -4,5"/>
<!-- Node1 -->
<g id="node1" class="node"><title>Node1</title>
<polygon fill="#bfbfbf" stroke="black" points="443.5,-174.5 443.5,-195.5 532.5,-195.5 532.5,-174.5 443.5,-174.5"/>
<text text-anchor="middle" x="488" y="-182.5" font-family="Helvetica,sans-Serif" font-size="10.00">WebAppBase.h</text>
</g>
<!-- Node2 -->
<g id="node3" class="node"><title>Node2</title>
<a xlink:href="SysMgrWebBridge_8h.htm" target="_top" xlink:title="SysMgrWebBridge.h">
<polygon fill="white" stroke="black" points="264.5,-116.5 264.5,-137.5 377.5,-137.5 377.5,-116.5 264.5,-116.5"/>
<text text-anchor="middle" x="321" y="-124.5" font-family="Helvetica,sans-Serif" font-size="10.00">SysMgrWebBridge.h</text>
</a>
</g>
<!-- Node1&#45;&gt;Node2 -->
<g id="edge2" class="edge"><title>Node1&#45;&gt;Node2</title>
<path fill="none" stroke="midnightblue" d="M457.758,-174.497C430.65,-165.082 390.69,-151.204 360.957,-140.877"/>
<polygon fill="midnightblue" stroke="midnightblue" points="361.894,-137.498 351.299,-137.523 359.597,-144.11 361.894,-137.498"/>
</g>
<!-- Node8 -->
<g id="node15" class="node"><title>Node8</title>
<polygon fill="white" stroke="#bfbfbf" points="468,-58.5 468,-79.5 566,-79.5 566,-58.5 468,-58.5"/>
<text text-anchor="middle" x="517" y="-66.5" font-family="Helvetica,sans-Serif" font-size="10.00">palmimedefines.h</text>
</g>
<!-- Node1&#45;&gt;Node8 -->
<g id="edge24" class="edge"><title>Node1&#45;&gt;Node8</title>
<path fill="none" stroke="midnightblue" d="M483.949,-174.4C479.296,-160.578 473.132,-135.828 480,-116 483.722,-105.255 491.029,-95.1031 498.174,-87.0027"/>
<polygon fill="midnightblue" stroke="midnightblue" points="500.805,-89.3142 505.125,-79.6402 495.715,-84.5085 500.805,-89.3142"/>
</g>
<!-- Node11 -->
<g id="node21" class="node"><title>Node11</title>
<polygon fill="white" stroke="#bfbfbf" points="488.5,-116.5 488.5,-137.5 543.5,-137.5 543.5,-116.5 488.5,-116.5"/>
<text text-anchor="middle" x="516" y="-124.5" font-family="Helvetica,sans-Serif" font-size="10.00">QObject</text>
</g>
<!-- Node1&#45;&gt;Node11 -->
<g id="edge20" class="edge"><title>Node1&#45;&gt;Node11</title>
<path fill="none" stroke="midnightblue" d="M493.136,-174.362C496.846,-166.677 501.967,-156.069 506.422,-146.84"/>
<polygon fill="midnightblue" stroke="midnightblue" points="509.701,-148.098 510.897,-137.571 503.397,-145.055 509.701,-148.098"/>
</g>
<!-- Node12 -->
<g id="node23" class="node"><title>Node12</title>
<polygon fill="white" stroke="#bfbfbf" points="561,-116.5 561,-137.5 639,-137.5 639,-116.5 561,-116.5"/>
<text text-anchor="middle" x="600" y="-124.5" font-family="Helvetica,sans-Serif" font-size="10.00">lunaservice.h</text>
</g>
<!-- Node1&#45;&gt;Node12 -->
<g id="edge22" class="edge"><title>Node1&#45;&gt;Node12</title>
<path fill="none" stroke="midnightblue" d="M508.282,-174.497C525.618,-165.519 550.79,-152.484 570.38,-142.339"/>
<polygon fill="midnightblue" stroke="midnightblue" points="572.22,-145.328 579.49,-137.621 569.001,-139.112 572.22,-145.328"/>
</g>
<!-- Node3 -->
<g id="node5" class="node"><title>Node3</title>
<a xlink:href="ProcessBase_8h.htm" target="_top" xlink:title="ProcessBase.h">
<polygon fill="white" stroke="black" points="27.5,-58.5 27.5,-79.5 114.5,-79.5 114.5,-58.5 27.5,-58.5"/>
<text text-anchor="middle" x="71" y="-66.5" font-family="Helvetica,sans-Serif" font-size="10.00">ProcessBase.h</text>
</a>
</g>
<!-- Node2&#45;&gt;Node3 -->
<g id="edge4" class="edge"><title>Node2&#45;&gt;Node3</title>
<path fill="none" stroke="midnightblue" d="M275.727,-116.497C233.212,-106.633 169.578,-91.8701 124.558,-81.4254"/>
<polygon fill="midnightblue" stroke="midnightblue" points="125.212,-77.9843 114.68,-79.1337 123.63,-84.8032 125.212,-77.9843"/>
</g>
<!-- Node6 -->
<g id="node11" class="node"><title>Node6</title>
<polygon fill="white" stroke="#bfbfbf" points="131.5,-58.5 131.5,-79.5 192.5,-79.5 192.5,-58.5 131.5,-58.5"/>
<text text-anchor="middle" x="162" y="-66.5" font-family="Helvetica,sans-Serif" font-size="10.00">QtWebKit</text>
</g>
<!-- Node2&#45;&gt;Node6 -->
<g id="edge10" class="edge"><title>Node2&#45;&gt;Node6</title>
<path fill="none" stroke="midnightblue" d="M292.206,-116.497C266.509,-107.123 228.682,-93.3242 200.413,-83.0122"/>
<polygon fill="midnightblue" stroke="midnightblue" points="201.442,-79.662 190.848,-79.5231 199.043,-86.2381 201.442,-79.662"/>
</g>
<!-- Node7 -->
<g id="node13" class="node"><title>Node7</title>
<polygon fill="white" stroke="#bfbfbf" points="209.5,-58.5 209.5,-79.5 268.5,-79.5 268.5,-58.5 209.5,-58.5"/>
<text text-anchor="middle" x="239" y="-66.5" font-family="Helvetica,sans-Serif" font-size="10.00">QPointer</text>
</g>
<!-- Node2&#45;&gt;Node7 -->
<g id="edge12" class="edge"><title>Node2&#45;&gt;Node7</title>
<path fill="none" stroke="midnightblue" d="M305.96,-116.362C293.707,-107.696 276.201,-95.3126 262.161,-85.3819"/>
<polygon fill="midnightblue" stroke="midnightblue" points="264.13,-82.4879 253.945,-79.5707 260.088,-88.2028 264.13,-82.4879"/>
</g>
<!-- Node2&#45;&gt;Node8 -->
<g id="edge14" class="edge"><title>Node2&#45;&gt;Node8</title>
<path fill="none" stroke="midnightblue" d="M356.494,-116.497C388.724,-106.959 436.434,-92.8408 471.464,-82.475"/>
<polygon fill="midnightblue" stroke="midnightblue" points="472.844,-85.7168 481.439,-79.5231 470.857,-79.0045 472.844,-85.7168"/>
</g>
<!-- Node9 -->
<g id="node17" class="node"><title>Node9</title>
<polygon fill="white" stroke="#bfbfbf" points="285.5,-58.5 285.5,-79.5 356.5,-79.5 356.5,-58.5 285.5,-58.5"/>
<text text-anchor="middle" x="321" y="-66.5" font-family="Helvetica,sans-Serif" font-size="10.00">QWebPage</text>
</g>
<!-- Node2&#45;&gt;Node9 -->
<g id="edge16" class="edge"><title>Node2&#45;&gt;Node9</title>
<path fill="none" stroke="midnightblue" d="M321,-116.362C321,-108.922 321,-98.7427 321,-89.7276"/>
<polygon fill="midnightblue" stroke="midnightblue" points="324.5,-89.5706 321,-79.5707 317.5,-89.5707 324.5,-89.5706"/>
</g>
<!-- Node10 -->
<g id="node19" class="node"><title>Node10</title>
<polygon fill="white" stroke="#bfbfbf" points="374,-58.5 374,-79.5 450,-79.5 450,-58.5 374,-58.5"/>
<text text-anchor="middle" x="412" y="-66.5" font-family="Helvetica,sans-Serif" font-size="10.00">QWebFrame</text>
</g>
<!-- Node2&#45;&gt;Node10 -->
<g id="edge18" class="edge"><title>Node2&#45;&gt;Node10</title>
<path fill="none" stroke="midnightblue" d="M337.691,-116.362C351.416,-107.614 371.084,-95.0786 386.737,-85.1015"/>
<polygon fill="midnightblue" stroke="midnightblue" points="388.863,-87.8969 395.415,-79.5707 385.101,-81.994 388.863,-87.8969"/>
</g>
<!-- Node4 -->
<g id="node7" class="node"><title>Node4</title>
<polygon fill="white" stroke="#bfbfbf" points="-0.5,-0.5 -0.5,-21.5 66.5,-21.5 66.5,-0.5 -0.5,-0.5"/>
<text text-anchor="middle" x="33" y="-8.5" font-family="Helvetica,sans-Serif" font-size="10.00">Common.h</text>
</g>
<!-- Node3&#45;&gt;Node4 -->
<g id="edge6" class="edge"><title>Node3&#45;&gt;Node4</title>
<path fill="none" stroke="midnightblue" d="M64.0302,-58.3619C58.8343,-50.4313 51.5994,-39.3885 45.4225,-29.9606"/>
<polygon fill="midnightblue" stroke="midnightblue" points="48.3335,-28.0172 39.9256,-21.5707 42.4783,-31.8534 48.3335,-28.0172"/>
</g>
<!-- Node5 -->
<g id="node9" class="node"><title>Node5</title>
<polygon fill="white" stroke="#bfbfbf" points="83.5,-0.5 83.5,-21.5 136.5,-21.5 136.5,-0.5 83.5,-0.5"/>
<text text-anchor="middle" x="110" y="-8.5" font-family="Helvetica,sans-Serif" font-size="10.00">QString</text>
</g>
<!-- Node3&#45;&gt;Node5 -->
<g id="edge8" class="edge"><title>Node3&#45;&gt;Node5</title>
<path fill="none" stroke="midnightblue" d="M78.1532,-58.3619C83.4858,-50.4313 90.9112,-39.3885 97.2506,-29.9606"/>
<polygon fill="midnightblue" stroke="midnightblue" points="100.217,-31.8221 102.892,-21.5707 94.4077,-27.9161 100.217,-31.8221"/>
</g>
</g>
</svg>
