<?xml version="1.0" encoding="UTF-8" standalone="no"?>
<!DOCTYPE svg PUBLIC "-//W3C//DTD SVG 1.1//EN"
 "http://www.w3.org/Graphics/SVG/1.1/DTD/svg11.dtd">
<!-- Generated by graphviz version 2.26.3 (20100126.1600)
 -->
<!-- Title: WebAppFactoryLuna.h Pages: 1 -->
<svg width="254pt" height="146pt"
 viewBox="0.00 0.00 254.00 146.00" xmlns="http://www.w3.org/2000/svg" xmlns:xlink="http://www.w3.org/1999/xlink">
<g id="graph1" class="graph" transform="scale(1 1) rotate(0) translate(4 142)">
<title>WebAppFactoryLuna.h</title>
<polygon fill="white" stroke="white" points="-4,5 -4,-142 251,-142 251,5 -4,5"/>
<!-- Node1 -->
<g id="node1" class="node"><title>Node1</title>
<polygon fill="#bfbfbf" stroke="black" points="10.5,-116.5 10.5,-137.5 133.5,-137.5 133.5,-116.5 10.5,-116.5"/>
<text text-anchor="middle" x="72" y="-124.5" font-family="Helvetica,sans-Serif" font-size="10.00">WebAppFactoryLuna.h</text>
</g>
<!-- Node2 -->
<g id="node3" class="node"><title>Node2</title>
<polygon fill="white" stroke="#bfbfbf" points="-0.5,-0.5 -0.5,-21.5 66.5,-21.5 66.5,-0.5 -0.5,-0.5"/>
<text text-anchor="middle" x="33" y="-8.5" font-family="Helvetica,sans-Serif" font-size="10.00">Common.h</text>
</g>
<!-- Node1&#45;&gt;Node2 -->
<g id="edge2" class="edge"><title>Node1&#45;&gt;Node2</title>
<path fill="none" stroke="midnightblue" d="M66.9769,-116.334C62.6567,-106.91 56.438,-92.7274 52,-80 46.4478,-64.0772 41.4424,-45.6442 37.9646,-31.8378"/>
<polygon fill="midnightblue" stroke="midnightblue" points="41.3064,-30.7699 35.5217,-21.8937 34.5086,-32.44 41.3064,-30.7699"/>
</g>
<!-- Node3 -->
<g id="node5" class="node"><title>Node3</title>
<a xlink:href="WebAppFactory_8h.htm" target="_top" xlink:title="WebAppFactory.h">
<polygon fill="white" stroke="black" points="61,-58.5 61,-79.5 161,-79.5 161,-58.5 61,-58.5"/>
<text text-anchor="middle" x="111" y="-66.5" font-family="Helvetica,sans-Serif" font-size="10.00">WebAppFactory.h</text>
</a>
</g>
<!-- Node1&#45;&gt;Node3 -->
<g id="edge4" class="edge"><title>Node1&#45;&gt;Node3</title>
<path fill="none" stroke="midnightblue" d="M79.1532,-116.362C84.4858,-108.431 91.9112,-97.3885 98.2506,-87.9606"/>
<polygon fill="midnightblue" stroke="midnightblue" points="101.217,-89.8221 103.892,-79.5707 95.4077,-85.9161 101.217,-89.8221"/>
</g>
<!-- Node3&#45;&gt;Node2 -->
<g id="edge6" class="edge"><title>Node3&#45;&gt;Node2</title>
<path fill="none" stroke="midnightblue" d="M96.6936,-58.3619C85.1488,-49.7773 68.6996,-37.5459 55.4096,-27.6636"/>
<polygon fill="midnightblue" stroke="midnightblue" points="57.3288,-24.7291 47.2157,-21.5707 53.1519,-30.3463 57.3288,-24.7291"/>
</g>
<!-- Node4 -->
<g id="node8" class="node"><title>Node4</title>
<polygon fill="white" stroke="#bfbfbf" points="83.5,-0.5 83.5,-21.5 136.5,-21.5 136.5,-0.5 83.5,-0.5"/>
<text text-anchor="middle" x="110" y="-8.5" font-family="Helvetica,sans-Serif" font-size="10.00">QString</text>
</g>
<!-- Node3&#45;&gt;Node4 -->
<g id="edge8" class="edge"><title>Node3&#45;&gt;Node4</title>
<path fill="none" stroke="midnightblue" d="M110.817,-58.3619C110.688,-50.9219 110.513,-40.7427 110.357,-31.7276"/>
<polygon fill="midnightblue" stroke="midnightblue" points="113.854,-31.5088 110.182,-21.5707 106.855,-31.6295 113.854,-31.5088"/>
</g>
<!-- Node5 -->
<g id="node10" class="node"><title>Node5</title>
<polygon fill="white" stroke="#bfbfbf" points="154,-0.5 154,-21.5 246,-21.5 246,-0.5 154,-0.5"/>
<text text-anchor="middle" x="200" y="-8.5" font-family="Helvetica,sans-Serif" font-size="10.00">WindowTypes.h</text>
</g>
<!-- Node3&#45;&gt;Node5 -->
<g id="edge10" class="edge"><title>Node3&#45;&gt;Node5</title>
<path fill="none" stroke="midnightblue" d="M127.324,-58.3619C140.748,-49.6138 159.983,-37.0786 175.293,-27.1015"/>
<polygon fill="midnightblue" stroke="midnightblue" points="177.312,-29.9628 183.78,-21.5707 173.491,-24.0982 177.312,-29.9628"/>
</g>
</g>
</svg>
