<?xml version="1.0" encoding="UTF-8" standalone="no"?>
<!DOCTYPE svg PUBLIC "-//W3C//DTD SVG 1.1//EN"
 "http://www.w3.org/Graphics/SVG/1.1/DTD/svg11.dtd">
<!-- Generated by graphviz version 2.26.3 (20100126.1600)
 -->
<!-- Title: WebAppFactory.h Pages: 1 -->
<svg width="834pt" height="146pt"
 viewBox="0.00 0.00 834.00 146.00" xmlns="http://www.w3.org/2000/svg" xmlns:xlink="http://www.w3.org/1999/xlink">
<g id="graph1" class="graph" transform="scale(1 1) rotate(0) translate(4 142)">
<title>WebAppFactory.h</title>
<polygon fill="white" stroke="white" points="-4,5 -4,-142 831,-142 831,5 -4,5"/>
<!-- Node1 -->
<g id="node1" class="node"><title>Node1</title>
<polygon fill="#bfbfbf" stroke="black" points="334,-116.5 334,-137.5 434,-137.5 434,-116.5 334,-116.5"/>
<text text-anchor="middle" x="384" y="-124.5" font-family="Helvetica,sans-Serif" font-size="10.00">WebAppFactory.h</text>
</g>
<!-- Node2 -->
<g id="node3" class="node"><title>Node2</title>
<a xlink:href="CardWebApp_8cpp.htm" target="_top" xlink:title="CardWebApp.cpp">
<polygon fill="white" stroke="black" points="-0.5,-58.5 -0.5,-79.5 98.5,-79.5 98.5,-58.5 -0.5,-58.5"/>
<text text-anchor="middle" x="49" y="-66.5" font-family="Helvetica,sans-Serif" font-size="10.00">CardWebApp.cpp</text>
</a>
</g>
<!-- Node1&#45;&gt;Node2 -->
<g id="edge2" class="edge"><title>Node1&#45;&gt;Node2</title>
<path fill="none" stroke="midnightblue" d="M323.782,-117.127C267.631,-107.84 181.573,-93.397 107,-80 104.276,-79.5107 101.482,-79.0023 98.6624,-78.4842"/>
<polygon fill="midnightblue" stroke="midnightblue" points="323.472,-120.624 333.908,-118.8 324.613,-113.717 323.472,-120.624"/>
</g>
<!-- Node3 -->
<g id="node5" class="node"><title>Node3</title>
<a xlink:href="DockWebApp_8cpp.htm" target="_top" xlink:title="DockWebApp.cpp">
<polygon fill="white" stroke="black" points="116,-58.5 116,-79.5 216,-79.5 216,-58.5 116,-58.5"/>
<text text-anchor="middle" x="166" y="-66.5" font-family="Helvetica,sans-Serif" font-size="10.00">DockWebApp.cpp</text>
</a>
</g>
<!-- Node1&#45;&gt;Node3 -->
<g id="edge4" class="edge"><title>Node1&#45;&gt;Node3</title>
<path fill="none" stroke="midnightblue" d="M334.432,-113.812C295.403,-103.428 241.731,-89.1487 205.552,-79.5231"/>
<polygon fill="midnightblue" stroke="midnightblue" points="333.958,-117.308 344.522,-116.497 335.758,-110.543 333.958,-117.308"/>
</g>
<!-- Node4 -->
<g id="node7" class="node"><title>Node4</title>
<a xlink:href="WebAppFactoryLuna_8h.htm" target="_top" xlink:title="WebAppFactoryLuna.h">
<polygon fill="white" stroke="black" points="233.5,-58.5 233.5,-79.5 356.5,-79.5 356.5,-58.5 233.5,-58.5"/>
<text text-anchor="middle" x="295" y="-66.5" font-family="Helvetica,sans-Serif" font-size="10.00">WebAppFactoryLuna.h</text>
</a>
</g>
<!-- Node1&#45;&gt;Node4 -->
<g id="edge6" class="edge"><title>Node1&#45;&gt;Node4</title>
<path fill="none" stroke="midnightblue" d="M359.174,-110.821C343.844,-100.831 324.614,-88.2993 311.22,-79.5707"/>
<polygon fill="midnightblue" stroke="midnightblue" points="357.387,-113.834 367.676,-116.362 361.209,-107.97 357.387,-113.834"/>
</g>
<!-- Node6 -->
<g id="node11" class="node"><title>Node6</title>
<a xlink:href="WebAppFactory_8cpp.htm" target="_top" xlink:title="WebAppFactory.cpp">
<polygon fill="white" stroke="black" points="328.5,-0.5 328.5,-21.5 439.5,-21.5 439.5,-0.5 328.5,-0.5"/>
<text text-anchor="middle" x="384" y="-8.5" font-family="Helvetica,sans-Serif" font-size="10.00">WebAppFactory.cpp</text>
</a>
</g>
<!-- Node1&#45;&gt;Node6 -->
<g id="edge18" class="edge"><title>Node1&#45;&gt;Node6</title>
<path fill="none" stroke="midnightblue" d="M384,-106.123C384,-81.2984 384,-40.8235 384,-21.6792"/>
<polygon fill="midnightblue" stroke="midnightblue" points="380.5,-106.295 384,-116.295 387.5,-106.295 380.5,-106.295"/>
</g>
<!-- Node7 -->
<g id="node13" class="node"><title>Node7</title>
<a xlink:href="WebAppFactoryMinimal_8h.htm" target="_top" xlink:title="WebAppFactoryMinimal.h">
<polygon fill="white" stroke="black" points="412,-58.5 412,-79.5 548,-79.5 548,-58.5 412,-58.5"/>
<text text-anchor="middle" x="480" y="-66.5" font-family="Helvetica,sans-Serif" font-size="10.00">WebAppFactoryMinimal.h</text>
</a>
</g>
<!-- Node1&#45;&gt;Node7 -->
<g id="edge12" class="edge"><title>Node1&#45;&gt;Node7</title>
<path fill="none" stroke="midnightblue" d="M410.316,-111.101C426.926,-101.066 447.921,-88.3808 462.504,-79.5707"/>
<polygon fill="midnightblue" stroke="midnightblue" points="408.357,-108.195 401.608,-116.362 411.977,-114.186 408.357,-108.195"/>
</g>
<!-- Node9 -->
<g id="node19" class="node"><title>Node9</title>
<a xlink:href="WebAppManager_8cpp.htm" target="_top" xlink:title="WebAppManager.cpp">
<polygon fill="white" stroke="black" points="565.5,-58.5 565.5,-79.5 684.5,-79.5 684.5,-58.5 565.5,-58.5"/>
<text text-anchor="middle" x="625" y="-66.5" font-family="Helvetica,sans-Serif" font-size="10.00">WebAppManager.cpp</text>
</a>
</g>
<!-- Node1&#45;&gt;Node9 -->
<g id="edge20" class="edge"><title>Node1&#45;&gt;Node9</title>
<path fill="none" stroke="midnightblue" d="M437.426,-114.142C480.679,-103.733 540.853,-89.2511 581.275,-79.5231"/>
<polygon fill="midnightblue" stroke="midnightblue" points="436.547,-110.754 427.643,-116.497 438.185,-117.56 436.547,-110.754"/>
</g>
<!-- Node10 -->
<g id="node21" class="node"><title>Node10</title>
<a xlink:href="WindowedWebApp_8cpp.htm" target="_top" xlink:title="WindowedWebApp.cpp">
<polygon fill="white" stroke="black" points="701.5,-58.5 701.5,-79.5 826.5,-79.5 826.5,-58.5 701.5,-58.5"/>
<text text-anchor="middle" x="764" y="-66.5" font-family="Helvetica,sans-Serif" font-size="10.00">WindowedWebApp.cpp</text>
</a>
</g>
<!-- Node1&#45;&gt;Node10 -->
<g id="edge22" class="edge"><title>Node1&#45;&gt;Node10</title>
<path fill="none" stroke="midnightblue" d="M444.086,-117.911C506.357,-108.48 606.503,-93.2788 693,-80 695.712,-79.5836 698.483,-79.1575 701.282,-78.7265"/>
<polygon fill="midnightblue" stroke="midnightblue" points="443.41,-114.473 434.047,-119.431 444.458,-121.394 443.41,-114.473"/>
</g>
<!-- Node5 -->
<g id="node9" class="node"><title>Node5</title>
<a xlink:href="WebAppFactoryLuna_8cpp.htm" target="_top" xlink:title="WebAppFactoryLuna.cpp">
<polygon fill="white" stroke="black" points="177,-0.5 177,-21.5 311,-21.5 311,-0.5 177,-0.5"/>
<text text-anchor="middle" x="244" y="-8.5" font-family="Helvetica,sans-Serif" font-size="10.00">WebAppFactoryLuna.cpp</text>
</a>
</g>
<!-- Node4&#45;&gt;Node5 -->
<g id="edge8" class="edge"><title>Node4&#45;&gt;Node5</title>
<path fill="none" stroke="midnightblue" d="M279.023,-50.8299C270.562,-41.2078 260.468,-29.7282 253.295,-21.5707"/>
<polygon fill="midnightblue" stroke="midnightblue" points="276.414,-53.1634 285.646,-58.3619 281.671,-48.541 276.414,-53.1634"/>
</g>
<!-- Node4&#45;&gt;Node6 -->
<g id="edge10" class="edge"><title>Node4&#45;&gt;Node6</title>
<path fill="none" stroke="midnightblue" d="M319.826,-52.8215C335.156,-42.8312 354.386,-30.2993 367.78,-21.5707"/>
<polygon fill="midnightblue" stroke="midnightblue" points="317.791,-49.9698 311.324,-58.3619 321.613,-55.8344 317.791,-49.9698"/>
</g>
<!-- Node7&#45;&gt;Node6 -->
<g id="edge16" class="edge"><title>Node7&#45;&gt;Node6</title>
<path fill="none" stroke="midnightblue" d="M453.684,-53.1009C437.074,-43.0658 416.079,-30.3808 401.496,-21.5707"/>
<polygon fill="midnightblue" stroke="midnightblue" points="452.023,-56.1864 462.392,-58.3619 455.643,-50.195 452.023,-56.1864"/>
</g>
<!-- Node8 -->
<g id="node15" class="node"><title>Node8</title>
<a xlink:href="WebAppFactoryMinimal_8cpp.htm" target="_top" xlink:title="WebAppFactoryMinimal.cpp">
<polygon fill="white" stroke="black" points="456.5,-0.5 456.5,-21.5 603.5,-21.5 603.5,-0.5 456.5,-0.5"/>
<text text-anchor="middle" x="530" y="-8.5" font-family="Helvetica,sans-Serif" font-size="10.00">WebAppFactoryMinimal.cpp</text>
</a>
</g>
<!-- Node7&#45;&gt;Node8 -->
<g id="edge14" class="edge"><title>Node7&#45;&gt;Node8</title>
<path fill="none" stroke="midnightblue" d="M495.913,-50.5407C504.156,-40.9786 513.925,-29.6467 520.887,-21.5707"/>
<polygon fill="midnightblue" stroke="midnightblue" points="493.049,-48.5025 489.171,-58.3619 498.351,-53.0731 493.049,-48.5025"/>
</g>
</g>
</svg>
