<?xml version="1.0" encoding="UTF-8" standalone="no"?>
<!DOCTYPE svg PUBLIC "-//W3C//DTD SVG 1.1//EN"
 "http://www.w3.org/Graphics/SVG/1.1/DTD/svg11.dtd">
<!-- Generated by graphviz version 2.26.3 (20100126.1600)
 -->
<!-- Title: WebAppCache.h Pages: 1 -->
<svg width="2168pt" height="160pt"
 viewBox="0.00 0.00 2168.00 160.00" xmlns="http://www.w3.org/2000/svg" xmlns:xlink="http://www.w3.org/1999/xlink">
<g id="graph1" class="graph" transform="scale(1 1) rotate(0) translate(4 156)">
<title>WebAppCache.h</title>
<polygon fill="white" stroke="white" points="-4,5 -4,-156 2165,-156 2165,5 -4,5"/>
<!-- Node1 -->
<g id="node1" class="node"><title>Node1</title>
<polygon fill="#bfbfbf" stroke="black" points="897.5,-130.5 897.5,-151.5 992.5,-151.5 992.5,-130.5 897.5,-130.5"/>
<text text-anchor="middle" x="945" y="-138.5" font-family="Helvetica,sans-Serif" font-size="10.00">WebAppCache.h</text>
</g>
<!-- Node2 -->
<g id="node3" class="node"><title>Node2</title>
<a xlink:href="CardWebApp_8cpp.htm" target="_top" xlink:title="CardWebApp.cpp">
<polygon fill="white" stroke="black" points="-0.5,-7.5 -0.5,-28.5 98.5,-28.5 98.5,-7.5 -0.5,-7.5"/>
<text text-anchor="middle" x="49" y="-15.5" font-family="Helvetica,sans-Serif" font-size="10.00">CardWebApp.cpp</text>
</a>
</g>
<!-- Node1&#45;&gt;Node2 -->
<g id="edge2" class="edge"><title>Node1&#45;&gt;Node2</title>
<path fill="none" stroke="midnightblue" d="M886.994,-137.268C749.99,-127.688 396.133,-98.4688 107,-36 97.9312,-34.0406 88.2437,-31.3014 79.4345,-28.5499"/>
<polygon fill="midnightblue" stroke="midnightblue" points="887.038,-140.779 897.255,-137.977 887.52,-133.796 887.038,-140.779"/>
</g>
<!-- Node3 -->
<g id="node5" class="node"><title>Node3</title>
<a xlink:href="WebAppManager_8h.htm" target="_top" xlink:title="WebAppManager.h">
<polygon fill="white" stroke="black" points="891.5,-72.5 891.5,-93.5 998.5,-93.5 998.5,-72.5 891.5,-72.5"/>
<text text-anchor="middle" x="945" y="-80.5" font-family="Helvetica,sans-Serif" font-size="10.00">WebAppManager.h</text>
</a>
</g>
<!-- Node1&#45;&gt;Node3 -->
<g id="edge4" class="edge"><title>Node1&#45;&gt;Node3</title>
<path fill="none" stroke="midnightblue" d="M945,-120.191C945,-111.168 945,-100.994 945,-93.5707"/>
<polygon fill="midnightblue" stroke="midnightblue" points="941.5,-120.362 945,-130.362 948.5,-120.362 941.5,-120.362"/>
</g>
<!-- Node19 -->
<g id="node38" class="node"><title>Node19</title>
<a xlink:href="WebAppCache_8cpp.htm" target="_top" xlink:title="WebAppCache.cpp">
<polygon fill="white" stroke="black" points="1015.5,-72.5 1015.5,-93.5 1122.5,-93.5 1122.5,-72.5 1015.5,-72.5"/>
<text text-anchor="middle" x="1069" y="-80.5" font-family="Helvetica,sans-Serif" font-size="10.00">WebAppCache.cpp</text>
</a>
</g>
<!-- Node1&#45;&gt;Node19 -->
<g id="edge38" class="edge"><title>Node1&#45;&gt;Node19</title>
<path fill="none" stroke="midnightblue" d="M976.628,-126.206C998.382,-116.031 1026.76,-102.757 1046.29,-93.6212"/>
<polygon fill="midnightblue" stroke="midnightblue" points="975.031,-123.089 967.455,-130.497 977.996,-129.43 975.031,-123.089"/>
</g>
<!-- Node3&#45;&gt;Node2 -->
<g id="edge6" class="edge"><title>Node3&#45;&gt;Node2</title>
<path fill="none" stroke="midnightblue" d="M881.06,-81.4387C711.898,-76.9846 255.448,-62.779 107,-36 97.4543,-34.278 87.2789,-31.469 78.1591,-28.5767"/>
<polygon fill="midnightblue" stroke="midnightblue" points="881.214,-84.9438 891.302,-81.7057 881.397,-77.9462 881.214,-84.9438"/>
</g>
<!-- Node4 -->
<g id="node8" class="node"><title>Node4</title>
<a xlink:href="DockWebApp_8cpp.htm" target="_top" xlink:title="DockWebApp.cpp">
<polygon fill="white" stroke="black" points="116,-7.5 116,-28.5 216,-28.5 216,-7.5 116,-7.5"/>
<text text-anchor="middle" x="166" y="-15.5" font-family="Helvetica,sans-Serif" font-size="10.00">DockWebApp.cpp</text>
</a>
</g>
<!-- Node3&#45;&gt;Node4 -->
<g id="edge8" class="edge"><title>Node3&#45;&gt;Node4</title>
<path fill="none" stroke="midnightblue" d="M881.193,-80.7248C729.381,-75.0063 350.052,-58.8397 225,-36 215.308,-34.2298 204.962,-31.4073 195.684,-28.5173"/>
<polygon fill="midnightblue" stroke="midnightblue" points="881.168,-84.2262 891.292,-81.1024 881.429,-77.2311 881.168,-84.2262"/>
</g>
<!-- Node5 -->
<g id="node10" class="node"><title>Node5</title>
<a xlink:href="AlertWebApp_8cpp.htm" target="_top" xlink:title="AlertWebApp.cpp">
<polygon fill="white" stroke="black" points="234,-7.5 234,-28.5 332,-28.5 332,-7.5 234,-7.5"/>
<text text-anchor="middle" x="283" y="-15.5" font-family="Helvetica,sans-Serif" font-size="10.00">AlertWebApp.cpp</text>
</a>
</g>
<!-- Node3&#45;&gt;Node5 -->
<g id="edge10" class="edge"><title>Node3&#45;&gt;Node5</title>
<path fill="none" stroke="midnightblue" d="M880.981,-79.831C747.429,-72.9236 443.061,-55.5531 341,-36 331.577,-34.1947 321.524,-31.3984 312.481,-28.5438"/>
<polygon fill="midnightblue" stroke="midnightblue" points="880.898,-83.3313 891.064,-80.3495 881.257,-76.3405 880.898,-83.3313"/>
</g>
<!-- Node6 -->
<g id="node12" class="node"><title>Node6</title>
<a xlink:href="DashboardWebApp_8cpp.htm" target="_top" xlink:title="DashboardWebApp.cpp">
<polygon fill="white" stroke="black" points="350,-7.5 350,-28.5 478,-28.5 478,-7.5 350,-7.5"/>
<text text-anchor="middle" x="414" y="-15.5" font-family="Helvetica,sans-Serif" font-size="10.00">DashboardWebApp.cpp</text>
</a>
</g>
<!-- Node3&#45;&gt;Node6 -->
<g id="edge12" class="edge"><title>Node3&#45;&gt;Node6</title>
<path fill="none" stroke="midnightblue" d="M881.246,-79.2761C792.409,-73.4482 626.574,-60.2474 487,-36 475.683,-34.0339 463.52,-31.2926 452.431,-28.5412"/>
<polygon fill="midnightblue" stroke="midnightblue" points="881.224,-82.7819 891.429,-79.9339 881.676,-75.7965 881.224,-82.7819"/>
</g>
<!-- Node7 -->
<g id="node14" class="node"><title>Node7</title>
<a xlink:href="WebAppFactoryLuna_8cpp.htm" target="_top" xlink:title="WebAppFactoryLuna.cpp">
<polygon fill="white" stroke="black" points="496,-7.5 496,-28.5 630,-28.5 630,-7.5 496,-7.5"/>
<text text-anchor="middle" x="563" y="-15.5" font-family="Helvetica,sans-Serif" font-size="10.00">WebAppFactoryLuna.cpp</text>
</a>
</g>
<!-- Node3&#45;&gt;Node7 -->
<g id="edge14" class="edge"><title>Node3&#45;&gt;Node7</title>
<path fill="none" stroke="midnightblue" d="M881.398,-74.7454C819.326,-66.3331 722.331,-52.2406 639,-36 627.82,-33.8212 615.795,-31.1342 604.682,-28.5072"/>
<polygon fill="midnightblue" stroke="midnightblue" points="881.054,-78.2306 891.432,-76.0969 881.989,-71.2932 881.054,-78.2306"/>
</g>
<!-- Node8 -->
<g id="node16" class="node"><title>Node8</title>
<a xlink:href="Main_8cpp.htm" target="_top" xlink:title="Main.cpp">
<polygon fill="white" stroke="black" points="647.5,-7.5 647.5,-28.5 706.5,-28.5 706.5,-7.5 647.5,-7.5"/>
<text text-anchor="middle" x="677" y="-15.5" font-family="Helvetica,sans-Serif" font-size="10.00">Main.cpp</text>
</a>
</g>
<!-- Node3&#45;&gt;Node8 -->
<g id="edge16" class="edge"><title>Node3&#45;&gt;Node8</title>
<path fill="none" stroke="midnightblue" d="M881.065,-74.1732C834.304,-66.7026 769.748,-54.263 715,-36 709.045,-34.0134 702.802,-31.3302 697.137,-28.6426"/>
<polygon fill="midnightblue" stroke="midnightblue" points="880.639,-77.649 891.06,-75.7377 881.722,-70.7332 880.639,-77.649"/>
</g>
<!-- Node9 -->
<g id="node18" class="node"><title>Node9</title>
<a xlink:href="WebAppFactoryMinimal_8cpp.htm" target="_top" xlink:title="WebAppFactoryMinimal.cpp">
<polygon fill="white" stroke="black" points="723.5,-7.5 723.5,-28.5 870.5,-28.5 870.5,-7.5 723.5,-7.5"/>
<text text-anchor="middle" x="797" y="-15.5" font-family="Helvetica,sans-Serif" font-size="10.00">WebAppFactoryMinimal.cpp</text>
</a>
</g>
<!-- Node3&#45;&gt;Node9 -->
<g id="edge18" class="edge"><title>Node3&#45;&gt;Node9</title>
<path fill="none" stroke="midnightblue" d="M911.649,-68.3527C884.122,-56.2628 845.713,-39.3942 821.098,-28.5835"/>
<polygon fill="midnightblue" stroke="midnightblue" points="910.329,-71.5953 920.892,-72.412 913.143,-65.1862 910.329,-71.5953"/>
</g>
<!-- Node10 -->
<g id="node20" class="node"><title>Node10</title>
<a xlink:href="MemoryWatcher_8cpp.htm" target="_top" xlink:title="MemoryWatcher.cpp">
<polygon fill="white" stroke="black" points="888,-7.5 888,-28.5 1002,-28.5 1002,-7.5 888,-7.5"/>
<text text-anchor="middle" x="945" y="-15.5" font-family="Helvetica,sans-Serif" font-size="10.00">MemoryWatcher.cpp</text>
</a>
</g>
<!-- Node3&#45;&gt;Node10 -->
<g id="edge20" class="edge"><title>Node3&#45;&gt;Node10</title>
<path fill="none" stroke="midnightblue" d="M945,-62.0142C945,-50.8307 945,-37.5583 945,-28.5337"/>
<polygon fill="midnightblue" stroke="midnightblue" points="941.5,-62.2665 945,-72.2666 948.5,-62.2666 941.5,-62.2665"/>
</g>
<!-- Node11 -->
<g id="node22" class="node"><title>Node11</title>
<a xlink:href="PalmSystem_8cpp.htm" target="_top" xlink:title="PalmSystem.cpp">
<polygon fill="white" stroke="black" points="1020,-7.5 1020,-28.5 1114,-28.5 1114,-7.5 1020,-7.5"/>
<text text-anchor="middle" x="1067" y="-15.5" font-family="Helvetica,sans-Serif" font-size="10.00">PalmSystem.cpp</text>
</a>
</g>
<!-- Node3&#45;&gt;Node11 -->
<g id="edge22" class="edge"><title>Node3&#45;&gt;Node11</title>
<path fill="none" stroke="midnightblue" d="M973.991,-67.5541C996.561,-55.5291 1027.29,-39.1581 1047.14,-28.5835"/>
<polygon fill="midnightblue" stroke="midnightblue" points="972.053,-64.6208 964.873,-72.412 975.344,-70.7987 972.053,-64.6208"/>
</g>
<!-- Node12 -->
<g id="node24" class="node"><title>Node12</title>
<a xlink:href="ProcessManager_8cpp.htm" target="_top" xlink:title="ProcessManager.cpp">
<polygon fill="white" stroke="black" points="1131.5,-7.5 1131.5,-28.5 1248.5,-28.5 1248.5,-7.5 1131.5,-7.5"/>
<text text-anchor="middle" x="1190" y="-15.5" font-family="Helvetica,sans-Serif" font-size="10.00">ProcessManager.cpp</text>
</a>
</g>
<!-- Node3&#45;&gt;Node12 -->
<g id="edge24" class="edge"><title>Node3&#45;&gt;Node12</title>
<path fill="none" stroke="midnightblue" d="M995.001,-69.859C1030.68,-60.4659 1079.81,-47.5045 1123,-36 1131.96,-33.613 1141.59,-31.0335 1150.68,-28.5933"/>
<polygon fill="midnightblue" stroke="midnightblue" points="994.089,-66.4798 985.309,-72.4096 995.87,-73.2493 994.089,-66.4798"/>
</g>
<!-- Node13 -->
<g id="node26" class="node"><title>Node13</title>
<a xlink:href="RemoteWindowDataOpenGLQt_8cpp.htm" target="_top" xlink:title="RemoteWindowDataOpenGLQt.cpp">
<polygon fill="white" stroke="black" points="1265.5,-7.5 1265.5,-28.5 1450.5,-28.5 1450.5,-7.5 1265.5,-7.5"/>
<text text-anchor="middle" x="1358" y="-15.5" font-family="Helvetica,sans-Serif" font-size="10.00">RemoteWindowDataOpenGLQt.cpp</text>
</a>
</g>
<!-- Node3&#45;&gt;Node13 -->
<g id="edge26" class="edge"><title>Node3&#45;&gt;Node13</title>
<path fill="none" stroke="midnightblue" d="M1008.65,-71.7698C1119.51,-54.159 1149.31,-53.3449 1257,-36 1271.24,-33.7059 1286.58,-31.0615 1300.9,-28.5182"/>
<polygon fill="midnightblue" stroke="midnightblue" points="1008.07,-68.3182 998.75,-73.3532 1009.18,-75.2303 1008.07,-68.3182"/>
</g>
<!-- Node14 -->
<g id="node28" class="node"><title>Node14</title>
<a xlink:href="RemoteWindowDataSoftwareQt_8cpp.htm" target="_top" xlink:title="RemoteWindowDataSoftware\lQt.cpp">
<polygon fill="white" stroke="black" points="1467.5,-1 1467.5,-35 1622.5,-35 1622.5,-1 1467.5,-1"/>
<text text-anchor="start" x="1475.5" y="-22" font-family="Helvetica,sans-Serif" font-size="10.00">RemoteWindowDataSoftware</text>
<text text-anchor="middle" x="1545" y="-9" font-family="Helvetica,sans-Serif" font-size="10.00">Qt.cpp</text>
</a>
</g>
<!-- Node3&#45;&gt;Node14 -->
<g id="edge28" class="edge"><title>Node3&#45;&gt;Node14</title>
<path fill="none" stroke="midnightblue" d="M1008.66,-71.8838C1208.62,-46.9466 1262.74,-64.2378 1459,-36 1461.72,-35.609 1464.48,-35.1839 1467.26,-34.7316"/>
<polygon fill="midnightblue" stroke="midnightblue" points="1008.2,-68.4142 998.72,-73.1433 1009.08,-75.3587 1008.2,-68.4142"/>
</g>
<!-- Node15 -->
<g id="node30" class="node"><title>Node15</title>
<a xlink:href="SysMgrWebBridge_8cpp.htm" target="_top" xlink:title="SysMgrWebBridge.cpp">
<polygon fill="white" stroke="black" points="1640,-7.5 1640,-28.5 1764,-28.5 1764,-7.5 1640,-7.5"/>
<text text-anchor="middle" x="1702" y="-15.5" font-family="Helvetica,sans-Serif" font-size="10.00">SysMgrWebBridge.cpp</text>
</a>
</g>
<!-- Node3&#45;&gt;Node15 -->
<g id="edge30" class="edge"><title>Node3&#45;&gt;Node15</title>
<path fill="none" stroke="midnightblue" d="M1009.03,-71.88C1284.73,-40.6111 1359.8,-77.809 1631,-36 1642.56,-34.2175 1654.98,-31.3915 1666.15,-28.5021"/>
<polygon fill="midnightblue" stroke="midnightblue" points="1008.24,-68.4469 998.711,-73.0709 1009.05,-75.4007 1008.24,-68.4469"/>
</g>
<!-- Node16 -->
<g id="node32" class="node"><title>Node16</title>
<a xlink:href="WebAppBase_8cpp.htm" target="_top" xlink:title="WebAppBase.cpp">
<polygon fill="white" stroke="black" points="1782,-7.5 1782,-28.5 1882,-28.5 1882,-7.5 1782,-7.5"/>
<text text-anchor="middle" x="1832" y="-15.5" font-family="Helvetica,sans-Serif" font-size="10.00">WebAppBase.cpp</text>
</a>
</g>
<!-- Node3&#45;&gt;Node16 -->
<g id="edge32" class="edge"><title>Node3&#45;&gt;Node16</title>
<path fill="none" stroke="midnightblue" d="M1008.8,-71.9245C1347.52,-35.3137 1440.46,-93.6095 1773,-36 1782.81,-34.2999 1793.28,-31.4595 1802.64,-28.5317"/>
<polygon fill="midnightblue" stroke="midnightblue" points="1008.26,-68.4623 998.707,-73.0356 1009.03,-75.4203 1008.26,-68.4623"/>
</g>
<!-- Node17 -->
<g id="node34" class="node"><title>Node17</title>
<a xlink:href="WebAppManager_8cpp.htm" target="_top" xlink:title="WebAppManager.cpp">
<polygon fill="white" stroke="black" points="1899.5,-7.5 1899.5,-28.5 2018.5,-28.5 2018.5,-7.5 1899.5,-7.5"/>
<text text-anchor="middle" x="1959" y="-15.5" font-family="Helvetica,sans-Serif" font-size="10.00">WebAppManager.cpp</text>
</a>
</g>
<!-- Node3&#45;&gt;Node17 -->
<g id="edge34" class="edge"><title>Node3&#45;&gt;Node17</title>
<path fill="none" stroke="midnightblue" d="M1008.87,-71.9244C1399.72,-30.6615 1505.51,-94.1574 1891,-36 1902.23,-34.3057 1914.28,-31.467 1925.06,-28.5388"/>
<polygon fill="midnightblue" stroke="midnightblue" points="1008.27,-68.4686 998.705,-73.0148 1009.02,-75.4287 1008.27,-68.4686"/>
</g>
<!-- Node18 -->
<g id="node36" class="node"><title>Node18</title>
<a xlink:href="WindowedWebApp_8cpp.htm" target="_top" xlink:title="WindowedWebApp.cpp">
<polygon fill="white" stroke="black" points="2035.5,-7.5 2035.5,-28.5 2160.5,-28.5 2160.5,-7.5 2035.5,-7.5"/>
<text text-anchor="middle" x="2098" y="-15.5" font-family="Helvetica,sans-Serif" font-size="10.00">WindowedWebApp.cpp</text>
</a>
</g>
<!-- Node3&#45;&gt;Node18 -->
<g id="edge36" class="edge"><title>Node3&#45;&gt;Node18</title>
<path fill="none" stroke="midnightblue" d="M1008.74,-71.9459C1459.87,-25.3647 1581.23,-99.631 2027,-36 2038.71,-34.3288 2051.28,-31.4964 2062.54,-28.5669"/>
<polygon fill="midnightblue" stroke="midnightblue" points="1008.28,-68.4747 998.703,-72.9968 1009.01,-75.4366 1008.28,-68.4747"/>
</g>
</g>
</svg>
