<?xml version="1.0" encoding="UTF-8" standalone="no"?>
<!DOCTYPE svg PUBLIC "-//W3C//DTD SVG 1.1//EN"
 "http://www.w3.org/Graphics/SVG/1.1/DTD/svg11.dtd">
<!-- Generated by graphviz version 2.26.3 (20100126.1600)
 -->
<!-- Title: WebAppFactoryMinimal.cpp Pages: 1 -->
<svg width="2191pt" height="378pt"
 viewBox="0.00 0.00 2191.18 378.00" xmlns="http://www.w3.org/2000/svg" xmlns:xlink="http://www.w3.org/1999/xlink">
<g id="graph1" class="graph" transform="scale(1 1) rotate(0) translate(4 374)">
<title>WebAppFactoryMinimal.cpp</title>
<polygon fill="white" stroke="white" points="-4,5 -4,-374 2188.18,-374 2188.18,5 -4,5"/>
<!-- Node1 -->
<g id="node1" class="node"><title>Node1</title>
<polygon fill="#bfbfbf" stroke="black" points="643.483,-348.5 643.483,-369.5 790.483,-369.5 790.483,-348.5 643.483,-348.5"/>
<text text-anchor="middle" x="716.983" y="-356.5" font-family="Helvetica,sans-Serif" font-size="10.00">WebAppFactoryMinimal.cpp</text>
</g>
<!-- Node2 -->
<g id="node3" class="node"><title>Node2</title>
<polygon fill="white" stroke="#bfbfbf" points="599.483,-0.5 599.483,-21.5 666.483,-21.5 666.483,-0.5 599.483,-0.5"/>
<text text-anchor="middle" x="632.983" y="-8.5" font-family="Helvetica,sans-Serif" font-size="10.00">Common.h</text>
</g>
<!-- Node1&#45;&gt;Node2 -->
<g id="edge2" class="edge"><title>Node1&#45;&gt;Node2</title>
<path fill="none" stroke="midnightblue" d="M643.368,-356.3C488.353,-350.211 138.458,-334.188 88.9827,-312 55.1409,-296.823 43.466,-288.144 28.9827,-254 -5.54206,-172.607 -41.4513,-168.067 132.983,-58 152.174,-45.8904 470.911,-22.3876 589.231,-14.0355"/>
<polygon fill="midnightblue" stroke="midnightblue" points="589.653,-17.5146 599.382,-13.3214 589.161,-10.5318 589.653,-17.5146"/>
</g>
<!-- Node3 -->
<g id="node5" class="node"><title>Node3</title>
<a xlink:href="WebAppFactoryMinimal_8h.htm" target="_top" xlink:title="WebAppFactoryMinimal.h">
<polygon fill="white" stroke="black" points="97.9827,-290.5 97.9827,-311.5 233.983,-311.5 233.983,-290.5 97.9827,-290.5"/>
<text text-anchor="middle" x="165.983" y="-298.5" font-family="Helvetica,sans-Serif" font-size="10.00">WebAppFactoryMinimal.h</text>
</a>
</g>
<!-- Node1&#45;&gt;Node3 -->
<g id="edge4" class="edge"><title>Node1&#45;&gt;Node3</title>
<path fill="none" stroke="midnightblue" d="M643.244,-351.238C539.27,-340.293 350.424,-320.415 244.117,-309.225"/>
<polygon fill="midnightblue" stroke="midnightblue" points="244.404,-305.736 234.092,-308.169 243.671,-312.697 244.404,-305.736"/>
</g>
<!-- Node7 -->
<g id="node15" class="node"><title>Node7</title>
<a xlink:href="CardWebApp_8h.htm" target="_top" xlink:title="CardWebApp.h">
<polygon fill="white" stroke="black" points="423.983,-290.5 423.983,-311.5 511.983,-311.5 511.983,-290.5 423.983,-290.5"/>
<text text-anchor="middle" x="467.983" y="-298.5" font-family="Helvetica,sans-Serif" font-size="10.00">CardWebApp.h</text>
</a>
</g>
<!-- Node1&#45;&gt;Node7 -->
<g id="edge16" class="edge"><title>Node1&#45;&gt;Node7</title>
<path fill="none" stroke="midnightblue" d="M671.891,-348.497C629.806,-338.694 566.946,-324.052 522.156,-313.619"/>
<polygon fill="midnightblue" stroke="midnightblue" points="522.854,-310.188 512.321,-311.328 521.266,-317.005 522.854,-310.188"/>
</g>
<!-- Node9 -->
<g id="node20" class="node"><title>Node9</title>
<a xlink:href="WindowedWebApp_8h.htm" target="_top" xlink:title="WindowedWebApp.h">
<polygon fill="white" stroke="black" points="659.983,-232.5 659.983,-253.5 773.983,-253.5 773.983,-232.5 659.983,-232.5"/>
<text text-anchor="middle" x="716.983" y="-240.5" font-family="Helvetica,sans-Serif" font-size="10.00">WindowedWebApp.h</text>
</a>
</g>
<!-- Node1&#45;&gt;Node9 -->
<g id="edge86" class="edge"><title>Node1&#45;&gt;Node9</title>
<path fill="none" stroke="midnightblue" d="M716.983,-348.295C716.983,-329.131 716.983,-288.654 716.983,-263.843"/>
<polygon fill="midnightblue" stroke="midnightblue" points="720.483,-263.679 716.983,-253.679 713.483,-263.679 720.483,-263.679"/>
</g>
<!-- Node12 -->
<g id="node27" class="node"><title>Node12</title>
<a xlink:href="WebAppBase_8h.htm" target="_top" xlink:title="WebAppBase.h">
<polygon fill="white" stroke="black" points="401.483,-174.5 401.483,-195.5 490.483,-195.5 490.483,-174.5 401.483,-174.5"/>
<text text-anchor="middle" x="445.983" y="-182.5" font-family="Helvetica,sans-Serif" font-size="10.00">WebAppBase.h</text>
</a>
</g>
<!-- Node1&#45;&gt;Node12 -->
<g id="edge82" class="edge"><title>Node1&#45;&gt;Node12</title>
<path fill="none" stroke="midnightblue" d="M710.851,-348.31C696.279,-323.875 657.09,-263.611 607.983,-232 590.106,-220.493 540.395,-206.919 500.712,-197.326"/>
<polygon fill="midnightblue" stroke="midnightblue" points="501.403,-193.892 490.864,-194.976 499.779,-200.701 501.403,-193.892"/>
</g>
<!-- Node13 -->
<g id="node29" class="node"><title>Node13</title>
<a xlink:href="SysMgrWebBridge_8h.htm" target="_top" xlink:title="SysMgrWebBridge.h">
<polygon fill="white" stroke="black" points="496.483,-116.5 496.483,-137.5 609.483,-137.5 609.483,-116.5 496.483,-116.5"/>
<text text-anchor="middle" x="552.983" y="-124.5" font-family="Helvetica,sans-Serif" font-size="10.00">SysMgrWebBridge.h</text>
</a>
</g>
<!-- Node1&#45;&gt;Node13 -->
<g id="edge84" class="edge"><title>Node1&#45;&gt;Node13</title>
<path fill="none" stroke="midnightblue" d="M730.05,-348.466C755.951,-326.281 809.13,-273.383 782.983,-232 747.611,-176.019 674.056,-149.553 619.603,-137.257"/>
<polygon fill="midnightblue" stroke="midnightblue" points="620.184,-133.802 609.672,-135.122 618.713,-140.646 620.184,-133.802"/>
</g>
<!-- Node31 -->
<g id="node71" class="node"><title>Node31</title>
<polygon fill="white" stroke="#bfbfbf" points="829.483,-290.5 829.483,-311.5 892.483,-311.5 892.483,-290.5 829.483,-290.5"/>
<text text-anchor="middle" x="860.983" y="-298.5" font-family="Helvetica,sans-Serif" font-size="10.00">Settings.h</text>
</g>
<!-- Node1&#45;&gt;Node31 -->
<g id="edge80" class="edge"><title>Node1&#45;&gt;Node31</title>
<path fill="none" stroke="midnightblue" d="M743.06,-348.497C766.058,-339.234 799.783,-325.65 825.282,-315.379"/>
<polygon fill="midnightblue" stroke="midnightblue" points="826.645,-318.604 834.613,-311.621 824.029,-312.111 826.645,-318.604"/>
</g>
<!-- Node32 -->
<g id="node76" class="node"><title>Node32</title>
<a xlink:href="WebAppManager_8h.htm" target="_top" xlink:title="WebAppManager.h">
<polygon fill="white" stroke="black" points="1382.48,-232.5 1382.48,-253.5 1489.48,-253.5 1489.48,-232.5 1382.48,-232.5"/>
<text text-anchor="middle" x="1435.98" y="-240.5" font-family="Helvetica,sans-Serif" font-size="10.00">WebAppManager.h</text>
</a>
</g>
<!-- Node1&#45;&gt;Node32 -->
<g id="edge88" class="edge"><title>Node1&#45;&gt;Node32</title>
<path fill="none" stroke="midnightblue" d="M775.062,-348.437C811.943,-340.697 860.23,-328.63 900.983,-312 919.051,-304.627 920.395,-295.945 938.983,-290 1018.01,-264.724 1256.85,-250.966 1372.23,-245.635"/>
<polygon fill="midnightblue" stroke="midnightblue" points="1372.5,-249.127 1382.33,-245.176 1372.19,-242.134 1372.5,-249.127"/>
</g>
<!-- Node45 -->
<g id="node118" class="node"><title>Node45</title>
<polygon fill="white" stroke="#bfbfbf" points="947.983,-290.5 947.983,-311.5 1033.98,-311.5 1033.98,-290.5 947.983,-290.5"/>
<text text-anchor="middle" x="990.983" y="-298.5" font-family="Helvetica,sans-Serif" font-size="10.00">PIpcChannel.h</text>
</g>
<!-- Node1&#45;&gt;Node45 -->
<g id="edge146" class="edge"><title>Node1&#45;&gt;Node45</title>
<path fill="none" stroke="midnightblue" d="M766.602,-348.497C814.935,-338.266 888.171,-322.763 937.713,-312.276"/>
<polygon fill="midnightblue" stroke="midnightblue" points="938.54,-315.679 947.599,-310.184 937.09,-308.83 938.54,-315.679"/>
</g>
<!-- Node3&#45;&gt;Node2 -->
<g id="edge6" class="edge"><title>Node3&#45;&gt;Node2</title>
<path fill="none" stroke="midnightblue" d="M165.983,-290.444C165.983,-270.062 165.983,-223.868 165.983,-185 165.983,-185 165.983,-185 165.983,-127 165.983,-92.2025 174.14,-77.4676 202.983,-58 234.539,-36.7006 485.915,-19.6539 589.058,-13.4872"/>
<polygon fill="midnightblue" stroke="midnightblue" points="589.369,-16.975 599.145,-12.8906 588.956,-9.98722 589.369,-16.975"/>
</g>
<!-- Node4 -->
<g id="node8" class="node"><title>Node4</title>
<a xlink:href="WebAppFactory_8h.htm" target="_top" xlink:title="WebAppFactory.h">
<polygon fill="white" stroke="black" points="37.9827,-232.5 37.9827,-253.5 137.983,-253.5 137.983,-232.5 37.9827,-232.5"/>
<text text-anchor="middle" x="87.9827" y="-240.5" font-family="Helvetica,sans-Serif" font-size="10.00">WebAppFactory.h</text>
</a>
</g>
<!-- Node3&#45;&gt;Node4 -->
<g id="edge8" class="edge"><title>Node3&#45;&gt;Node4</title>
<path fill="none" stroke="midnightblue" d="M151.676,-290.362C140.131,-281.777 123.682,-269.546 110.392,-259.664"/>
<polygon fill="midnightblue" stroke="midnightblue" points="112.312,-256.729 102.198,-253.571 108.135,-262.346 112.312,-256.729"/>
</g>
<!-- Node4&#45;&gt;Node2 -->
<g id="edge10" class="edge"><title>Node4&#45;&gt;Node2</title>
<path fill="none" stroke="midnightblue" d="M90.122,-232.277C97.5316,-196.268 123.224,-80.6704 151.983,-58 169.055,-44.5414 473.819,-22.0646 589.203,-13.9967"/>
<polygon fill="midnightblue" stroke="midnightblue" points="589.709,-17.47 599.442,-13.2839 589.223,-10.4869 589.709,-17.47"/>
</g>
<!-- Node5 -->
<g id="node11" class="node"><title>Node5</title>
<polygon fill="white" stroke="#bfbfbf" points="364.483,-0.5 364.483,-21.5 417.483,-21.5 417.483,-0.5 364.483,-0.5"/>
<text text-anchor="middle" x="390.983" y="-8.5" font-family="Helvetica,sans-Serif" font-size="10.00">QString</text>
</g>
<!-- Node4&#45;&gt;Node5 -->
<g id="edge12" class="edge"><title>Node4&#45;&gt;Node5</title>
<path fill="none" stroke="midnightblue" d="M85.5531,-232.424C79.0154,-200.984 64.5851,-107.228 111.983,-58 144.726,-23.9923 285.591,-14.5565 353.752,-11.9657"/>
<polygon fill="midnightblue" stroke="midnightblue" points="354.168,-15.4534 364.04,-11.606 353.924,-8.45768 354.168,-15.4534"/>
</g>
<!-- Node6 -->
<g id="node13" class="node"><title>Node6</title>
<polygon fill="white" stroke="#bfbfbf" points="291.983,-174.5 291.983,-195.5 383.983,-195.5 383.983,-174.5 291.983,-174.5"/>
<text text-anchor="middle" x="337.983" y="-182.5" font-family="Helvetica,sans-Serif" font-size="10.00">WindowTypes.h</text>
</g>
<!-- Node4&#45;&gt;Node6 -->
<g id="edge14" class="edge"><title>Node4&#45;&gt;Node6</title>
<path fill="none" stroke="midnightblue" d="M133.256,-232.497C175.248,-222.755 237.841,-208.233 282.754,-197.813"/>
<polygon fill="midnightblue" stroke="midnightblue" points="283.674,-201.193 292.625,-195.523 282.092,-194.374 283.674,-201.193"/>
</g>
<!-- Node7&#45;&gt;Node2 -->
<g id="edge18" class="edge"><title>Node7&#45;&gt;Node2</title>
<path fill="none" stroke="midnightblue" d="M511.105,-290.458C550.363,-278.895 598.832,-258.413 574.983,-232 522.287,-173.64 275.678,-254.36 222.983,-196 181.879,-150.478 182.158,-103.772 222.983,-58 247.078,-30.9851 488.651,-17.3322 589.312,-12.7806"/>
<polygon fill="midnightblue" stroke="midnightblue" points="589.618,-16.2705 599.453,-12.3313 589.308,-9.27738 589.618,-16.2705"/>
</g>
<!-- Node7&#45;&gt;Node6 -->
<g id="edge72" class="edge"><title>Node7&#45;&gt;Node6</title>
<path fill="none" stroke="midnightblue" d="M423.56,-297.286C368.919,-291.691 280.929,-278.983 260.983,-254 244.152,-232.919 273.617,-212.811 300.823,-199.797"/>
<polygon fill="midnightblue" stroke="midnightblue" points="302.618,-202.826 310.272,-195.5 299.72,-196.454 302.618,-202.826"/>
</g>
<!-- Node8 -->
<g id="node18" class="node"><title>Node8</title>
<polygon fill="white" stroke="#bfbfbf" points="231.483,-174.5 231.483,-195.5 274.483,-195.5 274.483,-174.5 231.483,-174.5"/>
<text text-anchor="middle" x="252.983" y="-182.5" font-family="Helvetica,sans-Serif" font-size="10.00">sptr.h</text>
</g>
<!-- Node7&#45;&gt;Node8 -->
<g id="edge20" class="edge"><title>Node7&#45;&gt;Node8</title>
<path fill="none" stroke="midnightblue" d="M423.811,-297.728C367.249,-292.514 274.007,-280.117 252.983,-254 242.223,-240.634 243.504,-220.625 246.72,-205.59"/>
<polygon fill="midnightblue" stroke="midnightblue" points="250.165,-206.243 249.259,-195.687 243.385,-204.505 250.165,-206.243"/>
</g>
<!-- Node7&#45;&gt;Node9 -->
<g id="edge22" class="edge"><title>Node7&#45;&gt;Node9</title>
<path fill="none" stroke="midnightblue" d="M512.212,-290.698C553.918,-280.983 616.574,-266.388 661.589,-255.903"/>
<polygon fill="midnightblue" stroke="midnightblue" points="662.537,-259.276 671.483,-253.598 660.949,-252.458 662.537,-259.276"/>
</g>
<!-- Node28 -->
<g id="node65" class="node"><title>Node28</title>
<polygon fill="white" stroke="#bfbfbf" points="269.483,-232.5 269.483,-253.5 352.483,-253.5 352.483,-232.5 269.483,-232.5"/>
<text text-anchor="middle" x="310.983" y="-240.5" font-family="Helvetica,sans-Serif" font-size="10.00">SysMgrDefs.h</text>
</g>
<!-- Node7&#45;&gt;Node28 -->
<g id="edge74" class="edge"><title>Node7&#45;&gt;Node28</title>
<path fill="none" stroke="midnightblue" d="M439.551,-290.497C414.178,-281.123 376.826,-267.324 348.912,-257.012"/>
<polygon fill="midnightblue" stroke="midnightblue" points="350.061,-253.705 339.468,-253.523 347.635,-260.272 350.061,-253.705"/>
</g>
<!-- Node29 -->
<g id="node67" class="node"><title>Node29</title>
<polygon fill="white" stroke="#bfbfbf" points="369.983,-232.5 369.983,-253.5 457.983,-253.5 457.983,-232.5 369.983,-232.5"/>
<text text-anchor="middle" x="413.983" y="-240.5" font-family="Helvetica,sans-Serif" font-size="10.00">QGraphicsItem</text>
</g>
<!-- Node7&#45;&gt;Node29 -->
<g id="edge76" class="edge"><title>Node7&#45;&gt;Node29</title>
<path fill="none" stroke="midnightblue" d="M458.078,-290.362C450.466,-282.186 439.775,-270.702 430.826,-261.091"/>
<polygon fill="midnightblue" stroke="midnightblue" points="433.2,-258.505 423.824,-253.571 428.077,-263.275 433.2,-258.505"/>
</g>
<!-- Node30 -->
<g id="node69" class="node"><title>Node30</title>
<polygon fill="white" stroke="#bfbfbf" points="475.983,-232.5 475.983,-253.5 565.983,-253.5 565.983,-232.5 475.983,-232.5"/>
<text text-anchor="middle" x="520.983" y="-240.5" font-family="Helvetica,sans-Serif" font-size="10.00">QGraphicsView</text>
</g>
<!-- Node7&#45;&gt;Node30 -->
<g id="edge78" class="edge"><title>Node7&#45;&gt;Node30</title>
<path fill="none" stroke="midnightblue" d="M477.704,-290.362C485.175,-282.186 495.668,-270.702 504.452,-261.091"/>
<polygon fill="midnightblue" stroke="midnightblue" points="507.161,-263.314 511.323,-253.571 501.994,-258.592 507.161,-263.314"/>
</g>
<!-- Node9&#45;&gt;Node2 -->
<g id="edge24" class="edge"><title>Node9&#45;&gt;Node2</title>
<path fill="none" stroke="midnightblue" d="M721.131,-232.412C734.781,-197.533 777.512,-88.0028 778.983,-80 780.75,-70.3832 784.741,-65.9026 778.983,-58 766.711,-41.158 714.872,-27.3418 676.434,-19.1468"/>
<polygon fill="midnightblue" stroke="midnightblue" points="676.99,-15.6878 666.488,-17.0864 675.57,-22.5423 676.99,-15.6878"/>
</g>
<!-- Node9&#45;&gt;Node6 -->
<g id="edge64" class="edge"><title>Node9&#45;&gt;Node6</title>
<path fill="none" stroke="midnightblue" d="M659.773,-235.64C597.01,-227.355 493.071,-213.016 394.038,-196.118"/>
<polygon fill="midnightblue" stroke="midnightblue" points="394.611,-192.665 384.163,-194.422 393.426,-199.564 394.611,-192.665"/>
</g>
<!-- Node9&#45;&gt;Node8 -->
<g id="edge56" class="edge"><title>Node9&#45;&gt;Node8</title>
<path fill="none" stroke="midnightblue" d="M659.616,-237.161C554.748,-226.44 338.513,-204.097 284.751,-195.541"/>
<polygon fill="midnightblue" stroke="midnightblue" points="285.222,-192.069 274.75,-193.678 283.94,-198.95 285.222,-192.069"/>
</g>
<!-- Node10 -->
<g id="node23" class="node"><title>Node10</title>
<polygon fill="white" stroke="#bfbfbf" points="783.483,-174.5 783.483,-195.5 812.483,-195.5 812.483,-174.5 783.483,-174.5"/>
<text text-anchor="middle" x="797.983" y="-182.5" font-family="Helvetica,sans-Serif" font-size="10.00">list</text>
</g>
<!-- Node9&#45;&gt;Node10 -->
<g id="edge26" class="edge"><title>Node9&#45;&gt;Node10</title>
<path fill="none" stroke="midnightblue" d="M731.839,-232.362C743.828,-223.777 760.91,-211.546 774.711,-201.664"/>
<polygon fill="midnightblue" stroke="midnightblue" points="777.127,-204.238 783.22,-195.571 773.052,-198.547 777.127,-204.238"/>
</g>
<!-- Node11 -->
<g id="node25" class="node"><title>Node11</title>
<polygon fill="white" stroke="#bfbfbf" points="571.483,-174.5 571.483,-195.5 652.483,-195.5 652.483,-174.5 571.483,-174.5"/>
<text text-anchor="middle" x="611.983" y="-182.5" font-family="Helvetica,sans-Serif" font-size="10.00">AsyncCaller.h</text>
</g>
<!-- Node9&#45;&gt;Node11 -->
<g id="edge28" class="edge"><title>Node9&#45;&gt;Node11</title>
<path fill="none" stroke="midnightblue" d="M697.724,-232.362C681.517,-223.409 658.13,-210.491 639.874,-200.406"/>
<polygon fill="midnightblue" stroke="midnightblue" points="641.565,-197.342 631.119,-195.571 638.18,-203.47 641.565,-197.342"/>
</g>
<!-- Node9&#45;&gt;Node12 -->
<g id="edge30" class="edge"><title>Node9&#45;&gt;Node12</title>
<path fill="none" stroke="midnightblue" d="M667.907,-232.497C620.674,-222.388 549.395,-207.132 500.435,-196.654"/>
<polygon fill="midnightblue" stroke="midnightblue" points="501.16,-193.23 490.649,-194.559 499.695,-200.075 501.16,-193.23"/>
</g>
<!-- Node22 -->
<g id="node51" class="node"><title>Node22</title>
<polygon fill="white" stroke="#bfbfbf" points="829.983,-174.5 829.983,-195.5 881.983,-195.5 881.983,-174.5 829.983,-174.5"/>
<text text-anchor="middle" x="855.983" y="-182.5" font-family="Helvetica,sans-Serif" font-size="10.00">Event.h</text>
</g>
<!-- Node9&#45;&gt;Node22 -->
<g id="edge58" class="edge"><title>Node9&#45;&gt;Node22</title>
<path fill="none" stroke="midnightblue" d="M742.155,-232.497C764.256,-223.275 796.621,-209.769 821.196,-199.515"/>
<polygon fill="midnightblue" stroke="midnightblue" points="822.647,-202.702 830.528,-195.621 819.952,-196.242 822.647,-202.702"/>
</g>
<!-- Node23 -->
<g id="node53" class="node"><title>Node23</title>
<polygon fill="white" stroke="#bfbfbf" points="1475.98,-116.5 1475.98,-137.5 1527.98,-137.5 1527.98,-116.5 1475.98,-116.5"/>
<text text-anchor="middle" x="1501.98" y="-124.5" font-family="Helvetica,sans-Serif" font-size="10.00">Timer.h</text>
</g>
<!-- Node9&#45;&gt;Node23 -->
<g id="edge60" class="edge"><title>Node9&#45;&gt;Node23</title>
<path fill="none" stroke="midnightblue" d="M722.349,-232.259C730.974,-216.305 749.566,-186.853 774.983,-174 836.928,-142.676 1327.25,-130.512 1465.7,-127.683"/>
<polygon fill="midnightblue" stroke="midnightblue" points="1465.86,-131.18 1475.79,-127.48 1465.72,-124.182 1465.86,-131.18"/>
</g>
<!-- Node24 -->
<g id="node55" class="node"><title>Node24</title>
<polygon fill="white" stroke="#bfbfbf" points="899.483,-174.5 899.483,-195.5 1010.48,-195.5 1010.48,-174.5 899.483,-174.5"/>
<text text-anchor="middle" x="954.983" y="-182.5" font-family="Helvetica,sans-Serif" font-size="10.00">WindowProperties.h</text>
</g>
<!-- Node9&#45;&gt;Node24 -->
<g id="edge62" class="edge"><title>Node9&#45;&gt;Node24</title>
<path fill="none" stroke="midnightblue" d="M760.083,-232.497C799.891,-222.795 859.148,-208.355 901.865,-197.945"/>
<polygon fill="midnightblue" stroke="midnightblue" points="902.915,-201.291 911.802,-195.523 901.258,-194.49 902.915,-201.291"/>
</g>
<!-- Node25 -->
<g id="node58" class="node"><title>Node25</title>
<polygon fill="white" stroke="#bfbfbf" points="1027.98,-174.5 1027.98,-195.5 1151.98,-195.5 1151.98,-174.5 1027.98,-174.5"/>
<text text-anchor="middle" x="1089.98" y="-182.5" font-family="Helvetica,sans-Serif" font-size="10.00">PIpcChannelListener.h</text>
</g>
<!-- Node9&#45;&gt;Node25 -->
<g id="edge66" class="edge"><title>Node9&#45;&gt;Node25</title>
<path fill="none" stroke="midnightblue" d="M774.039,-234.128C839.396,-223.965 946.601,-207.295 1017.73,-196.234"/>
<polygon fill="midnightblue" stroke="midnightblue" points="1018.61,-199.64 1027.96,-194.645 1017.54,-192.723 1018.61,-199.64"/>
</g>
<!-- Node26 -->
<g id="node60" class="node"><title>Node26</title>
<polygon fill="white" stroke="#bfbfbf" points="1169.98,-174.5 1169.98,-195.5 1243.98,-195.5 1243.98,-174.5 1169.98,-174.5"/>
<text text-anchor="middle" x="1206.98" y="-182.5" font-family="Helvetica,sans-Serif" font-size="10.00">PIpcBuffer.h</text>
</g>
<!-- Node9&#45;&gt;Node26 -->
<g id="edge68" class="edge"><title>Node9&#45;&gt;Node26</title>
<path fill="none" stroke="midnightblue" d="M774.078,-239.327C857.013,-233.47 1015.75,-220.293 1159.99,-195.993"/>
<polygon fill="midnightblue" stroke="midnightblue" points="1160.64,-199.432 1169.91,-194.3 1159.46,-192.532 1160.64,-199.432"/>
</g>
<!-- Node27 -->
<g id="node62" class="node"><title>Node27</title>
<polygon fill="white" stroke="#bfbfbf" points="507.483,-174.5 507.483,-195.5 554.483,-195.5 554.483,-174.5 507.483,-174.5"/>
<text text-anchor="middle" x="530.983" y="-182.5" font-family="Helvetica,sans-Serif" font-size="10.00">QRect</text>
</g>
<!-- Node9&#45;&gt;Node27 -->
<g id="edge70" class="edge"><title>Node9&#45;&gt;Node27</title>
<path fill="none" stroke="midnightblue" d="M681.087,-232.431C651.882,-223.746 609.38,-210.913 564.359,-196.386"/>
<polygon fill="midnightblue" stroke="midnightblue" points="565.309,-193.015 554.718,-193.262 563.151,-199.674 565.309,-193.015"/>
</g>
<!-- Node12&#45;&gt;Node13 -->
<g id="edge32" class="edge"><title>Node12&#45;&gt;Node13</title>
<path fill="none" stroke="midnightblue" d="M465.608,-174.362C482.124,-165.409 505.957,-152.491 524.561,-142.406"/>
<polygon fill="midnightblue" stroke="midnightblue" points="526.358,-145.413 533.482,-137.571 523.022,-139.259 526.358,-145.413"/>
</g>
<!-- Node17 -->
<g id="node39" class="node"><title>Node17</title>
<polygon fill="white" stroke="#bfbfbf" points="231.983,-58.5 231.983,-79.5 329.983,-79.5 329.983,-58.5 231.983,-58.5"/>
<text text-anchor="middle" x="280.983" y="-66.5" font-family="Helvetica,sans-Serif" font-size="10.00">palmimedefines.h</text>
</g>
<!-- Node12&#45;&gt;Node17 -->
<g id="edge54" class="edge"><title>Node12&#45;&gt;Node17</title>
<path fill="none" stroke="midnightblue" d="M446.036,-174.387C445.528,-159.395 442.37,-132.059 426.983,-116 414.617,-103.094 375.07,-90.7989 340.251,-82.0231"/>
<polygon fill="midnightblue" stroke="midnightblue" points="340.655,-78.5183 330.109,-79.53 338.984,-85.316 340.655,-78.5183"/>
</g>
<!-- Node20 -->
<g id="node45" class="node"><title>Node20</title>
<polygon fill="white" stroke="#bfbfbf" points="363.483,-116.5 363.483,-137.5 418.483,-137.5 418.483,-116.5 363.483,-116.5"/>
<text text-anchor="middle" x="390.983" y="-124.5" font-family="Helvetica,sans-Serif" font-size="10.00">QObject</text>
</g>
<!-- Node12&#45;&gt;Node20 -->
<g id="edge50" class="edge"><title>Node12&#45;&gt;Node20</title>
<path fill="none" stroke="midnightblue" d="M435.895,-174.362C428.142,-166.186 417.252,-154.702 408.138,-145.091"/>
<polygon fill="midnightblue" stroke="midnightblue" points="410.427,-142.419 401.007,-137.571 405.348,-147.235 410.427,-142.419"/>
</g>
<!-- Node21 -->
<g id="node47" class="node"><title>Node21</title>
<polygon fill="white" stroke="#bfbfbf" points="974.983,-116.5 974.983,-137.5 1052.98,-137.5 1052.98,-116.5 974.983,-116.5"/>
<text text-anchor="middle" x="1013.98" y="-124.5" font-family="Helvetica,sans-Serif" font-size="10.00">lunaservice.h</text>
</g>
<!-- Node12&#45;&gt;Node21 -->
<g id="edge52" class="edge"><title>Node12&#45;&gt;Node21</title>
<path fill="none" stroke="midnightblue" d="M490.738,-175.338C493.522,-174.853 496.287,-174.401 498.983,-174 668.927,-148.693 872.589,-134.957 964.584,-129.635"/>
<polygon fill="midnightblue" stroke="midnightblue" points="964.93,-133.121 974.715,-129.057 964.532,-126.133 964.93,-133.121"/>
</g>
<!-- Node14 -->
<g id="node31" class="node"><title>Node14</title>
<a xlink:href="ProcessBase_8h.htm" target="_top" xlink:title="ProcessBase.h">
<polygon fill="white" stroke="black" points="347.483,-58.5 347.483,-79.5 434.483,-79.5 434.483,-58.5 347.483,-58.5"/>
<text text-anchor="middle" x="390.983" y="-66.5" font-family="Helvetica,sans-Serif" font-size="10.00">ProcessBase.h</text>
</a>
</g>
<!-- Node13&#45;&gt;Node14 -->
<g id="edge34" class="edge"><title>Node13&#45;&gt;Node14</title>
<path fill="none" stroke="midnightblue" d="M523.646,-116.497C497.464,-107.123 458.923,-93.3242 430.12,-83.0122"/>
<polygon fill="midnightblue" stroke="midnightblue" points="430.969,-79.5987 420.375,-79.5231 428.61,-86.189 430.969,-79.5987"/>
</g>
<!-- Node15 -->
<g id="node35" class="node"><title>Node15</title>
<polygon fill="white" stroke="#bfbfbf" points="545.483,-58.5 545.483,-79.5 606.483,-79.5 606.483,-58.5 545.483,-58.5"/>
<text text-anchor="middle" x="575.983" y="-66.5" font-family="Helvetica,sans-Serif" font-size="10.00">QtWebKit</text>
</g>
<!-- Node13&#45;&gt;Node15 -->
<g id="edge40" class="edge"><title>Node13&#45;&gt;Node15</title>
<path fill="none" stroke="midnightblue" d="M557.201,-116.362C560.216,-108.758 564.366,-98.294 567.998,-89.1349"/>
<polygon fill="midnightblue" stroke="midnightblue" points="571.358,-90.1567 571.791,-79.5707 564.851,-87.5762 571.358,-90.1567"/>
</g>
<!-- Node16 -->
<g id="node37" class="node"><title>Node16</title>
<polygon fill="white" stroke="#bfbfbf" points="623.483,-58.5 623.483,-79.5 682.483,-79.5 682.483,-58.5 623.483,-58.5"/>
<text text-anchor="middle" x="652.983" y="-66.5" font-family="Helvetica,sans-Serif" font-size="10.00">QPointer</text>
</g>
<!-- Node13&#45;&gt;Node16 -->
<g id="edge42" class="edge"><title>Node13&#45;&gt;Node16</title>
<path fill="none" stroke="midnightblue" d="M571.324,-116.362C586.548,-107.532 608.424,-94.844 625.703,-84.8224"/>
<polygon fill="midnightblue" stroke="midnightblue" points="627.863,-87.6155 634.757,-79.5707 624.351,-81.5603 627.863,-87.6155"/>
</g>
<!-- Node13&#45;&gt;Node17 -->
<g id="edge44" class="edge"><title>Node13&#45;&gt;Node17</title>
<path fill="none" stroke="midnightblue" d="M503.726,-116.497C457.751,-106.693 389.077,-92.0496 340.15,-81.6165"/>
<polygon fill="midnightblue" stroke="midnightblue" points="340.842,-78.1856 330.332,-79.5231 339.382,-85.0317 340.842,-78.1856"/>
</g>
<!-- Node18 -->
<g id="node41" class="node"><title>Node18</title>
<polygon fill="white" stroke="#bfbfbf" points="699.483,-58.5 699.483,-79.5 770.483,-79.5 770.483,-58.5 699.483,-58.5"/>
<text text-anchor="middle" x="734.983" y="-66.5" font-family="Helvetica,sans-Serif" font-size="10.00">QWebPage</text>
</g>
<!-- Node13&#45;&gt;Node18 -->
<g id="edge46" class="edge"><title>Node13&#45;&gt;Node18</title>
<path fill="none" stroke="midnightblue" d="M585.942,-116.497C615.741,-107 659.792,-92.9619 692.28,-82.6087"/>
<polygon fill="midnightblue" stroke="midnightblue" points="693.497,-85.8942 701.962,-79.5231 691.371,-79.2247 693.497,-85.8942"/>
</g>
<!-- Node19 -->
<g id="node43" class="node"><title>Node19</title>
<polygon fill="white" stroke="#bfbfbf" points="451.983,-58.5 451.983,-79.5 527.983,-79.5 527.983,-58.5 451.983,-58.5"/>
<text text-anchor="middle" x="489.983" y="-66.5" font-family="Helvetica,sans-Serif" font-size="10.00">QWebFrame</text>
</g>
<!-- Node13&#45;&gt;Node19 -->
<g id="edge48" class="edge"><title>Node13&#45;&gt;Node19</title>
<path fill="none" stroke="midnightblue" d="M541.428,-116.362C532.369,-108.023 519.573,-96.2418 509.009,-86.5162"/>
<polygon fill="midnightblue" stroke="midnightblue" points="511.192,-83.7688 501.465,-79.5707 506.451,-88.9187 511.192,-83.7688"/>
</g>
<!-- Node14&#45;&gt;Node2 -->
<g id="edge36" class="edge"><title>Node14&#45;&gt;Node2</title>
<path fill="none" stroke="midnightblue" d="M434.527,-58.5638C478.335,-48.0644 545.51,-31.9645 589.349,-21.4576"/>
<polygon fill="midnightblue" stroke="midnightblue" points="590.238,-24.8437 599.147,-19.1094 588.607,-18.0365 590.238,-24.8437"/>
</g>
<!-- Node14&#45;&gt;Node5 -->
<g id="edge38" class="edge"><title>Node14&#45;&gt;Node5</title>
<path fill="none" stroke="midnightblue" d="M390.983,-58.3619C390.983,-50.9219 390.983,-40.7427 390.983,-31.7276"/>
<polygon fill="midnightblue" stroke="midnightblue" points="394.483,-31.5706 390.983,-21.5707 387.483,-31.5707 394.483,-31.5706"/>
</g>
<!-- Node32&#45;&gt;Node2 -->
<g id="edge90" class="edge"><title>Node32&#45;&gt;Node2</title>
<path fill="none" stroke="midnightblue" d="M1489.61,-242.357C1640.21,-240.122 2059.36,-230.809 2109.98,-196 2164.25,-158.683 2209.83,-105.28 2163.98,-58 2137.39,-30.5792 924.628,-14.5126 676.896,-11.5136"/>
<polygon fill="midnightblue" stroke="midnightblue" points="676.866,-8.0131 666.824,-11.3925 676.782,-15.0126 676.866,-8.0131"/>
</g>
<!-- Node32&#45;&gt;Node5 -->
<g id="edge98" class="edge"><title>Node32&#45;&gt;Node5</title>
<path fill="none" stroke="midnightblue" d="M1410.21,-232.353C1388.38,-223.171 1356.34,-209.325 1328.98,-196 1310.39,-186.946 1307.25,-181.514 1287.98,-174 970.604,-50.2244 552.861,-19.3597 427.844,-12.6679"/>
<polygon fill="midnightblue" stroke="midnightblue" points="427.836,-9.16291 417.669,-12.1427 427.475,-16.1536 427.836,-9.16291"/>
</g>
<!-- Node32&#45;&gt;Node6 -->
<g id="edge126" class="edge"><title>Node32&#45;&gt;Node6</title>
<path fill="none" stroke="midnightblue" d="M1382.42,-241.666C1200.62,-236.974 607.084,-220.249 394.26,-195.956"/>
<polygon fill="midnightblue" stroke="midnightblue" points="394.456,-192.455 384.114,-194.756 393.634,-199.406 394.456,-192.455"/>
</g>
<!-- Node32&#45;&gt;Node10 -->
<g id="edge94" class="edge"><title>Node32&#45;&gt;Node10</title>
<path fill="none" stroke="midnightblue" d="M1382.28,-241.431C1256.32,-237.354 943.953,-224.846 822.549,-195.557"/>
<polygon fill="midnightblue" stroke="midnightblue" points="823.327,-192.143 812.771,-193.047 821.586,-198.923 823.327,-192.143"/>
</g>
<!-- Node32&#45;&gt;Node21 -->
<g id="edge136" class="edge"><title>Node32&#45;&gt;Node21</title>
<path fill="none" stroke="midnightblue" d="M1399.76,-232.468C1371.17,-223.767 1330.48,-210.522 1295.98,-196 1276.2,-187.672 1273.27,-181.028 1252.98,-174 1189.38,-151.962 1112.47,-139.159 1063.39,-132.627"/>
<polygon fill="midnightblue" stroke="midnightblue" points="1063.72,-129.14 1053.36,-131.327 1062.82,-136.082 1063.72,-129.14"/>
</g>
<!-- Node32&#45;&gt;Node22 -->
<g id="edge108" class="edge"><title>Node32&#45;&gt;Node22</title>
<path fill="none" stroke="midnightblue" d="M1382.09,-239.855C1267.38,-232.926 1001.35,-215.537 892.254,-195.829"/>
<polygon fill="midnightblue" stroke="midnightblue" points="892.674,-192.346 882.196,-193.915 891.366,-199.223 892.674,-192.346"/>
</g>
<!-- Node32&#45;&gt;Node23 -->
<g id="edge124" class="edge"><title>Node32&#45;&gt;Node23</title>
<path fill="none" stroke="midnightblue" d="M1449.86,-232.49C1460.41,-223.801 1474.51,-210.561 1482.98,-196 1491.56,-181.256 1496.41,-162.48 1499.05,-148.238"/>
<polygon fill="midnightblue" stroke="midnightblue" points="1502.57,-148.385 1500.73,-137.952 1495.66,-147.257 1502.57,-148.385"/>
</g>
<!-- Node32&#45;&gt;Node24 -->
<g id="edge128" class="edge"><title>Node32&#45;&gt;Node24</title>
<path fill="none" stroke="midnightblue" d="M1382.21,-237.945C1304.6,-230.428 1156.45,-215.248 1020.95,-196.225"/>
<polygon fill="midnightblue" stroke="midnightblue" points="1021.19,-192.725 1010.8,-194.79 1020.21,-199.656 1021.19,-192.725"/>
</g>
<!-- Node32&#45;&gt;Node25 -->
<g id="edge142" class="edge"><title>Node32&#45;&gt;Node25</title>
<path fill="none" stroke="midnightblue" d="M1382.3,-234.001C1323.08,-224.074 1227.49,-208.051 1161.85,-197.047"/>
<polygon fill="midnightblue" stroke="midnightblue" points="1162.43,-193.595 1151.98,-195.393 1161.27,-200.498 1162.43,-193.595"/>
</g>
<!-- Node32&#45;&gt;Node26 -->
<g id="edge138" class="edge"><title>Node32&#45;&gt;Node26</title>
<path fill="none" stroke="midnightblue" d="M1394.51,-232.497C1354.98,-222.484 1295.52,-207.423 1254.19,-196.955"/>
<polygon fill="midnightblue" stroke="midnightblue" points="1254.91,-193.527 1244.35,-194.465 1253.19,-200.313 1254.91,-193.527"/>
</g>
<!-- Node33 -->
<g id="node79" class="node"><title>Node33</title>
<polygon fill="white" stroke="#bfbfbf" points="1890.48,-116.5 1890.48,-137.5 1927.48,-137.5 1927.48,-116.5 1890.48,-116.5"/>
<text text-anchor="middle" x="1908.98" y="-124.5" font-family="Helvetica,sans-Serif" font-size="10.00">map</text>
</g>
<!-- Node32&#45;&gt;Node33 -->
<g id="edge92" class="edge"><title>Node32&#45;&gt;Node33</title>
<path fill="none" stroke="midnightblue" d="M1489.88,-242.222C1617.81,-239.819 1931.48,-230.439 1962.98,-196 1978.61,-178.912 1956.55,-157.744 1936.1,-143.393"/>
<polygon fill="midnightblue" stroke="midnightblue" points="1937.82,-140.327 1927.55,-137.692 1933.93,-146.151 1937.82,-140.327"/>
</g>
<!-- Node34 -->
<g id="node82" class="node"><title>Node34</title>
<polygon fill="white" stroke="#bfbfbf" points="1337.48,-174.5 1337.48,-195.5 1380.48,-195.5 1380.48,-174.5 1337.48,-174.5"/>
<text text-anchor="middle" x="1358.98" y="-182.5" font-family="Helvetica,sans-Serif" font-size="10.00">string</text>
</g>
<!-- Node32&#45;&gt;Node34 -->
<g id="edge96" class="edge"><title>Node32&#45;&gt;Node34</title>
<path fill="none" stroke="midnightblue" d="M1421.86,-232.362C1410.46,-223.777 1394.22,-211.546 1381.11,-201.664"/>
<polygon fill="midnightblue" stroke="midnightblue" points="1383.11,-198.792 1373.02,-195.571 1378.9,-204.383 1383.11,-198.792"/>
</g>
<!-- Node35 -->
<g id="node85" class="node"><title>Node35</title>
<polygon fill="white" stroke="#bfbfbf" points="1397.48,-174.5 1397.48,-195.5 1474.48,-195.5 1474.48,-174.5 1397.48,-174.5"/>
<text text-anchor="middle" x="1435.98" y="-182.5" font-family="Helvetica,sans-Serif" font-size="10.00">QApplication</text>
</g>
<!-- Node32&#45;&gt;Node35 -->
<g id="edge100" class="edge"><title>Node32&#45;&gt;Node35</title>
<path fill="none" stroke="midnightblue" d="M1435.98,-232.362C1435.98,-224.922 1435.98,-214.743 1435.98,-205.728"/>
<polygon fill="midnightblue" stroke="midnightblue" points="1439.48,-205.571 1435.98,-195.571 1432.48,-205.571 1439.48,-205.571"/>
</g>
<!-- Node36 -->
<g id="node87" class="node"><title>Node36</title>
<a xlink:href="SyncTask_8h.htm" target="_top" xlink:title="SyncTask.h">
<polygon fill="white" stroke="black" points="2009.48,-174.5 2009.48,-195.5 2080.48,-195.5 2080.48,-174.5 2009.48,-174.5"/>
<text text-anchor="middle" x="2044.98" y="-182.5" font-family="Helvetica,sans-Serif" font-size="10.00">SyncTask.h</text>
</a>
</g>
<!-- Node32&#45;&gt;Node36 -->
<g id="edge102" class="edge"><title>Node32&#45;&gt;Node36</title>
<path fill="none" stroke="midnightblue" d="M1489.55,-240.95C1589.56,-236.581 1811.31,-224.342 1995.98,-196 1997.06,-195.835 1998.15,-195.659 1999.25,-195.475"/>
<polygon fill="midnightblue" stroke="midnightblue" points="2000.04,-198.888 2009.23,-193.62 1998.76,-192.006 2000.04,-198.888"/>
</g>
<!-- Node38 -->
<g id="node93" class="node"><title>Node38</title>
<a xlink:href="MemoryWatcher_8h.htm" target="_top" xlink:title="MemoryWatcher.h">
<polygon fill="white" stroke="black" points="1851.48,-174.5 1851.48,-195.5 1954.48,-195.5 1954.48,-174.5 1851.48,-174.5"/>
<text text-anchor="middle" x="1902.98" y="-182.5" font-family="Helvetica,sans-Serif" font-size="10.00">MemoryWatcher.h</text>
</a>
</g>
<!-- Node32&#45;&gt;Node38 -->
<g id="edge110" class="edge"><title>Node32&#45;&gt;Node38</title>
<path fill="none" stroke="midnightblue" d="M1489.74,-237.6C1566.95,-229.643 1713.64,-213.777 1837.98,-196 1839.06,-195.846 1840.15,-195.688 1841.24,-195.528"/>
<polygon fill="midnightblue" stroke="midnightblue" points="1841.86,-198.973 1851.22,-194.006 1840.81,-192.053 1841.86,-198.973"/>
</g>
<!-- Node40 -->
<g id="node99" class="node"><title>Node40</title>
<polygon fill="white" stroke="#bfbfbf" points="1694.98,-116.5 1694.98,-137.5 1766.98,-137.5 1766.98,-116.5 1694.98,-116.5"/>
<text text-anchor="middle" x="1730.98" y="-124.5" font-family="Helvetica,sans-Serif" font-size="10.00">SignalSlot.h</text>
</g>
<!-- Node32&#45;&gt;Node40 -->
<g id="edge122" class="edge"><title>Node32&#45;&gt;Node40</title>
<path fill="none" stroke="midnightblue" d="M1489.8,-240.018C1587.18,-234.069 1784.5,-219.263 1804.98,-196 1822.64,-175.954 1793.21,-155.376 1766.4,-141.971"/>
<polygon fill="midnightblue" stroke="midnightblue" points="1767.64,-138.686 1757.11,-137.542 1764.63,-145.005 1767.64,-138.686"/>
</g>
<!-- Node41 -->
<g id="node106" class="node"><title>Node41</title>
<a xlink:href="WebAppCache_8h.htm" target="_top" xlink:title="WebAppCache.h">
<polygon fill="white" stroke="black" points="2060.48,-58.5 2060.48,-79.5 2155.48,-79.5 2155.48,-58.5 2060.48,-58.5"/>
<text text-anchor="middle" x="2107.98" y="-66.5" font-family="Helvetica,sans-Serif" font-size="10.00">WebAppCache.h</text>
</a>
</g>
<!-- Node32&#45;&gt;Node41 -->
<g id="edge130" class="edge"><title>Node32&#45;&gt;Node41</title>
<path fill="none" stroke="midnightblue" d="M1489.54,-240.957C1641.7,-234.913 2067.09,-216.273 2088.98,-196 2118.01,-169.119 2115.92,-118.486 2111.91,-89.9427"/>
<polygon fill="midnightblue" stroke="midnightblue" points="2115.33,-89.1643 2110.28,-79.8509 2108.42,-90.2813 2115.33,-89.1643"/>
</g>
<!-- Node42 -->
<g id="node109" class="node"><title>Node42</title>
<polygon fill="white" stroke="#bfbfbf" points="1529.48,-174.5 1529.48,-195.5 1600.48,-195.5 1600.48,-174.5 1529.48,-174.5"/>
<text text-anchor="middle" x="1564.98" y="-182.5" font-family="Helvetica,sans-Serif" font-size="10.00">HostBase.h</text>
</g>
<!-- Node32&#45;&gt;Node42 -->
<g id="edge134" class="edge"><title>Node32&#45;&gt;Node42</title>
<path fill="none" stroke="midnightblue" d="M1459.34,-232.497C1479.67,-223.356 1509.36,-210.008 1532.09,-199.788"/>
<polygon fill="midnightblue" stroke="midnightblue" points="1533.67,-202.914 1541.36,-195.621 1530.8,-196.53 1533.67,-202.914"/>
</g>
<!-- Node43 -->
<g id="node113" class="node"><title>Node43</title>
<polygon fill="white" stroke="#bfbfbf" points="1617.48,-174.5 1617.48,-195.5 1690.48,-195.5 1690.48,-174.5 1617.48,-174.5"/>
<text text-anchor="middle" x="1653.98" y="-182.5" font-family="Helvetica,sans-Serif" font-size="10.00">PIpcClient.h</text>
</g>
<!-- Node32&#45;&gt;Node43 -->
<g id="edge140" class="edge"><title>Node32&#45;&gt;Node43</title>
<path fill="none" stroke="midnightblue" d="M1475.46,-232.497C1512.6,-222.617 1568.21,-207.821 1607.48,-197.373"/>
<polygon fill="midnightblue" stroke="midnightblue" points="1608.57,-200.703 1617.34,-194.75 1606.77,-193.938 1608.57,-200.703"/>
</g>
<!-- Node44 -->
<g id="node116" class="node"><title>Node44</title>
<polygon fill="white" stroke="#bfbfbf" points="1707.48,-174.5 1707.48,-195.5 1796.48,-195.5 1796.48,-174.5 1707.48,-174.5"/>
<text text-anchor="middle" x="1751.98" y="-182.5" font-family="Helvetica,sans-Serif" font-size="10.00">PIpcMessage.h</text>
</g>
<!-- Node32&#45;&gt;Node44 -->
<g id="edge144" class="edge"><title>Node32&#45;&gt;Node44</title>
<path fill="none" stroke="midnightblue" d="M1489.71,-233.849C1540.74,-225.056 1619.86,-211.158 1697.51,-196.251"/>
<polygon fill="midnightblue" stroke="midnightblue" points="1698.31,-199.662 1707.47,-194.333 1696.99,-192.788 1698.31,-199.662"/>
</g>
<!-- Node36&#45;&gt;Node2 -->
<g id="edge104" class="edge"><title>Node36&#45;&gt;Node2</title>
<path fill="none" stroke="midnightblue" d="M2045.42,-174.497C2045.44,-159.126 2042.97,-130.735 2025.98,-116 1871.98,17.5672 1774.04,-76.0031 1570.98,-58 1227.44,-27.5423 811.234,-15.3294 676.978,-12.0051"/>
<polygon fill="midnightblue" stroke="midnightblue" points="676.78,-8.4993 666.698,-11.7544 676.609,-15.4972 676.78,-8.4993"/>
</g>
<!-- Node37 -->
<g id="node90" class="node"><title>Node37</title>
<polygon fill="white" stroke="#bfbfbf" points="1944.98,-116.5 1944.98,-137.5 2016.98,-137.5 2016.98,-116.5 1944.98,-116.5"/>
<text text-anchor="middle" x="1980.98" y="-124.5" font-family="Helvetica,sans-Serif" font-size="10.00">TaskBase.h</text>
</g>
<!-- Node36&#45;&gt;Node37 -->
<g id="edge106" class="edge"><title>Node36&#45;&gt;Node37</title>
<path fill="none" stroke="midnightblue" d="M2033.24,-174.362C2024.04,-166.023 2011.04,-154.242 2000.31,-144.516"/>
<polygon fill="midnightblue" stroke="midnightblue" points="2002.41,-141.692 1992.65,-137.571 1997.71,-146.879 2002.41,-141.692"/>
</g>
<!-- Node38&#45;&gt;Node2 -->
<g id="edge112" class="edge"><title>Node38&#45;&gt;Node2</title>
<path fill="none" stroke="midnightblue" d="M1897.4,-174.403C1888.46,-158.639 1869.33,-129.43 1843.98,-116 1738.99,-60.3736 881.517,-21.358 676.768,-12.7774"/>
<polygon fill="midnightblue" stroke="midnightblue" points="676.825,-9.27679 666.688,-12.3575 676.533,-16.2707 676.825,-9.27679"/>
</g>
<!-- Node38&#45;&gt;Node23 -->
<g id="edge120" class="edge"><title>Node38&#45;&gt;Node23</title>
<path fill="none" stroke="midnightblue" d="M1851.38,-177.536C1769.09,-165.634 1610.13,-142.643 1538.53,-132.285"/>
<polygon fill="midnightblue" stroke="midnightblue" points="1538.61,-128.761 1528.21,-130.793 1537.61,-135.689 1538.61,-128.761"/>
</g>
<!-- Node38&#45;&gt;Node33 -->
<g id="edge116" class="edge"><title>Node38&#45;&gt;Node33</title>
<path fill="none" stroke="midnightblue" d="M1904.08,-174.362C1904.85,-166.922 1905.91,-156.743 1906.84,-147.728"/>
<polygon fill="midnightblue" stroke="midnightblue" points="1910.34,-147.878 1907.89,-137.571 1903.38,-147.157 1910.34,-147.878"/>
</g>
<!-- Node39 -->
<g id="node96" class="node"><title>Node39</title>
<polygon fill="white" stroke="#bfbfbf" points="1784.98,-116.5 1784.98,-137.5 1834.98,-137.5 1834.98,-116.5 1784.98,-116.5"/>
<text text-anchor="middle" x="1809.98" y="-124.5" font-family="Helvetica,sans-Serif" font-size="10.00">stdint.h</text>
</g>
<!-- Node38&#45;&gt;Node39 -->
<g id="edge114" class="edge"><title>Node38&#45;&gt;Node39</title>
<path fill="none" stroke="midnightblue" d="M1885.93,-174.362C1871.9,-165.614 1851.8,-153.079 1835.8,-143.101"/>
<polygon fill="midnightblue" stroke="midnightblue" points="1837.27,-139.893 1826.93,-137.571 1833.57,-145.832 1837.27,-139.893"/>
</g>
<!-- Node38&#45;&gt;Node40 -->
<g id="edge118" class="edge"><title>Node38&#45;&gt;Node40</title>
<path fill="none" stroke="midnightblue" d="M1871.83,-174.497C1843.79,-165.041 1802.4,-151.083 1771.74,-140.743"/>
<polygon fill="midnightblue" stroke="midnightblue" points="1772.78,-137.402 1762.19,-137.523 1770.55,-144.035 1772.78,-137.402"/>
</g>
<!-- Node41&#45;&gt;Node2 -->
<g id="edge132" class="edge"><title>Node41&#45;&gt;Node2</title>
<path fill="none" stroke="midnightblue" d="M2060.46,-59.7421C2055.92,-59.0649 2051.37,-58.466 2046.98,-58 1771.65,-28.7552 884.575,-14.5679 676.81,-11.5986"/>
<polygon fill="midnightblue" stroke="midnightblue" points="676.645,-8.09604 666.596,-11.4539 676.545,-15.0953 676.645,-8.09604"/>
</g>
</g>
</svg>
