<?xml version="1.0" encoding="UTF-8" standalone="no"?>
<!DOCTYPE svg PUBLIC "-//W3C//DTD SVG 1.1//EN"
 "http://www.w3.org/Graphics/SVG/1.1/DTD/svg11.dtd">
<!-- Generated by graphviz version 2.26.3 (20100126.1600)
 -->
<!-- Title: WebKitEventListener.cpp Pages: 1 -->
<svg width="530pt" height="204pt"
 viewBox="0.00 0.00 530.00 204.00" xmlns="http://www.w3.org/2000/svg" xmlns:xlink="http://www.w3.org/1999/xlink">
<g id="graph1" class="graph" transform="scale(1 1) rotate(0) translate(4 200)">
<title>WebKitEventListener.cpp</title>
<polygon fill="white" stroke="white" points="-4,5 -4,-200 527,-200 527,5 -4,5"/>
<!-- Node1 -->
<g id="node1" class="node"><title>Node1</title>
<polygon fill="#bfbfbf" stroke="black" points="98,-174.5 98,-195.5 232,-195.5 232,-174.5 98,-174.5"/>
<text text-anchor="middle" x="165" y="-182.5" font-family="Helvetica,sans-Serif" font-size="10.00">WebKitEventListener.cpp</text>
</g>
<!-- Node2 -->
<g id="node3" class="node"><title>Node2</title>
<polygon fill="white" stroke="#bfbfbf" points="-0.5,-0.5 -0.5,-21.5 66.5,-21.5 66.5,-0.5 -0.5,-0.5"/>
<text text-anchor="middle" x="33" y="-8.5" font-family="Helvetica,sans-Serif" font-size="10.00">Common.h</text>
</g>
<!-- Node1&#45;&gt;Node2 -->
<g id="edge2" class="edge"><title>Node1&#45;&gt;Node2</title>
<path fill="none" stroke="midnightblue" d="M109.263,-174.442C87.8942,-167.583 65.2461,-156.346 51,-138 26.9914,-107.083 27.4669,-58.7455 30.1223,-31.4881"/>
<polygon fill="midnightblue" stroke="midnightblue" points="33.6025,-31.8613 31.2857,-21.5228 26.6497,-31.0495 33.6025,-31.8613"/>
</g>
<!-- Node3 -->
<g id="node5" class="node"><title>Node3</title>
<a xlink:href="WebKitEventListener_8h.htm" target="_top" xlink:title="WebKitEventListener.h">
<polygon fill="white" stroke="black" points="59.5,-116.5 59.5,-137.5 182.5,-137.5 182.5,-116.5 59.5,-116.5"/>
<text text-anchor="middle" x="121" y="-124.5" font-family="Helvetica,sans-Serif" font-size="10.00">WebKitEventListener.h</text>
</a>
</g>
<!-- Node1&#45;&gt;Node3 -->
<g id="edge4" class="edge"><title>Node1&#45;&gt;Node3</title>
<path fill="none" stroke="midnightblue" d="M156.93,-174.362C150.851,-166.35 142.363,-155.161 135.163,-145.67"/>
<polygon fill="midnightblue" stroke="midnightblue" points="137.851,-143.422 129.019,-137.571 132.275,-147.653 137.851,-143.422"/>
</g>
<!-- Node4 -->
<g id="node8" class="node"><title>Node4</title>
<a xlink:href="BackupManager_8h.htm" target="_top" xlink:title="BackupManager.h">
<polygon fill="white" stroke="black" points="158,-58.5 158,-79.5 260,-79.5 260,-58.5 158,-58.5"/>
<text text-anchor="middle" x="209" y="-66.5" font-family="Helvetica,sans-Serif" font-size="10.00">BackupManager.h</text>
</a>
</g>
<!-- Node1&#45;&gt;Node4 -->
<g id="edge26" class="edge"><title>Node1&#45;&gt;Node4</title>
<path fill="none" stroke="midnightblue" d="M172.011,-174.179C177.775,-164.892 185.809,-150.989 191,-138 197.308,-122.217 202.028,-103.516 205.048,-89.5675"/>
<polygon fill="midnightblue" stroke="midnightblue" points="208.523,-90.0455 207.104,-79.5461 201.665,-88.6388 208.523,-90.0455"/>
</g>
<!-- Node12 -->
<g id="node26" class="node"><title>Node12</title>
<polygon fill="white" stroke="#bfbfbf" points="237.5,-116.5 237.5,-137.5 300.5,-137.5 300.5,-116.5 237.5,-116.5"/>
<text text-anchor="middle" x="269" y="-124.5" font-family="Helvetica,sans-Serif" font-size="10.00">Logging.h</text>
</g>
<!-- Node1&#45;&gt;Node12 -->
<g id="edge28" class="edge"><title>Node1&#45;&gt;Node12</title>
<path fill="none" stroke="midnightblue" d="M184.075,-174.362C200.055,-165.45 223.081,-152.609 241.127,-142.545"/>
<polygon fill="midnightblue" stroke="midnightblue" points="243.017,-145.498 250.046,-137.571 239.607,-139.385 243.017,-145.498"/>
</g>
<!-- Node3&#45;&gt;Node2 -->
<g id="edge6" class="edge"><title>Node3&#45;&gt;Node2</title>
<path fill="none" stroke="midnightblue" d="M112.879,-116.295C97.9481,-96.6135 65.9624,-54.4504 47.3127,-29.8668"/>
<polygon fill="midnightblue" stroke="midnightblue" points="49.9338,-27.5308 41.1015,-21.6792 44.3569,-31.7615 49.9338,-27.5308"/>
</g>
<!-- Node3&#45;&gt;Node4 -->
<g id="edge8" class="edge"><title>Node3&#45;&gt;Node4</title>
<path fill="none" stroke="midnightblue" d="M137.141,-116.362C150.414,-107.614 169.432,-95.0786 184.57,-85.1015"/>
<polygon fill="midnightblue" stroke="midnightblue" points="186.538,-87.9962 192.962,-79.5707 182.686,-82.1515 186.538,-87.9962"/>
</g>
<!-- Node4&#45;&gt;Node2 -->
<g id="edge10" class="edge"><title>Node4&#45;&gt;Node2</title>
<path fill="none" stroke="midnightblue" d="M177.128,-58.4966C148.435,-49.0411 106.079,-35.0829 74.7023,-24.7428"/>
<polygon fill="midnightblue" stroke="midnightblue" points="75.5251,-21.3289 64.932,-21.5231 73.3341,-27.9772 75.5251,-21.3289"/>
</g>
<!-- Node5 -->
<g id="node11" class="node"><title>Node5</title>
<polygon fill="white" stroke="#bfbfbf" points="83.5,-0.5 83.5,-21.5 126.5,-21.5 126.5,-0.5 83.5,-0.5"/>
<text text-anchor="middle" x="105" y="-8.5" font-family="Helvetica,sans-Serif" font-size="10.00">string</text>
</g>
<!-- Node4&#45;&gt;Node5 -->
<g id="edge12" class="edge"><title>Node4&#45;&gt;Node5</title>
<path fill="none" stroke="midnightblue" d="M189.925,-58.3619C173.945,-49.4502 150.919,-36.6087 132.873,-26.5447"/>
<polygon fill="midnightblue" stroke="midnightblue" points="134.393,-23.3846 123.954,-21.5707 130.983,-29.4982 134.393,-23.3846"/>
</g>
<!-- Node6 -->
<g id="node13" class="node"><title>Node6</title>
<polygon fill="white" stroke="#bfbfbf" points="143.5,-0.5 143.5,-21.5 172.5,-21.5 172.5,-0.5 143.5,-0.5"/>
<text text-anchor="middle" x="158" y="-8.5" font-family="Helvetica,sans-Serif" font-size="10.00">list</text>
</g>
<!-- Node4&#45;&gt;Node6 -->
<g id="edge14" class="edge"><title>Node4&#45;&gt;Node6</title>
<path fill="none" stroke="midnightblue" d="M199.646,-58.3619C192.457,-50.1861 182.359,-38.7025 173.907,-29.0907"/>
<polygon fill="midnightblue" stroke="midnightblue" points="176.527,-26.7692 167.295,-21.5707 171.27,-31.3916 176.527,-26.7692"/>
</g>
<!-- Node7 -->
<g id="node15" class="node"><title>Node7</title>
<polygon fill="white" stroke="#bfbfbf" points="189.5,-0.5 189.5,-21.5 226.5,-21.5 226.5,-0.5 189.5,-0.5"/>
<text text-anchor="middle" x="208" y="-8.5" font-family="Helvetica,sans-Serif" font-size="10.00">map</text>
</g>
<!-- Node4&#45;&gt;Node7 -->
<g id="edge16" class="edge"><title>Node4&#45;&gt;Node7</title>
<path fill="none" stroke="midnightblue" d="M208.817,-58.3619C208.688,-50.9219 208.513,-40.7427 208.357,-31.7276"/>
<polygon fill="midnightblue" stroke="midnightblue" points="211.854,-31.5088 208.182,-21.5707 204.855,-31.6295 211.854,-31.5088"/>
</g>
<!-- Node8 -->
<g id="node17" class="node"><title>Node8</title>
<polygon fill="white" stroke="#bfbfbf" points="244,-0.5 244,-21.5 322,-21.5 322,-0.5 244,-0.5"/>
<text text-anchor="middle" x="283" y="-8.5" font-family="Helvetica,sans-Serif" font-size="10.00">lunaservice.h</text>
</g>
<!-- Node4&#45;&gt;Node8 -->
<g id="edge18" class="edge"><title>Node4&#45;&gt;Node8</title>
<path fill="none" stroke="midnightblue" d="M222.573,-58.3619C233.421,-49.859 248.834,-37.7785 261.379,-27.9466"/>
<polygon fill="midnightblue" stroke="midnightblue" points="263.802,-30.4942 269.513,-21.5707 259.484,-24.9848 263.802,-30.4942"/>
</g>
<!-- Node9 -->
<g id="node19" class="node"><title>Node9</title>
<polygon fill="white" stroke="#bfbfbf" points="339.5,-0.5 339.5,-21.5 394.5,-21.5 394.5,-0.5 339.5,-0.5"/>
<text text-anchor="middle" x="367" y="-8.5" font-family="Helvetica,sans-Serif" font-size="10.00">QObject</text>
</g>
<!-- Node4&#45;&gt;Node9 -->
<g id="edge20" class="edge"><title>Node4&#45;&gt;Node9</title>
<path fill="none" stroke="midnightblue" d="M237.613,-58.4966C263.466,-49.0061 301.676,-34.9797 329.875,-24.6283"/>
<polygon fill="midnightblue" stroke="midnightblue" points="331.213,-27.8654 339.395,-21.1337 328.801,-21.2941 331.213,-27.8654"/>
</g>
<!-- Node10 -->
<g id="node21" class="node"><title>Node10</title>
<polygon fill="white" stroke="#bfbfbf" points="411.5,-0.5 411.5,-21.5 452.5,-21.5 452.5,-0.5 411.5,-0.5"/>
<text text-anchor="middle" x="432" y="-8.5" font-family="Helvetica,sans-Serif" font-size="10.00">QList</text>
</g>
<!-- Node4&#45;&gt;Node10 -->
<g id="edge22" class="edge"><title>Node4&#45;&gt;Node10</title>
<path fill="none" stroke="midnightblue" d="M260.123,-58.4439C297.21,-50.3727 348.697,-38.3199 401.356,-22.286"/>
<polygon fill="midnightblue" stroke="midnightblue" points="402.678,-25.5411 411.199,-19.2458 400.612,-18.8529 402.678,-25.5411"/>
</g>
<!-- Node11 -->
<g id="node23" class="node"><title>Node11</title>
<polygon fill="white" stroke="#bfbfbf" points="469.5,-0.5 469.5,-21.5 522.5,-21.5 522.5,-0.5 469.5,-0.5"/>
<text text-anchor="middle" x="496" y="-8.5" font-family="Helvetica,sans-Serif" font-size="10.00">QString</text>
</g>
<!-- Node4&#45;&gt;Node11 -->
<g id="edge24" class="edge"><title>Node4&#45;&gt;Node11</title>
<path fill="none" stroke="midnightblue" d="M260.067,-61.3231C309.053,-53.546 385.231,-40.3736 459.37,-22.2171"/>
<polygon fill="midnightblue" stroke="midnightblue" points="460.479,-25.548 469.341,-19.7414 458.792,-18.7543 460.479,-25.548"/>
</g>
</g>
</svg>
