<?xml version="1.0" encoding="UTF-8" standalone="no"?>
<!DOCTYPE svg PUBLIC "-//W3C//DTD SVG 1.1//EN"
 "http://www.w3.org/Graphics/SVG/1.1/DTD/svg11.dtd">
<!-- Generated by graphviz version 2.26.3 (20100126.1600)
 -->
<!-- Title: WebKitEventListener.h Pages: 1 -->
<svg width="530pt" height="146pt"
 viewBox="0.00 0.00 530.00 146.00" xmlns="http://www.w3.org/2000/svg" xmlns:xlink="http://www.w3.org/1999/xlink">
<g id="graph1" class="graph" transform="scale(1 1) rotate(0) translate(4 142)">
<title>WebKitEventListener.h</title>
<polygon fill="white" stroke="white" points="-4,5 -4,-142 527,-142 527,5 -4,5"/>
<!-- Node1 -->
<g id="node1" class="node"><title>Node1</title>
<polygon fill="#bfbfbf" stroke="black" points="102.5,-116.5 102.5,-137.5 225.5,-137.5 225.5,-116.5 102.5,-116.5"/>
<text text-anchor="middle" x="164" y="-124.5" font-family="Helvetica,sans-Serif" font-size="10.00">WebKitEventListener.h</text>
</g>
<!-- Node2 -->
<g id="node3" class="node"><title>Node2</title>
<polygon fill="white" stroke="#bfbfbf" points="-0.5,-0.5 -0.5,-21.5 66.5,-21.5 66.5,-0.5 -0.5,-0.5"/>
<text text-anchor="middle" x="33" y="-8.5" font-family="Helvetica,sans-Serif" font-size="10.00">Common.h</text>
</g>
<!-- Node1&#45;&gt;Node2 -->
<g id="edge2" class="edge"><title>Node1&#45;&gt;Node2</title>
<path fill="none" stroke="midnightblue" d="M151.911,-116.295C129.294,-96.2682 80.3905,-52.9641 52.8638,-28.5893"/>
<polygon fill="midnightblue" stroke="midnightblue" points="54.8672,-25.6883 45.0601,-21.6792 50.2265,-30.929 54.8672,-25.6883"/>
</g>
<!-- Node3 -->
<g id="node5" class="node"><title>Node3</title>
<a xlink:href="BackupManager_8h.htm" target="_top" xlink:title="BackupManager.h">
<polygon fill="white" stroke="black" points="157,-58.5 157,-79.5 259,-79.5 259,-58.5 157,-58.5"/>
<text text-anchor="middle" x="208" y="-66.5" font-family="Helvetica,sans-Serif" font-size="10.00">BackupManager.h</text>
</a>
</g>
<!-- Node1&#45;&gt;Node3 -->
<g id="edge4" class="edge"><title>Node1&#45;&gt;Node3</title>
<path fill="none" stroke="midnightblue" d="M172.07,-116.362C178.149,-108.35 186.637,-97.1605 193.837,-87.6696"/>
<polygon fill="midnightblue" stroke="midnightblue" points="196.725,-89.653 199.981,-79.5707 191.149,-85.4222 196.725,-89.653"/>
</g>
<!-- Node3&#45;&gt;Node2 -->
<g id="edge6" class="edge"><title>Node3&#45;&gt;Node2</title>
<path fill="none" stroke="midnightblue" d="M176.309,-58.4966C147.779,-49.0411 105.664,-35.0829 74.4653,-24.7428"/>
<polygon fill="midnightblue" stroke="midnightblue" points="75.344,-21.3468 64.7506,-21.5231 73.1417,-27.9914 75.344,-21.3468"/>
</g>
<!-- Node4 -->
<g id="node8" class="node"><title>Node4</title>
<polygon fill="white" stroke="#bfbfbf" points="83.5,-0.5 83.5,-21.5 126.5,-21.5 126.5,-0.5 83.5,-0.5"/>
<text text-anchor="middle" x="105" y="-8.5" font-family="Helvetica,sans-Serif" font-size="10.00">string</text>
</g>
<!-- Node3&#45;&gt;Node4 -->
<g id="edge8" class="edge"><title>Node3&#45;&gt;Node4</title>
<path fill="none" stroke="midnightblue" d="M189.108,-58.3619C173.282,-49.4502 150.477,-36.6087 132.605,-26.5447"/>
<polygon fill="midnightblue" stroke="midnightblue" points="134.203,-23.4276 123.772,-21.5707 130.768,-29.5271 134.203,-23.4276"/>
</g>
<!-- Node5 -->
<g id="node10" class="node"><title>Node5</title>
<polygon fill="white" stroke="#bfbfbf" points="143.5,-0.5 143.5,-21.5 172.5,-21.5 172.5,-0.5 143.5,-0.5"/>
<text text-anchor="middle" x="158" y="-8.5" font-family="Helvetica,sans-Serif" font-size="10.00">list</text>
</g>
<!-- Node3&#45;&gt;Node5 -->
<g id="edge10" class="edge"><title>Node3&#45;&gt;Node5</title>
<path fill="none" stroke="midnightblue" d="M198.829,-58.3619C191.852,-50.2678 182.079,-38.9318 173.844,-29.3796"/>
<polygon fill="midnightblue" stroke="midnightblue" points="176.293,-26.8595 167.113,-21.5707 170.991,-31.4301 176.293,-26.8595"/>
</g>
<!-- Node6 -->
<g id="node12" class="node"><title>Node6</title>
<polygon fill="white" stroke="#bfbfbf" points="189.5,-0.5 189.5,-21.5 226.5,-21.5 226.5,-0.5 189.5,-0.5"/>
<text text-anchor="middle" x="208" y="-8.5" font-family="Helvetica,sans-Serif" font-size="10.00">map</text>
</g>
<!-- Node3&#45;&gt;Node6 -->
<g id="edge12" class="edge"><title>Node3&#45;&gt;Node6</title>
<path fill="none" stroke="midnightblue" d="M208,-58.3619C208,-50.9219 208,-40.7427 208,-31.7276"/>
<polygon fill="midnightblue" stroke="midnightblue" points="211.5,-31.5706 208,-21.5707 204.5,-31.5707 211.5,-31.5706"/>
</g>
<!-- Node7 -->
<g id="node14" class="node"><title>Node7</title>
<polygon fill="white" stroke="#bfbfbf" points="244,-0.5 244,-21.5 322,-21.5 322,-0.5 244,-0.5"/>
<text text-anchor="middle" x="283" y="-8.5" font-family="Helvetica,sans-Serif" font-size="10.00">lunaservice.h</text>
</g>
<!-- Node3&#45;&gt;Node7 -->
<g id="edge14" class="edge"><title>Node3&#45;&gt;Node7</title>
<path fill="none" stroke="midnightblue" d="M221.756,-58.3619C232.751,-49.859 248.373,-37.7785 261.086,-27.9466"/>
<polygon fill="midnightblue" stroke="midnightblue" points="263.562,-30.4569 269.331,-21.5707 259.279,-24.9195 263.562,-30.4569"/>
</g>
<!-- Node8 -->
<g id="node16" class="node"><title>Node8</title>
<polygon fill="white" stroke="#bfbfbf" points="339.5,-0.5 339.5,-21.5 394.5,-21.5 394.5,-0.5 339.5,-0.5"/>
<text text-anchor="middle" x="367" y="-8.5" font-family="Helvetica,sans-Serif" font-size="10.00">QObject</text>
</g>
<!-- Node3&#45;&gt;Node8 -->
<g id="edge16" class="edge"><title>Node3&#45;&gt;Node8</title>
<path fill="none" stroke="midnightblue" d="M236.794,-58.4966C262.891,-48.9769 301.499,-34.8933 329.901,-24.5329"/>
<polygon fill="midnightblue" stroke="midnightblue" points="331.289,-27.7522 339.484,-21.0371 328.89,-21.176 331.289,-27.7522"/>
</g>
<!-- Node9 -->
<g id="node18" class="node"><title>Node9</title>
<polygon fill="white" stroke="#bfbfbf" points="411.5,-0.5 411.5,-21.5 452.5,-21.5 452.5,-0.5 411.5,-0.5"/>
<text text-anchor="middle" x="432" y="-8.5" font-family="Helvetica,sans-Serif" font-size="10.00">QList</text>
</g>
<!-- Node3&#45;&gt;Node9 -->
<g id="edge18" class="edge"><title>Node3&#45;&gt;Node9</title>
<path fill="none" stroke="midnightblue" d="M259.39,-58.4688C296.747,-50.3934 348.637,-38.3131 401.643,-22.1956"/>
<polygon fill="midnightblue" stroke="midnightblue" points="402.675,-25.5401 411.2,-19.2488 400.613,-18.8508 402.675,-25.5401"/>
</g>
<!-- Node10 -->
<g id="node20" class="node"><title>Node10</title>
<polygon fill="white" stroke="#bfbfbf" points="469.5,-0.5 469.5,-21.5 522.5,-21.5 522.5,-0.5 469.5,-0.5"/>
<text text-anchor="middle" x="496" y="-8.5" font-family="Helvetica,sans-Serif" font-size="10.00">QString</text>
</g>
<!-- Node3&#45;&gt;Node10 -->
<g id="edge20" class="edge"><title>Node3&#45;&gt;Node10</title>
<path fill="none" stroke="midnightblue" d="M259.271,-61.3407C308.452,-53.5765 384.933,-40.414 459.335,-22.2238"/>
<polygon fill="midnightblue" stroke="midnightblue" points="460.477,-25.5467 469.341,-19.7434 458.793,-18.7523 460.477,-25.5467"/>
</g>
</g>
</svg>
