<?xml version="1.0" encoding="UTF-8" standalone="no"?>
<!DOCTYPE svg PUBLIC "-//W3C//DTD SVG 1.1//EN"
 "http://www.w3.org/Graphics/SVG/1.1/DTD/svg11.dtd">
<!-- Generated by graphviz version 2.26.3 (20100126.1600)
 -->
<!-- Title: WebKitKeyMap.h Pages: 1 -->
<svg width="272pt" height="146pt"
 viewBox="0.00 0.00 272.00 146.00" xmlns="http://www.w3.org/2000/svg" xmlns:xlink="http://www.w3.org/1999/xlink">
<g id="graph1" class="graph" transform="scale(1 1) rotate(0) translate(4 142)">
<title>WebKitKeyMap.h</title>
<polygon fill="white" stroke="white" points="-4,5 -4,-142 269,-142 269,5 -4,5"/>
<!-- Node1 -->
<g id="node1" class="node"><title>Node1</title>
<polygon fill="#bfbfbf" stroke="black" points="72.5,-116.5 72.5,-137.5 169.5,-137.5 169.5,-116.5 72.5,-116.5"/>
<text text-anchor="middle" x="121" y="-124.5" font-family="Helvetica,sans-Serif" font-size="10.00">WebKitKeyMap.h</text>
</g>
<!-- Node2 -->
<g id="node3" class="node"><title>Node2</title>
<polygon fill="white" stroke="#bfbfbf" points="-0.5,-0.5 -0.5,-21.5 66.5,-21.5 66.5,-0.5 -0.5,-0.5"/>
<text text-anchor="middle" x="33" y="-8.5" font-family="Helvetica,sans-Serif" font-size="10.00">Common.h</text>
</g>
<!-- Node1&#45;&gt;Node2 -->
<g id="edge2" class="edge"><title>Node1&#45;&gt;Node2</title>
<path fill="none" stroke="midnightblue" d="M95.6893,-116.495C79.9383,-108.683 60.5472,-96.5158 49,-80 39.1177,-65.8655 35.2612,-46.5085 33.7941,-31.8936"/>
<polygon fill="midnightblue" stroke="midnightblue" points="37.2775,-31.5338 33.0777,-21.8069 30.295,-32.0298 37.2775,-31.5338"/>
</g>
<!-- Node3 -->
<g id="node5" class="node"><title>Node3</title>
<polygon fill="white" stroke="#bfbfbf" points="57.5,-58.5 57.5,-79.5 94.5,-79.5 94.5,-58.5 57.5,-58.5"/>
<text text-anchor="middle" x="76" y="-66.5" font-family="Helvetica,sans-Serif" font-size="10.00">map</text>
</g>
<!-- Node1&#45;&gt;Node3 -->
<g id="edge4" class="edge"><title>Node1&#45;&gt;Node3</title>
<path fill="none" stroke="midnightblue" d="M112.746,-116.362C106.53,-108.35 97.8487,-97.1605 90.485,-87.6696"/>
<polygon fill="midnightblue" stroke="midnightblue" points="93.0967,-85.326 84.2014,-79.5707 87.5661,-89.617 93.0967,-85.326"/>
</g>
<!-- Node4 -->
<g id="node7" class="node"><title>Node4</title>
<polygon fill="white" stroke="#bfbfbf" points="235.5,-0.5 235.5,-21.5 264.5,-21.5 264.5,-0.5 235.5,-0.5"/>
<text text-anchor="middle" x="250" y="-8.5" font-family="Helvetica,sans-Serif" font-size="10.00">Qt</text>
</g>
<!-- Node1&#45;&gt;Node4 -->
<g id="edge6" class="edge"><title>Node1&#45;&gt;Node4</title>
<path fill="none" stroke="midnightblue" d="M169.495,-116.485C191.083,-109.496 215.154,-98.1452 231,-80 242.593,-66.7252 247.172,-46.9778 248.951,-32.0058"/>
<polygon fill="midnightblue" stroke="midnightblue" points="252.469,-31.9359 249.835,-21.6739 245.495,-31.339 252.469,-31.9359"/>
</g>
<!-- Node5 -->
<g id="node9" class="node"><title>Node5</title>
<a xlink:href="KeyboardMapping_8h.htm" target="_top" xlink:title="KeyboardMapping.h">
<polygon fill="white" stroke="black" points="111.5,-58.5 111.5,-79.5 222.5,-79.5 222.5,-58.5 111.5,-58.5"/>
<text text-anchor="middle" x="167" y="-66.5" font-family="Helvetica,sans-Serif" font-size="10.00">KeyboardMapping.h</text>
</a>
</g>
<!-- Node1&#45;&gt;Node5 -->
<g id="edge8" class="edge"><title>Node1&#45;&gt;Node5</title>
<path fill="none" stroke="midnightblue" d="M129.437,-116.362C135.792,-108.35 144.666,-97.1605 152.193,-87.6696"/>
<polygon fill="midnightblue" stroke="midnightblue" points="155.145,-89.5805 158.616,-79.5707 149.66,-85.2308 155.145,-89.5805"/>
</g>
<!-- Node5&#45;&gt;Node2 -->
<g id="edge10" class="edge"><title>Node5&#45;&gt;Node2</title>
<path fill="none" stroke="midnightblue" d="M142.734,-58.4966C121.522,-49.3154 90.5019,-35.8889 66.8502,-25.6516"/>
<polygon fill="midnightblue" stroke="midnightblue" points="68.1062,-22.3815 57.5387,-21.6212 65.3256,-28.8055 68.1062,-22.3815"/>
</g>
<!-- Node5&#45;&gt;Node4 -->
<g id="edge12" class="edge"><title>Node5&#45;&gt;Node4</title>
<path fill="none" stroke="midnightblue" d="M182.223,-58.3619C194.78,-49.5872 212.79,-37.0024 227.088,-27.0106"/>
<polygon fill="midnightblue" stroke="midnightblue" points="229.238,-29.7786 235.43,-21.1817 225.228,-24.0408 229.238,-29.7786"/>
</g>
<!-- Node6 -->
<g id="node13" class="node"><title>Node6</title>
<polygon fill="white" stroke="#bfbfbf" points="87.5,-0.5 87.5,-21.5 218.5,-21.5 218.5,-0.5 87.5,-0.5"/>
<text text-anchor="middle" x="153" y="-8.5" font-family="Helvetica,sans-Serif" font-size="10.00">SysMgrDeviceKeydefs.h</text>
</g>
<!-- Node5&#45;&gt;Node6 -->
<g id="edge14" class="edge"><title>Node5&#45;&gt;Node6</title>
<path fill="none" stroke="midnightblue" d="M164.432,-58.3619C162.617,-50.8401 160.125,-40.5187 157.932,-31.4308"/>
<polygon fill="midnightblue" stroke="midnightblue" points="161.3,-30.4702 155.552,-21.5707 154.496,-32.1127 161.3,-30.4702"/>
</g>
</g>
</svg>
