<?xml version="1.0" encoding="UTF-8" standalone="no"?>
<!DOCTYPE svg PUBLIC "-//W3C//DTD SVG 1.1//EN"
 "http://www.w3.org/Graphics/SVG/1.1/DTD/svg11.dtd">
<!-- Generated by graphviz version 2.26.3 (20100126.1600)
 -->
<!-- Title: WindowedWebApp.h Pages: 1 -->
<svg width="1185pt" height="262pt"
 viewBox="0.00 0.00 1185.00 262.00" xmlns="http://www.w3.org/2000/svg" xmlns:xlink="http://www.w3.org/1999/xlink">
<g id="graph1" class="graph" transform="scale(1 1) rotate(0) translate(4 258)">
<title>WindowedWebApp.h</title>
<polygon fill="white" stroke="white" points="-4,5 -4,-258 1182,-258 1182,5 -4,5"/>
<!-- Node1 -->
<g id="node1" class="node"><title>Node1</title>
<polygon fill="#bfbfbf" stroke="black" points="523,-232.5 523,-253.5 637,-253.5 637,-232.5 523,-232.5"/>
<text text-anchor="middle" x="580" y="-240.5" font-family="Helvetica,sans-Serif" font-size="10.00">WindowedWebApp.h</text>
</g>
<!-- Node2 -->
<g id="node3" class="node"><title>Node2</title>
<polygon fill="white" stroke="#bfbfbf" points="-0.5,-0.5 -0.5,-21.5 66.5,-21.5 66.5,-0.5 -0.5,-0.5"/>
<text text-anchor="middle" x="33" y="-8.5" font-family="Helvetica,sans-Serif" font-size="10.00">Common.h</text>
</g>
<!-- Node1&#45;&gt;Node2 -->
<g id="edge2" class="edge"><title>Node1&#45;&gt;Node2</title>
<path fill="none" stroke="midnightblue" d="M522.738,-239.678C431.349,-233.749 257.01,-219.696 200,-196 122.826,-163.923 98.3142,-149.568 52,-80 42.343,-65.4944 37.5645,-46.1729 35.2176,-31.666"/>
<polygon fill="midnightblue" stroke="midnightblue" points="38.6739,-31.1067 33.8564,-21.6705 31.7379,-32.0513 38.6739,-31.1067"/>
</g>
<!-- Node3 -->
<g id="node5" class="node"><title>Node3</title>
<polygon fill="white" stroke="#bfbfbf" points="208.5,-174.5 208.5,-195.5 237.5,-195.5 237.5,-174.5 208.5,-174.5"/>
<text text-anchor="middle" x="223" y="-182.5" font-family="Helvetica,sans-Serif" font-size="10.00">list</text>
</g>
<!-- Node1&#45;&gt;Node3 -->
<g id="edge4" class="edge"><title>Node1&#45;&gt;Node3</title>
<path fill="none" stroke="midnightblue" d="M522.723,-240.267C457.383,-235.978 347.595,-225.196 247.486,-195.804"/>
<polygon fill="midnightblue" stroke="midnightblue" points="248.414,-192.428 237.83,-192.901 246.398,-199.132 248.414,-192.428"/>
</g>
<!-- Node4 -->
<g id="node7" class="node"><title>Node4</title>
<polygon fill="white" stroke="#bfbfbf" points="254.5,-174.5 254.5,-195.5 335.5,-195.5 335.5,-174.5 254.5,-174.5"/>
<text text-anchor="middle" x="295" y="-182.5" font-family="Helvetica,sans-Serif" font-size="10.00">AsyncCaller.h</text>
</g>
<!-- Node1&#45;&gt;Node4 -->
<g id="edge6" class="edge"><title>Node1&#45;&gt;Node4</title>
<path fill="none" stroke="midnightblue" d="M525.083,-232.454C479.448,-223.602 412.55,-210.421 345.514,-196.291"/>
<polygon fill="midnightblue" stroke="midnightblue" points="346.133,-192.844 335.625,-194.2 344.685,-199.693 346.133,-192.844"/>
</g>
<!-- Node5 -->
<g id="node9" class="node"><title>Node5</title>
<a xlink:href="WebAppBase_8h.htm" target="_top" xlink:title="WebAppBase.h">
<polygon fill="white" stroke="black" points="352.5,-174.5 352.5,-195.5 441.5,-195.5 441.5,-174.5 352.5,-174.5"/>
<text text-anchor="middle" x="397" y="-182.5" font-family="Helvetica,sans-Serif" font-size="10.00">WebAppBase.h</text>
</a>
</g>
<!-- Node1&#45;&gt;Node5 -->
<g id="edge8" class="edge"><title>Node1&#45;&gt;Node5</title>
<path fill="none" stroke="midnightblue" d="M546.86,-232.497C516.897,-223 472.604,-208.962 439.938,-198.609"/>
<polygon fill="midnightblue" stroke="midnightblue" points="440.792,-195.208 430.202,-195.523 438.677,-201.881 440.792,-195.208"/>
</g>
<!-- Node16 -->
<g id="node33" class="node"><title>Node16</title>
<polygon fill="white" stroke="#bfbfbf" points="458.5,-174.5 458.5,-195.5 501.5,-195.5 501.5,-174.5 458.5,-174.5"/>
<text text-anchor="middle" x="480" y="-182.5" font-family="Helvetica,sans-Serif" font-size="10.00">sptr.h</text>
</g>
<!-- Node1&#45;&gt;Node16 -->
<g id="edge34" class="edge"><title>Node1&#45;&gt;Node16</title>
<path fill="none" stroke="midnightblue" d="M561.658,-232.362C546.434,-223.532 524.559,-210.844 507.28,-200.822"/>
<polygon fill="midnightblue" stroke="midnightblue" points="508.632,-197.56 498.225,-195.571 505.12,-203.615 508.632,-197.56"/>
</g>
<!-- Node17 -->
<g id="node35" class="node"><title>Node17</title>
<polygon fill="white" stroke="#bfbfbf" points="519,-174.5 519,-195.5 571,-195.5 571,-174.5 519,-174.5"/>
<text text-anchor="middle" x="545" y="-182.5" font-family="Helvetica,sans-Serif" font-size="10.00">Event.h</text>
</g>
<!-- Node1&#45;&gt;Node17 -->
<g id="edge36" class="edge"><title>Node1&#45;&gt;Node17</title>
<path fill="none" stroke="midnightblue" d="M573.58,-232.362C568.844,-224.513 562.268,-213.616 556.618,-204.253"/>
<polygon fill="midnightblue" stroke="midnightblue" points="559.542,-202.324 551.379,-195.571 553.549,-205.941 559.542,-202.324"/>
</g>
<!-- Node18 -->
<g id="node37" class="node"><title>Node18</title>
<polygon fill="white" stroke="#bfbfbf" points="589,-174.5 589,-195.5 641,-195.5 641,-174.5 589,-174.5"/>
<text text-anchor="middle" x="615" y="-182.5" font-family="Helvetica,sans-Serif" font-size="10.00">Timer.h</text>
</g>
<!-- Node1&#45;&gt;Node18 -->
<g id="edge38" class="edge"><title>Node1&#45;&gt;Node18</title>
<path fill="none" stroke="midnightblue" d="M586.42,-232.362C591.156,-224.513 597.732,-213.616 603.382,-204.253"/>
<polygon fill="midnightblue" stroke="midnightblue" points="606.451,-205.941 608.621,-195.571 600.458,-202.324 606.451,-205.941"/>
</g>
<!-- Node19 -->
<g id="node39" class="node"><title>Node19</title>
<polygon fill="white" stroke="#bfbfbf" points="658.5,-174.5 658.5,-195.5 769.5,-195.5 769.5,-174.5 658.5,-174.5"/>
<text text-anchor="middle" x="714" y="-182.5" font-family="Helvetica,sans-Serif" font-size="10.00">WindowProperties.h</text>
</g>
<!-- Node1&#45;&gt;Node19 -->
<g id="edge40" class="edge"><title>Node1&#45;&gt;Node19</title>
<path fill="none" stroke="midnightblue" d="M604.266,-232.497C625.478,-223.315 656.498,-209.889 680.15,-199.652"/>
<polygon fill="midnightblue" stroke="midnightblue" points="681.674,-202.806 689.461,-195.621 678.894,-196.381 681.674,-202.806"/>
</g>
<!-- Node20 -->
<g id="node41" class="node"><title>Node20</title>
<polygon fill="white" stroke="#bfbfbf" points="787,-174.5 787,-195.5 879,-195.5 879,-174.5 787,-174.5"/>
<text text-anchor="middle" x="833" y="-182.5" font-family="Helvetica,sans-Serif" font-size="10.00">WindowTypes.h</text>
</g>
<!-- Node1&#45;&gt;Node20 -->
<g id="edge42" class="edge"><title>Node1&#45;&gt;Node20</title>
<path fill="none" stroke="midnightblue" d="M625.816,-232.497C668.312,-222.755 731.657,-208.233 777.109,-197.813"/>
<polygon fill="midnightblue" stroke="midnightblue" points="778.133,-201.169 787.098,-195.523 776.568,-194.346 778.133,-201.169"/>
</g>
<!-- Node21 -->
<g id="node43" class="node"><title>Node21</title>
<polygon fill="white" stroke="#bfbfbf" points="897,-174.5 897,-195.5 1021,-195.5 1021,-174.5 897,-174.5"/>
<text text-anchor="middle" x="959" y="-182.5" font-family="Helvetica,sans-Serif" font-size="10.00">PIpcChannelListener.h</text>
</g>
<!-- Node1&#45;&gt;Node21 -->
<g id="edge44" class="edge"><title>Node1&#45;&gt;Node21</title>
<path fill="none" stroke="midnightblue" d="M637.056,-234.333C696.714,-225.262 793.362,-210.542 886.498,-196.229"/>
<polygon fill="midnightblue" stroke="midnightblue" points="887.311,-199.645 896.663,-194.666 886.247,-192.726 887.311,-199.645"/>
</g>
<!-- Node22 -->
<g id="node45" class="node"><title>Node22</title>
<polygon fill="white" stroke="#bfbfbf" points="1039,-174.5 1039,-195.5 1113,-195.5 1113,-174.5 1039,-174.5"/>
<text text-anchor="middle" x="1076" y="-182.5" font-family="Helvetica,sans-Serif" font-size="10.00">PIpcBuffer.h</text>
</g>
<!-- Node1&#45;&gt;Node22 -->
<g id="edge46" class="edge"><title>Node1&#45;&gt;Node22</title>
<path fill="none" stroke="midnightblue" d="M637.155,-239.433C721.008,-233.672 882.402,-220.575 1028.86,-196.016"/>
<polygon fill="midnightblue" stroke="midnightblue" points="1029.66,-199.43 1038.93,-194.304 1028.48,-192.529 1029.66,-199.43"/>
</g>
<!-- Node23 -->
<g id="node47" class="node"><title>Node23</title>
<polygon fill="white" stroke="#bfbfbf" points="1130.5,-174.5 1130.5,-195.5 1177.5,-195.5 1177.5,-174.5 1130.5,-174.5"/>
<text text-anchor="middle" x="1154" y="-182.5" font-family="Helvetica,sans-Serif" font-size="10.00">QRect</text>
</g>
<!-- Node1&#45;&gt;Node23 -->
<g id="edge48" class="edge"><title>Node1&#45;&gt;Node23</title>
<path fill="none" stroke="midnightblue" d="M637.224,-239.814C753.272,-233.072 1013.69,-216.441 1120.56,-195.834"/>
<polygon fill="midnightblue" stroke="midnightblue" points="1121.32,-199.252 1130.42,-193.827 1119.92,-192.393 1121.32,-199.252"/>
</g>
<!-- Node6 -->
<g id="node11" class="node"><title>Node6</title>
<a xlink:href="SysMgrWebBridge_8h.htm" target="_top" xlink:title="SysMgrWebBridge.h">
<polygon fill="white" stroke="black" points="256.5,-116.5 256.5,-137.5 369.5,-137.5 369.5,-116.5 256.5,-116.5"/>
<text text-anchor="middle" x="313" y="-124.5" font-family="Helvetica,sans-Serif" font-size="10.00">SysMgrWebBridge.h</text>
</a>
</g>
<!-- Node5&#45;&gt;Node6 -->
<g id="edge10" class="edge"><title>Node5&#45;&gt;Node6</title>
<path fill="none" stroke="midnightblue" d="M381.593,-174.362C369.042,-165.696 351.108,-153.313 336.725,-143.382"/>
<polygon fill="midnightblue" stroke="midnightblue" points="338.527,-140.372 328.309,-137.571 334.55,-146.133 338.527,-140.372"/>
</g>
<!-- Node11 -->
<g id="node22" class="node"><title>Node11</title>
<polygon fill="white" stroke="#bfbfbf" points="501,-58.5 501,-79.5 599,-79.5 599,-58.5 501,-58.5"/>
<text text-anchor="middle" x="550" y="-66.5" font-family="Helvetica,sans-Serif" font-size="10.00">palmimedefines.h</text>
</g>
<!-- Node5&#45;&gt;Node11 -->
<g id="edge32" class="edge"><title>Node5&#45;&gt;Node11</title>
<path fill="none" stroke="midnightblue" d="M397.003,-174.44C397.58,-159.514 400.822,-132.257 416,-116 427.435,-103.752 464.51,-91.2588 496.77,-82.2347"/>
<polygon fill="midnightblue" stroke="midnightblue" points="497.87,-85.5624 506.593,-79.5495 496.024,-78.8101 497.87,-85.5624"/>
</g>
<!-- Node14 -->
<g id="node28" class="node"><title>Node14</title>
<polygon fill="white" stroke="#bfbfbf" points="424.5,-116.5 424.5,-137.5 479.5,-137.5 479.5,-116.5 424.5,-116.5"/>
<text text-anchor="middle" x="452" y="-124.5" font-family="Helvetica,sans-Serif" font-size="10.00">QObject</text>
</g>
<!-- Node5&#45;&gt;Node14 -->
<g id="edge28" class="edge"><title>Node5&#45;&gt;Node14</title>
<path fill="none" stroke="midnightblue" d="M407.088,-174.362C414.841,-166.186 425.73,-154.702 434.845,-145.091"/>
<polygon fill="midnightblue" stroke="midnightblue" points="437.635,-147.235 441.976,-137.571 432.555,-142.419 437.635,-147.235"/>
</g>
<!-- Node15 -->
<g id="node30" class="node"><title>Node15</title>
<polygon fill="white" stroke="#bfbfbf" points="497,-116.5 497,-137.5 575,-137.5 575,-116.5 497,-116.5"/>
<text text-anchor="middle" x="536" y="-124.5" font-family="Helvetica,sans-Serif" font-size="10.00">lunaservice.h</text>
</g>
<!-- Node5&#45;&gt;Node15 -->
<g id="edge30" class="edge"><title>Node5&#45;&gt;Node15</title>
<path fill="none" stroke="midnightblue" d="M422.172,-174.497C444.273,-165.275 476.639,-151.769 501.213,-141.515"/>
<polygon fill="midnightblue" stroke="midnightblue" points="502.665,-144.702 510.546,-137.621 499.969,-138.242 502.665,-144.702"/>
</g>
<!-- Node7 -->
<g id="node13" class="node"><title>Node7</title>
<a xlink:href="ProcessBase_8h.htm" target="_top" xlink:title="ProcessBase.h">
<polygon fill="white" stroke="black" points="60.5,-58.5 60.5,-79.5 147.5,-79.5 147.5,-58.5 60.5,-58.5"/>
<text text-anchor="middle" x="104" y="-66.5" font-family="Helvetica,sans-Serif" font-size="10.00">ProcessBase.h</text>
</a>
</g>
<!-- Node6&#45;&gt;Node7 -->
<g id="edge12" class="edge"><title>Node6&#45;&gt;Node7</title>
<path fill="none" stroke="midnightblue" d="M275.152,-116.497C240.489,-106.877 189.035,-92.5981 151.598,-82.209"/>
<polygon fill="midnightblue" stroke="midnightblue" points="152.491,-78.8246 141.919,-79.5231 150.619,-85.5697 152.491,-78.8246"/>
</g>
<!-- Node9 -->
<g id="node18" class="node"><title>Node9</title>
<polygon fill="white" stroke="#bfbfbf" points="164.5,-58.5 164.5,-79.5 225.5,-79.5 225.5,-58.5 164.5,-58.5"/>
<text text-anchor="middle" x="195" y="-66.5" font-family="Helvetica,sans-Serif" font-size="10.00">QtWebKit</text>
</g>
<!-- Node6&#45;&gt;Node9 -->
<g id="edge18" class="edge"><title>Node6&#45;&gt;Node9</title>
<path fill="none" stroke="midnightblue" d="M291.631,-116.497C273.201,-107.438 246.363,-94.2462 225.645,-84.0628"/>
<polygon fill="midnightblue" stroke="midnightblue" points="227.127,-80.8914 216.609,-79.6212 224.039,-87.1735 227.127,-80.8914"/>
</g>
<!-- Node10 -->
<g id="node20" class="node"><title>Node10</title>
<polygon fill="white" stroke="#bfbfbf" points="242.5,-58.5 242.5,-79.5 301.5,-79.5 301.5,-58.5 242.5,-58.5"/>
<text text-anchor="middle" x="272" y="-66.5" font-family="Helvetica,sans-Serif" font-size="10.00">QPointer</text>
</g>
<!-- Node6&#45;&gt;Node10 -->
<g id="edge20" class="edge"><title>Node6&#45;&gt;Node10</title>
<path fill="none" stroke="midnightblue" d="M305.48,-116.362C299.874,-108.431 292.068,-97.3885 285.403,-87.9606"/>
<polygon fill="midnightblue" stroke="midnightblue" points="288.103,-85.7161 279.472,-79.5707 282.387,-89.7568 288.103,-85.7161"/>
</g>
<!-- Node6&#45;&gt;Node11 -->
<g id="edge22" class="edge"><title>Node6&#45;&gt;Node11</title>
<path fill="none" stroke="midnightblue" d="M355.919,-116.497C395.56,-106.795 454.568,-92.3547 497.106,-81.9445"/>
<polygon fill="midnightblue" stroke="midnightblue" points="498.119,-85.2999 507.001,-79.5231 496.455,-78.5006 498.119,-85.2999"/>
</g>
<!-- Node12 -->
<g id="node24" class="node"><title>Node12</title>
<polygon fill="white" stroke="#bfbfbf" points="318.5,-58.5 318.5,-79.5 389.5,-79.5 389.5,-58.5 318.5,-58.5"/>
<text text-anchor="middle" x="354" y="-66.5" font-family="Helvetica,sans-Serif" font-size="10.00">QWebPage</text>
</g>
<!-- Node6&#45;&gt;Node12 -->
<g id="edge24" class="edge"><title>Node6&#45;&gt;Node12</title>
<path fill="none" stroke="midnightblue" d="M320.52,-116.362C326.126,-108.431 333.932,-97.3885 340.597,-87.9606"/>
<polygon fill="midnightblue" stroke="midnightblue" points="343.613,-89.7568 346.528,-79.5707 337.897,-85.7161 343.613,-89.7568"/>
</g>
<!-- Node13 -->
<g id="node26" class="node"><title>Node13</title>
<polygon fill="white" stroke="#bfbfbf" points="407,-58.5 407,-79.5 483,-79.5 483,-58.5 407,-58.5"/>
<text text-anchor="middle" x="445" y="-66.5" font-family="Helvetica,sans-Serif" font-size="10.00">QWebFrame</text>
</g>
<!-- Node6&#45;&gt;Node13 -->
<g id="edge26" class="edge"><title>Node6&#45;&gt;Node13</title>
<path fill="none" stroke="midnightblue" d="M336.904,-116.497C357.8,-107.315 388.356,-93.8889 411.655,-83.6516"/>
<polygon fill="midnightblue" stroke="midnightblue" points="413.08,-86.8483 420.828,-79.6212 410.264,-80.4397 413.08,-86.8483"/>
</g>
<!-- Node7&#45;&gt;Node2 -->
<g id="edge14" class="edge"><title>Node7&#45;&gt;Node2</title>
<path fill="none" stroke="midnightblue" d="M90.9775,-58.3619C80.5688,-49.859 65.7806,-37.7785 53.7449,-27.9466"/>
<polygon fill="midnightblue" stroke="midnightblue" points="55.8987,-25.1866 45.9399,-21.5707 51.4701,-30.6077 55.8987,-25.1866"/>
</g>
<!-- Node8 -->
<g id="node16" class="node"><title>Node8</title>
<polygon fill="white" stroke="#bfbfbf" points="83.5,-0.5 83.5,-21.5 136.5,-21.5 136.5,-0.5 83.5,-0.5"/>
<text text-anchor="middle" x="110" y="-8.5" font-family="Helvetica,sans-Serif" font-size="10.00">QString</text>
</g>
<!-- Node7&#45;&gt;Node8 -->
<g id="edge16" class="edge"><title>Node7&#45;&gt;Node8</title>
<path fill="none" stroke="midnightblue" d="M105.1,-58.3619C105.87,-50.9219 106.923,-40.7427 107.856,-31.7276"/>
<polygon fill="midnightblue" stroke="midnightblue" points="111.359,-31.8777 108.906,-21.5707 104.396,-31.1574 111.359,-31.8777"/>
</g>
</g>
</svg>
