<?xml version="1.0" encoding="UTF-8" standalone="no"?>
<!DOCTYPE svg PUBLIC "-//W3C//DTD SVG 1.1//EN"
 "http://www.w3.org/Graphics/SVG/1.1/DTD/svg11.dtd">
<!-- Generated by graphviz version 2.26.3 (20100126.1600)
 -->
<!-- Title: WindowMetaData.h Pages: 1 -->
<svg width="622pt" height="102pt"
 viewBox="0.00 0.00 622.00 102.00" xmlns="http://www.w3.org/2000/svg" xmlns:xlink="http://www.w3.org/1999/xlink">
<g id="graph1" class="graph" transform="scale(1 1) rotate(0) translate(4 98)">
<title>WindowMetaData.h</title>
<polygon fill="white" stroke="white" points="-4,5 -4,-98 619,-98 619,5 -4,5"/>
<!-- Node1 -->
<g id="node1" class="node"><title>Node1</title>
<polygon fill="#bfbfbf" stroke="black" points="246.5,-72.5 246.5,-93.5 355.5,-93.5 355.5,-72.5 246.5,-72.5"/>
<text text-anchor="middle" x="301" y="-80.5" font-family="Helvetica,sans-Serif" font-size="10.00">WindowMetaData.h</text>
</g>
<!-- Node2 -->
<g id="node3" class="node"><title>Node2</title>
<a xlink:href="CardWebApp_8cpp.htm" target="_top" xlink:title="CardWebApp.cpp">
<polygon fill="white" stroke="black" points="-0.5,-7.5 -0.5,-28.5 98.5,-28.5 98.5,-7.5 -0.5,-7.5"/>
<text text-anchor="middle" x="49" y="-15.5" font-family="Helvetica,sans-Serif" font-size="10.00">CardWebApp.cpp</text>
</a>
</g>
<!-- Node1&#45;&gt;Node2 -->
<g id="edge2" class="edge"><title>Node1&#45;&gt;Node2</title>
<path fill="none" stroke="midnightblue" d="M243.692,-70.1192C204.938,-61.1632 152.692,-48.6113 107,-36 98.7678,-33.7278 89.9385,-31.0915 81.7141,-28.5489"/>
<polygon fill="midnightblue" stroke="midnightblue" points="243.213,-73.6005 253.743,-72.4314 244.783,-66.7786 243.213,-73.6005"/>
</g>
<!-- Node3 -->
<g id="node5" class="node"><title>Node3</title>
<a xlink:href="RemoteWindowDataOpenGLQt_8cpp.htm" target="_top" xlink:title="RemoteWindowDataOpenGLQt.cpp">
<polygon fill="white" stroke="black" points="115.5,-7.5 115.5,-28.5 300.5,-28.5 300.5,-7.5 115.5,-7.5"/>
<text text-anchor="middle" x="208" y="-15.5" font-family="Helvetica,sans-Serif" font-size="10.00">RemoteWindowDataOpenGLQt.cpp</text>
</a>
</g>
<!-- Node1&#45;&gt;Node3 -->
<g id="edge4" class="edge"><title>Node1&#45;&gt;Node3</title>
<path fill="none" stroke="midnightblue" d="M277.288,-66.4268C260.228,-54.5032 237.732,-38.7803 223.071,-28.5337"/>
<polygon fill="midnightblue" stroke="midnightblue" points="275.441,-69.4066 285.643,-72.2666 279.452,-63.6691 275.441,-69.4066"/>
</g>
<!-- Node4 -->
<g id="node7" class="node"><title>Node4</title>
<a xlink:href="RemoteWindowDataSoftwareQt_8cpp.htm" target="_top" xlink:title="RemoteWindowDataSoftware\lQt.cpp">
<polygon fill="white" stroke="black" points="317.5,-1 317.5,-35 472.5,-35 472.5,-1 317.5,-1"/>
<text text-anchor="start" x="325.5" y="-22" font-family="Helvetica,sans-Serif" font-size="10.00">RemoteWindowDataSoftware</text>
<text text-anchor="middle" x="395" y="-9" font-family="Helvetica,sans-Serif" font-size="10.00">Qt.cpp</text>
</a>
</g>
<!-- Node1&#45;&gt;Node4 -->
<g id="edge6" class="edge"><title>Node1&#45;&gt;Node4</title>
<path fill="none" stroke="midnightblue" d="M325.047,-66.3721C338.902,-56.7911 356.285,-44.7709 370.257,-35.1099"/>
<polygon fill="midnightblue" stroke="midnightblue" points="322.757,-63.7002 316.522,-72.2666 326.738,-69.4578 322.757,-63.7002"/>
</g>
<!-- Node5 -->
<g id="node9" class="node"><title>Node5</title>
<a xlink:href="WindowedWebApp_8cpp.htm" target="_top" xlink:title="WindowedWebApp.cpp">
<polygon fill="white" stroke="black" points="489.5,-7.5 489.5,-28.5 614.5,-28.5 614.5,-7.5 489.5,-7.5"/>
<text text-anchor="middle" x="552" y="-15.5" font-family="Helvetica,sans-Serif" font-size="10.00">WindowedWebApp.cpp</text>
</a>
</g>
<!-- Node1&#45;&gt;Node5 -->
<g id="edge8" class="edge"><title>Node1&#45;&gt;Node5</title>
<path fill="none" stroke="midnightblue" d="M351.296,-69.9752C398.374,-57.7835 467.822,-39.799 511.452,-28.5005"/>
<polygon fill="midnightblue" stroke="midnightblue" points="350.41,-66.5891 341.606,-72.4844 352.165,-73.3656 350.41,-66.5891"/>
</g>
</g>
</svg>
