<?xml version="1.0" encoding="UTF-8" standalone="no"?>
<!DOCTYPE svg PUBLIC "-//W3C//DTD SVG 1.1//EN"
 "http://www.w3.org/Graphics/SVG/1.1/DTD/svg11.dtd">
<!-- Generated by graphviz version 2.26.3 (20100126.1600)
 -->
<!-- Title: WindowedWebApp.h Pages: 1 -->
<svg width="1508pt" height="290pt"
 viewBox="0.00 0.00 1508.00 290.00" xmlns="http://www.w3.org/2000/svg" xmlns:xlink="http://www.w3.org/1999/xlink">
<g id="graph1" class="graph" transform="scale(1 1) rotate(0) translate(4 286)">
<title>WindowedWebApp.h</title>
<polygon fill="white" stroke="white" points="-4,5 -4,-286 1505,-286 1505,5 -4,5"/>
<!-- Node1 -->
<g id="node1" class="node"><title>Node1</title>
<polygon fill="#bfbfbf" stroke="black" points="777,-260.5 777,-281.5 891,-281.5 891,-260.5 777,-260.5"/>
<text text-anchor="middle" x="834" y="-268.5" font-family="Helvetica,sans-Serif" font-size="10.00">WindowedWebApp.h</text>
</g>
<!-- Node2 -->
<g id="node3" class="node"><title>Node2</title>
<a xlink:href="CardWebApp_8h.htm" target="_top" xlink:title="CardWebApp.h">
<polygon fill="white" stroke="black" points="657,-202.5 657,-223.5 745,-223.5 745,-202.5 657,-202.5"/>
<text text-anchor="middle" x="701" y="-210.5" font-family="Helvetica,sans-Serif" font-size="10.00">CardWebApp.h</text>
</a>
</g>
<!-- Node1&#45;&gt;Node2 -->
<g id="edge2" class="edge"><title>Node1&#45;&gt;Node2</title>
<path fill="none" stroke="midnightblue" d="M800.703,-256.479C777.29,-246.269 746.492,-232.839 725.356,-223.621"/>
<polygon fill="midnightblue" stroke="midnightblue" points="799.349,-259.707 809.915,-260.497 802.147,-253.291 799.349,-259.707"/>
</g>
<!-- Node4 -->
<g id="node7" class="node"><title>Node4</title>
<a xlink:href="DockWebApp_8h.htm" target="_top" xlink:title="DockWebApp.h">
<polygon fill="white" stroke="black" points="541.5,-144.5 541.5,-165.5 630.5,-165.5 630.5,-144.5 541.5,-144.5"/>
<text text-anchor="middle" x="586" y="-152.5" font-family="Helvetica,sans-Serif" font-size="10.00">DockWebApp.h</text>
</a>
</g>
<!-- Node1&#45;&gt;Node4 -->
<g id="edge42" class="edge"><title>Node1&#45;&gt;Node4</title>
<path fill="none" stroke="midnightblue" d="M766.738,-263.75C729.648,-257.44 683.967,-245.714 648,-224 623.183,-209.018 602.613,-180.992 592.587,-165.672"/>
<polygon fill="midnightblue" stroke="midnightblue" points="766.528,-267.261 776.957,-265.39 767.638,-260.349 766.528,-267.261"/>
</g>
<!-- Node7 -->
<g id="node14" class="node"><title>Node7</title>
<a xlink:href="WebAppFactoryMinimal_8cpp.htm" target="_top" xlink:title="WebAppFactoryMinimal.cpp">
<polygon fill="white" stroke="black" points="685.5,-144.5 685.5,-165.5 832.5,-165.5 832.5,-144.5 685.5,-144.5"/>
<text text-anchor="middle" x="759" y="-152.5" font-family="Helvetica,sans-Serif" font-size="10.00">WebAppFactoryMinimal.cpp</text>
</a>
</g>
<!-- Node1&#45;&gt;Node7 -->
<g id="edge58" class="edge"><title>Node1&#45;&gt;Node7</title>
<path fill="none" stroke="midnightblue" d="M821.571,-251.776C805.637,-227.132 778.561,-185.255 765.905,-165.679"/>
<polygon fill="midnightblue" stroke="midnightblue" points="818.71,-253.798 827.079,-260.295 824.588,-249.997 818.71,-253.798"/>
</g>
<!-- Node16 -->
<g id="node35" class="node"><title>Node16</title>
<a xlink:href="WindowedWebApp_8cpp.htm" target="_top" xlink:title="WindowedWebApp.cpp">
<polygon fill="white" stroke="black" points="-0.5,-79.5 -0.5,-100.5 124.5,-100.5 124.5,-79.5 -0.5,-79.5"/>
<text text-anchor="middle" x="62" y="-87.5" font-family="Helvetica,sans-Serif" font-size="10.00">WindowedWebApp.cpp</text>
</a>
</g>
<!-- Node1&#45;&gt;Node16 -->
<g id="edge64" class="edge"><title>Node1&#45;&gt;Node16</title>
<path fill="none" stroke="midnightblue" d="M766.746,-259.03C668.496,-241.133 480.204,-205.274 322,-166 239.615,-145.548 144.151,-116.154 95.0074,-100.595"/>
<polygon fill="midnightblue" stroke="midnightblue" points="766.368,-262.519 776.833,-260.862 767.619,-255.632 766.368,-262.519"/>
</g>
<!-- Node17 -->
<g id="node37" class="node"><title>Node17</title>
<a xlink:href="WebAppManager_8cpp.htm" target="_top" xlink:title="WebAppManager.cpp">
<polygon fill="white" stroke="black" points="849.5,-144.5 849.5,-165.5 968.5,-165.5 968.5,-144.5 849.5,-144.5"/>
<text text-anchor="middle" x="909" y="-152.5" font-family="Helvetica,sans-Serif" font-size="10.00">WebAppManager.cpp</text>
</a>
</g>
<!-- Node1&#45;&gt;Node17 -->
<g id="edge62" class="edge"><title>Node1&#45;&gt;Node17</title>
<path fill="none" stroke="midnightblue" d="M846.429,-251.776C862.363,-227.132 889.439,-185.255 902.095,-165.679"/>
<polygon fill="midnightblue" stroke="midnightblue" points="843.412,-249.997 840.921,-260.295 849.29,-253.798 843.412,-249.997"/>
</g>
<!-- Node18 -->
<g id="node40" class="node"><title>Node18</title>
<a xlink:href="AlertWebApp_8h.htm" target="_top" xlink:title="AlertWebApp.h">
<polygon fill="white" stroke="black" points="1017,-202.5 1017,-223.5 1103,-223.5 1103,-202.5 1017,-202.5"/>
<text text-anchor="middle" x="1060" y="-210.5" font-family="Helvetica,sans-Serif" font-size="10.00">AlertWebApp.h</text>
</a>
</g>
<!-- Node1&#45;&gt;Node18 -->
<g id="edge44" class="edge"><title>Node1&#45;&gt;Node18</title>
<path fill="none" stroke="midnightblue" d="M884.614,-258.011C925.137,-247.611 981.25,-233.21 1019,-223.523"/>
<polygon fill="midnightblue" stroke="midnightblue" points="883.743,-254.621 874.927,-260.497 885.483,-261.401 883.743,-254.621"/>
</g>
<!-- Node20 -->
<g id="node46" class="node"><title>Node20</title>
<a xlink:href="DashboardWebApp_8h.htm" target="_top" xlink:title="DashboardWebApp.h">
<polygon fill="white" stroke="black" points="1176,-202.5 1176,-223.5 1292,-223.5 1292,-202.5 1176,-202.5"/>
<text text-anchor="middle" x="1234" y="-210.5" font-family="Helvetica,sans-Serif" font-size="10.00">DashboardWebApp.h</text>
</a>
</g>
<!-- Node1&#45;&gt;Node20 -->
<g id="edge52" class="edge"><title>Node1&#45;&gt;Node20</title>
<path fill="none" stroke="midnightblue" d="M901.377,-261.23C978.321,-250.073 1102.95,-232.003 1175.82,-221.436"/>
<polygon fill="midnightblue" stroke="midnightblue" points="900.704,-257.791 891.31,-262.69 901.709,-264.719 900.704,-257.791"/>
</g>
<!-- Node22 -->
<g id="node52" class="node"><title>Node22</title>
<a xlink:href="WebAppDeferredUpdateHandler_8cpp.htm" target="_top" xlink:title="WebAppDeferredUpdateHandler.cpp">
<polygon fill="white" stroke="black" points="1310,-202.5 1310,-223.5 1500,-223.5 1500,-202.5 1310,-202.5"/>
<text text-anchor="middle" x="1405" y="-210.5" font-family="Helvetica,sans-Serif" font-size="10.00">WebAppDeferredUpdateHandler.cpp</text>
</a>
</g>
<!-- Node1&#45;&gt;Node22 -->
<g id="edge60" class="edge"><title>Node1&#45;&gt;Node22</title>
<path fill="none" stroke="midnightblue" d="M901.313,-264.334C992.084,-255.319 1158.76,-238.68 1301,-224 1303.89,-223.702 1306.82,-223.398 1309.79,-223.09"/>
<polygon fill="midnightblue" stroke="midnightblue" points="900.768,-260.87 891.162,-265.341 901.459,-267.836 900.768,-260.87"/>
</g>
<!-- Node3 -->
<g id="node5" class="node"><title>Node3</title>
<a xlink:href="CardWebApp_8cpp.htm" target="_top" xlink:title="CardWebApp.cpp">
<polygon fill="white" stroke="black" points="141.5,-79.5 141.5,-100.5 240.5,-100.5 240.5,-79.5 141.5,-79.5"/>
<text text-anchor="middle" x="191" y="-87.5" font-family="Helvetica,sans-Serif" font-size="10.00">CardWebApp.cpp</text>
</a>
</g>
<!-- Node2&#45;&gt;Node3 -->
<g id="edge4" class="edge"><title>Node2&#45;&gt;Node3</title>
<path fill="none" stroke="midnightblue" d="M646.845,-208.185C584.783,-201.876 480.373,-188.836 393,-166 326.297,-148.566 251.126,-116.932 214.119,-100.516"/>
<polygon fill="midnightblue" stroke="midnightblue" points="646.508,-211.669 656.806,-209.177 647.202,-204.703 646.508,-211.669"/>
</g>
<!-- Node2&#45;&gt;Node4 -->
<g id="edge6" class="edge"><title>Node2&#45;&gt;Node4</title>
<path fill="none" stroke="midnightblue" d="M671.124,-197.932C651.021,-187.793 625.01,-174.675 607.059,-165.621"/>
<polygon fill="midnightblue" stroke="midnightblue" points="669.67,-201.118 680.174,-202.497 672.822,-194.868 669.67,-201.118"/>
</g>
<!-- Node6 -->
<g id="node11" class="node"><title>Node6</title>
<a xlink:href="WebAppFactoryLuna_8cpp.htm" target="_top" xlink:title="WebAppFactoryLuna.cpp">
<polygon fill="white" stroke="black" points="1016,-79.5 1016,-100.5 1150,-100.5 1150,-79.5 1016,-79.5"/>
<text text-anchor="middle" x="1083" y="-87.5" font-family="Helvetica,sans-Serif" font-size="10.00">WebAppFactoryLuna.cpp</text>
</a>
</g>
<!-- Node2&#45;&gt;Node6 -->
<g id="edge12" class="edge"><title>Node2&#45;&gt;Node6</title>
<path fill="none" stroke="midnightblue" d="M685.285,-194.239C674.579,-179.099 664.428,-158.075 677,-144 724.375,-90.9589 924.759,-119.137 995,-108 1008.09,-105.924 1022.19,-103.243 1035.19,-100.586"/>
<polygon fill="midnightblue" stroke="midnightblue" points="682.641,-196.543 691.485,-202.376 688.208,-192.301 682.641,-196.543"/>
</g>
<!-- Node2&#45;&gt;Node7 -->
<g id="edge14" class="edge"><title>Node2&#45;&gt;Node7</title>
<path fill="none" stroke="midnightblue" d="M718.882,-195.118C728.562,-185.438 740.19,-173.81 748.429,-165.571"/>
<polygon fill="midnightblue" stroke="midnightblue" points="716.234,-192.816 711.638,-202.362 721.184,-197.766 716.234,-192.816"/>
</g>
<!-- Node8 -->
<g id="node16" class="node"><title>Node8</title>
<a xlink:href="PalmSystem_8cpp.htm" target="_top" xlink:title="PalmSystem.cpp">
<polygon fill="white" stroke="black" points="986,-144.5 986,-165.5 1080,-165.5 1080,-144.5 986,-144.5"/>
<text text-anchor="middle" x="1033" y="-152.5" font-family="Helvetica,sans-Serif" font-size="10.00">PalmSystem.cpp</text>
</a>
</g>
<!-- Node2&#45;&gt;Node8 -->
<g id="edge16" class="edge"><title>Node2&#45;&gt;Node8</title>
<path fill="none" stroke="midnightblue" d="M755.035,-204.213C810.728,-195.059 900.036,-180.11 977,-166 979.924,-165.464 982.931,-164.903 985.963,-164.329"/>
<polygon fill="midnightblue" stroke="midnightblue" points="754.339,-200.78 745.038,-205.853 755.473,-207.688 754.339,-200.78"/>
</g>
<!-- Node9 -->
<g id="node18" class="node"><title>Node9</title>
<a xlink:href="RemoteWindowData_8h.htm" target="_top" xlink:title="RemoteWindowData.h">
<polygon fill="white" stroke="black" points="402,-144.5 402,-165.5 524,-165.5 524,-144.5 402,-144.5"/>
<text text-anchor="middle" x="463" y="-152.5" font-family="Helvetica,sans-Serif" font-size="10.00">RemoteWindowData.h</text>
</a>
</g>
<!-- Node2&#45;&gt;Node9 -->
<g id="edge18" class="edge"><title>Node2&#45;&gt;Node9</title>
<path fill="none" stroke="midnightblue" d="M647.969,-200.077C605.274,-189.672 546.015,-175.231 506.181,-165.523"/>
<polygon fill="midnightblue" stroke="midnightblue" points="647.356,-203.529 657.9,-202.497 649.013,-196.728 647.356,-203.529"/>
</g>
<!-- Node2&#45;&gt;Node17 -->
<g id="edge40" class="edge"><title>Node2&#45;&gt;Node17</title>
<path fill="none" stroke="midnightblue" d="M748.77,-199.68C785.968,-189.307 836.889,-175.108 871.262,-165.523"/>
<polygon fill="midnightblue" stroke="midnightblue" points="747.36,-196.439 738.667,-202.497 749.24,-203.182 747.36,-196.439"/>
</g>
<!-- Node5 -->
<g id="node9" class="node"><title>Node5</title>
<a xlink:href="DockWebApp_8cpp.htm" target="_top" xlink:title="DockWebApp.cpp">
<polygon fill="white" stroke="black" points="886,-79.5 886,-100.5 986,-100.5 986,-79.5 886,-79.5"/>
<text text-anchor="middle" x="936" y="-87.5" font-family="Helvetica,sans-Serif" font-size="10.00">DockWebApp.cpp</text>
</a>
</g>
<!-- Node4&#45;&gt;Node5 -->
<g id="edge8" class="edge"><title>Node4&#45;&gt;Node5</title>
<path fill="none" stroke="midnightblue" d="M640.712,-144.571C641.817,-144.377 642.914,-144.187 644,-144 747.267,-126.235 774.85,-131.348 877,-108 885.978,-105.948 895.583,-103.243 904.379,-100.556"/>
<polygon fill="midnightblue" stroke="midnightblue" points="639.847,-141.17 630.62,-146.379 641.081,-148.06 639.847,-141.17"/>
</g>
<!-- Node4&#45;&gt;Node6 -->
<g id="edge10" class="edge"><title>Node4&#45;&gt;Node6</title>
<path fill="none" stroke="midnightblue" d="M640.7,-144.494C641.809,-144.324 642.91,-144.159 644,-144 799.177,-121.369 839.989,-131.742 995,-108 1008.26,-105.97 1022.54,-103.272 1035.66,-100.585"/>
<polygon fill="midnightblue" stroke="midnightblue" points="639.888,-141.08 630.584,-146.148 641.017,-147.989 639.888,-141.08"/>
</g>
<!-- Node9&#45;&gt;Node3 -->
<g id="edge20" class="edge"><title>Node9&#45;&gt;Node3</title>
<path fill="none" stroke="midnightblue" d="M399.07,-142.437C356.359,-133.682 299.046,-121.236 249,-108 240.642,-105.789 231.687,-103.148 223.376,-100.579"/>
<polygon fill="midnightblue" stroke="midnightblue" points="398.552,-145.903 409.049,-144.47 399.949,-139.044 398.552,-145.903"/>
</g>
<!-- Node9&#45;&gt;Node5 -->
<g id="edge22" class="edge"><title>Node9&#45;&gt;Node5</title>
<path fill="none" stroke="midnightblue" d="M534.293,-143.901C687.234,-124.664 729.583,-137.913 877,-108 886.341,-106.105 896.318,-103.352 905.36,-100.566"/>
<polygon fill="midnightblue" stroke="midnightblue" points="533.529,-140.47 524.057,-145.215 534.421,-147.413 533.529,-140.47"/>
</g>
<!-- Node10 -->
<g id="node22" class="node"><title>Node10</title>
<a xlink:href="RemoteWindowData_8cpp.htm" target="_top" xlink:title="RemoteWindowData.cpp">
<polygon fill="white" stroke="black" points="388.5,-7.5 388.5,-28.5 521.5,-28.5 521.5,-7.5 388.5,-7.5"/>
<text text-anchor="middle" x="455" y="-15.5" font-family="Helvetica,sans-Serif" font-size="10.00">RemoteWindowData.cpp</text>
</a>
</g>
<!-- Node9&#45;&gt;Node10 -->
<g id="edge24" class="edge"><title>Node9&#45;&gt;Node10</title>
<path fill="none" stroke="midnightblue" d="M461.783,-134.167C460.054,-104.552 456.948,-51.3644 455.625,-28.7002"/>
<polygon fill="midnightblue" stroke="midnightblue" points="458.295,-134.471 462.372,-144.25 465.283,-134.063 458.295,-134.471"/>
</g>
<!-- Node11 -->
<g id="node24" class="node"><title>Node11</title>
<a xlink:href="RemoteWindowDataSoftwareQt_8h.htm" target="_top" xlink:title="RemoteWindowDataSoftwareQt.h">
<polygon fill="white" stroke="black" points="503.5,-79.5 503.5,-100.5 678.5,-100.5 678.5,-79.5 503.5,-79.5"/>
<text text-anchor="middle" x="591" y="-87.5" font-family="Helvetica,sans-Serif" font-size="10.00">RemoteWindowDataSoftwareQt.h</text>
</a>
</g>
<!-- Node9&#45;&gt;Node11 -->
<g id="edge26" class="edge"><title>Node9&#45;&gt;Node11</title>
<path fill="none" stroke="midnightblue" d="M492.784,-139.875C516.52,-127.822 549.149,-111.253 570.159,-100.584"/>
<polygon fill="midnightblue" stroke="midnightblue" points="491.182,-136.763 483.85,-144.412 494.351,-143.005 491.182,-136.763"/>
</g>
<!-- Node13 -->
<g id="node29" class="node"><title>Node13</title>
<a xlink:href="RemoteWindowDataOpenGLQt_8h.htm" target="_top" xlink:title="RemoteWindowDataOpenGLQt.h">
<polygon fill="white" stroke="black" points="695.5,-79.5 695.5,-100.5 868.5,-100.5 868.5,-79.5 695.5,-79.5"/>
<text text-anchor="middle" x="782" y="-87.5" font-family="Helvetica,sans-Serif" font-size="10.00">RemoteWindowDataOpenGLQt.h</text>
</a>
</g>
<!-- Node9&#45;&gt;Node13 -->
<g id="edge32" class="edge"><title>Node9&#45;&gt;Node13</title>
<path fill="none" stroke="midnightblue" d="M524.682,-142.432C584.534,-130.236 674.321,-111.941 730.467,-100.501"/>
<polygon fill="midnightblue" stroke="midnightblue" points="523.707,-139.058 514.607,-144.484 525.105,-145.917 523.707,-139.058"/>
</g>
<!-- Node15 -->
<g id="node33" class="node"><title>Node15</title>
<a xlink:href="RemoteWindowDataOpenGLTextureShared_8h.htm" target="_top" xlink:title="RemoteWindowDataOpenGLTexture\lShared.h">
<polygon fill="white" stroke="black" points="258,-73 258,-107 448,-107 448,-73 258,-73"/>
<text text-anchor="start" x="266" y="-94" font-family="Helvetica,sans-Serif" font-size="10.00">RemoteWindowDataOpenGLTexture</text>
<text text-anchor="middle" x="353" y="-81" font-family="Helvetica,sans-Serif" font-size="10.00">Shared.h</text>
</a>
</g>
<!-- Node9&#45;&gt;Node15 -->
<g id="edge36" class="edge"><title>Node9&#45;&gt;Node15</title>
<path fill="none" stroke="midnightblue" d="M435.782,-138.917C419.423,-129.25 398.616,-116.955 381.955,-107.11"/>
<polygon fill="midnightblue" stroke="midnightblue" points="434.446,-142.192 444.836,-144.267 438.007,-136.166 434.446,-142.192"/>
</g>
<!-- Node9&#45;&gt;Node16 -->
<g id="edge38" class="edge"><title>Node9&#45;&gt;Node16</title>
<path fill="none" stroke="midnightblue" d="M391.81,-147.089C324.725,-139.109 221.564,-125.481 133,-108 122.396,-105.907 111.006,-103.219 100.521,-100.563"/>
<polygon fill="midnightblue" stroke="midnightblue" points="391.508,-150.578 401.85,-148.273 392.328,-143.626 391.508,-150.578"/>
</g>
<!-- Node11&#45;&gt;Node10 -->
<g id="edge28" class="edge"><title>Node11&#45;&gt;Node10</title>
<path fill="none" stroke="midnightblue" d="M561.877,-74.5817C535.747,-60.7486 498.086,-40.81 475.15,-28.6674"/>
<polygon fill="midnightblue" stroke="midnightblue" points="560.457,-77.7905 570.933,-79.3762 563.732,-71.604 560.457,-77.7905"/>
</g>
<!-- Node12 -->
<g id="node27" class="node"><title>Node12</title>
<a xlink:href="RemoteWindowDataSoftwareQt_8cpp.htm" target="_top" xlink:title="RemoteWindowDataSoftware\lQt.cpp">
<polygon fill="white" stroke="black" points="538.5,-1 538.5,-35 693.5,-35 693.5,-1 538.5,-1"/>
<text text-anchor="start" x="546.5" y="-22" font-family="Helvetica,sans-Serif" font-size="10.00">RemoteWindowDataSoftware</text>
<text text-anchor="middle" x="616" y="-9" font-family="Helvetica,sans-Serif" font-size="10.00">Qt.cpp</text>
</a>
</g>
<!-- Node11&#45;&gt;Node12 -->
<g id="edge30" class="edge"><title>Node11&#45;&gt;Node12</title>
<path fill="none" stroke="midnightblue" d="M598.01,-69.8113C601.807,-58.8757 606.448,-45.5109 610.064,-35.0944"/>
<polygon fill="midnightblue" stroke="midnightblue" points="594.663,-68.7813 594.689,-79.3762 601.275,-71.0775 594.663,-68.7813"/>
</g>
<!-- Node14 -->
<g id="node31" class="node"><title>Node14</title>
<a xlink:href="RemoteWindowDataOpenGLQt_8cpp.htm" target="_top" xlink:title="RemoteWindowDataOpenGLQt.cpp">
<polygon fill="white" stroke="black" points="710.5,-7.5 710.5,-28.5 895.5,-28.5 895.5,-7.5 710.5,-7.5"/>
<text text-anchor="middle" x="803" y="-15.5" font-family="Helvetica,sans-Serif" font-size="10.00">RemoteWindowDataOpenGLQt.cpp</text>
</a>
</g>
<!-- Node13&#45;&gt;Node14 -->
<g id="edge34" class="edge"><title>Node13&#45;&gt;Node14</title>
<path fill="none" stroke="midnightblue" d="M787.941,-69.6318C791.828,-56.3026 796.751,-39.4253 799.889,-28.6674"/>
<polygon fill="midnightblue" stroke="midnightblue" points="784.539,-68.7961 785.099,-79.3762 791.259,-70.7562 784.539,-68.7961"/>
</g>
<!-- Node18&#45;&gt;Node6 -->
<g id="edge48" class="edge"><title>Node18&#45;&gt;Node6</title>
<path fill="none" stroke="midnightblue" d="M1075.11,-193.92C1080.62,-185.797 1086.19,-175.919 1089,-166 1095.43,-143.335 1090.02,-115.446 1086.12,-100.555"/>
<polygon fill="midnightblue" stroke="midnightblue" points="1072.1,-192.103 1069.06,-202.252 1077.77,-196.215 1072.1,-192.103"/>
</g>
<!-- Node18&#45;&gt;Node8 -->
<g id="edge50" class="edge"><title>Node18&#45;&gt;Node8</title>
<path fill="none" stroke="midnightblue" d="M1050.73,-193.079C1046.43,-183.842 1041.49,-173.239 1037.92,-165.571"/>
<polygon fill="midnightblue" stroke="midnightblue" points="1047.65,-194.773 1055.05,-202.362 1054,-191.819 1047.65,-194.773"/>
</g>
<!-- Node19 -->
<g id="node42" class="node"><title>Node19</title>
<a xlink:href="AlertWebApp_8cpp.htm" target="_top" xlink:title="AlertWebApp.cpp">
<polygon fill="white" stroke="black" points="1136,-144.5 1136,-165.5 1234,-165.5 1234,-144.5 1136,-144.5"/>
<text text-anchor="middle" x="1185" y="-152.5" font-family="Helvetica,sans-Serif" font-size="10.00">AlertWebApp.cpp</text>
</a>
</g>
<!-- Node18&#45;&gt;Node19 -->
<g id="edge46" class="edge"><title>Node18&#45;&gt;Node19</title>
<path fill="none" stroke="midnightblue" d="M1091.88,-198.206C1113.81,-188.031 1142.42,-174.757 1162.11,-165.621"/>
<polygon fill="midnightblue" stroke="midnightblue" points="1090.23,-195.113 1082.64,-202.497 1093.18,-201.462 1090.23,-195.113"/>
</g>
<!-- Node20&#45;&gt;Node6 -->
<g id="edge56" class="edge"><title>Node20&#45;&gt;Node6</title>
<path fill="none" stroke="midnightblue" d="M1243.6,-192.739C1249.09,-177.919 1253.07,-158.033 1243,-144 1230.01,-125.9 1176.04,-110.257 1134.33,-100.534"/>
<polygon fill="midnightblue" stroke="midnightblue" points="1240.33,-191.48 1239.72,-202.057 1246.8,-194.172 1240.33,-191.48"/>
</g>
<!-- Node21 -->
<g id="node48" class="node"><title>Node21</title>
<a xlink:href="DashboardWebApp_8cpp.htm" target="_top" xlink:title="DashboardWebApp.cpp">
<polygon fill="white" stroke="black" points="1290,-144.5 1290,-165.5 1418,-165.5 1418,-144.5 1290,-144.5"/>
<text text-anchor="middle" x="1354" y="-152.5" font-family="Helvetica,sans-Serif" font-size="10.00">DashboardWebApp.cpp</text>
</a>
</g>
<!-- Node20&#45;&gt;Node21 -->
<g id="edge54" class="edge"><title>Node20&#45;&gt;Node21</title>
<path fill="none" stroke="midnightblue" d="M1264.89,-198.069C1285.91,-187.912 1313.21,-174.716 1332.03,-165.621"/>
<polygon fill="midnightblue" stroke="midnightblue" points="1263.21,-194.994 1255.73,-202.497 1266.26,-201.296 1263.21,-194.994"/>
</g>
</g>
</svg>
