<?xml version="1.0" encoding="UTF-8" standalone="no"?>
<!DOCTYPE svg PUBLIC "-//W3C//DTD SVG 1.1//EN"
 "http://www.w3.org/Graphics/SVG/1.1/DTD/svg11.dtd">
<!-- Generated by graphviz version 2.26.3 (20100126.1600)
 -->
<!-- Title: WindowedWebApp.cpp Pages: 1 -->
<svg width="2381pt" height="436pt"
 viewBox="0.00 0.00 2381.34 436.00" xmlns="http://www.w3.org/2000/svg" xmlns:xlink="http://www.w3.org/1999/xlink">
<g id="graph1" class="graph" transform="scale(1 1) rotate(0) translate(4 432)">
<title>WindowedWebApp.cpp</title>
<polygon fill="white" stroke="white" points="-4,5 -4,-432 2378.34,-432 2378.34,5 -4,5"/>
<!-- Node1 -->
<g id="node1" class="node"><title>Node1</title>
<polygon fill="#bfbfbf" stroke="black" points="751.5,-406.5 751.5,-427.5 876.5,-427.5 876.5,-406.5 751.5,-406.5"/>
<text text-anchor="middle" x="814" y="-414.5" font-family="Helvetica,sans-Serif" font-size="10.00">WindowedWebApp.cpp</text>
</g>
<!-- Node2 -->
<g id="node3" class="node"><title>Node2</title>
<polygon fill="white" stroke="#bfbfbf" points="865.5,-0.5 865.5,-21.5 932.5,-21.5 932.5,-0.5 865.5,-0.5"/>
<text text-anchor="middle" x="899" y="-8.5" font-family="Helvetica,sans-Serif" font-size="10.00">Common.h</text>
</g>
<!-- Node1&#45;&gt;Node2 -->
<g id="edge2" class="edge"><title>Node1&#45;&gt;Node2</title>
<path fill="none" stroke="midnightblue" d="M876.912,-412.221C1143.93,-391.309 2174.01,-304.063 2266,-196 2337.95,-111.476 2532.03,-204.36 2103,-58 1991.65,-20.0128 1146.16,-12.4943 942.859,-11.2298"/>
<polygon fill="midnightblue" stroke="midnightblue" points="942.592,-7.72823 932.571,-11.1678 942.55,-14.7281 942.592,-7.72823"/>
</g>
<!-- Node3 -->
<g id="node5" class="node"><title>Node3</title>
<polygon fill="white" stroke="#bfbfbf" points="39.5,-348.5 39.5,-369.5 92.5,-369.5 92.5,-348.5 39.5,-348.5"/>
<text text-anchor="middle" x="66" y="-356.5" font-family="Helvetica,sans-Serif" font-size="10.00">unistd.h</text>
</g>
<!-- Node1&#45;&gt;Node3 -->
<g id="edge4" class="edge"><title>Node1&#45;&gt;Node3</title>
<path fill="none" stroke="midnightblue" d="M751.441,-414.792C605.166,-409.328 243.167,-393.985 102.708,-369.9"/>
<polygon fill="midnightblue" stroke="midnightblue" points="103.049,-366.405 92.5863,-368.075 101.807,-373.294 103.049,-366.405"/>
</g>
<!-- Node4 -->
<g id="node7" class="node"><title>Node4</title>
<polygon fill="white" stroke="#bfbfbf" points="110,-348.5 110,-369.5 182,-369.5 182,-348.5 110,-348.5"/>
<text text-anchor="middle" x="146" y="-356.5" font-family="Helvetica,sans-Serif" font-size="10.00">cjson/json.h</text>
</g>
<!-- Node1&#45;&gt;Node4 -->
<g id="edge6" class="edge"><title>Node1&#45;&gt;Node4</title>
<path fill="none" stroke="midnightblue" d="M751.265,-415.673C640.242,-412.581 401.868,-402.605 192.207,-369.973"/>
<polygon fill="midnightblue" stroke="midnightblue" points="192.668,-366.503 182.245,-368.402 191.578,-373.418 192.668,-366.503"/>
</g>
<!-- Node5 -->
<g id="node9" class="node"><title>Node5</title>
<polygon fill="white" stroke="#bfbfbf" points="200,-348.5 200,-369.5 286,-369.5 286,-348.5 200,-348.5"/>
<text text-anchor="middle" x="243" y="-356.5" font-family="Helvetica,sans-Serif" font-size="10.00">PIpcChannel.h</text>
</g>
<!-- Node1&#45;&gt;Node5 -->
<g id="edge8" class="edge"><title>Node1&#45;&gt;Node5</title>
<path fill="none" stroke="midnightblue" d="M751.26,-413.282C654.196,-407.075 461.914,-392.968 300,-370 298.737,-369.821 297.46,-369.633 296.172,-369.436"/>
<polygon fill="midnightblue" stroke="midnightblue" points="296.618,-365.963 286.184,-367.802 295.487,-372.871 296.618,-365.963"/>
</g>
<!-- Node6 -->
<g id="node11" class="node"><title>Node6</title>
<a xlink:href="Debug_8h.htm" target="_top" xlink:title="Debug.h">
<polygon fill="white" stroke="black" points="-0.5,-290.5 -0.5,-311.5 54.5,-311.5 54.5,-290.5 -0.5,-290.5"/>
<text text-anchor="middle" x="27" y="-298.5" font-family="Helvetica,sans-Serif" font-size="10.00">Debug.h</text>
</a>
</g>
<!-- Node1&#45;&gt;Node6 -->
<g id="edge10" class="edge"><title>Node1&#45;&gt;Node6</title>
<path fill="none" stroke="midnightblue" d="M751.311,-415.486C570.01,-410.812 56.3268,-395.379 31,-370 18.7229,-357.698 19.058,-337.228 21.6636,-321.771"/>
<polygon fill="midnightblue" stroke="midnightblue" points="25.1717,-322.098 23.8143,-311.591 18.3228,-320.651 25.1717,-322.098"/>
</g>
<!-- Node7 -->
<g id="node14" class="node"><title>Node7</title>
<a xlink:href="EventReporter_8h.htm" target="_top" xlink:title="EventReporter.h">
<polygon fill="white" stroke="black" points="187,-174.5 187,-195.5 281,-195.5 281,-174.5 187,-174.5"/>
<text text-anchor="middle" x="234" y="-182.5" font-family="Helvetica,sans-Serif" font-size="10.00">EventReporter.h</text>
</a>
</g>
<!-- Node1&#45;&gt;Node7 -->
<g id="edge14" class="edge"><title>Node1&#45;&gt;Node7</title>
<path fill="none" stroke="midnightblue" d="M763.679,-406.426C723.863,-397.702 667.004,-384.447 618,-370 543.441,-348.019 523.598,-344.529 453,-312 379.304,-278.044 298.004,-227.013 258.396,-201.195"/>
<polygon fill="midnightblue" stroke="midnightblue" points="260.204,-198.196 249.922,-195.641 256.367,-204.05 260.204,-198.196"/>
</g>
<!-- Node10 -->
<g id="node21" class="node"><title>Node10</title>
<polygon fill="white" stroke="#bfbfbf" points="379.5,-348.5 379.5,-369.5 442.5,-369.5 442.5,-348.5 379.5,-348.5"/>
<text text-anchor="middle" x="411" y="-356.5" font-family="Helvetica,sans-Serif" font-size="10.00">Logging.h</text>
</g>
<!-- Node1&#45;&gt;Node10 -->
<g id="edge22" class="edge"><title>Node1&#45;&gt;Node10</title>
<path fill="none" stroke="midnightblue" d="M751.265,-410.862C679.531,-403.358 558.743,-389.242 456,-370 454.933,-369.8 453.853,-369.591 452.765,-369.373"/>
<polygon fill="midnightblue" stroke="midnightblue" points="453.377,-365.925 442.865,-367.245 451.905,-372.769 453.377,-365.925"/>
</g>
<!-- Node11 -->
<g id="node23" class="node"><title>Node11</title>
<a xlink:href="WebAppFactory_8h.htm" target="_top" xlink:title="WebAppFactory.h">
<polygon fill="white" stroke="black" points="127,-232.5 127,-253.5 227,-253.5 227,-232.5 127,-232.5"/>
<text text-anchor="middle" x="177" y="-240.5" font-family="Helvetica,sans-Serif" font-size="10.00">WebAppFactory.h</text>
</a>
</g>
<!-- Node1&#45;&gt;Node11 -->
<g id="edge24" class="edge"><title>Node1&#45;&gt;Node11</title>
<path fill="none" stroke="midnightblue" d="M751.31,-415.167C639.721,-411.188 411.457,-399.609 338,-370 276.993,-345.41 220.184,-290.161 193.291,-261.317"/>
<polygon fill="midnightblue" stroke="midnightblue" points="195.561,-258.614 186.226,-253.602 190.398,-263.341 195.561,-258.614"/>
</g>
<!-- Node14 -->
<g id="node30" class="node"><title>Node14</title>
<a xlink:href="WindowedWebApp_8h.htm" target="_top" xlink:title="WindowedWebApp.h">
<polygon fill="white" stroke="black" points="757,-232.5 757,-253.5 871,-253.5 871,-232.5 757,-232.5"/>
<text text-anchor="middle" x="814" y="-240.5" font-family="Helvetica,sans-Serif" font-size="10.00">WindowedWebApp.h</text>
</a>
</g>
<!-- Node1&#45;&gt;Node14 -->
<g id="edge32" class="edge"><title>Node1&#45;&gt;Node14</title>
<path fill="none" stroke="midnightblue" d="M814,-406.377C814,-378.293 814,-301.673 814,-264.203"/>
<polygon fill="midnightblue" stroke="midnightblue" points="817.5,-263.928 814,-253.928 810.5,-263.928 817.5,-263.928"/>
</g>
<!-- Node18 -->
<g id="node39" class="node"><title>Node18</title>
<a xlink:href="SysMgrWebBridge_8h.htm" target="_top" xlink:title="SysMgrWebBridge.h">
<polygon fill="white" stroke="black" points="404.5,-116.5 404.5,-137.5 517.5,-137.5 517.5,-116.5 404.5,-116.5"/>
<text text-anchor="middle" x="461" y="-124.5" font-family="Helvetica,sans-Serif" font-size="10.00">SysMgrWebBridge.h</text>
</a>
</g>
<!-- Node1&#45;&gt;Node18 -->
<g id="edge80" class="edge"><title>Node1&#45;&gt;Node18</title>
<path fill="none" stroke="midnightblue" d="M751.318,-414.366C635.852,-408.936 398.753,-394.874 371,-370 304.922,-310.778 282.208,-246.758 333,-174 341.987,-161.126 376.025,-148.975 406.742,-140.254"/>
<polygon fill="midnightblue" stroke="midnightblue" points="407.852,-143.579 416.562,-137.547 405.992,-136.83 407.852,-143.579"/>
</g>
<!-- Node32 -->
<g id="node73" class="node"><title>Node32</title>
<a xlink:href="RemoteWindowData_8h.htm" target="_top" xlink:title="RemoteWindowData.h">
<polygon fill="white" stroke="black" points="627,-348.5 627,-369.5 749,-369.5 749,-348.5 627,-348.5"/>
<text text-anchor="middle" x="688" y="-356.5" font-family="Helvetica,sans-Serif" font-size="10.00">RemoteWindowData.h</text>
</a>
</g>
<!-- Node1&#45;&gt;Node32 -->
<g id="edge82" class="edge"><title>Node1&#45;&gt;Node32</title>
<path fill="none" stroke="midnightblue" d="M791.182,-406.497C771.414,-397.397 742.587,-384.127 720.424,-373.925"/>
<polygon fill="midnightblue" stroke="midnightblue" points="721.621,-370.623 711.074,-369.621 718.694,-376.982 721.621,-370.623"/>
</g>
<!-- Node34 -->
<g id="node83" class="node"><title>Node34</title>
<polygon fill="white" stroke="#bfbfbf" points="910.5,-348.5 910.5,-369.5 973.5,-369.5 973.5,-348.5 910.5,-348.5"/>
<text text-anchor="middle" x="942" y="-356.5" font-family="Helvetica,sans-Serif" font-size="10.00">Settings.h</text>
</g>
<!-- Node1&#45;&gt;Node34 -->
<g id="edge98" class="edge"><title>Node1&#45;&gt;Node34</title>
<path fill="none" stroke="midnightblue" d="M837.18,-406.497C857.352,-397.356 886.81,-384.008 909.364,-373.788"/>
<polygon fill="midnightblue" stroke="midnightblue" points="910.896,-376.937 918.56,-369.621 908.007,-370.561 910.896,-376.937"/>
</g>
<!-- Node35 -->
<g id="node85" class="node"><title>Node35</title>
<polygon fill="white" stroke="#bfbfbf" points="991,-348.5 991,-369.5 1039,-369.5 1039,-348.5 991,-348.5"/>
<text text-anchor="middle" x="1015" y="-356.5" font-family="Helvetica,sans-Serif" font-size="10.00">Time.h</text>
</g>
<!-- Node1&#45;&gt;Node35 -->
<g id="edge100" class="edge"><title>Node1&#45;&gt;Node35</title>
<path fill="none" stroke="midnightblue" d="M853.875,-406.435C885.882,-397.822 932.181,-385.07 981.082,-370.191"/>
<polygon fill="midnightblue" stroke="midnightblue" points="982.356,-373.461 990.893,-367.187 980.307,-366.768 982.356,-373.461"/>
</g>
<!-- Node36 -->
<g id="node87" class="node"><title>Node36</title>
<polygon fill="white" stroke="#bfbfbf" points="1056.5,-348.5 1056.5,-369.5 1101.5,-369.5 1101.5,-348.5 1056.5,-348.5"/>
<text text-anchor="middle" x="1079" y="-356.5" font-family="Helvetica,sans-Serif" font-size="10.00">Utils.h</text>
</g>
<!-- Node1&#45;&gt;Node36 -->
<g id="edge102" class="edge"><title>Node1&#45;&gt;Node36</title>
<path fill="none" stroke="midnightblue" d="M876.647,-406.923C921.691,-399.106 983.973,-387.13 1046.41,-370.189"/>
<polygon fill="midnightblue" stroke="midnightblue" points="1047.72,-373.459 1056.43,-367.428 1045.86,-366.711 1047.72,-373.459"/>
</g>
<!-- Node37 -->
<g id="node89" class="node"><title>Node37</title>
<a xlink:href="WebAppManager_8h.htm" target="_top" xlink:title="WebAppManager.h">
<polygon fill="white" stroke="red" points="1456.5,-232.5 1456.5,-253.5 1563.5,-253.5 1563.5,-232.5 1456.5,-232.5"/>
<text text-anchor="middle" x="1510" y="-240.5" font-family="Helvetica,sans-Serif" font-size="10.00">WebAppManager.h</text>
</a>
</g>
<!-- Node1&#45;&gt;Node37 -->
<g id="edge104" class="edge"><title>Node1&#45;&gt;Node37</title>
<path fill="none" stroke="midnightblue" d="M823.964,-406.376C839.192,-390.85 869.886,-362.264 902,-348 999.08,-304.881 1310.67,-265.551 1446.12,-250.02"/>
<polygon fill="midnightblue" stroke="midnightblue" points="1446.8,-253.465 1456.34,-248.855 1446.01,-246.51 1446.8,-253.465"/>
</g>
<!-- Node47 -->
<g id="node125" class="node"><title>Node47</title>
<a xlink:href="WebKitKeyMap_8h.htm" target="_top" xlink:title="WebKitKeyMap.h">
<polygon fill="white" stroke="red" points="2160.5,-174.5 2160.5,-195.5 2257.5,-195.5 2257.5,-174.5 2160.5,-174.5"/>
<text text-anchor="middle" x="2209" y="-182.5" font-family="Helvetica,sans-Serif" font-size="10.00">WebKitKeyMap.h</text>
</a>
</g>
<!-- Node1&#45;&gt;Node47 -->
<g id="edge156" class="edge"><title>Node1&#45;&gt;Node47</title>
<path fill="none" stroke="midnightblue" d="M876.68,-407.221C936.612,-397.829 1029.51,-383.165 1110,-370 1507.91,-304.92 1986.23,-223.208 2150.39,-195.064"/>
<polygon fill="midnightblue" stroke="midnightblue" points="2151.01,-198.507 2160.28,-193.368 2149.83,-191.608 2151.01,-198.507"/>
</g>
<!-- Node48 -->
<g id="node129" class="node"><title>Node48</title>
<a xlink:href="WindowMetaData_8h.htm" target="_top" xlink:title="WindowMetaData.h">
<polygon fill="white" stroke="black" points="1993.5,-348.5 1993.5,-369.5 2102.5,-369.5 2102.5,-348.5 1993.5,-348.5"/>
<text text-anchor="middle" x="2048" y="-356.5" font-family="Helvetica,sans-Serif" font-size="10.00">WindowMetaData.h</text>
</a>
</g>
<!-- Node1&#45;&gt;Node48 -->
<g id="edge162" class="edge"><title>Node1&#45;&gt;Node48</title>
<path fill="none" stroke="midnightblue" d="M876.736,-415.467C1086.6,-410.181 1763.05,-391.84 1980,-370 1980.94,-369.906 1981.88,-369.807 1982.83,-369.704"/>
<polygon fill="midnightblue" stroke="midnightblue" points="1983.64,-373.131 1993.15,-368.453 1982.8,-366.182 1983.64,-373.131"/>
</g>
<!-- Node49 -->
<g id="node131" class="node"><title>Node49</title>
<polygon fill="white" stroke="#bfbfbf" points="2119.5,-348.5 2119.5,-369.5 2174.5,-369.5 2174.5,-348.5 2119.5,-348.5"/>
<text text-anchor="middle" x="2147" y="-356.5" font-family="Helvetica,sans-Serif" font-size="10.00">QDebug</text>
</g>
<!-- Node1&#45;&gt;Node49 -->
<g id="edge164" class="edge"><title>Node1&#45;&gt;Node49</title>
<path fill="none" stroke="midnightblue" d="M876.895,-415.682C1114.29,-410.578 1950.13,-391.401 2109.37,-369.752"/>
<polygon fill="midnightblue" stroke="midnightblue" points="2109.9,-373.212 2119.26,-368.256 2108.85,-366.291 2109.9,-373.212"/>
</g>
<!-- Node50 -->
<g id="node133" class="node"><title>Node50</title>
<polygon fill="white" stroke="#bfbfbf" points="2191.5,-348.5 2191.5,-369.5 2316.5,-369.5 2316.5,-348.5 2191.5,-348.5"/>
<text text-anchor="middle" x="2254" y="-356.5" font-family="Helvetica,sans-Serif" font-size="10.00">PIpcMessageMacros.h</text>
</g>
<!-- Node1&#45;&gt;Node50 -->
<g id="edge166" class="edge"><title>Node1&#45;&gt;Node50</title>
<path fill="none" stroke="midnightblue" d="M876.87,-415.84C1107.07,-411.439 1904.54,-394.803 2181.31,-370.046"/>
<polygon fill="midnightblue" stroke="midnightblue" points="2181.69,-373.526 2191.33,-369.125 2181.05,-366.555 2181.69,-373.526"/>
</g>
<!-- Node6&#45;&gt;Node2 -->
<g id="edge12" class="edge"><title>Node6&#45;&gt;Node2</title>
<path fill="none" stroke="midnightblue" d="M28.8558,-290.261C36.2748,-250.984 67.7416,-114.49 155,-58 213.752,-19.965 704.397,-12.6501 855.128,-11.2962"/>
<polygon fill="midnightblue" stroke="midnightblue" points="855.413,-14.794 865.383,-11.2087 855.353,-7.79423 855.413,-14.794"/>
</g>
<!-- Node7&#45;&gt;Node2 -->
<g id="edge16" class="edge"><title>Node7&#45;&gt;Node2</title>
<path fill="none" stroke="midnightblue" d="M242.464,-174.452C249.815,-165.105 260.574,-150.967 269,-138 291.228,-103.793 279.639,-79.9896 314,-58 359.232,-29.053 726.711,-15.908 855.001,-12.17"/>
<polygon fill="midnightblue" stroke="midnightblue" points="855.346,-15.6617 865.241,-11.8769 855.145,-8.66457 855.346,-15.6617"/>
</g>
<!-- Node8 -->
<g id="node17" class="node"><title>Node8</title>
<polygon fill="white" stroke="#bfbfbf" points="614,-116.5 614,-137.5 692,-137.5 692,-116.5 614,-116.5"/>
<text text-anchor="middle" x="653" y="-124.5" font-family="Helvetica,sans-Serif" font-size="10.00">lunaservice.h</text>
</g>
<!-- Node7&#45;&gt;Node8 -->
<g id="edge18" class="edge"><title>Node7&#45;&gt;Node8</title>
<path fill="none" stroke="midnightblue" d="M281.25,-178.459C361.295,-167.379 522.762,-145.028 603.986,-133.785"/>
<polygon fill="midnightblue" stroke="midnightblue" points="604.529,-137.243 613.955,-132.405 603.569,-130.309 604.529,-137.243"/>
</g>
<!-- Node9 -->
<g id="node19" class="node"><title>Node9</title>
<polygon fill="white" stroke="#bfbfbf" points="207.5,-116.5 207.5,-137.5 260.5,-137.5 260.5,-116.5 207.5,-116.5"/>
<text text-anchor="middle" x="234" y="-124.5" font-family="Helvetica,sans-Serif" font-size="10.00">Mutex.h</text>
</g>
<!-- Node7&#45;&gt;Node9 -->
<g id="edge20" class="edge"><title>Node7&#45;&gt;Node9</title>
<path fill="none" stroke="midnightblue" d="M234,-174.362C234,-166.922 234,-156.743 234,-147.728"/>
<polygon fill="midnightblue" stroke="midnightblue" points="237.5,-147.571 234,-137.571 230.5,-147.571 237.5,-147.571"/>
</g>
<!-- Node11&#45;&gt;Node2 -->
<g id="edge26" class="edge"><title>Node11&#45;&gt;Node2</title>
<path fill="none" stroke="midnightblue" d="M172.293,-232.445C159.096,-201.065 125.635,-107.46 172,-58 195.465,-32.9692 701.578,-16.6013 855.186,-12.1965"/>
<polygon fill="midnightblue" stroke="midnightblue" points="855.309,-15.6945 865.206,-11.9119 855.11,-8.69737 855.309,-15.6945"/>
</g>
<!-- Node12 -->
<g id="node26" class="node"><title>Node12</title>
<polygon fill="white" stroke="#bfbfbf" points="197.5,-0.5 197.5,-21.5 250.5,-21.5 250.5,-0.5 197.5,-0.5"/>
<text text-anchor="middle" x="224" y="-8.5" font-family="Helvetica,sans-Serif" font-size="10.00">QString</text>
</g>
<!-- Node11&#45;&gt;Node12 -->
<g id="edge28" class="edge"><title>Node11&#45;&gt;Node12</title>
<path fill="none" stroke="midnightblue" d="M164.811,-232.424C155.75,-223.699 144.108,-210.443 139,-196 118.549,-138.177 107.843,-110.83 139,-58 149.552,-40.1072 169.631,-28.5514 187.625,-21.377"/>
<polygon fill="midnightblue" stroke="midnightblue" points="189.142,-24.5492 197.333,-17.8296 186.739,-17.9744 189.142,-24.5492"/>
</g>
<!-- Node13 -->
<g id="node28" class="node"><title>Node13</title>
<polygon fill="white" stroke="#bfbfbf" points="375,-174.5 375,-195.5 467,-195.5 467,-174.5 375,-174.5"/>
<text text-anchor="middle" x="421" y="-182.5" font-family="Helvetica,sans-Serif" font-size="10.00">WindowTypes.h</text>
</g>
<!-- Node11&#45;&gt;Node13 -->
<g id="edge30" class="edge"><title>Node11&#45;&gt;Node13</title>
<path fill="none" stroke="midnightblue" d="M221.187,-232.497C262.084,-222.775 323.005,-208.294 366.821,-197.879"/>
<polygon fill="midnightblue" stroke="midnightblue" points="367.811,-201.241 376.731,-195.523 366.192,-194.431 367.811,-201.241"/>
</g>
<!-- Node14&#45;&gt;Node2 -->
<g id="edge34" class="edge"><title>Node14&#45;&gt;Node2</title>
<path fill="none" stroke="midnightblue" d="M817.873,-232.429C831.038,-196.497 874.206,-78.6742 891.619,-31.1453"/>
<polygon fill="midnightblue" stroke="midnightblue" points="894.95,-32.2272 895.104,-21.6335 888.377,-29.8191 894.95,-32.2272"/>
</g>
<!-- Node14&#45;&gt;Node13 -->
<g id="edge72" class="edge"><title>Node14&#45;&gt;Node13</title>
<path fill="none" stroke="midnightblue" d="M756.728,-236.087C691.479,-227.975 581.427,-213.581 477.239,-196.139"/>
<polygon fill="midnightblue" stroke="midnightblue" points="477.62,-192.654 467.177,-194.442 476.455,-199.556 477.62,-192.654"/>
</g>
<!-- Node15 -->
<g id="node33" class="node"><title>Node15</title>
<polygon fill="white" stroke="#bfbfbf" points="1160.5,-174.5 1160.5,-195.5 1189.5,-195.5 1189.5,-174.5 1160.5,-174.5"/>
<text text-anchor="middle" x="1175" y="-182.5" font-family="Helvetica,sans-Serif" font-size="10.00">list</text>
</g>
<!-- Node14&#45;&gt;Node15 -->
<g id="edge36" class="edge"><title>Node14&#45;&gt;Node15</title>
<path fill="none" stroke="midnightblue" d="M871.054,-240.415C937.054,-236.25 1048.72,-225.574 1150.37,-195.842"/>
<polygon fill="midnightblue" stroke="midnightblue" points="1151.6,-199.127 1160.17,-192.905 1149.59,-192.422 1151.6,-199.127"/>
</g>
<!-- Node16 -->
<g id="node35" class="node"><title>Node16</title>
<polygon fill="white" stroke="#bfbfbf" points="714.5,-174.5 714.5,-195.5 795.5,-195.5 795.5,-174.5 714.5,-174.5"/>
<text text-anchor="middle" x="755" y="-182.5" font-family="Helvetica,sans-Serif" font-size="10.00">AsyncCaller.h</text>
</g>
<!-- Node14&#45;&gt;Node16 -->
<g id="edge38" class="edge"><title>Node14&#45;&gt;Node16</title>
<path fill="none" stroke="midnightblue" d="M803.178,-232.362C794.779,-224.104 782.946,-212.472 773.11,-202.803"/>
<polygon fill="midnightblue" stroke="midnightblue" points="775.338,-200.085 765.753,-195.571 770.431,-205.077 775.338,-200.085"/>
</g>
<!-- Node17 -->
<g id="node37" class="node"><title>Node17</title>
<a xlink:href="WebAppBase_8h.htm" target="_top" xlink:title="WebAppBase.h">
<polygon fill="white" stroke="red" points="608.5,-174.5 608.5,-195.5 697.5,-195.5 697.5,-174.5 608.5,-174.5"/>
<text text-anchor="middle" x="653" y="-182.5" font-family="Helvetica,sans-Serif" font-size="10.00">WebAppBase.h</text>
</a>
</g>
<!-- Node14&#45;&gt;Node17 -->
<g id="edge40" class="edge"><title>Node14&#45;&gt;Node17</title>
<path fill="none" stroke="midnightblue" d="M784.844,-232.497C758.824,-223.123 720.521,-209.324 691.896,-199.012"/>
<polygon fill="midnightblue" stroke="midnightblue" points="692.805,-195.62 682.211,-195.523 690.432,-202.205 692.805,-195.62"/>
</g>
<!-- Node25 -->
<g id="node57" class="node"><title>Node25</title>
<polygon fill="white" stroke="#bfbfbf" points="484.5,-174.5 484.5,-195.5 527.5,-195.5 527.5,-174.5 484.5,-174.5"/>
<text text-anchor="middle" x="506" y="-182.5" font-family="Helvetica,sans-Serif" font-size="10.00">sptr.h</text>
</g>
<!-- Node14&#45;&gt;Node25 -->
<g id="edge64" class="edge"><title>Node14&#45;&gt;Node25</title>
<path fill="none" stroke="midnightblue" d="M756.908,-236.471C702.459,-229.544 618.129,-216.997 537.605,-196.111"/>
<polygon fill="midnightblue" stroke="midnightblue" points="538.368,-192.693 527.806,-193.523 536.58,-199.461 538.368,-192.693"/>
</g>
<!-- Node26 -->
<g id="node59" class="node"><title>Node26</title>
<polygon fill="white" stroke="#bfbfbf" points="1207,-174.5 1207,-195.5 1259,-195.5 1259,-174.5 1207,-174.5"/>
<text text-anchor="middle" x="1233" y="-182.5" font-family="Helvetica,sans-Serif" font-size="10.00">Event.h</text>
</g>
<!-- Node14&#45;&gt;Node26 -->
<g id="edge66" class="edge"><title>Node14&#45;&gt;Node26</title>
<path fill="none" stroke="midnightblue" d="M871.148,-239.281C944.654,-233.773 1076.28,-221.464 1196.98,-195.916"/>
<polygon fill="midnightblue" stroke="midnightblue" points="1197.73,-199.337 1206.76,-193.811 1196.25,-192.493 1197.73,-199.337"/>
</g>
<!-- Node27 -->
<g id="node61" class="node"><title>Node27</title>
<polygon fill="white" stroke="#bfbfbf" points="1668,-116.5 1668,-137.5 1720,-137.5 1720,-116.5 1668,-116.5"/>
<text text-anchor="middle" x="1694" y="-124.5" font-family="Helvetica,sans-Serif" font-size="10.00">Timer.h</text>
</g>
<!-- Node14&#45;&gt;Node27 -->
<g id="edge68" class="edge"><title>Node14&#45;&gt;Node27</title>
<path fill="none" stroke="midnightblue" d="M825.363,-232.405C843.385,-216.359 880.352,-186.448 918,-174 1061.67,-126.494 1447.2,-150.619 1598,-138 1617.84,-136.339 1639.93,-133.854 1657.9,-131.665"/>
<polygon fill="midnightblue" stroke="midnightblue" points="1658.47,-135.122 1667.97,-130.419 1657.61,-128.175 1658.47,-135.122"/>
</g>
<!-- Node28 -->
<g id="node63" class="node"><title>Node28</title>
<polygon fill="white" stroke="#bfbfbf" points="1276.5,-174.5 1276.5,-195.5 1387.5,-195.5 1387.5,-174.5 1276.5,-174.5"/>
<text text-anchor="middle" x="1332" y="-182.5" font-family="Helvetica,sans-Serif" font-size="10.00">WindowProperties.h</text>
</g>
<!-- Node14&#45;&gt;Node28 -->
<g id="edge70" class="edge"><title>Node14&#45;&gt;Node28</title>
<path fill="none" stroke="midnightblue" d="M871.125,-238.324C955.393,-231.153 1118.19,-216.259 1266.02,-196.21"/>
<polygon fill="midnightblue" stroke="midnightblue" points="1266.75,-199.642 1276.19,-194.82 1265.8,-192.707 1266.75,-199.642"/>
</g>
<!-- Node29 -->
<g id="node66" class="node"><title>Node29</title>
<polygon fill="white" stroke="#bfbfbf" points="927,-174.5 927,-195.5 1051,-195.5 1051,-174.5 927,-174.5"/>
<text text-anchor="middle" x="989" y="-182.5" font-family="Helvetica,sans-Serif" font-size="10.00">PIpcChannelListener.h</text>
</g>
<!-- Node14&#45;&gt;Node29 -->
<g id="edge74" class="edge"><title>Node14&#45;&gt;Node29</title>
<path fill="none" stroke="midnightblue" d="M845.691,-232.497C874.221,-223.041 916.336,-209.083 947.535,-198.743"/>
<polygon fill="midnightblue" stroke="midnightblue" points="948.858,-201.991 957.249,-195.523 946.656,-195.347 948.858,-201.991"/>
</g>
<!-- Node30 -->
<g id="node68" class="node"><title>Node30</title>
<polygon fill="white" stroke="#bfbfbf" points="1069,-174.5 1069,-195.5 1143,-195.5 1143,-174.5 1069,-174.5"/>
<text text-anchor="middle" x="1106" y="-182.5" font-family="Helvetica,sans-Serif" font-size="10.00">PIpcBuffer.h</text>
</g>
<!-- Node14&#45;&gt;Node30 -->
<g id="edge76" class="edge"><title>Node14&#45;&gt;Node30</title>
<path fill="none" stroke="midnightblue" d="M871.314,-232.82C919.023,-224.17 988.969,-211.086 1059,-196.151"/>
<polygon fill="midnightblue" stroke="midnightblue" points="1059.83,-199.552 1068.88,-194.032 1058.36,-192.707 1059.83,-199.552"/>
</g>
<!-- Node31 -->
<g id="node70" class="node"><title>Node31</title>
<polygon fill="white" stroke="#bfbfbf" points="544.5,-174.5 544.5,-195.5 591.5,-195.5 591.5,-174.5 544.5,-174.5"/>
<text text-anchor="middle" x="568" y="-182.5" font-family="Helvetica,sans-Serif" font-size="10.00">QRect</text>
</g>
<!-- Node14&#45;&gt;Node31 -->
<g id="edge78" class="edge"><title>Node14&#45;&gt;Node31</title>
<path fill="none" stroke="midnightblue" d="M757.692,-232.472C716.57,-224.365 659.342,-212.219 601.358,-196.189"/>
<polygon fill="midnightblue" stroke="midnightblue" points="602.244,-192.802 591.67,-193.476 600.356,-199.543 602.244,-192.802"/>
</g>
<!-- Node17&#45;&gt;Node8 -->
<g id="edge60" class="edge"><title>Node17&#45;&gt;Node8</title>
<path fill="none" stroke="midnightblue" d="M653,-174.362C653,-166.922 653,-156.743 653,-147.728"/>
<polygon fill="midnightblue" stroke="midnightblue" points="656.5,-147.571 653,-137.571 649.5,-147.571 656.5,-147.571"/>
</g>
<!-- Node17&#45;&gt;Node18 -->
<g id="edge42" class="edge"><title>Node17&#45;&gt;Node18</title>
<path fill="none" stroke="midnightblue" d="M618.23,-174.497C586.658,-164.959 539.921,-150.841 505.607,-140.475"/>
<polygon fill="midnightblue" stroke="midnightblue" points="506.42,-137.064 495.835,-137.523 504.396,-143.765 506.42,-137.064"/>
</g>
<!-- Node22 -->
<g id="node49" class="node"><title>Node22</title>
<polygon fill="white" stroke="#bfbfbf" points="697,-58.5 697,-79.5 795,-79.5 795,-58.5 697,-58.5"/>
<text text-anchor="middle" x="746" y="-66.5" font-family="Helvetica,sans-Serif" font-size="10.00">palmimedefines.h</text>
</g>
<!-- Node17&#45;&gt;Node22 -->
<g id="edge62" class="edge"><title>Node17&#45;&gt;Node22</title>
<path fill="none" stroke="midnightblue" d="M665.167,-174.456C675.333,-165.338 689.906,-151.527 701,-138 713.822,-122.367 726.206,-102.957 734.725,-88.7095"/>
<polygon fill="midnightblue" stroke="midnightblue" points="737.922,-90.1768 739.964,-79.7806 731.885,-86.6346 737.922,-90.1768"/>
</g>
<!-- Node19 -->
<g id="node41" class="node"><title>Node19</title>
<a xlink:href="ProcessBase_8h.htm" target="_top" xlink:title="ProcessBase.h">
<polygon fill="white" stroke="black" points="180.5,-58.5 180.5,-79.5 267.5,-79.5 267.5,-58.5 180.5,-58.5"/>
<text text-anchor="middle" x="224" y="-66.5" font-family="Helvetica,sans-Serif" font-size="10.00">ProcessBase.h</text>
</a>
</g>
<!-- Node18&#45;&gt;Node19 -->
<g id="edge44" class="edge"><title>Node18&#45;&gt;Node19</title>
<path fill="none" stroke="midnightblue" d="M418.081,-116.497C378.44,-106.795 319.432,-92.3547 276.894,-81.9445"/>
<polygon fill="midnightblue" stroke="midnightblue" points="277.545,-78.5006 266.999,-79.5231 275.881,-85.2999 277.545,-78.5006"/>
</g>
<!-- Node20 -->
<g id="node45" class="node"><title>Node20</title>
<polygon fill="white" stroke="#bfbfbf" points="416.5,-58.5 416.5,-79.5 477.5,-79.5 477.5,-58.5 416.5,-58.5"/>
<text text-anchor="middle" x="447" y="-66.5" font-family="Helvetica,sans-Serif" font-size="10.00">QtWebKit</text>
</g>
<!-- Node18&#45;&gt;Node20 -->
<g id="edge50" class="edge"><title>Node18&#45;&gt;Node20</title>
<path fill="none" stroke="midnightblue" d="M458.432,-116.362C456.617,-108.84 454.125,-98.5187 451.932,-89.4308"/>
<polygon fill="midnightblue" stroke="midnightblue" points="455.3,-88.4702 449.552,-79.5707 448.496,-90.1127 455.3,-88.4702"/>
</g>
<!-- Node21 -->
<g id="node47" class="node"><title>Node21</title>
<polygon fill="white" stroke="#bfbfbf" points="494.5,-58.5 494.5,-79.5 553.5,-79.5 553.5,-58.5 494.5,-58.5"/>
<text text-anchor="middle" x="524" y="-66.5" font-family="Helvetica,sans-Serif" font-size="10.00">QPointer</text>
</g>
<!-- Node18&#45;&gt;Node21 -->
<g id="edge52" class="edge"><title>Node18&#45;&gt;Node21</title>
<path fill="none" stroke="midnightblue" d="M472.555,-116.362C481.613,-108.023 494.41,-96.2418 504.974,-86.5162"/>
<polygon fill="midnightblue" stroke="midnightblue" points="507.532,-88.9187 512.518,-79.5707 502.79,-83.7688 507.532,-88.9187"/>
</g>
<!-- Node18&#45;&gt;Node22 -->
<g id="edge54" class="edge"><title>Node18&#45;&gt;Node22</title>
<path fill="none" stroke="midnightblue" d="M512.611,-116.497C561.636,-106.52 635.293,-91.5298 686.707,-81.0666"/>
<polygon fill="midnightblue" stroke="midnightblue" points="687.578,-84.4611 696.68,-79.0371 686.182,-77.6017 687.578,-84.4611"/>
</g>
<!-- Node23 -->
<g id="node51" class="node"><title>Node23</title>
<polygon fill="white" stroke="#bfbfbf" points="570.5,-58.5 570.5,-79.5 641.5,-79.5 641.5,-58.5 570.5,-58.5"/>
<text text-anchor="middle" x="606" y="-66.5" font-family="Helvetica,sans-Serif" font-size="10.00">QWebPage</text>
</g>
<!-- Node18&#45;&gt;Node23 -->
<g id="edge56" class="edge"><title>Node18&#45;&gt;Node23</title>
<path fill="none" stroke="midnightblue" d="M487.258,-116.497C510.416,-107.234 544.375,-93.6499 570.052,-83.3793"/>
<polygon fill="midnightblue" stroke="midnightblue" points="571.462,-86.5849 579.447,-79.6212 568.862,-80.0855 571.462,-86.5849"/>
</g>
<!-- Node24 -->
<g id="node53" class="node"><title>Node24</title>
<polygon fill="white" stroke="#bfbfbf" points="323,-58.5 323,-79.5 399,-79.5 399,-58.5 323,-58.5"/>
<text text-anchor="middle" x="361" y="-66.5" font-family="Helvetica,sans-Serif" font-size="10.00">QWebFrame</text>
</g>
<!-- Node18&#45;&gt;Node24 -->
<g id="edge58" class="edge"><title>Node18&#45;&gt;Node24</title>
<path fill="none" stroke="midnightblue" d="M442.658,-116.362C427.434,-107.532 405.559,-94.844 388.28,-84.8224"/>
<polygon fill="midnightblue" stroke="midnightblue" points="389.632,-81.5603 379.225,-79.5707 386.12,-87.6155 389.632,-81.5603"/>
</g>
<!-- Node19&#45;&gt;Node2 -->
<g id="edge46" class="edge"><title>Node19&#45;&gt;Node2</title>
<path fill="none" stroke="midnightblue" d="M267.795,-60.0227C272.244,-59.2686 276.705,-58.5759 281,-58 495.244,-29.2769 753.805,-16.6909 855.198,-12.6032"/>
<polygon fill="midnightblue" stroke="midnightblue" points="855.51,-16.0937 865.364,-12.2008 855.233,-9.09918 855.51,-16.0937"/>
</g>
<!-- Node19&#45;&gt;Node12 -->
<g id="edge48" class="edge"><title>Node19&#45;&gt;Node12</title>
<path fill="none" stroke="midnightblue" d="M224,-58.3619C224,-50.9219 224,-40.7427 224,-31.7276"/>
<polygon fill="midnightblue" stroke="midnightblue" points="227.5,-31.5706 224,-21.5707 220.5,-31.5707 227.5,-31.5706"/>
</g>
<!-- Node32&#45;&gt;Node2 -->
<g id="edge84" class="edge"><title>Node32&#45;&gt;Node2</title>
<path fill="none" stroke="midnightblue" d="M725.26,-348.432C768.821,-334.154 840.034,-304.495 880,-254 899.741,-229.059 899,-216.808 899,-185 899,-185 899,-185 899,-127 899,-93.5978 899,-54.7853 899,-31.5939"/>
<polygon fill="midnightblue" stroke="midnightblue" points="902.5,-31.5561 899,-21.5561 895.5,-31.5561 902.5,-31.5561"/>
</g>
<!-- Node32&#45;&gt;Node31 -->
<g id="edge86" class="edge"><title>Node32&#45;&gt;Node31</title>
<path fill="none" stroke="midnightblue" d="M680.674,-348.377C660.972,-319.809 606.632,-241.017 581.31,-204.3"/>
<polygon fill="midnightblue" stroke="midnightblue" points="584.095,-202.173 575.536,-195.928 578.332,-206.147 584.095,-202.173"/>
</g>
<!-- Node33 -->
<g id="node77" class="node"><title>Node33</title>
<a xlink:href="CardWebApp_8h.htm" target="_top" xlink:title="CardWebApp.h">
<polygon fill="white" stroke="red" points="462,-290.5 462,-311.5 550,-311.5 550,-290.5 462,-290.5"/>
<text text-anchor="middle" x="506" y="-298.5" font-family="Helvetica,sans-Serif" font-size="10.00">CardWebApp.h</text>
</a>
</g>
<!-- Node32&#45;&gt;Node33 -->
<g id="edge88" class="edge"><title>Node32&#45;&gt;Node33</title>
<path fill="none" stroke="midnightblue" d="M655.041,-348.497C625.242,-339 581.191,-324.962 548.703,-314.609"/>
<polygon fill="midnightblue" stroke="midnightblue" points="549.611,-311.225 539.021,-311.523 547.486,-317.894 549.611,-311.225"/>
</g>
<!-- Node33&#45;&gt;Node2 -->
<g id="edge90" class="edge"><title>Node33&#45;&gt;Node2</title>
<path fill="none" stroke="midnightblue" d="M476.745,-290.381C425.07,-270.038 326.64,-223.2 366,-174 411.533,-117.083 457.03,-161.579 526,-138 583.571,-118.318 596.066,-108.158 650,-80 667.299,-70.9684 669.82,-65.093 688,-58 743.673,-36.2793 811.723,-23.3955 855.213,-16.7589"/>
<polygon fill="midnightblue" stroke="midnightblue" points="855.801,-20.2101 865.18,-15.2819 854.775,-13.2857 855.801,-20.2101"/>
</g>
<!-- Node33&#45;&gt;Node13 -->
<g id="edge96" class="edge"><title>Node33&#45;&gt;Node13</title>
<path fill="none" stroke="midnightblue" d="M498.156,-290.295C483.734,-270.613 452.839,-228.45 434.825,-203.867"/>
<polygon fill="midnightblue" stroke="midnightblue" points="437.559,-201.677 428.825,-195.679 431.913,-205.814 437.559,-201.677"/>
</g>
<!-- Node33&#45;&gt;Node14 -->
<g id="edge94" class="edge"><title>Node33&#45;&gt;Node14</title>
<path fill="none" stroke="midnightblue" d="M550.129,-292.69C601.94,-282.933 688.371,-266.657 748.123,-255.405"/>
<polygon fill="midnightblue" stroke="midnightblue" points="749.034,-258.795 758.214,-253.505 747.739,-251.916 749.034,-258.795"/>
</g>
<!-- Node33&#45;&gt;Node25 -->
<g id="edge92" class="edge"><title>Node33&#45;&gt;Node25</title>
<path fill="none" stroke="midnightblue" d="M506,-290.295C506,-271.131 506,-230.654 506,-205.843"/>
<polygon fill="midnightblue" stroke="midnightblue" points="509.5,-205.679 506,-195.679 502.5,-205.679 509.5,-205.679"/>
</g>
<!-- Node37&#45;&gt;Node2 -->
<g id="edge106" class="edge"><title>Node37&#45;&gt;Node2</title>
<path fill="none" stroke="midnightblue" d="M1506.24,-232.413C1500.3,-217.2 1487.28,-189.305 1467,-174 1302.1,-49.553 1045.17,-20.0314 943.025,-13.0989"/>
<polygon fill="midnightblue" stroke="midnightblue" points="942.976,-9.58872 932.774,-12.4445 942.53,-16.5745 942.976,-9.58872"/>
</g>
<!-- Node37&#45;&gt;Node8 -->
<g id="edge148" class="edge"><title>Node37&#45;&gt;Node8</title>
<path fill="none" stroke="midnightblue" d="M1494.54,-232.358C1468.51,-214.667 1416.75,-180.504 1396,-174 1330.22,-153.382 858.037,-134.486 702.524,-128.762"/>
<polygon fill="midnightblue" stroke="midnightblue" points="702.436,-125.257 692.314,-128.389 702.18,-132.252 702.436,-125.257"/>
</g>
<!-- Node37&#45;&gt;Node12 -->
<g id="edge114" class="edge"><title>Node37&#45;&gt;Node12</title>
<path fill="none" stroke="midnightblue" d="M1501.13,-232.402C1487.53,-216.909 1459.93,-188.364 1430,-174 1214.75,-70.6956 439.593,-22.7502 260.917,-12.9339"/>
<polygon fill="midnightblue" stroke="midnightblue" points="260.899,-9.42778 250.724,-12.3798 260.519,-16.4175 260.899,-9.42778"/>
</g>
<!-- Node37&#45;&gt;Node13 -->
<g id="edge138" class="edge"><title>Node37&#45;&gt;Node13</title>
<path fill="none" stroke="midnightblue" d="M1456.27,-241.638C1275.29,-236.883 687.992,-220.059 477.182,-195.946"/>
<polygon fill="midnightblue" stroke="midnightblue" points="477.473,-192.456 467.131,-194.755 476.65,-199.407 477.473,-192.456"/>
</g>
<!-- Node37&#45;&gt;Node15 -->
<g id="edge110" class="edge"><title>Node37&#45;&gt;Node15</title>
<path fill="none" stroke="midnightblue" d="M1456.49,-239.773C1395.58,-235.039 1293.31,-223.859 1199.47,-195.827"/>
<polygon fill="midnightblue" stroke="midnightblue" points="1200.42,-192.457 1189.84,-192.879 1198.37,-199.151 1200.42,-192.457"/>
</g>
<!-- Node37&#45;&gt;Node26 -->
<g id="edge122" class="edge"><title>Node37&#45;&gt;Node26</title>
<path fill="none" stroke="midnightblue" d="M1456.27,-234.353C1409.19,-226.374 1338.77,-213.467 1269.11,-196.091"/>
<polygon fill="midnightblue" stroke="midnightblue" points="1269.84,-192.665 1259.28,-193.609 1268.12,-199.452 1269.84,-192.665"/>
</g>
<!-- Node37&#45;&gt;Node27 -->
<g id="edge136" class="edge"><title>Node37&#45;&gt;Node27</title>
<path fill="none" stroke="midnightblue" d="M1563.55,-239.693C1624.41,-234.686 1718.16,-222.757 1740,-196 1753.61,-179.323 1735.63,-158.587 1718.32,-144.223"/>
<polygon fill="midnightblue" stroke="midnightblue" points="1720.04,-141.132 1710.01,-137.73 1715.73,-146.647 1720.04,-141.132"/>
</g>
<!-- Node37&#45;&gt;Node28 -->
<g id="edge140" class="edge"><title>Node37&#45;&gt;Node28</title>
<path fill="none" stroke="midnightblue" d="M1477.77,-232.497C1448.75,-223.041 1405.91,-209.083 1374.18,-198.743"/>
<polygon fill="midnightblue" stroke="midnightblue" points="1374.89,-195.293 1364.29,-195.523 1372.72,-201.949 1374.89,-195.293"/>
</g>
<!-- Node37&#45;&gt;Node29 -->
<g id="edge154" class="edge"><title>Node37&#45;&gt;Node29</title>
<path fill="none" stroke="midnightblue" d="M1456.22,-238.253C1373.61,-230.77 1210.3,-215.22 1061.54,-196.153"/>
<polygon fill="midnightblue" stroke="midnightblue" points="1061.68,-192.642 1051.31,-194.833 1060.78,-199.584 1061.68,-192.642"/>
</g>
<!-- Node37&#45;&gt;Node30 -->
<g id="edge150" class="edge"><title>Node37&#45;&gt;Node30</title>
<path fill="none" stroke="midnightblue" d="M1456.35,-237.72C1388.09,-230.611 1266.4,-216.63 1152.98,-196.037"/>
<polygon fill="midnightblue" stroke="midnightblue" points="1153.55,-192.583 1143.09,-194.219 1152.29,-199.468 1153.55,-192.583"/>
</g>
<!-- Node38 -->
<g id="node92" class="node"><title>Node38</title>
<polygon fill="white" stroke="#bfbfbf" points="1898.5,-116.5 1898.5,-137.5 1935.5,-137.5 1935.5,-116.5 1898.5,-116.5"/>
<text text-anchor="middle" x="1917" y="-124.5" font-family="Helvetica,sans-Serif" font-size="10.00">map</text>
</g>
<!-- Node37&#45;&gt;Node38 -->
<g id="edge108" class="edge"><title>Node37&#45;&gt;Node38</title>
<path fill="none" stroke="midnightblue" d="M1563.64,-239.795C1664.19,-233.315 1873.14,-217.429 1898,-196 1911.71,-184.186 1915.97,-163.48 1917.09,-147.824"/>
<polygon fill="midnightblue" stroke="midnightblue" points="1920.6,-147.631 1917.45,-137.516 1913.61,-147.39 1920.6,-147.631"/>
</g>
<!-- Node39 -->
<g id="node95" class="node"><title>Node39</title>
<polygon fill="white" stroke="#bfbfbf" points="1594.5,-174.5 1594.5,-195.5 1637.5,-195.5 1637.5,-174.5 1594.5,-174.5"/>
<text text-anchor="middle" x="1616" y="-182.5" font-family="Helvetica,sans-Serif" font-size="10.00">string</text>
</g>
<!-- Node37&#45;&gt;Node39 -->
<g id="edge112" class="edge"><title>Node37&#45;&gt;Node39</title>
<path fill="none" stroke="midnightblue" d="M1529.44,-232.362C1545.8,-223.409 1569.41,-210.491 1587.84,-200.406"/>
<polygon fill="midnightblue" stroke="midnightblue" points="1589.59,-203.441 1596.68,-195.571 1586.23,-197.3 1589.59,-203.441"/>
</g>
<!-- Node40 -->
<g id="node98" class="node"><title>Node40</title>
<polygon fill="white" stroke="#bfbfbf" points="1654.5,-174.5 1654.5,-195.5 1731.5,-195.5 1731.5,-174.5 1654.5,-174.5"/>
<text text-anchor="middle" x="1693" y="-182.5" font-family="Helvetica,sans-Serif" font-size="10.00">QApplication</text>
</g>
<!-- Node37&#45;&gt;Node40 -->
<g id="edge116" class="edge"><title>Node37&#45;&gt;Node40</title>
<path fill="none" stroke="midnightblue" d="M1543.14,-232.497C1573.1,-223 1617.4,-208.962 1650.06,-198.609"/>
<polygon fill="midnightblue" stroke="midnightblue" points="1651.32,-201.881 1659.8,-195.523 1649.21,-195.208 1651.32,-201.881"/>
</g>
<!-- Node41 -->
<g id="node100" class="node"><title>Node41</title>
<a xlink:href="SyncTask_8h.htm" target="_top" xlink:title="SyncTask.h">
<polygon fill="white" stroke="red" points="1518.5,-116.5 1518.5,-137.5 1589.5,-137.5 1589.5,-116.5 1518.5,-116.5"/>
<text text-anchor="middle" x="1554" y="-124.5" font-family="Helvetica,sans-Serif" font-size="10.00">SyncTask.h</text>
</a>
</g>
<!-- Node37&#45;&gt;Node41 -->
<g id="edge118" class="edge"><title>Node37&#45;&gt;Node41</title>
<path fill="none" stroke="midnightblue" d="M1514.06,-232.295C1521.39,-212.959 1536.96,-171.923 1546.35,-147.177"/>
<polygon fill="midnightblue" stroke="midnightblue" points="1549.68,-148.27 1549.95,-137.679 1543.13,-145.788 1549.68,-148.27"/>
</g>
<!-- Node42 -->
<g id="node104" class="node"><title>Node42</title>
<a xlink:href="MemoryWatcher_8h.htm" target="_top" xlink:title="MemoryWatcher.h">
<polygon fill="white" stroke="red" points="1786.5,-174.5 1786.5,-195.5 1889.5,-195.5 1889.5,-174.5 1786.5,-174.5"/>
<text text-anchor="middle" x="1838" y="-182.5" font-family="Helvetica,sans-Serif" font-size="10.00">MemoryWatcher.h</text>
</a>
</g>
<!-- Node37&#45;&gt;Node42 -->
<g id="edge124" class="edge"><title>Node37&#45;&gt;Node42</title>
<path fill="none" stroke="midnightblue" d="M1563.8,-233.487C1622.16,-223.167 1715.18,-206.719 1776.42,-195.889"/>
<polygon fill="midnightblue" stroke="midnightblue" points="1777.1,-199.323 1786.34,-194.135 1775.88,-192.43 1777.1,-199.323"/>
</g>
<!-- Node43 -->
<g id="node108" class="node"><title>Node43</title>
<polygon fill="white" stroke="#bfbfbf" points="1738,-116.5 1738,-137.5 1810,-137.5 1810,-116.5 1738,-116.5"/>
<text text-anchor="middle" x="1774" y="-124.5" font-family="Helvetica,sans-Serif" font-size="10.00">SignalSlot.h</text>
</g>
<!-- Node37&#45;&gt;Node43 -->
<g id="edge134" class="edge"><title>Node37&#45;&gt;Node43</title>
<path fill="none" stroke="midnightblue" d="M1518.64,-232.367C1531.63,-217.094 1557.71,-189.127 1586,-174 1587.6,-173.144 1672.65,-152.041 1727.79,-138.407"/>
<polygon fill="midnightblue" stroke="midnightblue" points="1728.85,-141.752 1737.71,-135.955 1727.17,-134.957 1728.85,-141.752"/>
</g>
<!-- Node44 -->
<g id="node115" class="node"><title>Node44</title>
<a xlink:href="WebAppCache_8h.htm" target="_top" xlink:title="WebAppCache.h">
<polygon fill="white" stroke="black" points="1966.5,-58.5 1966.5,-79.5 2061.5,-79.5 2061.5,-58.5 1966.5,-58.5"/>
<text text-anchor="middle" x="2014" y="-66.5" font-family="Helvetica,sans-Serif" font-size="10.00">WebAppCache.h</text>
</a>
</g>
<!-- Node37&#45;&gt;Node44 -->
<g id="edge142" class="edge"><title>Node37&#45;&gt;Node44</title>
<path fill="none" stroke="midnightblue" d="M1563.52,-240.791C1707.84,-234.577 2095.42,-216.085 2114,-196 2148.91,-158.273 2082.68,-109.525 2042.17,-84.8353"/>
<polygon fill="midnightblue" stroke="midnightblue" points="2043.85,-81.7662 2033.47,-79.6614 2040.27,-87.7821 2043.85,-81.7662"/>
</g>
<!-- Node45 -->
<g id="node118" class="node"><title>Node45</title>
<polygon fill="white" stroke="#bfbfbf" points="1944.5,-174.5 1944.5,-195.5 2015.5,-195.5 2015.5,-174.5 1944.5,-174.5"/>
<text text-anchor="middle" x="1980" y="-182.5" font-family="Helvetica,sans-Serif" font-size="10.00">HostBase.h</text>
</g>
<!-- Node37&#45;&gt;Node45 -->
<g id="edge146" class="edge"><title>Node37&#45;&gt;Node45</title>
<path fill="none" stroke="midnightblue" d="M1563.76,-238.898C1644.05,-232.344 1799.9,-217.966 1931,-196 1932.1,-195.816 1933.21,-195.624 1934.32,-195.423"/>
<polygon fill="midnightblue" stroke="midnightblue" points="1935.34,-198.79 1944.5,-193.451 1934.01,-191.918 1935.34,-198.79"/>
</g>
<!-- Node46 -->
<g id="node122" class="node"><title>Node46</title>
<polygon fill="white" stroke="#bfbfbf" points="2032.5,-174.5 2032.5,-195.5 2105.5,-195.5 2105.5,-174.5 2032.5,-174.5"/>
<text text-anchor="middle" x="2069" y="-182.5" font-family="Helvetica,sans-Serif" font-size="10.00">PIpcClient.h</text>
</g>
<!-- Node37&#45;&gt;Node46 -->
<g id="edge152" class="edge"><title>Node37&#45;&gt;Node46</title>
<path fill="none" stroke="midnightblue" d="M1563.61,-240.723C1655.67,-236.241 1849.82,-224.288 2022.24,-196.113"/>
<polygon fill="midnightblue" stroke="midnightblue" points="2022.96,-199.541 2032.26,-194.453 2021.82,-192.635 2022.96,-199.541"/>
</g>
<!-- Node41&#45;&gt;Node2 -->
<g id="edge120" class="edge"><title>Node41&#45;&gt;Node2</title>
<path fill="none" stroke="midnightblue" d="M1549.92,-116.34C1543.22,-100.494 1528.27,-71.1786 1505,-58 1456.39,-30.4672 1073.53,-16.3243 942.674,-12.2587"/>
<polygon fill="midnightblue" stroke="midnightblue" points="942.711,-8.75834 932.608,-11.9506 942.496,-15.7551 942.711,-8.75834"/>
</g>
<!-- Node42&#45;&gt;Node2 -->
<g id="edge126" class="edge"><title>Node42&#45;&gt;Node2</title>
<path fill="none" stroke="midnightblue" d="M1838.3,-174.398C1838.11,-159.165 1835.36,-131.246 1819,-116 1723.15,-26.6941 1659.79,-75.7884 1530,-58 1310.61,-27.9325 1045.49,-16.0752 942.683,-12.3926"/>
<polygon fill="midnightblue" stroke="midnightblue" points="942.789,-8.89431 932.673,-12.0417 942.544,-15.89 942.789,-8.89431"/>
</g>
<!-- Node42&#45;&gt;Node27 -->
<g id="edge132" class="edge"><title>Node42&#45;&gt;Node27</title>
<path fill="none" stroke="midnightblue" d="M1811.92,-174.497C1788.93,-165.234 1755.2,-151.65 1729.7,-141.379"/>
<polygon fill="midnightblue" stroke="midnightblue" points="1730.95,-138.111 1720.37,-137.621 1728.34,-144.604 1730.95,-138.111"/>
</g>
<!-- Node42&#45;&gt;Node38 -->
<g id="edge128" class="edge"><title>Node42&#45;&gt;Node38</title>
<path fill="none" stroke="midnightblue" d="M1852.49,-174.362C1864.18,-165.777 1880.84,-153.546 1894.3,-143.664"/>
<polygon fill="midnightblue" stroke="midnightblue" points="1896.61,-146.31 1902.6,-137.571 1892.47,-140.667 1896.61,-146.31"/>
</g>
<!-- Node42&#45;&gt;Node43 -->
<g id="edge130" class="edge"><title>Node42&#45;&gt;Node43</title>
<path fill="none" stroke="midnightblue" d="M1826.26,-174.362C1817.06,-166.023 1804.06,-154.242 1793.33,-144.516"/>
<polygon fill="midnightblue" stroke="midnightblue" points="1795.42,-141.692 1785.66,-137.571 1790.72,-146.879 1795.42,-141.692"/>
</g>
<!-- Node44&#45;&gt;Node2 -->
<g id="edge144" class="edge"><title>Node44&#45;&gt;Node2</title>
<path fill="none" stroke="midnightblue" d="M1966.17,-65.5186C1933.92,-63.2291 1890.41,-60.2512 1852,-58 1501.81,-37.4771 1078.87,-18.7468 943.161,-12.8866"/>
<polygon fill="midnightblue" stroke="midnightblue" points="942.916,-9.37294 932.775,-12.4391 942.615,-16.3664 942.916,-9.37294"/>
</g>
<!-- Node47&#45;&gt;Node2 -->
<g id="edge158" class="edge"><title>Node47&#45;&gt;Node2</title>
<path fill="none" stroke="midnightblue" d="M2201.48,-174.169C2182.81,-148.309 2131.37,-83.2411 2070,-58 2016.97,-36.1888 1149.11,-16.3418 942.769,-11.9161"/>
<polygon fill="midnightblue" stroke="midnightblue" points="942.686,-8.41365 932.614,-11.6993 942.537,-15.4121 942.686,-8.41365"/>
</g>
<!-- Node47&#45;&gt;Node38 -->
<g id="edge160" class="edge"><title>Node47&#45;&gt;Node38</title>
<path fill="none" stroke="midnightblue" d="M2160.45,-175.357C2099.11,-163.173 1995.54,-142.6 1945.6,-132.682"/>
<polygon fill="midnightblue" stroke="midnightblue" points="1946.01,-129.194 1935.52,-130.678 1944.64,-136.059 1946.01,-129.194"/>
</g>
</g>
</svg>
